<svg width="390" height="844" viewBox="0 0 390 844" fill="none" xmlns="http://www.w3.org/2000/svg">
<g clip-path="url(#clip0_367_19378)">
<rect width="390" height="844" fill="white"/>
<path d="M96.5 -7.5L9.43269e-05 -7.5L4.08674e-06 450C77.5 499.206 97.1067 427.293 131 417C178.607 402.542 210.164 492 241 492C285.5 492 304.5 394 346.5 417C388.5 440 390 411.5 390 411.5L390 -7.5L231 -7.5L96.5 -7.5Z" fill="#E4E4E4"/>
<path d="M261.087 350.234C263.541 350.234 265.204 348.96 265.204 347.041C265.204 345.583 264.186 344.661 262.611 344.514V344.47C263.856 344.214 264.815 343.335 264.815 341.995C264.815 340.303 263.307 339.197 261.073 339.197C259.205 339.197 258.004 340.061 257.535 341.094C257.425 341.343 257.374 341.555 257.374 341.804C257.374 342.339 257.689 342.698 258.304 342.698C258.802 342.698 259.059 342.515 259.3 342.017C259.645 341.27 260.187 340.896 261.08 340.896C262.149 340.896 262.721 341.46 262.721 342.31C262.721 343.174 262.003 343.774 260.897 343.774H260.465C259.93 343.774 259.623 344.097 259.623 344.558C259.623 345.034 259.93 345.349 260.465 345.349H260.926C262.208 345.349 262.962 345.92 262.955 346.946C262.955 347.825 262.208 348.455 261.124 348.455C260.025 348.455 259.454 348.015 259.081 347.275C258.861 346.873 258.583 346.697 258.143 346.697C257.535 346.697 257.169 347.056 257.169 347.627C257.169 347.847 257.22 348.081 257.337 348.323C257.835 349.363 259.073 350.234 261.087 350.234ZM270.741 350.234C273.421 350.234 275.047 348.103 275.047 344.69C275.047 341.277 273.407 339.189 270.741 339.189C268.075 339.189 266.427 341.284 266.427 344.697C266.427 348.118 268.06 350.234 270.741 350.234ZM270.741 348.462C269.437 348.462 268.675 347.122 268.675 344.697C268.675 342.295 269.452 340.962 270.741 340.962C272.037 340.962 272.799 342.288 272.799 344.697C272.799 347.122 272.044 348.462 270.741 348.462ZM280.401 350.154C281.031 350.154 281.471 349.766 281.471 349.041V345.261C281.471 344.382 282.02 343.767 282.833 343.767C283.624 343.767 284.1 344.265 284.1 345.107V349.041C284.1 349.766 284.496 350.154 285.125 350.154C285.763 350.154 286.158 349.766 286.158 349.041V345.232C286.158 344.36 286.693 343.767 287.506 343.767C288.333 343.767 288.788 344.265 288.788 345.173V349.041C288.788 349.766 289.22 350.154 289.85 350.154C290.487 350.154 290.926 349.766 290.926 349.041V344.639C290.926 343.057 289.894 342.002 288.355 342.002C287.206 342.002 286.268 342.625 285.917 343.613H285.873C285.609 342.588 284.818 342.002 283.683 342.002C282.613 342.002 281.771 342.625 281.441 343.569H281.397V343.079C281.397 342.361 280.973 341.987 280.365 341.987C279.757 341.987 279.332 342.361 279.332 343.079V349.041C279.332 349.766 279.764 350.154 280.401 350.154Z" fill="black"/>
<path d="M195.505 418.154C196.157 418.154 196.596 417.714 196.596 417.048V408.508C196.596 407.746 196.127 407.27 195.344 407.27C194.89 407.27 194.538 407.336 194.025 407.688L191.931 409.138C191.586 409.379 191.455 409.628 191.455 409.965C191.455 410.434 191.784 410.756 192.231 410.756C192.458 410.756 192.612 410.705 192.817 410.559L194.362 409.482H194.406V417.048C194.406 417.714 194.853 418.154 195.505 418.154ZM203.02 418.154C203.649 418.154 204.089 417.773 204.089 417.041V413.518C204.089 412.485 204.682 411.774 205.693 411.774C206.667 411.774 207.165 412.39 207.165 413.4V417.041C207.165 417.773 207.612 418.154 208.234 418.154C208.864 418.154 209.304 417.773 209.304 417.041V412.946C209.304 411.13 208.308 410.002 206.564 410.002C205.371 410.002 204.514 410.559 204.096 411.547H204.052V408.369C204.052 407.68 203.664 407.27 203.005 407.27C202.346 407.27 201.95 407.68 201.95 408.369V417.041C201.95 417.773 202.397 418.154 203.02 418.154Z" fill="black"/>
<path d="M105.73 355.154C106.382 355.154 106.821 354.714 106.821 354.048V345.508C106.821 344.746 106.353 344.27 105.569 344.27C105.115 344.27 104.763 344.336 104.25 344.688L102.156 346.138C101.812 346.379 101.68 346.628 101.68 346.965C101.68 347.434 102.009 347.756 102.456 347.756C102.683 347.756 102.837 347.705 103.042 347.559L104.587 346.482H104.631V354.048C104.631 354.714 105.078 355.154 105.73 355.154ZM113.259 355.234C115.669 355.234 117.346 353.711 117.346 351.455C117.346 349.441 115.911 348.02 113.889 348.02C112.812 348.02 111.948 348.445 111.516 349.126H111.472L111.721 346.189H115.896C116.453 346.189 116.804 345.845 116.804 345.31C116.804 344.775 116.445 344.431 115.896 344.431H111.26C110.403 344.431 109.941 344.79 109.868 345.684L109.561 349.558C109.553 349.595 109.553 349.617 109.553 349.646C109.524 350.239 109.868 350.745 110.593 350.745C111.084 350.745 111.304 350.635 111.736 350.232C112.109 349.873 112.637 349.602 113.267 349.602C114.417 349.602 115.237 350.393 115.237 351.506C115.237 352.649 114.409 353.477 113.259 353.477C112.307 353.477 111.685 353.015 111.304 352.253C111.055 351.858 110.776 351.704 110.337 351.704C109.766 351.704 109.414 352.041 109.414 352.605C109.414 352.869 109.48 353.096 109.59 353.33C110.117 354.451 111.582 355.234 113.259 355.234ZM122.568 355.154C123.198 355.154 123.638 354.766 123.638 354.041V350.261C123.638 349.382 124.187 348.767 125 348.767C125.791 348.767 126.267 349.265 126.267 350.107V354.041C126.267 354.766 126.663 355.154 127.292 355.154C127.93 355.154 128.325 354.766 128.325 354.041V350.232C128.325 349.36 128.86 348.767 129.673 348.767C130.5 348.767 130.955 349.265 130.955 350.173V354.041C130.955 354.766 131.387 355.154 132.017 355.154C132.654 355.154 133.093 354.766 133.093 354.041V349.639C133.093 348.057 132.061 347.002 130.522 347.002C129.373 347.002 128.435 347.625 128.083 348.613H128.04C127.776 347.588 126.985 347.002 125.85 347.002C124.78 347.002 123.938 347.625 123.608 348.569H123.564V348.079C123.564 347.361 123.14 346.987 122.532 346.987C121.924 346.987 121.499 347.361 121.499 348.079V354.041C121.499 354.766 121.931 355.154 122.568 355.154Z" fill="black"/>
<circle cx="270.5" cy="303.5" r="27.5" fill="black"/>
<circle cx="200" cy="366" r="35" fill="black"/>
<path d="M210.827 485C210.827 504.33 210.827 539.5 185.327 539.5C147.827 539.5 159.827 504.33 159.827 485C159.827 465.67 171.244 450 185.327 450C199.411 450 210.827 465.67 210.827 485Z" fill="black"/>
<circle cx="117.5" cy="317.5" r="17.5" fill="black"/>
<circle cx="188.833" cy="278.833" r="45.8333" fill="black"/>
<path d="M181.209 287.338C182.021 288.15 183.165 288.067 183.977 287.255L189.794 281.438L195.279 286.923C196.091 287.735 197.235 287.818 198.047 287.006C198.859 286.194 198.776 285.051 197.964 284.239L192.479 278.753L198.312 272.919C199.124 272.107 199.207 270.964 198.395 270.152C197.583 269.34 196.44 269.423 195.627 270.235L189.794 276.068L184.292 270.566C183.48 269.754 182.336 269.671 181.524 270.483C180.712 271.295 180.795 272.439 181.607 273.251L187.109 278.753L181.292 284.57C180.48 285.382 180.397 286.526 181.209 287.338Z" fill="white"/>
<path d="M92.5 207.297C93.75 207.297 94.4531 206.672 94.8906 205.172L96.0781 201.656H104.219L105.406 205.219C105.828 206.688 106.531 207.297 107.859 207.297C109.234 207.297 110.219 206.375 110.219 205.078C110.219 204.609 110.141 204.188 109.922 203.578L103.734 186.797C103.062 184.953 101.969 184.141 100.125 184.141C98.3438 184.141 97.2344 184.984 96.5781 186.812L90.4219 203.578C90.2188 204.156 90.1094 204.688 90.1094 205.078C90.1094 206.438 91.0312 207.297 92.5 207.297ZM97.1094 198L100.031 188.766H100.141L103.125 198H97.1094ZM114.984 212.969C116.328 212.969 117.266 212.156 117.266 210.594V204.188H117.359C118.25 206.078 120.125 207.266 122.562 207.266C126.75 207.266 129.344 204.016 129.344 198.625C129.344 193.219 126.734 189.984 122.484 189.984C120.062 189.984 118.203 191.203 117.297 193.172H117.203V192.266C117.203 190.719 116.266 189.906 114.953 189.906C113.641 189.906 112.703 190.719 112.703 192.25V210.594C112.703 212.156 113.656 212.969 114.984 212.969ZM120.953 203.594C118.719 203.594 117.25 201.656 117.25 198.625C117.25 195.625 118.719 193.641 120.953 193.641C123.234 193.641 124.672 195.594 124.672 198.625C124.672 201.672 123.234 203.594 120.953 203.594ZM133.984 207.328C135.375 207.328 136.266 206.469 136.266 204.953V197.516C136.266 195.531 137 194.359 139.078 194.328C139.969 194.312 140.625 194.109 141.062 193.734C141.5 193.359 141.719 192.812 141.719 192.094C141.719 191.312 141.5 190.75 141.062 190.406C140.734 190.125 140.25 189.984 139.641 189.984C137.969 189.984 136.594 191.219 136.156 193.297H136.062V192.203C136.062 190.75 135.188 189.906 133.906 189.906C132.594 189.906 131.703 190.75 131.703 192.203V204.953C131.703 206.469 132.609 207.328 133.984 207.328ZM150.5 207.359C153.734 207.359 156.328 206.141 157.438 204.078C157.641 203.703 157.75 203.328 157.75 202.969C157.75 201.922 156.953 201.297 155.969 201.297C155.375 201.297 154.969 201.469 154.484 201.969C153.25 203.422 152.156 203.984 150.484 203.984C148.172 203.984 146.672 202.359 146.672 199.875V199.672H156.234C157.5 199.672 158.219 198.953 158.219 197.688C158.219 193.141 155.031 189.891 150.281 189.891C145.328 189.891 142.188 193.312 142.188 198.703C142.188 204.125 145.266 207.359 150.5 207.359ZM146.719 196.875C146.875 194.734 148.328 193.266 150.328 193.266C152.328 193.266 153.734 194.688 153.828 196.875H146.719ZM167.406 207.359C171.828 207.359 174.812 205.203 174.812 201.875C174.812 199.375 173.344 198.062 169.781 197.312L167.016 196.719C165.344 196.359 164.688 195.781 164.688 194.906C164.688 193.828 165.766 193.094 167.312 193.094C168.953 193.094 169.859 193.875 170.656 194.891C171.062 195.375 171.719 195.594 172.312 195.594C173.484 195.594 174.062 194.953 174.062 194.031C174.062 193.812 174.016 193.594 173.953 193.359C173.406 191.469 170.859 189.891 167.391 189.891C163.047 189.891 160.281 191.953 160.281 195.156C160.281 197.641 161.938 199.312 165.219 200.016L168.031 200.609C169.672 200.969 170.25 201.453 170.25 202.359C170.25 203.469 169.172 204.156 167.516 204.156C165.781 204.156 164.75 203.625 163.859 202.453C163.234 201.75 162.609 201.422 161.875 201.422C160.812 201.422 160.031 202.125 160.031 203.172C160.031 203.422 160.094 203.719 160.203 204.016C161 205.984 163.562 207.359 167.406 207.359ZM184.781 207.359C188.016 207.359 190.609 206.141 191.719 204.078C191.922 203.703 192.031 203.328 192.031 202.969C192.031 201.922 191.234 201.297 190.25 201.297C189.656 201.297 189.25 201.469 188.766 201.969C187.531 203.422 186.438 203.984 184.766 203.984C182.453 203.984 180.953 202.359 180.953 199.875V199.672H190.516C191.781 199.672 192.5 198.953 192.5 197.688C192.5 193.141 189.312 189.891 184.562 189.891C179.609 189.891 176.469 193.312 176.469 198.703C176.469 204.125 179.547 207.359 184.781 207.359ZM181 196.875C181.156 194.734 182.609 193.266 184.609 193.266C186.609 193.266 188.016 194.688 188.109 196.875H181ZM197.141 207.328C198.484 207.328 199.422 206.516 199.422 204.953V197.391C199.422 195.219 200.719 193.719 202.766 193.719C204.812 193.719 205.844 194.969 205.844 197.156V204.953C205.844 206.516 206.781 207.328 208.125 207.328C209.453 207.328 210.406 206.516 210.406 204.953V196.203C210.406 192.281 208.312 189.938 204.594 189.938C202.016 189.938 200.328 191.078 199.438 193.156H199.344V192.219C199.344 190.781 198.438 189.906 197.062 189.906C195.688 189.906 194.859 190.781 194.859 192.203V204.953C194.859 206.516 195.812 207.328 197.141 207.328ZM214.516 202.719C214.516 205.672 216.062 207.188 219.109 207.188H219.266C221.188 207.188 222.5 206.5 222.5 205.156C222.5 204.094 221.891 203.625 220.766 203.5L220.469 203.469C219.484 203.391 219.078 202.891 219.078 201.703V193.688H220.688C221.766 193.688 222.438 193.016 222.438 191.969C222.438 190.922 221.766 190.25 220.688 190.25H219.078V188.391C219.078 186.922 218.219 186.016 216.797 186.016C215.375 186.016 214.516 186.922 214.516 188.391V190.25H213.641C212.562 190.25 211.875 190.906 211.875 191.969C211.875 193.031 212.562 193.688 213.641 193.688H214.516V202.719ZM229.469 207.266C231.562 207.266 233.656 206.219 234.594 204.438H234.688V205.297C234.781 206.641 235.641 207.328 236.875 207.328C238.172 207.328 239.094 206.547 239.094 205.031V195.484C239.094 192.109 236.297 189.891 232 189.891C228.531 189.891 225.844 191.125 225.062 193.125C224.906 193.469 224.828 193.797 224.828 194.156C224.828 195.188 225.625 195.906 226.734 195.906C227.469 195.906 228.047 195.625 228.547 195.062C229.562 193.75 230.406 193.297 231.797 193.297C233.516 193.297 234.609 194.203 234.609 195.766V196.875L230.391 197.125C226.203 197.375 223.859 199.141 223.859 202.188C223.859 205.203 226.281 207.266 229.469 207.266ZM230.969 203.969C229.438 203.969 228.406 203.188 228.406 201.938C228.406 200.75 229.375 199.984 231.078 199.859L234.609 199.641V200.859C234.609 202.672 232.969 203.969 230.969 203.969ZM249.312 214.188C251.625 214.188 253.109 213.156 253.109 211.266C253.109 209.672 251.938 208.719 250.172 208.703L250.828 207.297C253.547 206.969 255.859 205.484 256.734 203.5C256.953 203.031 257.047 202.656 257.047 202.297C257.047 201.172 256.188 200.469 255.125 200.469C254.156 200.469 253.656 200.859 253.047 201.812C252.344 203 251.359 203.781 249.766 203.781C247.484 203.781 246.062 201.906 246.062 198.609C246.062 195.375 247.484 193.469 249.797 193.469C251.25 193.469 252.266 194.141 253.094 195.609C253.562 196.438 254.109 196.797 255.016 196.797C256.094 196.797 256.969 196.141 256.969 195.016C256.969 194.688 256.875 194.281 256.719 193.891C255.812 191.516 253.016 189.891 249.656 189.891C244.625 189.891 241.438 193.266 241.438 198.625C241.438 203.562 244.078 206.75 248.375 207.281L247.766 208.609C247.594 208.953 247.5 209.266 247.5 209.562C247.5 210.156 247.953 210.531 248.672 210.531H249C250 210.531 250.484 210.797 250.484 211.359C250.484 211.953 249.953 212.25 248.922 212.25C248.469 212.25 248.109 212.172 247.781 212.172C247.203 212.172 246.844 212.484 246.844 212.984C246.844 213.5 247.156 213.844 247.828 214.016C248.219 214.125 248.703 214.188 249.312 214.188ZM262.688 188.141C263.406 188.141 263.766 187.734 263.922 187.047C264.094 186.156 264.422 185.844 264.953 185.844C266.125 185.844 266.922 187.969 269.094 187.969C270.938 187.969 272.422 186.516 272.422 184.531C272.422 183.797 271.922 183.297 271.203 183.297C270.484 183.297 270.141 183.688 269.969 184.422C269.797 185.266 269.484 185.578 268.984 185.578C267.828 185.578 267.062 183.469 264.844 183.469C262.953 183.469 261.484 184.875 261.484 186.891C261.484 187.641 261.969 188.141 262.688 188.141ZM264.438 207.266C266.531 207.266 268.625 206.219 269.562 204.438H269.656V205.297C269.75 206.641 270.609 207.328 271.844 207.328C273.141 207.328 274.062 206.547 274.062 205.031V195.484C274.062 192.109 271.266 189.891 266.969 189.891C263.5 189.891 260.812 191.125 260.031 193.125C259.875 193.469 259.797 193.797 259.797 194.156C259.797 195.188 260.594 195.906 261.703 195.906C262.438 195.906 263.016 195.625 263.516 195.062C264.531 193.75 265.375 193.297 266.766 193.297C268.484 193.297 269.578 194.203 269.578 195.766V196.875L265.359 197.125C261.172 197.375 258.828 199.141 258.828 202.188C258.828 205.203 261.25 207.266 264.438 207.266ZM265.938 203.969C264.406 203.969 263.375 203.188 263.375 201.938C263.375 200.75 264.344 199.984 266.047 199.859L269.578 199.641V200.859C269.578 202.672 267.938 203.969 265.938 203.969ZM284.703 207.359C289.766 207.359 293 204.125 293 198.609C293 193.172 289.719 189.891 284.703 189.891C279.688 189.891 276.406 193.188 276.406 198.609C276.406 204.109 279.641 207.359 284.703 207.359ZM284.703 203.875C282.453 203.875 281.031 201.984 281.031 198.625C281.031 195.297 282.484 193.375 284.703 193.375C286.922 193.375 288.359 195.297 288.359 198.625C288.359 201.984 286.938 203.875 284.703 203.875Z" fill="black"/>
<path d="M277.742 561.567C335.548 547.53 367.244 500.86 389 535.579L389 885C347.464 920.456 298.953 876.896 245.107 874.006C177.798 870.393 169.287 914.939 115.341 907.198C61.3959 899.457 61.1519 867.977 33.644 867.977C10.715 867.977 -1 885 -1 885L-1 535.091C22.7559 572.248 110.092 553.678 134.838 553.678C166.049 553.678 205.485 579.114 277.742 561.567Z" fill="black"/>
<path d="M337.622 590.103C338.042 590.103 338.335 589.849 338.335 589.36V587.012C338.335 586.323 338.731 585.85 339.405 585.85C340.054 585.85 340.386 586.26 340.386 586.934V589.36C340.386 589.849 340.684 590.103 341.099 590.103C341.519 590.103 341.812 589.849 341.812 589.36V586.631C341.812 585.42 341.148 584.668 339.986 584.668C339.19 584.668 338.619 585.039 338.34 585.698H338.311V583.579C338.311 583.12 338.052 582.847 337.613 582.847C337.173 582.847 336.91 583.12 336.91 583.579V589.36C336.91 589.849 337.207 590.103 337.622 590.103ZM345.047 590.112C346.629 590.112 347.64 589.102 347.64 587.378C347.64 585.679 346.615 584.653 345.047 584.653C343.48 584.653 342.455 585.684 342.455 587.378C342.455 589.097 343.465 590.112 345.047 590.112ZM345.047 589.023C344.344 589.023 343.9 588.433 343.9 587.383C343.9 586.343 344.354 585.742 345.047 585.742C345.741 585.742 346.19 586.343 346.19 587.383C346.19 588.433 345.746 589.023 345.047 589.023ZM349.01 590.103C349.445 590.103 349.723 589.834 349.723 589.36V587.036C349.723 586.416 349.953 586.05 350.602 586.04C350.88 586.035 351.085 585.972 351.222 585.854C351.359 585.737 351.427 585.566 351.427 585.342C351.427 585.098 351.359 584.922 351.222 584.814C351.12 584.727 350.968 584.683 350.778 584.683C350.255 584.683 349.826 585.068 349.689 585.718H349.66V585.376C349.66 584.922 349.386 584.658 348.986 584.658C348.576 584.658 348.297 584.922 348.297 585.376V589.36C348.297 589.834 348.581 590.103 349.01 590.103ZM353.281 590.083C353.935 590.083 354.589 589.756 354.882 589.199H354.912V589.468C354.941 589.888 355.21 590.103 355.595 590.103C356.001 590.103 356.289 589.858 356.289 589.385V586.401C356.289 585.347 355.415 584.653 354.072 584.653C352.988 584.653 352.148 585.039 351.904 585.664C351.855 585.771 351.831 585.874 351.831 585.986C351.831 586.309 352.08 586.533 352.426 586.533C352.656 586.533 352.837 586.445 352.993 586.27C353.31 585.859 353.574 585.718 354.008 585.718C354.546 585.718 354.887 586.001 354.887 586.489V586.836L353.569 586.914C352.26 586.992 351.528 587.544 351.528 588.496C351.528 589.438 352.285 590.083 353.281 590.083ZM353.75 589.053C353.271 589.053 352.949 588.809 352.949 588.418C352.949 588.047 353.252 587.808 353.784 587.769L354.887 587.7V588.081C354.887 588.647 354.375 589.053 353.75 589.053ZM359.265 590.112C360.647 590.112 361.58 589.438 361.58 588.398C361.58 587.617 361.121 587.207 360.007 586.973L359.143 586.787C358.621 586.675 358.416 586.494 358.416 586.221C358.416 585.884 358.753 585.654 359.236 585.654C359.749 585.654 360.032 585.898 360.281 586.216C360.408 586.367 360.613 586.436 360.799 586.436C361.165 586.436 361.345 586.235 361.345 585.947C361.345 585.879 361.331 585.811 361.311 585.737C361.14 585.146 360.344 584.653 359.26 584.653C357.903 584.653 357.039 585.298 357.039 586.299C357.039 587.075 357.556 587.598 358.582 587.817L359.461 588.003C359.973 588.115 360.154 588.267 360.154 588.55C360.154 588.896 359.817 589.111 359.299 589.111C358.757 589.111 358.435 588.945 358.157 588.579C357.962 588.359 357.766 588.257 357.537 588.257C357.205 588.257 356.961 588.477 356.961 588.804C356.961 588.882 356.98 588.975 357.014 589.067C357.263 589.683 358.064 590.112 359.265 590.112ZM366.054 590.083C366.859 590.083 367.435 589.663 367.665 589.077H367.689V589.38C367.689 589.858 367.997 590.103 368.407 590.103C368.822 590.103 369.115 589.854 369.115 589.38V583.594C369.115 583.105 368.822 582.847 368.402 582.847C367.987 582.847 367.689 583.105 367.689 583.594V585.664H367.66C367.406 585.083 366.82 584.683 366.063 584.683C364.75 584.683 363.92 585.713 363.92 587.373C363.92 589.048 364.745 590.083 366.054 590.083ZM366.537 588.936C365.819 588.936 365.38 588.345 365.38 587.383C365.38 586.426 365.819 585.825 366.537 585.825C367.245 585.825 367.699 586.431 367.699 587.383C367.699 588.34 367.245 588.936 366.537 588.936ZM372.394 590.112C373.405 590.112 374.216 589.731 374.562 589.087C374.626 588.97 374.66 588.853 374.66 588.74C374.66 588.413 374.411 588.218 374.103 588.218C373.918 588.218 373.791 588.271 373.64 588.428C373.254 588.882 372.912 589.058 372.39 589.058C371.667 589.058 371.198 588.55 371.198 587.773V587.71H374.186C374.582 587.71 374.807 587.485 374.807 587.09C374.807 585.669 373.81 584.653 372.326 584.653C370.778 584.653 369.797 585.723 369.797 587.407C369.797 589.102 370.759 590.112 372.394 590.112ZM371.213 586.836C371.262 586.167 371.716 585.708 372.341 585.708C372.966 585.708 373.405 586.152 373.434 586.836H371.213ZM338.397 598.662C338.397 599.585 338.88 600.059 339.832 600.059H339.881C340.482 600.059 340.892 599.844 340.892 599.424C340.892 599.092 340.702 598.945 340.35 598.906L340.257 598.896C339.95 598.872 339.823 598.716 339.823 598.345V595.84H340.326C340.663 595.84 340.873 595.63 340.873 595.303C340.873 594.976 340.663 594.766 340.326 594.766H339.823V594.185C339.823 593.726 339.554 593.442 339.11 593.442C338.665 593.442 338.397 593.726 338.397 594.185V594.766H338.123C337.787 594.766 337.572 594.971 337.572 595.303C337.572 595.635 337.787 595.84 338.123 595.84H338.397V598.662ZM342.204 600.103C342.638 600.103 342.917 599.834 342.917 599.36V597.036C342.917 596.416 343.146 596.05 343.795 596.04C344.074 596.035 344.279 595.972 344.416 595.854C344.552 595.737 344.621 595.566 344.621 595.342C344.621 595.098 344.552 594.922 344.416 594.814C344.313 594.727 344.162 594.683 343.971 594.683C343.449 594.683 343.019 595.068 342.882 595.718H342.853V595.376C342.853 594.922 342.58 594.658 342.179 594.658C341.769 594.658 341.491 594.922 341.491 595.376V599.36C341.491 599.834 341.774 600.103 342.204 600.103ZM346.474 600.083C347.129 600.083 347.783 599.756 348.076 599.199H348.105V599.468C348.134 599.888 348.403 600.103 348.789 600.103C349.194 600.103 349.482 599.858 349.482 599.385V596.401C349.482 595.347 348.608 594.653 347.265 594.653C346.181 594.653 345.341 595.039 345.097 595.664C345.048 595.771 345.024 595.874 345.024 595.986C345.024 596.309 345.273 596.533 345.62 596.533C345.849 596.533 346.03 596.445 346.186 596.27C346.504 595.859 346.767 595.718 347.202 595.718C347.739 595.718 348.081 596.001 348.081 596.489V596.836L346.762 596.914C345.454 596.992 344.721 597.544 344.721 598.496C344.721 599.438 345.478 600.083 346.474 600.083ZM346.943 599.053C346.464 599.053 346.142 598.809 346.142 598.418C346.142 598.047 346.445 597.808 346.977 597.769L348.081 597.7V598.081C348.081 598.647 347.568 599.053 346.943 599.053ZM351.057 600.103C351.472 600.103 351.765 599.854 351.765 599.38V599.102H351.795C352.088 599.712 352.669 600.083 353.435 600.083C354.758 600.083 355.559 599.067 355.559 597.383C355.559 595.693 354.754 594.683 353.43 594.683C352.688 594.683 352.102 595.054 351.814 595.674H351.785V593.594C351.785 593.105 351.492 592.847 351.072 592.847C350.657 592.847 350.359 593.105 350.359 593.594V599.38C350.359 599.858 350.647 600.103 351.057 600.103ZM352.947 598.936C352.254 598.936 351.78 598.33 351.78 597.383C351.78 596.445 352.254 595.825 352.947 595.825C353.655 595.825 354.099 596.431 354.099 597.383C354.099 598.34 353.655 598.936 352.947 598.936ZM357.769 600.083C358.424 600.083 359.078 599.756 359.371 599.199H359.4V599.468C359.429 599.888 359.698 600.103 360.084 600.103C360.489 600.103 360.777 599.858 360.777 599.385V596.401C360.777 595.347 359.903 594.653 358.56 594.653C357.476 594.653 356.636 595.039 356.392 595.664C356.344 595.771 356.319 595.874 356.319 595.986C356.319 596.309 356.568 596.533 356.915 596.533C357.144 596.533 357.325 596.445 357.481 596.27C357.799 595.859 358.062 595.718 358.497 595.718C359.034 595.718 359.376 596.001 359.376 596.489V596.836L358.057 596.914C356.749 596.992 356.016 597.544 356.016 598.496C356.016 599.438 356.773 600.083 357.769 600.083ZM358.238 599.053C357.76 599.053 357.437 598.809 357.437 598.418C357.437 598.047 357.74 597.808 358.272 597.769L359.376 597.7V598.081C359.376 598.647 358.863 599.053 358.238 599.053ZM362.367 600.103C362.787 600.103 363.08 599.849 363.08 599.36V593.594C363.08 593.105 362.787 592.847 362.367 592.847C361.952 592.847 361.654 593.105 361.654 593.594V599.36C361.654 599.849 361.952 600.103 362.367 600.103ZM364.709 600.103C365.129 600.103 365.422 599.849 365.422 599.36V597.012C365.422 596.323 365.817 595.85 366.491 595.85C367.141 595.85 367.473 596.26 367.473 596.934V599.36C367.473 599.849 367.77 600.103 368.185 600.103C368.605 600.103 368.898 599.849 368.898 599.36V596.631C368.898 595.42 368.234 594.668 367.072 594.668C366.276 594.668 365.705 595.039 365.427 595.698H365.397V593.579C365.397 593.12 365.139 592.847 364.699 592.847C364.26 592.847 363.996 593.12 363.996 593.579V599.36C363.996 599.849 364.294 600.103 364.709 600.103ZM372.134 600.112C373.716 600.112 374.727 599.102 374.727 597.378C374.727 595.679 373.701 594.653 372.134 594.653C370.566 594.653 369.541 595.684 369.541 597.378C369.541 599.097 370.552 600.112 372.134 600.112ZM372.134 599.023C371.431 599.023 370.986 598.433 370.986 597.383C370.986 596.343 371.44 595.742 372.134 595.742C372.827 595.742 373.276 596.343 373.276 597.383C373.276 598.433 372.832 599.023 372.134 599.023Z" fill="white"/>
<circle cx="200" cy="680" r="29.5" stroke="white" stroke-linecap="round" stroke-dasharray="5 5"/>
<path d="M195.492 685.154C196.144 685.154 196.583 684.714 196.583 684.048V675.508C196.583 674.746 196.114 674.27 195.331 674.27C194.876 674.27 194.525 674.336 194.012 674.688L191.917 676.138C191.573 676.379 191.441 676.628 191.441 676.965C191.441 677.434 191.771 677.756 192.218 677.756C192.445 677.756 192.599 677.705 192.804 677.559L194.349 676.482H194.393V684.048C194.393 684.714 194.84 685.154 195.492 685.154ZM200.033 685.154C200.663 685.154 201.102 684.773 201.102 684.041V680.518C201.102 679.485 201.695 678.774 202.706 678.774C203.68 678.774 204.178 679.39 204.178 680.4V684.041C204.178 684.773 204.625 685.154 205.248 685.154C205.877 685.154 206.317 684.773 206.317 684.041V679.946C206.317 678.13 205.321 677.002 203.578 677.002C202.384 677.002 201.527 677.559 201.109 678.547H201.065V675.369C201.065 674.68 200.677 674.27 200.018 674.27C199.359 674.27 198.963 674.68 198.963 675.369V684.041C198.963 684.773 199.41 685.154 200.033 685.154Z" fill="white"/>
<path d="M24.6602 599.186C25.5879 599.186 26.1348 598.619 26.1348 597.652V593.062H32.4824V597.652C32.4824 598.619 33.0293 599.186 33.957 599.186C34.8848 599.186 35.4316 598.619 35.4316 597.652V586.256C35.4316 585.279 34.8848 584.713 33.957 584.713C33.0293 584.713 32.4824 585.279 32.4824 586.256V590.631H26.1348V586.256C26.1348 585.279 25.5879 584.713 24.6602 584.713C23.7324 584.713 23.1855 585.279 23.1855 586.256V597.652C23.1855 598.619 23.7324 599.186 24.6602 599.186ZM42.3359 599.225C45.5 599.225 47.5215 597.203 47.5215 593.756C47.5215 590.357 45.4707 588.307 42.3359 588.307C39.2012 588.307 37.1504 590.367 37.1504 593.756C37.1504 597.193 39.1719 599.225 42.3359 599.225ZM42.3359 597.047C40.9297 597.047 40.041 595.865 40.041 593.766C40.041 591.686 40.9492 590.484 42.3359 590.484C43.7227 590.484 44.6211 591.686 44.6211 593.766C44.6211 595.865 43.7324 597.047 42.3359 597.047ZM50.4512 587.232C51.3105 587.232 51.9746 586.578 51.9746 585.758C51.9746 584.928 51.3105 584.283 50.4512 584.283C49.5918 584.283 48.9277 584.928 48.9277 585.758C48.9277 586.578 49.5918 587.232 50.4512 587.232ZM50.4512 588.316C49.6113 588.316 49.0156 588.834 49.0156 589.811V599.43C49.0156 600.084 48.7715 600.426 48.1562 600.533L48.0293 600.553C47.3945 600.67 47.0918 600.982 47.0918 601.52C47.0918 602.281 47.7363 602.711 48.8301 602.711H48.8789C50.7344 602.711 51.8672 601.559 51.8672 599.605V589.811C51.8672 588.834 51.2812 588.316 50.4512 588.316ZM58.6152 599.225C60.6367 599.225 62.2578 598.463 62.9512 597.174C63.0781 596.939 63.1465 596.705 63.1465 596.48C63.1465 595.826 62.6484 595.436 62.0332 595.436C61.6621 595.436 61.4082 595.543 61.1055 595.855C60.334 596.764 59.6504 597.115 58.6055 597.115C57.1602 597.115 56.2227 596.1 56.2227 594.547V594.42H62.1992C62.9902 594.42 63.4395 593.971 63.4395 593.18C63.4395 590.338 61.4473 588.307 58.4785 588.307C55.3828 588.307 53.4199 590.445 53.4199 593.814C53.4199 597.203 55.3438 599.225 58.6152 599.225ZM56.252 592.672C56.3496 591.334 57.2578 590.416 58.5078 590.416C59.7578 590.416 60.6367 591.305 60.6953 592.672H56.252Z" fill="white"/>
<path d="M359.273 575.41C360.895 575.41 362.086 574.414 362.086 572.539V569.824H363.688C365.23 569.824 366.109 568.867 366.109 567.48C366.109 566.094 365.25 565.117 363.688 565.117H362.086V550.645C362.086 548.008 360.211 546.387 357.223 546.387C354.84 546.387 353.414 547.363 351.461 550.352C348.395 554.902 345.582 559.199 343.648 562.676C342.77 564.219 342.418 565.312 342.418 566.523C342.418 568.496 343.844 569.824 345.973 569.824H356.48V572.539C356.48 574.414 357.652 575.41 359.273 575.41ZM356.598 565.273H347.574V565.117C349.859 560.859 352.457 556.895 356.48 551.094H356.598V565.273Z" fill="white"/>
<path d="M31.7119 389.234C35.5498 389.234 37.7861 386.92 37.7861 383.199V382.848C37.7861 382.135 37.3662 381.705 36.6923 381.705H32.7861C32.2197 381.705 31.8291 382.057 31.8291 382.594C31.8291 383.121 32.2197 383.473 32.7861 383.473H35.6279V383.717C35.5986 385.855 34.0166 387.32 31.7314 387.32C29.0459 387.32 27.3759 385.24 27.3759 381.871C27.3759 378.561 28.997 376.588 31.6923 376.588C33.3232 376.588 34.5732 377.359 35.2861 378.854C35.5595 379.4 35.8818 379.635 36.3798 379.635C36.9755 379.635 37.3564 379.244 37.3564 378.668C37.3564 378.424 37.3271 378.18 37.2002 377.867C36.4189 375.982 34.3095 374.674 31.6826 374.674C27.6689 374.674 25.1396 377.447 25.1396 381.891C25.1396 386.412 27.6787 389.234 31.7119 389.234ZM44.0049 389.195C46.9444 389.195 48.878 387.174 48.878 383.863C48.878 380.562 46.9346 378.541 44.0049 378.541C41.0752 378.541 39.1319 380.562 39.1319 383.863C39.1319 387.174 41.0655 389.195 44.0049 389.195ZM44.0049 387.457C42.3545 387.457 41.2803 386.148 41.2803 383.863C41.2803 381.588 42.3545 380.279 44.0049 380.279C45.6553 380.279 46.7295 381.588 46.7295 383.863C46.7295 386.148 45.6651 387.457 44.0049 387.457ZM51.0441 386.539C51.0441 388.238 51.923 389.088 53.6515 389.088H53.7589C54.7941 389.088 55.2823 388.766 55.2823 388.131C55.2823 387.633 54.9796 387.389 54.3741 387.33L54.2081 387.32C53.4464 387.262 53.1632 386.891 53.1632 386.07V380.396H54.3644C54.9113 380.396 55.2433 380.084 55.2433 379.566C55.2433 379.049 54.9113 378.727 54.3644 378.727H53.1632V377.203C53.1632 376.529 52.7433 376.08 52.1085 376.08C51.464 376.08 51.0441 376.529 51.0441 377.203V378.727H50.3019C49.755 378.727 49.423 379.039 49.423 379.566C49.423 380.084 49.755 380.396 50.3019 380.396H51.0441V386.539ZM59.6262 389.176C60.9641 389.176 62.2727 388.453 62.8684 387.311H62.9172V388.18C62.9367 388.805 63.3371 389.186 63.923 389.186C64.5188 389.186 64.9387 388.785 64.9387 388.121V381.92C64.9387 379.859 63.3469 378.541 60.8566 378.541C59.0109 378.541 57.4582 379.283 56.9211 380.445C56.7941 380.68 56.7355 380.914 56.7355 381.129C56.7355 381.656 57.1164 382.008 57.6438 382.008C58.0148 382.008 58.2883 381.871 58.5031 381.559C59.0891 380.621 59.7629 380.26 60.7785 380.26C62.0676 380.26 62.8391 380.943 62.8391 382.086V382.877L60.0168 383.043C57.5852 383.18 56.1984 384.283 56.1984 386.08C56.1984 387.926 57.6145 389.176 59.6262 389.176ZM60.2023 387.506C59.0793 387.506 58.3273 386.92 58.3273 386.021C58.3273 385.143 59.0402 384.586 60.3 384.498L62.8391 384.342V385.152C62.8391 386.49 61.677 387.506 60.2023 387.506ZM70.6985 389.195C73.2376 389.195 74.9466 387.926 74.9466 386.021C74.9466 384.498 74.1165 383.727 71.9583 383.229L70.3665 382.857C69.2825 382.604 68.7845 382.154 68.7845 381.51C68.7845 380.709 69.5657 380.152 70.6985 380.152C71.7337 380.152 72.3587 380.562 72.8177 381.344C73.0227 381.676 73.3255 381.793 73.6673 381.793C74.1946 381.793 74.4876 381.48 74.4876 381.012C74.4876 380.914 74.468 380.816 74.4485 380.699C74.1555 379.488 72.6321 378.541 70.7766 378.541C68.3352 378.541 66.7239 379.771 66.7239 381.627C66.7239 383.092 67.7005 384.068 69.6927 384.537L71.3138 384.918C72.4173 385.182 72.8177 385.543 72.8177 386.217C72.8177 387.066 72.0071 387.584 70.8059 387.584C69.5852 387.584 68.97 387.213 68.4427 386.383C68.179 385.992 67.8763 385.826 67.5247 385.826C66.9973 385.826 66.6165 386.139 66.6165 386.666C66.6165 386.803 66.636 386.949 66.7044 387.105C67.1927 388.365 68.677 389.195 70.6985 389.195ZM84.8745 389.195C86.7788 389.195 88.4487 388.189 88.9858 386.773C89.0639 386.568 89.103 386.393 89.103 386.227C89.103 385.699 88.7221 385.348 88.2045 385.348C87.7455 385.348 87.5209 385.523 87.228 386.031C86.7299 386.92 86.0366 387.428 84.894 387.428C83.2631 387.428 82.1694 386.1 82.1694 383.863C82.1694 381.676 83.2436 380.299 84.894 380.299C85.978 380.299 86.7006 380.768 87.228 381.744C87.4819 382.213 87.7358 382.389 88.185 382.389C88.7026 382.389 89.0834 382.057 89.0834 381.52C89.0834 381.373 89.0444 381.197 88.9858 381.031C88.5366 379.596 86.8373 378.541 84.8549 378.541C81.9252 378.541 80.0209 380.631 80.0209 383.883C80.0209 387.154 81.935 389.195 84.8745 389.195ZM93.7398 389.176C95.0777 389.176 96.3863 388.453 96.982 387.311H97.0308V388.18C97.0503 388.805 97.4507 389.186 98.0366 389.186C98.6323 389.186 99.0523 388.785 99.0523 388.121V381.92C99.0523 379.859 97.4605 378.541 94.9702 378.541C93.1245 378.541 91.5718 379.283 91.0347 380.445C90.9077 380.68 90.8491 380.914 90.8491 381.129C90.8491 381.656 91.23 382.008 91.7573 382.008C92.1284 382.008 92.4019 381.871 92.6167 381.559C93.2027 380.621 93.8765 380.26 94.8921 380.26C96.1812 380.26 96.9527 380.943 96.9527 382.086V382.877L94.1304 383.043C91.6988 383.18 90.312 384.283 90.312 386.08C90.312 387.926 91.7281 389.176 93.7398 389.176ZM94.3159 387.506C93.1929 387.506 92.4409 386.92 92.4409 386.021C92.4409 385.143 93.1538 384.586 94.4136 384.498L96.9527 384.342V385.152C96.9527 386.49 95.7906 387.506 94.3159 387.506ZM105.476 389.195C107.39 389.195 108.884 388.424 109.558 387.076C109.646 386.871 109.705 386.676 109.705 386.51C109.705 385.982 109.334 385.65 108.826 385.65C108.523 385.65 108.308 385.758 108.084 386.021C107.302 387.086 106.58 387.486 105.427 387.486C103.748 387.486 102.693 386.314 102.693 384.439V384.391H108.904C109.558 384.391 109.949 384 109.949 383.316C109.949 380.514 108.064 378.541 105.33 378.541C102.42 378.541 100.564 380.65 100.564 383.912C100.564 387.232 102.38 389.195 105.476 389.195ZM102.703 382.916C102.81 381.314 103.865 380.24 105.32 380.24C106.785 380.24 107.791 381.305 107.839 382.916H102.703ZM112.564 389.186C113.199 389.186 113.619 388.746 113.619 388.072V382.652C113.619 381.334 114.507 380.357 115.757 380.357C116.949 380.357 117.701 381.109 117.701 382.291V388.072C117.701 388.746 118.101 389.186 118.736 389.186C119.371 389.186 119.771 388.746 119.771 388.072V382.584C119.771 381.285 120.64 380.357 121.89 380.357C123.14 380.357 123.853 381.119 123.853 382.447V388.072C123.853 388.746 124.273 389.186 124.908 389.186C125.543 389.186 125.972 388.746 125.972 388.072V381.939C125.972 379.898 124.644 378.551 122.613 378.551C121.148 378.551 119.937 379.312 119.41 380.562H119.361C118.951 379.283 117.916 378.551 116.49 378.551C115.103 378.551 114.029 379.312 113.57 380.455H113.521V379.615C113.521 378.941 113.101 378.541 112.515 378.541C111.92 378.541 111.509 378.951 111.509 379.615V388.072C111.509 388.746 111.929 389.186 112.564 389.186ZM134.924 389.176C136.262 389.176 137.57 388.453 138.166 387.311H138.215V388.18C138.234 388.805 138.635 389.186 139.221 389.186C139.816 389.186 140.236 388.785 140.236 388.121V381.92C140.236 379.859 138.644 378.541 136.154 378.541C134.308 378.541 132.756 379.283 132.219 380.445C132.092 380.68 132.033 380.914 132.033 381.129C132.033 381.656 132.414 382.008 132.941 382.008C133.312 382.008 133.586 381.871 133.801 381.559C134.387 380.621 135.06 380.26 136.076 380.26C137.365 380.26 138.137 380.943 138.137 382.086V382.877L135.314 383.043C132.883 383.18 131.496 384.283 131.496 386.08C131.496 387.926 132.912 389.176 134.924 389.176ZM135.5 387.506C134.377 387.506 133.625 386.92 133.625 386.021C133.625 385.143 134.338 384.586 135.598 384.498L138.137 384.342V385.152C138.137 386.49 136.974 387.506 135.5 387.506ZM146.621 389.195C149.56 389.195 151.494 387.174 151.494 383.863C151.494 380.562 149.551 378.541 146.621 378.541C143.691 378.541 141.748 380.562 141.748 383.863C141.748 387.174 143.682 389.195 146.621 389.195ZM146.621 387.457C144.971 387.457 143.896 386.148 143.896 383.863C143.896 381.588 144.971 380.279 146.621 380.279C148.271 380.279 149.346 381.588 149.346 383.863C149.346 386.148 148.281 387.457 146.621 387.457ZM50.1359 413.186C50.7511 413.186 51.1905 412.766 51.1905 412.072V399.836C51.1905 399.143 50.7511 398.723 50.1359 398.723C49.5206 398.723 49.0812 399.143 49.0812 399.836V412.072C49.0812 412.766 49.5206 413.186 50.1359 413.186ZM57.6926 413.195C60.632 413.195 62.5656 411.174 62.5656 407.863C62.5656 404.562 60.6223 402.541 57.6926 402.541C54.7629 402.541 52.8195 404.562 52.8195 407.863C52.8195 411.174 54.7531 413.195 57.6926 413.195ZM57.6926 411.457C56.0422 411.457 54.968 410.148 54.968 407.863C54.968 405.588 56.0422 404.279 57.6926 404.279C59.343 404.279 60.4172 405.588 60.4172 407.863C60.4172 410.148 59.3527 411.457 57.6926 411.457ZM65.1712 413.186C65.7864 413.186 66.2259 412.766 66.2259 412.072V407.014C66.2259 405.422 67.1829 404.367 68.6673 404.367C70.1321 404.367 70.8548 405.217 70.8548 406.76V412.072C70.8548 412.766 71.2942 413.186 71.9095 413.186C72.5345 413.186 72.9739 412.766 72.9739 412.072V406.35C72.9739 403.996 71.6751 402.551 69.4095 402.551C67.8274 402.551 66.7532 403.254 66.1966 404.426H66.1477V403.615C66.1477 402.961 65.7278 402.541 65.1223 402.541C64.5071 402.541 64.1165 402.961 64.1165 403.605V412.072C64.1165 412.766 64.5462 413.186 65.1712 413.186ZM79.2416 416.867C82.2982 416.896 84.1634 415.256 84.1634 412.717V403.625C84.1634 402.941 83.7142 402.541 83.1087 402.541C82.5033 402.541 82.0443 402.941 82.0443 403.625V404.455H82.0052C81.3802 403.293 80.2474 402.561 78.7923 402.561C76.1361 402.561 74.4759 404.562 74.4759 407.775C74.4759 410.949 76.1556 412.971 78.7435 412.971C80.2084 412.971 81.4193 412.238 81.9955 411.125H82.0443V412.756C82.0443 414.191 80.9994 415.168 79.2806 415.148C78.2748 415.129 77.5521 414.748 76.7123 413.869C76.4291 413.586 76.224 413.479 75.9017 413.479C75.3646 413.479 75.0033 413.83 75.0033 414.318C75.0033 414.562 75.0619 414.777 75.1986 415.012C75.9017 416.125 77.3763 416.848 79.2416 416.867ZM79.3099 411.252C77.6888 411.252 76.6341 409.934 76.6341 407.785C76.6341 405.646 77.6888 404.299 79.3099 404.299C80.9603 404.299 82.0541 405.686 82.0541 407.795C82.0541 409.904 80.9603 411.252 79.3099 411.252ZM90.5776 413.195C93.517 413.195 95.4506 411.174 95.4506 407.863C95.4506 404.562 93.5073 402.541 90.5776 402.541C87.6479 402.541 85.7045 404.562 85.7045 407.863C85.7045 411.174 87.6381 413.195 90.5776 413.195ZM90.5776 411.457C88.9272 411.457 87.853 410.148 87.853 407.863C87.853 405.588 88.9272 404.279 90.5776 404.279C92.228 404.279 93.3022 405.588 93.3022 407.863C93.3022 410.148 92.2377 411.457 90.5776 411.457ZM104.841 413.176C106.443 413.176 107.527 412.375 108.054 411.174H108.084V412.131C108.084 412.795 108.562 413.186 109.158 413.186C109.773 413.186 110.203 412.795 110.203 412.131V399.836C110.203 399.143 109.763 398.723 109.148 398.723C108.523 398.723 108.084 399.143 108.084 399.836V404.436H108.045C107.468 403.303 106.296 402.561 104.822 402.561C102.244 402.561 100.525 404.621 100.525 407.863C100.525 411.105 102.244 413.176 104.841 413.176ZM105.398 411.389C103.728 411.389 102.683 410.031 102.683 407.863C102.683 405.705 103.728 404.338 105.398 404.338C107.019 404.338 108.103 405.734 108.103 407.863C108.103 410.012 107.019 411.389 105.398 411.389ZM116.705 413.195C119.644 413.195 121.578 411.174 121.578 407.863C121.578 404.562 119.634 402.541 116.705 402.541C113.775 402.541 111.832 404.562 111.832 407.863C111.832 411.174 113.765 413.195 116.705 413.195ZM116.705 411.457C115.054 411.457 113.98 410.148 113.98 407.863C113.98 405.588 115.054 404.279 116.705 404.279C118.355 404.279 119.429 405.588 119.429 407.863C119.429 410.148 118.365 411.457 116.705 411.457ZM130.969 413.176C132.57 413.176 133.654 412.375 134.181 411.174H134.211V412.131C134.211 412.795 134.689 413.186 135.285 413.186C135.9 413.186 136.33 412.795 136.33 412.131V399.836C136.33 399.143 135.89 398.723 135.275 398.723C134.65 398.723 134.211 399.143 134.211 399.836V404.436H134.172C133.596 403.303 132.424 402.561 130.949 402.561C128.371 402.561 126.652 404.621 126.652 407.863C126.652 411.105 128.371 413.176 130.969 413.176ZM131.525 411.389C129.855 411.389 128.81 410.031 128.81 407.863C128.81 405.705 129.855 404.338 131.525 404.338C133.146 404.338 134.23 405.734 134.23 407.863C134.23 410.012 133.146 411.389 131.525 411.389ZM139.541 401.174C140.225 401.174 140.771 400.627 140.771 399.963C140.771 399.289 140.225 398.762 139.541 398.762C138.867 398.762 138.32 399.289 138.32 399.963C138.32 400.627 138.867 401.174 139.541 401.174ZM139.541 413.186C140.176 413.186 140.596 412.746 140.596 412.072V403.664C140.596 402.98 140.176 402.541 139.541 402.541C138.906 402.541 138.486 402.98 138.486 403.664V412.072C138.486 412.746 138.906 413.186 139.541 413.186ZM145.682 413.176C147.02 413.176 148.328 412.453 148.924 411.311H148.973V412.18C148.992 412.805 149.393 413.186 149.979 413.186C150.574 413.186 150.994 412.785 150.994 412.121V405.92C150.994 403.859 149.402 402.541 146.912 402.541C145.066 402.541 143.514 403.283 142.977 404.445C142.85 404.68 142.791 404.914 142.791 405.129C142.791 405.656 143.172 406.008 143.699 406.008C144.07 406.008 144.344 405.871 144.559 405.559C145.145 404.621 145.818 404.26 146.834 404.26C148.123 404.26 148.895 404.943 148.895 406.086V406.877L146.072 407.043C143.641 407.18 142.254 408.283 142.254 410.08C142.254 411.926 143.67 413.176 145.682 413.176ZM146.258 411.506C145.135 411.506 144.383 410.92 144.383 410.021C144.383 409.143 145.096 408.586 146.355 408.498L148.895 408.342V409.152C148.895 410.49 147.732 411.506 146.258 411.506Z" fill="black"/>
<path d="M109 473C109 472.448 108.552 472 108 472C107.448 472 107 472.448 107 473L109 473ZM107.293 492.707C107.683 493.098 108.317 493.098 108.707 492.707L115.071 486.343C115.462 485.953 115.462 485.319 115.071 484.929C114.681 484.538 114.047 484.538 113.657 484.929L108 490.586L102.343 484.929C101.953 484.538 101.319 484.538 100.929 484.929C100.538 485.319 100.538 485.953 100.929 486.343L107.293 492.707ZM107 473L107 492L109 492L109 473L107 473Z" fill="black"/>
<path d="M132 503C132 502.448 131.552 502 131 502C130.448 502 130 502.448 130 503L132 503ZM130.293 523.707C130.683 524.098 131.317 524.098 131.707 523.707L138.071 517.343C138.462 516.953 138.462 516.319 138.071 515.929C137.681 515.538 137.047 515.538 136.657 515.929L131 521.586L125.343 515.929C124.953 515.538 124.319 515.538 123.929 515.929C123.538 516.319 123.538 516.953 123.929 517.343L130.293 523.707ZM130 503L130 523L132 523L132 503L130 503Z" fill="black"/>
<path d="M146 450C146 449.448 145.552 449 145 449C144.448 449 144 449.448 144 450L146 450ZM144.293 470.707C144.683 471.098 145.317 471.098 145.707 470.707L152.071 464.343C152.462 463.953 152.462 463.319 152.071 462.929C151.681 462.538 151.047 462.538 150.657 462.929L145 468.586L139.343 462.929C138.953 462.538 138.319 462.538 137.929 462.929C137.538 463.319 137.538 463.953 137.929 464.343L144.293 470.707ZM144 450L144 470L146 470L146 450L144 450Z" fill="black"/>
<path d="M273.315 428.979C273.732 429.34 274.364 429.295 274.725 428.877C275.087 428.46 275.041 427.828 274.624 427.467L273.315 428.979ZM245.929 403.003C245.378 403.042 244.963 403.521 245.003 404.072L245.647 413.049C245.687 413.599 246.165 414.014 246.716 413.974C247.267 413.935 247.682 413.456 247.642 412.905L247.069 404.926L255.049 404.353C255.6 404.314 256.014 403.835 255.975 403.284C255.935 402.733 255.456 402.319 254.905 402.358L245.929 403.003ZM274.624 427.467L246.655 403.244L245.346 404.756L273.315 428.979L274.624 427.467Z" fill="black"/>
<path d="M284.889 430.156C285.562 430.156 285.982 429.727 285.982 429.023V417.803H289.43C290.035 417.803 290.445 417.432 290.445 416.855C290.445 416.279 290.035 415.908 289.43 415.908H280.338C279.732 415.908 279.322 416.279 279.322 416.855C279.322 417.432 279.732 417.803 280.338 417.803H283.795V429.023C283.795 429.727 284.205 430.156 284.889 430.156ZM293.637 430.195C296.576 430.195 298.51 428.174 298.51 424.863C298.51 421.562 296.566 419.541 293.637 419.541C290.707 419.541 288.764 421.562 288.764 424.863C288.764 428.174 290.697 430.195 293.637 430.195ZM293.637 428.457C291.986 428.457 290.912 427.148 290.912 424.863C290.912 422.588 291.986 421.279 293.637 421.279C295.287 421.279 296.361 422.588 296.361 424.863C296.361 427.148 295.297 428.457 293.637 428.457ZM303.869 430.176C305.334 430.176 306.535 429.424 307.121 428.271H307.16V432.52C307.16 433.213 307.6 433.643 308.225 433.643C308.84 433.643 309.279 433.213 309.279 432.52V420.625C309.279 419.98 308.889 419.541 308.254 419.541C307.619 419.541 307.229 419.971 307.229 420.625V421.494H307.18C306.574 420.312 305.403 419.561 303.918 419.561C301.291 419.561 299.602 421.621 299.602 424.863C299.602 428.105 301.291 430.176 303.869 430.176ZM304.436 428.389C302.785 428.389 301.76 427.041 301.76 424.863C301.76 422.686 302.785 421.338 304.436 421.338C306.057 421.338 307.17 422.734 307.17 424.863C307.17 427.002 306.057 428.389 304.436 428.389ZM314.844 430.186C316.416 430.186 317.461 429.492 318.028 428.262H318.076V429.121C318.076 429.766 318.487 430.186 319.092 430.186C319.698 430.186 320.098 429.766 320.098 429.111V420.664C320.098 419.961 319.668 419.541 319.043 419.541C318.428 419.541 317.989 419.961 317.989 420.664V425.713C317.989 427.314 317.071 428.369 315.547 428.369C314.092 428.369 313.35 427.529 313.35 425.967V420.664C313.35 419.961 312.91 419.541 312.295 419.541C311.67 419.541 311.24 419.961 311.24 420.664V426.377C311.24 428.73 312.608 430.186 314.844 430.186ZM326.561 430.195C328.475 430.195 329.969 429.424 330.643 428.076C330.731 427.871 330.789 427.676 330.789 427.51C330.789 426.982 330.418 426.65 329.91 426.65C329.608 426.65 329.393 426.758 329.168 427.021C328.387 428.086 327.664 428.486 326.512 428.486C324.832 428.486 323.778 427.314 323.778 425.439V425.391H329.989C330.643 425.391 331.034 425 331.034 424.316C331.034 421.514 329.149 419.541 326.414 419.541C323.504 419.541 321.649 421.65 321.649 424.912C321.649 428.232 323.465 430.195 326.561 430.195ZM323.787 423.916C323.895 422.314 324.95 421.24 326.405 421.24C327.869 421.24 328.875 422.305 328.924 423.916H323.787ZM339.584 430.176C340.922 430.176 342.231 429.453 342.827 428.311H342.875V429.18C342.895 429.805 343.295 430.186 343.881 430.186C344.477 430.186 344.897 429.785 344.897 429.121V422.92C344.897 420.859 343.305 419.541 340.815 419.541C338.969 419.541 337.416 420.283 336.879 421.445C336.752 421.68 336.694 421.914 336.694 422.129C336.694 422.656 337.075 423.008 337.602 423.008C337.973 423.008 338.247 422.871 338.461 422.559C339.047 421.621 339.721 421.26 340.737 421.26C342.026 421.26 342.797 421.943 342.797 423.086V423.877L339.975 424.043C337.543 424.18 336.157 425.283 336.157 427.08C336.157 428.926 337.573 430.176 339.584 430.176ZM340.161 428.506C339.038 428.506 338.286 427.92 338.286 427.021C338.286 426.143 338.999 425.586 340.258 425.498L342.797 425.342V426.152C342.797 427.49 341.635 428.506 340.161 428.506ZM350.676 430.176C352.141 430.176 353.342 429.424 353.928 428.271H353.967V432.52C353.967 433.213 354.407 433.643 355.032 433.643C355.647 433.643 356.086 433.213 356.086 432.52V420.625C356.086 419.98 355.696 419.541 355.061 419.541C354.426 419.541 354.036 419.971 354.036 420.625V421.494H353.987C353.381 420.312 352.21 419.561 350.725 419.561C348.098 419.561 346.409 421.621 346.409 424.863C346.409 428.105 348.098 430.176 350.676 430.176ZM351.243 428.389C349.592 428.389 348.567 427.041 348.567 424.863C348.567 422.686 349.592 421.338 351.243 421.338C352.864 421.338 353.977 422.734 353.977 424.863C353.977 427.002 352.864 428.389 351.243 428.389ZM361.651 430.186C363.223 430.186 364.268 429.492 364.835 428.262H364.883V429.121C364.883 429.766 365.294 430.186 365.899 430.186C366.505 430.186 366.905 429.766 366.905 429.111V420.664C366.905 419.961 366.475 419.541 365.85 419.541C365.235 419.541 364.796 419.961 364.796 420.664V425.713C364.796 427.314 363.878 428.369 362.354 428.369C360.899 428.369 360.157 427.529 360.157 425.967V420.664C360.157 419.961 359.717 419.541 359.102 419.541C358.477 419.541 358.048 419.961 358.048 420.664V426.377C358.048 428.73 359.415 430.186 361.651 430.186ZM370.038 418.174C370.721 418.174 371.268 417.627 371.268 416.963C371.268 416.289 370.721 415.762 370.038 415.762C369.364 415.762 368.817 416.289 368.817 416.963C368.817 417.627 369.364 418.174 370.038 418.174ZM370.038 430.186C370.673 430.186 371.092 429.746 371.092 429.072V420.664C371.092 419.98 370.673 419.541 370.038 419.541C369.403 419.541 368.983 419.98 368.983 420.664V429.072C368.983 429.746 369.403 430.186 370.038 430.186ZM281.1 457.643C281.715 457.643 282.154 457.213 282.154 456.52V452.311H282.203C282.789 453.453 283.961 454.176 285.436 454.176C288.014 454.176 289.723 452.115 289.723 448.863C289.723 445.611 288.004 443.561 285.396 443.561C283.912 443.561 282.73 444.312 282.125 445.494H282.086V444.625C282.086 443.951 281.656 443.541 281.061 443.541C280.465 443.541 280.045 443.951 280.045 444.625V456.52C280.045 457.213 280.475 457.643 281.1 457.643ZM284.84 452.389C283.219 452.389 282.145 451.002 282.145 448.863C282.145 446.744 283.229 445.338 284.84 445.338C286.51 445.338 287.555 446.715 287.555 448.863C287.555 451.021 286.51 452.389 284.84 452.389ZM294.281 454.176C295.619 454.176 296.928 453.453 297.524 452.311H297.572V453.18C297.592 453.805 297.992 454.186 298.578 454.186C299.174 454.186 299.594 453.785 299.594 453.121V446.92C299.594 444.859 298.002 443.541 295.512 443.541C293.666 443.541 292.113 444.283 291.576 445.445C291.449 445.68 291.391 445.914 291.391 446.129C291.391 446.656 291.772 447.008 292.299 447.008C292.67 447.008 292.943 446.871 293.158 446.559C293.744 445.621 294.418 445.26 295.434 445.26C296.723 445.26 297.494 445.943 297.494 447.086V447.877L294.672 448.043C292.24 448.18 290.854 449.283 290.854 451.08C290.854 452.926 292.27 454.176 294.281 454.176ZM294.858 452.506C293.734 452.506 292.983 451.92 292.983 451.021C292.983 450.143 293.695 449.586 294.955 449.498L297.494 449.342V450.152C297.494 451.49 296.332 452.506 294.858 452.506ZM302.619 454.186C303.244 454.186 303.674 453.756 303.674 453.072V447.828C303.674 446.549 304.26 445.582 305.705 445.572C306.145 445.572 306.457 445.484 306.672 445.299C306.877 445.133 306.985 444.889 306.985 444.557C306.985 444.225 306.897 443.971 306.701 443.814C306.526 443.648 306.242 443.561 305.871 443.561C304.846 443.561 303.899 444.332 303.615 445.484H303.567V444.605C303.567 443.961 303.156 443.541 302.57 443.541C301.975 443.541 301.565 443.961 301.565 444.605V453.072C301.565 453.756 301.985 454.186 302.619 454.186ZM310.84 454.176C312.178 454.176 313.487 453.453 314.082 452.311H314.131V453.18C314.151 453.805 314.551 454.186 315.137 454.186C315.733 454.186 316.153 453.785 316.153 453.121V446.92C316.153 444.859 314.561 443.541 312.071 443.541C310.225 443.541 308.672 444.283 308.135 445.445C308.008 445.68 307.949 445.914 307.949 446.129C307.949 446.656 308.33 447.008 308.858 447.008C309.229 447.008 309.502 446.871 309.717 446.559C310.303 445.621 310.977 445.26 311.992 445.26C313.281 445.26 314.053 445.943 314.053 447.086V447.877L311.231 448.043C308.799 448.18 307.412 449.283 307.412 451.08C307.412 452.926 308.828 454.176 310.84 454.176ZM311.416 452.506C310.293 452.506 309.541 451.92 309.541 451.021C309.541 450.143 310.254 449.586 311.514 449.498L314.053 449.342V450.152C314.053 451.49 312.891 452.506 311.416 452.506ZM283.053 478.176C284.391 478.176 285.699 477.453 286.295 476.311H286.344V477.18C286.363 477.805 286.764 478.186 287.35 478.186C287.945 478.186 288.365 477.785 288.365 477.121V470.92C288.365 468.859 286.773 467.541 284.283 467.541C282.438 467.541 280.885 468.283 280.348 469.445C280.221 469.68 280.162 469.914 280.162 470.129C280.162 470.656 280.543 471.008 281.07 471.008C281.441 471.008 281.715 470.871 281.93 470.559C282.516 469.621 283.189 469.26 284.205 469.26C285.494 469.26 286.266 469.943 286.266 471.086V471.877L283.443 472.043C281.012 472.18 279.625 473.283 279.625 475.08C279.625 476.926 281.041 478.176 283.053 478.176ZM283.629 476.506C282.506 476.506 281.754 475.92 281.754 475.021C281.754 474.143 282.467 473.586 283.727 473.498L286.266 473.342V474.152C286.266 475.49 285.104 476.506 283.629 476.506ZM294.193 478.176C295.795 478.176 296.879 477.375 297.406 476.174H297.436V477.131C297.436 477.795 297.914 478.186 298.51 478.186C299.125 478.186 299.555 477.795 299.555 477.131V464.836C299.555 464.143 299.115 463.723 298.5 463.723C297.875 463.723 297.436 464.143 297.436 464.836V469.436H297.397C296.82 468.303 295.649 467.561 294.174 467.561C291.596 467.561 289.877 469.621 289.877 472.863C289.877 476.105 291.596 478.176 294.193 478.176ZM294.75 476.389C293.08 476.389 292.035 475.031 292.035 472.863C292.035 470.705 293.08 469.338 294.75 469.338C296.371 469.338 297.455 470.734 297.455 472.863C297.455 475.012 296.371 476.389 294.75 476.389ZM302.766 466.174C303.449 466.174 303.996 465.627 303.996 464.963C303.996 464.289 303.449 463.762 302.766 463.762C302.092 463.762 301.545 464.289 301.545 464.963C301.545 465.627 302.092 466.174 302.766 466.174ZM302.766 478.186C303.401 478.186 303.82 477.746 303.82 477.072V468.664C303.82 467.98 303.401 467.541 302.766 467.541C302.131 467.541 301.711 467.98 301.711 468.664V477.072C301.711 477.746 302.131 478.186 302.766 478.186ZM310.293 478.195C312.198 478.195 313.867 477.189 314.405 475.773C314.483 475.568 314.522 475.393 314.522 475.227C314.522 474.699 314.141 474.348 313.623 474.348C313.164 474.348 312.94 474.523 312.647 475.031C312.149 475.92 311.455 476.428 310.313 476.428C308.682 476.428 307.588 475.1 307.588 472.863C307.588 470.676 308.662 469.299 310.313 469.299C311.397 469.299 312.119 469.768 312.647 470.744C312.901 471.213 313.155 471.389 313.604 471.389C314.121 471.389 314.502 471.057 314.502 470.52C314.502 470.373 314.463 470.197 314.405 470.031C313.955 468.596 312.256 467.541 310.274 467.541C307.344 467.541 305.44 469.631 305.44 472.883C305.44 476.154 307.354 478.195 310.293 478.195ZM317.274 466.174C317.957 466.174 318.504 465.627 318.504 464.963C318.504 464.289 317.957 463.762 317.274 463.762C316.6 463.762 316.053 464.289 316.053 464.963C316.053 465.627 316.6 466.174 317.274 466.174ZM317.274 478.186C317.909 478.186 318.328 477.746 318.328 477.072V468.664C318.328 467.98 317.909 467.541 317.274 467.541C316.639 467.541 316.219 467.98 316.219 468.664V477.072C316.219 477.746 316.639 478.186 317.274 478.186ZM324.821 478.195C327.76 478.195 329.694 476.174 329.694 472.863C329.694 469.562 327.75 467.541 324.821 467.541C321.891 467.541 319.948 469.562 319.948 472.863C319.948 476.174 321.881 478.195 324.821 478.195ZM324.821 476.457C323.17 476.457 322.096 475.148 322.096 472.863C322.096 470.588 323.17 469.279 324.821 469.279C326.471 469.279 327.545 470.588 327.545 472.863C327.545 475.148 326.481 476.457 324.821 476.457ZM332.299 478.186C332.915 478.186 333.354 477.766 333.354 477.072V472.014C333.354 470.422 334.311 469.367 335.795 469.367C337.26 469.367 337.983 470.217 337.983 471.76V477.072C337.983 477.766 338.422 478.186 339.038 478.186C339.663 478.186 340.102 477.766 340.102 477.072V471.35C340.102 468.996 338.803 467.551 336.538 467.551C334.956 467.551 333.881 468.254 333.325 469.426H333.276V468.615C333.276 467.961 332.856 467.541 332.25 467.541C331.635 467.541 331.245 467.961 331.245 468.605V477.072C331.245 477.766 331.674 478.186 332.299 478.186ZM345.071 478.176C346.409 478.176 347.717 477.453 348.313 476.311H348.362V477.18C348.381 477.805 348.782 478.186 349.368 478.186C349.963 478.186 350.383 477.785 350.383 477.121V470.92C350.383 468.859 348.792 467.541 346.301 467.541C344.456 467.541 342.903 468.283 342.366 469.445C342.239 469.68 342.18 469.914 342.18 470.129C342.18 470.656 342.561 471.008 343.088 471.008C343.46 471.008 343.733 470.871 343.948 470.559C344.534 469.621 345.208 469.26 346.223 469.26C347.512 469.26 348.284 469.943 348.284 471.086V471.877L345.461 472.043C343.03 472.18 341.643 473.283 341.643 475.08C341.643 476.926 343.059 478.176 345.071 478.176ZM345.647 476.506C344.524 476.506 343.772 475.92 343.772 475.021C343.772 474.143 344.485 473.586 345.745 473.498L348.284 473.342V474.152C348.284 475.49 347.122 476.506 345.647 476.506ZM353.409 478.186C354.034 478.186 354.464 477.756 354.464 477.072V471.828C354.464 470.549 355.049 469.582 356.495 469.572C356.934 469.572 357.247 469.484 357.462 469.299C357.667 469.133 357.774 468.889 357.774 468.557C357.774 468.225 357.686 467.971 357.491 467.814C357.315 467.648 357.032 467.561 356.661 467.561C355.635 467.561 354.688 468.332 354.405 469.484H354.356V468.605C354.356 467.961 353.946 467.541 353.36 467.541C352.764 467.541 352.354 467.961 352.354 468.605V477.072C352.354 477.756 352.774 478.186 353.409 478.186Z" fill="black"/>
<path d="M29.8887 87.1562C30.5625 87.1562 30.9824 86.7266 30.9824 86.0234V74.8027H34.4297C35.0352 74.8027 35.4453 74.4316 35.4453 73.8555C35.4453 73.2793 35.0352 72.9082 34.4297 72.9082H25.3379C24.7324 72.9082 24.3223 73.2793 24.3223 73.8555C24.3223 74.4316 24.7324 74.8027 25.3379 74.8027H28.7949V86.0234C28.7949 86.7266 29.2051 87.1562 29.8887 87.1562ZM38.6368 87.1953C41.5763 87.1953 43.5098 85.1738 43.5098 81.8633C43.5098 78.5625 41.5665 76.541 38.6368 76.541C35.7071 76.541 33.7638 78.5625 33.7638 81.8633C33.7638 85.1738 35.6973 87.1953 38.6368 87.1953ZM38.6368 85.457C36.9864 85.457 35.9122 84.1484 35.9122 81.8633C35.9122 79.5879 36.9864 78.2793 38.6368 78.2793C40.2872 78.2793 41.3614 79.5879 41.3614 81.8633C41.3614 84.1484 40.297 85.457 38.6368 85.457ZM48.8693 87.1758C50.3341 87.1758 51.5353 86.4238 52.1213 85.2715H52.1603V89.5195C52.1603 90.2129 52.5998 90.6426 53.2248 90.6426C53.84 90.6426 54.2795 90.2129 54.2795 89.5195V77.625C54.2795 76.9805 53.8888 76.541 53.2541 76.541C52.6193 76.541 52.2287 76.9707 52.2287 77.625V78.4941H52.1798C51.5744 77.3125 50.4025 76.5605 48.9181 76.5605C46.2912 76.5605 44.6017 78.6211 44.6017 81.8633C44.6017 85.1055 46.2912 87.1758 48.8693 87.1758ZM49.4357 85.3887C47.7853 85.3887 46.7599 84.041 46.7599 81.8633C46.7599 79.6855 47.7853 78.3379 49.4357 78.3379C51.0568 78.3379 52.1701 79.7344 52.1701 81.8633C52.1701 84.002 51.0568 85.3887 49.4357 85.3887ZM59.844 87.1855C61.4163 87.1855 62.4612 86.4922 63.0276 85.2617H63.0764V86.1211C63.0764 86.7656 63.4866 87.1855 64.092 87.1855C64.6975 87.1855 65.0979 86.7656 65.0979 86.1113V77.6641C65.0979 76.9609 64.6682 76.541 64.0432 76.541C63.428 76.541 62.9885 76.9609 62.9885 77.6641V82.7129C62.9885 84.3145 62.0705 85.3691 60.5471 85.3691C59.092 85.3691 58.3498 84.5293 58.3498 82.9668V77.6641C58.3498 76.9609 57.9104 76.541 57.2952 76.541C56.6702 76.541 56.2405 76.9609 56.2405 77.6641V83.377C56.2405 85.7305 57.6077 87.1855 59.844 87.1855ZM71.5609 87.1953C73.4749 87.1953 74.9691 86.4238 75.6429 85.0762C75.7308 84.8711 75.7894 84.6758 75.7894 84.5098C75.7894 83.9824 75.4183 83.6504 74.9105 83.6504C74.6077 83.6504 74.3929 83.7578 74.1683 84.0215C73.387 85.0859 72.6644 85.4863 71.512 85.4863C69.8323 85.4863 68.7777 84.3145 68.7777 82.4395V82.3906H74.9886C75.6429 82.3906 76.0335 82 76.0335 81.3164C76.0335 78.5137 74.1488 76.541 71.4144 76.541C68.5042 76.541 66.6488 78.6504 66.6488 81.9121C66.6488 85.2324 68.4652 87.1953 71.5609 87.1953ZM68.7874 80.916C68.8948 79.3145 69.9495 78.2402 71.4046 78.2402C72.8695 78.2402 73.8753 79.3047 73.9241 80.916H68.7874ZM84.5845 87.1758C85.9223 87.1758 87.2309 86.4531 87.8266 85.3105H87.8755V86.1797C87.895 86.8047 88.2954 87.1855 88.8813 87.1855C89.477 87.1855 89.897 86.7852 89.897 86.1211V79.9199C89.897 77.8594 88.3052 76.541 85.8149 76.541C83.9692 76.541 82.4165 77.2832 81.8794 78.4453C81.7524 78.6797 81.6938 78.9141 81.6938 79.1289C81.6938 79.6562 82.0747 80.0078 82.602 80.0078C82.9731 80.0078 83.2466 79.8711 83.4614 79.5586C84.0473 78.6211 84.7212 78.2598 85.7368 78.2598C87.0259 78.2598 87.7973 78.9434 87.7973 80.0859V80.877L84.9751 81.043C82.5434 81.1797 81.1567 82.2832 81.1567 84.0801C81.1567 85.9258 82.5727 87.1758 84.5845 87.1758ZM85.1606 85.5059C84.0376 85.5059 83.2856 84.9199 83.2856 84.0215C83.2856 83.1426 83.9985 82.5859 85.2583 82.498L87.7973 82.3418V83.1523C87.7973 84.4902 86.6352 85.5059 85.1606 85.5059ZM95.6763 87.1758C97.1412 87.1758 98.3423 86.4238 98.9283 85.2715H98.9673V89.5195C98.9673 90.2129 99.4068 90.6426 100.032 90.6426C100.647 90.6426 101.086 90.2129 101.086 89.5195V77.625C101.086 76.9805 100.696 76.541 100.061 76.541C99.4263 76.541 99.0357 76.9707 99.0357 77.625V78.4941H98.9869C98.3814 77.3125 97.2095 76.5605 95.7252 76.5605C93.0982 76.5605 91.4088 78.6211 91.4088 81.8633C91.4088 85.1055 93.0982 87.1758 95.6763 87.1758ZM96.2427 85.3887C94.5923 85.3887 93.567 84.041 93.567 81.8633C93.567 79.6855 94.5923 78.3379 96.2427 78.3379C97.8638 78.3379 98.9771 79.7344 98.9771 81.8633C98.9771 84.002 97.8638 85.3887 96.2427 85.3887ZM106.651 87.1855C108.223 87.1855 109.268 86.4922 109.835 85.2617H109.883V86.1211C109.883 86.7656 110.294 87.1855 110.899 87.1855C111.505 87.1855 111.905 86.7656 111.905 86.1113V77.6641C111.905 76.9609 111.475 76.541 110.85 76.541C110.235 76.541 109.796 76.9609 109.796 77.6641V82.7129C109.796 84.3145 108.878 85.3691 107.354 85.3691C105.899 85.3691 105.157 84.5293 105.157 82.9668V77.6641C105.157 76.9609 104.717 76.541 104.102 76.541C103.477 76.541 103.048 76.9609 103.048 77.6641V83.377C103.048 85.7305 104.415 87.1855 106.651 87.1855ZM115.038 75.1738C115.721 75.1738 116.268 74.627 116.268 73.9629C116.268 73.2891 115.721 72.7617 115.038 72.7617C114.364 72.7617 113.817 73.2891 113.817 73.9629C113.817 74.627 114.364 75.1738 115.038 75.1738ZM115.038 87.1855C115.673 87.1855 116.092 86.7461 116.092 86.0723V77.6641C116.092 76.9805 115.673 76.541 115.038 76.541C114.403 76.541 113.983 76.9805 113.983 77.6641V86.0723C113.983 86.7461 114.403 87.1855 115.038 87.1855ZM26.0996 114.643C26.7148 114.643 27.1543 114.213 27.1543 113.52V109.311H27.2031C27.7891 110.453 28.9609 111.176 30.4355 111.176C33.0137 111.176 34.7227 109.115 34.7227 105.863C34.7227 102.611 33.0039 100.561 30.3965 100.561C28.9121 100.561 27.7305 101.312 27.125 102.494H27.0859V101.625C27.0859 100.951 26.6562 100.541 26.0605 100.541C25.4648 100.541 25.0449 100.951 25.0449 101.625V113.52C25.0449 114.213 25.4746 114.643 26.0996 114.643ZM29.8398 109.389C28.2188 109.389 27.1445 108.002 27.1445 105.863C27.1445 103.744 28.2285 102.338 29.8398 102.338C31.5098 102.338 32.5547 103.715 32.5547 105.863C32.5547 108.021 31.5098 109.389 29.8398 109.389ZM39.2813 111.176C40.6192 111.176 41.9278 110.453 42.5235 109.311H42.5723V110.18C42.5919 110.805 42.9923 111.186 43.5782 111.186C44.1739 111.186 44.5938 110.785 44.5938 110.121V103.92C44.5938 101.859 43.002 100.541 40.5118 100.541C38.6661 100.541 37.1134 101.283 36.5763 102.445C36.4493 102.68 36.3907 102.914 36.3907 103.129C36.3907 103.656 36.7716 104.008 37.2989 104.008C37.67 104.008 37.9434 103.871 38.1583 103.559C38.7442 102.621 39.418 102.26 40.4337 102.26C41.7227 102.26 42.4942 102.943 42.4942 104.086V104.877L39.672 105.043C37.2403 105.18 35.8536 106.283 35.8536 108.08C35.8536 109.926 37.2696 111.176 39.2813 111.176ZM39.8575 109.506C38.7345 109.506 37.9825 108.92 37.9825 108.021C37.9825 107.143 38.6954 106.586 39.9552 106.498L42.4942 106.342V107.152C42.4942 108.49 41.3321 109.506 39.8575 109.506ZM47.6193 111.186C48.2443 111.186 48.674 110.756 48.674 110.072V104.828C48.674 103.549 49.2599 102.582 50.7052 102.572C51.1447 102.572 51.4572 102.484 51.672 102.299C51.8771 102.133 51.9845 101.889 51.9845 101.557C51.9845 101.225 51.8966 100.971 51.7013 100.814C51.5255 100.648 51.2423 100.561 50.8713 100.561C49.8459 100.561 48.8986 101.332 48.6154 102.484H48.5666V101.605C48.5666 100.961 48.1564 100.541 47.5705 100.541C46.9748 100.541 46.5646 100.961 46.5646 101.605V110.072C46.5646 110.756 46.9845 111.186 47.6193 111.186ZM55.8401 111.176C57.178 111.176 58.4866 110.453 59.0823 109.311H59.1311V110.18C59.1506 110.805 59.551 111.186 60.137 111.186C60.7327 111.186 61.1526 110.785 61.1526 110.121V103.92C61.1526 101.859 59.5608 100.541 57.0705 100.541C55.2248 100.541 53.6721 101.283 53.135 102.445C53.008 102.68 52.9495 102.914 52.9495 103.129C52.9495 103.656 53.3303 104.008 53.8577 104.008C54.2288 104.008 54.5022 103.871 54.717 103.559C55.303 102.621 55.9768 102.26 56.9924 102.26C58.2815 102.26 59.053 102.943 59.053 104.086V104.877L56.2307 105.043C53.7991 105.18 52.4123 106.283 52.4123 108.08C52.4123 109.926 53.8284 111.176 55.8401 111.176ZM56.4163 109.506C55.2932 109.506 54.5413 108.92 54.5413 108.021C54.5413 107.143 55.2541 106.586 56.5139 106.498L59.053 106.342V107.152C59.053 108.49 57.8909 109.506 56.4163 109.506ZM68.1605 111.186C68.7953 111.186 69.2152 110.746 69.2152 110.072V104.652C69.2152 103.334 70.1039 102.357 71.3539 102.357C72.5453 102.357 73.2973 103.109 73.2973 104.291V110.072C73.2973 110.746 73.6977 111.186 74.3324 111.186C74.9672 111.186 75.3676 110.746 75.3676 110.072V104.584C75.3676 103.285 76.2367 102.357 77.4867 102.357C78.7367 102.357 79.4496 103.119 79.4496 104.447V110.072C79.4496 110.746 79.8695 111.186 80.5043 111.186C81.1391 111.186 81.5687 110.746 81.5687 110.072V103.939C81.5687 101.898 80.2406 100.551 78.2094 100.551C76.7445 100.551 75.5336 101.312 75.0062 102.562H74.9574C74.5473 101.283 73.5121 100.551 72.0863 100.551C70.6996 100.551 69.6254 101.312 69.1664 102.455H69.1176V101.615C69.1176 100.941 68.6977 100.541 68.1117 100.541C67.516 100.541 67.1059 100.951 67.1059 101.615V110.072C67.1059 110.746 67.5258 111.186 68.1605 111.186ZM87.9438 111.195C90.8833 111.195 92.8169 109.174 92.8169 105.863C92.8169 102.562 90.8735 100.541 87.9438 100.541C85.0141 100.541 83.0708 102.562 83.0708 105.863C83.0708 109.174 85.0044 111.195 87.9438 111.195ZM87.9438 109.457C86.2934 109.457 85.2192 108.148 85.2192 105.863C85.2192 103.588 86.2934 102.279 87.9438 102.279C89.5942 102.279 90.6684 103.588 90.6684 105.863C90.6684 108.148 89.604 109.457 87.9438 109.457ZM98.2252 111.176C99.8267 111.176 100.911 110.375 101.438 109.174H101.467V110.131C101.467 110.795 101.946 111.186 102.542 111.186C103.157 111.186 103.586 110.795 103.586 110.131V97.8359C103.586 97.1426 103.147 96.7227 102.532 96.7227C101.907 96.7227 101.467 97.1426 101.467 97.8359V102.436H101.428C100.852 101.303 99.6802 100.561 98.2056 100.561C95.6275 100.561 93.9088 102.621 93.9088 105.863C93.9088 109.105 95.6275 111.176 98.2252 111.176ZM98.7818 109.389C97.1119 109.389 96.067 108.031 96.067 105.863C96.067 103.705 97.1119 102.338 98.7818 102.338C100.403 102.338 101.487 103.734 101.487 105.863C101.487 108.012 100.403 109.389 98.7818 109.389ZM106.798 99.1738C107.481 99.1738 108.028 98.627 108.028 97.9629C108.028 97.2891 107.481 96.7617 106.798 96.7617C106.124 96.7617 105.577 97.2891 105.577 97.9629C105.577 98.627 106.124 99.1738 106.798 99.1738ZM106.798 111.186C107.432 111.186 107.852 110.746 107.852 110.072V101.664C107.852 100.98 107.432 100.541 106.798 100.541C106.163 100.541 105.743 100.98 105.743 101.664V110.072C105.743 110.746 106.163 111.186 106.798 111.186ZM111.61 111.186C112.245 111.186 112.665 110.785 112.665 110.082V102.396H114.022C114.52 102.396 114.862 102.104 114.862 101.576C114.862 101.068 114.52 100.746 114.022 100.746H112.635V99.8184C112.635 98.8809 113.007 98.4609 113.895 98.4512C114.11 98.4512 114.286 98.4219 114.432 98.3828C114.774 98.2852 114.94 98.0801 114.94 97.7383C114.94 97.1719 114.403 96.8105 113.28 96.8105C111.512 96.8203 110.546 97.748 110.546 99.7402V100.746H109.813C109.315 100.746 108.973 101.068 108.973 101.576C108.973 102.104 109.315 102.396 109.813 102.396H110.546V110.082C110.546 110.785 110.966 111.186 111.61 111.186ZM117.419 99.1738C118.102 99.1738 118.649 98.627 118.649 97.9629C118.649 97.2891 118.102 96.7617 117.419 96.7617C116.745 96.7617 116.198 97.2891 116.198 97.9629C116.198 98.627 116.745 99.1738 117.419 99.1738ZM117.419 111.186C118.054 111.186 118.473 110.746 118.473 110.072V101.664C118.473 100.98 118.054 100.541 117.419 100.541C116.784 100.541 116.364 100.98 116.364 101.664V110.072C116.364 110.746 116.784 111.186 117.419 111.186ZM124.946 111.195C126.85 111.195 128.52 110.189 129.058 108.773C129.136 108.568 129.175 108.393 129.175 108.227C129.175 107.699 128.794 107.348 128.276 107.348C127.817 107.348 127.593 107.523 127.3 108.031C126.802 108.92 126.108 109.428 124.966 109.428C123.335 109.428 122.241 108.1 122.241 105.863C122.241 103.676 123.315 102.299 124.966 102.299C126.05 102.299 126.772 102.768 127.3 103.744C127.554 104.213 127.808 104.389 128.257 104.389C128.774 104.389 129.155 104.057 129.155 103.52C129.155 103.373 129.116 103.197 129.058 103.031C128.608 101.596 126.909 100.541 124.927 100.541C121.997 100.541 120.093 102.631 120.093 105.883C120.093 109.154 122.007 111.195 124.946 111.195ZM133.811 111.176C135.149 111.176 136.458 110.453 137.054 109.311H137.103V110.18C137.122 110.805 137.522 111.186 138.108 111.186C138.704 111.186 139.124 110.785 139.124 110.121V103.92C139.124 101.859 137.532 100.541 135.042 100.541C133.196 100.541 131.644 101.283 131.106 102.445C130.979 102.68 130.921 102.914 130.921 103.129C130.921 103.656 131.302 104.008 131.829 104.008C132.2 104.008 132.474 103.871 132.688 103.559C133.274 102.621 133.948 102.26 134.964 102.26C136.253 102.26 137.024 102.943 137.024 104.086V104.877L134.202 105.043C131.77 105.18 130.384 106.283 130.384 108.08C130.384 109.926 131.8 111.176 133.811 111.176ZM134.388 109.506C133.265 109.506 132.513 108.92 132.513 108.021C132.513 107.143 133.226 106.586 134.485 106.498L137.024 106.342V107.152C137.024 108.49 135.862 109.506 134.388 109.506ZM142.149 111.186C142.774 111.186 143.204 110.756 143.204 110.072V104.828C143.204 103.549 143.79 102.582 145.235 102.572C145.675 102.572 145.987 102.484 146.202 102.299C146.407 102.133 146.515 101.889 146.515 101.557C146.515 101.225 146.427 100.971 146.231 100.814C146.056 100.648 145.772 100.561 145.401 100.561C144.376 100.561 143.429 101.332 143.146 102.484H143.097V101.605C143.097 100.961 142.687 100.541 142.101 100.541C141.505 100.541 141.095 100.961 141.095 101.605V110.072C141.095 110.756 141.515 111.186 142.149 111.186ZM29.459 135.195C32.3984 135.195 34.332 133.174 34.332 129.863C34.332 126.562 32.3887 124.541 29.459 124.541C26.5293 124.541 24.5859 126.562 24.5859 129.863C24.5859 133.174 26.5195 135.195 29.459 135.195ZM29.459 133.457C27.8086 133.457 26.7344 132.148 26.7344 129.863C26.7344 127.588 27.8086 126.279 29.459 126.279C31.1094 126.279 32.1836 127.588 32.1836 129.863C32.1836 132.148 31.1191 133.457 29.459 133.457ZM40.4806 132.539C40.4806 134.238 41.3595 135.088 43.088 135.088H43.1955C44.2306 135.088 44.7189 134.766 44.7189 134.131C44.7189 133.633 44.4162 133.389 43.8107 133.33L43.6447 133.32C42.883 133.262 42.5998 132.891 42.5998 132.07V126.396H43.8009C44.3478 126.396 44.6798 126.084 44.6798 125.566C44.6798 125.049 44.3478 124.727 43.8009 124.727H42.5998V123.203C42.5998 122.529 42.1798 122.08 41.5451 122.08C40.9005 122.08 40.4806 122.529 40.4806 123.203V124.727H39.7384C39.1916 124.727 38.8595 125.039 38.8595 125.566C38.8595 126.084 39.1916 126.396 39.7384 126.396H40.4806V132.539ZM47.6077 123.555C47.9104 123.555 48.0666 123.467 48.3108 123.174L49.8538 121.289C50.01 121.094 50.0784 120.908 50.0784 120.684C50.0784 120.244 49.7463 119.941 49.2678 119.941C48.9065 119.941 48.7112 120.059 48.4084 120.498L47.0608 122.422C46.9436 122.598 46.8948 122.725 46.8948 122.92C46.8948 123.281 47.1975 123.555 47.6077 123.555ZM47.3342 135.186C47.969 135.186 48.3889 134.746 48.3889 134.072V125.664C48.3889 124.98 47.969 124.541 47.3342 124.541C46.6995 124.541 46.2795 124.98 46.2795 125.664V134.072C46.2795 134.746 46.6995 135.186 47.3342 135.186ZM51.0823 132.539C51.0823 134.238 51.9613 135.088 53.6898 135.088H53.7972C54.8323 135.088 55.3206 134.766 55.3206 134.131C55.3206 133.633 55.0179 133.389 54.4124 133.33L54.2464 133.32C53.4847 133.262 53.2015 132.891 53.2015 132.07V126.396H54.4027C54.9495 126.396 55.2816 126.084 55.2816 125.566C55.2816 125.049 54.9495 124.727 54.4027 124.727H53.2015V123.203C53.2015 122.529 52.7816 122.08 52.1468 122.08C51.5023 122.08 51.0823 122.529 51.0823 123.203V124.727H50.3402C49.7933 124.727 49.4613 125.039 49.4613 125.566C49.4613 126.084 49.7933 126.396 50.3402 126.396H51.0823V132.539ZM60.3676 135.186C61.9398 135.186 62.9848 134.492 63.5512 133.262H63.6V134.121C63.6 134.766 64.0102 135.186 64.6156 135.186C65.2211 135.186 65.6215 134.766 65.6215 134.111V125.664C65.6215 124.961 65.1918 124.541 64.5668 124.541C63.9516 124.541 63.5121 124.961 63.5121 125.664V130.713C63.5121 132.314 62.5941 133.369 61.0707 133.369C59.6156 133.369 58.8734 132.529 58.8734 130.967V125.664C58.8734 124.961 58.434 124.541 57.8188 124.541C57.1938 124.541 56.7641 124.961 56.7641 125.664V131.377C56.7641 133.73 58.1313 135.186 60.3676 135.186ZM68.7641 135.186C69.3794 135.186 69.8188 134.766 69.8188 134.072V121.836C69.8188 121.143 69.3794 120.723 68.7641 120.723C68.1489 120.723 67.7095 121.143 67.7095 121.836V134.072C67.7095 134.766 68.1489 135.186 68.7641 135.186ZM76.3209 135.195C79.2603 135.195 81.1939 133.174 81.1939 129.863C81.1939 126.562 79.2505 124.541 76.3209 124.541C73.3912 124.541 71.4478 126.562 71.4478 129.863C71.4478 133.174 73.3814 135.195 76.3209 135.195ZM76.3209 133.457C74.6705 133.457 73.5962 132.148 73.5962 129.863C73.5962 127.588 74.6705 126.279 76.3209 126.279C77.9712 126.279 79.0455 127.588 79.0455 129.863C79.0455 132.148 77.981 133.457 76.3209 133.457Z" fill="black"/>
<path d="M105.572 122.617C105.361 122.107 104.776 121.865 104.265 122.076C103.755 122.288 103.513 122.873 103.725 123.383L105.572 122.617ZM118.602 158.5C119.113 158.711 119.698 158.469 119.909 157.958L123.35 149.642C123.561 149.132 123.319 148.547 122.808 148.336C122.298 148.125 121.713 148.367 121.502 148.877L118.443 156.27L111.051 153.211C110.541 153 109.956 153.242 109.745 153.752C109.533 154.263 109.776 154.848 110.286 155.059L118.602 158.5ZM103.725 123.383L118.061 157.959L119.909 157.193L105.572 122.617L103.725 123.383Z" fill="black"/>
<path d="M241.722 116.384H257.038C258.533 116.384 259.434 115.441 259.434 114.075C259.434 112.67 258.533 111.766 257.038 111.766H246.61V111.65L252.59 105.877C257.114 101.586 258.763 99.4691 258.763 96.0823C258.763 91.3099 254.814 88 248.948 88C243.715 88 240.246 90.8673 239.307 93.9463C239.173 94.3504 239.096 94.7545 239.096 95.1971C239.096 96.6403 240.016 97.564 241.569 97.564C242.815 97.564 243.485 97.0252 244.137 95.8706C245.134 93.6384 246.667 92.5222 248.891 92.5222C251.364 92.5222 253.127 94.1579 253.127 96.4479C253.127 98.4492 252.245 99.7963 248.833 103.087L240.591 110.996C239.422 112.074 239 112.805 239 113.902C239 115.364 239.901 116.384 241.722 116.384Z" fill="black" fill-opacity="0.5"/>
<path d="M273.516 117C280.11 117 284.729 113.69 284.729 108.879C284.729 105.223 282.065 102.529 278.289 101.778V101.663C281.528 100.835 283.713 98.4685 283.713 95.4857C283.713 91.1367 279.516 88 273.516 88C267.516 88 263.299 91.1559 263.299 95.4665C263.299 98.4877 265.503 100.855 268.762 101.663V101.778C264.986 102.51 262.302 105.204 262.302 108.86C262.302 113.671 266.903 117 273.516 117ZM273.516 99.9117C270.89 99.9117 269.03 98.3338 269.03 96.063C269.03 93.7731 270.89 92.1951 273.516 92.1951C276.123 92.1951 278.001 93.7731 278.001 96.063C278.001 98.3338 276.123 99.9117 273.516 99.9117ZM273.516 112.766C270.468 112.766 268.34 110.958 268.34 108.437C268.34 105.935 270.468 104.145 273.516 104.145C276.564 104.145 278.672 105.935 278.672 108.437C278.672 110.958 276.564 112.766 273.516 112.766Z" fill="black" fill-opacity="0.5"/>
<path d="M299.169 116.75C300.99 116.75 302.064 115.634 302.064 113.729V105.454H311.169C312.683 105.454 313.641 104.588 313.641 103.145C313.641 101.721 312.664 100.855 311.169 100.855H302.064V93.4267H312.108C313.68 93.4267 314.734 92.5222 314.734 91.0212C314.734 89.5202 313.699 88.6158 312.108 88.6158H299.169C297.348 88.6158 296.275 89.7319 296.275 91.637V113.729C296.275 115.634 297.348 116.75 299.169 116.75Z" fill="black" fill-opacity="0.5"/>
<path d="M326.152 116.827C330.12 116.827 333.302 115.326 334.663 112.786C334.912 112.324 335.046 111.862 335.046 111.419C335.046 110.13 334.068 109.36 332.861 109.36C332.132 109.36 331.634 109.572 331.04 110.188C329.525 111.977 328.184 112.67 326.133 112.67C323.296 112.67 321.456 110.669 321.456 107.609V107.359H333.187C334.739 107.359 335.621 106.474 335.621 104.915C335.621 99.3152 331.711 95.3125 325.883 95.3125C319.807 95.3125 315.954 99.5269 315.954 106.166C315.954 112.843 319.73 116.827 326.152 116.827ZM321.513 103.914C321.705 101.278 323.487 99.4691 325.941 99.4691C328.395 99.4691 330.12 101.22 330.235 103.914H321.513Z" fill="black" fill-opacity="0.5"/>
<path d="M341.327 116.788C342.956 116.788 344.106 115.807 344.106 113.94V112.843H344.221C345.371 115.249 347.652 116.711 350.662 116.711C355.856 116.711 359 112.709 359 106.07C359 99.4114 355.837 95.428 350.643 95.428C347.729 95.428 345.429 96.8905 344.298 99.3344H344.183V91.1367C344.183 89.2123 343.033 88.1924 341.384 88.1924C339.755 88.1924 338.586 89.2123 338.586 91.1367V113.94C338.586 115.826 339.717 116.788 341.327 116.788ZM348.745 112.189C346.023 112.189 344.164 109.803 344.164 106.07C344.164 102.375 346.023 99.931 348.745 99.931C351.524 99.931 353.269 102.317 353.269 106.07C353.269 109.841 351.524 112.189 348.745 112.189Z" fill="black" fill-opacity="0.5"/>
<path d="M326.875 134.788H331.798C332.278 134.788 332.568 134.463 332.568 133.992C332.568 133.508 332.278 133.196 331.798 133.196H328.446V133.156L330.368 131.167C331.822 129.688 332.352 128.959 332.352 127.792C332.352 126.147 331.083 125.007 329.198 125.007C327.516 125.007 326.4 125.995 326.099 127.056C326.055 127.195 326.031 127.334 326.031 127.487C326.031 127.984 326.327 128.302 326.826 128.302C327.226 128.302 327.442 128.117 327.651 127.719C327.972 126.95 328.464 126.565 329.179 126.565C329.974 126.565 330.541 127.129 330.541 127.918C330.541 128.607 330.257 129.072 329.161 130.206L326.511 132.931C326.136 133.302 326 133.554 326 133.932C326 134.436 326.29 134.788 326.875 134.788Z" fill="black" fill-opacity="0.5"/>
<path d="M337.039 135C339.294 135 340.662 133.07 340.662 129.98C340.662 126.89 339.282 125 337.039 125C334.797 125 333.41 126.897 333.41 129.987C333.41 133.084 334.784 135 337.039 135ZM337.039 133.395C335.942 133.395 335.302 132.182 335.302 129.987C335.302 127.812 335.955 126.605 337.039 126.605C338.13 126.605 338.77 127.805 338.77 129.987C338.77 132.182 338.136 133.395 337.039 133.395Z" fill="black" fill-opacity="0.5"/>
<path d="M342.546 134.788H347.468C347.949 134.788 348.239 134.463 348.239 133.992C348.239 133.508 347.949 133.196 347.468 133.196H344.117V133.156L346.039 131.167C347.493 129.688 348.023 128.959 348.023 127.792C348.023 126.147 346.754 125.007 344.868 125.007C343.186 125.007 342.071 125.995 341.769 127.056C341.726 127.195 341.702 127.334 341.702 127.487C341.702 127.984 341.997 128.302 342.496 128.302C342.897 128.302 343.113 128.117 343.322 127.719C343.642 126.95 344.135 126.565 344.85 126.565C345.645 126.565 346.212 127.129 346.212 127.918C346.212 128.607 345.928 129.072 344.831 130.206L342.182 132.931C341.806 133.302 341.671 133.554 341.671 133.932C341.671 134.436 341.96 134.788 342.546 134.788Z" fill="black" fill-opacity="0.5"/>
<path d="M352.537 135C354.601 135 356 133.846 356 132.109C356 130.789 355.144 129.954 353.819 129.821V129.781C354.866 129.549 355.673 128.753 355.673 127.54C355.673 126.008 354.404 125.007 352.525 125.007C350.954 125.007 349.944 125.789 349.549 126.724C349.457 126.95 349.414 127.142 349.414 127.367C349.414 127.851 349.679 128.176 350.196 128.176C350.615 128.176 350.831 128.011 351.034 127.56C351.324 126.883 351.78 126.545 352.531 126.545C353.431 126.545 353.911 127.056 353.911 127.825C353.911 128.607 353.308 129.151 352.377 129.151H352.014C351.564 129.151 351.305 129.443 351.305 129.861C351.305 130.292 351.564 130.577 352.014 130.577H352.402C353.48 130.577 354.115 131.094 354.109 132.023C354.109 132.818 353.48 133.389 352.568 133.389C351.644 133.389 351.164 132.991 350.849 132.321C350.665 131.956 350.43 131.797 350.061 131.797C349.549 131.797 349.241 132.122 349.241 132.639C349.241 132.838 349.284 133.05 349.383 133.269C349.802 134.211 350.843 135 352.537 135Z" fill="black" fill-opacity="0.5"/>
<path d="M217.906 135.186C218.834 135.186 219.381 134.619 219.381 133.652V123.35H222.301C223.092 123.35 223.629 122.891 223.629 122.129C223.629 121.367 223.102 120.908 222.301 120.908H213.521C212.711 120.908 212.184 121.367 212.184 122.129C212.184 122.891 212.721 123.35 213.521 123.35H216.432V133.652C216.432 134.619 216.979 135.186 217.906 135.186ZM228.359 135.225C230.381 135.225 232.002 134.463 232.695 133.174C232.822 132.939 232.891 132.705 232.891 132.48C232.891 131.826 232.393 131.436 231.777 131.436C231.406 131.436 231.152 131.543 230.85 131.855C230.078 132.764 229.395 133.115 228.35 133.115C226.904 133.115 225.967 132.1 225.967 130.547V130.42H231.943C232.734 130.42 233.184 129.971 233.184 129.18C233.184 126.338 231.191 124.307 228.223 124.307C225.127 124.307 223.164 126.445 223.164 129.814C223.164 133.203 225.088 135.225 228.359 135.225ZM225.996 128.672C226.094 127.334 227.002 126.416 228.252 126.416C229.502 126.416 230.381 127.305 230.439 128.672H225.996ZM237.084 135.205C237.953 135.205 238.51 134.668 238.51 133.721V129.072C238.51 127.832 238.969 127.1 240.268 127.08C240.824 127.07 241.234 126.943 241.508 126.709C241.781 126.475 241.918 126.133 241.918 125.684C241.918 125.195 241.781 124.844 241.508 124.629C241.303 124.453 241 124.365 240.619 124.365C239.574 124.365 238.715 125.137 238.441 126.436H238.383V125.752C238.383 124.844 237.836 124.316 237.035 124.316C236.215 124.316 235.658 124.844 235.658 125.752V133.721C235.658 134.668 236.225 135.205 237.084 135.205ZM248.133 139.492C249.578 139.492 250.506 138.848 250.506 137.666C250.506 136.67 249.773 136.074 248.67 136.064L249.08 135.186C250.779 134.98 252.225 134.053 252.771 132.812C252.908 132.52 252.967 132.285 252.967 132.061C252.967 131.357 252.43 130.918 251.766 130.918C251.16 130.918 250.848 131.162 250.467 131.758C250.027 132.5 249.412 132.988 248.416 132.988C246.99 132.988 246.102 131.816 246.102 129.756C246.102 127.734 246.99 126.543 248.436 126.543C249.344 126.543 249.979 126.963 250.496 127.881C250.789 128.398 251.131 128.623 251.697 128.623C252.371 128.623 252.918 128.213 252.918 127.51C252.918 127.305 252.859 127.051 252.762 126.807C252.195 125.322 250.447 124.307 248.348 124.307C245.203 124.307 243.211 126.416 243.211 129.766C243.211 132.852 244.861 134.844 247.547 135.176L247.166 136.006C247.059 136.221 247 136.416 247 136.602C247 136.973 247.283 137.207 247.732 137.207H247.938C248.562 137.207 248.865 137.373 248.865 137.725C248.865 138.096 248.533 138.281 247.889 138.281C247.605 138.281 247.381 138.232 247.176 138.232C246.814 138.232 246.59 138.428 246.59 138.74C246.59 139.062 246.785 139.277 247.205 139.385C247.449 139.453 247.752 139.492 248.133 139.492ZM258.586 135.166C259.895 135.166 261.203 134.512 261.789 133.398H261.848V133.936C261.906 134.775 262.443 135.205 263.215 135.205C264.025 135.205 264.602 134.717 264.602 133.77V127.803C264.602 125.693 262.854 124.307 260.168 124.307C258 124.307 256.32 125.078 255.832 126.328C255.734 126.543 255.686 126.748 255.686 126.973C255.686 127.617 256.184 128.066 256.877 128.066C257.336 128.066 257.697 127.891 258.01 127.539C258.645 126.719 259.172 126.436 260.041 126.436C261.115 126.436 261.799 127.002 261.799 127.979V128.672L259.162 128.828C256.545 128.984 255.08 130.088 255.08 131.992C255.08 133.877 256.594 135.166 258.586 135.166ZM259.523 133.105C258.566 133.105 257.922 132.617 257.922 131.836C257.922 131.094 258.527 130.615 259.592 130.537L261.799 130.4V131.162C261.799 132.295 260.773 133.105 259.523 133.105ZM268.902 130.518H272.975C273.746 130.518 274.322 130.059 274.322 129.268C274.322 128.477 273.746 128.027 272.975 128.027H268.902C268.131 128.027 267.555 128.477 267.555 129.268C267.555 130.059 268.131 130.518 268.902 130.518ZM279.482 135.205C280.322 135.205 280.908 134.707 280.908 133.721V126.68H282.041C282.637 126.68 283.086 126.299 283.086 125.625C283.086 124.961 282.637 124.58 282.041 124.58H280.84V123.916C280.84 123.145 281.191 122.793 282.07 122.764C282.285 122.754 282.461 122.725 282.617 122.686C282.998 122.568 283.193 122.334 283.193 121.934C283.193 121.26 282.559 120.781 281.045 120.781C279.072 120.801 278.057 121.719 278.057 123.789V124.58H277.51C276.914 124.58 276.465 124.961 276.465 125.625C276.465 126.299 276.914 126.68 277.51 126.68H278.057V133.721C278.057 134.707 278.633 135.205 279.482 135.205ZM289.945 135.225C291.967 135.225 293.588 134.463 294.281 133.174C294.408 132.939 294.477 132.705 294.477 132.48C294.477 131.826 293.979 131.436 293.363 131.436C292.992 131.436 292.738 131.543 292.436 131.855C291.664 132.764 290.98 133.115 289.936 133.115C288.49 133.115 287.553 132.1 287.553 130.547V130.42H293.529C294.32 130.42 294.77 129.971 294.77 129.18C294.77 126.338 292.777 124.307 289.809 124.307C286.713 124.307 284.75 126.445 284.75 129.814C284.75 133.203 286.674 135.225 289.945 135.225ZM287.582 128.672C287.68 127.334 288.588 126.416 289.838 126.416C291.088 126.416 291.967 127.305 292.025 128.672H287.582ZM298.719 123.232C299.578 123.232 300.242 122.578 300.242 121.758C300.242 120.928 299.578 120.283 298.719 120.283C297.859 120.283 297.195 120.928 297.195 121.758C297.195 122.578 297.859 123.232 298.719 123.232ZM298.719 135.205C299.598 135.205 300.145 134.648 300.145 133.721V125.811C300.145 124.883 299.598 124.316 298.719 124.316C297.83 124.316 297.293 124.883 297.293 125.811V133.721C297.293 134.648 297.83 135.205 298.719 135.205ZM304.475 135.205C305.344 135.205 305.9 134.668 305.9 133.721V129.072C305.9 127.832 306.359 127.1 307.658 127.08C308.215 127.07 308.625 126.943 308.898 126.709C309.172 126.475 309.309 126.133 309.309 125.684C309.309 125.195 309.172 124.844 308.898 124.629C308.693 124.453 308.391 124.365 308.01 124.365C306.965 124.365 306.105 125.137 305.832 126.436H305.773V125.752C305.773 124.844 305.227 124.316 304.426 124.316C303.605 124.316 303.049 124.844 303.049 125.752V133.721C303.049 134.668 303.615 135.205 304.475 135.205ZM314.176 135.166C315.484 135.166 316.793 134.512 317.379 133.398H317.438V133.936C317.496 134.775 318.033 135.205 318.805 135.205C319.615 135.205 320.191 134.717 320.191 133.77V127.803C320.191 125.693 318.443 124.307 315.758 124.307C313.59 124.307 311.91 125.078 311.422 126.328C311.324 126.543 311.275 126.748 311.275 126.973C311.275 127.617 311.773 128.066 312.467 128.066C312.926 128.066 313.287 127.891 313.6 127.539C314.234 126.719 314.762 126.436 315.631 126.436C316.705 126.436 317.389 127.002 317.389 127.979V128.672L314.752 128.828C312.135 128.984 310.67 130.088 310.67 131.992C310.67 133.877 312.184 135.166 314.176 135.166ZM315.113 133.105C314.156 133.105 313.512 132.617 313.512 131.836C313.512 131.094 314.117 130.615 315.182 130.537L317.389 130.4V131.162C317.389 132.295 316.363 133.105 315.113 133.105Z" fill="black" fill-opacity="0.5"/>
<g opacity="0.5">
<path d="M241.722 116.384H257.038C258.533 116.384 259.434 115.441 259.434 114.075C259.434 112.67 258.533 111.766 257.038 111.766H246.61V111.65L252.59 105.877C257.114 101.586 258.763 99.4691 258.763 96.0823C258.763 91.3099 254.814 88 248.948 88C243.715 88 240.246 90.8673 239.307 93.9463C239.173 94.3504 239.096 94.7545 239.096 95.1971C239.096 96.6403 240.016 97.564 241.569 97.564C242.815 97.564 243.485 97.0252 244.137 95.8706C245.134 93.6384 246.667 92.5222 248.891 92.5222C251.364 92.5222 253.127 94.1579 253.127 96.4479C253.127 98.4492 252.245 99.7963 248.833 103.087L240.591 110.996C239.422 112.074 239 112.805 239 113.902C239 115.364 239.901 116.384 241.722 116.384Z" fill="black" fill-opacity="0.5"/>
<path d="M273.516 117C280.11 117 284.729 113.69 284.729 108.879C284.729 105.223 282.065 102.529 278.289 101.778V101.663C281.528 100.835 283.713 98.4685 283.713 95.4857C283.713 91.1367 279.516 88 273.516 88C267.516 88 263.299 91.1559 263.299 95.4665C263.299 98.4877 265.503 100.855 268.762 101.663V101.778C264.986 102.51 262.302 105.204 262.302 108.86C262.302 113.671 266.903 117 273.516 117ZM273.516 99.9117C270.89 99.9117 269.03 98.3338 269.03 96.063C269.03 93.7731 270.89 92.1951 273.516 92.1951C276.123 92.1951 278.001 93.7731 278.001 96.063C278.001 98.3338 276.123 99.9117 273.516 99.9117ZM273.516 112.766C270.468 112.766 268.34 110.958 268.34 108.437C268.34 105.935 270.468 104.145 273.516 104.145C276.564 104.145 278.672 105.935 278.672 108.437C278.672 110.958 276.564 112.766 273.516 112.766Z" fill="black" fill-opacity="0.5"/>
<path d="M299.169 116.75C300.99 116.75 302.064 115.634 302.064 113.729V105.454H311.169C312.683 105.454 313.641 104.588 313.641 103.145C313.641 101.721 312.664 100.855 311.169 100.855H302.064V93.4267H312.108C313.68 93.4267 314.734 92.5222 314.734 91.0212C314.734 89.5202 313.699 88.6158 312.108 88.6158H299.169C297.348 88.6158 296.275 89.7319 296.275 91.637V113.729C296.275 115.634 297.348 116.75 299.169 116.75Z" fill="black" fill-opacity="0.5"/>
<path d="M326.152 116.827C330.12 116.827 333.302 115.326 334.663 112.786C334.912 112.324 335.046 111.862 335.046 111.419C335.046 110.13 334.068 109.36 332.861 109.36C332.132 109.36 331.634 109.572 331.04 110.188C329.525 111.977 328.184 112.67 326.133 112.67C323.296 112.67 321.456 110.669 321.456 107.609V107.359H333.187C334.739 107.359 335.621 106.474 335.621 104.915C335.621 99.3152 331.711 95.3125 325.883 95.3125C319.807 95.3125 315.954 99.5269 315.954 106.166C315.954 112.843 319.73 116.827 326.152 116.827ZM321.513 103.914C321.705 101.278 323.487 99.4691 325.941 99.4691C328.395 99.4691 330.12 101.22 330.235 103.914H321.513Z" fill="black" fill-opacity="0.5"/>
<path d="M341.327 116.788C342.956 116.788 344.106 115.807 344.106 113.94V112.843H344.221C345.371 115.249 347.652 116.711 350.662 116.711C355.856 116.711 359 112.709 359 106.07C359 99.4114 355.837 95.428 350.643 95.428C347.729 95.428 345.429 96.8905 344.298 99.3344H344.183V91.1367C344.183 89.2123 343.033 88.1924 341.384 88.1924C339.755 88.1924 338.586 89.2123 338.586 91.1367V113.94C338.586 115.826 339.717 116.788 341.327 116.788ZM348.745 112.189C346.023 112.189 344.164 109.803 344.164 106.07C344.164 102.375 346.023 99.931 348.745 99.931C351.524 99.931 353.269 102.317 353.269 106.07C353.269 109.841 351.524 112.189 348.745 112.189Z" fill="black" fill-opacity="0.5"/>
<path d="M326.875 134.788H331.798C332.278 134.788 332.568 134.463 332.568 133.992C332.568 133.508 332.278 133.196 331.798 133.196H328.446V133.156L330.368 131.167C331.822 129.688 332.352 128.959 332.352 127.792C332.352 126.147 331.083 125.007 329.198 125.007C327.516 125.007 326.4 125.995 326.099 127.056C326.055 127.195 326.031 127.334 326.031 127.487C326.031 127.984 326.327 128.302 326.826 128.302C327.226 128.302 327.442 128.117 327.651 127.719C327.972 126.95 328.464 126.565 329.179 126.565C329.974 126.565 330.541 127.129 330.541 127.918C330.541 128.607 330.257 129.072 329.161 130.206L326.511 132.931C326.136 133.302 326 133.554 326 133.932C326 134.436 326.29 134.788 326.875 134.788Z" fill="black" fill-opacity="0.5"/>
<path d="M337.039 135C339.294 135 340.662 133.07 340.662 129.98C340.662 126.89 339.282 125 337.039 125C334.797 125 333.41 126.897 333.41 129.987C333.41 133.084 334.784 135 337.039 135ZM337.039 133.395C335.942 133.395 335.302 132.182 335.302 129.987C335.302 127.812 335.955 126.605 337.039 126.605C338.13 126.605 338.77 127.805 338.77 129.987C338.77 132.182 338.136 133.395 337.039 133.395Z" fill="black" fill-opacity="0.5"/>
<path d="M342.546 134.788H347.468C347.949 134.788 348.239 134.463 348.239 133.992C348.239 133.508 347.949 133.196 347.468 133.196H344.117V133.156L346.039 131.167C347.493 129.688 348.023 128.959 348.023 127.792C348.023 126.147 346.754 125.007 344.868 125.007C343.186 125.007 342.071 125.995 341.769 127.056C341.726 127.195 341.702 127.334 341.702 127.487C341.702 127.984 341.997 128.302 342.496 128.302C342.897 128.302 343.113 128.117 343.322 127.719C343.642 126.95 344.135 126.565 344.85 126.565C345.645 126.565 346.212 127.129 346.212 127.918C346.212 128.607 345.928 129.072 344.831 130.206L342.182 132.931C341.806 133.302 341.671 133.554 341.671 133.932C341.671 134.436 341.96 134.788 342.546 134.788Z" fill="black" fill-opacity="0.5"/>
<path d="M352.537 135C354.601 135 356 133.846 356 132.109C356 130.789 355.144 129.954 353.819 129.821V129.781C354.866 129.549 355.673 128.753 355.673 127.54C355.673 126.008 354.404 125.007 352.525 125.007C350.954 125.007 349.944 125.789 349.549 126.724C349.457 126.95 349.414 127.142 349.414 127.367C349.414 127.851 349.679 128.176 350.196 128.176C350.615 128.176 350.831 128.011 351.034 127.56C351.324 126.883 351.78 126.545 352.531 126.545C353.431 126.545 353.911 127.056 353.911 127.825C353.911 128.607 353.308 129.151 352.377 129.151H352.014C351.564 129.151 351.305 129.443 351.305 129.861C351.305 130.292 351.564 130.577 352.014 130.577H352.402C353.48 130.577 354.115 131.094 354.109 132.023C354.109 132.818 353.48 133.389 352.568 133.389C351.644 133.389 351.164 132.991 350.849 132.321C350.665 131.956 350.43 131.797 350.061 131.797C349.549 131.797 349.241 132.122 349.241 132.639C349.241 132.838 349.284 133.05 349.383 133.269C349.802 134.211 350.843 135 352.537 135Z" fill="black" fill-opacity="0.5"/>
</g>
</g>
<defs>
<clipPath id="clip0_367_19378">
<rect width="390" height="844" fill="white"/>
</clipPath>
</defs>
</svg>
