<svg width="390" height="844" viewBox="0 0 390 844" fill="none" xmlns="http://www.w3.org/2000/svg">
<g clip-path="url(#clip0_366_19494)">
<rect width="390" height="844" fill="white"/>
<path d="M96.5 -7L9.43269e-05 -7L4.08227e-06 450C77.5 499.205 97.1067 427.293 131 417C178.607 402.541 210.164 492 241 492C285.5 492 304.5 394 346.5 417C388.5 440 390 411.5 390 411.5L390 -7L231 -7L96.5 -7Z" fill="#E4E4E4"/>
<path d="M261.087 350.234C263.541 350.234 265.204 348.96 265.204 347.041C265.204 345.583 264.186 344.661 262.611 344.514V344.47C263.856 344.214 264.815 343.335 264.815 341.995C264.815 340.303 263.307 339.197 261.073 339.197C259.205 339.197 258.004 340.061 257.535 341.094C257.425 341.343 257.374 341.555 257.374 341.804C257.374 342.339 257.689 342.698 258.304 342.698C258.802 342.698 259.059 342.515 259.3 342.017C259.645 341.27 260.187 340.896 261.08 340.896C262.149 340.896 262.721 341.46 262.721 342.31C262.721 343.174 262.003 343.774 260.897 343.774H260.465C259.93 343.774 259.623 344.097 259.623 344.558C259.623 345.034 259.93 345.349 260.465 345.349H260.926C262.208 345.349 262.962 345.92 262.955 346.946C262.955 347.825 262.208 348.455 261.124 348.455C260.025 348.455 259.454 348.015 259.081 347.275C258.861 346.873 258.583 346.697 258.143 346.697C257.535 346.697 257.169 347.056 257.169 347.627C257.169 347.847 257.22 348.081 257.337 348.323C257.835 349.363 259.073 350.234 261.087 350.234ZM270.741 350.234C273.421 350.234 275.047 348.103 275.047 344.69C275.047 341.277 273.407 339.189 270.741 339.189C268.075 339.189 266.427 341.284 266.427 344.697C266.427 348.118 268.06 350.234 270.741 350.234ZM270.741 348.462C269.437 348.462 268.675 347.122 268.675 344.697C268.675 342.295 269.452 340.962 270.741 340.962C272.037 340.962 272.799 342.288 272.799 344.697C272.799 347.122 272.044 348.462 270.741 348.462ZM280.401 350.154C281.031 350.154 281.471 349.766 281.471 349.041V345.261C281.471 344.382 282.02 343.767 282.833 343.767C283.624 343.767 284.1 344.265 284.1 345.107V349.041C284.1 349.766 284.496 350.154 285.125 350.154C285.763 350.154 286.158 349.766 286.158 349.041V345.232C286.158 344.36 286.693 343.767 287.506 343.767C288.333 343.767 288.788 344.265 288.788 345.173V349.041C288.788 349.766 289.22 350.154 289.85 350.154C290.487 350.154 290.926 349.766 290.926 349.041V344.639C290.926 343.057 289.894 342.002 288.355 342.002C287.206 342.002 286.268 342.625 285.917 343.613H285.873C285.609 342.588 284.818 342.002 283.683 342.002C282.613 342.002 281.771 342.625 281.441 343.569H281.397V343.079C281.397 342.361 280.973 341.987 280.365 341.987C279.757 341.987 279.332 342.361 279.332 343.079V349.041C279.332 349.766 279.764 350.154 280.401 350.154Z" fill="black"/>
<path d="M195.505 418.154C196.157 418.154 196.596 417.714 196.596 417.048V408.508C196.596 407.746 196.127 407.27 195.344 407.27C194.89 407.27 194.538 407.336 194.025 407.688L191.931 409.138C191.586 409.379 191.455 409.628 191.455 409.965C191.455 410.434 191.784 410.756 192.231 410.756C192.458 410.756 192.612 410.705 192.817 410.559L194.362 409.482H194.406V417.048C194.406 417.714 194.853 418.154 195.505 418.154ZM203.02 418.154C203.649 418.154 204.089 417.773 204.089 417.041V413.518C204.089 412.485 204.682 411.774 205.693 411.774C206.667 411.774 207.165 412.39 207.165 413.4V417.041C207.165 417.773 207.612 418.154 208.234 418.154C208.864 418.154 209.304 417.773 209.304 417.041V412.946C209.304 411.13 208.308 410.002 206.564 410.002C205.371 410.002 204.514 410.559 204.096 411.547H204.052V408.369C204.052 407.68 203.664 407.27 203.005 407.27C202.346 407.27 201.95 407.68 201.95 408.369V417.041C201.95 417.773 202.397 418.154 203.02 418.154Z" fill="black"/>
<path d="M105.73 355.154C106.382 355.154 106.821 354.714 106.821 354.048V345.508C106.821 344.746 106.353 344.27 105.569 344.27C105.115 344.27 104.763 344.336 104.25 344.688L102.156 346.138C101.812 346.379 101.68 346.628 101.68 346.965C101.68 347.434 102.009 347.756 102.456 347.756C102.683 347.756 102.837 347.705 103.042 347.559L104.587 346.482H104.631V354.048C104.631 354.714 105.078 355.154 105.73 355.154ZM113.259 355.234C115.669 355.234 117.346 353.711 117.346 351.455C117.346 349.441 115.911 348.02 113.889 348.02C112.812 348.02 111.948 348.445 111.516 349.126H111.472L111.721 346.189H115.896C116.453 346.189 116.804 345.845 116.804 345.31C116.804 344.775 116.445 344.431 115.896 344.431H111.26C110.403 344.431 109.941 344.79 109.868 345.684L109.561 349.558C109.553 349.595 109.553 349.617 109.553 349.646C109.524 350.239 109.868 350.745 110.593 350.745C111.084 350.745 111.304 350.635 111.736 350.232C112.109 349.873 112.637 349.602 113.267 349.602C114.417 349.602 115.237 350.393 115.237 351.506C115.237 352.649 114.409 353.477 113.259 353.477C112.307 353.477 111.685 353.015 111.304 352.253C111.055 351.858 110.776 351.704 110.337 351.704C109.766 351.704 109.414 352.041 109.414 352.605C109.414 352.869 109.48 353.096 109.59 353.33C110.117 354.451 111.582 355.234 113.259 355.234ZM122.568 355.154C123.198 355.154 123.638 354.766 123.638 354.041V350.261C123.638 349.382 124.187 348.767 125 348.767C125.791 348.767 126.267 349.265 126.267 350.107V354.041C126.267 354.766 126.663 355.154 127.292 355.154C127.93 355.154 128.325 354.766 128.325 354.041V350.232C128.325 349.36 128.86 348.767 129.673 348.767C130.5 348.767 130.955 349.265 130.955 350.173V354.041C130.955 354.766 131.387 355.154 132.017 355.154C132.654 355.154 133.093 354.766 133.093 354.041V349.639C133.093 348.057 132.061 347.002 130.522 347.002C129.373 347.002 128.435 347.625 128.083 348.613H128.04C127.776 347.588 126.985 347.002 125.85 347.002C124.78 347.002 123.938 347.625 123.608 348.569H123.564V348.079C123.564 347.361 123.14 346.987 122.532 346.987C121.924 346.987 121.499 347.361 121.499 348.079V354.041C121.499 354.766 121.931 355.154 122.568 355.154Z" fill="black"/>
<circle cx="270.5" cy="303.5" r="27.5" fill="black"/>
<circle cx="200" cy="366" r="35" fill="black"/>
<path d="M210.827 485C210.827 504.33 210.827 539.5 185.327 539.5C147.827 539.5 159.827 504.33 159.827 485C159.827 465.67 171.244 450 185.327 450C199.411 450 210.827 465.67 210.827 485Z" fill="black"/>
<circle cx="117.5" cy="317.5" r="17.5" fill="black"/>
<circle cx="188.833" cy="278.833" r="45.8333" fill="black"/>
<path d="M181.209 287.338C182.021 288.15 183.165 288.067 183.977 287.255L189.794 281.438L195.279 286.924C196.091 287.736 197.235 287.819 198.047 287.007C198.859 286.195 198.776 285.051 197.964 284.239L192.479 278.753L198.312 272.92C199.124 272.108 199.207 270.964 198.395 270.152C197.583 269.34 196.44 269.423 195.627 270.235L189.794 276.069L184.292 270.567C183.48 269.754 182.336 269.672 181.524 270.484C180.712 271.296 180.795 272.439 181.607 273.251L187.109 278.753L181.292 284.571C180.48 285.383 180.397 286.526 181.209 287.338Z" fill="white"/>
<path d="M102.25 207.297C103.734 207.297 104.609 206.391 104.609 204.844V199.891H108.828C113.578 199.891 116.875 196.797 116.875 192.172C116.875 187.531 113.688 184.453 109.062 184.453H102.25C100.766 184.453 99.8906 185.359 99.8906 186.906V204.844C99.8906 206.391 100.766 207.297 102.25 207.297ZM104.609 196.203V188.188H107.812C110.516 188.188 112.078 189.625 112.078 192.188C112.078 194.766 110.5 196.203 107.797 196.203H104.609ZM121.562 207.328C122.953 207.328 123.844 206.469 123.844 204.953V197.516C123.844 195.531 124.578 194.359 126.656 194.328C127.547 194.312 128.203 194.109 128.641 193.734C129.078 193.359 129.297 192.812 129.297 192.094C129.297 191.312 129.078 190.75 128.641 190.406C128.312 190.125 127.828 189.984 127.219 189.984C125.547 189.984 124.172 191.219 123.734 193.297H123.641V192.203C123.641 190.75 122.766 189.906 121.484 189.906C120.172 189.906 119.281 190.75 119.281 192.203V204.953C119.281 206.469 120.188 207.328 121.562 207.328ZM138.078 207.359C141.312 207.359 143.906 206.141 145.016 204.078C145.219 203.703 145.328 203.328 145.328 202.969C145.328 201.922 144.531 201.297 143.547 201.297C142.953 201.297 142.547 201.469 142.062 201.969C140.828 203.422 139.734 203.984 138.062 203.984C135.75 203.984 134.25 202.359 134.25 199.875V199.672H143.812C145.078 199.672 145.797 198.953 145.797 197.688C145.797 193.141 142.609 189.891 137.859 189.891C132.906 189.891 129.766 193.312 129.766 198.703C129.766 204.125 132.844 207.359 138.078 207.359ZM134.297 196.875C134.453 194.734 135.906 193.266 137.906 193.266C139.906 193.266 141.312 194.688 141.406 196.875H134.297ZM154.984 207.359C159.406 207.359 162.391 205.203 162.391 201.875C162.391 199.375 160.922 198.062 157.359 197.312L154.594 196.719C152.922 196.359 152.266 195.781 152.266 194.906C152.266 193.828 153.344 193.094 154.891 193.094C156.531 193.094 157.438 193.875 158.234 194.891C158.641 195.375 159.297 195.594 159.891 195.594C161.062 195.594 161.641 194.953 161.641 194.031C161.641 193.812 161.594 193.594 161.531 193.359C160.984 191.469 158.438 189.891 154.969 189.891C150.625 189.891 147.859 191.953 147.859 195.156C147.859 197.641 149.516 199.312 152.797 200.016L155.609 200.609C157.25 200.969 157.828 201.453 157.828 202.359C157.828 203.469 156.75 204.156 155.094 204.156C153.359 204.156 152.328 203.625 151.438 202.453C150.812 201.75 150.188 201.422 149.453 201.422C148.391 201.422 147.609 202.125 147.609 203.172C147.609 203.422 147.672 203.719 147.781 204.016C148.578 205.984 151.141 207.359 154.984 207.359ZM172.359 207.359C175.594 207.359 178.188 206.141 179.297 204.078C179.5 203.703 179.609 203.328 179.609 202.969C179.609 201.922 178.812 201.297 177.828 201.297C177.234 201.297 176.828 201.469 176.344 201.969C175.109 203.422 174.016 203.984 172.344 203.984C170.031 203.984 168.531 202.359 168.531 199.875V199.672H178.094C179.359 199.672 180.078 198.953 180.078 197.688C180.078 193.141 176.891 189.891 172.141 189.891C167.188 189.891 164.047 193.312 164.047 198.703C164.047 204.125 167.125 207.359 172.359 207.359ZM168.578 196.875C168.734 194.734 170.188 193.266 172.188 193.266C174.188 193.266 175.594 194.688 175.688 196.875H168.578ZM184.719 207.328C186.062 207.328 187 206.516 187 204.953V197.391C187 195.219 188.297 193.719 190.344 193.719C192.391 193.719 193.422 194.969 193.422 197.156V204.953C193.422 206.516 194.359 207.328 195.703 207.328C197.031 207.328 197.984 206.516 197.984 204.953V196.203C197.984 192.281 195.891 189.938 192.172 189.938C189.594 189.938 187.906 191.078 187.016 193.156H186.922V192.219C186.922 190.781 186.016 189.906 184.641 189.906C183.266 189.906 182.438 190.781 182.438 192.203V204.953C182.438 206.516 183.391 207.328 184.719 207.328ZM202.094 202.719C202.094 205.672 203.641 207.188 206.688 207.188H206.844C208.766 207.188 210.078 206.5 210.078 205.156C210.078 204.094 209.469 203.625 208.344 203.5L208.047 203.469C207.062 203.391 206.656 202.891 206.656 201.703V193.688H208.266C209.344 193.688 210.016 193.016 210.016 191.969C210.016 190.922 209.344 190.25 208.266 190.25H206.656V188.391C206.656 186.922 205.797 186.016 204.375 186.016C202.953 186.016 202.094 186.922 202.094 188.391V190.25H201.219C200.141 190.25 199.453 190.906 199.453 191.969C199.453 193.031 200.141 193.688 201.219 193.688H202.094V202.719ZM217.047 207.266C219.141 207.266 221.234 206.219 222.172 204.438H222.266V205.297C222.359 206.641 223.219 207.328 224.453 207.328C225.75 207.328 226.672 206.547 226.672 205.031V195.484C226.672 192.109 223.875 189.891 219.578 189.891C216.109 189.891 213.422 191.125 212.641 193.125C212.484 193.469 212.406 193.797 212.406 194.156C212.406 195.188 213.203 195.906 214.312 195.906C215.047 195.906 215.625 195.625 216.125 195.062C217.141 193.75 217.984 193.297 219.375 193.297C221.094 193.297 222.188 194.203 222.188 195.766V196.875L217.969 197.125C213.781 197.375 211.438 199.141 211.438 202.188C211.438 205.203 213.859 207.266 217.047 207.266ZM218.547 203.969C217.016 203.969 215.984 203.188 215.984 201.938C215.984 200.75 216.953 199.984 218.656 199.859L222.188 199.641V200.859C222.188 202.672 220.547 203.969 218.547 203.969ZM230.844 202.719C230.844 205.672 232.391 207.188 235.438 207.188H235.594C237.516 207.188 238.828 206.5 238.828 205.156C238.828 204.094 238.219 203.625 237.094 203.5L236.797 203.469C235.812 203.391 235.406 202.891 235.406 201.703V193.688H237.016C238.094 193.688 238.766 193.016 238.766 191.969C238.766 190.922 238.094 190.25 237.016 190.25H235.406V188.391C235.406 186.922 234.547 186.016 233.125 186.016C231.703 186.016 230.844 186.922 230.844 188.391V190.25H229.969C228.891 190.25 228.203 190.906 228.203 191.969C228.203 193.031 228.891 193.688 229.969 193.688H230.844V202.719ZM243.359 188.172C244.734 188.172 245.797 187.125 245.797 185.812C245.797 184.484 244.734 183.453 243.359 183.453C241.984 183.453 240.922 184.484 240.922 185.812C240.922 187.125 241.984 188.172 243.359 188.172ZM243.359 207.328C244.766 207.328 245.641 206.438 245.641 204.953V192.297C245.641 190.812 244.766 189.906 243.359 189.906C241.938 189.906 241.078 190.812 241.078 192.297V204.953C241.078 206.438 241.938 207.328 243.359 207.328ZM256.375 207.359C261.438 207.359 264.672 204.125 264.672 198.609C264.672 193.172 261.391 189.891 256.375 189.891C251.359 189.891 248.078 193.188 248.078 198.609C248.078 204.109 251.312 207.359 256.375 207.359ZM256.375 203.875C254.125 203.875 252.703 201.984 252.703 198.625C252.703 195.297 254.156 193.375 256.375 193.375C258.594 193.375 260.031 195.297 260.031 198.625C260.031 201.984 258.609 203.875 256.375 203.875ZM269.312 207.328C270.656 207.328 271.594 206.516 271.594 204.953V197.391C271.594 195.219 272.891 193.719 274.938 193.719C276.984 193.719 278.016 194.969 278.016 197.156V204.953C278.016 206.516 278.953 207.328 280.297 207.328C281.625 207.328 282.578 206.516 282.578 204.953V196.203C282.578 192.281 280.484 189.938 276.766 189.938C274.188 189.938 272.5 191.078 271.609 193.156H271.516V192.219C271.516 190.781 270.609 189.906 269.234 189.906C267.859 189.906 267.031 190.781 267.031 192.203V204.953C267.031 206.516 267.984 207.328 269.312 207.328Z" fill="black"/>
<g opacity="0.5">
<path d="M241.722 116.384H257.038C258.533 116.384 259.434 115.441 259.434 114.075C259.434 112.67 258.533 111.766 257.038 111.766H246.61V111.65L252.59 105.877C257.114 101.586 258.763 99.4691 258.763 96.0823C258.763 91.3099 254.814 88 248.948 88C243.715 88 240.246 90.8673 239.307 93.9463C239.173 94.3504 239.096 94.7545 239.096 95.1971C239.096 96.6403 240.016 97.564 241.569 97.564C242.815 97.564 243.485 97.0252 244.137 95.8706C245.134 93.6384 246.667 92.5222 248.891 92.5222C251.364 92.5222 253.127 94.1579 253.127 96.4479C253.127 98.4492 252.245 99.7963 248.833 103.087L240.591 110.996C239.422 112.074 239 112.805 239 113.902C239 115.364 239.901 116.384 241.722 116.384Z" fill="black"/>
<path d="M273.516 117C280.11 117 284.729 113.69 284.729 108.879C284.729 105.223 282.065 102.529 278.289 101.778V101.663C281.528 100.835 283.713 98.4685 283.713 95.4857C283.713 91.1367 279.516 88 273.516 88C267.516 88 263.299 91.1559 263.299 95.4665C263.299 98.4877 265.503 100.855 268.762 101.663V101.778C264.986 102.51 262.302 105.204 262.302 108.86C262.302 113.671 266.903 117 273.516 117ZM273.516 99.9117C270.89 99.9117 269.03 98.3338 269.03 96.063C269.03 93.7731 270.89 92.1951 273.516 92.1951C276.123 92.1951 278.001 93.7731 278.001 96.063C278.001 98.3338 276.123 99.9117 273.516 99.9117ZM273.516 112.766C270.468 112.766 268.34 110.958 268.34 108.437C268.34 105.935 270.468 104.145 273.516 104.145C276.564 104.145 278.672 105.935 278.672 108.437C278.672 110.958 276.564 112.766 273.516 112.766Z" fill="black"/>
<path d="M299.169 116.75C300.99 116.75 302.064 115.634 302.064 113.729V105.454H311.169C312.683 105.454 313.641 104.588 313.641 103.145C313.641 101.721 312.664 100.855 311.169 100.855H302.064V93.4267H312.108C313.68 93.4267 314.734 92.5222 314.734 91.0212C314.734 89.5202 313.699 88.6158 312.108 88.6158H299.169C297.348 88.6158 296.275 89.7319 296.275 91.637V113.729C296.275 115.634 297.348 116.75 299.169 116.75Z" fill="black"/>
<path d="M326.152 116.827C330.12 116.827 333.302 115.326 334.663 112.786C334.912 112.324 335.046 111.862 335.046 111.419C335.046 110.13 334.068 109.36 332.861 109.36C332.132 109.36 331.634 109.572 331.04 110.188C329.525 111.977 328.184 112.67 326.133 112.67C323.296 112.67 321.456 110.669 321.456 107.609V107.359H333.187C334.739 107.359 335.621 106.474 335.621 104.915C335.621 99.3152 331.711 95.3125 325.883 95.3125C319.807 95.3125 315.954 99.5269 315.954 106.166C315.954 112.843 319.73 116.827 326.152 116.827ZM321.513 103.914C321.705 101.278 323.487 99.4691 325.941 99.4691C328.395 99.4691 330.12 101.22 330.235 103.914H321.513Z" fill="black"/>
<path d="M341.327 116.788C342.956 116.788 344.106 115.807 344.106 113.94V112.843H344.221C345.371 115.249 347.652 116.711 350.662 116.711C355.856 116.711 359 112.709 359 106.07C359 99.4114 355.837 95.428 350.643 95.428C347.729 95.428 345.429 96.8905 344.298 99.3344H344.183V91.1367C344.183 89.2123 343.033 88.1924 341.384 88.1924C339.755 88.1924 338.586 89.2123 338.586 91.1367V113.94C338.586 115.826 339.717 116.788 341.327 116.788ZM348.745 112.189C346.023 112.189 344.164 109.803 344.164 106.07C344.164 102.375 346.023 99.931 348.745 99.931C351.524 99.931 353.269 102.317 353.269 106.07C353.269 109.841 351.524 112.189 348.745 112.189Z" fill="black"/>
<path d="M326.875 134.788H331.798C332.278 134.788 332.568 134.463 332.568 133.992C332.568 133.508 332.278 133.196 331.798 133.196H328.446V133.156L330.368 131.167C331.822 129.688 332.352 128.959 332.352 127.792C332.352 126.147 331.083 125.007 329.198 125.007C327.516 125.007 326.4 125.995 326.099 127.056C326.055 127.195 326.031 127.334 326.031 127.487C326.031 127.984 326.327 128.302 326.826 128.302C327.226 128.302 327.442 128.117 327.651 127.719C327.972 126.95 328.464 126.565 329.179 126.565C329.974 126.565 330.541 127.129 330.541 127.918C330.541 128.607 330.257 129.072 329.161 130.206L326.511 132.931C326.136 133.302 326 133.554 326 133.932C326 134.436 326.29 134.788 326.875 134.788Z" fill="black"/>
<path d="M337.039 135C339.294 135 340.662 133.07 340.662 129.98C340.662 126.89 339.282 125 337.039 125C334.797 125 333.41 126.897 333.41 129.987C333.41 133.084 334.784 135 337.039 135ZM337.039 133.395C335.942 133.395 335.302 132.182 335.302 129.987C335.302 127.812 335.955 126.605 337.039 126.605C338.13 126.605 338.77 127.805 338.77 129.987C338.77 132.182 338.136 133.395 337.039 133.395Z" fill="black"/>
<path d="M342.546 134.788H347.468C347.949 134.788 348.239 134.463 348.239 133.992C348.239 133.508 347.949 133.196 347.468 133.196H344.117V133.156L346.039 131.167C347.493 129.688 348.023 128.959 348.023 127.792C348.023 126.147 346.754 125.007 344.868 125.007C343.186 125.007 342.071 125.995 341.769 127.056C341.726 127.195 341.702 127.334 341.702 127.487C341.702 127.984 341.997 128.302 342.496 128.302C342.897 128.302 343.113 128.117 343.322 127.719C343.642 126.95 344.135 126.565 344.85 126.565C345.645 126.565 346.212 127.129 346.212 127.918C346.212 128.607 345.928 129.072 344.831 130.206L342.182 132.931C341.806 133.302 341.671 133.554 341.671 133.932C341.671 134.436 341.96 134.788 342.546 134.788Z" fill="black"/>
<path d="M352.537 135C354.601 135 356 133.846 356 132.109C356 130.789 355.144 129.954 353.819 129.821V129.781C354.866 129.549 355.673 128.753 355.673 127.54C355.673 126.008 354.404 125.007 352.525 125.007C350.954 125.007 349.944 125.789 349.549 126.724C349.457 126.95 349.414 127.142 349.414 127.367C349.414 127.851 349.679 128.176 350.196 128.176C350.615 128.176 350.831 128.011 351.034 127.56C351.324 126.883 351.78 126.545 352.531 126.545C353.431 126.545 353.911 127.056 353.911 127.825C353.911 128.607 353.308 129.151 352.377 129.151H352.014C351.564 129.151 351.305 129.443 351.305 129.861C351.305 130.292 351.564 130.577 352.014 130.577H352.402C353.48 130.577 354.115 131.094 354.109 132.023C354.109 132.818 353.48 133.389 352.568 133.389C351.644 133.389 351.164 132.991 350.849 132.321C350.665 131.956 350.43 131.797 350.061 131.797C349.549 131.797 349.241 132.122 349.241 132.639C349.241 132.838 349.284 133.05 349.383 133.269C349.802 134.211 350.843 135 352.537 135Z" fill="black"/>
<path d="M244.516 135.346C245.411 135.346 245.938 134.785 245.938 133.828V123.629H248.752C249.515 123.629 250.033 123.175 250.033 122.421C250.033 121.667 249.524 121.213 248.752 121.213H240.29C239.508 121.213 239 121.667 239 122.421C239 123.175 239.518 123.629 240.29 123.629H243.095V133.828C243.095 134.785 243.622 135.346 244.516 135.346Z" fill="black"/>
<path d="M253.553 135.356C255.078 135.356 256.076 134.602 256.575 133.296H256.632V133.934C256.632 134.872 257.168 135.365 257.959 135.365C258.75 135.365 259.286 134.872 259.286 133.934V126.066C259.286 125.099 258.721 124.586 257.912 124.586C257.112 124.586 256.537 125.099 256.537 126.066V130.735C256.537 132.107 255.775 133.006 254.551 133.006C253.337 133.006 252.668 132.272 252.668 130.889V126.066C252.668 125.099 252.104 124.586 251.294 124.586C250.494 124.586 249.92 125.099 249.92 126.066V131.479C249.92 133.896 251.369 135.356 253.553 135.356Z" fill="black"/>
<path d="M265.716 135.385C267.664 135.385 269.227 134.631 269.895 133.354C270.018 133.122 270.084 132.89 270.084 132.668C270.084 132.02 269.603 131.634 269.01 131.634C268.653 131.634 268.408 131.74 268.116 132.049C267.372 132.948 266.714 133.296 265.706 133.296C264.313 133.296 263.409 132.291 263.409 130.754V130.628H269.17C269.933 130.628 270.366 130.184 270.366 129.401C270.366 126.588 268.446 124.577 265.584 124.577C262.6 124.577 260.708 126.694 260.708 130.029C260.708 133.383 262.562 135.385 265.716 135.385ZM263.438 128.898C263.532 127.574 264.407 126.665 265.612 126.665C266.817 126.665 267.664 127.545 267.721 128.898H263.438Z" fill="black"/>
<path d="M275.901 135.385C278.565 135.385 280.363 134.05 280.363 131.991C280.363 130.445 279.478 129.633 277.332 129.169L275.666 128.801C274.659 128.579 274.263 128.221 274.263 127.68C274.263 127.013 274.913 126.559 275.845 126.559C276.833 126.559 277.379 127.042 277.859 127.67C278.104 127.97 278.499 128.105 278.857 128.105C279.563 128.105 279.911 127.709 279.911 127.139C279.911 127.003 279.883 126.868 279.845 126.723C279.516 125.553 277.982 124.577 275.892 124.577C273.275 124.577 271.609 125.853 271.609 127.835C271.609 129.372 272.606 130.406 274.583 130.841L276.278 131.208C277.266 131.431 277.614 131.73 277.614 132.291C277.614 132.977 276.965 133.403 275.967 133.403C274.922 133.403 274.301 133.074 273.764 132.349C273.388 131.914 273.011 131.711 272.569 131.711C271.929 131.711 271.458 132.146 271.458 132.794C271.458 132.948 271.496 133.132 271.562 133.316C272.042 134.534 273.585 135.385 275.901 135.385Z" fill="black"/>
<path d="M285.475 135.327C287.028 135.327 288.139 134.495 288.581 133.335H288.628V133.934C288.628 134.882 289.221 135.365 290.012 135.365C290.812 135.365 291.377 134.872 291.377 133.934V122.479C291.377 121.512 290.812 121 290.003 121C289.203 121 288.628 121.512 288.628 122.479V126.578H288.572C288.082 125.427 286.953 124.635 285.494 124.635C282.961 124.635 281.361 126.675 281.361 129.961C281.361 133.277 282.952 135.327 285.475 135.327ZM286.407 133.055C285.023 133.055 284.176 131.885 284.176 129.981C284.176 128.086 285.023 126.897 286.407 126.897C287.772 126.897 288.647 128.096 288.647 129.981C288.647 131.875 287.772 133.055 286.407 133.055Z" fill="black"/>
<path d="M296.197 135.327C297.458 135.327 298.72 134.679 299.284 133.577H299.341V134.108C299.397 134.94 299.915 135.365 300.659 135.365C301.44 135.365 301.996 134.882 301.996 133.944V128.038C301.996 125.95 300.311 124.577 297.722 124.577C295.632 124.577 294.013 125.34 293.542 126.578C293.448 126.791 293.401 126.994 293.401 127.216C293.401 127.854 293.881 128.299 294.549 128.299C294.992 128.299 295.34 128.125 295.641 127.777C296.253 126.965 296.762 126.684 297.599 126.684C298.635 126.684 299.294 127.245 299.294 128.212V128.898L296.752 129.053C294.229 129.207 292.817 130.3 292.817 132.185C292.817 134.05 294.276 135.327 296.197 135.327ZM297.1 133.287C296.178 133.287 295.557 132.803 295.557 132.03C295.557 131.295 296.14 130.822 297.166 130.744L299.294 130.609V131.363C299.294 132.484 298.305 133.287 297.1 133.287Z" fill="black"/>
<path d="M305.431 139C307.644 139 308.811 138.014 309.752 135.336L312.849 126.694C312.944 126.423 313 126.095 313 125.863C313 125.118 312.454 124.586 311.663 124.586C310.957 124.586 310.562 124.925 310.336 125.708L308.143 132.9H308.096L305.902 125.727C305.676 124.905 305.3 124.586 304.575 124.586C303.765 124.586 303.153 125.137 303.153 125.901C303.153 126.133 303.21 126.443 303.313 126.733L306.533 135.452L306.392 135.82C306.062 136.545 305.544 136.757 305.064 136.757C304.876 136.757 304.773 136.748 304.584 136.748C303.963 136.748 303.577 137.105 303.577 137.676C303.577 138.526 304.227 139 305.431 139Z" fill="black"/>
</g>
<path d="M277.742 561.567C335.548 547.53 367.244 500.86 389 535.579L389 885C347.464 920.456 298.953 876.896 245.107 874.006C177.798 870.393 169.287 914.939 115.341 907.198C61.3959 899.457 61.1519 867.977 33.644 867.977C10.715 867.977 -1 885 -1 885L-1 535.091C22.7559 572.248 110.092 553.678 134.838 553.678C166.049 553.678 205.485 579.114 277.742 561.567Z" fill="black"/>
<circle cx="200" cy="680" r="29.5" stroke="white" stroke-linecap="round" stroke-dasharray="5 5"/>
<path d="M195.492 685.154C196.144 685.154 196.583 684.714 196.583 684.048V675.508C196.583 674.746 196.114 674.27 195.331 674.27C194.876 674.27 194.525 674.336 194.012 674.688L191.917 676.138C191.573 676.379 191.441 676.628 191.441 676.965C191.441 677.434 191.771 677.756 192.218 677.756C192.445 677.756 192.599 677.705 192.804 677.559L194.349 676.482H194.393V684.048C194.393 684.714 194.84 685.154 195.492 685.154ZM200.033 685.154C200.663 685.154 201.102 684.773 201.102 684.041V680.518C201.102 679.485 201.695 678.774 202.706 678.774C203.68 678.774 204.178 679.39 204.178 680.4V684.041C204.178 684.773 204.625 685.154 205.248 685.154C205.877 685.154 206.317 684.773 206.317 684.041V679.946C206.317 678.13 205.321 677.002 203.578 677.002C202.384 677.002 201.527 677.559 201.109 678.547H201.065V675.369C201.065 674.68 200.677 674.27 200.018 674.27C199.359 674.27 198.963 674.68 198.963 675.369V684.041C198.963 684.773 199.41 685.154 200.033 685.154Z" fill="white"/>
<path d="M22.084 599.186C23.0117 599.186 23.5586 598.619 23.5586 597.652V587.35H26.4785C27.2695 587.35 27.8066 586.891 27.8066 586.129C27.8066 585.367 27.2793 584.908 26.4785 584.908H17.6992C16.8887 584.908 16.3613 585.367 16.3613 586.129C16.3613 586.891 16.8984 587.35 17.6992 587.35H20.6094V597.652C20.6094 598.619 21.1562 599.186 22.084 599.186ZM31.5273 599.225C34.6914 599.225 36.7129 597.203 36.7129 593.756C36.7129 590.357 34.6621 588.307 31.5273 588.307C28.3926 588.307 26.3418 590.367 26.3418 593.756C26.3418 597.193 28.3633 599.225 31.5273 599.225ZM31.5273 597.047C30.1211 597.047 29.2324 595.865 29.2324 593.766C29.2324 591.686 30.1406 590.484 31.5273 590.484C32.9141 590.484 33.8125 591.686 33.8125 593.766C33.8125 595.865 32.9238 597.047 31.5273 597.047ZM42.0742 599.166C43.6855 599.166 44.8379 598.326 45.2969 597.154H45.3457V597.76C45.3457 598.717 45.9609 599.205 46.7812 599.205C47.6113 599.205 48.1973 598.707 48.1973 597.76V586.188C48.1973 585.211 47.6113 584.693 46.7715 584.693C45.9414 584.693 45.3457 585.211 45.3457 586.188V590.328H45.2871C44.7793 589.166 43.6074 588.365 42.0938 588.365C39.4668 588.365 37.8066 590.426 37.8066 593.746C37.8066 597.096 39.457 599.166 42.0742 599.166ZM43.041 596.871C41.6055 596.871 40.7266 595.689 40.7266 593.766C40.7266 591.852 41.6055 590.65 43.041 590.65C44.457 590.65 45.3652 591.861 45.3652 593.766C45.3652 595.68 44.457 596.871 43.041 596.871ZM53.1973 599.166C54.5059 599.166 55.8145 598.512 56.4004 597.398H56.459V597.936C56.5176 598.775 57.0547 599.205 57.8262 599.205C58.6367 599.205 59.2129 598.717 59.2129 597.77V591.803C59.2129 589.693 57.4648 588.307 54.7793 588.307C52.6113 588.307 50.9316 589.078 50.4434 590.328C50.3457 590.543 50.2969 590.748 50.2969 590.973C50.2969 591.617 50.7949 592.066 51.4883 592.066C51.9473 592.066 52.3086 591.891 52.6211 591.539C53.2559 590.719 53.7832 590.436 54.6523 590.436C55.7266 590.436 56.4102 591.002 56.4102 591.979V592.672L53.7734 592.828C51.1562 592.984 49.6914 594.088 49.6914 595.992C49.6914 597.877 51.2051 599.166 53.1973 599.166ZM54.1348 597.105C53.1777 597.105 52.5332 596.617 52.5332 595.836C52.5332 595.094 53.1387 594.615 54.2031 594.537L56.4102 594.4V595.162C56.4102 596.295 55.3848 597.105 54.1348 597.105ZM62.7773 602.877C65.0723 602.877 66.2832 601.881 67.2598 599.176L70.4727 590.445C70.5703 590.172 70.6289 589.84 70.6289 589.605C70.6289 588.854 70.0625 588.316 69.2422 588.316C68.5098 588.316 68.0996 588.658 67.8652 589.449L65.5898 596.715H65.541L63.2656 589.469C63.0312 588.639 62.6406 588.316 61.8887 588.316C61.0488 588.316 60.4141 588.873 60.4141 589.645C60.4141 589.879 60.4727 590.191 60.5801 590.484L63.9199 599.293L63.7734 599.664C63.4316 600.396 62.8945 600.611 62.3965 600.611C62.2012 600.611 62.0938 600.602 61.8984 600.602C61.2539 600.602 60.8535 600.963 60.8535 601.539C60.8535 602.398 61.5273 602.877 62.7773 602.877Z" fill="white"/>
<path d="M335.022 591.103C335.53 591.103 335.813 590.873 335.935 590.355L336.726 587.299H336.755L337.551 590.346C337.673 590.878 337.952 591.103 338.474 591.103C338.967 591.103 339.241 590.868 339.387 590.351L340.442 586.698C340.496 586.513 340.52 586.396 340.52 586.264C340.52 585.907 340.242 585.658 339.846 585.658C339.495 585.658 339.265 585.873 339.187 586.254L338.406 589.647H338.376L337.561 586.312C337.468 585.888 337.19 585.658 336.765 585.658C336.331 585.658 336.052 585.888 335.959 586.312L335.149 589.647H335.12L334.343 586.264C334.26 585.873 334.031 585.658 333.674 585.658C333.274 585.658 332.986 585.912 332.986 586.269C332.986 586.405 333.01 586.522 333.064 586.708L334.119 590.355C334.27 590.873 334.529 591.103 335.022 591.103ZM343.409 591.112C344.991 591.112 346.002 590.102 346.002 588.378C346.002 586.679 344.976 585.653 343.409 585.653C341.841 585.653 340.816 586.684 340.816 588.378C340.816 590.097 341.827 591.112 343.409 591.112ZM343.409 590.023C342.706 590.023 342.261 589.433 342.261 588.383C342.261 587.343 342.715 586.742 343.409 586.742C344.102 586.742 344.551 587.343 344.551 588.383C344.551 589.433 344.107 590.023 343.409 590.023ZM347.372 591.103C347.806 591.103 348.085 590.834 348.085 590.36V588.036C348.085 587.416 348.314 587.05 348.964 587.04C349.242 587.035 349.447 586.972 349.584 586.854C349.72 586.737 349.789 586.566 349.789 586.342C349.789 586.098 349.72 585.922 349.584 585.814C349.481 585.727 349.33 585.683 349.139 585.683C348.617 585.683 348.187 586.068 348.05 586.718H348.021V586.376C348.021 585.922 347.748 585.658 347.347 585.658C346.937 585.658 346.659 585.922 346.659 586.376V590.36C346.659 590.834 346.942 591.103 347.372 591.103ZM350.969 591.103C351.388 591.103 351.681 590.849 351.681 590.36V589.301L352.136 588.881L353.478 590.658C353.703 590.995 353.874 591.103 354.177 591.103C354.577 591.103 354.855 590.839 354.855 590.458C354.855 590.272 354.811 590.146 354.655 589.936L353.195 588.075L354.528 586.815C354.733 586.625 354.797 586.493 354.797 586.278C354.797 585.927 354.528 585.658 354.162 585.658C353.947 585.658 353.786 585.741 353.595 585.941L351.701 587.841H351.681V584.594C351.681 584.105 351.388 583.847 350.969 583.847C350.553 583.847 350.256 584.105 350.256 584.594V590.36C350.256 590.849 350.553 591.103 350.969 591.103ZM356.26 585.116C356.689 585.116 357.021 584.789 357.021 584.379C357.021 583.964 356.689 583.642 356.26 583.642C355.83 583.642 355.498 583.964 355.498 584.379C355.498 584.789 355.83 585.116 356.26 585.116ZM356.26 591.103C356.699 591.103 356.972 590.824 356.972 590.36V586.405C356.972 585.941 356.699 585.658 356.26 585.658C355.815 585.658 355.547 585.941 355.547 586.405V590.36C355.547 590.824 355.815 591.103 356.26 591.103ZM358.558 591.103C358.977 591.103 359.27 590.849 359.27 590.36V587.997C359.27 587.318 359.676 586.85 360.315 586.85C360.955 586.85 361.277 587.24 361.277 587.924V590.36C361.277 590.849 361.57 591.103 361.99 591.103C362.405 591.103 362.703 590.849 362.703 590.36V587.626C362.703 586.4 362.049 585.668 360.887 585.668C360.081 585.668 359.554 586.024 359.275 586.674H359.246V586.381C359.246 585.932 358.963 585.658 358.533 585.658C358.103 585.658 357.845 585.932 357.845 586.376V590.36C357.845 590.849 358.142 591.103 358.558 591.103ZM365.865 592.968C367.55 592.978 368.536 592.157 368.536 590.795V586.381C368.536 585.897 368.238 585.658 367.828 585.658C367.418 585.658 367.11 585.897 367.11 586.381V586.669H367.081C366.808 586.078 366.236 585.683 365.484 585.683C364.137 585.683 363.336 586.654 363.336 588.295C363.336 589.892 364.156 590.888 365.46 590.888C366.217 590.888 366.827 590.512 367.071 589.95H367.101V590.785C367.101 591.439 366.642 591.869 365.86 591.864C365.387 591.859 365.016 591.659 364.63 591.293C364.469 591.146 364.322 591.088 364.137 591.088C363.78 591.088 363.556 591.312 363.556 591.61C363.556 591.742 363.585 591.874 363.663 592.006C364 592.558 364.796 592.963 365.865 592.968ZM365.943 589.828C365.235 589.828 364.796 589.267 364.796 588.31C364.796 587.362 365.24 586.767 365.943 586.767C366.656 586.767 367.115 587.372 367.115 588.314C367.115 589.262 366.656 589.828 365.943 589.828ZM344.388 601.103C344.808 601.103 345.101 600.849 345.101 600.36V598.012C345.101 597.323 345.497 596.85 346.171 596.85C346.82 596.85 347.152 597.26 347.152 597.934V600.36C347.152 600.849 347.45 601.103 347.865 601.103C348.285 601.103 348.578 600.849 348.578 600.36V597.631C348.578 596.42 347.914 595.668 346.752 595.668C345.956 595.668 345.384 596.039 345.106 596.698H345.077V594.579C345.077 594.12 344.818 593.847 344.379 593.847C343.939 593.847 343.675 594.12 343.675 594.579V600.36C343.675 600.849 343.973 601.103 344.388 601.103ZM351.813 601.112C353.395 601.112 354.406 600.102 354.406 598.378C354.406 596.679 353.381 595.653 351.813 595.653C350.246 595.653 349.22 596.684 349.22 598.378C349.22 600.097 350.231 601.112 351.813 601.112ZM351.813 600.023C351.11 600.023 350.666 599.433 350.666 598.383C350.666 597.343 351.12 596.742 351.813 596.742C352.507 596.742 352.956 597.343 352.956 598.383C352.956 599.433 352.511 600.023 351.813 600.023ZM356.924 601.098C357.715 601.098 358.232 600.717 358.491 600.058H358.52V600.38C358.52 600.854 358.799 601.103 359.209 601.103C359.619 601.103 359.897 600.854 359.897 600.38V596.405C359.897 595.917 359.604 595.658 359.184 595.658C358.769 595.658 358.472 595.917 358.472 596.405V598.764C358.472 599.457 358.076 599.911 357.441 599.911C356.811 599.911 356.465 599.54 356.465 598.842V596.405C356.465 595.917 356.172 595.658 355.752 595.658C355.337 595.658 355.039 595.917 355.039 596.405V599.14C355.039 600.36 355.791 601.098 356.924 601.098ZM361.458 601.103C361.892 601.103 362.171 600.834 362.171 600.36V598.036C362.171 597.416 362.4 597.05 363.05 597.04C363.328 597.035 363.533 596.972 363.67 596.854C363.807 596.737 363.875 596.566 363.875 596.342C363.875 596.098 363.807 595.922 363.67 595.814C363.567 595.727 363.416 595.683 363.226 595.683C362.703 595.683 362.273 596.068 362.137 596.718H362.107V596.376C362.107 595.922 361.834 595.658 361.434 595.658C361.023 595.658 360.745 595.922 360.745 596.376V600.36C360.745 600.834 361.028 601.103 361.458 601.103ZM366.441 601.112C367.823 601.112 368.756 600.438 368.756 599.398C368.756 598.617 368.297 598.207 367.184 597.973L366.319 597.787C365.797 597.675 365.592 597.494 365.592 597.221C365.592 596.884 365.929 596.654 366.412 596.654C366.925 596.654 367.208 596.898 367.457 597.216C367.584 597.367 367.789 597.436 367.975 597.436C368.341 597.436 368.521 597.235 368.521 596.947C368.521 596.879 368.507 596.811 368.487 596.737C368.316 596.146 367.521 595.653 366.437 595.653C365.079 595.653 364.215 596.298 364.215 597.299C364.215 598.075 364.732 598.598 365.758 598.817L366.637 599.003C367.149 599.115 367.33 599.267 367.33 599.55C367.33 599.896 366.993 600.111 366.476 600.111C365.934 600.111 365.611 599.945 365.333 599.579C365.138 599.359 364.942 599.257 364.713 599.257C364.381 599.257 364.137 599.477 364.137 599.804C364.137 599.882 364.156 599.975 364.19 600.067C364.439 600.683 365.24 601.112 366.441 601.112Z" fill="white"/>
<path d="M359.273 575.41C360.895 575.41 362.086 574.414 362.086 572.539V569.824H363.688C365.23 569.824 366.109 568.867 366.109 567.48C366.109 566.094 365.25 565.117 363.688 565.117H362.086V550.645C362.086 548.008 360.211 546.387 357.223 546.387C354.84 546.387 353.414 547.363 351.461 550.352C348.395 554.902 345.582 559.199 343.648 562.676C342.77 564.219 342.418 565.312 342.418 566.523C342.418 568.496 343.844 569.824 345.973 569.824H356.48V572.539C356.48 574.414 357.652 575.41 359.273 575.41ZM356.598 565.273H347.574V565.117C349.859 560.859 352.457 556.895 356.48 551.094H356.598V565.273Z" fill="white"/>
<path d="M55.2337 396.176C56.8353 396.176 57.9193 395.375 58.4466 394.174H58.4759V395.131C58.4759 395.795 58.9545 396.186 59.5502 396.186C60.1654 396.186 60.5951 395.795 60.5951 395.131V382.836C60.5951 382.143 60.1556 381.723 59.5404 381.723C58.9154 381.723 58.4759 382.143 58.4759 382.836V387.436H58.4369C57.8607 386.303 56.6888 385.561 55.2142 385.561C52.6361 385.561 50.9173 387.621 50.9173 390.863C50.9173 394.105 52.6361 396.176 55.2337 396.176ZM55.7904 394.389C54.1205 394.389 53.0755 393.031 53.0755 390.863C53.0755 388.705 54.1205 387.338 55.7904 387.338C57.4115 387.338 58.4955 388.734 58.4955 390.863C58.4955 393.012 57.4115 394.389 55.7904 394.389ZM63.7377 396.186C64.3627 396.186 64.7924 395.756 64.7924 395.072V389.828C64.7924 388.549 65.3784 387.582 66.8237 387.572C67.2631 387.572 67.5756 387.484 67.7905 387.299C67.9955 387.133 68.103 386.889 68.103 386.557C68.103 386.225 68.0151 385.971 67.8198 385.814C67.644 385.648 67.3608 385.561 66.9897 385.561C65.9643 385.561 65.017 386.332 64.7338 387.484H64.685V386.605C64.685 385.961 64.2748 385.541 63.6889 385.541C63.0932 385.541 62.683 385.961 62.683 386.605V395.072C62.683 395.756 63.103 396.186 63.7377 396.186ZM71.9585 396.176C73.2964 396.176 74.605 395.453 75.2007 394.311H75.2495V395.18C75.2691 395.805 75.6695 396.186 76.2554 396.186C76.8511 396.186 77.271 395.785 77.271 395.121V388.92C77.271 386.859 75.6792 385.541 73.189 385.541C71.3433 385.541 69.7905 386.283 69.2534 387.445C69.1265 387.68 69.0679 387.914 69.0679 388.129C69.0679 388.656 69.4487 389.008 69.9761 389.008C70.3472 389.008 70.6206 388.871 70.8355 388.559C71.4214 387.621 72.0952 387.26 73.1109 387.26C74.3999 387.26 75.1714 387.943 75.1714 389.086V389.877L72.3491 390.043C69.9175 390.18 68.5308 391.283 68.5308 393.08C68.5308 394.926 69.9468 396.176 71.9585 396.176ZM72.5347 394.506C71.4116 394.506 70.6597 393.92 70.6597 393.021C70.6597 392.143 71.3726 391.586 72.6323 391.498L75.1714 391.342V392.152C75.1714 393.49 74.0093 394.506 72.5347 394.506ZM83.5484 399.867C86.6051 399.896 88.4703 398.256 88.4703 395.717V386.625C88.4703 385.941 88.0211 385.541 87.4156 385.541C86.8102 385.541 86.3512 385.941 86.3512 386.625V387.455H86.3121C85.6871 386.293 84.5543 385.561 83.0992 385.561C80.443 385.561 78.7828 387.562 78.7828 390.775C78.7828 393.949 80.4625 395.971 83.0504 395.971C84.5152 395.971 85.7262 395.238 86.3023 394.125H86.3512V395.756C86.3512 397.191 85.3063 398.168 83.5875 398.148C82.5816 398.129 81.859 397.748 81.0191 396.869C80.7359 396.586 80.5309 396.479 80.2086 396.479C79.6715 396.479 79.3102 396.83 79.3102 397.318C79.3102 397.562 79.3688 397.777 79.5055 398.012C80.2086 399.125 81.6832 399.848 83.5484 399.867ZM83.6168 394.252C81.9957 394.252 80.941 392.934 80.941 390.785C80.941 388.646 81.9957 387.299 83.6168 387.299C85.2672 387.299 86.3609 388.686 86.3609 390.795C86.3609 392.904 85.2672 394.252 83.6168 394.252ZM95.0681 393.539C95.0681 395.238 95.947 396.088 97.6755 396.088H97.783C98.8181 396.088 99.3064 395.766 99.3064 395.131C99.3064 394.633 99.0037 394.389 98.3982 394.33L98.2322 394.32C97.4705 394.262 97.1873 393.891 97.1873 393.07V387.396H98.3884C98.9353 387.396 99.2673 387.084 99.2673 386.566C99.2673 386.049 98.9353 385.727 98.3884 385.727H97.1873V384.203C97.1873 383.529 96.7673 383.08 96.1326 383.08C95.488 383.08 95.0681 383.529 95.0681 384.203V385.727H94.3259C93.7791 385.727 93.447 386.039 93.447 386.566C93.447 387.084 93.7791 387.396 94.3259 387.396H95.0681V393.539ZM101.922 384.174C102.605 384.174 103.152 383.627 103.152 382.963C103.152 382.289 102.605 381.762 101.922 381.762C101.248 381.762 100.701 382.289 100.701 382.963C100.701 383.627 101.248 384.174 101.922 384.174ZM101.922 396.186C102.556 396.186 102.976 395.746 102.976 395.072V386.664C102.976 385.98 102.556 385.541 101.922 385.541C101.287 385.541 100.867 385.98 100.867 386.664V395.072C100.867 395.746 101.287 396.186 101.922 396.186ZM106.109 396.186C106.744 396.186 107.164 395.746 107.164 395.072V389.652C107.164 388.334 108.053 387.357 109.303 387.357C110.494 387.357 111.246 388.109 111.246 389.291V395.072C111.246 395.746 111.646 396.186 112.281 396.186C112.916 396.186 113.316 395.746 113.316 395.072V389.584C113.316 388.285 114.185 387.357 115.435 387.357C116.685 387.357 117.398 388.119 117.398 389.447V395.072C117.398 395.746 117.818 396.186 118.453 396.186C119.088 396.186 119.517 395.746 119.517 395.072V388.939C119.517 386.898 118.189 385.551 116.158 385.551C114.693 385.551 113.482 386.312 112.955 387.562H112.906C112.496 386.283 111.461 385.551 110.035 385.551C108.648 385.551 107.574 386.312 107.115 387.455H107.066V386.615C107.066 385.941 106.646 385.541 106.06 385.541C105.465 385.541 105.055 385.951 105.055 386.615V395.072C105.055 395.746 105.475 396.186 106.109 396.186ZM125.932 396.195C127.846 396.195 129.34 395.424 130.014 394.076C130.102 393.871 130.16 393.676 130.16 393.51C130.16 392.982 129.789 392.65 129.281 392.65C128.979 392.65 128.764 392.758 128.539 393.021C127.758 394.086 127.035 394.486 125.883 394.486C124.203 394.486 123.148 393.314 123.148 391.439V391.391H129.359C130.014 391.391 130.404 391 130.404 390.316C130.404 387.514 128.52 385.541 125.785 385.541C122.875 385.541 121.02 387.65 121.02 390.912C121.02 394.232 122.836 396.195 125.932 396.195ZM123.158 389.916C123.266 388.314 124.32 387.24 125.775 387.24C127.24 387.24 128.246 388.305 128.295 389.916H123.158ZM67.8509 420.176C69.4525 420.176 70.5365 419.375 71.0638 418.174H71.0931V419.131C71.0931 419.795 71.5716 420.186 72.1673 420.186C72.7826 420.186 73.2123 419.795 73.2123 419.131V406.836C73.2123 406.143 72.7728 405.723 72.1576 405.723C71.5326 405.723 71.0931 406.143 71.0931 406.836V411.436H71.0541C70.4779 410.303 69.306 409.561 67.8314 409.561C65.2533 409.561 63.5345 411.621 63.5345 414.863C63.5345 418.105 65.2533 420.176 67.8509 420.176ZM68.4076 418.389C66.7377 418.389 65.6927 417.031 65.6927 414.863C65.6927 412.705 66.7377 411.338 68.4076 411.338C70.0287 411.338 71.1127 412.734 71.1127 414.863C71.1127 417.012 70.0287 418.389 68.4076 418.389ZM76.3549 420.186C76.9799 420.186 77.4096 419.756 77.4096 419.072V413.828C77.4096 412.549 77.9955 411.582 79.4409 411.572C79.8803 411.572 80.1928 411.484 80.4077 411.299C80.6127 411.133 80.7202 410.889 80.7202 410.557C80.7202 410.225 80.6323 409.971 80.437 409.814C80.2612 409.648 79.978 409.561 79.6069 409.561C78.5815 409.561 77.6342 410.332 77.351 411.484H77.3022V410.605C77.3022 409.961 76.892 409.541 76.3061 409.541C75.7104 409.541 75.3002 409.961 75.3002 410.605V419.072C75.3002 419.756 75.7202 420.186 76.3549 420.186ZM85.7476 420.195C88.687 420.195 90.6206 418.174 90.6206 414.863C90.6206 411.562 88.6773 409.541 85.7476 409.541C82.8179 409.541 80.8745 411.562 80.8745 414.863C80.8745 418.174 82.8081 420.195 85.7476 420.195ZM85.7476 418.457C84.0972 418.457 83.023 417.148 83.023 414.863C83.023 412.588 84.0972 411.279 85.7476 411.279C87.398 411.279 88.4722 412.588 88.4722 414.863C88.4722 417.148 87.4077 418.457 85.7476 418.457ZM93.2262 423.643C93.8414 423.643 94.2809 423.213 94.2809 422.52V418.311H94.3297C94.9156 419.453 96.0875 420.176 97.5621 420.176C100.14 420.176 101.849 418.115 101.849 414.863C101.849 411.611 100.13 409.561 97.523 409.561C96.0387 409.561 94.857 410.312 94.2516 411.494H94.2125V410.625C94.2125 409.951 93.7828 409.541 93.1871 409.541C92.5914 409.541 92.1715 409.951 92.1715 410.625V422.52C92.1715 423.213 92.6012 423.643 93.2262 423.643ZM96.9664 418.389C95.3453 418.389 94.2711 417.002 94.2711 414.863C94.2711 412.744 95.3551 411.338 96.9664 411.338C98.6363 411.338 99.6813 412.715 99.6813 414.863C99.6813 417.021 98.6363 418.389 96.9664 418.389ZM107.189 420.195C109.728 420.195 111.437 418.926 111.437 417.021C111.437 415.498 110.607 414.727 108.449 414.229L106.857 413.857C105.773 413.604 105.275 413.154 105.275 412.51C105.275 411.709 106.056 411.152 107.189 411.152C108.224 411.152 108.849 411.562 109.308 412.344C109.513 412.676 109.816 412.793 110.158 412.793C110.685 412.793 110.978 412.48 110.978 412.012C110.978 411.914 110.959 411.816 110.939 411.699C110.646 410.488 109.123 409.541 107.267 409.541C104.826 409.541 103.215 410.771 103.215 412.627C103.215 414.092 104.191 415.068 106.183 415.537L107.804 415.918C108.908 416.182 109.308 416.543 109.308 417.217C109.308 418.066 108.498 418.584 107.297 418.584C106.076 418.584 105.461 418.213 104.933 417.383C104.67 416.992 104.367 416.826 104.015 416.826C103.488 416.826 103.107 417.139 103.107 417.666C103.107 417.803 103.127 417.949 103.195 418.105C103.683 419.365 105.168 420.195 107.189 420.195ZM118.094 408.174C118.777 408.174 119.324 407.627 119.324 406.963C119.324 406.289 118.777 405.762 118.094 405.762C117.42 405.762 116.873 406.289 116.873 406.963C116.873 407.627 117.42 408.174 118.094 408.174ZM118.094 420.186C118.728 420.186 119.148 419.746 119.148 419.072V410.664C119.148 409.98 118.728 409.541 118.094 409.541C117.459 409.541 117.039 409.98 117.039 410.664V419.072C117.039 419.746 117.459 420.186 118.094 420.186ZM122.281 420.186C122.896 420.186 123.336 419.766 123.336 419.072V414.014C123.336 412.422 124.293 411.367 125.777 411.367C127.242 411.367 127.965 412.217 127.965 413.76V419.072C127.965 419.766 128.404 420.186 129.019 420.186C129.644 420.186 130.084 419.766 130.084 419.072V413.35C130.084 410.996 128.785 409.551 126.519 409.551C124.937 409.551 123.863 410.254 123.307 411.426H123.258V410.615C123.258 409.961 122.838 409.541 122.232 409.541C121.617 409.541 121.226 409.961 121.226 410.605V419.072C121.226 419.766 121.656 420.186 122.281 420.186ZM56.6205 441.539C56.6205 443.238 57.4994 444.088 59.2279 444.088H59.3353C60.3705 444.088 60.8587 443.766 60.8587 443.131C60.8587 442.633 60.556 442.389 59.9505 442.33L59.7845 442.32C59.0228 442.262 58.7396 441.891 58.7396 441.07V435.396H59.9408C60.4877 435.396 60.8197 435.084 60.8197 434.566C60.8197 434.049 60.4877 433.727 59.9408 433.727H58.7396V432.203C58.7396 431.529 58.3197 431.08 57.6849 431.08C57.0404 431.08 56.6205 431.529 56.6205 432.203V433.727H55.8783C55.3314 433.727 54.9994 434.039 54.9994 434.566C54.9994 435.084 55.3314 435.396 55.8783 435.396H56.6205V441.539ZM63.4838 444.186C64.0991 444.186 64.5385 443.766 64.5385 443.072V438.062C64.5385 436.441 65.4955 435.367 67.058 435.367C68.5424 435.367 69.3041 436.275 69.3041 437.789V443.072C69.3041 443.766 69.7436 444.186 70.3588 444.186C70.9838 444.186 71.4233 443.766 71.4233 443.072V437.379C71.4233 435.055 70.0756 433.551 67.8198 433.551C66.2573 433.551 65.1342 434.244 64.5678 435.445H64.519V430.816C64.519 430.152 64.1284 429.723 63.4741 429.723C62.8295 429.723 62.4291 430.152 62.4291 430.816V443.072C62.4291 443.766 62.8686 444.186 63.4838 444.186ZM77.8374 444.195C79.7515 444.195 81.2456 443.424 81.9195 442.076C82.0073 441.871 82.0659 441.676 82.0659 441.51C82.0659 440.982 81.6948 440.65 81.187 440.65C80.8843 440.65 80.6695 440.758 80.4448 441.021C79.6636 442.086 78.9409 442.486 77.7886 442.486C76.1089 442.486 75.0542 441.314 75.0542 439.439V439.391H81.2652C81.9195 439.391 82.3101 439 82.3101 438.316C82.3101 435.514 80.4253 433.541 77.6909 433.541C74.7808 433.541 72.9253 435.65 72.9253 438.912C72.9253 442.232 74.7417 444.195 77.8374 444.195ZM75.064 437.916C75.1714 436.314 76.2261 435.24 77.6812 435.24C79.146 435.24 80.1519 436.305 80.2007 437.916H75.064ZM88.9079 447.643C89.5231 447.643 89.9626 447.213 89.9626 446.52V442.311H90.0114C90.5973 443.453 91.7692 444.176 93.2438 444.176C95.822 444.176 97.5309 442.115 97.5309 438.863C97.5309 435.611 95.8122 433.561 93.2048 433.561C91.7204 433.561 90.5387 434.312 89.9333 435.494H89.8942V434.625C89.8942 433.951 89.4645 433.541 88.8688 433.541C88.2731 433.541 87.8532 433.951 87.8532 434.625V446.52C87.8532 447.213 88.2829 447.643 88.9079 447.643ZM92.6481 442.389C91.027 442.389 89.9528 441.002 89.9528 438.863C89.9528 436.744 91.0368 435.338 92.6481 435.338C94.318 435.338 95.363 436.715 95.363 438.863C95.363 441.021 94.318 442.389 92.6481 442.389ZM103.496 444.195C106.435 444.195 108.369 442.174 108.369 438.863C108.369 435.562 106.426 433.541 103.496 433.541C100.566 433.541 98.6228 435.562 98.6228 438.863C98.6228 442.174 100.556 444.195 103.496 444.195ZM103.496 442.457C101.845 442.457 100.771 441.148 100.771 438.863C100.771 436.588 101.845 435.279 103.496 435.279C105.146 435.279 106.22 436.588 106.22 438.863C106.22 441.148 105.156 442.457 103.496 442.457ZM110.974 444.186C111.59 444.186 112.029 443.766 112.029 443.072V438.014C112.029 436.422 112.986 435.367 114.471 435.367C115.935 435.367 116.658 436.217 116.658 437.76V443.072C116.658 443.766 117.098 444.186 117.713 444.186C118.338 444.186 118.777 443.766 118.777 443.072V437.35C118.777 434.996 117.478 433.551 115.213 433.551C113.631 433.551 112.556 434.254 112 435.426H111.951V434.615C111.951 433.961 111.531 433.541 110.926 433.541C110.31 433.541 109.92 433.961 109.92 434.605V443.072C109.92 443.766 110.349 444.186 110.974 444.186ZM124.596 444.176C126.197 444.176 127.281 443.375 127.809 442.174H127.838V443.131C127.838 443.795 128.316 444.186 128.912 444.186C129.527 444.186 129.957 443.795 129.957 443.131V430.836C129.957 430.143 129.518 429.723 128.902 429.723C128.277 429.723 127.838 430.143 127.838 430.836V435.436H127.799C127.223 434.303 126.051 433.561 124.576 433.561C121.998 433.561 120.279 435.621 120.279 438.863C120.279 442.105 121.998 444.176 124.596 444.176ZM125.152 442.389C123.482 442.389 122.437 441.031 122.437 438.863C122.437 436.705 123.482 435.338 125.152 435.338C126.773 435.338 127.857 436.734 127.857 438.863C127.857 441.012 126.773 442.389 125.152 442.389Z" fill="black"/>
<path d="M109 473C109 472.448 108.552 472 108 472C107.448 472 107 472.448 107 473L109 473ZM107.293 492.707C107.683 493.098 108.317 493.098 108.707 492.707L115.071 486.343C115.462 485.953 115.462 485.319 115.071 484.929C114.681 484.538 114.047 484.538 113.657 484.929L108 490.586L102.343 484.929C101.953 484.538 101.319 484.538 100.929 484.929C100.538 485.319 100.538 485.953 100.929 486.343L107.293 492.707ZM107 473L107 492L109 492L109 473L107 473Z" fill="black"/>
<path d="M132 503C132 502.448 131.552 502 131 502C130.448 502 130 502.448 130 503L132 503ZM130.293 523.707C130.683 524.098 131.317 524.098 131.707 523.707L138.071 517.343C138.462 516.953 138.462 516.319 138.071 515.929C137.681 515.538 137.047 515.538 136.657 515.929L131 521.586L125.343 515.929C124.953 515.538 124.319 515.538 123.929 515.929C123.538 516.319 123.538 516.953 123.929 517.343L130.293 523.707ZM130 503L130 523L132 523L132 503L130 503Z" fill="black"/>
<path d="M146 450C146 449.448 145.552 449 145 449C144.448 449 144 449.448 144 450L146 450ZM144.293 470.707C144.683 471.098 145.317 471.098 145.707 470.707L152.071 464.343C152.462 463.953 152.462 463.319 152.071 462.929C151.681 462.538 151.047 462.538 150.657 462.929L145 468.586L139.343 462.929C138.953 462.538 138.319 462.538 137.929 462.929C137.538 463.319 137.538 463.953 137.929 464.343L144.293 470.707ZM144 450L144 470L146 470L146 450L144 450Z" fill="black"/>
<path d="M273.315 428.979C273.732 429.34 274.364 429.295 274.725 428.877C275.087 428.46 275.041 427.828 274.624 427.467L273.315 428.979ZM245.929 403.003C245.378 403.042 244.963 403.521 245.003 404.072L245.647 413.049C245.687 413.599 246.165 414.014 246.716 413.974C247.267 413.935 247.682 413.456 247.642 412.905L247.069 404.926L255.049 404.353C255.6 404.314 256.014 403.835 255.975 403.284C255.935 402.733 255.456 402.319 254.905 402.358L245.929 403.003ZM274.624 427.467L246.655 403.244L245.346 404.756L273.315 428.979L274.624 427.467Z" fill="black"/>
<path d="M295.447 430.195C298.386 430.195 300.32 428.174 300.32 424.863C300.32 421.562 298.376 419.541 295.447 419.541C292.517 419.541 290.574 421.562 290.574 424.863C290.574 428.174 292.507 430.195 295.447 430.195ZM295.447 428.457C293.796 428.457 292.722 427.148 292.722 424.863C292.722 422.588 293.796 421.279 295.447 421.279C297.097 421.279 298.171 422.588 298.171 424.863C298.171 427.148 297.107 428.457 295.447 428.457ZM302.925 430.186C303.55 430.186 303.98 429.756 303.98 429.072V423.828C303.98 422.549 304.566 421.582 306.011 421.572C306.451 421.572 306.763 421.484 306.978 421.299C307.183 421.133 307.291 420.889 307.291 420.557C307.291 420.225 307.203 419.971 307.007 419.814C306.832 419.648 306.548 419.561 306.177 419.561C305.152 419.561 304.205 420.332 303.921 421.484H303.873V420.605C303.873 419.961 303.462 419.541 302.877 419.541C302.281 419.541 301.871 419.961 301.871 420.605V429.072C301.871 429.756 302.291 430.186 302.925 430.186ZM312.951 427.539C312.951 429.238 313.83 430.088 315.558 430.088H315.666C316.701 430.088 317.189 429.766 317.189 429.131C317.189 428.633 316.886 428.389 316.281 428.33L316.115 428.32C315.353 428.262 315.07 427.891 315.07 427.07V421.396H316.271C316.818 421.396 317.15 421.084 317.15 420.566C317.15 420.049 316.818 419.727 316.271 419.727H315.07V418.203C315.07 417.529 314.65 417.08 314.015 417.08C313.371 417.08 312.951 417.529 312.951 418.203V419.727H312.209C311.662 419.727 311.33 420.039 311.33 420.566C311.33 421.084 311.662 421.396 312.209 421.396H312.951V427.539ZM321.533 430.176C322.871 430.176 324.18 429.453 324.775 428.311H324.824V429.18C324.844 429.805 325.244 430.186 325.83 430.186C326.426 430.186 326.846 429.785 326.846 429.121V422.92C326.846 420.859 325.254 419.541 322.764 419.541C320.918 419.541 319.365 420.283 318.828 421.445C318.701 421.68 318.642 421.914 318.642 422.129C318.642 422.656 319.023 423.008 319.551 423.008C319.922 423.008 320.195 422.871 320.41 422.559C320.996 421.621 321.67 421.26 322.685 421.26C323.974 421.26 324.746 421.943 324.746 423.086V423.877L321.924 424.043C319.492 424.18 318.105 425.283 318.105 427.08C318.105 428.926 319.521 430.176 321.533 430.176ZM322.109 428.506C320.986 428.506 320.234 427.92 320.234 427.021C320.234 426.143 320.947 425.586 322.207 425.498L324.746 425.342V426.152C324.746 427.49 323.584 428.506 322.109 428.506ZM329.871 433.643C330.486 433.643 330.926 433.213 330.926 432.52V428.311H330.975C331.56 429.453 332.732 430.176 334.207 430.176C336.785 430.176 338.494 428.115 338.494 424.863C338.494 421.611 336.775 419.561 334.168 419.561C332.684 419.561 331.502 420.312 330.896 421.494H330.857V420.625C330.857 419.951 330.428 419.541 329.832 419.541C329.236 419.541 328.816 419.951 328.816 420.625V432.52C328.816 433.213 329.246 433.643 329.871 433.643ZM333.611 428.389C331.99 428.389 330.916 427.002 330.916 424.863C330.916 422.744 332 421.338 333.611 421.338C335.281 421.338 336.326 422.715 336.326 424.863C336.326 427.021 335.281 428.389 333.611 428.389ZM287.306 454.195C290.245 454.195 292.179 452.174 292.179 448.863C292.179 445.562 290.236 443.541 287.306 443.541C284.376 443.541 282.433 445.562 282.433 448.863C282.433 452.174 284.367 454.195 287.306 454.195ZM287.306 452.457C285.656 452.457 284.581 451.148 284.581 448.863C284.581 446.588 285.656 445.279 287.306 445.279C288.956 445.279 290.031 446.588 290.031 448.863C290.031 451.148 288.966 452.457 287.306 452.457ZM294.785 454.186C295.4 454.186 295.839 453.766 295.839 453.072V448.014C295.839 446.422 296.796 445.367 298.281 445.367C299.746 445.367 300.468 446.217 300.468 447.76V453.072C300.468 453.766 300.908 454.186 301.523 454.186C302.148 454.186 302.587 453.766 302.587 453.072V447.35C302.587 444.996 301.289 443.551 299.023 443.551C297.441 443.551 296.367 444.254 295.81 445.426H295.761V444.615C295.761 443.961 295.341 443.541 294.736 443.541C294.121 443.541 293.73 443.961 293.73 444.605V453.072C293.73 453.766 294.16 454.186 294.785 454.186ZM309.654 442.174C310.337 442.174 310.884 441.627 310.884 440.963C310.884 440.289 310.337 439.762 309.654 439.762C308.98 439.762 308.433 440.289 308.433 440.963C308.433 441.627 308.98 442.174 309.654 442.174ZM309.654 454.186C310.289 454.186 310.709 453.746 310.709 453.072V444.664C310.709 443.98 310.289 443.541 309.654 443.541C309.019 443.541 308.599 443.98 308.599 444.664V453.072C308.599 453.746 309.019 454.186 309.654 454.186ZM313.402 451.539C313.402 453.238 314.281 454.088 316.009 454.088H316.117C317.152 454.088 317.64 453.766 317.64 453.131C317.64 452.633 317.338 452.389 316.732 452.33L316.566 452.32C315.804 452.262 315.521 451.891 315.521 451.07V445.396H316.722C317.269 445.396 317.601 445.084 317.601 444.566C317.601 444.049 317.269 443.727 316.722 443.727H315.521V442.203C315.521 441.529 315.101 441.08 314.466 441.08C313.822 441.08 313.402 441.529 313.402 442.203V443.727H312.66C312.113 443.727 311.781 444.039 311.781 444.566C311.781 445.084 312.113 445.396 312.66 445.396H313.402V451.539ZM323.73 451.539C323.73 453.238 324.609 454.088 326.338 454.088H326.445C327.48 454.088 327.969 453.766 327.969 453.131C327.969 452.633 327.666 452.389 327.06 452.33L326.894 452.32C326.133 452.262 325.849 451.891 325.849 451.07V445.396H327.051C327.597 445.396 327.93 445.084 327.93 444.566C327.93 444.049 327.597 443.727 327.051 443.727H325.849V442.203C325.849 441.529 325.43 441.08 324.795 441.08C324.15 441.08 323.73 441.529 323.73 442.203V443.727H322.988C322.441 443.727 322.109 444.039 322.109 444.566C322.109 445.084 322.441 445.396 322.988 445.396H323.73V451.539ZM333.621 454.195C336.56 454.195 338.494 452.174 338.494 448.863C338.494 445.562 336.551 443.541 333.621 443.541C330.691 443.541 328.748 445.562 328.748 448.863C328.748 452.174 330.682 454.195 333.621 454.195ZM333.621 452.457C331.971 452.457 330.896 451.148 330.896 448.863C330.896 446.588 331.971 445.279 333.621 445.279C335.271 445.279 336.346 446.588 336.346 448.863C336.346 451.148 335.281 452.457 333.621 452.457ZM304.445 478.176C305.783 478.176 307.092 477.453 307.687 476.311H307.736V477.18C307.756 477.805 308.156 478.186 308.742 478.186C309.338 478.186 309.758 477.785 309.758 477.121V470.92C309.758 468.859 308.166 467.541 305.676 467.541C303.83 467.541 302.277 468.283 301.74 469.445C301.613 469.68 301.554 469.914 301.554 470.129C301.554 470.656 301.935 471.008 302.463 471.008C302.834 471.008 303.107 470.871 303.322 470.559C303.908 469.621 304.582 469.26 305.597 469.26C306.886 469.26 307.658 469.943 307.658 471.086V471.877L304.836 472.043C302.404 472.18 301.017 473.283 301.017 475.08C301.017 476.926 302.433 478.176 304.445 478.176ZM305.021 476.506C303.898 476.506 303.146 475.92 303.146 475.021C303.146 474.143 303.859 473.586 305.119 473.498L307.658 473.342V474.152C307.658 475.49 306.496 476.506 305.021 476.506ZM315.586 478.176C317.187 478.176 318.271 477.375 318.799 476.174H318.828V477.131C318.828 477.795 319.306 478.186 319.902 478.186C320.517 478.186 320.947 477.795 320.947 477.131V464.836C320.947 464.143 320.508 463.723 319.892 463.723C319.267 463.723 318.828 464.143 318.828 464.836V469.436H318.789C318.213 468.303 317.041 467.561 315.566 467.561C312.988 467.561 311.269 469.621 311.269 472.863C311.269 476.105 312.988 478.176 315.586 478.176ZM316.142 476.389C314.473 476.389 313.428 475.031 313.428 472.863C313.428 470.705 314.473 469.338 316.142 469.338C317.764 469.338 318.848 470.734 318.848 472.863C318.848 475.012 317.764 476.389 316.142 476.389ZM326.893 478.176C328.494 478.176 329.578 477.375 330.105 476.174H330.135V477.131C330.135 477.795 330.613 478.186 331.209 478.186C331.824 478.186 332.254 477.795 332.254 477.131V464.836C332.254 464.143 331.814 463.723 331.199 463.723C330.574 463.723 330.135 464.143 330.135 464.836V469.436H330.096C329.519 468.303 328.348 467.561 326.873 467.561C324.295 467.561 322.576 469.621 322.576 472.863C322.576 476.105 324.295 478.176 326.893 478.176ZM327.449 476.389C325.779 476.389 324.734 475.031 324.734 472.863C324.734 470.705 325.779 469.338 327.449 469.338C329.07 469.338 330.154 470.734 330.154 472.863C330.154 475.012 329.07 476.389 327.449 476.389ZM336.139 473.479C336.744 473.479 337.076 473.098 337.096 472.482L337.213 464.904C337.213 464.865 337.213 464.826 337.213 464.797C337.213 464.143 336.773 463.723 336.148 463.723C335.514 463.723 335.074 464.143 335.074 464.797C335.074 464.826 335.074 464.865 335.074 464.904L335.191 472.482C335.211 473.098 335.543 473.479 336.139 473.479ZM336.139 478.146C336.871 478.146 337.428 477.6 337.428 476.887C337.428 476.174 336.871 475.627 336.139 475.627C335.426 475.627 334.859 476.174 334.859 476.887C334.859 477.6 335.426 478.146 336.139 478.146Z" fill="black"/>
<path d="M45.6602 103.539C45.6602 105.238 46.5391 106.088 48.2676 106.088H48.375C49.4102 106.088 49.8984 105.766 49.8984 105.131C49.8984 104.633 49.5957 104.389 48.9902 104.33L48.8242 104.32C48.0625 104.262 47.7793 103.891 47.7793 103.07V97.3965H48.9805C49.5273 97.3965 49.8594 97.084 49.8594 96.5664C49.8594 96.0488 49.5273 95.7266 48.9805 95.7266H47.7793V94.2031C47.7793 93.5293 47.3594 93.0801 46.7246 93.0801C46.0801 93.0801 45.6602 93.5293 45.6602 94.2031V95.7266H44.918C44.3711 95.7266 44.0391 96.0391 44.0391 96.5664C44.0391 97.084 44.3711 97.3965 44.918 97.3965H45.6602V103.539ZM54.2423 106.176C55.5802 106.176 56.8888 105.453 57.4845 104.311H57.5333V105.18C57.5528 105.805 57.9532 106.186 58.5391 106.186C59.1348 106.186 59.5548 105.785 59.5548 105.121V98.9199C59.5548 96.8594 57.963 95.541 55.4727 95.541C53.627 95.541 52.0743 96.2832 51.5372 97.4453C51.4102 97.6797 51.3516 97.9141 51.3516 98.1289C51.3516 98.6562 51.7325 99.0078 52.2598 99.0078C52.6309 99.0078 52.9044 98.8711 53.1192 98.5586C53.7052 97.6211 54.379 97.2598 55.3946 97.2598C56.6837 97.2598 57.4552 97.9434 57.4552 99.0859V99.877L54.6329 100.043C52.2013 100.18 50.8145 101.283 50.8145 103.08C50.8145 104.926 52.2305 106.176 54.2423 106.176ZM54.8184 104.506C53.6954 104.506 52.9434 103.92 52.9434 103.021C52.9434 102.143 53.6563 101.586 54.9161 101.498L57.4552 101.342V102.152C57.4552 103.49 56.293 104.506 54.8184 104.506ZM62.5802 109.643C63.1955 109.643 63.6349 109.213 63.6349 108.52V104.311H63.6838C64.2697 105.453 65.4416 106.176 66.9162 106.176C69.4943 106.176 71.2033 104.115 71.2033 100.863C71.2033 97.6113 69.4845 95.5605 66.8771 95.5605C65.3927 95.5605 64.2111 96.3125 63.6056 97.4941H63.5666V96.625C63.5666 95.9512 63.1369 95.541 62.5412 95.541C61.9455 95.541 61.5255 95.9512 61.5255 96.625V108.52C61.5255 109.213 61.9552 109.643 62.5802 109.643ZM66.3205 104.389C64.6994 104.389 63.6252 103.002 63.6252 100.863C63.6252 98.7441 64.7091 97.3379 66.3205 97.3379C67.9904 97.3379 69.0353 98.7148 69.0353 100.863C69.0353 103.021 67.9904 104.389 66.3205 104.389ZM77.3519 103.539C77.3519 105.238 78.2308 106.088 79.9593 106.088H80.0667C81.1019 106.088 81.5902 105.766 81.5902 105.131C81.5902 104.633 81.2874 104.389 80.682 104.33L80.5159 104.32C79.7542 104.262 79.471 103.891 79.471 103.07V97.3965H80.6722C81.2191 97.3965 81.5511 97.084 81.5511 96.5664C81.5511 96.0488 81.2191 95.7266 80.6722 95.7266H79.471V94.2031C79.471 93.5293 79.0511 93.0801 78.4163 93.0801C77.7718 93.0801 77.3519 93.5293 77.3519 94.2031V95.7266H76.6097C76.0628 95.7266 75.7308 96.0391 75.7308 96.5664C75.7308 97.084 76.0628 97.3965 76.6097 97.3965H77.3519V103.539ZM87.2426 106.195C90.182 106.195 92.1156 104.174 92.1156 100.863C92.1156 97.5625 90.1723 95.541 87.2426 95.541C84.3129 95.541 82.3695 97.5625 82.3695 100.863C82.3695 104.174 84.3031 106.195 87.2426 106.195ZM87.2426 104.457C85.5922 104.457 84.518 103.148 84.518 100.863C84.518 98.5879 85.5922 97.2793 87.2426 97.2793C88.893 97.2793 89.9672 98.5879 89.9672 100.863C89.9672 103.148 88.9027 104.457 87.2426 104.457ZM102.102 106.195C104.016 106.195 105.51 105.424 106.184 104.076C106.272 103.871 106.331 103.676 106.331 103.51C106.331 102.982 105.96 102.65 105.452 102.65C105.149 102.65 104.934 102.758 104.71 103.021C103.928 104.086 103.206 104.486 102.053 104.486C100.374 104.486 99.3189 103.314 99.3189 101.439V101.391H105.53C106.184 101.391 106.575 101 106.575 100.316C106.575 97.5137 104.69 95.541 101.956 95.541C99.0455 95.541 97.19 97.6504 97.19 100.912C97.19 104.232 99.0064 106.195 102.102 106.195ZM99.3287 99.916C99.4361 98.3145 100.491 97.2402 101.946 97.2402C103.411 97.2402 104.417 98.3047 104.465 99.916H99.3287ZM111.993 106.176C113.594 106.176 114.678 105.375 115.206 104.174H115.235V105.131C115.235 105.795 115.714 106.186 116.309 106.186C116.924 106.186 117.354 105.795 117.354 105.131V92.8359C117.354 92.1426 116.915 91.7227 116.299 91.7227C115.674 91.7227 115.235 92.1426 115.235 92.8359V97.4355H115.196C114.62 96.3027 113.448 95.5605 111.973 95.5605C109.395 95.5605 107.676 97.6211 107.676 100.863C107.676 104.105 109.395 106.176 111.993 106.176ZM112.549 104.389C110.88 104.389 109.835 103.031 109.835 100.863C109.835 98.7051 110.88 97.3379 112.549 97.3379C114.171 97.3379 115.255 98.7344 115.255 100.863C115.255 103.012 114.171 104.389 112.549 104.389ZM120.565 94.1738C121.249 94.1738 121.796 93.627 121.796 92.9629C121.796 92.2891 121.249 91.7617 120.565 91.7617C119.891 91.7617 119.344 92.2891 119.344 92.9629C119.344 93.627 119.891 94.1738 120.565 94.1738ZM120.565 106.186C121.2 106.186 121.62 105.746 121.62 105.072V96.6641C121.62 95.9805 121.2 95.541 120.565 95.541C119.93 95.541 119.51 95.9805 119.51 96.6641V105.072C119.51 105.746 119.93 106.186 120.565 106.186ZM124.313 103.539C124.313 105.238 125.192 106.088 126.921 106.088H127.028C128.063 106.088 128.552 105.766 128.552 105.131C128.552 104.633 128.249 104.389 127.643 104.33L127.477 104.32C126.716 104.262 126.432 103.891 126.432 103.07V97.3965H127.634C128.18 97.3965 128.512 97.084 128.512 96.5664C128.512 96.0488 128.18 95.7266 127.634 95.7266H126.432V94.2031C126.432 93.5293 126.012 93.0801 125.378 93.0801C124.733 93.0801 124.313 93.5293 124.313 94.2031V95.7266H123.571C123.024 95.7266 122.692 96.0391 122.692 96.5664C122.692 97.084 123.024 97.3965 123.571 97.3965H124.313V103.539ZM46.0996 130.186C46.7148 130.186 47.1543 129.766 47.1543 129.072V124.014C47.1543 122.422 48.1113 121.367 49.5957 121.367C51.0605 121.367 51.7832 122.217 51.7832 123.76V129.072C51.7832 129.766 52.2227 130.186 52.8379 130.186C53.4629 130.186 53.9023 129.766 53.9023 129.072V123.35C53.9023 120.996 52.6035 119.551 50.3379 119.551C48.7559 119.551 47.6816 120.254 47.125 121.426H47.0762V120.615C47.0762 119.961 46.6562 119.541 46.0508 119.541C45.4355 119.541 45.0449 119.961 45.0449 120.605V129.072C45.0449 129.766 45.4746 130.186 46.0996 130.186ZM58.8712 130.176C60.2091 130.176 61.5177 129.453 62.1134 128.311H62.1622V129.18C62.1817 129.805 62.5821 130.186 63.168 130.186C63.7638 130.186 64.1837 129.785 64.1837 129.121V122.92C64.1837 120.859 62.5919 119.541 60.1016 119.541C58.2559 119.541 56.7032 120.283 56.1661 121.445C56.0391 121.68 55.9805 121.914 55.9805 122.129C55.9805 122.656 56.3614 123.008 56.8888 123.008C57.2598 123.008 57.5333 122.871 57.7481 122.559C58.3341 121.621 59.0079 121.26 60.0235 121.26C61.3126 121.26 62.0841 121.943 62.0841 123.086V123.877L59.2618 124.043C56.8302 124.18 55.4434 125.283 55.4434 127.08C55.4434 128.926 56.8595 130.176 58.8712 130.176ZM59.4473 128.506C58.3243 128.506 57.5723 127.92 57.5723 127.021C57.5723 126.143 58.2852 125.586 59.545 125.498L62.0841 125.342V126.152C62.0841 127.49 60.922 128.506 59.4473 128.506ZM67.2091 130.186C67.8439 130.186 68.2638 129.746 68.2638 129.072V123.652C68.2638 122.334 69.1525 121.357 70.4025 121.357C71.5939 121.357 72.3459 122.109 72.3459 123.291V129.072C72.3459 129.746 72.7463 130.186 73.381 130.186C74.0158 130.186 74.4162 129.746 74.4162 129.072V123.584C74.4162 122.285 75.2853 121.357 76.5353 121.357C77.7853 121.357 78.4982 122.119 78.4982 123.447V129.072C78.4982 129.746 78.9181 130.186 79.5529 130.186C80.1877 130.186 80.6173 129.746 80.6173 129.072V122.939C80.6173 120.898 79.2892 119.551 77.258 119.551C75.7931 119.551 74.5822 120.312 74.0548 121.562H74.006C73.5959 120.283 72.5607 119.551 71.1349 119.551C69.7482 119.551 68.674 120.312 68.215 121.455H68.1662V120.615C68.1662 119.941 67.7463 119.541 67.1603 119.541C66.5646 119.541 66.1545 119.951 66.1545 120.615V129.072C66.1545 129.746 66.5744 130.186 67.2091 130.186ZM87.0315 130.195C88.9455 130.195 90.4397 129.424 91.1135 128.076C91.2014 127.871 91.26 127.676 91.26 127.51C91.26 126.982 90.8889 126.65 90.3811 126.65C90.0784 126.65 89.8635 126.758 89.6389 127.021C88.8577 128.086 88.135 128.486 86.9827 128.486C85.303 128.486 84.2483 127.314 84.2483 125.439V125.391H90.4592C91.1135 125.391 91.5041 125 91.5041 124.316C91.5041 121.514 89.6194 119.541 86.885 119.541C83.9748 119.541 82.1194 121.65 82.1194 124.912C82.1194 128.232 83.9358 130.195 87.0315 130.195ZM84.258 123.916C84.3655 122.314 85.4202 121.24 86.8752 121.24C88.3401 121.24 89.3459 122.305 89.3948 123.916H84.258Z" fill="black"/>
<path d="M105.572 122.617C105.361 122.107 104.776 121.865 104.265 122.076C103.755 122.288 103.513 122.873 103.725 123.383L105.572 122.617ZM118.602 158.5C119.113 158.711 119.698 158.469 119.909 157.958L123.35 149.642C123.561 149.132 123.319 148.547 122.808 148.336C122.298 148.125 121.713 148.367 121.502 148.877L118.443 156.27L111.051 153.211C110.541 153 109.956 153.242 109.745 153.752C109.533 154.263 109.776 154.848 110.286 155.059L118.602 158.5ZM103.725 123.383L118.061 157.959L119.909 157.193L105.572 122.617L103.725 123.383Z" fill="black"/>
</g>
<defs>
<clipPath id="clip0_366_19494">
<rect width="390" height="844" fill="white"/>
</clipPath>
</defs>
</svg>
