<svg width="390" height="844" viewBox="0 0 390 844" fill="none" xmlns="http://www.w3.org/2000/svg">
<g clip-path="url(#clip0_367_19542)">
<rect width="390" height="844" fill="white"/>
<path d="M96.5 -5L9.43269e-05 -5L4.06441e-06 450C77.5 499.206 97.1067 427.293 131 417C178.607 402.542 210.164 492 241 492C285.5 492 304.5 394 346.5 417C388.5 440 390 411.5 390 411.5L390 -5L231 -5L96.5 -5Z" fill="#E4E4E4"/>
<path d="M261.087 350.234C263.541 350.234 265.204 348.96 265.204 347.041C265.204 345.583 264.186 344.661 262.611 344.514V344.47C263.856 344.214 264.815 343.335 264.815 341.995C264.815 340.303 263.307 339.197 261.073 339.197C259.205 339.197 258.004 340.061 257.535 341.094C257.425 341.343 257.374 341.555 257.374 341.804C257.374 342.339 257.689 342.698 258.304 342.698C258.802 342.698 259.059 342.515 259.3 342.017C259.645 341.27 260.187 340.896 261.08 340.896C262.149 340.896 262.721 341.46 262.721 342.31C262.721 343.174 262.003 343.774 260.897 343.774H260.465C259.93 343.774 259.623 344.097 259.623 344.558C259.623 345.034 259.93 345.349 260.465 345.349H260.926C262.208 345.349 262.962 345.92 262.955 346.946C262.955 347.825 262.208 348.455 261.124 348.455C260.025 348.455 259.454 348.015 259.081 347.275C258.861 346.873 258.583 346.697 258.143 346.697C257.535 346.697 257.169 347.056 257.169 347.627C257.169 347.847 257.22 348.081 257.337 348.323C257.835 349.363 259.073 350.234 261.087 350.234ZM270.741 350.234C273.421 350.234 275.047 348.103 275.047 344.69C275.047 341.277 273.407 339.189 270.741 339.189C268.075 339.189 266.427 341.284 266.427 344.697C266.427 348.118 268.06 350.234 270.741 350.234ZM270.741 348.462C269.437 348.462 268.675 347.122 268.675 344.697C268.675 342.295 269.452 340.962 270.741 340.962C272.037 340.962 272.799 342.288 272.799 344.697C272.799 347.122 272.044 348.462 270.741 348.462ZM280.401 350.154C281.031 350.154 281.471 349.766 281.471 349.041V345.261C281.471 344.382 282.02 343.767 282.833 343.767C283.624 343.767 284.1 344.265 284.1 345.107V349.041C284.1 349.766 284.496 350.154 285.125 350.154C285.763 350.154 286.158 349.766 286.158 349.041V345.232C286.158 344.36 286.693 343.767 287.506 343.767C288.333 343.767 288.788 344.265 288.788 345.173V349.041C288.788 349.766 289.22 350.154 289.85 350.154C290.487 350.154 290.926 349.766 290.926 349.041V344.639C290.926 343.057 289.894 342.002 288.355 342.002C287.206 342.002 286.268 342.625 285.917 343.613H285.873C285.609 342.588 284.818 342.002 283.683 342.002C282.613 342.002 281.771 342.625 281.441 343.569H281.397V343.079C281.397 342.361 280.973 341.987 280.365 341.987C279.757 341.987 279.332 342.361 279.332 343.079V349.041C279.332 349.766 279.764 350.154 280.401 350.154Z" fill="black"/>
<path d="M195.505 418.154C196.157 418.154 196.596 417.714 196.596 417.048V408.508C196.596 407.746 196.127 407.27 195.344 407.27C194.89 407.27 194.538 407.336 194.025 407.688L191.931 409.138C191.586 409.379 191.455 409.628 191.455 409.965C191.455 410.434 191.784 410.756 192.231 410.756C192.458 410.756 192.612 410.705 192.817 410.559L194.362 409.482H194.406V417.048C194.406 417.714 194.853 418.154 195.505 418.154ZM203.02 418.154C203.649 418.154 204.089 417.773 204.089 417.041V413.518C204.089 412.485 204.682 411.774 205.693 411.774C206.667 411.774 207.165 412.39 207.165 413.4V417.041C207.165 417.773 207.612 418.154 208.234 418.154C208.864 418.154 209.304 417.773 209.304 417.041V412.946C209.304 411.13 208.308 410.002 206.564 410.002C205.371 410.002 204.514 410.559 204.096 411.547H204.052V408.369C204.052 407.68 203.664 407.27 203.005 407.27C202.346 407.27 201.95 407.68 201.95 408.369V417.041C201.95 417.773 202.397 418.154 203.02 418.154Z" fill="black"/>
<path d="M105.73 355.154C106.382 355.154 106.821 354.714 106.821 354.048V345.508C106.821 344.746 106.353 344.27 105.569 344.27C105.115 344.27 104.763 344.336 104.25 344.688L102.156 346.138C101.812 346.379 101.68 346.628 101.68 346.965C101.68 347.434 102.009 347.756 102.456 347.756C102.683 347.756 102.837 347.705 103.042 347.559L104.587 346.482H104.631V354.048C104.631 354.714 105.078 355.154 105.73 355.154ZM113.259 355.234C115.669 355.234 117.346 353.711 117.346 351.455C117.346 349.441 115.911 348.02 113.889 348.02C112.812 348.02 111.948 348.445 111.516 349.126H111.472L111.721 346.189H115.896C116.453 346.189 116.804 345.845 116.804 345.31C116.804 344.775 116.445 344.431 115.896 344.431H111.26C110.403 344.431 109.941 344.79 109.868 345.684L109.561 349.558C109.553 349.595 109.553 349.617 109.553 349.646C109.524 350.239 109.868 350.745 110.593 350.745C111.084 350.745 111.304 350.635 111.736 350.232C112.109 349.873 112.637 349.602 113.267 349.602C114.417 349.602 115.237 350.393 115.237 351.506C115.237 352.649 114.409 353.477 113.259 353.477C112.307 353.477 111.685 353.015 111.304 352.253C111.055 351.858 110.776 351.704 110.337 351.704C109.766 351.704 109.414 352.041 109.414 352.605C109.414 352.869 109.48 353.096 109.59 353.33C110.117 354.451 111.582 355.234 113.259 355.234ZM122.568 355.154C123.198 355.154 123.638 354.766 123.638 354.041V350.261C123.638 349.382 124.187 348.767 125 348.767C125.791 348.767 126.267 349.265 126.267 350.107V354.041C126.267 354.766 126.663 355.154 127.292 355.154C127.93 355.154 128.325 354.766 128.325 354.041V350.232C128.325 349.36 128.86 348.767 129.673 348.767C130.5 348.767 130.955 349.265 130.955 350.173V354.041C130.955 354.766 131.387 355.154 132.017 355.154C132.654 355.154 133.093 354.766 133.093 354.041V349.639C133.093 348.057 132.061 347.002 130.522 347.002C129.373 347.002 128.435 347.625 128.083 348.613H128.04C127.776 347.588 126.985 347.002 125.85 347.002C124.78 347.002 123.938 347.625 123.608 348.569H123.564V348.079C123.564 347.361 123.14 346.987 122.532 346.987C121.924 346.987 121.499 347.361 121.499 348.079V354.041C121.499 354.766 121.931 355.154 122.568 355.154Z" fill="black"/>
<circle cx="270.5" cy="303.5" r="27.5" fill="black"/>
<circle cx="200" cy="366" r="35" fill="black"/>
<path d="M210.827 485C210.827 504.33 210.827 539.5 185.327 539.5C147.827 539.5 159.827 504.33 159.827 485C159.827 465.67 171.244 450 185.327 450C199.411 450 210.827 465.67 210.827 485Z" fill="black"/>
<circle cx="117.5" cy="317.5" r="17.5" fill="black"/>
<circle cx="188.833" cy="278.833" r="45.8333" fill="black"/>
<path d="M181.209 287.338C182.021 288.15 183.165 288.067 183.977 287.255L189.794 281.438L195.279 286.924C196.091 287.736 197.235 287.819 198.047 287.007C198.859 286.195 198.776 285.051 197.964 284.239L192.479 278.753L198.312 272.92C199.124 272.108 199.207 270.964 198.395 270.152C197.583 269.34 196.44 269.423 195.627 270.235L189.794 276.069L184.292 270.567C183.48 269.754 182.336 269.672 181.524 270.484C180.712 271.296 180.795 272.439 181.607 273.251L187.109 278.753L181.292 284.571C180.48 285.383 180.397 286.526 181.209 287.338Z" fill="white"/>
<path d="M91.5 207.297C92.9844 207.297 93.8594 206.391 93.8594 204.844V199.891H98.0781C102.828 199.891 106.125 196.797 106.125 192.172C106.125 187.531 102.938 184.453 98.3125 184.453H91.5C90.0156 184.453 89.1406 185.359 89.1406 186.906V204.844C89.1406 206.391 90.0156 207.297 91.5 207.297ZM93.8594 196.203V188.188H97.0625C99.7656 188.188 101.328 189.625 101.328 192.188C101.328 194.766 99.75 196.203 97.0469 196.203H93.8594ZM110.812 207.328C112.203 207.328 113.094 206.469 113.094 204.953V197.516C113.094 195.531 113.828 194.359 115.906 194.328C116.797 194.312 117.453 194.109 117.891 193.734C118.328 193.359 118.547 192.812 118.547 192.094C118.547 191.312 118.328 190.75 117.891 190.406C117.562 190.125 117.078 189.984 116.469 189.984C114.797 189.984 113.422 191.219 112.984 193.297H112.891V192.203C112.891 190.75 112.016 189.906 110.734 189.906C109.422 189.906 108.531 190.75 108.531 192.203V204.953C108.531 206.469 109.438 207.328 110.812 207.328ZM127.328 207.359C130.562 207.359 133.156 206.141 134.266 204.078C134.469 203.703 134.578 203.328 134.578 202.969C134.578 201.922 133.781 201.297 132.797 201.297C132.203 201.297 131.797 201.469 131.312 201.969C130.078 203.422 128.984 203.984 127.312 203.984C125 203.984 123.5 202.359 123.5 199.875V199.672H133.062C134.328 199.672 135.047 198.953 135.047 197.688C135.047 193.141 131.859 189.891 127.109 189.891C122.156 189.891 119.016 193.312 119.016 198.703C119.016 204.125 122.094 207.359 127.328 207.359ZM123.547 196.875C123.703 194.734 125.156 193.266 127.156 193.266C129.156 193.266 130.562 194.688 130.656 196.875H123.547ZM144.234 207.359C148.656 207.359 151.641 205.203 151.641 201.875C151.641 199.375 150.172 198.062 146.609 197.312L143.844 196.719C142.172 196.359 141.516 195.781 141.516 194.906C141.516 193.828 142.594 193.094 144.141 193.094C145.781 193.094 146.688 193.875 147.484 194.891C147.891 195.375 148.547 195.594 149.141 195.594C150.312 195.594 150.891 194.953 150.891 194.031C150.891 193.812 150.844 193.594 150.781 193.359C150.234 191.469 147.688 189.891 144.219 189.891C139.875 189.891 137.109 191.953 137.109 195.156C137.109 197.641 138.766 199.312 142.047 200.016L144.859 200.609C146.5 200.969 147.078 201.453 147.078 202.359C147.078 203.469 146 204.156 144.344 204.156C142.609 204.156 141.578 203.625 140.688 202.453C140.062 201.75 139.438 201.422 138.703 201.422C137.641 201.422 136.859 202.125 136.859 203.172C136.859 203.422 136.922 203.719 137.031 204.016C137.828 205.984 140.391 207.359 144.234 207.359ZM161.609 207.359C164.844 207.359 167.438 206.141 168.547 204.078C168.75 203.703 168.859 203.328 168.859 202.969C168.859 201.922 168.062 201.297 167.078 201.297C166.484 201.297 166.078 201.469 165.594 201.969C164.359 203.422 163.266 203.984 161.594 203.984C159.281 203.984 157.781 202.359 157.781 199.875V199.672H167.344C168.609 199.672 169.328 198.953 169.328 197.688C169.328 193.141 166.141 189.891 161.391 189.891C156.438 189.891 153.297 193.312 153.297 198.703C153.297 204.125 156.375 207.359 161.609 207.359ZM157.828 196.875C157.984 194.734 159.438 193.266 161.438 193.266C163.438 193.266 164.844 194.688 164.938 196.875H157.828ZM173.969 207.328C175.312 207.328 176.25 206.516 176.25 204.953V197.391C176.25 195.219 177.547 193.719 179.594 193.719C181.641 193.719 182.672 194.969 182.672 197.156V204.953C182.672 206.516 183.609 207.328 184.953 207.328C186.281 207.328 187.234 206.516 187.234 204.953V196.203C187.234 192.281 185.141 189.938 181.422 189.938C178.844 189.938 177.156 191.078 176.266 193.156H176.172V192.219C176.172 190.781 175.266 189.906 173.891 189.906C172.516 189.906 171.688 190.781 171.688 192.203V204.953C171.688 206.516 172.641 207.328 173.969 207.328ZM191.344 202.719C191.344 205.672 192.891 207.188 195.938 207.188H196.094C198.016 207.188 199.328 206.5 199.328 205.156C199.328 204.094 198.719 203.625 197.594 203.5L197.297 203.469C196.312 203.391 195.906 202.891 195.906 201.703V193.688H197.516C198.594 193.688 199.266 193.016 199.266 191.969C199.266 190.922 198.594 190.25 197.516 190.25H195.906V188.391C195.906 186.922 195.047 186.016 193.625 186.016C192.203 186.016 191.344 186.922 191.344 188.391V190.25H190.469C189.391 190.25 188.703 190.906 188.703 191.969C188.703 193.031 189.391 193.688 190.469 193.688H191.344V202.719ZM206.297 207.266C208.391 207.266 210.484 206.219 211.422 204.438H211.516V205.297C211.609 206.641 212.469 207.328 213.703 207.328C215 207.328 215.922 206.547 215.922 205.031V195.484C215.922 192.109 213.125 189.891 208.828 189.891C205.359 189.891 202.672 191.125 201.891 193.125C201.734 193.469 201.656 193.797 201.656 194.156C201.656 195.188 202.453 195.906 203.562 195.906C204.297 195.906 204.875 195.625 205.375 195.062C206.391 193.75 207.234 193.297 208.625 193.297C210.344 193.297 211.438 194.203 211.438 195.766V196.875L207.219 197.125C203.031 197.375 200.688 199.141 200.688 202.188C200.688 205.203 203.109 207.266 206.297 207.266ZM207.797 203.969C206.266 203.969 205.234 203.188 205.234 201.938C205.234 200.75 206.203 199.984 207.906 199.859L211.438 199.641V200.859C211.438 202.672 209.797 203.969 207.797 203.969ZM220.422 207H230.703C231.859 207 232.547 206.359 232.547 205.25C232.547 204.141 231.859 203.5 230.703 203.5H224.266V203.422L231.391 194.094C231.922 193.422 232.125 192.906 232.125 192.25C232.125 191.016 231.297 190.25 229.953 190.25H220.203C219.031 190.25 218.359 190.891 218.359 191.984C218.359 193.094 219.047 193.734 220.203 193.734H226.812V193.828L219.094 203.609C218.625 204.172 218.453 204.594 218.453 205.188C218.453 206.281 219.219 207 220.422 207ZM237.328 188.172C238.703 188.172 239.766 187.125 239.766 185.812C239.766 184.484 238.703 183.453 237.328 183.453C235.953 183.453 234.891 184.484 234.891 185.812C234.891 187.125 235.953 188.172 237.328 188.172ZM237.328 207.328C238.734 207.328 239.609 206.438 239.609 204.953V192.297C239.609 190.812 238.734 189.906 237.328 189.906C235.906 189.906 235.047 190.812 235.047 192.297V204.953C235.047 206.438 235.906 207.328 237.328 207.328ZM250.344 207.359C255.406 207.359 258.641 204.125 258.641 198.609C258.641 193.172 255.359 189.891 250.344 189.891C245.328 189.891 242.047 193.188 242.047 198.609C242.047 204.109 245.281 207.359 250.344 207.359ZM250.344 203.875C248.094 203.875 246.672 201.984 246.672 198.625C246.672 195.297 248.125 193.375 250.344 193.375C252.562 193.375 254 195.297 254 198.625C254 201.984 252.578 203.875 250.344 203.875ZM263.281 207.328C264.625 207.328 265.562 206.516 265.562 204.953V197.391C265.562 195.219 266.859 193.719 268.906 193.719C270.953 193.719 271.984 194.969 271.984 197.156V204.953C271.984 206.516 272.922 207.328 274.266 207.328C275.594 207.328 276.547 206.516 276.547 204.953V196.203C276.547 192.281 274.453 189.938 270.734 189.938C268.156 189.938 266.469 191.078 265.578 193.156H265.484V192.219C265.484 190.781 264.578 189.906 263.203 189.906C261.828 189.906 261 190.781 261 192.203V204.953C261 206.516 261.953 207.328 263.281 207.328ZM287.141 207.359C290.375 207.359 292.969 206.141 294.078 204.078C294.281 203.703 294.391 203.328 294.391 202.969C294.391 201.922 293.594 201.297 292.609 201.297C292.016 201.297 291.609 201.469 291.125 201.969C289.891 203.422 288.797 203.984 287.125 203.984C284.812 203.984 283.312 202.359 283.312 199.875V199.672H292.875C294.141 199.672 294.859 198.953 294.859 197.688C294.859 193.141 291.672 189.891 286.922 189.891C281.969 189.891 278.828 193.312 278.828 198.703C278.828 204.125 281.906 207.359 287.141 207.359ZM283.359 196.875C283.516 194.734 284.969 193.266 286.969 193.266C288.969 193.266 290.375 194.688 290.469 196.875H283.359Z" fill="black"/>
<g opacity="0.5">
<path d="M241.722 116.384H257.038C258.533 116.384 259.434 115.441 259.434 114.075C259.434 112.67 258.533 111.766 257.038 111.766H246.61V111.65L252.59 105.877C257.114 101.586 258.763 99.4691 258.763 96.0823C258.763 91.3099 254.814 88 248.948 88C243.715 88 240.246 90.8673 239.307 93.9463C239.173 94.3504 239.096 94.7545 239.096 95.1971C239.096 96.6403 240.016 97.564 241.569 97.564C242.815 97.564 243.485 97.0252 244.137 95.8706C245.134 93.6384 246.667 92.5222 248.891 92.5222C251.364 92.5222 253.127 94.1579 253.127 96.4479C253.127 98.4492 252.245 99.7963 248.833 103.087L240.591 110.996C239.422 112.074 239 112.805 239 113.902C239 115.364 239.901 116.384 241.722 116.384Z" fill="black"/>
<path d="M273.516 117C280.11 117 284.729 113.69 284.729 108.879C284.729 105.223 282.065 102.529 278.289 101.778V101.663C281.528 100.835 283.713 98.4685 283.713 95.4857C283.713 91.1367 279.516 88 273.516 88C267.516 88 263.299 91.1559 263.299 95.4665C263.299 98.4877 265.503 100.855 268.762 101.663V101.778C264.986 102.51 262.302 105.204 262.302 108.86C262.302 113.671 266.903 117 273.516 117ZM273.516 99.9117C270.89 99.9117 269.03 98.3338 269.03 96.063C269.03 93.7731 270.89 92.1951 273.516 92.1951C276.123 92.1951 278.001 93.7731 278.001 96.063C278.001 98.3338 276.123 99.9117 273.516 99.9117ZM273.516 112.766C270.468 112.766 268.34 110.958 268.34 108.437C268.34 105.935 270.468 104.145 273.516 104.145C276.564 104.145 278.672 105.935 278.672 108.437C278.672 110.958 276.564 112.766 273.516 112.766Z" fill="black"/>
<path d="M299.169 116.75C300.99 116.75 302.064 115.634 302.064 113.729V105.454H311.169C312.683 105.454 313.641 104.588 313.641 103.145C313.641 101.721 312.664 100.855 311.169 100.855H302.064V93.4267H312.108C313.68 93.4267 314.734 92.5222 314.734 91.0212C314.734 89.5202 313.699 88.6158 312.108 88.6158H299.169C297.348 88.6158 296.275 89.7319 296.275 91.637V113.729C296.275 115.634 297.348 116.75 299.169 116.75Z" fill="black"/>
<path d="M326.152 116.827C330.12 116.827 333.302 115.326 334.663 112.786C334.912 112.324 335.046 111.862 335.046 111.419C335.046 110.13 334.068 109.36 332.861 109.36C332.132 109.36 331.634 109.572 331.04 110.188C329.525 111.977 328.184 112.67 326.133 112.67C323.296 112.67 321.456 110.669 321.456 107.609V107.359H333.187C334.739 107.359 335.621 106.474 335.621 104.915C335.621 99.3152 331.711 95.3125 325.883 95.3125C319.807 95.3125 315.954 99.5269 315.954 106.166C315.954 112.843 319.73 116.827 326.152 116.827ZM321.513 103.914C321.705 101.278 323.487 99.4691 325.941 99.4691C328.395 99.4691 330.12 101.22 330.235 103.914H321.513Z" fill="black"/>
<path d="M341.327 116.788C342.956 116.788 344.106 115.807 344.106 113.94V112.843H344.221C345.371 115.249 347.652 116.711 350.662 116.711C355.856 116.711 359 112.709 359 106.07C359 99.4114 355.837 95.428 350.643 95.428C347.729 95.428 345.429 96.8905 344.298 99.3344H344.183V91.1367C344.183 89.2123 343.033 88.1924 341.384 88.1924C339.755 88.1924 338.586 89.2123 338.586 91.1367V113.94C338.586 115.826 339.717 116.788 341.327 116.788ZM348.745 112.189C346.023 112.189 344.164 109.803 344.164 106.07C344.164 102.375 346.023 99.931 348.745 99.931C351.524 99.931 353.269 102.317 353.269 106.07C353.269 109.841 351.524 112.189 348.745 112.189Z" fill="black"/>
<path d="M326.875 134.788H331.798C332.278 134.788 332.568 134.463 332.568 133.992C332.568 133.508 332.278 133.196 331.798 133.196H328.446V133.156L330.368 131.167C331.822 129.688 332.352 128.959 332.352 127.792C332.352 126.147 331.083 125.007 329.198 125.007C327.516 125.007 326.4 125.995 326.099 127.056C326.055 127.195 326.031 127.334 326.031 127.487C326.031 127.984 326.327 128.302 326.826 128.302C327.226 128.302 327.442 128.117 327.651 127.719C327.972 126.95 328.464 126.565 329.179 126.565C329.974 126.565 330.541 127.129 330.541 127.918C330.541 128.607 330.257 129.072 329.161 130.206L326.511 132.931C326.136 133.302 326 133.554 326 133.932C326 134.436 326.29 134.788 326.875 134.788Z" fill="black"/>
<path d="M337.039 135C339.294 135 340.662 133.07 340.662 129.98C340.662 126.89 339.282 125 337.039 125C334.797 125 333.41 126.897 333.41 129.987C333.41 133.084 334.784 135 337.039 135ZM337.039 133.395C335.942 133.395 335.302 132.182 335.302 129.987C335.302 127.812 335.955 126.605 337.039 126.605C338.13 126.605 338.77 127.805 338.77 129.987C338.77 132.182 338.136 133.395 337.039 133.395Z" fill="black"/>
<path d="M342.546 134.788H347.468C347.949 134.788 348.239 134.463 348.239 133.992C348.239 133.508 347.949 133.196 347.468 133.196H344.117V133.156L346.039 131.167C347.493 129.688 348.023 128.959 348.023 127.792C348.023 126.147 346.754 125.007 344.868 125.007C343.186 125.007 342.071 125.995 341.769 127.056C341.726 127.195 341.702 127.334 341.702 127.487C341.702 127.984 341.997 128.302 342.496 128.302C342.897 128.302 343.113 128.117 343.322 127.719C343.642 126.95 344.135 126.565 344.85 126.565C345.645 126.565 346.212 127.129 346.212 127.918C346.212 128.607 345.928 129.072 344.831 130.206L342.182 132.931C341.806 133.302 341.671 133.554 341.671 133.932C341.671 134.436 341.96 134.788 342.546 134.788Z" fill="black"/>
<path d="M352.537 135C354.601 135 356 133.846 356 132.109C356 130.789 355.144 129.954 353.819 129.821V129.781C354.866 129.549 355.673 128.753 355.673 127.54C355.673 126.008 354.404 125.007 352.525 125.007C350.954 125.007 349.944 125.789 349.549 126.724C349.457 126.95 349.414 127.142 349.414 127.367C349.414 127.851 349.679 128.176 350.196 128.176C350.615 128.176 350.831 128.011 351.034 127.56C351.324 126.883 351.78 126.545 352.531 126.545C353.431 126.545 353.911 127.056 353.911 127.825C353.911 128.607 353.308 129.151 352.377 129.151H352.014C351.564 129.151 351.305 129.443 351.305 129.861C351.305 130.292 351.564 130.577 352.014 130.577H352.402C353.48 130.577 354.115 131.094 354.109 132.023C354.109 132.818 353.48 133.389 352.568 133.389C351.644 133.389 351.164 132.991 350.849 132.321C350.665 131.956 350.43 131.797 350.061 131.797C349.549 131.797 349.241 132.122 349.241 132.639C349.241 132.838 349.284 133.05 349.383 133.269C349.802 134.211 350.843 135 352.537 135Z" fill="black"/>
</g>
<path d="M277.742 561.567C335.548 547.53 367.244 500.86 389 535.579L389 885C347.464 920.456 298.953 876.896 245.107 874.006C177.798 870.393 169.287 914.939 115.341 907.198C61.3959 899.457 61.1519 867.977 33.644 867.977C10.715 867.977 -1 885 -1 885L-1 535.091C22.7559 572.248 110.092 553.678 134.838 553.678C166.049 553.678 205.485 579.114 277.742 561.567Z" fill="black"/>
<circle cx="200" cy="680" r="29.5" stroke="white" stroke-linecap="round" stroke-dasharray="5 5"/>
<path d="M195.492 685.154C196.144 685.154 196.583 684.714 196.583 684.048V675.508C196.583 674.746 196.114 674.27 195.331 674.27C194.876 674.27 194.525 674.336 194.012 674.688L191.917 676.138C191.573 676.379 191.441 676.628 191.441 676.965C191.441 677.434 191.771 677.756 192.218 677.756C192.445 677.756 192.599 677.705 192.804 677.559L194.349 676.482H194.393V684.048C194.393 684.714 194.84 685.154 195.492 685.154ZM200.033 685.154C200.663 685.154 201.102 684.773 201.102 684.041V680.518C201.102 679.485 201.695 678.774 202.706 678.774C203.68 678.774 204.178 679.39 204.178 680.4V684.041C204.178 684.773 204.625 685.154 205.248 685.154C205.877 685.154 206.317 684.773 206.317 684.041V679.946C206.317 678.13 205.321 677.002 203.578 677.002C202.384 677.002 201.527 677.559 201.109 678.547H201.065V675.369C201.065 674.68 200.677 674.27 200.018 674.27C199.359 674.27 198.963 674.68 198.963 675.369V684.041C198.963 684.773 199.41 685.154 200.033 685.154Z" fill="white"/>
<path d="M28.7227 599.234C32.8926 599.234 35.5195 596.441 35.5195 591.959C35.5195 587.467 32.8926 584.664 28.7227 584.664C24.543 584.664 21.9258 587.467 21.9258 591.959C21.9258 596.441 24.543 599.234 28.7227 599.234ZM28.7227 596.773C26.4082 596.773 24.9336 594.908 24.9336 591.959C24.9336 589 26.418 587.125 28.7227 587.125C31.0273 587.125 32.502 589 32.502 591.959C32.502 594.908 31.0273 596.773 28.7227 596.773ZM41.8574 602.936C45.2266 602.955 47.1992 601.314 47.1992 598.59V589.762C47.1992 588.795 46.6035 588.316 45.7832 588.316C44.9629 588.316 44.3477 588.795 44.3477 589.762V590.338H44.2891C43.7422 589.156 42.5996 588.365 41.0957 588.365C38.4004 588.365 36.7988 590.309 36.7988 593.59C36.7988 596.783 38.4395 598.775 41.0469 598.775C42.5605 598.775 43.7812 598.023 44.2695 596.9H44.3281V598.57C44.3281 599.879 43.4102 600.738 41.8477 600.729C40.9004 600.719 40.1582 600.318 39.3867 599.586C39.0645 599.293 38.7715 599.176 38.4004 599.176C37.6875 599.176 37.2383 599.625 37.2383 600.221C37.2383 600.484 37.2969 600.748 37.4531 601.012C38.127 602.115 39.7188 602.926 41.8574 602.936ZM42.0137 596.656C40.5977 596.656 39.7188 595.533 39.7188 593.619C39.7188 591.725 40.6074 590.533 42.0137 590.533C43.4395 590.533 44.3574 591.744 44.3574 593.629C44.3574 595.523 43.4395 596.656 42.0137 596.656ZM53.7324 602.936C57.1016 602.955 59.0742 601.314 59.0742 598.59V589.762C59.0742 588.795 58.4785 588.316 57.6582 588.316C56.8379 588.316 56.2227 588.795 56.2227 589.762V590.338H56.1641C55.6172 589.156 54.4746 588.365 52.9707 588.365C50.2754 588.365 48.6738 590.309 48.6738 593.59C48.6738 596.783 50.3145 598.775 52.9219 598.775C54.4355 598.775 55.6562 598.023 56.1445 596.9H56.2031V598.57C56.2031 599.879 55.2852 600.738 53.7227 600.729C52.7754 600.719 52.0332 600.318 51.2617 599.586C50.9395 599.293 50.6465 599.176 50.2754 599.176C49.5625 599.176 49.1133 599.625 49.1133 600.221C49.1133 600.484 49.1719 600.748 49.3281 601.012C50.002 602.115 51.5938 602.926 53.7324 602.936ZM53.8887 596.656C52.4727 596.656 51.5938 595.533 51.5938 593.619C51.5938 591.725 52.4824 590.533 53.8887 590.533C55.3145 590.533 56.2324 591.744 56.2324 593.629C56.2324 595.523 55.3145 596.656 53.8887 596.656ZM62.4043 587.232C63.2637 587.232 63.9277 586.578 63.9277 585.758C63.9277 584.928 63.2637 584.283 62.4043 584.283C61.5449 584.283 60.8809 584.928 60.8809 585.758C60.8809 586.578 61.5449 587.232 62.4043 587.232ZM62.4043 599.205C63.2832 599.205 63.8301 598.648 63.8301 597.721V589.811C63.8301 588.883 63.2832 588.316 62.4043 588.316C61.5156 588.316 60.9785 588.883 60.9785 589.811V597.721C60.9785 598.648 61.5156 599.205 62.4043 599.205Z" fill="white"/>
<path d="M355.368 591.112C356.95 591.112 357.961 590.102 357.961 588.378C357.961 586.679 356.935 585.653 355.368 585.653C353.801 585.653 352.775 586.684 352.775 588.378C352.775 590.097 353.786 591.112 355.368 591.112ZM355.368 590.023C354.665 590.023 354.22 589.433 354.22 588.383C354.22 587.343 354.675 586.742 355.368 586.742C356.061 586.742 356.511 587.343 356.511 588.383C356.511 589.433 356.066 590.023 355.368 590.023ZM359.331 591.103C359.765 591.103 360.044 590.834 360.044 590.36V588.036C360.044 587.416 360.273 587.05 360.923 587.04C361.201 587.035 361.406 586.972 361.543 586.854C361.68 586.737 361.748 586.566 361.748 586.342C361.748 586.098 361.68 585.922 361.543 585.814C361.44 585.727 361.289 585.683 361.098 585.683C360.576 585.683 360.146 586.068 360.01 586.718H359.98V586.376C359.98 585.922 359.707 585.658 359.306 585.658C358.896 585.658 358.618 585.922 358.618 586.376V590.36C358.618 590.834 358.901 591.103 359.331 591.103ZM364.412 591.112C365.423 591.112 366.233 590.731 366.58 590.087C366.643 589.97 366.678 589.853 366.678 589.74C366.678 589.413 366.429 589.218 366.121 589.218C365.935 589.218 365.809 589.271 365.657 589.428C365.271 589.882 364.93 590.058 364.407 590.058C363.684 590.058 363.216 589.55 363.216 588.773V588.71H366.204C366.6 588.71 366.824 588.485 366.824 588.09C366.824 586.669 365.828 585.653 364.344 585.653C362.796 585.653 361.814 586.723 361.814 588.407C361.814 590.102 362.776 591.112 364.412 591.112ZM363.23 587.836C363.279 587.167 363.733 586.708 364.358 586.708C364.983 586.708 365.423 587.152 365.452 587.836H363.23ZM326.546 601.103C326.966 601.103 327.259 600.849 327.259 600.36V594.594C327.259 594.105 326.966 593.847 326.546 593.847C326.131 593.847 325.833 594.105 325.833 594.594V600.36C325.833 600.849 326.131 601.103 326.546 601.103ZM329.689 601.083C330.343 601.083 330.997 600.756 331.29 600.199H331.32V600.468C331.349 600.888 331.618 601.103 332.003 601.103C332.409 601.103 332.697 600.858 332.697 600.385V597.401C332.697 596.347 331.823 595.653 330.48 595.653C329.396 595.653 328.556 596.039 328.312 596.664C328.263 596.771 328.239 596.874 328.239 596.986C328.239 597.309 328.488 597.533 328.834 597.533C329.064 597.533 329.244 597.445 329.401 597.27C329.718 596.859 329.982 596.718 330.416 596.718C330.953 596.718 331.295 597.001 331.295 597.489V597.836L329.977 597.914C328.668 597.992 327.936 598.544 327.936 599.496C327.936 600.438 328.693 601.083 329.689 601.083ZM330.158 600.053C329.679 600.053 329.357 599.809 329.357 599.418C329.357 599.047 329.66 598.808 330.192 598.769L331.295 598.7V599.081C331.295 599.647 330.783 600.053 330.158 600.053ZM335.707 601.103C336.225 601.103 336.523 600.878 336.704 600.375L338.066 596.693C338.11 596.571 338.144 596.425 338.144 596.293C338.144 595.932 337.846 595.658 337.451 595.658C337.119 595.658 336.879 595.839 336.782 596.215L335.722 599.74H335.693L334.633 596.229C334.526 595.844 334.296 595.658 333.95 595.658C333.544 595.658 333.237 595.912 333.237 596.298C333.237 596.444 333.271 596.596 333.315 596.723L334.677 600.375C334.868 600.883 335.161 601.103 335.707 601.103ZM340.969 601.112C342.551 601.112 343.562 600.102 343.562 598.378C343.562 596.679 342.537 595.653 340.969 595.653C339.402 595.653 338.376 596.684 338.376 598.378C338.376 600.097 339.387 601.112 340.969 601.112ZM340.969 600.023C340.266 600.023 339.822 599.433 339.822 598.383C339.822 597.343 340.276 596.742 340.969 596.742C341.663 596.742 342.112 597.343 342.112 598.383C342.112 599.433 341.668 600.023 340.969 600.023ZM344.932 601.103C345.367 601.103 345.645 600.834 345.645 600.36V598.036C345.645 597.416 345.875 597.05 346.524 597.04C346.802 597.035 347.007 596.972 347.144 596.854C347.281 596.737 347.349 596.566 347.349 596.342C347.349 596.098 347.281 595.922 347.144 595.814C347.042 595.727 346.89 595.683 346.7 595.683C346.177 595.683 345.748 596.068 345.611 596.718H345.582V596.376C345.582 595.922 345.308 595.658 344.908 595.658C344.498 595.658 344.219 595.922 344.219 596.376V600.36C344.219 600.834 344.503 601.103 344.932 601.103ZM349.203 601.083C349.857 601.083 350.511 600.756 350.804 600.199H350.834V600.468C350.863 600.888 351.132 601.103 351.517 601.103C351.923 601.103 352.211 600.858 352.211 600.385V597.401C352.211 596.347 351.337 595.653 349.994 595.653C348.91 595.653 348.07 596.039 347.826 596.664C347.777 596.771 347.753 596.874 347.753 596.986C347.753 597.309 348.002 597.533 348.348 597.533C348.578 597.533 348.758 597.445 348.915 597.27C349.232 596.859 349.496 596.718 349.93 596.718C350.467 596.718 350.809 597.001 350.809 597.489V597.836L349.491 597.914C348.182 597.992 347.45 598.544 347.45 599.496C347.45 600.438 348.207 601.083 349.203 601.083ZM349.672 600.053C349.193 600.053 348.871 599.809 348.871 599.418C348.871 599.047 349.174 598.808 349.706 598.769L350.809 598.7V599.081C350.809 599.647 350.297 600.053 349.672 600.053ZM353.434 599.662C353.434 600.585 353.918 601.059 354.87 601.059H354.919C355.519 601.059 355.929 600.844 355.929 600.424C355.929 600.092 355.739 599.945 355.387 599.906L355.295 599.896C354.987 599.872 354.86 599.716 354.86 599.345V596.84H355.363C355.7 596.84 355.91 596.63 355.91 596.303C355.91 595.976 355.7 595.766 355.363 595.766H354.86V595.185C354.86 594.726 354.592 594.442 354.147 594.442C353.703 594.442 353.434 594.726 353.434 595.185V595.766H353.161C352.824 595.766 352.609 595.971 352.609 596.303C352.609 596.635 352.824 596.84 353.161 596.84H353.434V599.662ZM357.265 595.116C357.695 595.116 358.027 594.789 358.027 594.379C358.027 593.964 357.695 593.642 357.265 593.642C356.836 593.642 356.504 593.964 356.504 594.379C356.504 594.789 356.836 595.116 357.265 595.116ZM357.265 601.103C357.705 601.103 357.978 600.824 357.978 600.36V596.405C357.978 595.941 357.705 595.658 357.265 595.658C356.821 595.658 356.553 595.941 356.553 596.405V600.36C356.553 600.824 356.821 601.103 357.265 601.103ZM361.048 601.103C361.565 601.103 361.863 600.878 362.044 600.375L363.406 596.693C363.45 596.571 363.484 596.425 363.484 596.293C363.484 595.932 363.186 595.658 362.791 595.658C362.459 595.658 362.22 595.839 362.122 596.215L361.062 599.74H361.033L359.974 596.229C359.866 595.844 359.637 595.658 359.29 595.658C358.885 595.658 358.577 595.912 358.577 596.298C358.577 596.444 358.611 596.596 358.655 596.723L360.018 600.375C360.208 600.883 360.501 601.103 361.048 601.103ZM366.314 601.112C367.325 601.112 368.136 600.731 368.482 600.087C368.546 599.97 368.58 599.853 368.58 599.74C368.58 599.413 368.331 599.218 368.023 599.218C367.838 599.218 367.711 599.271 367.56 599.428C367.174 599.882 366.832 600.058 366.31 600.058C365.587 600.058 365.118 599.55 365.118 598.773V598.71H368.106C368.502 598.71 368.727 598.485 368.727 598.09C368.727 596.669 367.73 595.653 366.246 595.653C364.698 595.653 363.717 596.723 363.717 598.407C363.717 600.102 364.679 601.112 366.314 601.112ZM365.133 597.836C365.182 597.167 365.636 596.708 366.261 596.708C366.886 596.708 367.325 597.152 367.354 597.836H365.133Z" fill="white"/>
<path d="M359.273 575.41C360.895 575.41 362.086 574.414 362.086 572.539V569.824H363.688C365.23 569.824 366.109 568.867 366.109 567.48C366.109 566.094 365.25 565.117 363.688 565.117H362.086V550.645C362.086 548.008 360.211 546.387 357.223 546.387C354.84 546.387 353.414 547.363 351.461 550.352C348.395 554.902 345.582 559.199 343.648 562.676C342.77 564.219 342.418 565.312 342.418 566.523C342.418 568.496 343.844 569.824 345.973 569.824H356.48V572.539C356.48 574.414 357.652 575.41 359.273 575.41ZM356.598 565.273H347.574V565.117C349.859 560.859 352.457 556.895 356.48 551.094H356.598V565.273Z" fill="white"/>
<path d="M55.1251 387.141C55.7316 387.141 56.1095 386.754 56.1095 386.121V376.022H59.212C59.757 376.022 60.1261 375.688 60.1261 375.17C60.1261 374.651 59.757 374.317 59.212 374.317H51.0294C50.4845 374.317 50.1153 374.651 50.1153 375.17C50.1153 375.688 50.4845 376.022 51.0294 376.022H54.1407V386.121C54.1407 386.754 54.5099 387.141 55.1251 387.141ZM60.5119 387.167C61.0744 387.167 61.4611 386.78 61.4611 386.165V381.445C61.4611 380.294 61.9885 379.424 63.2893 379.415C63.6848 379.415 63.966 379.336 64.1594 379.169C64.3439 379.02 64.4406 378.8 64.4406 378.501C64.4406 378.202 64.3615 377.974 64.1857 377.833C64.0275 377.684 63.7727 377.604 63.4387 377.604C62.5158 377.604 61.6633 378.299 61.4084 379.336H61.3645V378.545C61.3645 377.965 60.9953 377.587 60.468 377.587C59.9318 377.587 59.5627 377.965 59.5627 378.545V386.165C59.5627 386.78 59.9406 387.167 60.5119 387.167ZM67.9026 387.158C69.1067 387.158 70.2845 386.508 70.8206 385.479H70.8645V386.262C70.8821 386.824 71.2425 387.167 71.7698 387.167C72.3059 387.167 72.6839 386.807 72.6839 386.209V380.628C72.6839 378.773 71.2512 377.587 69.01 377.587C67.3489 377.587 65.9514 378.255 65.468 379.301C65.3538 379.512 65.3011 379.723 65.3011 379.916C65.3011 380.391 65.6438 380.707 66.1184 380.707C66.4524 380.707 66.6985 380.584 66.8919 380.303C67.4192 379.459 68.0257 379.134 68.9397 379.134C70.0999 379.134 70.7942 379.749 70.7942 380.777V381.489L68.2542 381.639C66.0657 381.762 64.8177 382.755 64.8177 384.372C64.8177 386.033 66.0921 387.158 67.9026 387.158ZM68.4212 385.655C67.4104 385.655 66.7337 385.128 66.7337 384.319C66.7337 383.528 67.3753 383.027 68.5091 382.948L70.7942 382.808V383.537C70.7942 384.741 69.7483 385.655 68.4212 385.655ZM77.8597 387.176C80.1449 387.176 81.683 386.033 81.683 384.319C81.683 382.948 80.9359 382.254 78.9935 381.806L77.5609 381.472C76.5853 381.243 76.1371 380.839 76.1371 380.259C76.1371 379.538 76.8402 379.037 77.8597 379.037C78.7914 379.037 79.3539 379.406 79.767 380.109C79.9515 380.408 80.224 380.514 80.5316 380.514C81.0062 380.514 81.2699 380.232 81.2699 379.811C81.2699 379.723 81.2523 379.635 81.2347 379.529C80.9711 378.439 79.6 377.587 77.93 377.587C75.7328 377.587 74.2826 378.694 74.2826 380.364C74.2826 381.683 75.1615 382.562 76.9545 382.983L78.4134 383.326C79.4066 383.563 79.767 383.889 79.767 384.495C79.767 385.26 79.0375 385.726 77.9564 385.726C76.8578 385.726 76.3041 385.392 75.8295 384.645C75.5921 384.293 75.3197 384.144 75.0033 384.144C74.5287 384.144 74.1859 384.425 74.1859 384.899C74.1859 385.022 74.2035 385.154 74.265 385.295C74.7045 386.429 76.0404 387.176 77.8597 387.176ZM87.0258 387.176C88.7397 387.176 90.2426 386.271 90.726 384.996C90.7963 384.812 90.8315 384.653 90.8315 384.504C90.8315 384.029 90.4887 383.713 90.0229 383.713C89.6098 383.713 89.4077 383.871 89.144 384.328C88.6957 385.128 88.0717 385.585 87.0434 385.585C85.5756 385.585 84.5912 384.39 84.5912 382.377C84.5912 380.408 85.558 379.169 87.0434 379.169C88.019 379.169 88.6694 379.591 89.144 380.47C89.3725 380.892 89.601 381.05 90.0053 381.05C90.4711 381.05 90.8139 380.751 90.8139 380.268C90.8139 380.136 90.7787 379.978 90.726 379.828C90.3217 378.536 88.7924 377.587 87.0082 377.587C84.3715 377.587 82.6577 379.468 82.6577 382.395C82.6577 385.339 84.3803 387.176 87.0258 387.176ZM93.3003 376.356C93.9155 376.356 94.4077 375.864 94.4077 375.267C94.4077 374.66 93.9155 374.186 93.3003 374.186C92.6939 374.186 92.2017 374.66 92.2017 375.267C92.2017 375.864 92.6939 376.356 93.3003 376.356ZM93.3003 387.167C93.8716 387.167 94.2495 386.771 94.2495 386.165V378.598C94.2495 377.982 93.8716 377.587 93.3003 377.587C92.729 377.587 92.3511 377.982 92.3511 378.598V386.165C92.3511 386.771 92.729 387.167 93.3003 387.167ZM97.0611 387.167C97.6148 387.167 98.0103 386.789 98.0103 386.165V381.612C98.0103 380.18 98.8717 379.23 100.208 379.23C101.526 379.23 102.176 379.995 102.176 381.384V386.165C102.176 386.789 102.572 387.167 103.126 387.167C103.688 387.167 104.084 386.789 104.084 386.165V381.015C104.084 378.896 102.915 377.596 100.876 377.596C99.4518 377.596 98.485 378.229 97.984 379.283H97.94V378.554C97.94 377.965 97.5621 377.587 97.0172 377.587C96.4635 377.587 96.1119 377.965 96.1119 378.545V386.165C96.1119 386.789 96.4986 387.167 97.0611 387.167ZM108.548 387.158C109.752 387.158 110.929 386.508 111.466 385.479H111.509V386.262C111.527 386.824 111.887 387.167 112.415 387.167C112.951 387.167 113.329 386.807 113.329 386.209V380.628C113.329 378.773 111.896 377.587 109.655 377.587C107.994 377.587 106.596 378.255 106.113 379.301C105.999 379.512 105.946 379.723 105.946 379.916C105.946 380.391 106.289 380.707 106.763 380.707C107.097 380.707 107.343 380.584 107.537 380.303C108.064 379.459 108.671 379.134 109.585 379.134C110.745 379.134 111.439 379.749 111.439 380.777V381.489L108.899 381.639C106.711 381.762 105.463 382.755 105.463 384.372C105.463 386.033 106.737 387.158 108.548 387.158ZM109.066 385.655C108.055 385.655 107.379 385.128 107.379 384.319C107.379 383.528 108.02 383.027 109.154 382.948L111.439 382.808V383.537C111.439 384.741 110.393 385.655 109.066 385.655ZM119.69 387.167C120.244 387.167 120.639 386.789 120.639 386.165V375.152C120.639 374.528 120.244 374.15 119.69 374.15C119.137 374.15 118.741 374.528 118.741 375.152V386.165C118.741 386.789 119.137 387.167 119.69 387.167ZM126.518 387.176C128.241 387.176 129.586 386.481 130.192 385.269C130.271 385.084 130.324 384.908 130.324 384.759C130.324 384.284 129.99 383.985 129.533 383.985C129.261 383.985 129.067 384.082 128.865 384.319C128.162 385.277 127.512 385.638 126.475 385.638C124.963 385.638 124.014 384.583 124.014 382.896V382.852H129.603C130.192 382.852 130.544 382.5 130.544 381.885C130.544 379.362 128.848 377.587 126.387 377.587C123.767 377.587 122.098 379.485 122.098 382.421C122.098 385.409 123.732 387.176 126.518 387.176ZM124.022 381.524C124.119 380.083 125.068 379.116 126.378 379.116C127.696 379.116 128.601 380.074 128.645 381.524H124.022ZM88.1051 411.48C90.8561 411.507 92.5348 410.03 92.5348 407.745V399.562C92.5348 398.947 92.1305 398.587 91.5855 398.587C91.0406 398.587 90.6275 398.947 90.6275 399.562V400.31H90.5924C90.0299 399.264 89.0104 398.604 87.7008 398.604C85.3102 398.604 83.816 400.406 83.816 403.298C83.816 406.154 85.3277 407.974 87.6568 407.974C88.9752 407.974 90.065 407.314 90.5836 406.312H90.6275V407.78C90.6275 409.072 89.6871 409.951 88.1402 409.934C87.235 409.916 86.5846 409.573 85.8287 408.782C85.5738 408.527 85.3893 408.431 85.0992 408.431C84.6158 408.431 84.2906 408.747 84.2906 409.187C84.2906 409.406 84.3434 409.6 84.4664 409.811C85.0992 410.812 86.4264 411.463 88.1051 411.48ZM88.1666 406.427C86.7076 406.427 85.7584 405.24 85.7584 403.307C85.7584 401.382 86.7076 400.169 88.1666 400.169C89.652 400.169 90.6363 401.417 90.6363 403.315C90.6363 405.214 89.652 406.427 88.1666 406.427ZM98.2995 408.176C100.945 408.176 102.685 406.356 102.685 403.377C102.685 400.406 100.936 398.587 98.2995 398.587C95.6628 398.587 93.9137 400.406 93.9137 403.377C93.9137 406.356 95.654 408.176 98.2995 408.176ZM98.2995 406.611C96.8141 406.611 95.8473 405.434 95.8473 403.377C95.8473 401.329 96.8141 400.151 98.2995 400.151C99.7848 400.151 100.752 401.329 100.752 403.377C100.752 405.434 99.7936 406.611 98.2995 406.611ZM108.028 408.176C109.742 408.176 111.245 407.271 111.728 405.996C111.799 405.812 111.834 405.653 111.834 405.504C111.834 405.029 111.491 404.713 111.025 404.713C110.612 404.713 110.41 404.871 110.146 405.328C109.698 406.128 109.074 406.585 108.046 406.585C106.578 406.585 105.594 405.39 105.594 403.377C105.594 401.408 106.56 400.169 108.046 400.169C109.021 400.169 109.672 400.591 110.146 401.47C110.375 401.892 110.603 402.05 111.008 402.05C111.473 402.05 111.816 401.751 111.816 401.268C111.816 401.136 111.781 400.978 111.728 400.828C111.324 399.536 109.795 398.587 108.011 398.587C105.374 398.587 103.66 400.468 103.66 403.395C103.66 406.339 105.383 408.176 108.028 408.176ZM117.247 408.176C118.961 408.176 120.464 407.271 120.947 405.996C121.017 405.812 121.053 405.653 121.053 405.504C121.053 405.029 120.71 404.713 120.244 404.713C119.831 404.713 119.629 404.871 119.365 405.328C118.917 406.128 118.293 406.585 117.264 406.585C115.797 406.585 114.812 405.39 114.812 403.377C114.812 401.408 115.779 400.169 117.264 400.169C118.24 400.169 118.89 400.591 119.365 401.47C119.594 401.892 119.822 402.05 120.226 402.05C120.692 402.05 121.035 401.751 121.035 401.268C121.035 401.136 121 400.978 120.947 400.828C120.543 399.536 119.014 398.587 117.229 398.587C114.593 398.587 112.879 400.468 112.879 403.395C112.879 406.339 114.601 408.176 117.247 408.176ZM126.518 408.176C128.241 408.176 129.586 407.481 130.192 406.269C130.271 406.084 130.324 405.908 130.324 405.759C130.324 405.284 129.99 404.985 129.533 404.985C129.261 404.985 129.067 405.082 128.865 405.319C128.162 406.277 127.512 406.638 126.475 406.638C124.963 406.638 124.014 405.583 124.014 403.896V403.852H129.603C130.192 403.852 130.544 403.5 130.544 402.885C130.544 400.362 128.848 398.587 126.387 398.587C123.768 398.587 122.098 400.485 122.098 403.421C122.098 406.409 123.732 408.176 126.518 408.176ZM124.022 402.524C124.119 401.083 125.068 400.116 126.378 400.116C127.696 400.116 128.601 401.074 128.645 402.524H124.022ZM68.5354 429.167C69.0891 429.167 69.4846 428.789 69.4846 428.165V423.612C69.4846 422.18 70.346 421.23 71.6819 421.23C73.0003 421.23 73.6507 421.995 73.6507 423.384V428.165C73.6507 428.789 74.0462 429.167 74.5999 429.167C75.1624 429.167 75.5579 428.789 75.5579 428.165V423.015C75.5579 420.896 74.3889 419.596 72.3499 419.596C70.9261 419.596 69.9593 420.229 69.4583 421.283H69.4143V420.554C69.4143 419.965 69.0364 419.587 68.4915 419.587C67.9378 419.587 67.5862 419.965 67.5862 420.545V428.165C67.5862 428.789 67.9729 429.167 68.5354 429.167ZM81.3226 429.176C83.0453 429.176 84.39 428.481 84.9964 427.269C85.0755 427.084 85.1283 426.908 85.1283 426.759C85.1283 426.284 84.7943 425.985 84.3373 425.985C84.0648 425.985 83.8714 426.082 83.6693 426.319C82.9662 427.277 82.3158 427.638 81.2787 427.638C79.767 427.638 78.8177 426.583 78.8177 424.896V424.852H84.4076C84.9964 424.852 85.348 424.5 85.348 423.885C85.348 421.362 83.6517 419.587 81.1908 419.587C78.5716 419.587 76.9017 421.485 76.9017 424.421C76.9017 427.409 78.5365 429.176 81.3226 429.176ZM78.8265 423.524C78.9232 422.083 79.8724 421.116 81.182 421.116C82.5004 421.116 83.4056 422.074 83.4496 423.524H78.8265ZM87.7641 429.167C88.3178 429.167 88.7133 428.789 88.7133 428.165V417.152C88.7133 416.528 88.3178 416.15 87.7641 416.15C87.2104 416.15 86.8149 416.528 86.8149 417.152V428.165C86.8149 428.789 87.2104 429.167 87.7641 429.167ZM91.604 429.167C92.1577 429.167 92.5532 428.789 92.5532 428.165V417.152C92.5532 416.528 92.1577 416.15 91.604 416.15C91.0503 416.15 90.6548 416.528 90.6548 417.152V428.165C90.6548 428.789 91.0503 429.167 91.604 429.167ZM97.1314 429.158C98.3355 429.158 99.5133 428.508 100.049 427.479H100.093V428.262C100.111 428.824 100.471 429.167 100.999 429.167C101.535 429.167 101.913 428.807 101.913 428.209V422.628C101.913 420.773 100.48 419.587 98.2389 419.587C96.5777 419.587 95.1803 420.255 94.6969 421.301C94.5826 421.512 94.5299 421.723 94.5299 421.916C94.5299 422.391 94.8727 422.707 95.3473 422.707C95.6813 422.707 95.9273 422.584 96.1207 422.303C96.648 421.459 97.2545 421.134 98.1686 421.134C99.3287 421.134 100.023 421.749 100.023 422.777V423.489L97.483 423.639C95.2945 423.762 94.0465 424.755 94.0465 426.372C94.0465 428.033 95.3209 429.158 97.1314 429.158ZM97.65 427.655C96.6393 427.655 95.9625 427.128 95.9625 426.319C95.9625 425.528 96.6041 425.027 97.7379 424.948L100.023 424.808V425.537C100.023 426.741 98.9771 427.655 97.65 427.655ZM107.808 426.785C107.808 428.314 108.599 429.079 110.155 429.079H110.252C111.183 429.079 111.623 428.789 111.623 428.218C111.623 427.77 111.35 427.55 110.805 427.497L110.656 427.488C109.97 427.436 109.716 427.102 109.716 426.363V421.257H110.797C111.289 421.257 111.588 420.976 111.588 420.51C111.588 420.044 111.289 419.754 110.797 419.754H109.716V418.383C109.716 417.776 109.338 417.372 108.766 417.372C108.186 417.372 107.808 417.776 107.808 418.383V419.754H107.14C106.648 419.754 106.349 420.035 106.349 420.51C106.349 420.976 106.648 421.257 107.14 421.257H107.808V426.785ZM116.157 429.167C117.572 429.167 118.513 428.543 119.022 427.436H119.066V428.209C119.066 428.789 119.435 429.167 119.98 429.167C120.525 429.167 120.886 428.789 120.886 428.2V420.598C120.886 419.965 120.499 419.587 119.936 419.587C119.383 419.587 118.987 419.965 118.987 420.598V425.142C118.987 426.583 118.161 427.532 116.79 427.532C115.48 427.532 114.812 426.776 114.812 425.37V420.598C114.812 419.965 114.417 419.587 113.863 419.587C113.301 419.587 112.914 419.965 112.914 420.598V425.739C112.914 427.857 114.144 429.167 116.157 429.167ZM125.393 429.158C126.598 429.158 127.775 428.508 128.311 427.479H128.355V428.262C128.373 428.824 128.733 429.167 129.261 429.167C129.797 429.167 130.175 428.807 130.175 428.209V422.628C130.175 420.773 128.742 419.587 126.501 419.587C124.84 419.587 123.442 420.255 122.959 421.301C122.845 421.512 122.792 421.723 122.792 421.916C122.792 422.391 123.135 422.707 123.609 422.707C123.943 422.707 124.189 422.584 124.383 422.303C124.91 421.459 125.517 421.134 126.431 421.134C127.591 421.134 128.285 421.749 128.285 422.777V423.489L125.745 423.639C123.557 423.762 122.309 424.755 122.309 426.372C122.309 428.033 123.583 429.158 125.393 429.158ZM125.912 427.655C124.901 427.655 124.225 427.128 124.225 426.319C124.225 425.528 124.866 425.027 126 424.948L128.285 424.808V425.537C128.285 426.741 127.239 427.655 125.912 427.655ZM72.4448 453.48C75.1957 453.507 76.8745 452.03 76.8745 449.745V441.562C76.8745 440.947 76.4702 440.587 75.9252 440.587C75.3803 440.587 74.9672 440.947 74.9672 441.562V442.31H74.9321C74.3696 441.264 73.35 440.604 72.0405 440.604C69.6498 440.604 68.1557 442.406 68.1557 445.298C68.1557 448.154 69.6674 449.974 71.9965 449.974C73.3149 449.974 74.4047 449.314 74.9233 448.312H74.9672V449.78C74.9672 451.072 74.0268 451.951 72.4799 451.934C71.5746 451.916 70.9243 451.573 70.1684 450.782C69.9135 450.527 69.7289 450.431 69.4389 450.431C68.9555 450.431 68.6303 450.747 68.6303 451.187C68.6303 451.406 68.683 451.6 68.8061 451.811C69.4389 452.812 70.7661 453.463 72.4448 453.48ZM72.5063 448.427C71.0473 448.427 70.0981 447.24 70.0981 445.307C70.0981 443.382 71.0473 442.169 72.5063 442.169C73.9916 442.169 74.976 443.417 74.976 445.315C74.976 447.214 73.9916 448.427 72.5063 448.427ZM79.6773 439.356C80.2925 439.356 80.7847 438.864 80.7847 438.267C80.7847 437.66 80.2925 437.186 79.6773 437.186C79.0708 437.186 78.5786 437.66 78.5786 438.267C78.5786 438.864 79.0708 439.356 79.6773 439.356ZM79.6773 450.167C80.2486 450.167 80.6265 449.771 80.6265 449.165V441.598C80.6265 440.982 80.2486 440.587 79.6773 440.587C79.106 440.587 78.7281 440.982 78.7281 441.598V449.165C78.7281 449.771 79.106 450.167 79.6773 450.167ZM86.4615 450.176C89.107 450.176 90.8473 448.356 90.8473 445.377C90.8473 442.406 89.0982 440.587 86.4615 440.587C83.8248 440.587 82.0758 442.406 82.0758 445.377C82.0758 448.356 83.816 450.176 86.4615 450.176ZM86.4615 448.611C84.9762 448.611 84.0094 447.434 84.0094 445.377C84.0094 443.329 84.9762 442.151 86.4615 442.151C87.9469 442.151 88.9137 443.329 88.9137 445.377C88.9137 447.434 87.9557 448.611 86.4615 448.611ZM93.1843 450.167C93.7468 450.167 94.1335 449.78 94.1335 449.165V444.445C94.1335 443.294 94.6608 442.424 95.9616 442.415C96.3571 442.415 96.6384 442.336 96.8317 442.169C97.0163 442.02 97.113 441.8 97.113 441.501C97.113 441.202 97.0339 440.974 96.8581 440.833C96.6999 440.684 96.445 440.604 96.111 440.604C95.1882 440.604 94.3356 441.299 94.0807 442.336H94.0368V441.545C94.0368 440.965 93.6677 440.587 93.1403 440.587C92.6042 440.587 92.235 440.965 92.235 441.545V449.165C92.235 449.78 92.613 450.167 93.1843 450.167ZM99.0105 450.167C99.5642 450.167 99.9597 449.789 99.9597 449.165V444.612C99.9597 443.18 100.821 442.23 102.157 442.23C103.475 442.23 104.126 442.995 104.126 444.384V449.165C104.126 449.789 104.521 450.167 105.075 450.167C105.637 450.167 106.033 449.789 106.033 449.165V444.015C106.033 441.896 104.864 440.596 102.825 440.596C101.401 440.596 100.434 441.229 99.9334 442.283H99.8894V441.554C99.8894 440.965 99.5115 440.587 98.9666 440.587C98.4129 440.587 98.0613 440.965 98.0613 441.545V449.165C98.0613 449.789 98.448 450.167 99.0105 450.167ZM110.497 450.158C111.701 450.158 112.879 449.508 113.415 448.479H113.459V449.262C113.476 449.824 113.837 450.167 114.364 450.167C114.9 450.167 115.278 449.807 115.278 449.209V443.628C115.278 441.773 113.846 440.587 111.604 440.587C109.943 440.587 108.546 441.255 108.062 442.301C107.948 442.512 107.895 442.723 107.895 442.916C107.895 443.391 108.238 443.707 108.713 443.707C109.047 443.707 109.293 443.584 109.486 443.303C110.014 442.459 110.62 442.134 111.534 442.134C112.694 442.134 113.389 442.749 113.389 443.777V444.489L110.848 444.639C108.66 444.762 107.412 445.755 107.412 447.372C107.412 449.033 108.686 450.158 110.497 450.158ZM111.015 448.655C110.005 448.655 109.328 448.128 109.328 447.319C109.328 446.528 109.97 446.027 111.103 445.948L113.389 445.808V446.537C113.389 447.741 112.343 448.655 111.015 448.655ZM117.598 447.785C117.598 449.314 118.389 450.079 119.944 450.079H120.041C120.973 450.079 121.412 449.789 121.412 449.218C121.412 448.77 121.14 448.55 120.595 448.497L120.445 448.488C119.76 448.436 119.505 448.102 119.505 447.363V442.257H120.586C121.078 442.257 121.377 441.976 121.377 441.51C121.377 441.044 121.078 440.754 120.586 440.754H119.505V439.383C119.505 438.776 119.127 438.372 118.556 438.372C117.976 438.372 117.598 438.776 117.598 439.383V440.754H116.93C116.437 440.754 116.139 441.035 116.139 441.51C116.139 441.976 116.437 442.257 116.93 442.257H117.598V447.785ZM125.313 450.158C126.518 450.158 127.695 449.508 128.231 448.479H128.275V449.262C128.293 449.824 128.653 450.167 129.181 450.167C129.717 450.167 130.095 449.807 130.095 449.209V443.628C130.095 441.773 128.662 440.587 126.421 440.587C124.76 440.587 123.362 441.255 122.879 442.301C122.765 442.512 122.712 442.723 122.712 442.916C122.712 443.391 123.055 443.707 123.529 443.707C123.863 443.707 124.109 443.584 124.303 443.303C124.83 442.459 125.437 442.134 126.351 442.134C127.511 442.134 128.205 442.749 128.205 443.777V444.489L125.665 444.639C123.477 444.762 122.229 445.755 122.229 447.372C122.229 449.033 123.503 450.158 125.313 450.158ZM125.832 448.655C124.821 448.655 124.145 448.128 124.145 447.319C124.145 446.528 124.786 446.027 125.92 445.948L128.205 445.808V446.537C128.205 447.741 127.159 448.655 125.832 448.655Z" fill="black"/>
<path d="M109 473C109 472.448 108.552 472 108 472C107.448 472 107 472.448 107 473L109 473ZM107.293 492.707C107.683 493.098 108.317 493.098 108.707 492.707L115.071 486.343C115.462 485.953 115.462 485.319 115.071 484.929C114.681 484.538 114.047 484.538 113.657 484.929L108 490.586L102.343 484.929C101.953 484.538 101.319 484.538 100.929 484.929C100.538 485.319 100.538 485.953 100.929 486.343L107.293 492.707ZM107 473L107 492L109 492L109 473L107 473Z" fill="black"/>
<path d="M132 503C132 502.448 131.552 502 131 502C130.448 502 130 502.448 130 503L132 503ZM130.293 523.707C130.683 524.098 131.317 524.098 131.707 523.707L138.071 517.343C138.462 516.953 138.462 516.319 138.071 515.929C137.681 515.538 137.047 515.538 136.657 515.929L131 521.586L125.343 515.929C124.953 515.538 124.319 515.538 123.929 515.929C123.538 516.319 123.538 516.953 123.929 517.343L130.293 523.707ZM130 503L130 523L132 523L132 503L130 503Z" fill="black"/>
<path d="M146 450C146 449.448 145.552 449 145 449C144.448 449 144 449.448 144 450L146 450ZM144.293 470.707C144.683 471.098 145.317 471.098 145.707 470.707L152.071 464.343C152.462 463.953 152.462 463.319 152.071 462.929C151.681 462.538 151.047 462.538 150.657 462.929L145 468.586L139.343 462.929C138.953 462.538 138.319 462.538 137.929 462.929C137.538 463.319 137.538 463.953 137.929 464.343L144.293 470.707ZM144 450L144 470L146 470L146 450L144 450Z" fill="black"/>
<path d="M273.315 428.979C273.732 429.34 274.364 429.295 274.725 428.877C275.087 428.46 275.041 427.828 274.624 427.467L273.315 428.979ZM245.929 403.003C245.378 403.042 244.963 403.521 245.003 404.072L245.647 413.049C245.687 413.599 246.165 414.014 246.716 413.974C247.267 413.935 247.682 413.456 247.642 412.905L247.069 404.926L255.049 404.353C255.6 404.314 256.014 403.835 255.975 403.284C255.935 402.733 255.456 402.319 254.905 402.358L245.929 403.003ZM274.624 427.467L246.655 403.244L245.346 404.756L273.315 428.979L274.624 427.467Z" fill="black"/>
<path d="M289.749 442.195C292.689 442.195 294.622 440.174 294.622 436.863C294.622 433.562 292.679 431.541 289.749 431.541C286.82 431.541 284.876 433.562 284.876 436.863C284.876 440.174 286.81 442.195 289.749 442.195ZM289.749 440.457C288.099 440.457 287.025 439.148 287.025 436.863C287.025 434.588 288.099 433.279 289.749 433.279C291.4 433.279 292.474 434.588 292.474 436.863C292.474 439.148 291.409 440.457 289.749 440.457ZM300.771 439.539C300.771 441.238 301.65 442.088 303.378 442.088H303.486C304.521 442.088 305.009 441.766 305.009 441.131C305.009 440.633 304.706 440.389 304.101 440.33L303.935 440.32C303.173 440.262 302.89 439.891 302.89 439.07V433.396H304.091C304.638 433.396 304.97 433.084 304.97 432.566C304.97 432.049 304.638 431.727 304.091 431.727H302.89V430.203C302.89 429.529 302.47 429.08 301.835 429.08C301.191 429.08 300.771 429.529 300.771 430.203V431.727H300.029C299.482 431.727 299.15 432.039 299.15 432.566C299.15 433.084 299.482 433.396 300.029 433.396H300.771V439.539ZM309.353 442.176C310.691 442.176 312 441.453 312.595 440.311H312.644V441.18C312.664 441.805 313.064 442.186 313.65 442.186C314.246 442.186 314.666 441.785 314.666 441.121V434.92C314.666 432.859 313.074 431.541 310.584 431.541C308.738 431.541 307.185 432.283 306.648 433.445C306.521 433.68 306.462 433.914 306.462 434.129C306.462 434.656 306.843 435.008 307.371 435.008C307.742 435.008 308.015 434.871 308.23 434.559C308.816 433.621 309.49 433.26 310.505 433.26C311.794 433.26 312.566 433.943 312.566 435.086V435.877L309.744 436.043C307.312 436.18 305.925 437.283 305.925 439.08C305.925 440.926 307.341 442.176 309.353 442.176ZM309.929 440.506C308.806 440.506 308.054 439.92 308.054 439.021C308.054 438.143 308.767 437.586 310.027 437.498L312.566 437.342V438.152C312.566 439.49 311.404 440.506 309.929 440.506ZM317.691 445.643C318.306 445.643 318.746 445.213 318.746 444.52V440.311H318.795C319.38 441.453 320.552 442.176 322.027 442.176C324.605 442.176 326.314 440.115 326.314 436.863C326.314 433.611 324.595 431.561 321.988 431.561C320.504 431.561 319.322 432.312 318.716 433.494H318.677V432.625C318.677 431.951 318.248 431.541 317.652 431.541C317.056 431.541 316.636 431.951 316.636 432.625V444.52C316.636 445.213 317.066 445.643 317.691 445.643ZM321.431 440.389C319.81 440.389 318.736 439.002 318.736 436.863C318.736 434.744 319.82 433.338 321.431 433.338C323.101 433.338 324.146 434.715 324.146 436.863C324.146 439.021 323.101 440.389 321.431 440.389ZM332.902 445.643C333.517 445.643 333.957 445.213 333.957 444.52V440.311H334.006C334.592 441.453 335.763 442.176 337.238 442.176C339.816 442.176 341.525 440.115 341.525 436.863C341.525 433.611 339.806 431.561 337.199 431.561C335.715 431.561 334.533 432.312 333.928 433.494H333.888V432.625C333.888 431.951 333.459 431.541 332.863 431.541C332.267 431.541 331.847 431.951 331.847 432.625V444.52C331.847 445.213 332.277 445.643 332.902 445.643ZM336.642 440.389C335.021 440.389 333.947 439.002 333.947 436.863C333.947 434.744 335.031 433.338 336.642 433.338C338.312 433.338 339.357 434.715 339.357 436.863C339.357 439.021 338.312 440.389 336.642 440.389ZM347.529 442.195C349.443 442.195 350.937 441.424 351.611 440.076C351.699 439.871 351.758 439.676 351.758 439.51C351.758 438.982 351.387 438.65 350.879 438.65C350.576 438.65 350.361 438.758 350.137 439.021C349.355 440.086 348.633 440.486 347.48 440.486C345.801 440.486 344.746 439.314 344.746 437.439V437.391H350.957C351.611 437.391 352.002 437 352.002 436.316C352.002 433.514 350.117 431.541 347.383 431.541C344.473 431.541 342.617 433.65 342.617 436.912C342.617 440.232 344.433 442.195 347.529 442.195ZM344.756 435.916C344.863 434.314 345.918 433.24 347.373 433.24C348.838 433.24 349.844 434.305 349.892 435.916H344.756ZM354.617 442.186C355.242 442.186 355.672 441.756 355.672 441.072V435.828C355.672 434.549 356.258 433.582 357.703 433.572C358.143 433.572 358.455 433.484 358.67 433.299C358.875 433.133 358.982 432.889 358.982 432.557C358.982 432.225 358.894 431.971 358.699 431.814C358.523 431.648 358.24 431.561 357.869 431.561C356.844 431.561 355.896 432.332 355.613 433.484H355.564V432.605C355.564 431.961 355.154 431.541 354.568 431.541C353.973 431.541 353.562 431.961 353.562 432.605V441.072C353.562 441.756 353.982 442.186 354.617 442.186ZM266.097 466.176C267.435 466.176 268.743 465.453 269.339 464.311H269.388V465.18C269.408 465.805 269.808 466.186 270.394 466.186C270.99 466.186 271.409 465.785 271.409 465.121V458.92C271.409 456.859 269.818 455.541 267.327 455.541C265.482 455.541 263.929 456.283 263.392 457.445C263.265 457.68 263.206 457.914 263.206 458.129C263.206 458.656 263.587 459.008 264.115 459.008C264.486 459.008 264.759 458.871 264.974 458.559C265.56 457.621 266.234 457.26 267.249 457.26C268.538 457.26 269.31 457.943 269.31 459.086V459.877L266.488 460.043C264.056 460.18 262.669 461.283 262.669 463.08C262.669 464.926 264.085 466.176 266.097 466.176ZM266.673 464.506C265.55 464.506 264.798 463.92 264.798 463.021C264.798 462.143 265.511 461.586 266.771 461.498L269.31 461.342V462.152C269.31 463.49 268.148 464.506 266.673 464.506ZM277.687 469.867C280.744 469.896 282.609 468.256 282.609 465.717V456.625C282.609 455.941 282.16 455.541 281.554 455.541C280.949 455.541 280.49 455.941 280.49 456.625V457.455H280.451C279.826 456.293 278.693 455.561 277.238 455.561C274.581 455.561 272.921 457.562 272.921 460.775C272.921 463.949 274.601 465.971 277.189 465.971C278.654 465.971 279.865 465.238 280.441 464.125H280.49V465.756C280.49 467.191 279.445 468.168 277.726 468.148C276.72 468.129 275.997 467.748 275.158 466.869C274.874 466.586 274.669 466.479 274.347 466.479C273.81 466.479 273.449 466.83 273.449 467.318C273.449 467.562 273.507 467.777 273.644 468.012C274.347 469.125 275.822 469.848 277.687 469.867ZM277.755 464.252C276.134 464.252 275.079 462.934 275.079 460.785C275.079 458.646 276.134 457.299 277.755 457.299C279.406 457.299 280.499 458.686 280.499 460.795C280.499 462.904 279.406 464.252 277.755 464.252ZM288.915 469.867C291.972 469.896 293.837 468.256 293.837 465.717V456.625C293.837 455.941 293.388 455.541 292.783 455.541C292.177 455.541 291.718 455.941 291.718 456.625V457.455H291.679C291.054 456.293 289.921 455.561 288.466 455.561C285.81 455.561 284.15 457.562 284.15 460.775C284.15 463.949 285.83 465.971 288.417 465.971C289.882 465.971 291.093 465.238 291.669 464.125H291.718V465.756C291.718 467.191 290.673 468.168 288.955 468.148C287.949 468.129 287.226 467.748 286.386 466.869C286.103 466.586 285.898 466.479 285.576 466.479C285.039 466.479 284.677 466.83 284.677 467.318C284.677 467.562 284.736 467.777 284.873 468.012C285.576 469.125 287.05 469.848 288.915 469.867ZM288.984 464.252C287.363 464.252 286.308 462.934 286.308 460.785C286.308 458.646 287.363 457.299 288.984 457.299C290.634 457.299 291.728 458.686 291.728 460.795C291.728 462.904 290.634 464.252 288.984 464.252ZM296.96 454.174C297.644 454.174 298.191 453.627 298.191 452.963C298.191 452.289 297.644 451.762 296.96 451.762C296.287 451.762 295.74 452.289 295.74 452.963C295.74 453.627 296.287 454.174 296.96 454.174ZM296.96 466.186C297.595 466.186 298.015 465.746 298.015 465.072V456.664C298.015 455.98 297.595 455.541 296.96 455.541C296.326 455.541 295.906 455.98 295.906 456.664V465.072C295.906 465.746 296.326 466.186 296.96 466.186ZM303.648 466.186C305.22 466.186 306.265 465.492 306.832 464.262H306.88V465.121C306.88 465.766 307.291 466.186 307.896 466.186C308.502 466.186 308.902 465.766 308.902 465.111V456.664C308.902 455.961 308.472 455.541 307.847 455.541C307.232 455.541 306.793 455.961 306.793 456.664V461.713C306.793 463.314 305.875 464.369 304.351 464.369C302.896 464.369 302.154 463.529 302.154 461.967V456.664C302.154 455.961 301.714 455.541 301.099 455.541C300.474 455.541 300.045 455.961 300.045 456.664V462.377C300.045 464.73 301.412 466.186 303.648 466.186ZM311.966 466.186C312.582 466.186 313.021 465.766 313.021 465.072V460.014C313.021 458.422 313.978 457.367 315.463 457.367C316.927 457.367 317.65 458.217 317.65 459.76V465.072C317.65 465.766 318.09 466.186 318.705 466.186C319.33 466.186 319.769 465.766 319.769 465.072V459.35C319.769 456.996 318.47 455.551 316.205 455.551C314.623 455.551 313.549 456.254 312.992 457.426H312.943V456.615C312.943 455.961 312.523 455.541 311.918 455.541C311.302 455.541 310.912 455.961 310.912 456.605V465.072C310.912 465.766 311.341 466.186 311.966 466.186ZM326.037 469.867C329.094 469.896 330.959 468.256 330.959 465.717V456.625C330.959 455.941 330.51 455.541 329.904 455.541C329.299 455.541 328.84 455.941 328.84 456.625V457.455H328.801C328.176 456.293 327.043 455.561 325.588 455.561C322.931 455.561 321.271 457.562 321.271 460.775C321.271 463.949 322.951 465.971 325.539 465.971C327.004 465.971 328.215 465.238 328.791 464.125H328.84V465.756C328.84 467.191 327.795 468.168 326.076 468.148C325.07 468.129 324.347 467.748 323.508 466.869C323.224 466.586 323.019 466.479 322.697 466.479C322.16 466.479 321.799 466.83 321.799 467.318C321.799 467.562 321.857 467.777 321.994 468.012C322.697 469.125 324.172 469.848 326.037 469.867ZM326.105 464.252C324.484 464.252 323.429 462.934 323.429 460.785C323.429 458.646 324.484 457.299 326.105 457.299C327.756 457.299 328.849 458.686 328.849 460.795C328.849 462.904 327.756 464.252 326.105 464.252ZM337.412 466.195C339.326 466.195 340.82 465.424 341.494 464.076C341.582 463.871 341.64 463.676 341.64 463.51C341.64 462.982 341.269 462.65 340.762 462.65C340.459 462.65 340.244 462.758 340.019 463.021C339.238 464.086 338.515 464.486 337.363 464.486C335.683 464.486 334.629 463.314 334.629 461.439V461.391H340.84C341.494 461.391 341.885 461 341.885 460.316C341.885 457.514 340 455.541 337.265 455.541C334.355 455.541 332.5 457.65 332.5 460.912C332.5 464.232 334.316 466.195 337.412 466.195ZM334.639 459.916C334.746 458.314 335.801 457.24 337.256 457.24C338.721 457.24 339.726 458.305 339.775 459.916H334.639ZM344.5 466.186C345.125 466.186 345.555 465.756 345.555 465.072V459.828C345.555 458.549 346.141 457.582 347.586 457.572C348.025 457.572 348.338 457.484 348.553 457.299C348.758 457.133 348.865 456.889 348.865 456.557C348.865 456.225 348.777 455.971 348.582 455.814C348.406 455.648 348.123 455.561 347.752 455.561C346.726 455.561 345.779 456.332 345.496 457.484H345.447V456.605C345.447 455.961 345.037 455.541 344.451 455.541C343.855 455.541 343.445 455.961 343.445 456.605V465.072C343.445 465.756 343.865 466.186 344.5 466.186ZM353.932 466.195C355.846 466.195 357.34 465.424 358.014 464.076C358.102 463.871 358.16 463.676 358.16 463.51C358.16 462.982 357.789 462.65 357.281 462.65C356.979 462.65 356.764 462.758 356.539 463.021C355.758 464.086 355.035 464.486 353.883 464.486C352.203 464.486 351.148 463.314 351.148 461.439V461.391H357.359C358.014 461.391 358.404 461 358.404 460.316C358.404 457.514 356.52 455.541 353.785 455.541C350.875 455.541 349.02 457.65 349.02 460.912C349.02 464.232 350.836 466.195 353.932 466.195ZM351.158 459.916C351.266 458.314 352.32 457.24 353.775 457.24C355.24 457.24 356.246 458.305 356.295 459.916H351.158Z" fill="black"/>
<path d="M49.2998 96.1406C49.9062 96.1406 50.2842 95.7539 50.2842 95.1211V85.0225H53.3867C53.9316 85.0225 54.3008 84.6885 54.3008 84.1699C54.3008 83.6514 53.9316 83.3174 53.3867 83.3174H45.2041C44.6592 83.3174 44.29 83.6514 44.29 84.1699C44.29 84.6885 44.6592 85.0225 45.2041 85.0225H48.3154V95.1211C48.3154 95.7539 48.6846 96.1406 49.2998 96.1406ZM55.8643 96.1582C57.0684 96.1582 58.2462 95.5078 58.7823 94.4795H58.8263V95.2617C58.8438 95.8242 59.2042 96.167 59.7315 96.167C60.2677 96.167 60.6456 95.8066 60.6456 95.209V89.6279C60.6456 87.7734 59.213 86.5869 56.9718 86.5869C55.3106 86.5869 53.9132 87.2549 53.4298 88.3008C53.3155 88.5117 53.2628 88.7227 53.2628 88.916C53.2628 89.3906 53.6055 89.707 54.0802 89.707C54.4141 89.707 54.6602 89.584 54.8536 89.3027C55.3809 88.459 55.9874 88.1338 56.9014 88.1338C58.0616 88.1338 58.7559 88.749 58.7559 89.7773V90.4893L56.2159 90.6387C54.0274 90.7617 52.7794 91.7549 52.7794 93.3721C52.7794 95.0332 54.0538 96.1582 55.8643 96.1582ZM56.3829 94.6553C55.3721 94.6553 54.6954 94.1279 54.6954 93.3193C54.6954 92.5283 55.337 92.0273 56.4708 91.9482L58.7559 91.8076V92.5371C58.7559 93.7412 57.71 94.6553 56.3829 94.6553ZM63.3605 99.2783C63.9142 99.2783 64.3097 98.8916 64.3097 98.2676V94.4795H64.3537C64.881 95.5078 65.9357 96.1582 67.2629 96.1582C69.5832 96.1582 71.1213 94.3037 71.1213 91.377C71.1213 88.4502 69.5744 86.6045 67.2277 86.6045C65.8918 86.6045 64.8283 87.2812 64.2834 88.3447H64.2482V87.5625C64.2482 86.9561 63.8615 86.5869 63.3254 86.5869C62.7892 86.5869 62.4113 86.9561 62.4113 87.5625V98.2676C62.4113 98.8916 62.798 99.2783 63.3605 99.2783ZM66.7267 94.5498C65.2677 94.5498 64.3009 93.3018 64.3009 91.377C64.3009 89.4697 65.2765 88.2041 66.7267 88.2041C68.2296 88.2041 69.1701 89.4434 69.1701 91.377C69.1701 93.3193 68.2296 94.5498 66.7267 94.5498ZM77.0345 99.2783C77.5882 99.2783 77.9837 98.8916 77.9837 98.2676V94.4795H78.0277C78.555 95.5078 79.6097 96.1582 80.9368 96.1582C83.2571 96.1582 84.7952 94.3037 84.7952 91.377C84.7952 88.4502 83.2484 86.6045 80.9017 86.6045C79.5657 86.6045 78.5023 87.2812 77.9573 88.3447H77.9222V87.5625C77.9222 86.9561 77.5355 86.5869 76.9993 86.5869C76.4632 86.5869 76.0853 86.9561 76.0853 87.5625V98.2676C76.0853 98.8916 76.472 99.2783 77.0345 99.2783ZM80.4007 94.5498C78.9417 94.5498 77.9749 93.3018 77.9749 91.377C77.9749 89.4697 78.9505 88.2041 80.4007 88.2041C81.9036 88.2041 82.8441 89.4434 82.8441 91.377C82.8441 93.3193 81.9036 94.5498 80.4007 94.5498ZM90.1908 96.1758C91.9135 96.1758 93.2582 95.4814 93.8646 94.2686C93.9437 94.084 93.9965 93.9082 93.9965 93.7588C93.9965 93.2842 93.6625 92.9854 93.2055 92.9854C92.933 92.9854 92.7396 93.082 92.5375 93.3193C91.8344 94.2773 91.184 94.6377 90.1469 94.6377C88.6352 94.6377 87.6859 93.583 87.6859 91.8955V91.8516H93.2758C93.8646 91.8516 94.2162 91.5 94.2162 90.8848C94.2162 88.3623 92.5199 86.5869 90.059 86.5869C87.4398 86.5869 85.7699 88.4854 85.7699 91.4209C85.7699 94.4092 87.4047 96.1758 90.1908 96.1758ZM87.6947 90.5244C87.7914 89.083 88.7406 88.1162 90.0502 88.1162C91.3686 88.1162 92.2738 89.0742 92.3178 90.5244H87.6947ZM96.562 96.167C97.1245 96.167 97.5112 95.7803 97.5112 95.165V90.4453C97.5112 89.2939 98.0386 88.4238 99.3393 88.415C99.7348 88.415 100.016 88.3359 100.209 88.1689C100.394 88.0195 100.491 87.7998 100.491 87.501C100.491 87.2021 100.412 86.9736 100.236 86.833C100.078 86.6836 99.8227 86.6045 99.4888 86.6045C98.5659 86.6045 97.7134 87.2988 97.4585 88.3359H97.4145V87.5449C97.4145 86.9648 97.0454 86.5869 96.518 86.5869C95.9819 86.5869 95.6128 86.9648 95.6128 87.5449V95.165C95.6128 95.7803 95.9907 96.167 96.562 96.167ZM45.8896 117.167C46.4609 117.167 46.8389 116.771 46.8389 116.165V111.287C46.8389 110.101 47.6387 109.222 48.7637 109.222C49.8359 109.222 50.5127 109.898 50.5127 110.962V116.165C50.5127 116.771 50.873 117.167 51.4443 117.167C52.0156 117.167 52.376 116.771 52.376 116.165V111.226C52.376 110.057 53.1582 109.222 54.2832 109.222C55.4082 109.222 56.0498 109.907 56.0498 111.103V116.165C56.0498 116.771 56.4277 117.167 56.999 117.167C57.5703 117.167 57.957 116.771 57.957 116.165V110.646C57.957 108.809 56.7617 107.596 54.9336 107.596C53.6152 107.596 52.5254 108.281 52.0508 109.406H52.0068C51.6377 108.255 50.7061 107.596 49.4229 107.596C48.1748 107.596 47.208 108.281 46.7949 109.31H46.751V108.554C46.751 107.947 46.373 107.587 45.8457 107.587C45.3096 107.587 44.9404 107.956 44.9404 108.554V116.165C44.9404 116.771 45.3184 117.167 45.8896 117.167ZM63.6866 117.176C66.3321 117.176 68.0723 115.356 68.0723 112.377C68.0723 109.406 66.3233 107.587 63.6866 107.587C61.0499 107.587 59.3009 109.406 59.3009 112.377C59.3009 115.356 61.0411 117.176 63.6866 117.176ZM63.6866 115.611C62.2013 115.611 61.2345 114.434 61.2345 112.377C61.2345 110.329 62.2013 109.151 63.6866 109.151C65.172 109.151 66.1388 110.329 66.1388 112.377C66.1388 114.434 65.1807 115.611 63.6866 115.611ZM72.9318 117.158C74.3732 117.158 75.3488 116.438 75.8234 115.356H75.8498V116.218C75.8498 116.815 76.2804 117.167 76.8166 117.167C77.3703 117.167 77.757 116.815 77.757 116.218V105.152C77.757 104.528 77.3615 104.15 76.8078 104.15C76.2453 104.15 75.8498 104.528 75.8498 105.152V109.292H75.8146C75.2961 108.272 74.2414 107.604 72.9142 107.604C70.5939 107.604 69.047 109.459 69.047 112.377C69.047 115.295 70.5939 117.158 72.9318 117.158ZM73.4328 115.55C71.9298 115.55 70.9894 114.328 70.9894 112.377C70.9894 110.435 71.9298 109.204 73.4328 109.204C74.8918 109.204 75.8673 110.461 75.8673 112.377C75.8673 114.311 74.8918 115.55 73.4328 115.55ZM80.6389 106.356C81.2541 106.356 81.7463 105.864 81.7463 105.267C81.7463 104.66 81.2541 104.186 80.6389 104.186C80.0325 104.186 79.5403 104.66 79.5403 105.267C79.5403 105.864 80.0325 106.356 80.6389 106.356ZM80.6389 117.167C81.2102 117.167 81.5881 116.771 81.5881 116.165V108.598C81.5881 107.982 81.2102 107.587 80.6389 107.587C80.0676 107.587 79.6897 107.982 79.6897 108.598V116.165C79.6897 116.771 80.0676 117.167 80.6389 117.167ZM84.9622 117.167C85.5335 117.167 85.9114 116.807 85.9114 116.174V109.257H87.1331C87.5814 109.257 87.889 108.993 87.889 108.519C87.889 108.062 87.5814 107.771 87.1331 107.771H85.8851V106.937C85.8851 106.093 86.2191 105.715 87.0189 105.706C87.2122 105.706 87.3704 105.68 87.5023 105.645C87.8099 105.557 87.9593 105.372 87.9593 105.064C87.9593 104.555 87.4759 104.229 86.4652 104.229C84.8743 104.238 84.0042 105.073 84.0042 106.866V107.771H83.345C82.8968 107.771 82.5892 108.062 82.5892 108.519C82.5892 108.993 82.8968 109.257 83.345 109.257H84.0042V116.174C84.0042 116.807 84.3821 117.167 84.9622 117.167ZM90.182 106.356C90.7973 106.356 91.2895 105.864 91.2895 105.267C91.2895 104.66 90.7973 104.186 90.182 104.186C89.5756 104.186 89.0834 104.66 89.0834 105.267C89.0834 105.864 89.5756 106.356 90.182 106.356ZM90.182 117.167C90.7533 117.167 91.1312 116.771 91.1312 116.165V108.598C91.1312 107.982 90.7533 107.587 90.182 107.587C89.6107 107.587 89.2328 107.982 89.2328 108.598V116.165C89.2328 116.771 89.6107 117.167 90.182 117.167ZM96.9487 117.176C98.6626 117.176 100.166 116.271 100.649 114.996C100.719 114.812 100.754 114.653 100.754 114.504C100.754 114.029 100.412 113.713 99.9458 113.713C99.5327 113.713 99.3305 113.871 99.0669 114.328C98.6186 115.128 97.9946 115.585 96.9663 115.585C95.4985 115.585 94.5141 114.39 94.5141 112.377C94.5141 110.408 95.4809 109.169 96.9663 109.169C97.9419 109.169 98.5923 109.591 99.0669 110.47C99.2954 110.892 99.5239 111.05 99.9282 111.05C100.394 111.05 100.737 110.751 100.737 110.268C100.737 110.136 100.702 109.978 100.649 109.828C100.245 108.536 98.7153 107.587 96.9311 107.587C94.2944 107.587 92.5805 109.468 92.5805 112.395C92.5805 115.339 94.3032 117.176 96.9487 117.176ZM104.919 117.158C106.124 117.158 107.301 116.508 107.837 115.479H107.881V116.262C107.899 116.824 108.259 117.167 108.787 117.167C109.323 117.167 109.701 116.807 109.701 116.209V110.628C109.701 108.773 108.268 107.587 106.027 107.587C104.366 107.587 102.968 108.255 102.485 109.301C102.371 109.512 102.318 109.723 102.318 109.916C102.318 110.391 102.661 110.707 103.135 110.707C103.469 110.707 103.715 110.584 103.909 110.303C104.436 109.459 105.043 109.134 105.957 109.134C107.117 109.134 107.811 109.749 107.811 110.777V111.489L105.271 111.639C103.083 111.762 101.835 112.755 101.835 114.372C101.835 116.033 103.109 117.158 104.919 117.158ZM105.438 115.655C104.427 115.655 103.751 115.128 103.751 114.319C103.751 113.528 104.392 113.027 105.526 112.948L107.811 112.808V113.537C107.811 114.741 106.765 115.655 105.438 115.655ZM112.416 117.167C112.978 117.167 113.365 116.78 113.365 116.165V111.445C113.365 110.294 113.892 109.424 115.193 109.415C115.589 109.415 115.87 109.336 116.063 109.169C116.248 109.02 116.344 108.8 116.344 108.501C116.344 108.202 116.265 107.974 116.089 107.833C115.931 107.684 115.676 107.604 115.342 107.604C114.42 107.604 113.567 108.299 113.312 109.336H113.268V108.545C113.268 107.965 112.899 107.587 112.372 107.587C111.836 107.587 111.466 107.965 111.466 108.545V116.165C111.466 116.78 111.844 117.167 112.416 117.167ZM120.896 117.176C122.619 117.176 123.964 116.481 124.57 115.269C124.649 115.084 124.702 114.908 124.702 114.759C124.702 114.284 124.368 113.985 123.911 113.985C123.638 113.985 123.445 114.082 123.243 114.319C122.54 115.277 121.889 115.638 120.852 115.638C119.341 115.638 118.391 114.583 118.391 112.896V112.852H123.981C124.57 112.852 124.922 112.5 124.922 111.885C124.922 109.362 123.225 107.587 120.764 107.587C118.145 107.587 116.475 109.485 116.475 112.421C116.475 115.409 118.11 117.176 120.896 117.176ZM118.4 111.524C118.497 110.083 119.446 109.116 120.756 109.116C122.074 109.116 122.979 110.074 123.023 111.524H118.4ZM45.9512 127.356C46.5664 127.356 47.0586 126.864 47.0586 126.267C47.0586 125.66 46.5664 125.186 45.9512 125.186C45.3447 125.186 44.8525 125.66 44.8525 126.267C44.8525 126.864 45.3447 127.356 45.9512 127.356ZM45.9512 138.167C46.5225 138.167 46.9004 137.771 46.9004 137.165V129.598C46.9004 128.982 46.5225 128.587 45.9512 128.587C45.3799 128.587 45.002 128.982 45.002 129.598V137.165C45.002 137.771 45.3799 138.167 45.9512 138.167ZM49.7823 138.167C50.336 138.167 50.7315 137.789 50.7315 137.165V126.152C50.7315 125.528 50.336 125.15 49.7823 125.15C49.2286 125.15 48.8331 125.528 48.8331 126.152V137.165C48.8331 137.789 49.2286 138.167 49.7823 138.167ZM57.1282 138.167C57.6819 138.167 58.0774 137.789 58.0774 137.165V132.612C58.0774 131.18 58.9387 130.23 60.2746 130.23C61.593 130.23 62.2434 130.995 62.2434 132.384V137.165C62.2434 137.789 62.6389 138.167 63.1926 138.167C63.7551 138.167 64.1506 137.789 64.1506 137.165V132.015C64.1506 129.896 62.9817 128.596 60.9426 128.596C59.5188 128.596 58.552 129.229 58.051 130.283H58.0071V129.554C58.0071 128.965 57.6291 128.587 57.0842 128.587C56.5305 128.587 56.1789 128.965 56.1789 129.545V137.165C56.1789 137.789 56.5657 138.167 57.1282 138.167ZM69.8802 138.176C72.5257 138.176 74.2659 136.356 74.2659 133.377C74.2659 130.406 72.5169 128.587 69.8802 128.587C67.2435 128.587 65.4945 130.406 65.4945 133.377C65.4945 136.356 67.2347 138.176 69.8802 138.176ZM69.8802 136.611C68.3948 136.611 67.428 135.434 67.428 133.377C67.428 131.329 68.3948 130.151 69.8802 130.151C71.3655 130.151 72.3323 131.329 72.3323 133.377C72.3323 135.434 71.3743 136.611 69.8802 136.611ZM76.6029 138.167C77.1742 138.167 77.5521 137.771 77.5521 137.165V132.287C77.5521 131.101 78.352 130.222 79.477 130.222C80.5492 130.222 81.226 130.898 81.226 131.962V137.165C81.226 137.771 81.5863 138.167 82.1576 138.167C82.7289 138.167 83.0893 137.771 83.0893 137.165V132.226C83.0893 131.057 83.8715 130.222 84.9965 130.222C86.1215 130.222 86.7631 130.907 86.7631 132.103V137.165C86.7631 137.771 87.141 138.167 87.7123 138.167C88.2836 138.167 88.6703 137.771 88.6703 137.165V131.646C88.6703 129.809 87.475 128.596 85.6469 128.596C84.3285 128.596 83.2387 129.281 82.7641 130.406H82.7201C82.351 129.255 81.4193 128.596 80.1361 128.596C78.8881 128.596 77.9213 129.281 77.5082 130.31H77.4643V129.554C77.4643 128.947 77.0863 128.587 76.559 128.587C76.0229 128.587 75.6537 128.956 75.6537 129.554V137.165C75.6537 137.771 76.0316 138.167 76.6029 138.167ZM94.435 138.176C96.1577 138.176 97.5024 137.481 98.1089 136.269C98.188 136.084 98.2407 135.908 98.2407 135.759C98.2407 135.284 97.9067 134.985 97.4497 134.985C97.1772 134.985 96.9839 135.082 96.7817 135.319C96.0786 136.277 95.4282 136.638 94.3911 136.638C92.8794 136.638 91.9302 135.583 91.9302 133.896V133.852H97.52C98.1089 133.852 98.4604 133.5 98.4604 132.885C98.4604 130.362 96.7641 128.587 94.3032 128.587C91.6841 128.587 90.0141 130.485 90.0141 133.421C90.0141 136.409 91.6489 138.176 94.435 138.176ZM91.9389 132.524C92.0356 131.083 92.9848 130.116 94.2944 130.116C95.6128 130.116 96.518 131.074 96.562 132.524H91.9389Z" fill="black"/>
<path d="M105.572 122.617C105.361 122.107 104.776 121.865 104.265 122.076C103.755 122.288 103.513 122.873 103.725 123.383L105.572 122.617ZM118.602 158.5C119.113 158.711 119.698 158.469 119.909 157.958L123.35 149.642C123.561 149.132 123.319 148.547 122.808 148.336C122.298 148.125 121.713 148.367 121.502 148.877L118.443 156.27L111.051 153.211C110.541 153 109.956 153.242 109.745 153.752C109.533 154.263 109.776 154.848 110.286 155.059L118.602 158.5ZM103.725 123.383L118.061 157.959L119.909 157.193L105.572 122.617L103.725 123.383Z" fill="black"/>
<path d="M242.451 135.186C243.281 135.186 243.76 134.678 243.76 133.809V125.488H243.838L247.324 134.023C247.568 134.629 247.979 134.912 248.604 134.912C249.219 134.912 249.609 134.639 249.863 134.014L253.35 125.488H253.428V133.809C253.428 134.678 253.906 135.186 254.736 135.186C255.566 135.186 256.055 134.678 256.055 133.809V122.617C256.055 121.416 255.352 120.713 254.16 120.713C253.125 120.713 252.549 121.152 252.119 122.236L248.633 130.898H248.555L245.059 122.236C244.629 121.143 244.062 120.713 243.037 120.713C241.836 120.713 241.133 121.426 241.133 122.617V133.809C241.133 134.678 241.621 135.186 242.451 135.186ZM262.035 135.166C263.344 135.166 264.652 134.512 265.238 133.398H265.297V133.936C265.355 134.775 265.893 135.205 266.664 135.205C267.475 135.205 268.051 134.717 268.051 133.77V127.803C268.051 125.693 266.303 124.307 263.617 124.307C261.449 124.307 259.77 125.078 259.281 126.328C259.184 126.543 259.135 126.748 259.135 126.973C259.135 127.617 259.633 128.066 260.326 128.066C260.785 128.066 261.146 127.891 261.459 127.539C262.094 126.719 262.621 126.436 263.49 126.436C264.564 126.436 265.248 127.002 265.248 127.979V128.672L262.611 128.828C259.994 128.984 258.529 130.088 258.529 131.992C258.529 133.877 260.043 135.166 262.035 135.166ZM262.973 133.105C262.016 133.105 261.371 132.617 261.371 131.836C261.371 131.094 261.977 130.615 263.041 130.537L265.248 130.4V131.162C265.248 132.295 264.223 133.105 262.973 133.105ZM272.322 135.205C273.191 135.205 273.748 134.668 273.748 133.721V129.072C273.748 127.832 274.207 127.1 275.506 127.08C276.062 127.07 276.473 126.943 276.746 126.709C277.02 126.475 277.156 126.133 277.156 125.684C277.156 125.195 277.02 124.844 276.746 124.629C276.541 124.453 276.238 124.365 275.857 124.365C274.812 124.365 273.953 125.137 273.68 126.436H273.621V125.752C273.621 124.844 273.074 124.316 272.273 124.316C271.453 124.316 270.896 124.844 270.896 125.752V133.721C270.896 134.668 271.463 135.205 272.322 135.205ZM279.943 132.324C279.943 134.17 280.91 135.117 282.814 135.117H282.912C284.113 135.117 284.934 134.688 284.934 133.848C284.934 133.184 284.553 132.891 283.85 132.812L283.664 132.793C283.049 132.744 282.795 132.432 282.795 131.689V126.68H283.801C284.475 126.68 284.895 126.26 284.895 125.605C284.895 124.951 284.475 124.531 283.801 124.531H282.795V123.369C282.795 122.451 282.258 121.885 281.369 121.885C280.48 121.885 279.943 122.451 279.943 123.369V124.531H279.396C278.723 124.531 278.293 124.941 278.293 125.605C278.293 126.27 278.723 126.68 279.396 126.68H279.943V132.324ZM291.949 135.225C293.971 135.225 295.592 134.463 296.285 133.174C296.412 132.939 296.48 132.705 296.48 132.48C296.48 131.826 295.982 131.436 295.367 131.436C294.996 131.436 294.742 131.543 294.439 131.855C293.668 132.764 292.984 133.115 291.939 133.115C290.494 133.115 289.557 132.1 289.557 130.547V130.42H295.533C296.324 130.42 296.773 129.971 296.773 129.18C296.773 126.338 294.781 124.307 291.812 124.307C288.717 124.307 286.754 126.445 286.754 129.814C286.754 133.203 288.678 135.225 291.949 135.225ZM289.586 128.672C289.684 127.334 290.592 126.416 291.842 126.416C293.092 126.416 293.971 127.305 294.029 128.672H289.586ZM303.135 135.166C304.746 135.166 305.898 134.326 306.357 133.154H306.406V133.76C306.406 134.717 307.021 135.205 307.842 135.205C308.672 135.205 309.258 134.707 309.258 133.76V122.188C309.258 121.211 308.672 120.693 307.832 120.693C307.002 120.693 306.406 121.211 306.406 122.188V126.328H306.348C305.84 125.166 304.668 124.365 303.154 124.365C300.527 124.365 298.867 126.426 298.867 129.746C298.867 133.096 300.518 135.166 303.135 135.166ZM304.102 132.871C302.666 132.871 301.787 131.689 301.787 129.766C301.787 127.852 302.666 126.65 304.102 126.65C305.518 126.65 306.426 127.861 306.426 129.766C306.426 131.68 305.518 132.871 304.102 132.871ZM313.324 123.389C313.832 123.389 314.213 123.027 314.213 122.568C314.213 122.334 314.154 122.178 314.008 121.963L312.846 120.322C312.475 119.805 312.24 119.658 311.791 119.658C311.205 119.658 310.795 120.039 310.795 120.586C310.795 120.84 310.893 121.074 311.098 121.328L312.396 122.91C312.689 123.262 312.934 123.389 313.324 123.389ZM313.637 135.205C314.516 135.205 315.062 134.648 315.062 133.721V125.811C315.062 124.883 314.516 124.316 313.637 124.316C312.748 124.316 312.211 124.883 312.211 125.811V133.721C312.211 134.648 312.748 135.205 313.637 135.205Z" fill="#727272"/>
</g>
<defs>
<clipPath id="clip0_367_19542">
<rect width="390" height="844" fill="white"/>
</clipPath>
</defs>
</svg>
