<svg width="390" height="844" viewBox="0 0 390 844" fill="none" xmlns="http://www.w3.org/2000/svg">
<g clip-path="url(#clip0_366_20160)">
<rect width="390" height="844" fill="white"/>
<path d="M112.5 193.709C53.0874 190.759 39.5001 176.629 0.000104703 175.209L1.72589e-06 365.209C77.5 397.209 100.607 360.903 134.5 354.209C182.107 344.806 227 371.309 255 379.709C275 385.709 330 364.209 350 359.209C370 354.209 390 365.209 390 365.209L390 175.3C312 171.709 317.5 214.209 231.5 179.709C170.463 155.223 183 197.209 112.5 193.709Z" fill="#E4E4E4"/>
<path d="M241.722 116.384H257.038C258.533 116.384 259.434 115.441 259.434 114.075C259.434 112.67 258.533 111.766 257.038 111.766H246.61V111.65L252.59 105.877C257.114 101.586 258.763 99.4691 258.763 96.0823C258.763 91.3099 254.814 88 248.948 88C243.715 88 240.246 90.8673 239.307 93.9463C239.173 94.3504 239.096 94.7545 239.096 95.1971C239.096 96.6403 240.016 97.564 241.569 97.564C242.815 97.564 243.485 97.0252 244.137 95.8706C245.134 93.6384 246.667 92.5222 248.891 92.5222C251.364 92.5222 253.127 94.1579 253.127 96.4479C253.127 98.4492 252.245 99.7963 248.833 103.087L240.591 110.996C239.422 112.074 239 112.805 239 113.902C239 115.364 239.901 116.384 241.722 116.384Z" fill="black"/>
<path d="M273.516 117C280.11 117 284.729 113.69 284.729 108.879C284.729 105.223 282.065 102.529 278.289 101.778V101.663C281.528 100.835 283.713 98.4685 283.713 95.4857C283.713 91.1367 279.516 88 273.516 88C267.516 88 263.299 91.1559 263.299 95.4665C263.299 98.4877 265.503 100.855 268.762 101.663V101.778C264.986 102.51 262.302 105.204 262.302 108.86C262.302 113.671 266.903 117 273.516 117ZM273.516 99.9117C270.89 99.9117 269.03 98.3338 269.03 96.063C269.03 93.7731 270.89 92.1951 273.516 92.1951C276.123 92.1951 278.001 93.7731 278.001 96.063C278.001 98.3338 276.123 99.9117 273.516 99.9117ZM273.516 112.766C270.468 112.766 268.34 110.958 268.34 108.437C268.34 105.935 270.468 104.145 273.516 104.145C276.564 104.145 278.672 105.935 278.672 108.437C278.672 110.958 276.564 112.766 273.516 112.766Z" fill="black"/>
<path d="M299.169 116.75C300.99 116.75 302.064 115.634 302.064 113.729V105.454H311.169C312.683 105.454 313.641 104.588 313.641 103.145C313.641 101.721 312.664 100.855 311.169 100.855H302.064V93.4267H312.108C313.68 93.4267 314.734 92.5222 314.734 91.0212C314.734 89.5202 313.699 88.6158 312.108 88.6158H299.169C297.348 88.6158 296.275 89.7319 296.275 91.637V113.729C296.275 115.634 297.348 116.75 299.169 116.75Z" fill="black"/>
<path d="M326.152 116.827C330.12 116.827 333.302 115.326 334.663 112.786C334.912 112.324 335.046 111.862 335.046 111.419C335.046 110.13 334.068 109.36 332.861 109.36C332.132 109.36 331.634 109.572 331.04 110.188C329.525 111.977 328.184 112.67 326.133 112.67C323.296 112.67 321.456 110.669 321.456 107.609V107.359H333.187C334.739 107.359 335.621 106.474 335.621 104.915C335.621 99.3152 331.711 95.3125 325.883 95.3125C319.807 95.3125 315.954 99.5269 315.954 106.166C315.954 112.843 319.73 116.827 326.152 116.827ZM321.513 103.914C321.705 101.278 323.487 99.4691 325.941 99.4691C328.395 99.4691 330.12 101.22 330.235 103.914H321.513Z" fill="black"/>
<path d="M341.327 116.788C342.956 116.788 344.106 115.807 344.106 113.94V112.843H344.221C345.371 115.249 347.652 116.711 350.662 116.711C355.856 116.711 359 112.709 359 106.07C359 99.4114 355.837 95.428 350.643 95.428C347.729 95.428 345.429 96.8905 344.298 99.3344H344.183V91.1367C344.183 89.2123 343.033 88.1924 341.384 88.1924C339.755 88.1924 338.586 89.2123 338.586 91.1367V113.94C338.586 115.826 339.717 116.788 341.327 116.788ZM348.745 112.189C346.023 112.189 344.164 109.803 344.164 106.07C344.164 102.375 346.023 99.931 348.745 99.931C351.524 99.931 353.269 102.317 353.269 106.07C353.269 109.841 351.524 112.189 348.745 112.189Z" fill="black"/>
<path d="M326.875 134.788H331.798C332.278 134.788 332.568 134.463 332.568 133.992C332.568 133.508 332.278 133.196 331.798 133.196H328.446V133.156L330.368 131.167C331.822 129.688 332.352 128.959 332.352 127.792C332.352 126.147 331.083 125.007 329.198 125.007C327.516 125.007 326.4 125.995 326.099 127.056C326.055 127.195 326.031 127.334 326.031 127.487C326.031 127.984 326.327 128.302 326.826 128.302C327.226 128.302 327.442 128.117 327.651 127.719C327.972 126.95 328.464 126.565 329.179 126.565C329.974 126.565 330.541 127.129 330.541 127.918C330.541 128.607 330.257 129.072 329.161 130.206L326.511 132.931C326.136 133.302 326 133.554 326 133.932C326 134.436 326.29 134.788 326.875 134.788Z" fill="black"/>
<path d="M337.039 135C339.294 135 340.662 133.07 340.662 129.98C340.662 126.89 339.282 125 337.039 125C334.797 125 333.41 126.897 333.41 129.987C333.41 133.084 334.784 135 337.039 135ZM337.039 133.395C335.942 133.395 335.302 132.182 335.302 129.987C335.302 127.812 335.955 126.605 337.039 126.605C338.13 126.605 338.77 127.805 338.77 129.987C338.77 132.182 338.136 133.395 337.039 133.395Z" fill="black"/>
<path d="M342.546 134.788H347.468C347.949 134.788 348.239 134.463 348.239 133.992C348.239 133.508 347.949 133.196 347.468 133.196H344.117V133.156L346.039 131.167C347.493 129.688 348.023 128.959 348.023 127.792C348.023 126.147 346.754 125.007 344.868 125.007C343.186 125.007 342.071 125.995 341.769 127.056C341.726 127.195 341.702 127.334 341.702 127.487C341.702 127.984 341.997 128.302 342.496 128.302C342.897 128.302 343.113 128.117 343.322 127.719C343.642 126.95 344.135 126.565 344.85 126.565C345.645 126.565 346.212 127.129 346.212 127.918C346.212 128.607 345.928 129.072 344.831 130.206L342.182 132.931C341.806 133.302 341.671 133.554 341.671 133.932C341.671 134.436 341.96 134.788 342.546 134.788Z" fill="black"/>
<path d="M352.537 135C354.601 135 356 133.846 356 132.109C356 130.789 355.144 129.954 353.819 129.821V129.781C354.866 129.549 355.673 128.753 355.673 127.54C355.673 126.008 354.404 125.007 352.525 125.007C350.954 125.007 349.944 125.789 349.549 126.724C349.457 126.95 349.414 127.142 349.414 127.367C349.414 127.851 349.679 128.176 350.196 128.176C350.615 128.176 350.831 128.011 351.034 127.56C351.324 126.883 351.78 126.545 352.531 126.545C353.431 126.545 353.911 127.056 353.911 127.825C353.911 128.607 353.308 129.151 352.377 129.151H352.014C351.564 129.151 351.305 129.443 351.305 129.861C351.305 130.292 351.564 130.577 352.014 130.577H352.402C353.48 130.577 354.115 131.094 354.109 132.023C354.109 132.818 353.48 133.389 352.568 133.389C351.644 133.389 351.164 132.991 350.849 132.321C350.665 131.956 350.43 131.797 350.061 131.797C349.549 131.797 349.241 132.122 349.241 132.639C349.241 132.838 349.284 133.05 349.383 133.269C349.802 134.211 350.843 135 352.537 135Z" fill="black"/>
<path d="M217.906 135.186C218.834 135.186 219.381 134.619 219.381 133.652V123.35H222.301C223.092 123.35 223.629 122.891 223.629 122.129C223.629 121.367 223.102 120.908 222.301 120.908H213.521C212.711 120.908 212.184 121.367 212.184 122.129C212.184 122.891 212.721 123.35 213.521 123.35H216.432V133.652C216.432 134.619 216.979 135.186 217.906 135.186ZM228.359 135.225C230.381 135.225 232.002 134.463 232.695 133.174C232.822 132.939 232.891 132.705 232.891 132.48C232.891 131.826 232.393 131.436 231.777 131.436C231.406 131.436 231.152 131.543 230.85 131.855C230.078 132.764 229.395 133.115 228.35 133.115C226.904 133.115 225.967 132.1 225.967 130.547V130.42H231.943C232.734 130.42 233.184 129.971 233.184 129.18C233.184 126.338 231.191 124.307 228.223 124.307C225.127 124.307 223.164 126.445 223.164 129.814C223.164 133.203 225.088 135.225 228.359 135.225ZM225.996 128.672C226.094 127.334 227.002 126.416 228.252 126.416C229.502 126.416 230.381 127.305 230.439 128.672H225.996ZM237.084 135.205C237.953 135.205 238.51 134.668 238.51 133.721V129.072C238.51 127.832 238.969 127.1 240.268 127.08C240.824 127.07 241.234 126.943 241.508 126.709C241.781 126.475 241.918 126.133 241.918 125.684C241.918 125.195 241.781 124.844 241.508 124.629C241.303 124.453 241 124.365 240.619 124.365C239.574 124.365 238.715 125.137 238.441 126.436H238.383V125.752C238.383 124.844 237.836 124.316 237.035 124.316C236.215 124.316 235.658 124.844 235.658 125.752V133.721C235.658 134.668 236.225 135.205 237.084 135.205ZM248.133 139.492C249.578 139.492 250.506 138.848 250.506 137.666C250.506 136.67 249.773 136.074 248.67 136.064L249.08 135.186C250.779 134.98 252.225 134.053 252.771 132.812C252.908 132.52 252.967 132.285 252.967 132.061C252.967 131.357 252.43 130.918 251.766 130.918C251.16 130.918 250.848 131.162 250.467 131.758C250.027 132.5 249.412 132.988 248.416 132.988C246.99 132.988 246.102 131.816 246.102 129.756C246.102 127.734 246.99 126.543 248.436 126.543C249.344 126.543 249.979 126.963 250.496 127.881C250.789 128.398 251.131 128.623 251.697 128.623C252.371 128.623 252.918 128.213 252.918 127.51C252.918 127.305 252.859 127.051 252.762 126.807C252.195 125.322 250.447 124.307 248.348 124.307C245.203 124.307 243.211 126.416 243.211 129.766C243.211 132.852 244.861 134.844 247.547 135.176L247.166 136.006C247.059 136.221 247 136.416 247 136.602C247 136.973 247.283 137.207 247.732 137.207H247.938C248.562 137.207 248.865 137.373 248.865 137.725C248.865 138.096 248.533 138.281 247.889 138.281C247.605 138.281 247.381 138.232 247.176 138.232C246.814 138.232 246.59 138.428 246.59 138.74C246.59 139.062 246.785 139.277 247.205 139.385C247.449 139.453 247.752 139.492 248.133 139.492ZM258.586 135.166C259.895 135.166 261.203 134.512 261.789 133.398H261.848V133.936C261.906 134.775 262.443 135.205 263.215 135.205C264.025 135.205 264.602 134.717 264.602 133.77V127.803C264.602 125.693 262.854 124.307 260.168 124.307C258 124.307 256.32 125.078 255.832 126.328C255.734 126.543 255.686 126.748 255.686 126.973C255.686 127.617 256.184 128.066 256.877 128.066C257.336 128.066 257.697 127.891 258.01 127.539C258.645 126.719 259.172 126.436 260.041 126.436C261.115 126.436 261.799 127.002 261.799 127.979V128.672L259.162 128.828C256.545 128.984 255.08 130.088 255.08 131.992C255.08 133.877 256.594 135.166 258.586 135.166ZM259.523 133.105C258.566 133.105 257.922 132.617 257.922 131.836C257.922 131.094 258.527 130.615 259.592 130.537L261.799 130.4V131.162C261.799 132.295 260.773 133.105 259.523 133.105ZM268.902 130.518H272.975C273.746 130.518 274.322 130.059 274.322 129.268C274.322 128.477 273.746 128.027 272.975 128.027H268.902C268.131 128.027 267.555 128.477 267.555 129.268C267.555 130.059 268.131 130.518 268.902 130.518ZM279.482 135.205C280.322 135.205 280.908 134.707 280.908 133.721V126.68H282.041C282.637 126.68 283.086 126.299 283.086 125.625C283.086 124.961 282.637 124.58 282.041 124.58H280.84V123.916C280.84 123.145 281.191 122.793 282.07 122.764C282.285 122.754 282.461 122.725 282.617 122.686C282.998 122.568 283.193 122.334 283.193 121.934C283.193 121.26 282.559 120.781 281.045 120.781C279.072 120.801 278.057 121.719 278.057 123.789V124.58H277.51C276.914 124.58 276.465 124.961 276.465 125.625C276.465 126.299 276.914 126.68 277.51 126.68H278.057V133.721C278.057 134.707 278.633 135.205 279.482 135.205ZM289.945 135.225C291.967 135.225 293.588 134.463 294.281 133.174C294.408 132.939 294.477 132.705 294.477 132.48C294.477 131.826 293.979 131.436 293.363 131.436C292.992 131.436 292.738 131.543 292.436 131.855C291.664 132.764 290.98 133.115 289.936 133.115C288.49 133.115 287.553 132.1 287.553 130.547V130.42H293.529C294.32 130.42 294.77 129.971 294.77 129.18C294.77 126.338 292.777 124.307 289.809 124.307C286.713 124.307 284.75 126.445 284.75 129.814C284.75 133.203 286.674 135.225 289.945 135.225ZM287.582 128.672C287.68 127.334 288.588 126.416 289.838 126.416C291.088 126.416 291.967 127.305 292.025 128.672H287.582ZM298.719 123.232C299.578 123.232 300.242 122.578 300.242 121.758C300.242 120.928 299.578 120.283 298.719 120.283C297.859 120.283 297.195 120.928 297.195 121.758C297.195 122.578 297.859 123.232 298.719 123.232ZM298.719 135.205C299.598 135.205 300.145 134.648 300.145 133.721V125.811C300.145 124.883 299.598 124.316 298.719 124.316C297.83 124.316 297.293 124.883 297.293 125.811V133.721C297.293 134.648 297.83 135.205 298.719 135.205ZM304.475 135.205C305.344 135.205 305.9 134.668 305.9 133.721V129.072C305.9 127.832 306.359 127.1 307.658 127.08C308.215 127.07 308.625 126.943 308.898 126.709C309.172 126.475 309.309 126.133 309.309 125.684C309.309 125.195 309.172 124.844 308.898 124.629C308.693 124.453 308.391 124.365 308.01 124.365C306.965 124.365 306.105 125.137 305.832 126.436H305.773V125.752C305.773 124.844 305.227 124.316 304.426 124.316C303.605 124.316 303.049 124.844 303.049 125.752V133.721C303.049 134.668 303.615 135.205 304.475 135.205ZM314.176 135.166C315.484 135.166 316.793 134.512 317.379 133.398H317.438V133.936C317.496 134.775 318.033 135.205 318.805 135.205C319.615 135.205 320.191 134.717 320.191 133.77V127.803C320.191 125.693 318.443 124.307 315.758 124.307C313.59 124.307 311.91 125.078 311.422 126.328C311.324 126.543 311.275 126.748 311.275 126.973C311.275 127.617 311.773 128.066 312.467 128.066C312.926 128.066 313.287 127.891 313.6 127.539C314.234 126.719 314.762 126.436 315.631 126.436C316.705 126.436 317.389 127.002 317.389 127.979V128.672L314.752 128.828C312.135 128.984 310.67 130.088 310.67 131.992C310.67 133.877 312.184 135.166 314.176 135.166ZM315.113 133.105C314.156 133.105 313.512 132.617 313.512 131.836C313.512 131.094 314.117 130.615 315.182 130.537L317.389 130.4V131.162C317.389 132.295 316.363 133.105 315.113 133.105Z" fill="black"/>
<path d="M37.4844 190.375C44.1562 190.375 48.3594 185.906 48.3594 178.734C48.3594 171.547 44.1562 167.062 37.4844 167.062C30.7969 167.062 26.6094 171.547 26.6094 178.734C26.6094 185.906 30.7969 190.375 37.4844 190.375ZM37.4844 186.438C33.7812 186.438 31.4219 183.453 31.4219 178.734C31.4219 174 33.7969 171 37.4844 171C41.1719 171 43.5312 174 43.5312 178.734C43.5312 183.453 41.1719 186.438 37.4844 186.438ZM64.1875 190.359C68.6094 190.359 71.5938 188.203 71.5938 184.875C71.5938 182.375 70.125 181.062 66.5625 180.312L63.7969 179.719C62.125 179.359 61.4688 178.781 61.4688 177.906C61.4688 176.828 62.5469 176.094 64.0938 176.094C65.7344 176.094 66.6406 176.875 67.4375 177.891C67.8438 178.375 68.5 178.594 69.0938 178.594C70.2656 178.594 70.8438 177.953 70.8438 177.031C70.8438 176.812 70.7969 176.594 70.7344 176.359C70.1875 174.469 67.6406 172.891 64.1719 172.891C59.8281 172.891 57.0625 174.953 57.0625 178.156C57.0625 180.641 58.7188 182.312 62 183.016L64.8125 183.609C66.4531 183.969 67.0312 184.453 67.0312 185.359C67.0312 186.469 65.9531 187.156 64.2969 187.156C62.5625 187.156 61.5312 186.625 60.6406 185.453C60.0156 184.75 59.3906 184.422 58.6562 184.422C57.5938 184.422 56.8125 185.125 56.8125 186.172C56.8125 186.422 56.875 186.719 56.9844 187.016C57.7812 188.984 60.3438 190.359 64.1875 190.359ZM81.5625 190.359C84.7969 190.359 87.3906 189.141 88.5 187.078C88.7031 186.703 88.8125 186.328 88.8125 185.969C88.8125 184.922 88.0156 184.297 87.0312 184.297C86.4375 184.297 86.0312 184.469 85.5469 184.969C84.3125 186.422 83.2188 186.984 81.5469 186.984C79.2344 186.984 77.7344 185.359 77.7344 182.875V182.672H87.2969C88.5625 182.672 89.2812 181.953 89.2812 180.688C89.2812 176.141 86.0938 172.891 81.3438 172.891C76.3906 172.891 73.25 176.312 73.25 181.703C73.25 187.125 76.3281 190.359 81.5625 190.359ZM77.7812 179.875C77.9375 177.734 79.3906 176.266 81.3906 176.266C83.3906 176.266 84.7969 177.688 84.8906 179.875H77.7812ZM97.5938 190.312C100.125 190.312 101.781 189.094 102.609 186.984H102.703V188.016C102.703 189.531 103.594 190.328 104.906 190.328C106.219 190.328 107.109 189.531 107.109 188.016V175.297C107.109 173.734 106.172 172.906 104.828 172.906C103.5 172.906 102.547 173.734 102.547 175.297V182.844C102.547 185.062 101.281 186.516 99.25 186.516C97.2344 186.516 96.125 185.328 96.125 183.094V175.297C96.125 173.734 95.1875 172.906 93.8438 172.906C92.5156 172.906 91.5625 173.734 91.5625 175.297V184.047C91.5625 187.953 93.9688 190.312 97.5938 190.312ZM119.922 190.328C121.266 190.328 122.203 189.531 122.203 187.953V176.688H124.016C124.969 176.688 125.688 176.078 125.688 175C125.688 173.938 124.969 173.328 124.016 173.328H122.094V172.266C122.094 171.031 122.656 170.469 124.062 170.422C124.406 170.406 124.688 170.359 124.938 170.297C125.547 170.109 125.859 169.734 125.859 169.094C125.859 168.016 124.844 167.25 122.422 167.25C119.266 167.281 117.641 168.75 117.641 172.062V173.328H116.766C115.812 173.328 115.094 173.938 115.094 175C115.094 176.078 115.812 176.688 116.766 176.688H117.641V187.953C117.641 189.531 118.562 190.328 119.922 190.328ZM130.219 190.328C131.562 190.328 132.5 189.516 132.5 187.953V169.5C132.5 167.938 131.562 167.109 130.219 167.109C128.891 167.109 127.938 167.938 127.938 169.5V187.953C127.938 189.516 128.891 190.328 130.219 190.328ZM143.266 190.359C148.328 190.359 151.562 187.125 151.562 181.609C151.562 176.172 148.281 172.891 143.266 172.891C138.25 172.891 134.969 176.188 134.969 181.609C134.969 187.109 138.203 190.359 143.266 190.359ZM143.266 186.875C141.016 186.875 139.594 184.984 139.594 181.625C139.594 178.297 141.047 176.375 143.266 176.375C145.484 176.375 146.922 178.297 146.922 181.625C146.922 184.984 145.5 186.875 143.266 186.875ZM159.391 190.328C161.016 190.328 161.922 189.594 162.312 187.938L164.844 178.156H164.938L167.484 187.906C167.875 189.609 168.766 190.328 170.438 190.328C172.016 190.328 172.891 189.578 173.359 187.922L176.734 176.234C176.906 175.641 176.984 175.266 176.984 174.844C176.984 173.703 176.094 172.906 174.828 172.906C173.703 172.906 172.969 173.594 172.719 174.812L170.219 185.672H170.125L167.516 175C167.219 173.641 166.328 172.906 164.969 172.906C163.578 172.906 162.688 173.641 162.391 175L159.797 185.672H159.703L157.219 174.844C156.953 173.594 156.219 172.906 155.078 172.906C153.797 172.906 152.875 173.719 152.875 174.859C152.875 175.297 152.953 175.672 153.125 176.266L156.5 187.938C156.984 189.594 157.812 190.328 159.391 190.328Z" fill="black"/>
<circle cx="179.833" cy="282.666" r="45.8333" fill="black"/>
<circle cx="243.083" cy="235.917" r="22.9167" fill="black"/>
<circle cx="198.625" cy="218.958" r="11.4583" fill="black"/>
<path d="M180.5 294.805C181.648 294.805 182.398 293.938 182.398 292.789V284.562H190.156C191.305 284.562 192.172 283.812 192.172 282.664C192.172 281.516 191.305 280.766 190.156 280.766H182.398V272.516C182.398 271.367 181.648 270.5 180.5 270.5C179.352 270.5 178.602 271.367 178.602 272.516V280.766H170.82C169.672 280.766 168.805 281.516 168.805 282.664C168.805 283.812 169.672 284.562 170.82 284.562H178.602V292.789C178.602 293.938 179.352 294.805 180.5 294.805Z" fill="white"/>
<circle cx="395.831" cy="276.227" r="25" transform="rotate(-106.749 395.831 276.227)" fill="#636363"/>
<circle cx="361.47" cy="250.54" r="12.5" transform="rotate(-106.749 361.47 250.54)" fill="#636363"/>
<circle cx="359.601" cy="276.427" r="6.25" transform="rotate(-106.749 359.601 276.427)" fill="#636363"/>
<circle cx="8.23274" cy="256.201" r="25" transform="rotate(96.1909 8.23274 256.201)" fill="#636363"/>
<circle cx="29.8636" cy="293.25" r="12.5" transform="rotate(96.1909 29.8636 293.25)" fill="#636363"/>
<circle cx="41.6747" cy="270.139" r="6.25" transform="rotate(96.1909 41.6747 270.139)" fill="#636363"/>
<path d="M328.125 334.186C328.906 334.186 329.346 333.795 329.619 332.857L330.361 330.66H335.449L336.191 332.887C336.455 333.805 336.895 334.186 337.725 334.186C338.584 334.186 339.199 333.609 339.199 332.799C339.199 332.506 339.15 332.242 339.014 331.861L335.146 321.373C334.727 320.221 334.043 319.713 332.891 319.713C331.777 319.713 331.084 320.24 330.674 321.383L326.826 331.861C326.699 332.223 326.631 332.555 326.631 332.799C326.631 333.648 327.207 334.186 328.125 334.186ZM331.006 328.375L332.832 322.604H332.9L334.766 328.375H331.006ZM342.178 337.73C343.018 337.73 343.604 337.223 343.604 336.246V332.242H343.662C344.219 333.424 345.391 334.166 346.914 334.166C349.531 334.166 351.152 332.135 351.152 328.766C351.152 325.387 349.521 323.365 346.865 323.365C345.352 323.365 344.189 324.127 343.623 325.357H343.564V324.791C343.564 323.824 342.979 323.316 342.158 323.316C341.338 323.316 340.752 323.824 340.752 324.781V336.246C340.752 337.223 341.348 337.73 342.178 337.73ZM345.908 331.871C344.512 331.871 343.594 330.66 343.594 328.766C343.594 326.891 344.512 325.65 345.908 325.65C347.334 325.65 348.232 326.871 348.232 328.766C348.232 330.67 347.334 331.871 345.908 331.871ZM354.053 334.205C354.922 334.205 355.479 333.668 355.479 332.721V328.072C355.479 326.832 355.938 326.1 357.236 326.08C357.793 326.07 358.203 325.943 358.477 325.709C358.75 325.475 358.887 325.133 358.887 324.684C358.887 324.195 358.75 323.844 358.477 323.629C358.271 323.453 357.969 323.365 357.588 323.365C356.543 323.365 355.684 324.137 355.41 325.436H355.352V324.752C355.352 323.844 354.805 323.316 354.004 323.316C353.184 323.316 352.627 323.844 352.627 324.752V332.721C352.627 333.668 353.193 334.205 354.053 334.205ZM364.375 334.225C366.396 334.225 368.018 333.463 368.711 332.174C368.838 331.939 368.906 331.705 368.906 331.48C368.906 330.826 368.408 330.436 367.793 330.436C367.422 330.436 367.168 330.543 366.865 330.855C366.094 331.764 365.41 332.115 364.365 332.115C362.92 332.115 361.982 331.1 361.982 329.547V329.42H367.959C368.75 329.42 369.199 328.971 369.199 328.18C369.199 325.338 367.207 323.307 364.238 323.307C361.143 323.307 359.18 325.445 359.18 328.814C359.18 332.203 361.104 334.225 364.375 334.225ZM362.012 327.672C362.109 326.334 363.018 325.416 364.268 325.416C365.518 325.416 366.396 326.305 366.455 327.672H362.012ZM374.941 334.225C377.705 334.225 379.57 332.877 379.57 330.797C379.57 329.234 378.652 328.414 376.426 327.945L374.697 327.574C373.652 327.35 373.242 326.988 373.242 326.441C373.242 325.768 373.916 325.309 374.883 325.309C375.908 325.309 376.475 325.797 376.973 326.432C377.227 326.734 377.637 326.871 378.008 326.871C378.74 326.871 379.102 326.471 379.102 325.895C379.102 325.758 379.072 325.621 379.033 325.475C378.691 324.293 377.1 323.307 374.932 323.307C372.217 323.307 370.488 324.596 370.488 326.598C370.488 328.15 371.523 329.195 373.574 329.635L375.332 330.006C376.357 330.23 376.719 330.533 376.719 331.1C376.719 331.793 376.045 332.223 375.01 332.223C373.926 332.223 373.281 331.891 372.725 331.158C372.334 330.719 371.943 330.514 371.484 330.514C370.82 330.514 370.332 330.953 370.332 331.607C370.332 331.764 370.371 331.949 370.439 332.135C370.938 333.365 372.539 334.225 374.941 334.225ZM385.801 334.225C387.822 334.225 389.443 333.463 390.137 332.174C390.264 331.939 390.332 331.705 390.332 331.48C390.332 330.826 389.834 330.436 389.219 330.436C388.848 330.436 388.594 330.543 388.291 330.855C387.52 331.764 386.836 332.115 385.791 332.115C384.346 332.115 383.408 331.1 383.408 329.547V329.42H389.385C390.176 329.42 390.625 328.971 390.625 328.18C390.625 325.338 388.633 323.307 385.664 323.307C382.568 323.307 380.605 325.445 380.605 328.814C380.605 332.203 382.529 334.225 385.801 334.225ZM383.438 327.672C383.535 326.334 384.443 325.416 385.693 325.416C386.943 325.416 387.822 326.305 387.881 327.672H383.438ZM393.525 334.205C394.365 334.205 394.951 333.697 394.951 332.721V327.994C394.951 326.637 395.762 325.699 397.041 325.699C398.32 325.699 398.965 326.48 398.965 327.848V332.721C398.965 333.697 399.551 334.205 400.391 334.205C401.221 334.205 401.816 333.697 401.816 332.721V327.252C401.816 324.801 400.508 323.336 398.184 323.336C396.572 323.336 395.518 324.049 394.961 325.348H394.902V324.762C394.902 323.863 394.336 323.316 393.477 323.316C392.617 323.316 392.1 323.863 392.1 324.752V332.721C392.1 333.697 392.695 334.205 393.525 334.205ZM404.385 331.324C404.385 333.17 405.352 334.117 407.256 334.117H407.354C408.555 334.117 409.375 333.688 409.375 332.848C409.375 332.184 408.994 331.891 408.291 331.812L408.105 331.793C407.49 331.744 407.236 331.432 407.236 330.689V325.68H408.242C408.916 325.68 409.336 325.26 409.336 324.605C409.336 323.951 408.916 323.531 408.242 323.531H407.236V322.369C407.236 321.451 406.699 320.885 405.811 320.885C404.922 320.885 404.385 321.451 404.385 322.369V323.531H403.838C403.164 323.531 402.734 323.941 402.734 324.605C402.734 325.27 403.164 325.68 403.838 325.68H404.385V331.324ZM413.73 334.166C415.039 334.166 416.348 333.512 416.934 332.398H416.992V332.936C417.051 333.775 417.588 334.205 418.359 334.205C419.17 334.205 419.746 333.717 419.746 332.77V326.803C419.746 324.693 417.998 323.307 415.312 323.307C413.145 323.307 411.465 324.078 410.977 325.328C410.879 325.543 410.83 325.748 410.83 325.973C410.83 326.617 411.328 327.066 412.021 327.066C412.48 327.066 412.842 326.891 413.154 326.539C413.789 325.719 414.316 325.436 415.186 325.436C416.26 325.436 416.943 326.002 416.943 326.979V327.672L414.307 327.828C411.689 327.984 410.225 329.088 410.225 330.992C410.225 332.877 411.738 334.166 413.73 334.166ZM414.668 332.105C413.711 332.105 413.066 331.617 413.066 330.836C413.066 330.094 413.672 329.615 414.736 329.537L416.943 329.4V330.162C416.943 331.295 415.918 332.105 414.668 332.105ZM426.133 338.492C427.578 338.492 428.506 337.848 428.506 336.666C428.506 335.67 427.773 335.074 426.67 335.064L427.08 334.186C428.779 333.98 430.225 333.053 430.771 331.812C430.908 331.52 430.967 331.285 430.967 331.061C430.967 330.357 430.43 329.918 429.766 329.918C429.16 329.918 428.848 330.162 428.467 330.758C428.027 331.5 427.412 331.988 426.416 331.988C424.99 331.988 424.102 330.816 424.102 328.756C424.102 326.734 424.99 325.543 426.436 325.543C427.344 325.543 427.979 325.963 428.496 326.881C428.789 327.398 429.131 327.623 429.697 327.623C430.371 327.623 430.918 327.213 430.918 326.51C430.918 326.305 430.859 326.051 430.762 325.807C430.195 324.322 428.447 323.307 426.348 323.307C423.203 323.307 421.211 325.416 421.211 328.766C421.211 331.852 422.861 333.844 425.547 334.176L425.166 335.006C425.059 335.221 425 335.416 425 335.602C425 335.973 425.283 336.207 425.732 336.207H425.938C426.562 336.207 426.865 336.373 426.865 336.725C426.865 337.096 426.533 337.281 425.889 337.281C425.605 337.281 425.381 337.232 425.176 337.232C424.814 337.232 424.59 337.428 424.59 337.74C424.59 338.062 424.785 338.277 425.205 338.385C425.449 338.453 425.752 338.492 426.133 338.492ZM434.492 322.213C434.941 322.213 435.166 321.959 435.264 321.529C435.371 320.973 435.576 320.777 435.908 320.777C436.641 320.777 437.139 322.105 438.496 322.105C439.648 322.105 440.576 321.197 440.576 319.957C440.576 319.498 440.264 319.186 439.814 319.186C439.365 319.186 439.15 319.43 439.043 319.889C438.936 320.416 438.74 320.611 438.428 320.611C437.705 320.611 437.227 319.293 435.84 319.293C434.658 319.293 433.74 320.172 433.74 321.432C433.74 321.9 434.043 322.213 434.492 322.213ZM435.586 334.166C436.895 334.166 438.203 333.512 438.789 332.398H438.848V332.936C438.906 333.775 439.443 334.205 440.215 334.205C441.025 334.205 441.602 333.717 441.602 332.77V326.803C441.602 324.693 439.854 323.307 437.168 323.307C435 323.307 433.32 324.078 432.832 325.328C432.734 325.543 432.686 325.748 432.686 325.973C432.686 326.617 433.184 327.066 433.877 327.066C434.336 327.066 434.697 326.891 435.01 326.539C435.645 325.719 436.172 325.436 437.041 325.436C438.115 325.436 438.799 326.002 438.799 326.979V327.672L436.162 327.828C433.545 327.984 432.08 329.088 432.08 330.992C432.08 332.877 433.594 334.166 435.586 334.166ZM436.523 332.105C435.566 332.105 434.922 331.617 434.922 330.836C434.922 330.094 435.527 329.615 436.592 329.537L438.799 329.4V330.162C438.799 331.295 437.773 332.105 436.523 332.105ZM448.252 334.225C451.416 334.225 453.438 332.203 453.438 328.756C453.438 325.357 451.387 323.307 448.252 323.307C445.117 323.307 443.066 325.367 443.066 328.756C443.066 332.193 445.088 334.225 448.252 334.225ZM448.252 332.047C446.846 332.047 445.957 330.865 445.957 328.766C445.957 326.686 446.865 325.484 448.252 325.484C449.639 325.484 450.537 326.686 450.537 328.766C450.537 330.865 449.648 332.047 448.252 332.047Z" fill="black"/>
<path d="M-61.875 334.186C-61.0938 334.186 -60.6543 333.795 -60.3809 332.857L-59.6387 330.66H-54.5508L-53.8086 332.887C-53.5449 333.805 -53.1055 334.186 -52.2754 334.186C-51.416 334.186 -50.8008 333.609 -50.8008 332.799C-50.8008 332.506 -50.8496 332.242 -50.9863 331.861L-54.8535 321.373C-55.2734 320.221 -55.957 319.713 -57.1094 319.713C-58.2227 319.713 -58.916 320.24 -59.3262 321.383L-63.1738 331.861C-63.3008 332.223 -63.3691 332.555 -63.3691 332.799C-63.3691 333.648 -62.793 334.186 -61.875 334.186ZM-58.9941 328.375L-57.168 322.604H-57.0996L-55.2344 328.375H-58.9941ZM-47.8223 337.73C-46.9824 337.73 -46.3965 337.223 -46.3965 336.246V332.242H-46.3379C-45.7812 333.424 -44.6094 334.166 -43.0859 334.166C-40.4688 334.166 -38.8477 332.135 -38.8477 328.766C-38.8477 325.387 -40.4785 323.365 -43.1348 323.365C-44.6484 323.365 -45.8105 324.127 -46.377 325.357H-46.4355V324.791C-46.4355 323.824 -47.0215 323.316 -47.8418 323.316C-48.6621 323.316 -49.248 323.824 -49.248 324.781V336.246C-49.248 337.223 -48.6523 337.73 -47.8223 337.73ZM-44.0918 331.871C-45.4883 331.871 -46.4062 330.66 -46.4062 328.766C-46.4062 326.891 -45.4883 325.65 -44.0918 325.65C-42.666 325.65 -41.7676 326.871 -41.7676 328.766C-41.7676 330.67 -42.666 331.871 -44.0918 331.871ZM-35.9473 334.205C-35.0781 334.205 -34.5215 333.668 -34.5215 332.721V328.072C-34.5215 326.832 -34.0625 326.1 -32.7637 326.08C-32.207 326.07 -31.7969 325.943 -31.5234 325.709C-31.25 325.475 -31.1133 325.133 -31.1133 324.684C-31.1133 324.195 -31.25 323.844 -31.5234 323.629C-31.7285 323.453 -32.0312 323.365 -32.4121 323.365C-33.457 323.365 -34.3164 324.137 -34.5898 325.436H-34.6484V324.752C-34.6484 323.844 -35.1953 323.316 -35.9961 323.316C-36.8164 323.316 -37.373 323.844 -37.373 324.752V332.721C-37.373 333.668 -36.8066 334.205 -35.9473 334.205ZM-25.625 334.225C-23.6035 334.225 -21.9824 333.463 -21.2891 332.174C-21.1621 331.939 -21.0938 331.705 -21.0938 331.48C-21.0938 330.826 -21.5918 330.436 -22.207 330.436C-22.5781 330.436 -22.832 330.543 -23.1348 330.855C-23.9062 331.764 -24.5898 332.115 -25.6348 332.115C-27.0801 332.115 -28.0176 331.1 -28.0176 329.547V329.42H-22.041C-21.25 329.42 -20.8008 328.971 -20.8008 328.18C-20.8008 325.338 -22.793 323.307 -25.7617 323.307C-28.8574 323.307 -30.8203 325.445 -30.8203 328.814C-30.8203 332.203 -28.8965 334.225 -25.625 334.225ZM-27.9883 327.672C-27.8906 326.334 -26.9824 325.416 -25.7324 325.416C-24.4824 325.416 -23.6035 326.305 -23.5449 327.672H-27.9883ZM-15.0586 334.225C-12.2949 334.225 -10.4297 332.877 -10.4297 330.797C-10.4297 329.234 -11.3477 328.414 -13.5742 327.945L-15.3027 327.574C-16.3477 327.35 -16.7578 326.988 -16.7578 326.441C-16.7578 325.768 -16.084 325.309 -15.1172 325.309C-14.0918 325.309 -13.5254 325.797 -13.0273 326.432C-12.7734 326.734 -12.3633 326.871 -11.9922 326.871C-11.2598 326.871 -10.8984 326.471 -10.8984 325.895C-10.8984 325.758 -10.9277 325.621 -10.9668 325.475C-11.3086 324.293 -12.9004 323.307 -15.0684 323.307C-17.7832 323.307 -19.5117 324.596 -19.5117 326.598C-19.5117 328.15 -18.4766 329.195 -16.4258 329.635L-14.668 330.006C-13.6426 330.23 -13.2812 330.533 -13.2812 331.1C-13.2812 331.793 -13.9551 332.223 -14.9902 332.223C-16.0742 332.223 -16.7188 331.891 -17.2754 331.158C-17.666 330.719 -18.0566 330.514 -18.5156 330.514C-19.1797 330.514 -19.668 330.953 -19.668 331.607C-19.668 331.764 -19.6289 331.949 -19.5605 332.135C-19.0625 333.365 -17.4609 334.225 -15.0586 334.225ZM-4.19922 334.225C-2.17773 334.225 -0.556641 333.463 0.136719 332.174C0.263672 331.939 0.332031 331.705 0.332031 331.48C0.332031 330.826 -0.166016 330.436 -0.78125 330.436C-1.15234 330.436 -1.40625 330.543 -1.70898 330.855C-2.48047 331.764 -3.16406 332.115 -4.20898 332.115C-5.6543 332.115 -6.5918 331.1 -6.5918 329.547V329.42H-0.615234C0.175781 329.42 0.625 328.971 0.625 328.18C0.625 325.338 -1.36719 323.307 -4.33594 323.307C-7.43164 323.307 -9.39453 325.445 -9.39453 328.814C-9.39453 332.203 -7.4707 334.225 -4.19922 334.225ZM-6.5625 327.672C-6.46484 326.334 -5.55664 325.416 -4.30664 325.416C-3.05664 325.416 -2.17773 326.305 -2.11914 327.672H-6.5625ZM3.52539 334.205C4.36523 334.205 4.95117 333.697 4.95117 332.721V327.994C4.95117 326.637 5.76172 325.699 7.04102 325.699C8.32031 325.699 8.96484 326.48 8.96484 327.848V332.721C8.96484 333.697 9.55078 334.205 10.3906 334.205C11.2207 334.205 11.8164 333.697 11.8164 332.721V327.252C11.8164 324.801 10.5078 323.336 8.18359 323.336C6.57227 323.336 5.51758 324.049 4.96094 325.348H4.90234V324.762C4.90234 323.863 4.33594 323.316 3.47656 323.316C2.61719 323.316 2.09961 323.863 2.09961 324.752V332.721C2.09961 333.697 2.69531 334.205 3.52539 334.205ZM14.3848 331.324C14.3848 333.17 15.3516 334.117 17.2559 334.117H17.3535C18.5547 334.117 19.375 333.688 19.375 332.848C19.375 332.184 18.9941 331.891 18.291 331.812L18.1055 331.793C17.4902 331.744 17.2363 331.432 17.2363 330.689V325.68H18.2422C18.916 325.68 19.3359 325.26 19.3359 324.605C19.3359 323.951 18.916 323.531 18.2422 323.531H17.2363V322.369C17.2363 321.451 16.6992 320.885 15.8105 320.885C14.9219 320.885 14.3848 321.451 14.3848 322.369V323.531H13.8379C13.1641 323.531 12.7344 323.941 12.7344 324.605C12.7344 325.27 13.1641 325.68 13.8379 325.68H14.3848V331.324ZM23.7305 334.166C25.0391 334.166 26.3477 333.512 26.9336 332.398H26.9922V332.936C27.0508 333.775 27.5879 334.205 28.3594 334.205C29.1699 334.205 29.7461 333.717 29.7461 332.77V326.803C29.7461 324.693 27.998 323.307 25.3125 323.307C23.1445 323.307 21.4648 324.078 20.9766 325.328C20.8789 325.543 20.8301 325.748 20.8301 325.973C20.8301 326.617 21.3281 327.066 22.0215 327.066C22.4805 327.066 22.8418 326.891 23.1543 326.539C23.7891 325.719 24.3164 325.436 25.1855 325.436C26.2598 325.436 26.9434 326.002 26.9434 326.979V327.672L24.3066 327.828C21.6895 327.984 20.2246 329.088 20.2246 330.992C20.2246 332.877 21.7383 334.166 23.7305 334.166ZM24.668 332.105C23.7109 332.105 23.0664 331.617 23.0664 330.836C23.0664 330.094 23.6719 329.615 24.7363 329.537L26.9434 329.4V330.162C26.9434 331.295 25.918 332.105 24.668 332.105ZM36.1328 338.492C37.5781 338.492 38.5059 337.848 38.5059 336.666C38.5059 335.67 37.7734 335.074 36.6699 335.064L37.0801 334.186C38.7793 333.98 40.2246 333.053 40.7715 331.812C40.9082 331.52 40.9668 331.285 40.9668 331.061C40.9668 330.357 40.4297 329.918 39.7656 329.918C39.1602 329.918 38.8477 330.162 38.4668 330.758C38.0273 331.5 37.4121 331.988 36.416 331.988C34.9902 331.988 34.1016 330.816 34.1016 328.756C34.1016 326.734 34.9902 325.543 36.4355 325.543C37.3438 325.543 37.9785 325.963 38.4961 326.881C38.7891 327.398 39.1309 327.623 39.6973 327.623C40.3711 327.623 40.918 327.213 40.918 326.51C40.918 326.305 40.8594 326.051 40.7617 325.807C40.1953 324.322 38.4473 323.307 36.3477 323.307C33.2031 323.307 31.2109 325.416 31.2109 328.766C31.2109 331.852 32.8613 333.844 35.5469 334.176L35.166 335.006C35.0586 335.221 35 335.416 35 335.602C35 335.973 35.2832 336.207 35.7324 336.207H35.9375C36.5625 336.207 36.8652 336.373 36.8652 336.725C36.8652 337.096 36.5332 337.281 35.8887 337.281C35.6055 337.281 35.3809 337.232 35.1758 337.232C34.8145 337.232 34.5898 337.428 34.5898 337.74C34.5898 338.062 34.7852 338.277 35.2051 338.385C35.4492 338.453 35.752 338.492 36.1328 338.492ZM44.4922 322.213C44.9414 322.213 45.166 321.959 45.2637 321.529C45.3711 320.973 45.5762 320.777 45.9082 320.777C46.6406 320.777 47.1387 322.105 48.4961 322.105C49.6484 322.105 50.5762 321.197 50.5762 319.957C50.5762 319.498 50.2637 319.186 49.8145 319.186C49.3652 319.186 49.1504 319.43 49.043 319.889C48.9355 320.416 48.7402 320.611 48.4277 320.611C47.7051 320.611 47.2266 319.293 45.8398 319.293C44.6582 319.293 43.7402 320.172 43.7402 321.432C43.7402 321.9 44.043 322.213 44.4922 322.213ZM45.5859 334.166C46.8945 334.166 48.2031 333.512 48.7891 332.398H48.8477V332.936C48.9062 333.775 49.4434 334.205 50.2148 334.205C51.0254 334.205 51.6016 333.717 51.6016 332.77V326.803C51.6016 324.693 49.8535 323.307 47.168 323.307C45 323.307 43.3203 324.078 42.832 325.328C42.7344 325.543 42.6855 325.748 42.6855 325.973C42.6855 326.617 43.1836 327.066 43.877 327.066C44.3359 327.066 44.6973 326.891 45.0098 326.539C45.6445 325.719 46.1719 325.436 47.041 325.436C48.1152 325.436 48.7988 326.002 48.7988 326.979V327.672L46.1621 327.828C43.5449 327.984 42.0801 329.088 42.0801 330.992C42.0801 332.877 43.5938 334.166 45.5859 334.166ZM46.5234 332.105C45.5664 332.105 44.9219 331.617 44.9219 330.836C44.9219 330.094 45.5273 329.615 46.5918 329.537L48.7988 329.4V330.162C48.7988 331.295 47.7734 332.105 46.5234 332.105ZM58.252 334.225C61.416 334.225 63.4375 332.203 63.4375 328.756C63.4375 325.357 61.3867 323.307 58.252 323.307C55.1172 323.307 53.0664 325.367 53.0664 328.756C53.0664 332.193 55.0879 334.225 58.252 334.225ZM58.252 332.047C56.8457 332.047 55.957 330.865 55.957 328.766C55.957 326.686 56.8652 325.484 58.252 325.484C59.6387 325.484 60.5371 326.686 60.5371 328.766C60.5371 330.865 59.6484 332.047 58.252 332.047Z" fill="black"/>
<path d="M241.722 116.384H257.038C258.533 116.384 259.434 115.441 259.434 114.075C259.434 112.67 258.533 111.766 257.038 111.766H246.61V111.65L252.59 105.877C257.114 101.586 258.763 99.4691 258.763 96.0823C258.763 91.3099 254.814 88 248.948 88C243.715 88 240.246 90.8673 239.307 93.9463C239.173 94.3504 239.096 94.7545 239.096 95.1971C239.096 96.6403 240.016 97.564 241.569 97.564C242.815 97.564 243.485 97.0252 244.137 95.8706C245.134 93.6384 246.667 92.5222 248.891 92.5222C251.364 92.5222 253.127 94.1579 253.127 96.4479C253.127 98.4492 252.245 99.7963 248.833 103.087L240.591 110.996C239.422 112.074 239 112.805 239 113.902C239 115.364 239.901 116.384 241.722 116.384Z" fill="black"/>
<path d="M273.516 117C280.11 117 284.729 113.69 284.729 108.879C284.729 105.223 282.065 102.529 278.289 101.778V101.663C281.528 100.835 283.713 98.4685 283.713 95.4857C283.713 91.1367 279.516 88 273.516 88C267.516 88 263.299 91.1559 263.299 95.4665C263.299 98.4877 265.503 100.855 268.762 101.663V101.778C264.986 102.51 262.302 105.204 262.302 108.86C262.302 113.671 266.903 117 273.516 117ZM273.516 99.9117C270.89 99.9117 269.03 98.3338 269.03 96.063C269.03 93.7731 270.89 92.1951 273.516 92.1951C276.123 92.1951 278.001 93.7731 278.001 96.063C278.001 98.3338 276.123 99.9117 273.516 99.9117ZM273.516 112.766C270.468 112.766 268.34 110.958 268.34 108.437C268.34 105.935 270.468 104.145 273.516 104.145C276.564 104.145 278.672 105.935 278.672 108.437C278.672 110.958 276.564 112.766 273.516 112.766Z" fill="black"/>
<path d="M299.169 116.75C300.99 116.75 302.064 115.634 302.064 113.729V105.454H311.169C312.683 105.454 313.641 104.588 313.641 103.145C313.641 101.721 312.664 100.855 311.169 100.855H302.064V93.4267H312.108C313.68 93.4267 314.734 92.5222 314.734 91.0212C314.734 89.5202 313.699 88.6158 312.108 88.6158H299.169C297.348 88.6158 296.275 89.7319 296.275 91.637V113.729C296.275 115.634 297.348 116.75 299.169 116.75Z" fill="black"/>
<path d="M326.152 116.827C330.12 116.827 333.302 115.326 334.663 112.786C334.912 112.324 335.046 111.862 335.046 111.419C335.046 110.13 334.068 109.36 332.861 109.36C332.132 109.36 331.634 109.572 331.04 110.188C329.525 111.977 328.184 112.67 326.133 112.67C323.296 112.67 321.456 110.669 321.456 107.609V107.359H333.187C334.739 107.359 335.621 106.474 335.621 104.915C335.621 99.3152 331.711 95.3125 325.883 95.3125C319.807 95.3125 315.954 99.5269 315.954 106.166C315.954 112.843 319.73 116.827 326.152 116.827ZM321.513 103.914C321.705 101.278 323.487 99.4691 325.941 99.4691C328.395 99.4691 330.12 101.22 330.235 103.914H321.513Z" fill="black"/>
<path d="M341.327 116.788C342.956 116.788 344.106 115.807 344.106 113.94V112.843H344.221C345.371 115.249 347.652 116.711 350.662 116.711C355.856 116.711 359 112.709 359 106.07C359 99.4114 355.837 95.428 350.643 95.428C347.729 95.428 345.429 96.8905 344.298 99.3344H344.183V91.1367C344.183 89.2123 343.033 88.1924 341.384 88.1924C339.755 88.1924 338.586 89.2123 338.586 91.1367V113.94C338.586 115.826 339.717 116.788 341.327 116.788ZM348.745 112.189C346.023 112.189 344.164 109.803 344.164 106.07C344.164 102.375 346.023 99.931 348.745 99.931C351.524 99.931 353.269 102.317 353.269 106.07C353.269 109.841 351.524 112.189 348.745 112.189Z" fill="black"/>
<path d="M326.875 134.788H331.798C332.278 134.788 332.568 134.463 332.568 133.992C332.568 133.508 332.278 133.196 331.798 133.196H328.446V133.156L330.368 131.167C331.822 129.688 332.352 128.959 332.352 127.792C332.352 126.147 331.083 125.007 329.198 125.007C327.516 125.007 326.4 125.995 326.099 127.056C326.055 127.195 326.031 127.334 326.031 127.487C326.031 127.984 326.327 128.302 326.826 128.302C327.226 128.302 327.442 128.117 327.651 127.719C327.972 126.95 328.464 126.565 329.179 126.565C329.974 126.565 330.541 127.129 330.541 127.918C330.541 128.607 330.257 129.072 329.161 130.206L326.511 132.931C326.136 133.302 326 133.554 326 133.932C326 134.436 326.29 134.788 326.875 134.788Z" fill="black"/>
<path d="M337.039 135C339.294 135 340.662 133.07 340.662 129.98C340.662 126.89 339.282 125 337.039 125C334.797 125 333.41 126.897 333.41 129.987C333.41 133.084 334.784 135 337.039 135ZM337.039 133.395C335.942 133.395 335.302 132.182 335.302 129.987C335.302 127.812 335.955 126.605 337.039 126.605C338.13 126.605 338.77 127.805 338.77 129.987C338.77 132.182 338.136 133.395 337.039 133.395Z" fill="black"/>
<path d="M342.546 134.788H347.468C347.949 134.788 348.239 134.463 348.239 133.992C348.239 133.508 347.949 133.196 347.468 133.196H344.117V133.156L346.039 131.167C347.493 129.688 348.023 128.959 348.023 127.792C348.023 126.147 346.754 125.007 344.868 125.007C343.186 125.007 342.071 125.995 341.769 127.056C341.726 127.195 341.702 127.334 341.702 127.487C341.702 127.984 341.997 128.302 342.496 128.302C342.897 128.302 343.113 128.117 343.322 127.719C343.642 126.95 344.135 126.565 344.85 126.565C345.645 126.565 346.212 127.129 346.212 127.918C346.212 128.607 345.928 129.072 344.831 130.206L342.182 132.931C341.806 133.302 341.671 133.554 341.671 133.932C341.671 134.436 341.96 134.788 342.546 134.788Z" fill="black"/>
<path d="M352.537 135C354.601 135 356 133.846 356 132.109C356 130.789 355.144 129.954 353.819 129.821V129.781C354.866 129.549 355.673 128.753 355.673 127.54C355.673 126.008 354.404 125.007 352.525 125.007C350.954 125.007 349.944 125.789 349.549 126.724C349.457 126.95 349.414 127.142 349.414 127.367C349.414 127.851 349.679 128.176 350.196 128.176C350.615 128.176 350.831 128.011 351.034 127.56C351.324 126.883 351.78 126.545 352.531 126.545C353.431 126.545 353.911 127.056 353.911 127.825C353.911 128.607 353.308 129.151 352.377 129.151H352.014C351.564 129.151 351.305 129.443 351.305 129.861C351.305 130.292 351.564 130.577 352.014 130.577H352.402C353.48 130.577 354.115 131.094 354.109 132.023C354.109 132.818 353.48 133.389 352.568 133.389C351.644 133.389 351.164 132.991 350.849 132.321C350.665 131.956 350.43 131.797 350.061 131.797C349.549 131.797 349.241 132.122 349.241 132.639C349.241 132.838 349.284 133.05 349.383 133.269C349.802 134.211 350.843 135 352.537 135Z" fill="black"/>
<path d="M277.742 561.567C335.548 547.53 367.244 500.86 389 535.579L389 885C347.464 920.456 298.953 876.896 245.107 874.006C177.798 870.393 169.287 914.939 115.341 907.198C61.3959 899.457 61.1519 867.977 33.644 867.977C10.715 867.977 -1 885 -1 885L-1 535.091C22.7559 572.248 110.092 553.678 134.838 553.678C166.049 553.678 205.485 579.114 277.742 561.567Z" fill="black"/>
<path d="M24.6602 599.186C25.5879 599.186 26.1348 598.619 26.1348 597.652V593.062H32.4824V597.652C32.4824 598.619 33.0293 599.186 33.957 599.186C34.8848 599.186 35.4316 598.619 35.4316 597.652V586.256C35.4316 585.279 34.8848 584.713 33.957 584.713C33.0293 584.713 32.4824 585.279 32.4824 586.256V590.631H26.1348V586.256C26.1348 585.279 25.5879 584.713 24.6602 584.713C23.7324 584.713 23.1855 585.279 23.1855 586.256V597.652C23.1855 598.619 23.7324 599.186 24.6602 599.186ZM42.3359 599.225C45.5 599.225 47.5215 597.203 47.5215 593.756C47.5215 590.357 45.4707 588.307 42.3359 588.307C39.2012 588.307 37.1504 590.367 37.1504 593.756C37.1504 597.193 39.1719 599.225 42.3359 599.225ZM42.3359 597.047C40.9297 597.047 40.041 595.865 40.041 593.766C40.041 591.686 40.9492 590.484 42.3359 590.484C43.7227 590.484 44.6211 591.686 44.6211 593.766C44.6211 595.865 43.7324 597.047 42.3359 597.047ZM50.4512 587.232C51.3105 587.232 51.9746 586.578 51.9746 585.758C51.9746 584.928 51.3105 584.283 50.4512 584.283C49.5918 584.283 48.9277 584.928 48.9277 585.758C48.9277 586.578 49.5918 587.232 50.4512 587.232ZM50.4512 588.316C49.6113 588.316 49.0156 588.834 49.0156 589.811V599.43C49.0156 600.084 48.7715 600.426 48.1562 600.533L48.0293 600.553C47.3945 600.67 47.0918 600.982 47.0918 601.52C47.0918 602.281 47.7363 602.711 48.8301 602.711H48.8789C50.7344 602.711 51.8672 601.559 51.8672 599.605V589.811C51.8672 588.834 51.2812 588.316 50.4512 588.316ZM58.6152 599.225C60.6367 599.225 62.2578 598.463 62.9512 597.174C63.0781 596.939 63.1465 596.705 63.1465 596.48C63.1465 595.826 62.6484 595.436 62.0332 595.436C61.6621 595.436 61.4082 595.543 61.1055 595.855C60.334 596.764 59.6504 597.115 58.6055 597.115C57.1602 597.115 56.2227 596.1 56.2227 594.547V594.42H62.1992C62.9902 594.42 63.4395 593.971 63.4395 593.18C63.4395 590.338 61.4473 588.307 58.4785 588.307C55.3828 588.307 53.4199 590.445 53.4199 593.814C53.4199 597.203 55.3438 599.225 58.6152 599.225ZM56.252 592.672C56.3496 591.334 57.2578 590.416 58.5078 590.416C59.7578 590.416 60.6367 591.305 60.6953 592.672H56.252Z" fill="white"/>
<path d="M337.622 590.103C338.042 590.103 338.335 589.849 338.335 589.36V587.012C338.335 586.323 338.731 585.85 339.405 585.85C340.054 585.85 340.386 586.26 340.386 586.934V589.36C340.386 589.849 340.684 590.103 341.099 590.103C341.519 590.103 341.812 589.849 341.812 589.36V586.631C341.812 585.42 341.148 584.668 339.986 584.668C339.19 584.668 338.619 585.039 338.34 585.698H338.311V583.579C338.311 583.12 338.052 582.847 337.613 582.847C337.173 582.847 336.91 583.12 336.91 583.579V589.36C336.91 589.849 337.207 590.103 337.622 590.103ZM345.047 590.112C346.629 590.112 347.64 589.102 347.64 587.378C347.64 585.679 346.615 584.653 345.047 584.653C343.48 584.653 342.455 585.684 342.455 587.378C342.455 589.097 343.465 590.112 345.047 590.112ZM345.047 589.023C344.344 589.023 343.9 588.433 343.9 587.383C343.9 586.343 344.354 585.742 345.047 585.742C345.741 585.742 346.19 586.343 346.19 587.383C346.19 588.433 345.746 589.023 345.047 589.023ZM349.01 590.103C349.445 590.103 349.723 589.834 349.723 589.36V587.036C349.723 586.416 349.953 586.05 350.602 586.04C350.88 586.035 351.085 585.972 351.222 585.854C351.359 585.737 351.427 585.566 351.427 585.342C351.427 585.098 351.359 584.922 351.222 584.814C351.12 584.727 350.968 584.683 350.778 584.683C350.255 584.683 349.826 585.068 349.689 585.718H349.66V585.376C349.66 584.922 349.386 584.658 348.986 584.658C348.576 584.658 348.297 584.922 348.297 585.376V589.36C348.297 589.834 348.581 590.103 349.01 590.103ZM353.281 590.083C353.935 590.083 354.589 589.756 354.882 589.199H354.912V589.468C354.941 589.888 355.21 590.103 355.595 590.103C356.001 590.103 356.289 589.858 356.289 589.385V586.401C356.289 585.347 355.415 584.653 354.072 584.653C352.988 584.653 352.148 585.039 351.904 585.664C351.855 585.771 351.831 585.874 351.831 585.986C351.831 586.309 352.08 586.533 352.426 586.533C352.656 586.533 352.837 586.445 352.993 586.27C353.31 585.859 353.574 585.718 354.008 585.718C354.546 585.718 354.887 586.001 354.887 586.489V586.836L353.569 586.914C352.26 586.992 351.528 587.544 351.528 588.496C351.528 589.438 352.285 590.083 353.281 590.083ZM353.75 589.053C353.271 589.053 352.949 588.809 352.949 588.418C352.949 588.047 353.252 587.808 353.784 587.769L354.887 587.7V588.081C354.887 588.647 354.375 589.053 353.75 589.053ZM359.265 590.112C360.647 590.112 361.58 589.438 361.58 588.398C361.58 587.617 361.121 587.207 360.007 586.973L359.143 586.787C358.621 586.675 358.416 586.494 358.416 586.221C358.416 585.884 358.753 585.654 359.236 585.654C359.749 585.654 360.032 585.898 360.281 586.216C360.408 586.367 360.613 586.436 360.799 586.436C361.165 586.436 361.345 586.235 361.345 585.947C361.345 585.879 361.331 585.811 361.311 585.737C361.14 585.146 360.344 584.653 359.26 584.653C357.903 584.653 357.039 585.298 357.039 586.299C357.039 587.075 357.556 587.598 358.582 587.817L359.461 588.003C359.973 588.115 360.154 588.267 360.154 588.55C360.154 588.896 359.817 589.111 359.299 589.111C358.757 589.111 358.435 588.945 358.157 588.579C357.962 588.359 357.766 588.257 357.537 588.257C357.205 588.257 356.961 588.477 356.961 588.804C356.961 588.882 356.98 588.975 357.014 589.067C357.263 589.683 358.064 590.112 359.265 590.112ZM366.054 590.083C366.859 590.083 367.435 589.663 367.665 589.077H367.689V589.38C367.689 589.858 367.997 590.103 368.407 590.103C368.822 590.103 369.115 589.854 369.115 589.38V583.594C369.115 583.105 368.822 582.847 368.402 582.847C367.987 582.847 367.689 583.105 367.689 583.594V585.664H367.66C367.406 585.083 366.82 584.683 366.063 584.683C364.75 584.683 363.92 585.713 363.92 587.373C363.92 589.048 364.745 590.083 366.054 590.083ZM366.537 588.936C365.819 588.936 365.38 588.345 365.38 587.383C365.38 586.426 365.819 585.825 366.537 585.825C367.245 585.825 367.699 586.431 367.699 587.383C367.699 588.34 367.245 588.936 366.537 588.936ZM372.394 590.112C373.405 590.112 374.216 589.731 374.562 589.087C374.626 588.97 374.66 588.853 374.66 588.74C374.66 588.413 374.411 588.218 374.103 588.218C373.918 588.218 373.791 588.271 373.64 588.428C373.254 588.882 372.912 589.058 372.39 589.058C371.667 589.058 371.198 588.55 371.198 587.773V587.71H374.186C374.582 587.71 374.807 587.485 374.807 587.09C374.807 585.669 373.81 584.653 372.326 584.653C370.778 584.653 369.797 585.723 369.797 587.407C369.797 589.102 370.759 590.112 372.394 590.112ZM371.213 586.836C371.262 586.167 371.716 585.708 372.341 585.708C372.966 585.708 373.405 586.152 373.434 586.836H371.213ZM338.397 598.662C338.397 599.585 338.88 600.059 339.832 600.059H339.881C340.482 600.059 340.892 599.844 340.892 599.424C340.892 599.092 340.702 598.945 340.35 598.906L340.257 598.896C339.95 598.872 339.823 598.716 339.823 598.345V595.84H340.326C340.663 595.84 340.873 595.63 340.873 595.303C340.873 594.976 340.663 594.766 340.326 594.766H339.823V594.185C339.823 593.726 339.554 593.442 339.11 593.442C338.665 593.442 338.397 593.726 338.397 594.185V594.766H338.123C337.787 594.766 337.572 594.971 337.572 595.303C337.572 595.635 337.787 595.84 338.123 595.84H338.397V598.662ZM342.204 600.103C342.638 600.103 342.917 599.834 342.917 599.36V597.036C342.917 596.416 343.146 596.05 343.795 596.04C344.074 596.035 344.279 595.972 344.416 595.854C344.552 595.737 344.621 595.566 344.621 595.342C344.621 595.098 344.552 594.922 344.416 594.814C344.313 594.727 344.162 594.683 343.971 594.683C343.449 594.683 343.019 595.068 342.882 595.718H342.853V595.376C342.853 594.922 342.58 594.658 342.179 594.658C341.769 594.658 341.491 594.922 341.491 595.376V599.36C341.491 599.834 341.774 600.103 342.204 600.103ZM346.474 600.083C347.129 600.083 347.783 599.756 348.076 599.199H348.105V599.468C348.134 599.888 348.403 600.103 348.789 600.103C349.194 600.103 349.482 599.858 349.482 599.385V596.401C349.482 595.347 348.608 594.653 347.265 594.653C346.181 594.653 345.341 595.039 345.097 595.664C345.048 595.771 345.024 595.874 345.024 595.986C345.024 596.309 345.273 596.533 345.62 596.533C345.849 596.533 346.03 596.445 346.186 596.27C346.504 595.859 346.767 595.718 347.202 595.718C347.739 595.718 348.081 596.001 348.081 596.489V596.836L346.762 596.914C345.454 596.992 344.721 597.544 344.721 598.496C344.721 599.438 345.478 600.083 346.474 600.083ZM346.943 599.053C346.464 599.053 346.142 598.809 346.142 598.418C346.142 598.047 346.445 597.808 346.977 597.769L348.081 597.7V598.081C348.081 598.647 347.568 599.053 346.943 599.053ZM351.057 600.103C351.472 600.103 351.765 599.854 351.765 599.38V599.102H351.795C352.088 599.712 352.669 600.083 353.435 600.083C354.758 600.083 355.559 599.067 355.559 597.383C355.559 595.693 354.754 594.683 353.43 594.683C352.688 594.683 352.102 595.054 351.814 595.674H351.785V593.594C351.785 593.105 351.492 592.847 351.072 592.847C350.657 592.847 350.359 593.105 350.359 593.594V599.38C350.359 599.858 350.647 600.103 351.057 600.103ZM352.947 598.936C352.254 598.936 351.78 598.33 351.78 597.383C351.78 596.445 352.254 595.825 352.947 595.825C353.655 595.825 354.099 596.431 354.099 597.383C354.099 598.34 353.655 598.936 352.947 598.936ZM357.769 600.083C358.424 600.083 359.078 599.756 359.371 599.199H359.4V599.468C359.429 599.888 359.698 600.103 360.084 600.103C360.489 600.103 360.777 599.858 360.777 599.385V596.401C360.777 595.347 359.903 594.653 358.56 594.653C357.476 594.653 356.636 595.039 356.392 595.664C356.344 595.771 356.319 595.874 356.319 595.986C356.319 596.309 356.568 596.533 356.915 596.533C357.144 596.533 357.325 596.445 357.481 596.27C357.799 595.859 358.062 595.718 358.497 595.718C359.034 595.718 359.376 596.001 359.376 596.489V596.836L358.057 596.914C356.749 596.992 356.016 597.544 356.016 598.496C356.016 599.438 356.773 600.083 357.769 600.083ZM358.238 599.053C357.76 599.053 357.437 598.809 357.437 598.418C357.437 598.047 357.74 597.808 358.272 597.769L359.376 597.7V598.081C359.376 598.647 358.863 599.053 358.238 599.053ZM362.367 600.103C362.787 600.103 363.08 599.849 363.08 599.36V593.594C363.08 593.105 362.787 592.847 362.367 592.847C361.952 592.847 361.654 593.105 361.654 593.594V599.36C361.654 599.849 361.952 600.103 362.367 600.103ZM364.709 600.103C365.129 600.103 365.422 599.849 365.422 599.36V597.012C365.422 596.323 365.817 595.85 366.491 595.85C367.141 595.85 367.473 596.26 367.473 596.934V599.36C367.473 599.849 367.77 600.103 368.185 600.103C368.605 600.103 368.898 599.849 368.898 599.36V596.631C368.898 595.42 368.234 594.668 367.072 594.668C366.276 594.668 365.705 595.039 365.427 595.698H365.397V593.579C365.397 593.12 365.139 592.847 364.699 592.847C364.26 592.847 363.996 593.12 363.996 593.579V599.36C363.996 599.849 364.294 600.103 364.709 600.103ZM372.134 600.112C373.716 600.112 374.727 599.102 374.727 597.378C374.727 595.679 373.701 594.653 372.134 594.653C370.566 594.653 369.541 595.684 369.541 597.378C369.541 599.097 370.552 600.112 372.134 600.112ZM372.134 599.023C371.431 599.023 370.986 598.433 370.986 597.383C370.986 596.343 371.44 595.742 372.134 595.742C372.827 595.742 373.276 596.343 373.276 597.383C373.276 598.433 372.832 599.023 372.134 599.023Z" fill="white"/>
<path d="M359.273 575.41C360.895 575.41 362.086 574.414 362.086 572.539V569.824H363.688C365.23 569.824 366.109 568.867 366.109 567.48C366.109 566.094 365.25 565.117 363.688 565.117H362.086V550.645C362.086 548.008 360.211 546.387 357.223 546.387C354.84 546.387 353.414 547.363 351.461 550.352C348.395 554.902 345.582 559.199 343.648 562.676C342.77 564.219 342.418 565.312 342.418 566.523C342.418 568.496 343.844 569.824 345.973 569.824H356.48V572.539C356.48 574.414 357.652 575.41 359.273 575.41ZM356.598 565.273H347.574V565.117C349.859 560.859 352.457 556.895 356.48 551.094H356.598V565.273Z" fill="white"/>
<g filter="url(#filter0_b_366_20160)">
<path d="M0 3H390V846H0V3Z" fill="white" fill-opacity="0.5"/>
</g>
<path d="M65.3145 447.234C69.3086 447.234 71.8086 444.432 71.8086 439.959C71.8086 435.486 69.3086 432.674 65.3145 432.674C61.3203 432.674 58.8203 435.486 58.8203 439.959C58.8203 444.432 61.3203 447.234 65.3145 447.234ZM65.3145 445.613C62.4336 445.613 60.627 443.426 60.627 439.959C60.627 436.482 62.4336 434.295 65.3145 434.295C68.1953 434.295 70.002 436.482 70.002 439.959C70.002 443.426 68.1953 445.613 65.3145 445.613ZM82.668 447.166C83.459 447.166 83.9277 446.688 83.9277 445.857V435.037H87.1504C87.834 435.037 88.3027 434.627 88.3027 433.973C88.3027 433.318 87.8438 432.908 87.1504 432.908H78.1953C77.502 432.908 77.043 433.318 77.043 433.973C77.043 434.627 77.5117 435.037 78.1953 435.037H81.418V445.857C81.418 446.688 81.8867 447.166 82.668 447.166ZM90.4219 435.193C91.1836 435.193 91.7793 434.607 91.7793 433.875C91.7793 433.133 91.1836 432.557 90.4219 432.557C89.6699 432.557 89.0742 433.133 89.0742 433.875C89.0742 434.607 89.6699 435.193 90.4219 435.193ZM90.4219 447.195C91.1641 447.195 91.6426 446.707 91.6426 445.916V437.732C91.6426 436.941 91.1641 436.443 90.4219 436.443C89.6797 436.443 89.2109 436.941 89.2109 437.723V445.916C89.2109 446.707 89.6797 447.195 90.4219 447.195ZM94.8945 447.195C95.6172 447.195 96.1152 446.727 96.1152 445.916V440.662C96.1152 439.412 96.9355 438.504 98.1074 438.504C99.2402 438.504 99.9434 439.217 99.9434 440.369V445.916C99.9434 446.727 100.393 447.195 101.125 447.195C101.848 447.195 102.307 446.727 102.307 445.916V440.604C102.307 439.363 103.107 438.504 104.279 438.504C105.471 438.504 106.135 439.227 106.135 440.496V445.916C106.135 446.727 106.623 447.195 107.355 447.195C108.078 447.195 108.566 446.727 108.566 445.916V439.9C108.566 437.83 107.229 436.453 105.188 436.453C103.693 436.453 102.463 437.254 101.965 438.533H101.906C101.525 437.205 100.48 436.453 99.0156 436.453C97.6094 436.453 96.5156 437.244 96.0664 438.445H96.0176V437.684C96.0176 436.893 95.5293 436.443 94.8457 436.443C94.1621 436.443 93.6836 436.893 93.6836 437.684V445.916C93.6836 446.727 94.1621 447.195 94.8945 447.195ZM115.119 447.205C117.092 447.205 118.635 446.434 119.318 445.115C119.426 444.9 119.484 444.686 119.484 444.5C119.484 443.914 119.055 443.562 118.508 443.562C118.166 443.562 117.941 443.67 117.688 443.953C116.906 444.949 116.193 445.33 115.1 445.33C113.518 445.33 112.512 444.217 112.512 442.488V442.41H118.615C119.338 442.41 119.748 441.98 119.748 441.258C119.748 438.445 117.814 436.434 114.982 436.434C111.994 436.434 110.09 438.562 110.09 441.863C110.09 445.223 111.955 447.205 115.119 447.205ZM112.531 440.809C112.629 439.324 113.625 438.318 114.992 438.318C116.359 438.318 117.316 439.305 117.365 440.809H112.531ZM126.828 447H130.715C134.934 447 137.414 444.383 137.414 439.92C137.414 435.457 134.924 432.908 130.715 432.908H126.828C126.047 432.908 125.568 433.396 125.568 434.217V445.691C125.568 446.512 126.047 447 126.828 447ZM128.088 444.871V435.037H130.451C133.264 435.037 134.846 436.775 134.846 439.93C134.846 443.143 133.283 444.871 130.451 444.871H128.088ZM140.383 447.195C141.115 447.195 141.604 446.717 141.604 445.916V440.936C141.604 439.676 142.131 438.807 143.518 438.797C143.996 438.787 144.357 438.68 144.592 438.475C144.836 438.279 144.953 437.996 144.953 437.615C144.953 437.215 144.836 436.922 144.611 436.736C144.426 436.57 144.133 436.473 143.752 436.473C142.717 436.473 141.818 437.254 141.535 438.465H141.486V437.674C141.486 436.912 141.008 436.443 140.334 436.443C139.641 436.443 139.172 436.912 139.172 437.674V445.916C139.172 446.717 139.65 447.195 140.383 447.195ZM150.236 447.205C153.273 447.205 155.246 445.184 155.246 441.824C155.246 438.475 153.254 436.434 150.236 436.434C147.219 436.434 145.227 438.484 145.227 441.824C145.227 445.184 147.199 447.205 150.236 447.205ZM150.236 445.281C148.693 445.281 147.697 444.031 147.697 441.824C147.697 439.627 148.703 438.367 150.236 438.367C151.779 438.367 152.775 439.627 152.775 441.824C152.775 444.031 151.779 445.281 150.236 445.281ZM158.02 450.682C158.732 450.682 159.24 450.223 159.24 449.402V445.281H159.289C159.855 446.443 161.027 447.166 162.531 447.166C165.129 447.166 166.789 445.125 166.789 441.824C166.789 438.514 165.119 436.473 162.492 436.473C160.988 436.473 159.816 437.234 159.23 438.436H159.182V437.693C159.182 436.893 158.684 436.443 157.99 436.443C157.297 436.443 156.809 436.893 156.809 437.693V449.402C156.809 450.223 157.307 450.682 158.02 450.682ZM161.75 445.174C160.236 445.174 159.23 443.855 159.221 441.824C159.23 439.812 160.236 438.475 161.75 438.475C163.322 438.475 164.299 439.783 164.299 441.824C164.299 443.875 163.322 445.174 161.75 445.174ZM172.346 447.205C174.982 447.205 176.76 445.906 176.76 443.924C176.76 442.391 175.891 441.6 173.703 441.102L172.053 440.74C170.979 440.496 170.529 440.086 170.529 439.48C170.529 438.738 171.262 438.221 172.326 438.221C173.352 438.221 173.947 438.67 174.426 439.383C174.65 439.705 175.002 439.832 175.354 439.832C175.969 439.832 176.291 439.471 176.291 438.963C176.291 438.846 176.271 438.729 176.242 438.602C175.92 437.41 174.377 436.434 172.385 436.434C169.826 436.434 168.166 437.693 168.166 439.617C168.166 441.121 169.162 442.117 171.184 442.576L172.863 442.957C173.928 443.201 174.318 443.543 174.318 444.168C174.318 444.949 173.566 445.428 172.434 445.428C171.271 445.428 170.646 445.076 170.1 444.285C169.787 443.875 169.445 443.689 169.045 443.689C168.459 443.689 168.029 444.061 168.029 444.646C168.029 444.793 168.059 444.949 168.127 445.125C168.625 446.365 170.158 447.205 172.346 447.205ZM183.049 444.656C183.049 446.277 183.869 447.078 185.51 447.078H185.617C186.564 447.078 186.857 446.805 186.857 446.287C186.857 445.887 186.604 445.662 186.047 445.623L185.9 445.613C185.051 445.555 184.748 445.145 184.748 444.285V438.24H186.057C186.545 438.24 186.818 437.986 186.818 437.537C186.818 437.098 186.545 436.844 186.057 436.844H184.748V435.105C184.748 434.568 184.396 434.197 183.898 434.197C183.4 434.197 183.049 434.568 183.049 435.105V436.844H182.199C181.711 436.844 181.438 437.098 181.438 437.537C181.438 437.986 181.711 438.24 182.199 438.24H183.049V444.656ZM192.502 447.176C194.357 447.176 195.783 446.395 196.438 445.018C196.516 444.832 196.564 444.656 196.564 444.52C196.564 444.07 196.262 443.777 195.812 443.777C195.549 443.777 195.354 443.875 195.178 444.119C194.387 445.271 193.645 445.701 192.434 445.701C190.617 445.701 189.494 444.432 189.494 442.381H195.842C196.428 442.381 196.779 442.01 196.779 441.395C196.779 438.611 194.953 436.668 192.355 436.668C189.553 436.668 187.746 438.758 187.746 441.961C187.746 445.242 189.504 447.176 192.502 447.176ZM189.504 441.053C189.611 439.305 190.744 438.143 192.326 438.143C193.898 438.143 194.982 439.295 195.021 441.053H189.504ZM205.559 447.176C206.926 447.176 208.225 446.414 208.83 445.252H208.869V446.316C208.869 446.824 209.201 447.176 209.68 447.176C210.148 447.176 210.48 446.824 210.48 446.316V439.979C210.48 437.957 208.977 436.668 206.594 436.668C204.943 436.668 203.459 437.4 202.883 438.514C202.746 438.758 202.678 439.002 202.678 439.217C202.678 439.676 202.99 439.979 203.43 439.979C203.752 439.979 203.977 439.852 204.133 439.568C204.699 438.562 205.451 438.162 206.555 438.162C207.961 438.162 208.781 438.904 208.781 440.145V440.994L205.861 441.16C203.518 441.297 202.18 442.391 202.18 444.129C202.18 445.955 203.537 447.176 205.559 447.176ZM205.939 445.73C204.719 445.73 203.908 445.096 203.908 444.129C203.908 443.172 204.689 442.566 206.057 442.479L208.781 442.312V443.143C208.781 444.607 207.541 445.73 205.939 445.73ZM213.576 435.135C214.162 435.135 214.641 434.656 214.641 434.08C214.641 433.494 214.162 433.025 213.576 433.025C213 433.025 212.521 433.494 212.521 434.08C212.521 434.656 213 435.135 213.576 435.135ZM213.576 436.668C213.078 436.668 212.727 437.039 212.727 437.576V447.576C212.727 448.475 212.443 448.914 211.652 449.031L211.584 449.041C211.047 449.119 210.822 449.383 210.822 449.754C210.822 450.193 211.203 450.486 211.828 450.486C213.469 450.486 214.426 449.559 214.426 447.742V437.576C214.426 437.039 214.074 436.668 213.576 436.668ZM220.188 447.176C221.75 447.176 222.805 446.521 223.41 445.35H223.449V446.316C223.449 446.805 223.771 447.176 224.26 447.176C224.748 447.176 225.061 446.805 225.061 446.316V437.576C225.061 437.039 224.709 436.668 224.211 436.668C223.713 436.668 223.361 437.039 223.361 437.576V442.811C223.361 444.539 222.365 445.672 220.715 445.672C219.143 445.672 218.371 444.783 218.371 443.133V437.576C218.371 437.039 218.02 436.668 217.521 436.668C217.023 436.668 216.672 437.039 216.672 437.576V443.436C216.672 445.74 217.971 447.176 220.188 447.176ZM231.115 447.176C232.707 447.176 233.762 446.395 234.318 445.184H234.348V446.346C234.348 446.844 234.738 447.176 235.217 447.176C235.705 447.176 236.047 446.834 236.047 446.346V433.641C236.047 433.104 235.695 432.732 235.197 432.732C234.699 432.732 234.348 433.104 234.348 433.641V438.494H234.309C233.703 437.381 232.531 436.668 231.076 436.668C228.518 436.668 226.77 438.738 226.77 441.922C226.77 445.105 228.527 447.176 231.115 447.176ZM231.438 445.682C229.641 445.682 228.508 444.227 228.508 441.922C228.508 439.627 229.641 438.162 231.438 438.162C233.186 438.162 234.357 439.656 234.357 441.922C234.357 444.197 233.186 445.682 231.438 445.682ZM241.301 447.176C242.668 447.176 243.967 446.414 244.572 445.252H244.611V446.316C244.611 446.824 244.943 447.176 245.422 447.176C245.891 447.176 246.223 446.824 246.223 446.316V439.979C246.223 437.957 244.719 436.668 242.336 436.668C240.686 436.668 239.201 437.4 238.625 438.514C238.488 438.758 238.42 439.002 238.42 439.217C238.42 439.676 238.732 439.979 239.172 439.979C239.494 439.979 239.719 439.852 239.875 439.568C240.441 438.562 241.193 438.162 242.297 438.162C243.703 438.162 244.523 438.904 244.523 440.145V440.994L241.604 441.16C239.26 441.297 237.922 442.391 237.922 444.129C237.922 445.955 239.279 447.176 241.301 447.176ZM241.682 445.73C240.461 445.73 239.65 445.096 239.65 444.129C239.65 443.172 240.432 442.566 241.799 442.479L244.523 442.312V443.143C244.523 444.607 243.283 445.73 241.682 445.73ZM255.441 447.176C256.809 447.176 258.107 446.414 258.713 445.252H258.752V446.316C258.752 446.824 259.084 447.176 259.562 447.176C260.031 447.176 260.363 446.824 260.363 446.316V439.979C260.363 437.957 258.859 436.668 256.477 436.668C254.826 436.668 253.342 437.4 252.766 438.514C252.629 438.758 252.561 439.002 252.561 439.217C252.561 439.676 252.873 439.979 253.312 439.979C253.635 439.979 253.859 439.852 254.016 439.568C254.582 438.562 255.334 438.162 256.438 438.162C257.844 438.162 258.664 438.904 258.664 440.145V440.994L255.744 441.16C253.4 441.297 252.062 442.391 252.062 444.129C252.062 445.955 253.42 447.176 255.441 447.176ZM255.822 445.73C254.602 445.73 253.791 445.096 253.791 444.129C253.791 443.172 254.572 442.566 255.939 442.479L258.664 442.312V443.143C258.664 444.607 257.424 445.73 255.822 445.73ZM270.344 447.176C270.891 447.176 271.252 446.902 271.477 446.316L274.699 437.889C274.758 437.742 274.787 437.596 274.787 437.449C274.787 436.98 274.455 436.668 273.947 436.668C273.576 436.668 273.322 436.873 273.166 437.312L270.373 445.193H270.334L267.551 437.312C267.395 436.873 267.141 436.668 266.76 436.668C266.252 436.668 265.91 436.98 265.91 437.449C265.91 437.596 265.939 437.742 265.998 437.889L269.23 446.316C269.475 446.932 269.787 447.176 270.344 447.176ZM277.229 435.135C277.814 435.135 278.293 434.656 278.293 434.08C278.293 433.494 277.814 433.025 277.229 433.025C276.652 433.025 276.174 433.494 276.174 434.08C276.174 434.656 276.652 435.135 277.229 435.135ZM277.229 447.176C277.727 447.176 278.078 446.805 278.078 446.268V437.576C278.078 437.039 277.727 436.668 277.229 436.668C276.73 436.668 276.379 437.039 276.379 437.576V446.268C276.379 446.805 276.73 447.176 277.229 447.176ZM283.898 447.176C286.311 447.176 287.941 445.955 287.941 444.139C287.941 442.645 287.16 441.902 285.041 441.385L283.527 441.014C282.414 440.74 281.867 440.252 281.867 439.549C281.867 438.68 282.717 438.064 283.938 438.064C284.973 438.064 285.627 438.436 286.066 439.285C286.252 439.637 286.486 439.744 286.818 439.744C287.229 439.744 287.482 439.48 287.482 439.08C287.482 439.002 287.473 438.924 287.453 438.826C287.189 437.605 285.705 436.668 284.035 436.668C281.74 436.668 280.188 437.869 280.188 439.637C280.188 441.062 281.135 441.99 283.098 442.479L284.65 442.869C285.793 443.152 286.213 443.543 286.213 444.275C286.213 445.223 285.334 445.789 284.035 445.789C282.736 445.789 282.131 445.389 281.623 444.5C281.428 444.148 281.184 443.992 280.881 443.992C280.441 443.992 280.109 444.246 280.109 444.695C280.109 444.822 280.129 444.949 280.188 445.096C280.676 446.365 282.092 447.176 283.898 447.176ZM293.156 447.176C294.719 447.176 295.773 446.521 296.379 445.35H296.418V446.316C296.418 446.805 296.74 447.176 297.229 447.176C297.717 447.176 298.029 446.805 298.029 446.316V437.576C298.029 437.039 297.678 436.668 297.18 436.668C296.682 436.668 296.33 437.039 296.33 437.576V442.811C296.33 444.539 295.334 445.672 293.684 445.672C292.111 445.672 291.34 444.783 291.34 443.133V437.576C291.34 437.039 290.988 436.668 290.49 436.668C289.992 436.668 289.641 437.039 289.641 437.576V443.436C289.641 445.74 290.939 447.176 293.156 447.176ZM303.195 447.176C304.562 447.176 305.861 446.414 306.467 445.252H306.506V446.316C306.506 446.824 306.838 447.176 307.316 447.176C307.785 447.176 308.117 446.824 308.117 446.316V439.979C308.117 437.957 306.613 436.668 304.23 436.668C302.58 436.668 301.096 437.4 300.52 438.514C300.383 438.758 300.314 439.002 300.314 439.217C300.314 439.676 300.627 439.979 301.066 439.979C301.389 439.979 301.613 439.852 301.77 439.568C302.336 438.562 303.088 438.162 304.191 438.162C305.598 438.162 306.418 438.904 306.418 440.145V440.994L303.498 441.16C301.154 441.297 299.816 442.391 299.816 444.129C299.816 445.955 301.174 447.176 303.195 447.176ZM303.576 445.73C302.355 445.73 301.545 445.096 301.545 444.129C301.545 443.172 302.326 442.566 303.693 442.479L306.418 442.312V443.143C306.418 444.607 305.178 445.73 303.576 445.73ZM311.213 447.176C311.711 447.176 312.062 446.805 312.062 446.268V433.641C312.062 433.104 311.711 432.732 311.213 432.732C310.715 432.732 310.363 433.104 310.363 433.641V446.268C310.363 446.805 310.715 447.176 311.213 447.176ZM315.295 435.135C315.881 435.135 316.359 434.656 316.359 434.08C316.359 433.494 315.881 433.025 315.295 433.025C314.719 433.025 314.24 433.494 314.24 434.08C314.24 434.656 314.719 435.135 315.295 435.135ZM315.295 447.176C315.793 447.176 316.145 446.805 316.145 446.268V437.576C316.145 437.039 315.793 436.668 315.295 436.668C314.797 436.668 314.445 437.039 314.445 437.576V446.268C314.445 446.805 314.797 447.176 315.295 447.176ZM319.123 447H325.148C325.637 447 325.91 446.746 325.91 446.297C325.91 445.857 325.637 445.604 325.148 445.604H320.188V445.574L325.393 438.621C325.686 438.23 325.793 438.006 325.793 437.713C325.793 437.166 325.422 436.844 324.777 436.844H318.898C318.41 436.844 318.137 437.098 318.137 437.537C318.137 437.986 318.41 438.24 318.898 438.24H323.85V438.27L318.498 445.408C318.283 445.691 318.215 445.867 318.215 446.16C318.215 446.668 318.576 447 319.123 447ZM330.754 447.176C332.121 447.176 333.42 446.414 334.025 445.252H334.064V446.316C334.064 446.824 334.396 447.176 334.875 447.176C335.344 447.176 335.676 446.824 335.676 446.316V439.979C335.676 437.957 334.172 436.668 331.789 436.668C330.139 436.668 328.654 437.4 328.078 438.514C327.941 438.758 327.873 439.002 327.873 439.217C327.873 439.676 328.186 439.979 328.625 439.979C328.947 439.979 329.172 439.852 329.328 439.568C329.895 438.562 330.646 438.162 331.75 438.162C333.156 438.162 333.977 438.904 333.977 440.145V440.994L331.057 441.16C328.713 441.297 327.375 442.391 327.375 444.129C327.375 445.955 328.732 447.176 330.754 447.176ZM331.135 445.73C329.914 445.73 329.104 445.096 329.104 444.129C329.104 443.172 329.885 442.566 331.252 442.479L333.977 442.312V443.143C333.977 444.607 332.736 445.73 331.135 445.73ZM338.684 447.176C339.182 447.176 339.533 446.805 339.533 446.268V440.691C339.533 439.393 340.188 438.289 341.721 438.289C342.092 438.289 342.355 438.221 342.531 438.074C342.707 437.938 342.795 437.742 342.795 437.479C342.795 437.244 342.727 437.049 342.58 436.912C342.414 436.756 342.15 436.668 341.779 436.668C340.764 436.668 339.768 437.449 339.475 438.504H339.436V437.527C339.436 437.02 339.104 436.668 338.635 436.668C338.166 436.668 337.834 437.02 337.834 437.527V446.268C337.834 446.805 338.186 447.176 338.684 447.176ZM352.316 447.176C355.119 447.176 357.014 445.154 357.014 441.922C357.014 438.68 355.119 436.668 352.316 436.668C349.504 436.668 347.609 438.68 347.609 441.922C347.609 445.154 349.504 447.176 352.316 447.176ZM352.316 445.682C350.52 445.682 349.338 444.314 349.338 441.922C349.338 439.529 350.52 438.162 352.316 438.162C354.113 438.162 355.285 439.529 355.285 441.922C355.285 444.314 354.113 445.682 352.316 445.682ZM60.5 471.176C61.0176 471.176 61.3496 470.824 61.3496 470.277V462.24H62.8438C63.2832 462.24 63.5664 461.986 63.5664 461.547C63.5664 461.127 63.2832 460.844 62.8438 460.844H61.3398V459.77C61.3398 458.725 61.7305 458.275 62.6289 458.275C62.8438 458.275 63.0098 458.256 63.1562 458.217C63.4688 458.129 63.6152 457.934 63.6152 457.621C63.6152 457.123 63.1367 456.83 62.2383 456.83C60.5781 456.83 59.6504 457.768 59.6504 459.711V460.844H58.8105C58.3711 460.844 58.0879 461.127 58.0879 461.547C58.0879 461.986 58.3711 462.24 58.8105 462.24H59.6504V470.277C59.6504 470.824 59.9824 471.176 60.5 471.176ZM66.1152 471.176C66.6133 471.176 66.9648 470.805 66.9648 470.268V457.641C66.9648 457.104 66.6133 456.732 66.1152 456.732C65.6172 456.732 65.2656 457.104 65.2656 457.641V470.268C65.2656 470.805 65.6172 471.176 66.1152 471.176ZM72.7266 471.176C74.2891 471.176 75.3438 470.521 75.9492 469.35H75.9883V470.316C75.9883 470.805 76.3105 471.176 76.7988 471.176C77.2871 471.176 77.5996 470.805 77.5996 470.316V461.576C77.5996 461.039 77.248 460.668 76.75 460.668C76.252 460.668 75.9004 461.039 75.9004 461.576V466.811C75.9004 468.539 74.9043 469.672 73.2539 469.672C71.6816 469.672 70.9102 468.783 70.9102 467.133V461.576C70.9102 461.039 70.5586 460.668 70.0605 460.668C69.5625 460.668 69.2109 461.039 69.2109 461.576V467.436C69.2109 469.74 70.5098 471.176 72.7266 471.176ZM80.1875 471.176C80.4609 471.176 80.666 471.068 80.8223 470.844L83.3613 467.133H83.4004L85.9199 470.844C86.0664 471.068 86.291 471.176 86.5645 471.176C87.0234 471.176 87.375 470.854 87.375 470.434C87.375 470.268 87.3164 470.102 87.1992 469.926L84.3379 465.854L87.2383 461.889C87.3457 461.742 87.4043 461.566 87.4043 461.391C87.4043 460.98 87.043 460.668 86.5645 460.668C86.291 460.668 86.1055 460.785 85.9102 461.068L83.459 464.652H83.4199L80.9102 461.029C80.7246 460.766 80.5586 460.668 80.2656 460.668C79.7969 460.668 79.4355 460.98 79.4355 461.391C79.4355 461.576 79.4941 461.742 79.6113 461.908L82.4824 465.922L79.5527 469.955C79.4453 470.111 79.3867 470.277 79.3867 470.443C79.3867 470.863 79.7285 471.176 80.1875 471.176ZM93.2148 471.176C96.0176 471.176 97.9121 469.154 97.9121 465.922C97.9121 462.68 96.0176 460.668 93.2148 460.668C90.4023 460.668 88.5078 462.68 88.5078 465.922C88.5078 469.154 90.4023 471.176 93.2148 471.176ZM93.2148 469.682C91.418 469.682 90.2363 468.314 90.2363 465.922C90.2363 463.529 91.418 462.162 93.2148 462.162C95.0117 462.162 96.1836 463.529 96.1836 465.922C96.1836 468.314 95.0117 469.682 93.2148 469.682ZM107.58 471.176C109.172 471.176 110.227 470.395 110.783 469.184H110.812V470.346C110.812 470.844 111.203 471.176 111.682 471.176C112.17 471.176 112.512 470.834 112.512 470.346V457.641C112.512 457.104 112.16 456.732 111.662 456.732C111.164 456.732 110.812 457.104 110.812 457.641V462.494H110.773C110.168 461.381 108.996 460.668 107.541 460.668C104.982 460.668 103.234 462.738 103.234 465.922C103.234 469.105 104.992 471.176 107.58 471.176ZM107.902 469.682C106.105 469.682 104.973 468.227 104.973 465.922C104.973 463.627 106.105 462.162 107.902 462.162C109.65 462.162 110.822 463.656 110.822 465.922C110.822 468.197 109.65 469.682 107.902 469.682ZM119.064 471.176C120.92 471.176 122.346 470.395 123 469.018C123.078 468.832 123.127 468.656 123.127 468.52C123.127 468.07 122.824 467.777 122.375 467.777C122.111 467.777 121.916 467.875 121.74 468.119C120.949 469.271 120.207 469.701 118.996 469.701C117.18 469.701 116.057 468.432 116.057 466.381H122.404C122.99 466.381 123.342 466.01 123.342 465.395C123.342 462.611 121.516 460.668 118.918 460.668C116.115 460.668 114.309 462.758 114.309 465.961C114.309 469.242 116.066 471.176 119.064 471.176ZM116.066 465.053C116.174 463.305 117.307 462.143 118.889 462.143C120.461 462.143 121.545 463.295 121.584 465.053H116.066ZM132.121 471.176C133.488 471.176 134.787 470.414 135.393 469.252H135.432V470.316C135.432 470.824 135.764 471.176 136.242 471.176C136.711 471.176 137.043 470.824 137.043 470.316V463.979C137.043 461.957 135.539 460.668 133.156 460.668C131.506 460.668 130.021 461.4 129.445 462.514C129.309 462.758 129.24 463.002 129.24 463.217C129.24 463.676 129.553 463.979 129.992 463.979C130.314 463.979 130.539 463.852 130.695 463.568C131.262 462.562 132.014 462.162 133.117 462.162C134.523 462.162 135.344 462.904 135.344 464.145V464.994L132.424 465.16C130.08 465.297 128.742 466.391 128.742 468.129C128.742 469.955 130.1 471.176 132.121 471.176ZM132.502 469.73C131.281 469.73 130.471 469.096 130.471 468.129C130.471 467.172 131.252 466.566 132.619 466.479L135.344 466.312V467.143C135.344 468.607 134.104 469.73 132.502 469.73ZM139.748 468.656C139.748 470.277 140.568 471.078 142.209 471.078H142.316C143.264 471.078 143.557 470.805 143.557 470.287C143.557 469.887 143.303 469.662 142.746 469.623L142.6 469.613C141.75 469.555 141.447 469.145 141.447 468.285V462.24H142.756C143.244 462.24 143.518 461.986 143.518 461.537C143.518 461.098 143.244 460.844 142.756 460.844H141.447V459.105C141.447 458.568 141.096 458.197 140.598 458.197C140.1 458.197 139.748 458.568 139.748 459.105V460.844H138.898C138.41 460.844 138.137 461.098 138.137 461.537C138.137 461.986 138.41 462.24 138.898 462.24H139.748V468.656ZM146.174 459.135C146.76 459.135 147.238 458.656 147.238 458.08C147.238 457.494 146.76 457.025 146.174 457.025C145.598 457.025 145.119 457.494 145.119 458.08C145.119 458.656 145.598 459.135 146.174 459.135ZM146.174 471.176C146.672 471.176 147.023 470.805 147.023 470.268V461.576C147.023 461.039 146.672 460.668 146.174 460.668C145.676 460.668 145.324 461.039 145.324 461.576V470.268C145.324 470.805 145.676 471.176 146.174 471.176ZM153.039 471.176C153.586 471.176 153.947 470.902 154.172 470.316L157.395 461.889C157.453 461.742 157.482 461.596 157.482 461.449C157.482 460.98 157.15 460.668 156.643 460.668C156.271 460.668 156.018 460.873 155.861 461.312L153.068 469.193H153.029L150.246 461.312C150.09 460.873 149.836 460.668 149.455 460.668C148.947 460.668 148.605 460.98 148.605 461.449C148.605 461.596 148.635 461.742 148.693 461.889L151.926 470.316C152.17 470.932 152.482 471.176 153.039 471.176ZM159.924 459.135C160.51 459.135 160.988 458.656 160.988 458.08C160.988 457.494 160.51 457.025 159.924 457.025C159.348 457.025 158.869 457.494 158.869 458.08C158.869 458.656 159.348 459.135 159.924 459.135ZM159.924 471.176C160.422 471.176 160.773 470.805 160.773 470.268V461.576C160.773 461.039 160.422 460.668 159.924 460.668C159.426 460.668 159.074 461.039 159.074 461.576V470.268C159.074 470.805 159.426 471.176 159.924 471.176ZM166.916 471.176C168.508 471.176 169.562 470.395 170.119 469.184H170.148V470.346C170.148 470.844 170.539 471.176 171.018 471.176C171.506 471.176 171.848 470.834 171.848 470.346V457.641C171.848 457.104 171.496 456.732 170.998 456.732C170.5 456.732 170.148 457.104 170.148 457.641V462.494H170.109C169.504 461.381 168.332 460.668 166.877 460.668C164.318 460.668 162.57 462.738 162.57 465.922C162.57 469.105 164.328 471.176 166.916 471.176ZM167.238 469.682C165.441 469.682 164.309 468.227 164.309 465.922C164.309 463.627 165.441 462.162 167.238 462.162C168.986 462.162 170.158 463.656 170.158 465.922C170.158 468.197 168.986 469.682 167.238 469.682ZM177.102 471.176C178.469 471.176 179.768 470.414 180.373 469.252H180.412V470.316C180.412 470.824 180.744 471.176 181.223 471.176C181.691 471.176 182.023 470.824 182.023 470.316V463.979C182.023 461.957 180.52 460.668 178.137 460.668C176.486 460.668 175.002 461.4 174.426 462.514C174.289 462.758 174.221 463.002 174.221 463.217C174.221 463.676 174.533 463.979 174.973 463.979C175.295 463.979 175.52 463.852 175.676 463.568C176.242 462.562 176.994 462.162 178.098 462.162C179.504 462.162 180.324 462.904 180.324 464.145V464.994L177.404 465.16C175.061 465.297 173.723 466.391 173.723 468.129C173.723 469.955 175.08 471.176 177.102 471.176ZM177.482 469.73C176.262 469.73 175.451 469.096 175.451 468.129C175.451 467.172 176.232 466.566 177.6 466.479L180.324 466.312V467.143C180.324 468.607 179.084 469.73 177.482 469.73ZM188.029 471.176C189.621 471.176 190.676 470.395 191.232 469.184H191.262V470.346C191.262 470.844 191.652 471.176 192.131 471.176C192.619 471.176 192.961 470.834 192.961 470.346V457.641C192.961 457.104 192.609 456.732 192.111 456.732C191.613 456.732 191.262 457.104 191.262 457.641V462.494H191.223C190.617 461.381 189.445 460.668 187.99 460.668C185.432 460.668 183.684 462.738 183.684 465.922C183.684 469.105 185.441 471.176 188.029 471.176ZM188.352 469.682C186.555 469.682 185.422 468.227 185.422 465.922C185.422 463.627 186.555 462.162 188.352 462.162C190.1 462.162 191.271 463.656 191.271 465.922C191.271 468.197 190.1 469.682 188.352 469.682ZM199.514 471.176C201.369 471.176 202.795 470.395 203.449 469.018C203.527 468.832 203.576 468.656 203.576 468.52C203.576 468.07 203.273 467.777 202.824 467.777C202.561 467.777 202.365 467.875 202.189 468.119C201.398 469.271 200.656 469.701 199.445 469.701C197.629 469.701 196.506 468.432 196.506 466.381H202.854C203.439 466.381 203.791 466.01 203.791 465.395C203.791 462.611 201.965 460.668 199.367 460.668C196.564 460.668 194.758 462.758 194.758 465.961C194.758 469.242 196.516 471.176 199.514 471.176ZM196.516 465.053C196.623 463.305 197.756 462.143 199.338 462.143C200.91 462.143 201.994 463.295 202.033 465.053H196.516ZM209.035 471.176C211.447 471.176 213.078 469.955 213.078 468.139C213.078 466.645 212.297 465.902 210.178 465.385L208.664 465.014C207.551 464.74 207.004 464.252 207.004 463.549C207.004 462.68 207.854 462.064 209.074 462.064C210.109 462.064 210.764 462.436 211.203 463.285C211.389 463.637 211.623 463.744 211.955 463.744C212.365 463.744 212.619 463.48 212.619 463.08C212.619 463.002 212.609 462.924 212.59 462.826C212.326 461.605 210.842 460.668 209.172 460.668C206.877 460.668 205.324 461.869 205.324 463.637C205.324 465.062 206.271 465.99 208.234 466.479L209.787 466.869C210.93 467.152 211.35 467.543 211.35 468.275C211.35 469.223 210.471 469.789 209.172 469.789C207.873 469.789 207.268 469.389 206.76 468.5C206.564 468.148 206.32 467.992 206.018 467.992C205.578 467.992 205.246 468.246 205.246 468.695C205.246 468.822 205.266 468.949 205.324 469.096C205.812 470.365 207.229 471.176 209.035 471.176ZM222.717 471.176C224.152 471.176 225.334 470.463 225.969 469.301H226.008V473.676C226.008 474.213 226.359 474.584 226.857 474.584C227.355 474.584 227.707 474.213 227.707 473.676V461.527C227.707 461.029 227.385 460.668 226.896 460.668C226.408 460.668 226.086 461.02 226.086 461.527V462.562H226.047C225.393 461.391 224.23 460.668 222.756 460.668C220.148 460.668 218.43 462.729 218.43 465.922C218.43 469.105 220.148 471.176 222.717 471.176ZM223.059 469.682C221.281 469.682 220.168 468.236 220.168 465.922C220.168 463.598 221.281 462.162 223.059 462.162C224.797 462.162 226.008 463.656 226.008 465.922C226.008 468.188 224.797 469.682 223.059 469.682ZM233.391 471.176C234.953 471.176 236.008 470.521 236.613 469.35H236.652V470.316C236.652 470.805 236.975 471.176 237.463 471.176C237.951 471.176 238.264 470.805 238.264 470.316V461.576C238.264 461.039 237.912 460.668 237.414 460.668C236.916 460.668 236.564 461.039 236.564 461.576V466.811C236.564 468.539 235.568 469.672 233.918 469.672C232.346 469.672 231.574 468.783 231.574 467.133V461.576C231.574 461.039 231.223 460.668 230.725 460.668C230.227 460.668 229.875 461.039 229.875 461.576V467.436C229.875 469.74 231.174 471.176 233.391 471.176ZM244.729 471.176C246.584 471.176 248.01 470.395 248.664 469.018C248.742 468.832 248.791 468.656 248.791 468.52C248.791 468.07 248.488 467.777 248.039 467.777C247.775 467.777 247.58 467.875 247.404 468.119C246.613 469.271 245.871 469.701 244.66 469.701C242.844 469.701 241.721 468.432 241.721 466.381H248.068C248.654 466.381 249.006 466.01 249.006 465.395C249.006 462.611 247.18 460.668 244.582 460.668C241.779 460.668 239.973 462.758 239.973 465.961C239.973 469.242 241.73 471.176 244.729 471.176ZM241.73 465.053C241.838 463.305 242.971 462.143 244.553 462.143C246.125 462.143 247.209 463.295 247.248 465.053H241.73ZM258.547 471.176C259.094 471.176 259.455 470.902 259.68 470.316L262.902 461.889C262.961 461.742 262.99 461.596 262.99 461.449C262.99 460.98 262.658 460.668 262.15 460.668C261.779 460.668 261.525 460.873 261.369 461.312L258.576 469.193H258.537L255.754 461.312C255.598 460.873 255.344 460.668 254.963 460.668C254.455 460.668 254.113 460.98 254.113 461.449C254.113 461.596 254.143 461.742 254.201 461.889L257.434 470.316C257.678 470.932 257.99 471.176 258.547 471.176ZM268.41 471.176C271.213 471.176 273.107 469.154 273.107 465.922C273.107 462.68 271.213 460.668 268.41 460.668C265.598 460.668 263.703 462.68 263.703 465.922C263.703 469.154 265.598 471.176 268.41 471.176ZM268.41 469.682C266.613 469.682 265.432 468.314 265.432 465.922C265.432 463.529 266.613 462.162 268.41 462.162C270.207 462.162 271.379 463.529 271.379 465.922C271.379 468.314 270.207 469.682 268.41 469.682ZM279.016 471.176C280.861 471.176 282.473 470.16 282.961 468.754C283.01 468.598 283.039 468.451 283.039 468.324C283.039 467.885 282.746 467.582 282.307 467.582C281.936 467.582 281.75 467.719 281.506 468.178C280.979 469.154 280.236 469.682 279.016 469.682C277.268 469.682 276.057 468.256 276.057 465.922C276.057 463.646 277.248 462.162 279.016 462.162C280.188 462.162 280.959 462.66 281.496 463.666C281.73 464.105 281.936 464.262 282.307 464.262C282.746 464.262 283.029 463.969 283.029 463.52C283.029 463.412 283.01 463.285 282.971 463.158C282.58 461.752 280.91 460.668 278.996 460.668C276.184 460.668 274.328 462.748 274.328 465.941C274.328 469.154 276.203 471.176 279.016 471.176ZM286.74 459.594C286.984 459.594 287.121 459.506 287.355 459.242L288.918 457.504H288.977L290.539 459.242C290.773 459.506 290.91 459.594 291.154 459.594C291.486 459.594 291.74 459.33 291.74 459.037C291.74 458.842 291.672 458.734 291.535 458.578L289.787 456.654C289.504 456.342 289.289 456.234 288.967 456.234C288.605 456.234 288.391 456.342 288.107 456.654L286.359 458.578C286.223 458.734 286.154 458.842 286.154 459.037C286.154 459.33 286.408 459.594 286.74 459.594ZM289.104 471.176C290.959 471.176 292.385 470.395 293.039 469.018C293.117 468.832 293.166 468.656 293.166 468.52C293.166 468.07 292.863 467.777 292.414 467.777C292.15 467.777 291.955 467.875 291.779 468.119C290.988 469.271 290.246 469.701 289.035 469.701C287.219 469.701 286.096 468.432 286.096 466.381H292.443C293.029 466.381 293.381 466.01 293.381 465.395C293.381 462.611 291.555 460.668 288.957 460.668C286.154 460.668 284.348 462.758 284.348 465.961C284.348 469.242 286.105 471.176 289.104 471.176ZM286.105 465.053C286.213 463.305 287.346 462.143 288.928 462.143C290.5 462.143 291.584 463.295 291.623 465.053H286.105ZM299.748 468.656C299.748 470.277 300.568 471.078 302.209 471.078H302.316C303.264 471.078 303.557 470.805 303.557 470.287C303.557 469.887 303.303 469.662 302.746 469.623L302.6 469.613C301.75 469.555 301.447 469.145 301.447 468.285V462.24H302.756C303.244 462.24 303.518 461.986 303.518 461.537C303.518 461.098 303.244 460.844 302.756 460.844H301.447V459.105C301.447 458.568 301.096 458.197 300.598 458.197C300.1 458.197 299.748 458.568 299.748 459.105V460.844H298.898C298.41 460.844 298.137 461.098 298.137 461.537C298.137 461.986 298.41 462.24 298.898 462.24H299.748V468.656ZM309.201 471.176C311.057 471.176 312.482 470.395 313.137 469.018C313.215 468.832 313.264 468.656 313.264 468.52C313.264 468.07 312.961 467.777 312.512 467.777C312.248 467.777 312.053 467.875 311.877 468.119C311.086 469.271 310.344 469.701 309.133 469.701C307.316 469.701 306.193 468.432 306.193 466.381H312.541C313.127 466.381 313.479 466.01 313.479 465.395C313.479 462.611 311.652 460.668 309.055 460.668C306.252 460.668 304.445 462.758 304.445 465.961C304.445 469.242 306.203 471.176 309.201 471.176ZM306.203 465.053C306.311 463.305 307.443 462.143 309.025 462.143C310.598 462.143 311.682 463.295 311.721 465.053H306.203ZM316.047 471.176C316.564 471.176 316.896 470.785 316.896 470.268V464.633C316.896 463.227 317.873 462.172 319.221 462.172C320.48 462.172 321.301 462.973 321.301 464.193V470.268C321.301 470.785 321.633 471.176 322.15 471.176C322.668 471.176 323 470.785 323 470.268V464.545C323 463.168 323.947 462.172 325.295 462.172C326.633 462.172 327.404 462.992 327.404 464.379V470.268C327.404 470.785 327.736 471.176 328.254 471.176C328.771 471.176 329.104 470.785 329.104 470.268V463.988C329.104 461.977 327.805 460.668 325.793 460.668C324.367 460.668 323.176 461.391 322.609 462.602H322.57C322.131 461.371 321.105 460.668 319.719 460.668C318.352 460.668 317.316 461.391 316.838 462.465H316.799V461.527C316.799 461.02 316.467 460.668 315.998 460.668C315.529 460.668 315.197 461.02 315.197 461.527V470.268C315.197 470.785 315.529 471.176 316.047 471.176ZM332.707 471.098C333.332 471.098 333.82 470.609 333.82 469.984C333.82 469.359 333.332 468.871 332.707 468.871C332.082 468.871 331.594 469.359 331.594 469.984C331.594 470.609 332.082 471.098 332.707 471.098Z" fill="black"/>
<path d="M72.0586 394.469C80.3984 394.469 85.6523 388.883 85.6523 379.918C85.6523 370.934 80.3984 365.328 72.0586 365.328C63.6992 365.328 58.4648 370.934 58.4648 379.918C58.4648 388.883 63.6992 394.469 72.0586 394.469ZM72.0586 389.547C67.4297 389.547 64.4805 385.816 64.4805 379.918C64.4805 374 67.4492 370.25 72.0586 370.25C76.668 370.25 79.6172 374 79.6172 379.918C79.6172 385.816 76.668 389.547 72.0586 389.547ZM91.8809 394.41C93.5606 394.41 94.7325 393.395 94.7325 391.441V368.375C94.7325 366.422 93.5606 365.387 91.8809 365.387C90.2208 365.387 89.0294 366.422 89.0294 368.375V391.441C89.0294 393.395 90.2208 394.41 91.8809 394.41ZM108.422 370.777C109.184 370.777 109.555 370.562 110.18 369.82L112.778 366.656C113.168 366.148 113.363 365.68 113.363 365.172C113.363 364.059 112.543 363.316 111.332 363.316C110.453 363.316 109.985 363.609 109.262 364.645L106.938 367.926C106.645 368.355 106.547 368.668 106.547 369.156C106.547 370.094 107.328 370.777 108.422 370.777ZM104.692 394.332C107.309 394.332 109.926 393.023 111.098 390.797H111.215V391.871C111.332 393.551 112.406 394.41 113.949 394.41C115.57 394.41 116.723 393.434 116.723 391.539V379.605C116.723 375.387 113.227 372.613 107.856 372.613C103.52 372.613 100.16 374.156 99.1838 376.656C98.9884 377.086 98.8908 377.496 98.8908 377.945C98.8908 379.234 99.8869 380.133 101.274 380.133C102.192 380.133 102.914 379.781 103.539 379.078C104.809 377.438 105.863 376.871 107.602 376.871C109.75 376.871 111.117 378.004 111.117 379.957V381.344L105.844 381.656C100.61 381.969 97.6798 384.176 97.6798 387.984C97.6798 391.754 100.707 394.332 104.692 394.332ZM106.567 390.211C104.653 390.211 103.363 389.234 103.363 387.672C103.363 386.188 104.574 385.23 106.703 385.074L111.117 384.801V386.324C111.117 388.59 109.067 390.211 106.567 390.211ZM124.807 384.996C126.428 384.996 127.287 384.02 127.346 382.359L127.639 368.844C127.658 368.648 127.658 368.414 127.658 368.258C127.658 366.461 126.565 365.387 124.826 365.387C123.069 365.387 121.955 366.461 121.955 368.258C121.955 368.414 121.975 368.648 121.975 368.844L122.287 382.359C122.326 384.02 123.186 384.996 124.807 384.996ZM124.807 394.488C126.584 394.488 127.99 393.141 127.99 391.422C127.99 389.703 126.584 388.355 124.807 388.355C123.03 388.355 121.623 389.703 121.623 391.422C121.623 393.141 123.03 394.488 124.807 394.488Z" fill="black"/>
</g>
<defs>
<filter id="filter0_b_366_20160" x="-6" y="-3" width="402" height="855" filterUnits="userSpaceOnUse" color-interpolation-filters="sRGB">
<feFlood flood-opacity="0" result="BackgroundImageFix"/>
<feGaussianBlur in="BackgroundImageFix" stdDeviation="3"/>
<feComposite in2="SourceAlpha" operator="in" result="effect1_backgroundBlur_366_20160"/>
<feBlend mode="normal" in="SourceGraphic" in2="effect1_backgroundBlur_366_20160" result="shape"/>
</filter>
<clipPath id="clip0_366_20160">
<rect width="390" height="844" fill="white"/>
</clipPath>
</defs>
</svg>
