<svg width="390" height="844" viewBox="0 0 390 844" fill="none" xmlns="http://www.w3.org/2000/svg">
<g clip-path="url(#clip0_366_20159)">
<rect width="390" height="844" fill="white"/>
<path d="M112.5 193.709C53.0874 190.759 39.5001 176.629 0.000104703 175.209L1.72589e-06 365.209C77.5 397.209 100.607 360.903 134.5 354.209C182.107 344.806 227 371.309 255 379.709C275 385.709 330 364.209 350 359.209C370 354.209 390 365.209 390 365.209L390 175.3C312 171.709 317.5 214.209 231.5 179.709C170.463 155.223 183 197.209 112.5 193.709Z" fill="#E4E4E4"/>
<path d="M241.722 116.384H257.038C258.533 116.384 259.434 115.441 259.434 114.075C259.434 112.67 258.533 111.766 257.038 111.766H246.61V111.65L252.59 105.877C257.114 101.586 258.763 99.4691 258.763 96.0823C258.763 91.3099 254.814 88 248.948 88C243.715 88 240.246 90.8673 239.307 93.9463C239.173 94.3504 239.096 94.7545 239.096 95.1971C239.096 96.6403 240.016 97.564 241.569 97.564C242.815 97.564 243.485 97.0252 244.137 95.8706C245.134 93.6384 246.667 92.5222 248.891 92.5222C251.364 92.5222 253.127 94.1579 253.127 96.4479C253.127 98.4492 252.245 99.7963 248.833 103.087L240.591 110.996C239.422 112.074 239 112.805 239 113.902C239 115.364 239.901 116.384 241.722 116.384Z" fill="black"/>
<path d="M273.516 117C280.11 117 284.729 113.69 284.729 108.879C284.729 105.223 282.065 102.529 278.289 101.778V101.663C281.528 100.835 283.713 98.4685 283.713 95.4857C283.713 91.1367 279.516 88 273.516 88C267.516 88 263.299 91.1559 263.299 95.4665C263.299 98.4877 265.503 100.855 268.762 101.663V101.778C264.986 102.51 262.302 105.204 262.302 108.86C262.302 113.671 266.903 117 273.516 117ZM273.516 99.9117C270.89 99.9117 269.03 98.3338 269.03 96.063C269.03 93.7731 270.89 92.1951 273.516 92.1951C276.123 92.1951 278.001 93.7731 278.001 96.063C278.001 98.3338 276.123 99.9117 273.516 99.9117ZM273.516 112.766C270.468 112.766 268.34 110.958 268.34 108.437C268.34 105.935 270.468 104.145 273.516 104.145C276.564 104.145 278.672 105.935 278.672 108.437C278.672 110.958 276.564 112.766 273.516 112.766Z" fill="black"/>
<path d="M299.169 116.75C300.99 116.75 302.064 115.634 302.064 113.729V105.454H311.169C312.683 105.454 313.641 104.588 313.641 103.145C313.641 101.721 312.664 100.855 311.169 100.855H302.064V93.4267H312.108C313.68 93.4267 314.734 92.5222 314.734 91.0212C314.734 89.5202 313.699 88.6158 312.108 88.6158H299.169C297.348 88.6158 296.275 89.7319 296.275 91.637V113.729C296.275 115.634 297.348 116.75 299.169 116.75Z" fill="black"/>
<path d="M326.152 116.827C330.12 116.827 333.302 115.326 334.663 112.786C334.912 112.324 335.046 111.862 335.046 111.419C335.046 110.13 334.068 109.36 332.861 109.36C332.132 109.36 331.634 109.572 331.04 110.188C329.525 111.977 328.184 112.67 326.133 112.67C323.296 112.67 321.456 110.669 321.456 107.609V107.359H333.187C334.739 107.359 335.621 106.474 335.621 104.915C335.621 99.3152 331.711 95.3125 325.883 95.3125C319.807 95.3125 315.954 99.5269 315.954 106.166C315.954 112.843 319.73 116.827 326.152 116.827ZM321.513 103.914C321.705 101.278 323.487 99.4691 325.941 99.4691C328.395 99.4691 330.12 101.22 330.235 103.914H321.513Z" fill="black"/>
<path d="M341.327 116.788C342.956 116.788 344.106 115.807 344.106 113.94V112.843H344.221C345.371 115.249 347.652 116.711 350.662 116.711C355.856 116.711 359 112.709 359 106.07C359 99.4114 355.837 95.428 350.643 95.428C347.729 95.428 345.429 96.8905 344.298 99.3344H344.183V91.1367C344.183 89.2123 343.033 88.1924 341.384 88.1924C339.755 88.1924 338.586 89.2123 338.586 91.1367V113.94C338.586 115.826 339.717 116.788 341.327 116.788ZM348.745 112.189C346.023 112.189 344.164 109.803 344.164 106.07C344.164 102.375 346.023 99.931 348.745 99.931C351.524 99.931 353.269 102.317 353.269 106.07C353.269 109.841 351.524 112.189 348.745 112.189Z" fill="black"/>
<path d="M326.875 134.788H331.798C332.278 134.788 332.568 134.463 332.568 133.992C332.568 133.508 332.278 133.196 331.798 133.196H328.446V133.156L330.368 131.167C331.822 129.688 332.352 128.959 332.352 127.792C332.352 126.147 331.083 125.007 329.198 125.007C327.516 125.007 326.4 125.995 326.099 127.056C326.055 127.195 326.031 127.334 326.031 127.487C326.031 127.984 326.327 128.302 326.826 128.302C327.226 128.302 327.442 128.117 327.651 127.719C327.972 126.95 328.464 126.565 329.179 126.565C329.974 126.565 330.541 127.129 330.541 127.918C330.541 128.607 330.257 129.072 329.161 130.206L326.511 132.931C326.136 133.302 326 133.554 326 133.932C326 134.436 326.29 134.788 326.875 134.788Z" fill="black"/>
<path d="M337.039 135C339.294 135 340.662 133.07 340.662 129.98C340.662 126.89 339.282 125 337.039 125C334.797 125 333.41 126.897 333.41 129.987C333.41 133.084 334.784 135 337.039 135ZM337.039 133.395C335.942 133.395 335.302 132.182 335.302 129.987C335.302 127.812 335.955 126.605 337.039 126.605C338.13 126.605 338.77 127.805 338.77 129.987C338.77 132.182 338.136 133.395 337.039 133.395Z" fill="black"/>
<path d="M342.546 134.788H347.468C347.949 134.788 348.239 134.463 348.239 133.992C348.239 133.508 347.949 133.196 347.468 133.196H344.117V133.156L346.039 131.167C347.493 129.688 348.023 128.959 348.023 127.792C348.023 126.147 346.754 125.007 344.868 125.007C343.186 125.007 342.071 125.995 341.769 127.056C341.726 127.195 341.702 127.334 341.702 127.487C341.702 127.984 341.997 128.302 342.496 128.302C342.897 128.302 343.113 128.117 343.322 127.719C343.642 126.95 344.135 126.565 344.85 126.565C345.645 126.565 346.212 127.129 346.212 127.918C346.212 128.607 345.928 129.072 344.831 130.206L342.182 132.931C341.806 133.302 341.671 133.554 341.671 133.932C341.671 134.436 341.96 134.788 342.546 134.788Z" fill="black"/>
<path d="M352.537 135C354.601 135 356 133.846 356 132.109C356 130.789 355.144 129.954 353.819 129.821V129.781C354.866 129.549 355.673 128.753 355.673 127.54C355.673 126.008 354.404 125.007 352.525 125.007C350.954 125.007 349.944 125.789 349.549 126.724C349.457 126.95 349.414 127.142 349.414 127.367C349.414 127.851 349.679 128.176 350.196 128.176C350.615 128.176 350.831 128.011 351.034 127.56C351.324 126.883 351.78 126.545 352.531 126.545C353.431 126.545 353.911 127.056 353.911 127.825C353.911 128.607 353.308 129.151 352.377 129.151H352.014C351.564 129.151 351.305 129.443 351.305 129.861C351.305 130.292 351.564 130.577 352.014 130.577H352.402C353.48 130.577 354.115 131.094 354.109 132.023C354.109 132.818 353.48 133.389 352.568 133.389C351.644 133.389 351.164 132.991 350.849 132.321C350.665 131.956 350.43 131.797 350.061 131.797C349.549 131.797 349.241 132.122 349.241 132.639C349.241 132.838 349.284 133.05 349.383 133.269C349.802 134.211 350.843 135 352.537 135Z" fill="black"/>
<path d="M244.516 135.346C245.411 135.346 245.938 134.785 245.938 133.828V123.629H248.752C249.515 123.629 250.033 123.175 250.033 122.421C250.033 121.667 249.524 121.213 248.752 121.213H240.29C239.508 121.213 239 121.667 239 122.421C239 123.175 239.518 123.629 240.29 123.629H243.095V133.828C243.095 134.785 243.622 135.346 244.516 135.346Z" fill="black"/>
<path d="M253.553 135.356C255.078 135.356 256.076 134.602 256.575 133.296H256.632V133.934C256.632 134.872 257.168 135.365 257.959 135.365C258.75 135.365 259.286 134.872 259.286 133.934V126.066C259.286 125.099 258.721 124.586 257.912 124.586C257.112 124.586 256.537 125.099 256.537 126.066V130.735C256.537 132.107 255.775 133.006 254.551 133.006C253.337 133.006 252.668 132.272 252.668 130.889V126.066C252.668 125.099 252.104 124.586 251.294 124.586C250.494 124.586 249.92 125.099 249.92 126.066V131.479C249.92 133.896 251.369 135.356 253.553 135.356Z" fill="black"/>
<path d="M265.716 135.385C267.664 135.385 269.227 134.631 269.895 133.354C270.018 133.122 270.084 132.89 270.084 132.668C270.084 132.02 269.603 131.634 269.01 131.634C268.653 131.634 268.408 131.74 268.116 132.049C267.372 132.948 266.714 133.296 265.706 133.296C264.313 133.296 263.409 132.291 263.409 130.754V130.628H269.17C269.933 130.628 270.366 130.184 270.366 129.401C270.366 126.588 268.446 124.577 265.584 124.577C262.6 124.577 260.708 126.694 260.708 130.029C260.708 133.383 262.562 135.385 265.716 135.385ZM263.438 128.898C263.532 127.574 264.407 126.665 265.612 126.665C266.817 126.665 267.664 127.545 267.721 128.898H263.438Z" fill="black"/>
<path d="M275.901 135.385C278.565 135.385 280.363 134.05 280.363 131.991C280.363 130.445 279.478 129.633 277.332 129.169L275.666 128.801C274.659 128.579 274.263 128.221 274.263 127.68C274.263 127.013 274.913 126.559 275.845 126.559C276.833 126.559 277.379 127.042 277.859 127.67C278.104 127.97 278.499 128.105 278.857 128.105C279.563 128.105 279.911 127.709 279.911 127.139C279.911 127.003 279.883 126.868 279.845 126.723C279.516 125.553 277.982 124.577 275.892 124.577C273.275 124.577 271.609 125.853 271.609 127.835C271.609 129.372 272.606 130.406 274.583 130.841L276.278 131.208C277.266 131.431 277.614 131.73 277.614 132.291C277.614 132.977 276.965 133.403 275.967 133.403C274.922 133.403 274.301 133.074 273.764 132.349C273.388 131.914 273.011 131.711 272.569 131.711C271.929 131.711 271.458 132.146 271.458 132.794C271.458 132.948 271.496 133.132 271.562 133.316C272.042 134.534 273.585 135.385 275.901 135.385Z" fill="black"/>
<path d="M285.475 135.327C287.028 135.327 288.139 134.495 288.581 133.335H288.628V133.934C288.628 134.882 289.221 135.365 290.012 135.365C290.812 135.365 291.377 134.872 291.377 133.934V122.479C291.377 121.512 290.812 121 290.003 121C289.203 121 288.628 121.512 288.628 122.479V126.578H288.572C288.082 125.427 286.953 124.635 285.494 124.635C282.961 124.635 281.361 126.675 281.361 129.961C281.361 133.277 282.952 135.327 285.475 135.327ZM286.407 133.055C285.023 133.055 284.176 131.885 284.176 129.981C284.176 128.086 285.023 126.897 286.407 126.897C287.772 126.897 288.647 128.096 288.647 129.981C288.647 131.875 287.772 133.055 286.407 133.055Z" fill="black"/>
<path d="M296.197 135.327C297.458 135.327 298.72 134.679 299.284 133.577H299.341V134.108C299.397 134.94 299.915 135.365 300.659 135.365C301.44 135.365 301.996 134.882 301.996 133.944V128.038C301.996 125.95 300.311 124.577 297.722 124.577C295.632 124.577 294.013 125.34 293.542 126.578C293.448 126.791 293.401 126.994 293.401 127.216C293.401 127.854 293.881 128.299 294.549 128.299C294.992 128.299 295.34 128.125 295.641 127.777C296.253 126.965 296.762 126.684 297.599 126.684C298.635 126.684 299.294 127.245 299.294 128.212V128.898L296.752 129.053C294.229 129.207 292.817 130.3 292.817 132.185C292.817 134.05 294.276 135.327 296.197 135.327ZM297.1 133.287C296.178 133.287 295.557 132.803 295.557 132.03C295.557 131.295 296.14 130.822 297.166 130.744L299.294 130.609V131.363C299.294 132.484 298.305 133.287 297.1 133.287Z" fill="black"/>
<path d="M305.431 139C307.644 139 308.811 138.014 309.752 135.336L312.849 126.694C312.944 126.423 313 126.095 313 125.863C313 125.118 312.454 124.586 311.663 124.586C310.957 124.586 310.562 124.925 310.336 125.708L308.143 132.9H308.096L305.902 125.727C305.676 124.905 305.3 124.586 304.575 124.586C303.765 124.586 303.153 125.137 303.153 125.901C303.153 126.133 303.21 126.443 303.313 126.733L306.533 135.452L306.392 135.82C306.062 136.545 305.544 136.757 305.064 136.757C304.876 136.757 304.773 136.748 304.584 136.748C303.963 136.748 303.577 137.105 303.577 137.676C303.577 138.526 304.227 139 305.431 139Z" fill="black"/>
<path d="M41.9375 190.297C43.4219 190.297 44.2969 189.391 44.2969 187.844V181.578L51.1719 170.938C51.5156 170.391 51.6719 169.875 51.6719 169.328C51.6719 168.078 50.6719 167.141 49.3438 167.141C48.4062 167.141 47.7969 167.562 47.2031 168.594L42.0312 177.078H41.9219L36.7656 168.594C36.1406 167.516 35.5938 167.141 34.5781 167.141C33.2188 167.141 32.2188 168.078 32.2188 169.359C32.2188 169.891 32.3594 170.422 32.7031 170.953L39.5781 181.578V187.844C39.5781 189.391 40.4531 190.297 41.9375 190.297ZM58.3125 190.359C63.375 190.359 66.6094 187.125 66.6094 181.609C66.6094 176.172 63.3281 172.891 58.3125 172.891C53.2969 172.891 50.0156 176.188 50.0156 181.609C50.0156 187.109 53.25 190.359 58.3125 190.359ZM58.3125 186.875C56.0625 186.875 54.6406 184.984 54.6406 181.625C54.6406 178.297 56.0938 176.375 58.3125 176.375C60.5312 176.375 61.9688 178.297 61.9688 181.625C61.9688 184.984 60.5469 186.875 58.3125 186.875ZM74.9219 190.312C77.4531 190.312 79.1094 189.094 79.9375 186.984H80.0312V188.016C80.0312 189.531 80.9219 190.328 82.2344 190.328C83.5469 190.328 84.4375 189.531 84.4375 188.016V175.297C84.4375 173.734 83.5 172.906 82.1562 172.906C80.8281 172.906 79.875 173.734 79.875 175.297V182.844C79.875 185.062 78.6094 186.516 76.5781 186.516C74.5625 186.516 73.4531 185.328 73.4531 183.094V175.297C73.4531 173.734 72.5156 172.906 71.1719 172.906C69.8438 172.906 68.8906 173.734 68.8906 175.297V184.047C68.8906 187.953 71.2969 190.312 74.9219 190.312ZM89.6875 190.328C91.0781 190.328 91.9688 189.469 91.9688 187.953V180.516C91.9688 178.531 92.7031 177.359 94.7812 177.328C95.6719 177.312 96.3281 177.109 96.7656 176.734C97.2031 176.359 97.4219 175.812 97.4219 175.094C97.4219 174.312 97.2031 173.75 96.7656 173.406C96.4375 173.125 95.9531 172.984 95.3438 172.984C93.6719 172.984 92.2969 174.219 91.8594 176.297H91.7656V175.203C91.7656 173.75 90.8906 172.906 89.6094 172.906C88.2969 172.906 87.4062 173.75 87.4062 175.203V187.953C87.4062 189.469 88.3125 190.328 89.6875 190.328ZM108.156 190.297C109.641 190.297 110.516 189.391 110.516 187.844V181.125H117.938C119.172 181.125 119.953 180.422 119.953 179.25C119.953 178.094 119.156 177.391 117.938 177.391H110.516V171.359H118.703C119.984 171.359 120.844 170.625 120.844 169.406C120.844 168.188 120 167.453 118.703 167.453H108.156C106.672 167.453 105.797 168.359 105.797 169.906V187.844C105.797 189.391 106.672 190.297 108.156 190.297ZM125.359 190.328C126.703 190.328 127.641 189.516 127.641 187.953V169.5C127.641 167.938 126.703 167.109 125.359 167.109C124.031 167.109 123.078 167.938 123.078 169.5V187.953C123.078 189.516 124.031 190.328 125.359 190.328ZM138.406 190.359C143.469 190.359 146.703 187.125 146.703 181.609C146.703 176.172 143.422 172.891 138.406 172.891C133.391 172.891 130.109 176.188 130.109 181.609C130.109 187.109 133.344 190.359 138.406 190.359ZM138.406 186.875C136.156 186.875 134.734 184.984 134.734 181.625C134.734 178.297 136.188 176.375 138.406 176.375C140.625 176.375 142.062 178.297 142.062 181.625C142.062 184.984 140.641 186.875 138.406 186.875ZM154.531 190.328C156.156 190.328 157.062 189.594 157.453 187.938L159.984 178.156H160.078L162.625 187.906C163.016 189.609 163.906 190.328 165.578 190.328C167.156 190.328 168.031 189.578 168.5 187.922L171.875 176.234C172.047 175.641 172.125 175.266 172.125 174.844C172.125 173.703 171.234 172.906 169.969 172.906C168.844 172.906 168.109 173.594 167.859 174.812L165.359 185.672H165.266L162.656 175C162.359 173.641 161.469 172.906 160.109 172.906C158.719 172.906 157.828 173.641 157.531 175L154.938 185.672H154.844L152.359 174.844C152.094 173.594 151.359 172.906 150.219 172.906C148.938 172.906 148.016 173.719 148.016 174.859C148.016 175.297 148.094 175.672 148.266 176.266L151.641 187.938C152.125 189.594 152.953 190.328 154.531 190.328Z" fill="black"/>
<circle cx="179.833" cy="282.667" r="45.8333" fill="black"/>
<circle cx="243.083" cy="235.917" r="22.9167" fill="black"/>
<circle cx="198.625" cy="218.958" r="11.4583" fill="black"/>
<path d="M180.5 294.805C181.648 294.805 182.398 293.938 182.398 292.789V284.562H190.156C191.305 284.562 192.172 283.812 192.172 282.664C192.172 281.516 191.305 280.766 190.156 280.766H182.398V272.516C182.398 271.367 181.648 270.5 180.5 270.5C179.352 270.5 178.602 271.367 178.602 272.516V280.766H170.82C169.672 280.766 168.805 281.516 168.805 282.664C168.805 283.812 169.672 284.562 170.82 284.562H178.602V292.789C178.602 293.938 179.352 294.805 180.5 294.805Z" fill="white"/>
<circle cx="395.831" cy="276.228" r="25" transform="rotate(-106.749 395.831 276.228)" fill="#636363"/>
<circle cx="361.47" cy="250.54" r="12.5" transform="rotate(-106.749 361.47 250.54)" fill="#636363"/>
<circle cx="359.601" cy="276.427" r="6.25" transform="rotate(-106.749 359.601 276.427)" fill="#636363"/>
<circle cx="8.23274" cy="256.201" r="25" transform="rotate(96.1909 8.23274 256.201)" fill="#636363"/>
<circle cx="29.8636" cy="293.25" r="12.5" transform="rotate(96.1909 29.8636 293.25)" fill="#636363"/>
<circle cx="41.6747" cy="270.139" r="6.25" transform="rotate(96.1909 41.6747 270.139)" fill="#636363"/>
<path d="M334.482 337.73C335.322 337.73 335.908 337.223 335.908 336.246V332.242H335.967C336.523 333.424 337.695 334.166 339.219 334.166C341.836 334.166 343.457 332.135 343.457 328.766C343.457 325.387 341.826 323.365 339.17 323.365C337.656 323.365 336.494 324.127 335.928 325.357H335.869V324.791C335.869 323.824 335.283 323.316 334.463 323.316C333.643 323.316 333.057 323.824 333.057 324.781V336.246C333.057 337.223 333.652 337.73 334.482 337.73ZM338.213 331.871C336.816 331.871 335.898 330.66 335.898 328.766C335.898 326.891 336.816 325.65 338.213 325.65C339.639 325.65 340.537 326.871 340.537 328.766C340.537 330.67 339.639 331.871 338.213 331.871ZM346.357 334.205C347.227 334.205 347.783 333.668 347.783 332.721V328.072C347.783 326.832 348.242 326.1 349.541 326.08C350.098 326.07 350.508 325.943 350.781 325.709C351.055 325.475 351.191 325.133 351.191 324.684C351.191 324.195 351.055 323.844 350.781 323.629C350.576 323.453 350.273 323.365 349.893 323.365C348.848 323.365 347.988 324.137 347.715 325.436H347.656V324.752C347.656 323.844 347.109 323.316 346.309 323.316C345.488 323.316 344.932 323.844 344.932 324.752V332.721C344.932 333.668 345.498 334.205 346.357 334.205ZM356.68 334.225C358.701 334.225 360.322 333.463 361.016 332.174C361.143 331.939 361.211 331.705 361.211 331.48C361.211 330.826 360.713 330.436 360.098 330.436C359.727 330.436 359.473 330.543 359.17 330.855C358.398 331.764 357.715 332.115 356.67 332.115C355.225 332.115 354.287 331.1 354.287 329.547V329.42H360.264C361.055 329.42 361.504 328.971 361.504 328.18C361.504 325.338 359.512 323.307 356.543 323.307C353.447 323.307 351.484 325.445 351.484 328.814C351.484 332.203 353.408 334.225 356.68 334.225ZM354.316 327.672C354.414 326.334 355.322 325.416 356.572 325.416C357.822 325.416 358.701 326.305 358.76 327.672H354.316ZM367.246 334.225C370.01 334.225 371.875 332.877 371.875 330.797C371.875 329.234 370.957 328.414 368.73 327.945L367.002 327.574C365.957 327.35 365.547 326.988 365.547 326.441C365.547 325.768 366.221 325.309 367.188 325.309C368.213 325.309 368.779 325.797 369.277 326.432C369.531 326.734 369.941 326.871 370.312 326.871C371.045 326.871 371.406 326.471 371.406 325.895C371.406 325.758 371.377 325.621 371.338 325.475C370.996 324.293 369.404 323.307 367.236 323.307C364.521 323.307 362.793 324.596 362.793 326.598C362.793 328.15 363.828 329.195 365.879 329.635L367.637 330.006C368.662 330.23 369.023 330.533 369.023 331.1C369.023 331.793 368.35 332.223 367.314 332.223C366.23 332.223 365.586 331.891 365.029 331.158C364.639 330.719 364.248 330.514 363.789 330.514C363.125 330.514 362.637 330.953 362.637 331.607C362.637 331.764 362.676 331.949 362.744 332.135C363.242 333.365 364.844 334.225 367.246 334.225ZM378.105 334.225C380.127 334.225 381.748 333.463 382.441 332.174C382.568 331.939 382.637 331.705 382.637 331.48C382.637 330.826 382.139 330.436 381.523 330.436C381.152 330.436 380.898 330.543 380.596 330.855C379.824 331.764 379.141 332.115 378.096 332.115C376.65 332.115 375.713 331.1 375.713 329.547V329.42H381.689C382.48 329.42 382.93 328.971 382.93 328.18C382.93 325.338 380.938 323.307 377.969 323.307C374.873 323.307 372.91 325.445 372.91 328.814C372.91 332.203 374.834 334.225 378.105 334.225ZM375.742 327.672C375.84 326.334 376.748 325.416 377.998 325.416C379.248 325.416 380.127 326.305 380.186 327.672H375.742ZM385.83 334.205C386.67 334.205 387.256 333.697 387.256 332.721V327.994C387.256 326.637 388.066 325.699 389.346 325.699C390.625 325.699 391.27 326.48 391.27 327.848V332.721C391.27 333.697 391.855 334.205 392.695 334.205C393.525 334.205 394.121 333.697 394.121 332.721V327.252C394.121 324.801 392.812 323.336 390.488 323.336C388.877 323.336 387.822 324.049 387.266 325.348H387.207V324.762C387.207 323.863 386.641 323.316 385.781 323.316C384.922 323.316 384.404 323.863 384.404 324.752V332.721C384.404 333.697 385 334.205 385.83 334.205ZM396.689 331.324C396.689 333.17 397.656 334.117 399.561 334.117H399.658C400.859 334.117 401.68 333.688 401.68 332.848C401.68 332.184 401.299 331.891 400.596 331.812L400.41 331.793C399.795 331.744 399.541 331.432 399.541 330.689V325.68H400.547C401.221 325.68 401.641 325.26 401.641 324.605C401.641 323.951 401.221 323.531 400.547 323.531H399.541V322.369C399.541 321.451 399.004 320.885 398.115 320.885C397.227 320.885 396.689 321.451 396.689 322.369V323.531H396.143C395.469 323.531 395.039 323.941 395.039 324.605C395.039 325.27 395.469 325.68 396.143 325.68H396.689V331.324ZM406.035 334.166C407.344 334.166 408.652 333.512 409.238 332.398H409.297V332.936C409.355 333.775 409.893 334.205 410.664 334.205C411.475 334.205 412.051 333.717 412.051 332.77V326.803C412.051 324.693 410.303 323.307 407.617 323.307C405.449 323.307 403.77 324.078 403.281 325.328C403.184 325.543 403.135 325.748 403.135 325.973C403.135 326.617 403.633 327.066 404.326 327.066C404.785 327.066 405.146 326.891 405.459 326.539C406.094 325.719 406.621 325.436 407.49 325.436C408.564 325.436 409.248 326.002 409.248 326.979V327.672L406.611 327.828C403.994 327.984 402.529 329.088 402.529 330.992C402.529 332.877 404.043 334.166 406.035 334.166ZM406.973 332.105C406.016 332.105 405.371 331.617 405.371 330.836C405.371 330.094 405.977 329.615 407.041 329.537L409.248 329.4V330.162C409.248 331.295 408.223 332.105 406.973 332.105ZM414.658 331.324C414.658 333.17 415.625 334.117 417.529 334.117H417.627C418.828 334.117 419.648 333.688 419.648 332.848C419.648 332.184 419.268 331.891 418.564 331.812L418.379 331.793C417.764 331.744 417.51 331.432 417.51 330.689V325.68H418.516C419.189 325.68 419.609 325.26 419.609 324.605C419.609 323.951 419.189 323.531 418.516 323.531H417.51V322.369C417.51 321.451 416.973 320.885 416.084 320.885C415.195 320.885 414.658 321.451 414.658 322.369V323.531H414.111C413.438 323.531 413.008 323.941 413.008 324.605C413.008 325.27 413.438 325.68 414.111 325.68H414.658V331.324ZM422.48 322.232C423.34 322.232 424.004 321.578 424.004 320.758C424.004 319.928 423.34 319.283 422.48 319.283C421.621 319.283 420.957 319.928 420.957 320.758C420.957 321.578 421.621 322.232 422.48 322.232ZM422.48 334.205C423.359 334.205 423.906 333.648 423.906 332.721V324.811C423.906 323.883 423.359 323.316 422.48 323.316C421.592 323.316 421.055 323.883 421.055 324.811V332.721C421.055 333.648 421.592 334.205 422.48 334.205ZM430.615 334.225C433.779 334.225 435.801 332.203 435.801 328.756C435.801 325.357 433.75 323.307 430.615 323.307C427.48 323.307 425.43 325.367 425.43 328.756C425.43 332.193 427.451 334.225 430.615 334.225ZM430.615 332.047C429.209 332.047 428.32 330.865 428.32 328.766C428.32 326.686 429.229 325.484 430.615 325.484C432.002 325.484 432.9 326.686 432.9 328.766C432.9 330.865 432.012 332.047 430.615 332.047ZM438.701 334.205C439.541 334.205 440.127 333.697 440.127 332.721V327.994C440.127 326.637 440.938 325.699 442.217 325.699C443.496 325.699 444.141 326.48 444.141 327.848V332.721C444.141 333.697 444.727 334.205 445.566 334.205C446.396 334.205 446.992 333.697 446.992 332.721V327.252C446.992 324.801 445.684 323.336 443.359 323.336C441.748 323.336 440.693 324.049 440.137 325.348H440.078V324.762C440.078 323.863 439.512 323.316 438.652 323.316C437.793 323.316 437.275 323.863 437.275 324.752V332.721C437.275 333.697 437.871 334.205 438.701 334.205Z" fill="black"/>
<path d="M-55.5176 337.73C-54.6777 337.73 -54.0918 337.223 -54.0918 336.246V332.242H-54.0332C-53.4766 333.424 -52.3047 334.166 -50.7812 334.166C-48.1641 334.166 -46.543 332.135 -46.543 328.766C-46.543 325.387 -48.1738 323.365 -50.8301 323.365C-52.3438 323.365 -53.5059 324.127 -54.0723 325.357H-54.1309V324.791C-54.1309 323.824 -54.7168 323.316 -55.5371 323.316C-56.3574 323.316 -56.9434 323.824 -56.9434 324.781V336.246C-56.9434 337.223 -56.3477 337.73 -55.5176 337.73ZM-51.7871 331.871C-53.1836 331.871 -54.1016 330.66 -54.1016 328.766C-54.1016 326.891 -53.1836 325.65 -51.7871 325.65C-50.3613 325.65 -49.4629 326.871 -49.4629 328.766C-49.4629 330.67 -50.3613 331.871 -51.7871 331.871ZM-43.6426 334.205C-42.7734 334.205 -42.2168 333.668 -42.2168 332.721V328.072C-42.2168 326.832 -41.7578 326.1 -40.459 326.08C-39.9023 326.07 -39.4922 325.943 -39.2188 325.709C-38.9453 325.475 -38.8086 325.133 -38.8086 324.684C-38.8086 324.195 -38.9453 323.844 -39.2188 323.629C-39.4238 323.453 -39.7266 323.365 -40.1074 323.365C-41.1523 323.365 -42.0117 324.137 -42.2852 325.436H-42.3438V324.752C-42.3438 323.844 -42.8906 323.316 -43.6914 323.316C-44.5117 323.316 -45.0684 323.844 -45.0684 324.752V332.721C-45.0684 333.668 -44.502 334.205 -43.6426 334.205ZM-33.3203 334.225C-31.2988 334.225 -29.6777 333.463 -28.9844 332.174C-28.8574 331.939 -28.7891 331.705 -28.7891 331.48C-28.7891 330.826 -29.2871 330.436 -29.9023 330.436C-30.2734 330.436 -30.5273 330.543 -30.8301 330.855C-31.6016 331.764 -32.2852 332.115 -33.3301 332.115C-34.7754 332.115 -35.7129 331.1 -35.7129 329.547V329.42H-29.7363C-28.9453 329.42 -28.4961 328.971 -28.4961 328.18C-28.4961 325.338 -30.4883 323.307 -33.457 323.307C-36.5527 323.307 -38.5156 325.445 -38.5156 328.814C-38.5156 332.203 -36.5918 334.225 -33.3203 334.225ZM-35.6836 327.672C-35.5859 326.334 -34.6777 325.416 -33.4277 325.416C-32.1777 325.416 -31.2988 326.305 -31.2402 327.672H-35.6836ZM-22.7539 334.225C-19.9902 334.225 -18.125 332.877 -18.125 330.797C-18.125 329.234 -19.043 328.414 -21.2695 327.945L-22.998 327.574C-24.043 327.35 -24.4531 326.988 -24.4531 326.441C-24.4531 325.768 -23.7793 325.309 -22.8125 325.309C-21.7871 325.309 -21.2207 325.797 -20.7227 326.432C-20.4688 326.734 -20.0586 326.871 -19.6875 326.871C-18.9551 326.871 -18.5938 326.471 -18.5938 325.895C-18.5938 325.758 -18.623 325.621 -18.6621 325.475C-19.0039 324.293 -20.5957 323.307 -22.7637 323.307C-25.4785 323.307 -27.207 324.596 -27.207 326.598C-27.207 328.15 -26.1719 329.195 -24.1211 329.635L-22.3633 330.006C-21.3379 330.23 -20.9766 330.533 -20.9766 331.1C-20.9766 331.793 -21.6504 332.223 -22.6855 332.223C-23.7695 332.223 -24.4141 331.891 -24.9707 331.158C-25.3613 330.719 -25.752 330.514 -26.2109 330.514C-26.875 330.514 -27.3633 330.953 -27.3633 331.607C-27.3633 331.764 -27.3242 331.949 -27.2559 332.135C-26.7578 333.365 -25.1562 334.225 -22.7539 334.225ZM-11.8945 334.225C-9.87305 334.225 -8.25195 333.463 -7.55859 332.174C-7.43164 331.939 -7.36328 331.705 -7.36328 331.48C-7.36328 330.826 -7.86133 330.436 -8.47656 330.436C-8.84766 330.436 -9.10156 330.543 -9.4043 330.855C-10.1758 331.764 -10.8594 332.115 -11.9043 332.115C-13.3496 332.115 -14.2871 331.1 -14.2871 329.547V329.42H-8.31055C-7.51953 329.42 -7.07031 328.971 -7.07031 328.18C-7.07031 325.338 -9.0625 323.307 -12.0312 323.307C-15.127 323.307 -17.0898 325.445 -17.0898 328.814C-17.0898 332.203 -15.166 334.225 -11.8945 334.225ZM-14.2578 327.672C-14.1602 326.334 -13.252 325.416 -12.002 325.416C-10.752 325.416 -9.87305 326.305 -9.81445 327.672H-14.2578ZM-4.16992 334.205C-3.33008 334.205 -2.74414 333.697 -2.74414 332.721V327.994C-2.74414 326.637 -1.93359 325.699 -0.654297 325.699C0.625 325.699 1.26953 326.48 1.26953 327.848V332.721C1.26953 333.697 1.85547 334.205 2.69531 334.205C3.52539 334.205 4.12109 333.697 4.12109 332.721V327.252C4.12109 324.801 2.8125 323.336 0.488281 323.336C-1.12305 323.336 -2.17773 324.049 -2.73438 325.348H-2.79297V324.762C-2.79297 323.863 -3.35938 323.316 -4.21875 323.316C-5.07812 323.316 -5.5957 323.863 -5.5957 324.752V332.721C-5.5957 333.697 -5 334.205 -4.16992 334.205ZM6.68945 331.324C6.68945 333.17 7.65625 334.117 9.56055 334.117H9.6582C10.8594 334.117 11.6797 333.688 11.6797 332.848C11.6797 332.184 11.2988 331.891 10.5957 331.812L10.4102 331.793C9.79492 331.744 9.54102 331.432 9.54102 330.689V325.68H10.5469C11.2207 325.68 11.6406 325.26 11.6406 324.605C11.6406 323.951 11.2207 323.531 10.5469 323.531H9.54102V322.369C9.54102 321.451 9.00391 320.885 8.11523 320.885C7.22656 320.885 6.68945 321.451 6.68945 322.369V323.531H6.14258C5.46875 323.531 5.03906 323.941 5.03906 324.605C5.03906 325.27 5.46875 325.68 6.14258 325.68H6.68945V331.324ZM16.0352 334.166C17.3438 334.166 18.6523 333.512 19.2383 332.398H19.2969V332.936C19.3555 333.775 19.8926 334.205 20.6641 334.205C21.4746 334.205 22.0508 333.717 22.0508 332.77V326.803C22.0508 324.693 20.3027 323.307 17.6172 323.307C15.4492 323.307 13.7695 324.078 13.2812 325.328C13.1836 325.543 13.1348 325.748 13.1348 325.973C13.1348 326.617 13.6328 327.066 14.3262 327.066C14.7852 327.066 15.1465 326.891 15.459 326.539C16.0938 325.719 16.6211 325.436 17.4902 325.436C18.5645 325.436 19.248 326.002 19.248 326.979V327.672L16.6113 327.828C13.9941 327.984 12.5293 329.088 12.5293 330.992C12.5293 332.877 14.043 334.166 16.0352 334.166ZM16.9727 332.105C16.0156 332.105 15.3711 331.617 15.3711 330.836C15.3711 330.094 15.9766 329.615 17.041 329.537L19.248 329.4V330.162C19.248 331.295 18.2227 332.105 16.9727 332.105ZM24.6582 331.324C24.6582 333.17 25.625 334.117 27.5293 334.117H27.627C28.8281 334.117 29.6484 333.688 29.6484 332.848C29.6484 332.184 29.2676 331.891 28.5645 331.812L28.3789 331.793C27.7637 331.744 27.5098 331.432 27.5098 330.689V325.68H28.5156C29.1895 325.68 29.6094 325.26 29.6094 324.605C29.6094 323.951 29.1895 323.531 28.5156 323.531H27.5098V322.369C27.5098 321.451 26.9727 320.885 26.084 320.885C25.1953 320.885 24.6582 321.451 24.6582 322.369V323.531H24.1113C23.4375 323.531 23.0078 323.941 23.0078 324.605C23.0078 325.27 23.4375 325.68 24.1113 325.68H24.6582V331.324ZM32.4805 322.232C33.3398 322.232 34.0039 321.578 34.0039 320.758C34.0039 319.928 33.3398 319.283 32.4805 319.283C31.6211 319.283 30.957 319.928 30.957 320.758C30.957 321.578 31.6211 322.232 32.4805 322.232ZM32.4805 334.205C33.3594 334.205 33.9062 333.648 33.9062 332.721V324.811C33.9062 323.883 33.3594 323.316 32.4805 323.316C31.5918 323.316 31.0547 323.883 31.0547 324.811V332.721C31.0547 333.648 31.5918 334.205 32.4805 334.205ZM40.6152 334.225C43.7793 334.225 45.8008 332.203 45.8008 328.756C45.8008 325.357 43.75 323.307 40.6152 323.307C37.4805 323.307 35.4297 325.367 35.4297 328.756C35.4297 332.193 37.4512 334.225 40.6152 334.225ZM40.6152 332.047C39.209 332.047 38.3203 330.865 38.3203 328.766C38.3203 326.686 39.2285 325.484 40.6152 325.484C42.002 325.484 42.9004 326.686 42.9004 328.766C42.9004 330.865 42.0117 332.047 40.6152 332.047ZM48.7012 334.205C49.541 334.205 50.127 333.697 50.127 332.721V327.994C50.127 326.637 50.9375 325.699 52.2168 325.699C53.4961 325.699 54.1406 326.48 54.1406 327.848V332.721C54.1406 333.697 54.7266 334.205 55.5664 334.205C56.3965 334.205 56.9922 333.697 56.9922 332.721V327.252C56.9922 324.801 55.6836 323.336 53.3594 323.336C51.748 323.336 50.6934 324.049 50.1367 325.348H50.0781V324.762C50.0781 323.863 49.5117 323.316 48.6523 323.316C47.793 323.316 47.2754 323.863 47.2754 324.752V332.721C47.2754 333.697 47.8711 334.205 48.7012 334.205Z" fill="black"/>
<path d="M241.722 116.384H257.038C258.533 116.384 259.434 115.441 259.434 114.075C259.434 112.67 258.533 111.766 257.038 111.766H246.61V111.65L252.59 105.877C257.114 101.586 258.763 99.4691 258.763 96.0823C258.763 91.3099 254.814 88 248.948 88C243.715 88 240.246 90.8673 239.307 93.9463C239.173 94.3504 239.096 94.7545 239.096 95.1971C239.096 96.6403 240.016 97.564 241.569 97.564C242.815 97.564 243.485 97.0252 244.137 95.8706C245.134 93.6384 246.667 92.5222 248.891 92.5222C251.364 92.5222 253.127 94.1579 253.127 96.4479C253.127 98.4492 252.245 99.7963 248.833 103.087L240.591 110.996C239.422 112.074 239 112.805 239 113.902C239 115.364 239.901 116.384 241.722 116.384Z" fill="black"/>
<path d="M273.516 117C280.11 117 284.729 113.69 284.729 108.879C284.729 105.223 282.065 102.529 278.289 101.778V101.663C281.528 100.835 283.713 98.4685 283.713 95.4857C283.713 91.1367 279.516 88 273.516 88C267.516 88 263.299 91.1559 263.299 95.4665C263.299 98.4877 265.503 100.855 268.762 101.663V101.778C264.986 102.51 262.302 105.204 262.302 108.86C262.302 113.671 266.903 117 273.516 117ZM273.516 99.9117C270.89 99.9117 269.03 98.3338 269.03 96.063C269.03 93.7731 270.89 92.1951 273.516 92.1951C276.123 92.1951 278.001 93.7731 278.001 96.063C278.001 98.3338 276.123 99.9117 273.516 99.9117ZM273.516 112.766C270.468 112.766 268.34 110.958 268.34 108.437C268.34 105.935 270.468 104.145 273.516 104.145C276.564 104.145 278.672 105.935 278.672 108.437C278.672 110.958 276.564 112.766 273.516 112.766Z" fill="black"/>
<path d="M299.169 116.75C300.99 116.75 302.064 115.634 302.064 113.729V105.454H311.169C312.683 105.454 313.641 104.588 313.641 103.145C313.641 101.721 312.664 100.855 311.169 100.855H302.064V93.4267H312.108C313.68 93.4267 314.734 92.5222 314.734 91.0212C314.734 89.5202 313.699 88.6158 312.108 88.6158H299.169C297.348 88.6158 296.275 89.7319 296.275 91.637V113.729C296.275 115.634 297.348 116.75 299.169 116.75Z" fill="black"/>
<path d="M326.152 116.827C330.12 116.827 333.302 115.326 334.663 112.786C334.912 112.324 335.046 111.862 335.046 111.419C335.046 110.13 334.068 109.36 332.861 109.36C332.132 109.36 331.634 109.572 331.04 110.188C329.525 111.977 328.184 112.67 326.133 112.67C323.296 112.67 321.456 110.669 321.456 107.609V107.359H333.187C334.739 107.359 335.621 106.474 335.621 104.915C335.621 99.3152 331.711 95.3125 325.883 95.3125C319.807 95.3125 315.954 99.5269 315.954 106.166C315.954 112.843 319.73 116.827 326.152 116.827ZM321.513 103.914C321.705 101.278 323.487 99.4691 325.941 99.4691C328.395 99.4691 330.12 101.22 330.235 103.914H321.513Z" fill="black"/>
<path d="M341.327 116.788C342.956 116.788 344.106 115.807 344.106 113.94V112.843H344.221C345.371 115.249 347.652 116.711 350.662 116.711C355.856 116.711 359 112.709 359 106.07C359 99.4114 355.837 95.428 350.643 95.428C347.729 95.428 345.429 96.8905 344.298 99.3344H344.183V91.1367C344.183 89.2123 343.033 88.1924 341.384 88.1924C339.755 88.1924 338.586 89.2123 338.586 91.1367V113.94C338.586 115.826 339.717 116.788 341.327 116.788ZM348.745 112.189C346.023 112.189 344.164 109.803 344.164 106.07C344.164 102.375 346.023 99.931 348.745 99.931C351.524 99.931 353.269 102.317 353.269 106.07C353.269 109.841 351.524 112.189 348.745 112.189Z" fill="black"/>
<path d="M326.875 134.788H331.798C332.278 134.788 332.568 134.463 332.568 133.992C332.568 133.508 332.278 133.196 331.798 133.196H328.446V133.156L330.368 131.167C331.822 129.688 332.352 128.959 332.352 127.792C332.352 126.147 331.083 125.007 329.198 125.007C327.516 125.007 326.4 125.995 326.099 127.056C326.055 127.195 326.031 127.334 326.031 127.487C326.031 127.984 326.327 128.302 326.826 128.302C327.226 128.302 327.442 128.117 327.651 127.719C327.972 126.95 328.464 126.565 329.179 126.565C329.974 126.565 330.541 127.129 330.541 127.918C330.541 128.607 330.257 129.072 329.161 130.206L326.511 132.931C326.136 133.302 326 133.554 326 133.932C326 134.436 326.29 134.788 326.875 134.788Z" fill="black"/>
<path d="M337.039 135C339.294 135 340.662 133.07 340.662 129.98C340.662 126.89 339.282 125 337.039 125C334.797 125 333.41 126.897 333.41 129.987C333.41 133.084 334.784 135 337.039 135ZM337.039 133.395C335.942 133.395 335.302 132.182 335.302 129.987C335.302 127.812 335.955 126.605 337.039 126.605C338.13 126.605 338.77 127.805 338.77 129.987C338.77 132.182 338.136 133.395 337.039 133.395Z" fill="black"/>
<path d="M342.546 134.788H347.468C347.949 134.788 348.239 134.463 348.239 133.992C348.239 133.508 347.949 133.196 347.468 133.196H344.117V133.156L346.039 131.167C347.493 129.688 348.023 128.959 348.023 127.792C348.023 126.147 346.754 125.007 344.868 125.007C343.186 125.007 342.071 125.995 341.769 127.056C341.726 127.195 341.702 127.334 341.702 127.487C341.702 127.984 341.997 128.302 342.496 128.302C342.897 128.302 343.113 128.117 343.322 127.719C343.642 126.95 344.135 126.565 344.85 126.565C345.645 126.565 346.212 127.129 346.212 127.918C346.212 128.607 345.928 129.072 344.831 130.206L342.182 132.931C341.806 133.302 341.671 133.554 341.671 133.932C341.671 134.436 341.96 134.788 342.546 134.788Z" fill="black"/>
<path d="M352.537 135C354.601 135 356 133.846 356 132.109C356 130.789 355.144 129.954 353.819 129.821V129.781C354.866 129.549 355.673 128.753 355.673 127.54C355.673 126.008 354.404 125.007 352.525 125.007C350.954 125.007 349.944 125.789 349.549 126.724C349.457 126.95 349.414 127.142 349.414 127.367C349.414 127.851 349.679 128.176 350.196 128.176C350.615 128.176 350.831 128.011 351.034 127.56C351.324 126.883 351.78 126.545 352.531 126.545C353.431 126.545 353.911 127.056 353.911 127.825C353.911 128.607 353.308 129.151 352.377 129.151H352.014C351.564 129.151 351.305 129.443 351.305 129.861C351.305 130.292 351.564 130.577 352.014 130.577H352.402C353.48 130.577 354.115 131.094 354.109 132.023C354.109 132.818 353.48 133.389 352.568 133.389C351.644 133.389 351.164 132.991 350.849 132.321C350.665 131.956 350.43 131.797 350.061 131.797C349.549 131.797 349.241 132.122 349.241 132.639C349.241 132.838 349.284 133.05 349.383 133.269C349.802 134.211 350.843 135 352.537 135Z" fill="black"/>
<path d="M244.516 135.346C245.411 135.346 245.938 134.785 245.938 133.828V123.629H248.752C249.515 123.629 250.033 123.175 250.033 122.421C250.033 121.667 249.524 121.213 248.752 121.213H240.29C239.508 121.213 239 121.667 239 122.421C239 123.175 239.518 123.629 240.29 123.629H243.095V133.828C243.095 134.785 243.622 135.346 244.516 135.346Z" fill="black"/>
<path d="M253.553 135.356C255.078 135.356 256.076 134.602 256.575 133.296H256.632V133.934C256.632 134.872 257.168 135.365 257.959 135.365C258.75 135.365 259.286 134.872 259.286 133.934V126.066C259.286 125.099 258.721 124.586 257.912 124.586C257.112 124.586 256.537 125.099 256.537 126.066V130.735C256.537 132.107 255.775 133.006 254.551 133.006C253.337 133.006 252.668 132.272 252.668 130.889V126.066C252.668 125.099 252.104 124.586 251.294 124.586C250.494 124.586 249.92 125.099 249.92 126.066V131.479C249.92 133.896 251.369 135.356 253.553 135.356Z" fill="black"/>
<path d="M265.716 135.385C267.664 135.385 269.227 134.631 269.895 133.354C270.018 133.122 270.084 132.89 270.084 132.668C270.084 132.02 269.603 131.634 269.01 131.634C268.653 131.634 268.408 131.74 268.116 132.049C267.372 132.948 266.714 133.296 265.706 133.296C264.313 133.296 263.409 132.291 263.409 130.754V130.628H269.17C269.933 130.628 270.366 130.184 270.366 129.401C270.366 126.588 268.446 124.577 265.584 124.577C262.6 124.577 260.708 126.694 260.708 130.029C260.708 133.383 262.562 135.385 265.716 135.385ZM263.438 128.898C263.532 127.574 264.407 126.665 265.612 126.665C266.817 126.665 267.664 127.545 267.721 128.898H263.438Z" fill="black"/>
<path d="M275.901 135.385C278.565 135.385 280.363 134.05 280.363 131.991C280.363 130.445 279.478 129.633 277.332 129.169L275.666 128.801C274.659 128.579 274.263 128.221 274.263 127.68C274.263 127.013 274.913 126.559 275.845 126.559C276.833 126.559 277.379 127.042 277.859 127.67C278.104 127.97 278.499 128.105 278.857 128.105C279.563 128.105 279.911 127.709 279.911 127.139C279.911 127.003 279.883 126.868 279.845 126.723C279.516 125.553 277.982 124.577 275.892 124.577C273.275 124.577 271.609 125.853 271.609 127.835C271.609 129.372 272.606 130.406 274.583 130.841L276.278 131.208C277.266 131.431 277.614 131.73 277.614 132.291C277.614 132.977 276.965 133.403 275.967 133.403C274.922 133.403 274.301 133.074 273.764 132.349C273.388 131.914 273.011 131.711 272.569 131.711C271.929 131.711 271.458 132.146 271.458 132.794C271.458 132.948 271.496 133.132 271.562 133.316C272.042 134.534 273.585 135.385 275.901 135.385Z" fill="black"/>
<path d="M285.475 135.327C287.028 135.327 288.139 134.495 288.581 133.335H288.628V133.934C288.628 134.882 289.221 135.365 290.012 135.365C290.812 135.365 291.377 134.872 291.377 133.934V122.479C291.377 121.512 290.812 121 290.003 121C289.203 121 288.628 121.512 288.628 122.479V126.578H288.572C288.082 125.427 286.953 124.635 285.494 124.635C282.961 124.635 281.361 126.675 281.361 129.961C281.361 133.277 282.952 135.327 285.475 135.327ZM286.407 133.055C285.023 133.055 284.176 131.885 284.176 129.981C284.176 128.086 285.023 126.897 286.407 126.897C287.772 126.897 288.647 128.096 288.647 129.981C288.647 131.875 287.772 133.055 286.407 133.055Z" fill="black"/>
<path d="M296.197 135.327C297.458 135.327 298.72 134.679 299.284 133.577H299.341V134.108C299.397 134.94 299.915 135.365 300.659 135.365C301.44 135.365 301.996 134.882 301.996 133.944V128.038C301.996 125.95 300.311 124.577 297.722 124.577C295.632 124.577 294.013 125.34 293.542 126.578C293.448 126.791 293.401 126.994 293.401 127.216C293.401 127.854 293.881 128.299 294.549 128.299C294.992 128.299 295.34 128.125 295.641 127.777C296.253 126.965 296.762 126.684 297.599 126.684C298.635 126.684 299.294 127.245 299.294 128.212V128.898L296.752 129.053C294.229 129.207 292.817 130.3 292.817 132.185C292.817 134.05 294.276 135.327 296.197 135.327ZM297.1 133.287C296.178 133.287 295.557 132.803 295.557 132.03C295.557 131.295 296.14 130.822 297.166 130.744L299.294 130.609V131.363C299.294 132.484 298.305 133.287 297.1 133.287Z" fill="black"/>
<path d="M305.431 139C307.644 139 308.811 138.014 309.752 135.336L312.849 126.694C312.944 126.423 313 126.095 313 125.863C313 125.118 312.454 124.586 311.663 124.586C310.957 124.586 310.562 124.925 310.336 125.708L308.143 132.9H308.096L305.902 125.727C305.676 124.905 305.3 124.586 304.575 124.586C303.765 124.586 303.153 125.137 303.153 125.901C303.153 126.133 303.21 126.443 303.313 126.733L306.533 135.452L306.392 135.82C306.062 136.545 305.544 136.757 305.064 136.757C304.876 136.757 304.773 136.748 304.584 136.748C303.963 136.748 303.577 137.105 303.577 137.676C303.577 138.526 304.227 139 305.431 139Z" fill="black"/>
<path d="M277.742 561.567C335.548 547.53 367.244 500.86 389 535.579L389 885C347.464 920.456 298.953 876.896 245.107 874.006C177.798 870.393 169.287 914.939 115.341 907.198C61.3959 899.457 61.1519 867.977 33.644 867.977C10.715 867.977 -1 885 -1 885L-1 535.091C22.7559 572.248 110.092 553.678 134.838 553.678C166.049 553.678 205.485 579.114 277.742 561.567Z" fill="black"/>
<path d="M22.084 599.186C23.0117 599.186 23.5586 598.619 23.5586 597.652V587.35H26.4785C27.2695 587.35 27.8066 586.891 27.8066 586.129C27.8066 585.367 27.2793 584.908 26.4785 584.908H17.6992C16.8887 584.908 16.3613 585.367 16.3613 586.129C16.3613 586.891 16.8984 587.35 17.6992 587.35H20.6094V597.652C20.6094 598.619 21.1562 599.186 22.084 599.186ZM31.5273 599.225C34.6914 599.225 36.7129 597.203 36.7129 593.756C36.7129 590.357 34.6621 588.307 31.5273 588.307C28.3926 588.307 26.3418 590.367 26.3418 593.756C26.3418 597.193 28.3633 599.225 31.5273 599.225ZM31.5273 597.047C30.1211 597.047 29.2324 595.865 29.2324 593.766C29.2324 591.686 30.1406 590.484 31.5273 590.484C32.9141 590.484 33.8125 591.686 33.8125 593.766C33.8125 595.865 32.9238 597.047 31.5273 597.047ZM42.0742 599.166C43.6855 599.166 44.8379 598.326 45.2969 597.154H45.3457V597.76C45.3457 598.717 45.9609 599.205 46.7812 599.205C47.6113 599.205 48.1973 598.707 48.1973 597.76V586.188C48.1973 585.211 47.6113 584.693 46.7715 584.693C45.9414 584.693 45.3457 585.211 45.3457 586.188V590.328H45.2871C44.7793 589.166 43.6074 588.365 42.0938 588.365C39.4668 588.365 37.8066 590.426 37.8066 593.746C37.8066 597.096 39.457 599.166 42.0742 599.166ZM43.041 596.871C41.6055 596.871 40.7266 595.689 40.7266 593.766C40.7266 591.852 41.6055 590.65 43.041 590.65C44.457 590.65 45.3652 591.861 45.3652 593.766C45.3652 595.68 44.457 596.871 43.041 596.871ZM53.1973 599.166C54.5059 599.166 55.8145 598.512 56.4004 597.398H56.459V597.936C56.5176 598.775 57.0547 599.205 57.8262 599.205C58.6367 599.205 59.2129 598.717 59.2129 597.77V591.803C59.2129 589.693 57.4648 588.307 54.7793 588.307C52.6113 588.307 50.9316 589.078 50.4434 590.328C50.3457 590.543 50.2969 590.748 50.2969 590.973C50.2969 591.617 50.7949 592.066 51.4883 592.066C51.9473 592.066 52.3086 591.891 52.6211 591.539C53.2559 590.719 53.7832 590.436 54.6523 590.436C55.7266 590.436 56.4102 591.002 56.4102 591.979V592.672L53.7734 592.828C51.1562 592.984 49.6914 594.088 49.6914 595.992C49.6914 597.877 51.2051 599.166 53.1973 599.166ZM54.1348 597.105C53.1777 597.105 52.5332 596.617 52.5332 595.836C52.5332 595.094 53.1387 594.615 54.2031 594.537L56.4102 594.4V595.162C56.4102 596.295 55.3848 597.105 54.1348 597.105ZM62.7773 602.877C65.0723 602.877 66.2832 601.881 67.2598 599.176L70.4727 590.445C70.5703 590.172 70.6289 589.84 70.6289 589.605C70.6289 588.854 70.0625 588.316 69.2422 588.316C68.5098 588.316 68.0996 588.658 67.8652 589.449L65.5898 596.715H65.541L63.2656 589.469C63.0312 588.639 62.6406 588.316 61.8887 588.316C61.0488 588.316 60.4141 588.873 60.4141 589.645C60.4141 589.879 60.4727 590.191 60.5801 590.484L63.9199 599.293L63.7734 599.664C63.4316 600.396 62.8945 600.611 62.3965 600.611C62.2012 600.611 62.0938 600.602 61.8984 600.602C61.2539 600.602 60.8535 600.963 60.8535 601.539C60.8535 602.398 61.5273 602.877 62.7773 602.877Z" fill="white"/>
<path d="M335.022 591.103C335.53 591.103 335.813 590.873 335.935 590.355L336.726 587.299H336.755L337.551 590.346C337.673 590.878 337.952 591.103 338.474 591.103C338.967 591.103 339.241 590.868 339.387 590.351L340.442 586.698C340.496 586.513 340.52 586.396 340.52 586.264C340.52 585.907 340.242 585.658 339.846 585.658C339.495 585.658 339.265 585.873 339.187 586.254L338.406 589.647H338.376L337.561 586.312C337.468 585.888 337.19 585.658 336.765 585.658C336.331 585.658 336.052 585.888 335.959 586.312L335.149 589.647H335.12L334.343 586.264C334.26 585.873 334.031 585.658 333.674 585.658C333.274 585.658 332.986 585.912 332.986 586.269C332.986 586.405 333.01 586.522 333.064 586.708L334.119 590.355C334.27 590.873 334.529 591.103 335.022 591.103ZM343.409 591.112C344.991 591.112 346.002 590.102 346.002 588.378C346.002 586.679 344.976 585.653 343.409 585.653C341.841 585.653 340.816 586.684 340.816 588.378C340.816 590.097 341.827 591.112 343.409 591.112ZM343.409 590.023C342.706 590.023 342.261 589.433 342.261 588.383C342.261 587.343 342.715 586.742 343.409 586.742C344.102 586.742 344.551 587.343 344.551 588.383C344.551 589.433 344.107 590.023 343.409 590.023ZM347.372 591.103C347.806 591.103 348.085 590.834 348.085 590.36V588.036C348.085 587.416 348.314 587.05 348.964 587.04C349.242 587.035 349.447 586.972 349.584 586.854C349.72 586.737 349.789 586.566 349.789 586.342C349.789 586.098 349.72 585.922 349.584 585.814C349.481 585.727 349.33 585.683 349.139 585.683C348.617 585.683 348.187 586.068 348.05 586.718H348.021V586.376C348.021 585.922 347.748 585.658 347.347 585.658C346.937 585.658 346.659 585.922 346.659 586.376V590.36C346.659 590.834 346.942 591.103 347.372 591.103ZM350.969 591.103C351.388 591.103 351.681 590.849 351.681 590.36V589.301L352.136 588.881L353.478 590.658C353.703 590.995 353.874 591.103 354.177 591.103C354.577 591.103 354.855 590.839 354.855 590.458C354.855 590.272 354.811 590.146 354.655 589.936L353.195 588.075L354.528 586.815C354.733 586.625 354.797 586.493 354.797 586.278C354.797 585.927 354.528 585.658 354.162 585.658C353.947 585.658 353.786 585.741 353.595 585.941L351.701 587.841H351.681V584.594C351.681 584.105 351.388 583.847 350.969 583.847C350.553 583.847 350.256 584.105 350.256 584.594V590.36C350.256 590.849 350.553 591.103 350.969 591.103ZM356.26 585.116C356.689 585.116 357.021 584.789 357.021 584.379C357.021 583.964 356.689 583.642 356.26 583.642C355.83 583.642 355.498 583.964 355.498 584.379C355.498 584.789 355.83 585.116 356.26 585.116ZM356.26 591.103C356.699 591.103 356.972 590.824 356.972 590.36V586.405C356.972 585.941 356.699 585.658 356.26 585.658C355.815 585.658 355.547 585.941 355.547 586.405V590.36C355.547 590.824 355.815 591.103 356.26 591.103ZM358.558 591.103C358.977 591.103 359.27 590.849 359.27 590.36V587.997C359.27 587.318 359.676 586.85 360.315 586.85C360.955 586.85 361.277 587.24 361.277 587.924V590.36C361.277 590.849 361.57 591.103 361.99 591.103C362.405 591.103 362.703 590.849 362.703 590.36V587.626C362.703 586.4 362.049 585.668 360.887 585.668C360.081 585.668 359.554 586.024 359.275 586.674H359.246V586.381C359.246 585.932 358.963 585.658 358.533 585.658C358.103 585.658 357.845 585.932 357.845 586.376V590.36C357.845 590.849 358.142 591.103 358.558 591.103ZM365.865 592.968C367.55 592.978 368.536 592.157 368.536 590.795V586.381C368.536 585.897 368.238 585.658 367.828 585.658C367.418 585.658 367.11 585.897 367.11 586.381V586.669H367.081C366.808 586.078 366.236 585.683 365.484 585.683C364.137 585.683 363.336 586.654 363.336 588.295C363.336 589.892 364.156 590.888 365.46 590.888C366.217 590.888 366.827 590.512 367.071 589.95H367.101V590.785C367.101 591.439 366.642 591.869 365.86 591.864C365.387 591.859 365.016 591.659 364.63 591.293C364.469 591.146 364.322 591.088 364.137 591.088C363.78 591.088 363.556 591.312 363.556 591.61C363.556 591.742 363.585 591.874 363.663 592.006C364 592.558 364.796 592.963 365.865 592.968ZM365.943 589.828C365.235 589.828 364.796 589.267 364.796 588.31C364.796 587.362 365.24 586.767 365.943 586.767C366.656 586.767 367.115 587.372 367.115 588.314C367.115 589.262 366.656 589.828 365.943 589.828ZM344.388 601.103C344.808 601.103 345.101 600.849 345.101 600.36V598.012C345.101 597.323 345.497 596.85 346.171 596.85C346.82 596.85 347.152 597.26 347.152 597.934V600.36C347.152 600.849 347.45 601.103 347.865 601.103C348.285 601.103 348.578 600.849 348.578 600.36V597.631C348.578 596.42 347.914 595.668 346.752 595.668C345.956 595.668 345.384 596.039 345.106 596.698H345.077V594.579C345.077 594.12 344.818 593.847 344.379 593.847C343.939 593.847 343.675 594.12 343.675 594.579V600.36C343.675 600.849 343.973 601.103 344.388 601.103ZM351.813 601.112C353.395 601.112 354.406 600.102 354.406 598.378C354.406 596.679 353.381 595.653 351.813 595.653C350.246 595.653 349.22 596.684 349.22 598.378C349.22 600.097 350.231 601.112 351.813 601.112ZM351.813 600.023C351.11 600.023 350.666 599.433 350.666 598.383C350.666 597.343 351.12 596.742 351.813 596.742C352.507 596.742 352.956 597.343 352.956 598.383C352.956 599.433 352.511 600.023 351.813 600.023ZM356.924 601.098C357.715 601.098 358.232 600.717 358.491 600.058H358.52V600.38C358.52 600.854 358.799 601.103 359.209 601.103C359.619 601.103 359.897 600.854 359.897 600.38V596.405C359.897 595.917 359.604 595.658 359.184 595.658C358.769 595.658 358.472 595.917 358.472 596.405V598.764C358.472 599.457 358.076 599.911 357.441 599.911C356.811 599.911 356.465 599.54 356.465 598.842V596.405C356.465 595.917 356.172 595.658 355.752 595.658C355.337 595.658 355.039 595.917 355.039 596.405V599.14C355.039 600.36 355.791 601.098 356.924 601.098ZM361.458 601.103C361.892 601.103 362.171 600.834 362.171 600.36V598.036C362.171 597.416 362.4 597.05 363.05 597.04C363.328 597.035 363.533 596.972 363.67 596.854C363.807 596.737 363.875 596.566 363.875 596.342C363.875 596.098 363.807 595.922 363.67 595.814C363.567 595.727 363.416 595.683 363.226 595.683C362.703 595.683 362.273 596.068 362.137 596.718H362.107V596.376C362.107 595.922 361.834 595.658 361.434 595.658C361.023 595.658 360.745 595.922 360.745 596.376V600.36C360.745 600.834 361.028 601.103 361.458 601.103ZM366.441 601.112C367.823 601.112 368.756 600.438 368.756 599.398C368.756 598.617 368.297 598.207 367.184 597.973L366.319 597.787C365.797 597.675 365.592 597.494 365.592 597.221C365.592 596.884 365.929 596.654 366.412 596.654C366.925 596.654 367.208 596.898 367.457 597.216C367.584 597.367 367.789 597.436 367.975 597.436C368.341 597.436 368.521 597.235 368.521 596.947C368.521 596.879 368.507 596.811 368.487 596.737C368.316 596.146 367.521 595.653 366.437 595.653C365.079 595.653 364.215 596.298 364.215 597.299C364.215 598.075 364.732 598.598 365.758 598.817L366.637 599.003C367.149 599.115 367.33 599.267 367.33 599.55C367.33 599.896 366.993 600.111 366.476 600.111C365.934 600.111 365.611 599.945 365.333 599.579C365.138 599.359 364.942 599.257 364.713 599.257C364.381 599.257 364.137 599.477 364.137 599.804C364.137 599.882 364.156 599.975 364.19 600.067C364.439 600.683 365.24 601.112 366.441 601.112Z" fill="white"/>
<path d="M359.273 575.41C360.895 575.41 362.086 574.414 362.086 572.539V569.824H363.688C365.23 569.824 366.109 568.867 366.109 567.48C366.109 566.094 365.25 565.117 363.688 565.117H362.086V550.645C362.086 548.008 360.211 546.387 357.223 546.387C354.84 546.387 353.414 547.363 351.461 550.352C348.395 554.902 345.582 559.199 343.648 562.676C342.77 564.219 342.418 565.312 342.418 566.523C342.418 568.496 343.844 569.824 345.973 569.824H356.48V572.539C356.48 574.414 357.652 575.41 359.273 575.41ZM356.598 565.273H347.574V565.117C349.859 560.859 352.457 556.895 356.48 551.094H356.598V565.273Z" fill="white"/>
<g filter="url(#filter0_b_366_20159)">
<rect width="390" height="843" fill="white" fill-opacity="0.5"/>
</g>
<path d="M63.9375 435.166C64.7285 435.166 65.1973 434.688 65.1973 433.857V423.037H68.4199C69.1035 423.037 69.5723 422.627 69.5723 421.973C69.5723 421.318 69.1133 420.908 68.4199 420.908H59.4648C58.7715 420.908 58.3125 421.318 58.3125 421.973C58.3125 422.627 58.7812 423.037 59.4648 423.037H62.6875V433.857C62.6875 434.688 63.1562 435.166 63.9375 435.166ZM71.6914 423.193C72.4531 423.193 73.0488 422.607 73.0488 421.875C73.0488 421.133 72.4531 420.557 71.6914 420.557C70.9395 420.557 70.3438 421.133 70.3438 421.875C70.3438 422.607 70.9395 423.193 71.6914 423.193ZM71.6914 435.195C72.4336 435.195 72.9121 434.707 72.9121 433.916V425.732C72.9121 424.941 72.4336 424.443 71.6914 424.443C70.9492 424.443 70.4805 424.941 70.4805 425.723V433.916C70.4805 434.707 70.9492 435.195 71.6914 435.195ZM76.1641 435.195C76.8867 435.195 77.3848 434.727 77.3848 433.916V428.662C77.3848 427.412 78.2051 426.504 79.377 426.504C80.5098 426.504 81.2129 427.217 81.2129 428.369V433.916C81.2129 434.727 81.6621 435.195 82.3945 435.195C83.1172 435.195 83.5762 434.727 83.5762 433.916V428.604C83.5762 427.363 84.377 426.504 85.5488 426.504C86.7402 426.504 87.4043 427.227 87.4043 428.496V433.916C87.4043 434.727 87.8926 435.195 88.625 435.195C89.3477 435.195 89.8359 434.727 89.8359 433.916V427.9C89.8359 425.83 88.498 424.453 86.457 424.453C84.9629 424.453 83.7324 425.254 83.2344 426.533H83.1758C82.7949 425.205 81.75 424.453 80.2852 424.453C78.8789 424.453 77.7852 425.244 77.3359 426.445H77.2871V425.684C77.2871 424.893 76.7988 424.443 76.1152 424.443C75.4316 424.443 74.9531 424.893 74.9531 425.684V433.916C74.9531 434.727 75.4316 435.195 76.1641 435.195ZM96.3887 435.205C98.3613 435.205 99.9043 434.434 100.588 433.115C100.695 432.9 100.754 432.686 100.754 432.5C100.754 431.914 100.324 431.562 99.7773 431.562C99.4355 431.562 99.2109 431.67 98.957 431.953C98.1758 432.949 97.4629 433.33 96.3691 433.33C94.7871 433.33 93.7812 432.217 93.7812 430.488V430.41H99.8848C100.607 430.41 101.018 429.98 101.018 429.258C101.018 426.445 99.084 424.434 96.252 424.434C93.2637 424.434 91.3594 426.562 91.3594 429.863C91.3594 433.223 93.2246 435.205 96.3887 435.205ZM93.8008 428.809C93.8984 427.324 94.8945 426.318 96.2617 426.318C97.6289 426.318 98.5859 427.305 98.6348 428.809H93.8008ZM108.098 435H111.984C116.203 435 118.684 432.383 118.684 427.92C118.684 423.457 116.193 420.908 111.984 420.908H108.098C107.316 420.908 106.838 421.396 106.838 422.217V433.691C106.838 434.512 107.316 435 108.098 435ZM109.357 432.871V423.037H111.721C114.533 423.037 116.115 424.775 116.115 427.93C116.115 431.143 114.553 432.871 111.721 432.871H109.357ZM121.652 435.195C122.385 435.195 122.873 434.717 122.873 433.916V428.936C122.873 427.676 123.4 426.807 124.787 426.797C125.266 426.787 125.627 426.68 125.861 426.475C126.105 426.279 126.223 425.996 126.223 425.615C126.223 425.215 126.105 424.922 125.881 424.736C125.695 424.57 125.402 424.473 125.021 424.473C123.986 424.473 123.088 425.254 122.805 426.465H122.756V425.674C122.756 424.912 122.277 424.443 121.604 424.443C120.91 424.443 120.441 424.912 120.441 425.674V433.916C120.441 434.717 120.92 435.195 121.652 435.195ZM131.506 435.205C134.543 435.205 136.516 433.184 136.516 429.824C136.516 426.475 134.523 424.434 131.506 424.434C128.488 424.434 126.496 426.484 126.496 429.824C126.496 433.184 128.469 435.205 131.506 435.205ZM131.506 433.281C129.963 433.281 128.967 432.031 128.967 429.824C128.967 427.627 129.973 426.367 131.506 426.367C133.049 426.367 134.045 427.627 134.045 429.824C134.045 432.031 133.049 433.281 131.506 433.281ZM139.289 438.682C140.002 438.682 140.51 438.223 140.51 437.402V433.281H140.559C141.125 434.443 142.297 435.166 143.801 435.166C146.398 435.166 148.059 433.125 148.059 429.824C148.059 426.514 146.389 424.473 143.762 424.473C142.258 424.473 141.086 425.234 140.5 426.436H140.451V425.693C140.451 424.893 139.953 424.443 139.26 424.443C138.566 424.443 138.078 424.893 138.078 425.693V437.402C138.078 438.223 138.576 438.682 139.289 438.682ZM143.02 433.174C141.506 433.174 140.5 431.855 140.49 429.824C140.5 427.812 141.506 426.475 143.02 426.475C144.592 426.475 145.568 427.783 145.568 429.824C145.568 431.875 144.592 433.174 143.02 433.174ZM153.615 435.205C156.252 435.205 158.029 433.906 158.029 431.924C158.029 430.391 157.16 429.6 154.973 429.102L153.322 428.74C152.248 428.496 151.799 428.086 151.799 427.48C151.799 426.738 152.531 426.221 153.596 426.221C154.621 426.221 155.217 426.67 155.695 427.383C155.92 427.705 156.271 427.832 156.623 427.832C157.238 427.832 157.561 427.471 157.561 426.963C157.561 426.846 157.541 426.729 157.512 426.602C157.189 425.41 155.646 424.434 153.654 424.434C151.096 424.434 149.436 425.693 149.436 427.617C149.436 429.121 150.432 430.117 152.453 430.576L154.133 430.957C155.197 431.201 155.588 431.543 155.588 432.168C155.588 432.949 154.836 433.428 153.703 433.428C152.541 433.428 151.916 433.076 151.369 432.285C151.057 431.875 150.715 431.689 150.314 431.689C149.729 431.689 149.299 432.061 149.299 432.646C149.299 432.793 149.328 432.949 149.396 433.125C149.895 434.365 151.428 435.205 153.615 435.205ZM166.633 435.176C167.17 435.176 167.541 434.893 167.697 434.355L169.797 427.139H169.836L171.945 434.355C172.111 434.932 172.434 435.176 173 435.176C173.527 435.176 173.879 434.902 174.035 434.355L176.516 425.84C176.564 425.674 176.584 425.527 176.584 425.4C176.584 424.951 176.262 424.668 175.754 424.668C175.334 424.668 175.109 424.863 174.982 425.361L172.98 433.105H172.941L170.793 425.42C170.656 424.922 170.334 424.668 169.826 424.668C169.309 424.668 168.967 424.932 168.83 425.43L166.701 433.105H166.662L164.66 425.361C164.533 424.863 164.309 424.668 163.889 424.668C163.381 424.668 163.059 424.951 163.059 425.4C163.059 425.527 163.078 425.674 163.127 425.84L165.607 434.355C165.773 434.922 166.096 435.176 166.633 435.176ZM179.025 423.135C179.611 423.135 180.09 422.656 180.09 422.08C180.09 421.494 179.611 421.025 179.025 421.025C178.449 421.025 177.971 421.494 177.971 422.08C177.971 422.656 178.449 423.135 179.025 423.135ZM179.025 435.176C179.523 435.176 179.875 434.805 179.875 434.268V425.576C179.875 425.039 179.523 424.668 179.025 424.668C178.527 424.668 178.176 425.039 178.176 425.576V434.268C178.176 434.805 178.527 435.176 179.025 435.176ZM183.107 435.176C183.605 435.176 183.957 434.805 183.957 434.268V421.641C183.957 421.104 183.605 420.732 183.107 420.732C182.609 420.732 182.258 421.104 182.258 421.641V434.268C182.258 434.805 182.609 435.176 183.107 435.176ZM187.189 435.176C187.688 435.176 188.039 434.805 188.039 434.268V421.641C188.039 421.104 187.688 420.732 187.189 420.732C186.691 420.732 186.34 421.104 186.34 421.641V434.268C186.34 434.805 186.691 435.176 187.189 435.176ZM195.373 435.176C195.871 435.176 196.223 434.805 196.223 434.268V429.082C196.223 427.324 197.268 426.172 198.957 426.172C200.549 426.172 201.359 427.139 201.359 428.75V434.268C201.359 434.805 201.711 435.176 202.209 435.176C202.707 435.176 203.059 434.805 203.059 434.268V428.438C203.059 426.172 201.711 424.668 199.484 424.668C197.941 424.668 196.828 425.332 196.262 426.465H196.223V421.621C196.223 421.094 195.891 420.732 195.373 420.732C194.865 420.732 194.523 421.094 194.523 421.621V434.268C194.523 434.805 194.875 435.176 195.373 435.176ZM209.475 435.176C211.33 435.176 212.756 434.395 213.41 433.018C213.488 432.832 213.537 432.656 213.537 432.52C213.537 432.07 213.234 431.777 212.785 431.777C212.521 431.777 212.326 431.875 212.15 432.119C211.359 433.271 210.617 433.701 209.406 433.701C207.59 433.701 206.467 432.432 206.467 430.381H212.814C213.4 430.381 213.752 430.01 213.752 429.395C213.752 426.611 211.926 424.668 209.328 424.668C206.525 424.668 204.719 426.758 204.719 429.961C204.719 433.242 206.477 435.176 209.475 435.176ZM206.477 429.053C206.584 427.305 207.717 426.143 209.299 426.143C210.871 426.143 211.955 427.295 211.994 429.053H206.477ZM216.408 435.176C216.906 435.176 217.258 434.805 217.258 434.268V421.641C217.258 421.104 216.906 420.732 216.408 420.732C215.91 420.732 215.559 421.104 215.559 421.641V434.268C215.559 434.805 215.91 435.176 216.408 435.176ZM220.402 438.584C220.9 438.584 221.252 438.213 221.252 437.676V433.35H221.291C221.896 434.463 223.068 435.176 224.523 435.176C227.082 435.176 228.83 433.105 228.83 429.922C228.83 426.738 227.072 424.668 224.484 424.668C223.01 424.668 221.828 425.42 221.203 426.562H221.164V425.527C221.164 425.02 220.832 424.668 220.363 424.668C219.885 424.668 219.553 425.02 219.553 425.527V437.676C219.553 438.213 219.904 438.584 220.402 438.584ZM224.152 433.682C222.414 433.682 221.242 432.188 221.242 429.922C221.242 427.666 222.414 426.162 224.152 426.162C225.959 426.162 227.092 427.627 227.092 429.922C227.092 432.227 225.959 433.682 224.152 433.682ZM235.646 438.799C237.326 438.799 238.156 438.047 239.035 435.713L242.785 425.898C242.844 425.732 242.873 425.576 242.873 425.449C242.873 424.99 242.531 424.668 242.043 424.668C241.623 424.668 241.398 424.844 241.242 425.293L238.43 433.301H238.4L235.598 425.293C235.441 424.844 235.188 424.668 234.787 424.668C234.299 424.668 233.938 424.98 233.938 425.449C233.938 425.576 233.967 425.732 234.025 425.898L237.521 435.01L237.287 435.723C236.887 436.953 236.271 437.344 235.627 437.344C235.363 437.344 235.295 437.334 235.051 437.334C234.621 437.334 234.367 437.588 234.367 437.959C234.367 438.496 234.826 438.799 235.646 438.799ZM248.293 435.176C251.096 435.176 252.99 433.154 252.99 429.922C252.99 426.68 251.096 424.668 248.293 424.668C245.48 424.668 243.586 426.68 243.586 429.922C243.586 433.154 245.48 435.176 248.293 435.176ZM248.293 433.682C246.496 433.682 245.314 432.314 245.314 429.922C245.314 427.529 246.496 426.162 248.293 426.162C250.09 426.162 251.262 427.529 251.262 429.922C251.262 432.314 250.09 433.682 248.293 433.682ZM258.176 435.176C259.738 435.176 260.793 434.521 261.398 433.35H261.438V434.316C261.438 434.805 261.76 435.176 262.248 435.176C262.736 435.176 263.049 434.805 263.049 434.316V425.576C263.049 425.039 262.697 424.668 262.199 424.668C261.701 424.668 261.35 425.039 261.35 425.576V430.811C261.35 432.539 260.354 433.672 258.703 433.672C257.131 433.672 256.359 432.783 256.359 431.133V425.576C256.359 425.039 256.008 424.668 255.51 424.668C255.012 424.668 254.66 425.039 254.66 425.576V431.436C254.66 433.74 255.959 435.176 258.176 435.176ZM273.078 435.176C273.625 435.176 273.986 434.902 274.211 434.316L277.434 425.889C277.492 425.742 277.521 425.596 277.521 425.449C277.521 424.98 277.189 424.668 276.682 424.668C276.311 424.668 276.057 424.873 275.9 425.312L273.107 433.193H273.068L270.285 425.312C270.129 424.873 269.875 424.668 269.494 424.668C268.986 424.668 268.645 424.98 268.645 425.449C268.645 425.596 268.674 425.742 268.732 425.889L271.965 434.316C272.209 434.932 272.521 435.176 273.078 435.176ZM279.963 423.135C280.549 423.135 281.027 422.656 281.027 422.08C281.027 421.494 280.549 421.025 279.963 421.025C279.387 421.025 278.908 421.494 278.908 422.08C278.908 422.656 279.387 423.135 279.963 423.135ZM279.963 435.176C280.461 435.176 280.812 434.805 280.812 434.268V425.576C280.812 425.039 280.461 424.668 279.963 424.668C279.465 424.668 279.113 425.039 279.113 425.576V434.268C279.113 434.805 279.465 435.176 279.963 435.176ZM286.633 435.176C289.045 435.176 290.676 433.955 290.676 432.139C290.676 430.645 289.895 429.902 287.775 429.385L286.262 429.014C285.148 428.74 284.602 428.252 284.602 427.549C284.602 426.68 285.451 426.064 286.672 426.064C287.707 426.064 288.361 426.436 288.801 427.285C288.986 427.637 289.221 427.744 289.553 427.744C289.963 427.744 290.217 427.48 290.217 427.08C290.217 427.002 290.207 426.924 290.188 426.826C289.924 425.605 288.439 424.668 286.77 424.668C284.475 424.668 282.922 425.869 282.922 427.637C282.922 429.062 283.869 429.99 285.832 430.479L287.385 430.869C288.527 431.152 288.947 431.543 288.947 432.275C288.947 433.223 288.068 433.789 286.77 433.789C285.471 433.789 284.865 433.389 284.357 432.5C284.162 432.148 283.918 431.992 283.615 431.992C283.176 431.992 282.844 432.246 282.844 432.695C282.844 432.822 282.863 432.949 282.922 433.096C283.41 434.365 284.826 435.176 286.633 435.176ZM295.891 435.176C297.453 435.176 298.508 434.521 299.113 433.35H299.152V434.316C299.152 434.805 299.475 435.176 299.963 435.176C300.451 435.176 300.764 434.805 300.764 434.316V425.576C300.764 425.039 300.412 424.668 299.914 424.668C299.416 424.668 299.064 425.039 299.064 425.576V430.811C299.064 432.539 298.068 433.672 296.418 433.672C294.846 433.672 294.074 432.783 294.074 431.133V425.576C294.074 425.039 293.723 424.668 293.225 424.668C292.727 424.668 292.375 425.039 292.375 425.576V431.436C292.375 433.74 293.674 435.176 295.891 435.176ZM305.93 435.176C307.297 435.176 308.596 434.414 309.201 433.252H309.24V434.316C309.24 434.824 309.572 435.176 310.051 435.176C310.52 435.176 310.852 434.824 310.852 434.316V427.979C310.852 425.957 309.348 424.668 306.965 424.668C305.314 424.668 303.83 425.4 303.254 426.514C303.117 426.758 303.049 427.002 303.049 427.217C303.049 427.676 303.361 427.979 303.801 427.979C304.123 427.979 304.348 427.852 304.504 427.568C305.07 426.562 305.822 426.162 306.926 426.162C308.332 426.162 309.152 426.904 309.152 428.145V428.994L306.232 429.16C303.889 429.297 302.551 430.391 302.551 432.129C302.551 433.955 303.908 435.176 305.93 435.176ZM306.311 433.73C305.09 433.73 304.279 433.096 304.279 432.129C304.279 431.172 305.061 430.566 306.428 430.479L309.152 430.312V431.143C309.152 432.607 307.912 433.73 306.311 433.73ZM313.947 435.176C314.445 435.176 314.797 434.805 314.797 434.268V421.641C314.797 421.104 314.445 420.732 313.947 420.732C313.449 420.732 313.098 421.104 313.098 421.641V434.268C313.098 434.805 313.449 435.176 313.947 435.176ZM318.029 435.176C318.527 435.176 318.879 434.805 318.879 434.268V421.641C318.879 421.104 318.527 420.732 318.029 420.732C317.531 420.732 317.18 421.104 317.18 421.641V434.268C317.18 434.805 317.531 435.176 318.029 435.176ZM322.17 438.799C323.85 438.799 324.68 438.047 325.559 435.713L329.309 425.898C329.367 425.732 329.396 425.576 329.396 425.449C329.396 424.99 329.055 424.668 328.566 424.668C328.146 424.668 327.922 424.844 327.766 425.293L324.953 433.301H324.924L322.121 425.293C321.965 424.844 321.711 424.668 321.311 424.668C320.822 424.668 320.461 424.98 320.461 425.449C320.461 425.576 320.49 425.732 320.549 425.898L324.045 435.01L323.811 435.723C323.41 436.953 322.795 437.344 322.15 437.344C321.887 437.344 321.818 437.334 321.574 437.334C321.145 437.334 320.891 437.588 320.891 437.959C320.891 438.496 321.35 438.799 322.17 438.799ZM59.9531 459.176C60.4707 459.176 60.8027 458.785 60.8027 458.268V452.633C60.8027 451.227 61.7793 450.172 63.127 450.172C64.3867 450.172 65.207 450.973 65.207 452.193V458.268C65.207 458.785 65.5391 459.176 66.0566 459.176C66.5742 459.176 66.9062 458.785 66.9062 458.268V452.545C66.9062 451.168 67.8535 450.172 69.2012 450.172C70.5391 450.172 71.3105 450.992 71.3105 452.379V458.268C71.3105 458.785 71.6426 459.176 72.1602 459.176C72.6777 459.176 73.0098 458.785 73.0098 458.268V451.988C73.0098 449.977 71.7109 448.668 69.6992 448.668C68.2734 448.668 67.082 449.391 66.5156 450.602H66.4766C66.0371 449.371 65.0117 448.668 63.625 448.668C62.2578 448.668 61.2227 449.391 60.7441 450.465H60.7051V449.527C60.7051 449.02 60.373 448.668 59.9043 448.668C59.4355 448.668 59.1035 449.02 59.1035 449.527V458.268C59.1035 458.785 59.4355 459.176 59.9531 459.176ZM78.1367 459.176C79.5039 459.176 80.8027 458.414 81.4082 457.252H81.4473V458.316C81.4473 458.824 81.7793 459.176 82.2578 459.176C82.7266 459.176 83.0586 458.824 83.0586 458.316V451.979C83.0586 449.957 81.5547 448.668 79.1719 448.668C77.5215 448.668 76.0371 449.4 75.4609 450.514C75.3242 450.758 75.2559 451.002 75.2559 451.217C75.2559 451.676 75.5684 451.979 76.0078 451.979C76.3301 451.979 76.5547 451.852 76.7109 451.568C77.2773 450.562 78.0293 450.162 79.1328 450.162C80.5391 450.162 81.3594 450.904 81.3594 452.145V452.994L78.4395 453.16C76.0957 453.297 74.7578 454.391 74.7578 456.129C74.7578 457.955 76.1152 459.176 78.1367 459.176ZM78.5176 457.73C77.2969 457.73 76.4863 457.096 76.4863 456.129C76.4863 455.172 77.2676 454.566 78.6348 454.479L81.3594 454.312V455.143C81.3594 456.607 80.1191 457.73 78.5176 457.73ZM86.0664 459.176C86.5645 459.176 86.916 458.805 86.916 458.268V453.023C86.916 451.305 87.9609 450.172 89.5625 450.172C91.125 450.172 91.8965 451.07 91.8965 452.711V458.268C91.8965 458.805 92.248 459.176 92.7461 459.176C93.2441 459.176 93.5957 458.805 93.5957 458.268V452.408C93.5957 450.104 92.3066 448.668 90.0801 448.668C88.5078 448.668 87.4238 449.371 86.8574 450.465H86.8184V449.527C86.8184 449.02 86.4863 448.668 86.0176 448.668C85.5488 448.668 85.2168 449.02 85.2168 449.527V458.268C85.2168 458.805 85.5684 459.176 86.0664 459.176ZM98.7227 459.176C100.09 459.176 101.389 458.414 101.994 457.252H102.033V458.316C102.033 458.824 102.365 459.176 102.844 459.176C103.312 459.176 103.645 458.824 103.645 458.316V451.979C103.645 449.957 102.141 448.668 99.7578 448.668C98.1074 448.668 96.623 449.4 96.0469 450.514C95.9102 450.758 95.8418 451.002 95.8418 451.217C95.8418 451.676 96.1543 451.979 96.5938 451.979C96.916 451.979 97.1406 451.852 97.2969 451.568C97.8633 450.562 98.6152 450.162 99.7188 450.162C101.125 450.162 101.945 450.904 101.945 452.145V452.994L99.0254 453.16C96.6816 453.297 95.3438 454.391 95.3438 456.129C95.3438 457.955 96.7012 459.176 98.7227 459.176ZM99.1035 457.73C97.8828 457.73 97.0723 457.096 97.0723 456.129C97.0723 455.172 97.8535 454.566 99.2207 454.479L101.945 454.312V455.143C101.945 456.607 100.705 457.73 99.1035 457.73ZM109.904 462.828C112.795 462.857 114.592 461.217 114.592 458.795V449.547C114.592 449.02 114.23 448.668 113.742 448.668C113.254 448.668 112.893 449.02 112.893 449.547V450.514H112.863C112.189 449.371 111.066 448.668 109.631 448.668C107.004 448.668 105.305 450.699 105.305 453.883C105.305 457.037 107.004 459.078 109.592 459.078C111.018 459.078 112.229 458.355 112.854 457.252H112.893V458.854C112.893 460.367 111.789 461.412 109.973 461.383C108.938 461.363 108.225 460.992 107.355 460.035C107.092 459.742 106.926 459.645 106.643 459.645C106.193 459.645 105.881 459.947 105.881 460.377C105.881 460.602 105.939 460.797 106.076 461.012C106.789 462.135 108.205 462.809 109.904 462.828ZM109.934 457.584C108.186 457.584 107.043 456.158 107.043 453.883C107.043 451.607 108.186 450.162 109.934 450.162C111.701 450.162 112.893 451.646 112.893 453.883C112.893 456.119 111.701 457.584 109.934 457.584ZM121.057 459.176C122.912 459.176 124.338 458.395 124.992 457.018C125.07 456.832 125.119 456.656 125.119 456.52C125.119 456.07 124.816 455.777 124.367 455.777C124.104 455.777 123.908 455.875 123.732 456.119C122.941 457.271 122.199 457.701 120.988 457.701C119.172 457.701 118.049 456.432 118.049 454.381H124.396C124.982 454.381 125.334 454.01 125.334 453.395C125.334 450.611 123.508 448.668 120.91 448.668C118.107 448.668 116.301 450.758 116.301 453.961C116.301 457.242 118.059 459.176 121.057 459.176ZM118.059 453.053C118.166 451.305 119.299 450.143 120.881 450.143C122.453 450.143 123.537 451.295 123.576 453.053H118.059ZM131.701 456.656C131.701 458.277 132.521 459.078 134.162 459.078H134.27C135.217 459.078 135.51 458.805 135.51 458.287C135.51 457.887 135.256 457.662 134.699 457.623L134.553 457.613C133.703 457.555 133.4 457.145 133.4 456.285V450.24H134.709C135.197 450.24 135.471 449.986 135.471 449.537C135.471 449.098 135.197 448.844 134.709 448.844H133.4V447.105C133.4 446.568 133.049 446.197 132.551 446.197C132.053 446.197 131.701 446.568 131.701 447.105V448.844H130.852C130.363 448.844 130.09 449.098 130.09 449.537C130.09 449.986 130.363 450.24 130.852 450.24H131.701V456.656ZM138.127 459.176C138.625 459.176 138.977 458.805 138.977 458.268V453.082C138.977 451.324 140.021 450.172 141.711 450.172C143.303 450.172 144.113 451.139 144.113 452.75V458.268C144.113 458.805 144.465 459.176 144.963 459.176C145.461 459.176 145.812 458.805 145.812 458.268V452.438C145.812 450.172 144.465 448.668 142.238 448.668C140.695 448.668 139.582 449.332 139.016 450.465H138.977V445.621C138.977 445.094 138.645 444.732 138.127 444.732C137.619 444.732 137.277 445.094 137.277 445.621V458.268C137.277 458.805 137.629 459.176 138.127 459.176ZM152.229 459.176C154.084 459.176 155.51 458.395 156.164 457.018C156.242 456.832 156.291 456.656 156.291 456.52C156.291 456.07 155.988 455.777 155.539 455.777C155.275 455.777 155.08 455.875 154.904 456.119C154.113 457.271 153.371 457.701 152.16 457.701C150.344 457.701 149.221 456.432 149.221 454.381H155.568C156.154 454.381 156.506 454.01 156.506 453.395C156.506 450.611 154.68 448.668 152.082 448.668C149.279 448.668 147.473 450.758 147.473 453.961C147.473 457.242 149.23 459.176 152.229 459.176ZM149.23 453.053C149.338 451.305 150.471 450.143 152.053 450.143C153.625 450.143 154.709 451.295 154.748 453.053H149.23ZM163.723 459.176C164.24 459.176 164.572 458.824 164.572 458.277V450.24H166.066C166.506 450.24 166.789 449.986 166.789 449.547C166.789 449.127 166.506 448.844 166.066 448.844H164.562V447.77C164.562 446.725 164.953 446.275 165.852 446.275C166.066 446.275 166.232 446.256 166.379 446.217C166.691 446.129 166.838 445.934 166.838 445.621C166.838 445.123 166.359 444.83 165.461 444.83C163.801 444.83 162.873 445.768 162.873 447.711V448.844H162.033C161.594 448.844 161.311 449.127 161.311 449.547C161.311 449.986 161.594 450.24 162.033 450.24H162.873V458.277C162.873 458.824 163.205 459.176 163.723 459.176ZM169.338 459.176C169.836 459.176 170.188 458.805 170.188 458.268V445.641C170.188 445.104 169.836 444.732 169.338 444.732C168.84 444.732 168.488 445.104 168.488 445.641V458.268C168.488 458.805 168.84 459.176 169.338 459.176ZM176.691 459.176C179.494 459.176 181.389 457.154 181.389 453.922C181.389 450.68 179.494 448.668 176.691 448.668C173.879 448.668 171.984 450.68 171.984 453.922C171.984 457.154 173.879 459.176 176.691 459.176ZM176.691 457.682C174.895 457.682 173.713 456.314 173.713 453.922C173.713 451.529 174.895 450.162 176.691 450.162C178.488 450.162 179.66 451.529 179.66 453.922C179.66 456.314 178.488 457.682 176.691 457.682ZM185.969 459.176C186.506 459.176 186.877 458.893 187.033 458.355L189.133 451.139H189.172L191.281 458.355C191.447 458.932 191.77 459.176 192.336 459.176C192.863 459.176 193.215 458.902 193.371 458.355L195.852 449.84C195.9 449.674 195.92 449.527 195.92 449.4C195.92 448.951 195.598 448.668 195.09 448.668C194.67 448.668 194.445 448.863 194.318 449.361L192.316 457.105H192.277L190.129 449.42C189.992 448.922 189.67 448.668 189.162 448.668C188.645 448.668 188.303 448.932 188.166 449.43L186.037 457.105H185.998L183.996 449.361C183.869 448.863 183.645 448.668 183.225 448.668C182.717 448.668 182.395 448.951 182.395 449.4C182.395 449.527 182.414 449.674 182.463 449.84L184.943 458.355C185.109 458.922 185.432 459.176 185.969 459.176ZM205.734 459.176C208.537 459.176 210.432 457.154 210.432 453.922C210.432 450.68 208.537 448.668 205.734 448.668C202.922 448.668 201.027 450.68 201.027 453.922C201.027 457.154 202.922 459.176 205.734 459.176ZM205.734 457.682C203.938 457.682 202.756 456.314 202.756 453.922C202.756 451.529 203.938 450.162 205.734 450.162C207.531 450.162 208.703 451.529 208.703 453.922C208.703 456.314 207.531 457.682 205.734 457.682ZM213.547 459.176C214.064 459.176 214.396 458.824 214.396 458.277V450.24H215.891C216.33 450.24 216.613 449.986 216.613 449.547C216.613 449.127 216.33 448.844 215.891 448.844H214.387V447.77C214.387 446.725 214.777 446.275 215.676 446.275C215.891 446.275 216.057 446.256 216.203 446.217C216.516 446.129 216.662 445.934 216.662 445.621C216.662 445.123 216.184 444.83 215.285 444.83C213.625 444.83 212.697 445.768 212.697 447.711V448.844H211.857C211.418 448.844 211.135 449.127 211.135 449.547C211.135 449.986 211.418 450.24 211.857 450.24H212.697V458.277C212.697 458.824 213.029 459.176 213.547 459.176ZM223.322 462.799C225.002 462.799 225.832 462.047 226.711 459.713L230.461 449.898C230.52 449.732 230.549 449.576 230.549 449.449C230.549 448.99 230.207 448.668 229.719 448.668C229.299 448.668 229.074 448.844 228.918 449.293L226.105 457.301H226.076L223.273 449.293C223.117 448.844 222.863 448.668 222.463 448.668C221.975 448.668 221.613 448.98 221.613 449.449C221.613 449.576 221.643 449.732 221.701 449.898L225.197 459.01L224.963 459.723C224.562 460.953 223.947 461.344 223.303 461.344C223.039 461.344 222.971 461.334 222.727 461.334C222.297 461.334 222.043 461.588 222.043 461.959C222.043 462.496 222.502 462.799 223.322 462.799ZM235.969 459.176C238.771 459.176 240.666 457.154 240.666 453.922C240.666 450.68 238.771 448.668 235.969 448.668C233.156 448.668 231.262 450.68 231.262 453.922C231.262 457.154 233.156 459.176 235.969 459.176ZM235.969 457.682C234.172 457.682 232.99 456.314 232.99 453.922C232.99 451.529 234.172 450.162 235.969 450.162C237.766 450.162 238.938 451.529 238.938 453.922C238.938 456.314 237.766 457.682 235.969 457.682ZM245.852 459.176C247.414 459.176 248.469 458.521 249.074 457.35H249.113V458.316C249.113 458.805 249.436 459.176 249.924 459.176C250.412 459.176 250.725 458.805 250.725 458.316V449.576C250.725 449.039 250.373 448.668 249.875 448.668C249.377 448.668 249.025 449.039 249.025 449.576V454.811C249.025 456.539 248.029 457.672 246.379 457.672C244.807 457.672 244.035 456.783 244.035 455.133V449.576C244.035 449.039 243.684 448.668 243.186 448.668C242.688 448.668 242.336 449.039 242.336 449.576V455.436C242.336 457.74 243.635 459.176 245.852 459.176ZM253.781 459.176C254.279 459.176 254.631 458.805 254.631 458.268V452.691C254.631 451.393 255.285 450.289 256.818 450.289C257.189 450.289 257.453 450.221 257.629 450.074C257.805 449.938 257.893 449.742 257.893 449.479C257.893 449.244 257.824 449.049 257.678 448.912C257.512 448.756 257.248 448.668 256.877 448.668C255.861 448.668 254.865 449.449 254.572 450.504H254.533V449.527C254.533 449.02 254.201 448.668 253.732 448.668C253.264 448.668 252.932 449.02 252.932 449.527V458.268C252.932 458.805 253.283 459.176 253.781 459.176ZM264.143 447.135C264.729 447.135 265.207 446.656 265.207 446.08C265.207 445.494 264.729 445.025 264.143 445.025C263.566 445.025 263.088 445.494 263.088 446.08C263.088 446.656 263.566 447.135 264.143 447.135ZM264.143 459.176C264.641 459.176 264.992 458.805 264.992 458.268V449.576C264.992 449.039 264.641 448.668 264.143 448.668C263.645 448.668 263.293 449.039 263.293 449.576V458.268C263.293 458.805 263.645 459.176 264.143 459.176ZM268.137 459.176C268.635 459.176 268.986 458.805 268.986 458.268V453.023C268.986 451.305 270.031 450.172 271.633 450.172C273.195 450.172 273.967 451.07 273.967 452.711V458.268C273.967 458.805 274.318 459.176 274.816 459.176C275.314 459.176 275.666 458.805 275.666 458.268V452.408C275.666 450.104 274.377 448.668 272.15 448.668C270.578 448.668 269.494 449.371 268.928 450.465H268.889V449.527C268.889 449.02 268.557 448.668 268.088 448.668C267.619 448.668 267.287 449.02 267.287 449.527V458.268C267.287 458.805 267.639 459.176 268.137 459.176ZM282.023 459.176C283.869 459.176 285.48 458.16 285.969 456.754C286.018 456.598 286.047 456.451 286.047 456.324C286.047 455.885 285.754 455.582 285.314 455.582C284.943 455.582 284.758 455.719 284.514 456.178C283.986 457.154 283.244 457.682 282.023 457.682C280.275 457.682 279.064 456.256 279.064 453.922C279.064 451.646 280.256 450.162 282.023 450.162C283.195 450.162 283.967 450.66 284.504 451.666C284.738 452.105 284.943 452.262 285.314 452.262C285.754 452.262 286.037 451.969 286.037 451.52C286.037 451.412 286.018 451.285 285.979 451.158C285.588 449.752 283.918 448.668 282.004 448.668C279.191 448.668 277.336 450.748 277.336 453.941C277.336 457.154 279.211 459.176 282.023 459.176ZM292.062 459.176C294.865 459.176 296.76 457.154 296.76 453.922C296.76 450.68 294.865 448.668 292.062 448.668C289.25 448.668 287.355 450.68 287.355 453.922C287.355 457.154 289.25 459.176 292.062 459.176ZM292.062 457.682C290.266 457.682 289.084 456.314 289.084 453.922C289.084 451.529 290.266 450.162 292.062 450.162C293.859 450.162 295.031 451.529 295.031 453.922C295.031 456.314 293.859 457.682 292.062 457.682ZM299.328 459.176C299.846 459.176 300.178 458.785 300.178 458.268V452.633C300.178 451.227 301.154 450.172 302.502 450.172C303.762 450.172 304.582 450.973 304.582 452.193V458.268C304.582 458.785 304.914 459.176 305.432 459.176C305.949 459.176 306.281 458.785 306.281 458.268V452.545C306.281 451.168 307.229 450.172 308.576 450.172C309.914 450.172 310.686 450.992 310.686 452.379V458.268C310.686 458.785 311.018 459.176 311.535 459.176C312.053 459.176 312.385 458.785 312.385 458.268V451.988C312.385 449.977 311.086 448.668 309.074 448.668C307.648 448.668 306.457 449.391 305.891 450.602H305.852C305.412 449.371 304.387 448.668 303 448.668C301.633 448.668 300.598 449.391 300.119 450.465H300.08V449.527C300.08 449.02 299.748 448.668 299.279 448.668C298.811 448.668 298.479 449.02 298.479 449.527V458.268C298.479 458.785 298.811 459.176 299.328 459.176ZM315.49 447.135C316.076 447.135 316.555 446.656 316.555 446.08C316.555 445.494 316.076 445.025 315.49 445.025C314.914 445.025 314.436 445.494 314.436 446.08C314.436 446.656 314.914 447.135 315.49 447.135ZM315.49 459.176C315.988 459.176 316.34 458.805 316.34 458.268V449.576C316.34 449.039 315.988 448.668 315.49 448.668C314.992 448.668 314.641 449.039 314.641 449.576V458.268C314.641 458.805 314.992 459.176 315.49 459.176ZM319.484 459.176C319.982 459.176 320.334 458.805 320.334 458.268V453.023C320.334 451.305 321.379 450.172 322.98 450.172C324.543 450.172 325.314 451.07 325.314 452.711V458.268C325.314 458.805 325.666 459.176 326.164 459.176C326.662 459.176 327.014 458.805 327.014 458.268V452.408C327.014 450.104 325.725 448.668 323.498 448.668C321.926 448.668 320.842 449.371 320.275 450.465H320.236V449.527C320.236 449.02 319.904 448.668 319.436 448.668C318.967 448.668 318.635 449.02 318.635 449.527V458.268C318.635 458.805 318.986 459.176 319.484 459.176ZM333.283 462.828C336.174 462.857 337.971 461.217 337.971 458.795V449.547C337.971 449.02 337.609 448.668 337.121 448.668C336.633 448.668 336.271 449.02 336.271 449.547V450.514H336.242C335.568 449.371 334.445 448.668 333.01 448.668C330.383 448.668 328.684 450.699 328.684 453.883C328.684 457.037 330.383 459.078 332.971 459.078C334.396 459.078 335.607 458.355 336.232 457.252H336.271V458.854C336.271 460.367 335.168 461.412 333.352 461.383C332.316 461.363 331.604 460.992 330.734 460.035C330.471 459.742 330.305 459.645 330.021 459.645C329.572 459.645 329.26 459.947 329.26 460.377C329.26 460.602 329.318 460.797 329.455 461.012C330.168 462.135 331.584 462.809 333.283 462.828ZM333.312 457.584C331.564 457.584 330.422 456.158 330.422 453.883C330.422 451.607 331.564 450.162 333.312 450.162C335.08 450.162 336.271 451.646 336.271 453.883C336.271 456.119 335.08 457.584 333.312 457.584ZM59.6504 480.656C59.6504 482.277 60.4707 483.078 62.1113 483.078H62.2188C63.166 483.078 63.459 482.805 63.459 482.287C63.459 481.887 63.2051 481.662 62.6484 481.623L62.502 481.613C61.6523 481.555 61.3496 481.145 61.3496 480.285V474.24H62.6582C63.1465 474.24 63.4199 473.986 63.4199 473.537C63.4199 473.098 63.1465 472.844 62.6582 472.844H61.3496V471.105C61.3496 470.568 60.998 470.197 60.5 470.197C60.002 470.197 59.6504 470.568 59.6504 471.105V472.844H58.8008C58.3125 472.844 58.0391 473.098 58.0391 473.537C58.0391 473.986 58.3125 474.24 58.8008 474.24H59.6504V480.656ZM67.9023 483.176C69.2695 483.176 70.5684 482.414 71.1738 481.252H71.2129V482.316C71.2129 482.824 71.5449 483.176 72.0234 483.176C72.4922 483.176 72.8242 482.824 72.8242 482.316V475.979C72.8242 473.957 71.3203 472.668 68.9375 472.668C67.2871 472.668 65.8027 473.4 65.2266 474.514C65.0898 474.758 65.0215 475.002 65.0215 475.217C65.0215 475.676 65.334 475.979 65.7734 475.979C66.0957 475.979 66.3203 475.852 66.4766 475.568C67.043 474.562 67.7949 474.162 68.8984 474.162C70.3047 474.162 71.125 474.904 71.125 476.145V476.994L68.2051 477.16C65.8613 477.297 64.5234 478.391 64.5234 480.129C64.5234 481.955 65.8809 483.176 67.9023 483.176ZM68.2832 481.73C67.0625 481.73 66.252 481.096 66.252 480.129C66.252 479.172 67.0332 478.566 68.4004 478.479L71.125 478.312V479.143C71.125 480.607 69.8848 481.73 68.2832 481.73ZM78.5078 483.176C80.9199 483.176 82.5508 481.955 82.5508 480.139C82.5508 478.645 81.7695 477.902 79.6504 477.385L78.1367 477.014C77.0234 476.74 76.4766 476.252 76.4766 475.549C76.4766 474.68 77.3262 474.064 78.5469 474.064C79.582 474.064 80.2363 474.436 80.6758 475.285C80.8613 475.637 81.0957 475.744 81.4277 475.744C81.8379 475.744 82.0918 475.48 82.0918 475.08C82.0918 475.002 82.082 474.924 82.0625 474.826C81.7988 473.605 80.3145 472.668 78.6445 472.668C76.3496 472.668 74.7969 473.869 74.7969 475.637C74.7969 477.062 75.7441 477.99 77.707 478.479L79.2598 478.869C80.4023 479.152 80.8223 479.543 80.8223 480.275C80.8223 481.223 79.9434 481.789 78.6445 481.789C77.3457 481.789 76.7402 481.389 76.2324 480.5C76.0371 480.148 75.793 479.992 75.4902 479.992C75.0508 479.992 74.7188 480.246 74.7188 480.695C74.7188 480.822 74.7383 480.949 74.7969 481.096C75.2852 482.365 76.7012 483.176 78.5078 483.176ZM85.2363 483.176C85.7344 483.176 86.0859 482.805 86.0859 482.268V479.172L87.0332 478.273L90.8516 482.863C91.0469 483.098 91.2227 483.176 91.4863 483.176C91.9258 483.176 92.2676 482.863 92.2676 482.453C92.2676 482.238 92.2188 482.082 92.0527 481.877L88.2344 477.229L91.6914 473.947C91.8965 473.752 91.9648 473.605 91.9648 473.371C91.9648 472.99 91.6426 472.668 91.2422 472.668C90.998 472.668 90.832 472.746 90.627 472.951L86.0859 477.355V469.641C86.0859 469.104 85.7344 468.732 85.2363 468.732C84.7383 468.732 84.3867 469.104 84.3867 469.641V482.268C84.3867 482.805 84.7383 483.176 85.2363 483.176ZM97.1406 483.176C99.5527 483.176 101.184 481.955 101.184 480.139C101.184 478.645 100.402 477.902 98.2832 477.385L96.7695 477.014C95.6562 476.74 95.1094 476.252 95.1094 475.549C95.1094 474.68 95.959 474.064 97.1797 474.064C98.2148 474.064 98.8691 474.436 99.3086 475.285C99.4941 475.637 99.7285 475.744 100.061 475.744C100.471 475.744 100.725 475.48 100.725 475.08C100.725 475.002 100.715 474.924 100.695 474.826C100.432 473.605 98.9473 472.668 97.2773 472.668C94.9824 472.668 93.4297 473.869 93.4297 475.637C93.4297 477.062 94.377 477.99 96.3398 478.479L97.8926 478.869C99.0352 479.152 99.4551 479.543 99.4551 480.275C99.4551 481.223 98.5762 481.789 97.2773 481.789C95.9785 481.789 95.373 481.389 94.8652 480.5C94.6699 480.148 94.4258 479.992 94.123 479.992C93.6836 479.992 93.3516 480.246 93.3516 480.695C93.3516 480.822 93.3711 480.949 93.4297 481.096C93.918 482.365 95.334 483.176 97.1406 483.176ZM104.367 483.098C104.992 483.098 105.48 482.609 105.48 481.984C105.48 481.359 104.992 480.871 104.367 480.871C103.742 480.871 103.254 481.359 103.254 481.984C103.254 482.609 103.742 483.098 104.367 483.098Z" fill="black"/>
<path d="M68.0742 394.371C69.9297 394.371 70.9844 393.453 71.5508 391.383L76.2188 374.742H76.3945L81.082 391.383C81.6484 393.492 82.6836 394.371 84.5781 394.371C86.3945 394.371 87.4102 393.473 87.9961 391.402L93.8945 370.035C94.0898 369.293 94.207 368.59 94.207 368.082C94.207 366.441 93.0938 365.426 91.2969 365.426C89.7539 365.426 88.8164 366.266 88.4453 367.965L84.2266 386.227H84.0703L79.3242 368.023C78.8945 366.285 77.918 365.426 76.3164 365.426C74.6758 365.426 73.7383 366.227 73.2891 368.062L68.543 386.227H68.3867L64.168 367.965C63.8164 366.285 62.8789 365.426 61.3359 365.426C59.5391 365.426 58.4258 366.441 58.4258 368.082C58.4258 368.609 58.543 369.312 58.7383 370.035L64.6172 391.363C65.2031 393.473 66.2188 394.371 68.0742 394.371ZM104.693 394.449C108.736 394.449 111.979 392.926 113.365 390.348C113.619 389.879 113.756 389.41 113.756 388.961C113.756 387.652 112.76 386.871 111.529 386.871C110.787 386.871 110.279 387.086 109.674 387.711C108.131 389.527 106.764 390.23 104.674 390.23C101.783 390.23 99.9083 388.199 99.9083 385.094V384.84H111.861C113.443 384.84 114.342 383.941 114.342 382.359C114.342 376.676 110.357 372.613 104.42 372.613C98.2286 372.613 94.3028 376.891 94.3028 383.629C94.3028 390.406 98.1505 394.449 104.693 394.449ZM99.9669 381.344C100.162 378.668 101.979 376.832 104.479 376.832C106.979 376.832 108.736 378.609 108.854 381.344H99.9669ZM120.199 394.41C121.879 394.41 123.051 393.395 123.051 391.441V368.375C123.051 366.422 121.879 365.387 120.199 365.387C118.539 365.387 117.348 366.422 117.348 368.375V391.441C117.348 393.395 118.539 394.41 120.199 394.41ZM136.369 394.449C140.373 394.449 143.948 392.457 145.198 389.605C145.451 389.039 145.569 388.57 145.569 388.121C145.569 386.715 144.494 385.836 143.166 385.836C141.955 385.836 141.33 386.324 140.569 387.516C139.69 389 138.459 389.977 136.467 389.977C133.615 389.977 131.838 387.633 131.838 383.512C131.838 379.469 133.615 377.086 136.506 377.086C138.323 377.086 139.592 377.926 140.627 379.762C141.213 380.797 141.897 381.246 143.03 381.246C144.377 381.246 145.471 380.426 145.471 379.02C145.471 378.609 145.354 378.102 145.158 377.613C144.026 374.645 140.53 372.613 136.33 372.613C130.041 372.613 126.057 376.832 126.057 383.531C126.057 390.309 130.061 394.449 136.369 394.449ZM158.145 394.449C164.473 394.449 168.516 390.406 168.516 383.512C168.516 376.715 164.414 372.613 158.145 372.613C151.875 372.613 147.774 376.734 147.774 383.512C147.774 390.387 151.817 394.449 158.145 394.449ZM158.145 390.094C155.332 390.094 153.555 387.73 153.555 383.531C153.555 379.371 155.371 376.969 158.145 376.969C160.918 376.969 162.715 379.371 162.715 383.531C162.715 387.73 160.938 390.094 158.145 390.094ZM174.237 394.41C175.916 394.41 177.088 393.375 177.088 391.441V381.363C177.088 379.02 178.553 377.379 180.721 377.379C182.83 377.379 184.1 378.707 184.1 380.953V391.441C184.1 393.375 185.155 394.41 186.834 394.41C188.534 394.41 189.588 393.375 189.588 391.441V381.285C189.588 378.961 191.014 377.379 193.182 377.379C195.389 377.379 196.6 378.707 196.6 381.129V391.441C196.6 393.375 197.752 394.41 199.432 394.41C201.131 394.41 202.303 393.375 202.303 391.441V379.703C202.303 375.484 199.549 372.672 195.448 372.672C192.381 372.672 189.881 374.332 188.944 376.969H188.827C188.123 374.234 186.014 372.672 182.987 372.672C180.135 372.672 177.889 374.332 177.01 376.852H176.893V375.543C176.893 373.629 175.76 372.633 174.139 372.633C172.518 372.633 171.385 373.629 171.385 375.543V391.441C171.385 393.375 172.537 394.41 174.237 394.41ZM215.465 394.449C219.508 394.449 222.75 392.926 224.137 390.348C224.391 389.879 224.528 389.41 224.528 388.961C224.528 387.652 223.532 386.871 222.301 386.871C221.559 386.871 221.051 387.086 220.446 387.711C218.903 389.527 217.536 390.23 215.446 390.23C212.555 390.23 210.68 388.199 210.68 385.094V384.84H222.633C224.215 384.84 225.114 383.941 225.114 382.359C225.114 376.676 221.129 372.613 215.192 372.613C209 372.613 205.075 376.891 205.075 383.629C205.075 390.406 208.922 394.449 215.465 394.449ZM210.739 381.344C210.934 378.668 212.75 376.832 215.25 376.832C217.75 376.832 219.508 378.609 219.625 381.344H210.739ZM232.456 384.996C234.077 384.996 234.936 384.02 234.995 382.359L235.288 368.844C235.307 368.648 235.307 368.414 235.307 368.258C235.307 366.461 234.213 365.387 232.475 365.387C230.717 365.387 229.604 366.461 229.604 368.258C229.604 368.414 229.624 368.648 229.624 368.844L229.936 382.359C229.975 384.02 230.835 384.996 232.456 384.996ZM232.456 394.488C234.233 394.488 235.639 393.141 235.639 391.422C235.639 389.703 234.233 388.355 232.456 388.355C230.678 388.355 229.272 389.703 229.272 391.422C229.272 393.141 230.678 394.488 232.456 394.488Z" fill="black"/>
</g>
<defs>
<filter id="filter0_b_366_20159" x="-6" y="-6" width="402" height="855" filterUnits="userSpaceOnUse" color-interpolation-filters="sRGB">
<feFlood flood-opacity="0" result="BackgroundImageFix"/>
<feGaussianBlur in="BackgroundImageFix" stdDeviation="3"/>
<feComposite in2="SourceAlpha" operator="in" result="effect1_backgroundBlur_366_20159"/>
<feBlend mode="normal" in="SourceGraphic" in2="effect1_backgroundBlur_366_20159" result="shape"/>
</filter>
<clipPath id="clip0_366_20159">
<rect width="390" height="844" fill="white"/>
</clipPath>
</defs>
</svg>
