<svg width="390" height="844" viewBox="0 0 390 844" fill="none" xmlns="http://www.w3.org/2000/svg">
<g clip-path="url(#clip0_366_20155)">
<rect width="390" height="844" fill="white"/>
<path d="M112.5 193.709C53.0874 190.759 39.5001 176.629 0.000104703 175.209L1.72589e-06 365.209C77.5 397.209 100.607 360.903 134.5 354.209C182.107 344.806 227 371.309 255 379.709C275 385.709 330 364.209 350 359.209C370 354.209 390 365.209 390 365.209L390 175.3C312 171.709 317.5 214.209 231.5 179.709C170.463 155.223 183 197.209 112.5 193.709Z" fill="#E4E4E4"/>
<path d="M241.722 116.384H257.038C258.533 116.384 259.434 115.441 259.434 114.075C259.434 112.67 258.533 111.766 257.038 111.766H246.61V111.65L252.59 105.877C257.114 101.586 258.763 99.4691 258.763 96.0823C258.763 91.3099 254.814 88 248.948 88C243.715 88 240.246 90.8673 239.307 93.9463C239.173 94.3504 239.096 94.7545 239.096 95.1971C239.096 96.6403 240.016 97.564 241.569 97.564C242.815 97.564 243.485 97.0252 244.137 95.8706C245.134 93.6384 246.667 92.5222 248.891 92.5222C251.364 92.5222 253.127 94.1579 253.127 96.4479C253.127 98.4492 252.245 99.7963 248.833 103.087L240.591 110.996C239.422 112.074 239 112.805 239 113.902C239 115.364 239.901 116.384 241.722 116.384Z" fill="black"/>
<path d="M273.516 117C280.11 117 284.729 113.69 284.729 108.879C284.729 105.223 282.065 102.529 278.289 101.778V101.663C281.528 100.835 283.713 98.4685 283.713 95.4857C283.713 91.1367 279.516 88 273.516 88C267.516 88 263.299 91.1559 263.299 95.4665C263.299 98.4877 265.503 100.855 268.762 101.663V101.778C264.986 102.51 262.302 105.204 262.302 108.86C262.302 113.671 266.903 117 273.516 117ZM273.516 99.9117C270.89 99.9117 269.03 98.3338 269.03 96.063C269.03 93.7731 270.89 92.1951 273.516 92.1951C276.123 92.1951 278.001 93.7731 278.001 96.063C278.001 98.3338 276.123 99.9117 273.516 99.9117ZM273.516 112.766C270.468 112.766 268.34 110.958 268.34 108.437C268.34 105.935 270.468 104.145 273.516 104.145C276.564 104.145 278.672 105.935 278.672 108.437C278.672 110.958 276.564 112.766 273.516 112.766Z" fill="black"/>
<path d="M299.169 116.75C300.99 116.75 302.064 115.634 302.064 113.729V105.454H311.169C312.683 105.454 313.641 104.588 313.641 103.145C313.641 101.721 312.664 100.855 311.169 100.855H302.064V93.4267H312.108C313.68 93.4267 314.734 92.5222 314.734 91.0212C314.734 89.5202 313.699 88.6158 312.108 88.6158H299.169C297.348 88.6158 296.275 89.7319 296.275 91.637V113.729C296.275 115.634 297.348 116.75 299.169 116.75Z" fill="black"/>
<path d="M326.152 116.827C330.12 116.827 333.302 115.326 334.663 112.786C334.912 112.324 335.046 111.862 335.046 111.419C335.046 110.13 334.068 109.36 332.861 109.36C332.132 109.36 331.634 109.572 331.04 110.188C329.525 111.977 328.184 112.67 326.133 112.67C323.296 112.67 321.456 110.669 321.456 107.609V107.359H333.187C334.739 107.359 335.621 106.474 335.621 104.915C335.621 99.3152 331.711 95.3125 325.883 95.3125C319.807 95.3125 315.954 99.5269 315.954 106.166C315.954 112.843 319.73 116.827 326.152 116.827ZM321.513 103.914C321.705 101.278 323.487 99.4691 325.941 99.4691C328.395 99.4691 330.12 101.22 330.235 103.914H321.513Z" fill="black"/>
<path d="M341.327 116.788C342.956 116.788 344.106 115.807 344.106 113.94V112.843H344.221C345.371 115.249 347.652 116.711 350.662 116.711C355.856 116.711 359 112.709 359 106.07C359 99.4114 355.837 95.428 350.643 95.428C347.729 95.428 345.429 96.8905 344.298 99.3344H344.183V91.1367C344.183 89.2123 343.033 88.1924 341.384 88.1924C339.755 88.1924 338.586 89.2123 338.586 91.1367V113.94C338.586 115.826 339.717 116.788 341.327 116.788ZM348.745 112.189C346.023 112.189 344.164 109.803 344.164 106.07C344.164 102.375 346.023 99.931 348.745 99.931C351.524 99.931 353.269 102.317 353.269 106.07C353.269 109.841 351.524 112.189 348.745 112.189Z" fill="black"/>
<path d="M326.875 134.788H331.798C332.278 134.788 332.568 134.463 332.568 133.992C332.568 133.508 332.278 133.196 331.798 133.196H328.446V133.156L330.368 131.167C331.822 129.688 332.352 128.959 332.352 127.792C332.352 126.147 331.083 125.007 329.198 125.007C327.516 125.007 326.4 125.995 326.099 127.056C326.055 127.195 326.031 127.334 326.031 127.487C326.031 127.984 326.327 128.302 326.826 128.302C327.226 128.302 327.442 128.117 327.651 127.719C327.972 126.95 328.464 126.565 329.179 126.565C329.974 126.565 330.541 127.129 330.541 127.918C330.541 128.607 330.257 129.072 329.161 130.206L326.511 132.931C326.136 133.302 326 133.554 326 133.932C326 134.436 326.29 134.788 326.875 134.788Z" fill="black"/>
<path d="M337.039 135C339.294 135 340.662 133.07 340.662 129.98C340.662 126.89 339.282 125 337.039 125C334.797 125 333.41 126.897 333.41 129.987C333.41 133.084 334.784 135 337.039 135ZM337.039 133.395C335.942 133.395 335.302 132.182 335.302 129.987C335.302 127.812 335.955 126.605 337.039 126.605C338.13 126.605 338.77 127.805 338.77 129.987C338.77 132.182 338.136 133.395 337.039 133.395Z" fill="black"/>
<path d="M342.546 134.788H347.468C347.949 134.788 348.239 134.463 348.239 133.992C348.239 133.508 347.949 133.196 347.468 133.196H344.117V133.156L346.039 131.167C347.493 129.688 348.023 128.959 348.023 127.792C348.023 126.147 346.754 125.007 344.868 125.007C343.186 125.007 342.071 125.995 341.769 127.056C341.726 127.195 341.702 127.334 341.702 127.487C341.702 127.984 341.997 128.302 342.496 128.302C342.897 128.302 343.113 128.117 343.322 127.719C343.642 126.95 344.135 126.565 344.85 126.565C345.645 126.565 346.212 127.129 346.212 127.918C346.212 128.607 345.928 129.072 344.831 130.206L342.182 132.931C341.806 133.302 341.671 133.554 341.671 133.932C341.671 134.436 341.96 134.788 342.546 134.788Z" fill="black"/>
<path d="M352.537 135C354.601 135 356 133.846 356 132.109C356 130.789 355.144 129.954 353.819 129.821V129.781C354.866 129.549 355.673 128.753 355.673 127.54C355.673 126.008 354.404 125.007 352.525 125.007C350.954 125.007 349.944 125.789 349.549 126.724C349.457 126.95 349.414 127.142 349.414 127.367C349.414 127.851 349.679 128.176 350.196 128.176C350.615 128.176 350.831 128.011 351.034 127.56C351.324 126.883 351.78 126.545 352.531 126.545C353.431 126.545 353.911 127.056 353.911 127.825C353.911 128.607 353.308 129.151 352.377 129.151H352.014C351.564 129.151 351.305 129.443 351.305 129.861C351.305 130.292 351.564 130.577 352.014 130.577H352.402C353.48 130.577 354.115 131.094 354.109 132.023C354.109 132.818 353.48 133.389 352.568 133.389C351.644 133.389 351.164 132.991 350.849 132.321C350.665 131.956 350.43 131.797 350.061 131.797C349.549 131.797 349.241 132.122 349.241 132.639C349.241 132.838 349.284 133.05 349.383 133.269C349.802 134.211 350.843 135 352.537 135Z" fill="black"/>
<path d="M33.3125 190.297C34.7969 190.297 35.6719 189.391 35.6719 187.844V169.609C35.6719 168.047 34.7969 167.141 33.3125 167.141C31.8281 167.141 30.9531 168.047 30.9531 169.609V187.844C30.9531 189.391 31.8281 190.297 33.3125 190.297ZM41.4219 190.328C42.7656 190.328 43.7031 189.516 43.7031 187.953V169.5C43.7031 167.938 42.7656 167.109 41.4219 167.109C40.0938 167.109 39.1406 167.938 39.1406 169.5V187.953C39.1406 189.516 40.0938 190.328 41.4219 190.328ZM54.3438 185.719C54.3438 188.672 55.8906 190.188 58.9375 190.188H59.0938C61.0156 190.188 62.3281 189.5 62.3281 188.156C62.3281 187.094 61.7188 186.625 60.5938 186.5L60.2969 186.469C59.3125 186.391 58.9062 185.891 58.9062 184.703V176.688H60.5156C61.5938 176.688 62.2656 176.016 62.2656 174.969C62.2656 173.922 61.5938 173.25 60.5156 173.25H58.9062V171.391C58.9062 169.922 58.0469 169.016 56.625 169.016C55.2031 169.016 54.3438 169.922 54.3438 171.391V173.25H53.4688C52.3906 173.25 51.7031 173.906 51.7031 174.969C51.7031 176.031 52.3906 176.688 53.4688 176.688H54.3438V185.719ZM70.4531 190.312C72.9844 190.312 74.6406 189.094 75.4688 186.984H75.5625V188.016C75.5625 189.531 76.4531 190.328 77.7656 190.328C79.0781 190.328 79.9688 189.531 79.9688 188.016V175.297C79.9688 173.734 79.0312 172.906 77.6875 172.906C76.3594 172.906 75.4062 173.734 75.4062 175.297V182.844C75.4062 185.062 74.1406 186.516 72.1094 186.516C70.0938 186.516 68.9844 185.328 68.9844 183.094V175.297C68.9844 173.734 68.0469 172.906 66.7031 172.906C65.375 172.906 64.4219 173.734 64.4219 175.297V184.047C64.4219 187.953 66.8281 190.312 70.4531 190.312ZM90.625 190.359C95.6875 190.359 98.9219 187.125 98.9219 181.609C98.9219 176.172 95.6406 172.891 90.625 172.891C85.6094 172.891 82.3281 176.188 82.3281 181.609C82.3281 187.109 85.5625 190.359 90.625 190.359ZM90.625 186.875C88.375 186.875 86.9531 184.984 86.9531 181.625C86.9531 178.297 88.4062 176.375 90.625 176.375C92.8438 176.375 94.2812 178.297 94.2812 181.625C94.2812 184.984 92.8594 186.875 90.625 186.875ZM110.375 190.297C111.859 190.297 112.734 189.391 112.734 187.844V181.125H120.156C121.391 181.125 122.172 180.422 122.172 179.25C122.172 178.094 121.375 177.391 120.156 177.391H112.734V171.359H120.922C122.203 171.359 123.062 170.625 123.062 169.406C123.062 168.188 122.219 167.453 120.922 167.453H110.375C108.891 167.453 108.016 168.359 108.016 169.906V187.844C108.016 189.391 108.891 190.297 110.375 190.297ZM127.578 190.328C128.922 190.328 129.859 189.516 129.859 187.953V169.5C129.859 167.938 128.922 167.109 127.578 167.109C126.25 167.109 125.297 167.938 125.297 169.5V187.953C125.297 189.516 126.25 190.328 127.578 190.328ZM140.625 190.359C145.688 190.359 148.922 187.125 148.922 181.609C148.922 176.172 145.641 172.891 140.625 172.891C135.609 172.891 132.328 176.188 132.328 181.609C132.328 187.109 135.562 190.359 140.625 190.359ZM140.625 186.875C138.375 186.875 136.953 184.984 136.953 181.625C136.953 178.297 138.406 176.375 140.625 176.375C142.844 176.375 144.281 178.297 144.281 181.625C144.281 184.984 142.859 186.875 140.625 186.875ZM156.75 190.328C158.375 190.328 159.281 189.594 159.672 187.938L162.203 178.156H162.297L164.844 187.906C165.234 189.609 166.125 190.328 167.797 190.328C169.375 190.328 170.25 189.578 170.719 187.922L174.094 176.234C174.266 175.641 174.344 175.266 174.344 174.844C174.344 173.703 173.453 172.906 172.188 172.906C171.062 172.906 170.328 173.594 170.078 174.812L167.578 185.672H167.484L164.875 175C164.578 173.641 163.688 172.906 162.328 172.906C160.938 172.906 160.047 173.641 159.75 175L157.156 185.672H157.062L154.578 174.844C154.312 173.594 153.578 172.906 152.438 172.906C151.156 172.906 150.234 173.719 150.234 174.859C150.234 175.297 150.312 175.672 150.484 176.266L153.859 187.938C154.344 189.594 155.172 190.328 156.75 190.328Z" fill="black"/>
<path d="M241.451 135.186C242.281 135.186 242.76 134.678 242.76 133.809V125.488H242.838L246.324 134.023C246.568 134.629 246.979 134.912 247.604 134.912C248.219 134.912 248.609 134.639 248.863 134.014L252.35 125.488H252.428V133.809C252.428 134.678 252.906 135.186 253.736 135.186C254.566 135.186 255.055 134.678 255.055 133.809V122.617C255.055 121.416 254.352 120.713 253.16 120.713C252.125 120.713 251.549 121.152 251.119 122.236L247.633 130.898H247.555L244.059 122.236C243.629 121.143 243.062 120.713 242.037 120.713C240.836 120.713 240.133 121.426 240.133 122.617V133.809C240.133 134.678 240.621 135.186 241.451 135.186ZM261.035 135.166C262.344 135.166 263.652 134.512 264.238 133.398H264.297V133.936C264.355 134.775 264.893 135.205 265.664 135.205C266.475 135.205 267.051 134.717 267.051 133.77V127.803C267.051 125.693 265.303 124.307 262.617 124.307C260.449 124.307 258.77 125.078 258.281 126.328C258.184 126.543 258.135 126.748 258.135 126.973C258.135 127.617 258.633 128.066 259.326 128.066C259.785 128.066 260.146 127.891 260.459 127.539C261.094 126.719 261.621 126.436 262.49 126.436C263.564 126.436 264.248 127.002 264.248 127.979V128.672L261.611 128.828C258.994 128.984 257.529 130.088 257.529 131.992C257.529 133.877 259.043 135.166 261.035 135.166ZM261.973 133.105C261.016 133.105 260.371 132.617 260.371 131.836C260.371 131.094 260.977 130.615 262.041 130.537L264.248 130.4V131.162C264.248 132.295 263.223 133.105 261.973 133.105ZM271.322 135.205C272.191 135.205 272.748 134.668 272.748 133.721V129.072C272.748 127.832 273.207 127.1 274.506 127.08C275.062 127.07 275.473 126.943 275.746 126.709C276.02 126.475 276.156 126.133 276.156 125.684C276.156 125.195 276.02 124.844 275.746 124.629C275.541 124.453 275.238 124.365 274.857 124.365C273.812 124.365 272.953 125.137 272.68 126.436H272.621V125.752C272.621 124.844 272.074 124.316 271.273 124.316C270.453 124.316 269.896 124.844 269.896 125.752V133.721C269.896 134.668 270.463 135.205 271.322 135.205ZM278.943 132.324C278.943 134.17 279.91 135.117 281.814 135.117H281.912C283.113 135.117 283.934 134.688 283.934 133.848C283.934 133.184 283.553 132.891 282.85 132.812L282.664 132.793C282.049 132.744 281.795 132.432 281.795 131.689V126.68H282.801C283.475 126.68 283.895 126.26 283.895 125.605C283.895 124.951 283.475 124.531 282.801 124.531H281.795V123.369C281.795 122.451 281.258 121.885 280.369 121.885C279.48 121.885 278.943 122.451 278.943 123.369V124.531H278.396C277.723 124.531 277.293 124.941 277.293 125.605C277.293 126.27 277.723 126.68 278.396 126.68H278.943V132.324ZM290.949 135.225C292.971 135.225 294.592 134.463 295.285 133.174C295.412 132.939 295.48 132.705 295.48 132.48C295.48 131.826 294.982 131.436 294.367 131.436C293.996 131.436 293.742 131.543 293.439 131.855C292.668 132.764 291.984 133.115 290.939 133.115C289.494 133.115 288.557 132.1 288.557 130.547V130.42H294.533C295.324 130.42 295.773 129.971 295.773 129.18C295.773 126.338 293.781 124.307 290.812 124.307C287.717 124.307 285.754 126.445 285.754 129.814C285.754 133.203 287.678 135.225 290.949 135.225ZM288.586 128.672C288.684 127.334 289.592 126.416 290.842 126.416C292.092 126.416 292.971 127.305 293.029 128.672H288.586ZM302.135 135.166C303.746 135.166 304.898 134.326 305.357 133.154H305.406V133.76C305.406 134.717 306.021 135.205 306.842 135.205C307.672 135.205 308.258 134.707 308.258 133.76V122.188C308.258 121.211 307.672 120.693 306.832 120.693C306.002 120.693 305.406 121.211 305.406 122.188V126.328H305.348C304.84 125.166 303.668 124.365 302.154 124.365C299.527 124.365 297.867 126.426 297.867 129.746C297.867 133.096 299.518 135.166 302.135 135.166ZM303.102 132.871C301.666 132.871 300.787 131.689 300.787 129.766C300.787 127.852 301.666 126.65 303.102 126.65C304.518 126.65 305.426 127.861 305.426 129.766C305.426 131.68 304.518 132.871 303.102 132.871ZM312.324 123.389C312.832 123.389 313.213 123.027 313.213 122.568C313.213 122.334 313.154 122.178 313.008 121.963L311.846 120.322C311.475 119.805 311.24 119.658 310.791 119.658C310.205 119.658 309.795 120.039 309.795 120.586C309.795 120.84 309.893 121.074 310.098 121.328L311.396 122.91C311.689 123.262 311.934 123.389 312.324 123.389ZM312.637 135.205C313.516 135.205 314.062 134.648 314.062 133.721V125.811C314.062 124.883 313.516 124.316 312.637 124.316C311.748 124.316 311.211 124.883 311.211 125.811V133.721C311.211 134.648 311.748 135.205 312.637 135.205Z" fill="black"/>
<circle cx="179.833" cy="282.667" r="45.8333" fill="black"/>
<circle cx="243.083" cy="235.917" r="22.9167" fill="black"/>
<circle cx="198.625" cy="218.958" r="11.4583" fill="black"/>
<path d="M180.5 294.805C181.648 294.805 182.398 293.938 182.398 292.789V284.562H190.156C191.305 284.562 192.172 283.812 192.172 282.664C192.172 281.516 191.305 280.766 190.156 280.766H182.398V272.516C182.398 271.367 181.648 270.5 180.5 270.5C179.352 270.5 178.602 271.367 178.602 272.516V280.766H170.82C169.672 280.766 168.805 281.516 168.805 282.664C168.805 283.812 169.672 284.562 170.82 284.562H178.602V292.789C178.602 293.938 179.352 294.805 180.5 294.805Z" fill="white"/>
<circle cx="395.831" cy="276.228" r="25" transform="rotate(-106.749 395.831 276.228)" fill="#636363"/>
<circle cx="361.47" cy="250.54" r="12.5" transform="rotate(-106.749 361.47 250.54)" fill="#636363"/>
<circle cx="359.601" cy="276.427" r="6.25" transform="rotate(-106.749 359.601 276.427)" fill="#636363"/>
<circle cx="8.23274" cy="256.201" r="25" transform="rotate(96.1909 8.23274 256.201)" fill="#636363"/>
<circle cx="29.8636" cy="293.25" r="12.5" transform="rotate(96.1909 29.8636 293.25)" fill="#636363"/>
<circle cx="41.6747" cy="270.139" r="6.25" transform="rotate(96.1909 41.6747 270.139)" fill="#636363"/>
<path d="M334.482 337.73C335.322 337.73 335.908 337.223 335.908 336.246V332.242H335.967C336.523 333.424 337.695 334.166 339.219 334.166C341.836 334.166 343.457 332.135 343.457 328.766C343.457 325.387 341.826 323.365 339.17 323.365C337.656 323.365 336.494 324.127 335.928 325.357H335.869V324.791C335.869 323.824 335.283 323.316 334.463 323.316C333.643 323.316 333.057 323.824 333.057 324.781V336.246C333.057 337.223 333.652 337.73 334.482 337.73ZM338.213 331.871C336.816 331.871 335.898 330.66 335.898 328.766C335.898 326.891 336.816 325.65 338.213 325.65C339.639 325.65 340.537 326.871 340.537 328.766C340.537 330.67 339.639 331.871 338.213 331.871ZM346.357 334.205C347.227 334.205 347.783 333.668 347.783 332.721V328.072C347.783 326.832 348.242 326.1 349.541 326.08C350.098 326.07 350.508 325.943 350.781 325.709C351.055 325.475 351.191 325.133 351.191 324.684C351.191 324.195 351.055 323.844 350.781 323.629C350.576 323.453 350.273 323.365 349.893 323.365C348.848 323.365 347.988 324.137 347.715 325.436H347.656V324.752C347.656 323.844 347.109 323.316 346.309 323.316C345.488 323.316 344.932 323.844 344.932 324.752V332.721C344.932 333.668 345.498 334.205 346.357 334.205ZM356.68 334.225C358.701 334.225 360.322 333.463 361.016 332.174C361.143 331.939 361.211 331.705 361.211 331.48C361.211 330.826 360.713 330.436 360.098 330.436C359.727 330.436 359.473 330.543 359.17 330.855C358.398 331.764 357.715 332.115 356.67 332.115C355.225 332.115 354.287 331.1 354.287 329.547V329.42H360.264C361.055 329.42 361.504 328.971 361.504 328.18C361.504 325.338 359.512 323.307 356.543 323.307C353.447 323.307 351.484 325.445 351.484 328.814C351.484 332.203 353.408 334.225 356.68 334.225ZM354.316 327.672C354.414 326.334 355.322 325.416 356.572 325.416C357.822 325.416 358.701 326.305 358.76 327.672H354.316ZM367.246 334.225C370.01 334.225 371.875 332.877 371.875 330.797C371.875 329.234 370.957 328.414 368.73 327.945L367.002 327.574C365.957 327.35 365.547 326.988 365.547 326.441C365.547 325.768 366.221 325.309 367.188 325.309C368.213 325.309 368.779 325.797 369.277 326.432C369.531 326.734 369.941 326.871 370.312 326.871C371.045 326.871 371.406 326.471 371.406 325.895C371.406 325.758 371.377 325.621 371.338 325.475C370.996 324.293 369.404 323.307 367.236 323.307C364.521 323.307 362.793 324.596 362.793 326.598C362.793 328.15 363.828 329.195 365.879 329.635L367.637 330.006C368.662 330.23 369.023 330.533 369.023 331.1C369.023 331.793 368.35 332.223 367.314 332.223C366.23 332.223 365.586 331.891 365.029 331.158C364.639 330.719 364.248 330.514 363.789 330.514C363.125 330.514 362.637 330.953 362.637 331.607C362.637 331.764 362.676 331.949 362.744 332.135C363.242 333.365 364.844 334.225 367.246 334.225ZM378.105 334.225C380.127 334.225 381.748 333.463 382.441 332.174C382.568 331.939 382.637 331.705 382.637 331.48C382.637 330.826 382.139 330.436 381.523 330.436C381.152 330.436 380.898 330.543 380.596 330.855C379.824 331.764 379.141 332.115 378.096 332.115C376.65 332.115 375.713 331.1 375.713 329.547V329.42H381.689C382.48 329.42 382.93 328.971 382.93 328.18C382.93 325.338 380.938 323.307 377.969 323.307C374.873 323.307 372.91 325.445 372.91 328.814C372.91 332.203 374.834 334.225 378.105 334.225ZM375.742 327.672C375.84 326.334 376.748 325.416 377.998 325.416C379.248 325.416 380.127 326.305 380.186 327.672H375.742ZM385.83 334.205C386.67 334.205 387.256 333.697 387.256 332.721V327.994C387.256 326.637 388.066 325.699 389.346 325.699C390.625 325.699 391.27 326.48 391.27 327.848V332.721C391.27 333.697 391.855 334.205 392.695 334.205C393.525 334.205 394.121 333.697 394.121 332.721V327.252C394.121 324.801 392.812 323.336 390.488 323.336C388.877 323.336 387.822 324.049 387.266 325.348H387.207V324.762C387.207 323.863 386.641 323.316 385.781 323.316C384.922 323.316 384.404 323.863 384.404 324.752V332.721C384.404 333.697 385 334.205 385.83 334.205ZM396.689 331.324C396.689 333.17 397.656 334.117 399.561 334.117H399.658C400.859 334.117 401.68 333.688 401.68 332.848C401.68 332.184 401.299 331.891 400.596 331.812L400.41 331.793C399.795 331.744 399.541 331.432 399.541 330.689V325.68H400.547C401.221 325.68 401.641 325.26 401.641 324.605C401.641 323.951 401.221 323.531 400.547 323.531H399.541V322.369C399.541 321.451 399.004 320.885 398.115 320.885C397.227 320.885 396.689 321.451 396.689 322.369V323.531H396.143C395.469 323.531 395.039 323.941 395.039 324.605C395.039 325.27 395.469 325.68 396.143 325.68H396.689V331.324ZM406.035 334.166C407.344 334.166 408.652 333.512 409.238 332.398H409.297V332.936C409.355 333.775 409.893 334.205 410.664 334.205C411.475 334.205 412.051 333.717 412.051 332.77V326.803C412.051 324.693 410.303 323.307 407.617 323.307C405.449 323.307 403.77 324.078 403.281 325.328C403.184 325.543 403.135 325.748 403.135 325.973C403.135 326.617 403.633 327.066 404.326 327.066C404.785 327.066 405.146 326.891 405.459 326.539C406.094 325.719 406.621 325.436 407.49 325.436C408.564 325.436 409.248 326.002 409.248 326.979V327.672L406.611 327.828C403.994 327.984 402.529 329.088 402.529 330.992C402.529 332.877 404.043 334.166 406.035 334.166ZM406.973 332.105C406.016 332.105 405.371 331.617 405.371 330.836C405.371 330.094 405.977 329.615 407.041 329.537L409.248 329.4V330.162C409.248 331.295 408.223 332.105 406.973 332.105ZM414.658 331.324C414.658 333.17 415.625 334.117 417.529 334.117H417.627C418.828 334.117 419.648 333.688 419.648 332.848C419.648 332.184 419.268 331.891 418.564 331.812L418.379 331.793C417.764 331.744 417.51 331.432 417.51 330.689V325.68H418.516C419.189 325.68 419.609 325.26 419.609 324.605C419.609 323.951 419.189 323.531 418.516 323.531H417.51V322.369C417.51 321.451 416.973 320.885 416.084 320.885C415.195 320.885 414.658 321.451 414.658 322.369V323.531H414.111C413.438 323.531 413.008 323.941 413.008 324.605C413.008 325.27 413.438 325.68 414.111 325.68H414.658V331.324ZM422.48 322.232C423.34 322.232 424.004 321.578 424.004 320.758C424.004 319.928 423.34 319.283 422.48 319.283C421.621 319.283 420.957 319.928 420.957 320.758C420.957 321.578 421.621 322.232 422.48 322.232ZM422.48 334.205C423.359 334.205 423.906 333.648 423.906 332.721V324.811C423.906 323.883 423.359 323.316 422.48 323.316C421.592 323.316 421.055 323.883 421.055 324.811V332.721C421.055 333.648 421.592 334.205 422.48 334.205ZM430.615 334.225C433.779 334.225 435.801 332.203 435.801 328.756C435.801 325.357 433.75 323.307 430.615 323.307C427.48 323.307 425.43 325.367 425.43 328.756C425.43 332.193 427.451 334.225 430.615 334.225ZM430.615 332.047C429.209 332.047 428.32 330.865 428.32 328.766C428.32 326.686 429.229 325.484 430.615 325.484C432.002 325.484 432.9 326.686 432.9 328.766C432.9 330.865 432.012 332.047 430.615 332.047ZM438.701 334.205C439.541 334.205 440.127 333.697 440.127 332.721V327.994C440.127 326.637 440.938 325.699 442.217 325.699C443.496 325.699 444.141 326.48 444.141 327.848V332.721C444.141 333.697 444.727 334.205 445.566 334.205C446.396 334.205 446.992 333.697 446.992 332.721V327.252C446.992 324.801 445.684 323.336 443.359 323.336C441.748 323.336 440.693 324.049 440.137 325.348H440.078V324.762C440.078 323.863 439.512 323.316 438.652 323.316C437.793 323.316 437.275 323.863 437.275 324.752V332.721C437.275 333.697 437.871 334.205 438.701 334.205Z" fill="black"/>
<path d="M-55.5176 337.73C-54.6777 337.73 -54.0918 337.223 -54.0918 336.246V332.242H-54.0332C-53.4766 333.424 -52.3047 334.166 -50.7812 334.166C-48.1641 334.166 -46.543 332.135 -46.543 328.766C-46.543 325.387 -48.1738 323.365 -50.8301 323.365C-52.3438 323.365 -53.5059 324.127 -54.0723 325.357H-54.1309V324.791C-54.1309 323.824 -54.7168 323.316 -55.5371 323.316C-56.3574 323.316 -56.9434 323.824 -56.9434 324.781V336.246C-56.9434 337.223 -56.3477 337.73 -55.5176 337.73ZM-51.7871 331.871C-53.1836 331.871 -54.1016 330.66 -54.1016 328.766C-54.1016 326.891 -53.1836 325.65 -51.7871 325.65C-50.3613 325.65 -49.4629 326.871 -49.4629 328.766C-49.4629 330.67 -50.3613 331.871 -51.7871 331.871ZM-43.6426 334.205C-42.7734 334.205 -42.2168 333.668 -42.2168 332.721V328.072C-42.2168 326.832 -41.7578 326.1 -40.459 326.08C-39.9023 326.07 -39.4922 325.943 -39.2188 325.709C-38.9453 325.475 -38.8086 325.133 -38.8086 324.684C-38.8086 324.195 -38.9453 323.844 -39.2188 323.629C-39.4238 323.453 -39.7266 323.365 -40.1074 323.365C-41.1523 323.365 -42.0117 324.137 -42.2852 325.436H-42.3438V324.752C-42.3438 323.844 -42.8906 323.316 -43.6914 323.316C-44.5117 323.316 -45.0684 323.844 -45.0684 324.752V332.721C-45.0684 333.668 -44.502 334.205 -43.6426 334.205ZM-33.3203 334.225C-31.2988 334.225 -29.6777 333.463 -28.9844 332.174C-28.8574 331.939 -28.7891 331.705 -28.7891 331.48C-28.7891 330.826 -29.2871 330.436 -29.9023 330.436C-30.2734 330.436 -30.5273 330.543 -30.8301 330.855C-31.6016 331.764 -32.2852 332.115 -33.3301 332.115C-34.7754 332.115 -35.7129 331.1 -35.7129 329.547V329.42H-29.7363C-28.9453 329.42 -28.4961 328.971 -28.4961 328.18C-28.4961 325.338 -30.4883 323.307 -33.457 323.307C-36.5527 323.307 -38.5156 325.445 -38.5156 328.814C-38.5156 332.203 -36.5918 334.225 -33.3203 334.225ZM-35.6836 327.672C-35.5859 326.334 -34.6777 325.416 -33.4277 325.416C-32.1777 325.416 -31.2988 326.305 -31.2402 327.672H-35.6836ZM-22.7539 334.225C-19.9902 334.225 -18.125 332.877 -18.125 330.797C-18.125 329.234 -19.043 328.414 -21.2695 327.945L-22.998 327.574C-24.043 327.35 -24.4531 326.988 -24.4531 326.441C-24.4531 325.768 -23.7793 325.309 -22.8125 325.309C-21.7871 325.309 -21.2207 325.797 -20.7227 326.432C-20.4688 326.734 -20.0586 326.871 -19.6875 326.871C-18.9551 326.871 -18.5938 326.471 -18.5938 325.895C-18.5938 325.758 -18.623 325.621 -18.6621 325.475C-19.0039 324.293 -20.5957 323.307 -22.7637 323.307C-25.4785 323.307 -27.207 324.596 -27.207 326.598C-27.207 328.15 -26.1719 329.195 -24.1211 329.635L-22.3633 330.006C-21.3379 330.23 -20.9766 330.533 -20.9766 331.1C-20.9766 331.793 -21.6504 332.223 -22.6855 332.223C-23.7695 332.223 -24.4141 331.891 -24.9707 331.158C-25.3613 330.719 -25.752 330.514 -26.2109 330.514C-26.875 330.514 -27.3633 330.953 -27.3633 331.607C-27.3633 331.764 -27.3242 331.949 -27.2559 332.135C-26.7578 333.365 -25.1562 334.225 -22.7539 334.225ZM-11.8945 334.225C-9.87305 334.225 -8.25195 333.463 -7.55859 332.174C-7.43164 331.939 -7.36328 331.705 -7.36328 331.48C-7.36328 330.826 -7.86133 330.436 -8.47656 330.436C-8.84766 330.436 -9.10156 330.543 -9.4043 330.855C-10.1758 331.764 -10.8594 332.115 -11.9043 332.115C-13.3496 332.115 -14.2871 331.1 -14.2871 329.547V329.42H-8.31055C-7.51953 329.42 -7.07031 328.971 -7.07031 328.18C-7.07031 325.338 -9.0625 323.307 -12.0312 323.307C-15.127 323.307 -17.0898 325.445 -17.0898 328.814C-17.0898 332.203 -15.166 334.225 -11.8945 334.225ZM-14.2578 327.672C-14.1602 326.334 -13.252 325.416 -12.002 325.416C-10.752 325.416 -9.87305 326.305 -9.81445 327.672H-14.2578ZM-4.16992 334.205C-3.33008 334.205 -2.74414 333.697 -2.74414 332.721V327.994C-2.74414 326.637 -1.93359 325.699 -0.654297 325.699C0.625 325.699 1.26953 326.48 1.26953 327.848V332.721C1.26953 333.697 1.85547 334.205 2.69531 334.205C3.52539 334.205 4.12109 333.697 4.12109 332.721V327.252C4.12109 324.801 2.8125 323.336 0.488281 323.336C-1.12305 323.336 -2.17773 324.049 -2.73438 325.348H-2.79297V324.762C-2.79297 323.863 -3.35938 323.316 -4.21875 323.316C-5.07812 323.316 -5.5957 323.863 -5.5957 324.752V332.721C-5.5957 333.697 -5 334.205 -4.16992 334.205ZM6.68945 331.324C6.68945 333.17 7.65625 334.117 9.56055 334.117H9.6582C10.8594 334.117 11.6797 333.688 11.6797 332.848C11.6797 332.184 11.2988 331.891 10.5957 331.812L10.4102 331.793C9.79492 331.744 9.54102 331.432 9.54102 330.689V325.68H10.5469C11.2207 325.68 11.6406 325.26 11.6406 324.605C11.6406 323.951 11.2207 323.531 10.5469 323.531H9.54102V322.369C9.54102 321.451 9.00391 320.885 8.11523 320.885C7.22656 320.885 6.68945 321.451 6.68945 322.369V323.531H6.14258C5.46875 323.531 5.03906 323.941 5.03906 324.605C5.03906 325.27 5.46875 325.68 6.14258 325.68H6.68945V331.324ZM16.0352 334.166C17.3438 334.166 18.6523 333.512 19.2383 332.398H19.2969V332.936C19.3555 333.775 19.8926 334.205 20.6641 334.205C21.4746 334.205 22.0508 333.717 22.0508 332.77V326.803C22.0508 324.693 20.3027 323.307 17.6172 323.307C15.4492 323.307 13.7695 324.078 13.2812 325.328C13.1836 325.543 13.1348 325.748 13.1348 325.973C13.1348 326.617 13.6328 327.066 14.3262 327.066C14.7852 327.066 15.1465 326.891 15.459 326.539C16.0938 325.719 16.6211 325.436 17.4902 325.436C18.5645 325.436 19.248 326.002 19.248 326.979V327.672L16.6113 327.828C13.9941 327.984 12.5293 329.088 12.5293 330.992C12.5293 332.877 14.043 334.166 16.0352 334.166ZM16.9727 332.105C16.0156 332.105 15.3711 331.617 15.3711 330.836C15.3711 330.094 15.9766 329.615 17.041 329.537L19.248 329.4V330.162C19.248 331.295 18.2227 332.105 16.9727 332.105ZM24.6582 331.324C24.6582 333.17 25.625 334.117 27.5293 334.117H27.627C28.8281 334.117 29.6484 333.688 29.6484 332.848C29.6484 332.184 29.2676 331.891 28.5645 331.812L28.3789 331.793C27.7637 331.744 27.5098 331.432 27.5098 330.689V325.68H28.5156C29.1895 325.68 29.6094 325.26 29.6094 324.605C29.6094 323.951 29.1895 323.531 28.5156 323.531H27.5098V322.369C27.5098 321.451 26.9727 320.885 26.084 320.885C25.1953 320.885 24.6582 321.451 24.6582 322.369V323.531H24.1113C23.4375 323.531 23.0078 323.941 23.0078 324.605C23.0078 325.27 23.4375 325.68 24.1113 325.68H24.6582V331.324ZM32.4805 322.232C33.3398 322.232 34.0039 321.578 34.0039 320.758C34.0039 319.928 33.3398 319.283 32.4805 319.283C31.6211 319.283 30.957 319.928 30.957 320.758C30.957 321.578 31.6211 322.232 32.4805 322.232ZM32.4805 334.205C33.3594 334.205 33.9062 333.648 33.9062 332.721V324.811C33.9062 323.883 33.3594 323.316 32.4805 323.316C31.5918 323.316 31.0547 323.883 31.0547 324.811V332.721C31.0547 333.648 31.5918 334.205 32.4805 334.205ZM40.6152 334.225C43.7793 334.225 45.8008 332.203 45.8008 328.756C45.8008 325.357 43.75 323.307 40.6152 323.307C37.4805 323.307 35.4297 325.367 35.4297 328.756C35.4297 332.193 37.4512 334.225 40.6152 334.225ZM40.6152 332.047C39.209 332.047 38.3203 330.865 38.3203 328.766C38.3203 326.686 39.2285 325.484 40.6152 325.484C42.002 325.484 42.9004 326.686 42.9004 328.766C42.9004 330.865 42.0117 332.047 40.6152 332.047ZM48.7012 334.205C49.541 334.205 50.127 333.697 50.127 332.721V327.994C50.127 326.637 50.9375 325.699 52.2168 325.699C53.4961 325.699 54.1406 326.48 54.1406 327.848V332.721C54.1406 333.697 54.7266 334.205 55.5664 334.205C56.3965 334.205 56.9922 333.697 56.9922 332.721V327.252C56.9922 324.801 55.6836 323.336 53.3594 323.336C51.748 323.336 50.6934 324.049 50.1367 325.348H50.0781V324.762C50.0781 323.863 49.5117 323.316 48.6523 323.316C47.793 323.316 47.2754 323.863 47.2754 324.752V332.721C47.2754 333.697 47.8711 334.205 48.7012 334.205Z" fill="black"/>
<path d="M241.722 116.384H257.038C258.533 116.384 259.434 115.441 259.434 114.075C259.434 112.67 258.533 111.766 257.038 111.766H246.61V111.65L252.59 105.877C257.114 101.586 258.763 99.4691 258.763 96.0823C258.763 91.3099 254.814 88 248.948 88C243.715 88 240.246 90.8673 239.307 93.9463C239.173 94.3504 239.096 94.7545 239.096 95.1971C239.096 96.6403 240.016 97.564 241.569 97.564C242.815 97.564 243.485 97.0252 244.137 95.8706C245.134 93.6384 246.667 92.5222 248.891 92.5222C251.364 92.5222 253.127 94.1579 253.127 96.4479C253.127 98.4492 252.245 99.7963 248.833 103.087L240.591 110.996C239.422 112.074 239 112.805 239 113.902C239 115.364 239.901 116.384 241.722 116.384Z" fill="black"/>
<path d="M273.516 117C280.11 117 284.729 113.69 284.729 108.879C284.729 105.223 282.065 102.529 278.289 101.778V101.663C281.528 100.835 283.713 98.4685 283.713 95.4857C283.713 91.1367 279.516 88 273.516 88C267.516 88 263.299 91.1559 263.299 95.4665C263.299 98.4877 265.503 100.855 268.762 101.663V101.778C264.986 102.51 262.302 105.204 262.302 108.86C262.302 113.671 266.903 117 273.516 117ZM273.516 99.9117C270.89 99.9117 269.03 98.3338 269.03 96.063C269.03 93.7731 270.89 92.1951 273.516 92.1951C276.123 92.1951 278.001 93.7731 278.001 96.063C278.001 98.3338 276.123 99.9117 273.516 99.9117ZM273.516 112.766C270.468 112.766 268.34 110.958 268.34 108.437C268.34 105.935 270.468 104.145 273.516 104.145C276.564 104.145 278.672 105.935 278.672 108.437C278.672 110.958 276.564 112.766 273.516 112.766Z" fill="black"/>
<path d="M299.169 116.75C300.99 116.75 302.064 115.634 302.064 113.729V105.454H311.169C312.683 105.454 313.641 104.588 313.641 103.145C313.641 101.721 312.664 100.855 311.169 100.855H302.064V93.4267H312.108C313.68 93.4267 314.734 92.5222 314.734 91.0212C314.734 89.5202 313.699 88.6158 312.108 88.6158H299.169C297.348 88.6158 296.275 89.7319 296.275 91.637V113.729C296.275 115.634 297.348 116.75 299.169 116.75Z" fill="black"/>
<path d="M326.152 116.827C330.12 116.827 333.302 115.326 334.663 112.786C334.912 112.324 335.046 111.862 335.046 111.419C335.046 110.13 334.068 109.36 332.861 109.36C332.132 109.36 331.634 109.572 331.04 110.188C329.525 111.977 328.184 112.67 326.133 112.67C323.296 112.67 321.456 110.669 321.456 107.609V107.359H333.187C334.739 107.359 335.621 106.474 335.621 104.915C335.621 99.3152 331.711 95.3125 325.883 95.3125C319.807 95.3125 315.954 99.5269 315.954 106.166C315.954 112.843 319.73 116.827 326.152 116.827ZM321.513 103.914C321.705 101.278 323.487 99.4691 325.941 99.4691C328.395 99.4691 330.12 101.22 330.235 103.914H321.513Z" fill="black"/>
<path d="M341.327 116.788C342.956 116.788 344.106 115.807 344.106 113.94V112.843H344.221C345.371 115.249 347.652 116.711 350.662 116.711C355.856 116.711 359 112.709 359 106.07C359 99.4114 355.837 95.428 350.643 95.428C347.729 95.428 345.429 96.8905 344.298 99.3344H344.183V91.1367C344.183 89.2123 343.033 88.1924 341.384 88.1924C339.755 88.1924 338.586 89.2123 338.586 91.1367V113.94C338.586 115.826 339.717 116.788 341.327 116.788ZM348.745 112.189C346.023 112.189 344.164 109.803 344.164 106.07C344.164 102.375 346.023 99.931 348.745 99.931C351.524 99.931 353.269 102.317 353.269 106.07C353.269 109.841 351.524 112.189 348.745 112.189Z" fill="black"/>
<path d="M326.875 134.788H331.798C332.278 134.788 332.568 134.463 332.568 133.992C332.568 133.508 332.278 133.196 331.798 133.196H328.446V133.156L330.368 131.167C331.822 129.688 332.352 128.959 332.352 127.792C332.352 126.147 331.083 125.007 329.198 125.007C327.516 125.007 326.4 125.995 326.099 127.056C326.055 127.195 326.031 127.334 326.031 127.487C326.031 127.984 326.327 128.302 326.826 128.302C327.226 128.302 327.442 128.117 327.651 127.719C327.972 126.95 328.464 126.565 329.179 126.565C329.974 126.565 330.541 127.129 330.541 127.918C330.541 128.607 330.257 129.072 329.161 130.206L326.511 132.931C326.136 133.302 326 133.554 326 133.932C326 134.436 326.29 134.788 326.875 134.788Z" fill="black"/>
<path d="M337.039 135C339.294 135 340.662 133.07 340.662 129.98C340.662 126.89 339.282 125 337.039 125C334.797 125 333.41 126.897 333.41 129.987C333.41 133.084 334.784 135 337.039 135ZM337.039 133.395C335.942 133.395 335.302 132.182 335.302 129.987C335.302 127.812 335.955 126.605 337.039 126.605C338.13 126.605 338.77 127.805 338.77 129.987C338.77 132.182 338.136 133.395 337.039 133.395Z" fill="black"/>
<path d="M342.546 134.788H347.468C347.949 134.788 348.239 134.463 348.239 133.992C348.239 133.508 347.949 133.196 347.468 133.196H344.117V133.156L346.039 131.167C347.493 129.688 348.023 128.959 348.023 127.792C348.023 126.147 346.754 125.007 344.868 125.007C343.186 125.007 342.071 125.995 341.769 127.056C341.726 127.195 341.702 127.334 341.702 127.487C341.702 127.984 341.997 128.302 342.496 128.302C342.897 128.302 343.113 128.117 343.322 127.719C343.642 126.95 344.135 126.565 344.85 126.565C345.645 126.565 346.212 127.129 346.212 127.918C346.212 128.607 345.928 129.072 344.831 130.206L342.182 132.931C341.806 133.302 341.671 133.554 341.671 133.932C341.671 134.436 341.96 134.788 342.546 134.788Z" fill="black"/>
<path d="M352.537 135C354.601 135 356 133.846 356 132.109C356 130.789 355.144 129.954 353.819 129.821V129.781C354.866 129.549 355.673 128.753 355.673 127.54C355.673 126.008 354.404 125.007 352.525 125.007C350.954 125.007 349.944 125.789 349.549 126.724C349.457 126.95 349.414 127.142 349.414 127.367C349.414 127.851 349.679 128.176 350.196 128.176C350.615 128.176 350.831 128.011 351.034 127.56C351.324 126.883 351.78 126.545 352.531 126.545C353.431 126.545 353.911 127.056 353.911 127.825C353.911 128.607 353.308 129.151 352.377 129.151H352.014C351.564 129.151 351.305 129.443 351.305 129.861C351.305 130.292 351.564 130.577 352.014 130.577H352.402C353.48 130.577 354.115 131.094 354.109 132.023C354.109 132.818 353.48 133.389 352.568 133.389C351.644 133.389 351.164 132.991 350.849 132.321C350.665 131.956 350.43 131.797 350.061 131.797C349.549 131.797 349.241 132.122 349.241 132.639C349.241 132.838 349.284 133.05 349.383 133.269C349.802 134.211 350.843 135 352.537 135Z" fill="black"/>
<path d="M277.742 561.567C335.548 547.53 367.244 500.86 389 535.579L389 885C347.464 920.456 298.953 876.896 245.107 874.006C177.798 870.393 169.287 914.939 115.341 907.198C61.3959 899.457 61.1519 867.977 33.644 867.977C10.715 867.977 -1 885 -1 885L-1 535.091C22.7559 572.248 110.092 553.678 134.838 553.678C166.049 553.678 205.485 579.114 277.742 561.567Z" fill="black"/>
<path d="M28.7227 599.234C32.8926 599.234 35.5195 596.441 35.5195 591.959C35.5195 587.467 32.8926 584.664 28.7227 584.664C24.543 584.664 21.9258 587.467 21.9258 591.959C21.9258 596.441 24.543 599.234 28.7227 599.234ZM28.7227 596.773C26.4082 596.773 24.9336 594.908 24.9336 591.959C24.9336 589 26.418 587.125 28.7227 587.125C31.0273 587.125 32.502 589 32.502 591.959C32.502 594.908 31.0273 596.773 28.7227 596.773ZM41.8574 602.936C45.2266 602.955 47.1992 601.314 47.1992 598.59V589.762C47.1992 588.795 46.6035 588.316 45.7832 588.316C44.9629 588.316 44.3477 588.795 44.3477 589.762V590.338H44.2891C43.7422 589.156 42.5996 588.365 41.0957 588.365C38.4004 588.365 36.7988 590.309 36.7988 593.59C36.7988 596.783 38.4395 598.775 41.0469 598.775C42.5605 598.775 43.7812 598.023 44.2695 596.9H44.3281V598.57C44.3281 599.879 43.4102 600.738 41.8477 600.729C40.9004 600.719 40.1582 600.318 39.3867 599.586C39.0645 599.293 38.7715 599.176 38.4004 599.176C37.6875 599.176 37.2383 599.625 37.2383 600.221C37.2383 600.484 37.2969 600.748 37.4531 601.012C38.127 602.115 39.7188 602.926 41.8574 602.936ZM42.0137 596.656C40.5977 596.656 39.7188 595.533 39.7188 593.619C39.7188 591.725 40.6074 590.533 42.0137 590.533C43.4395 590.533 44.3574 591.744 44.3574 593.629C44.3574 595.523 43.4395 596.656 42.0137 596.656ZM53.7324 602.936C57.1016 602.955 59.0742 601.314 59.0742 598.59V589.762C59.0742 588.795 58.4785 588.316 57.6582 588.316C56.8379 588.316 56.2227 588.795 56.2227 589.762V590.338H56.1641C55.6172 589.156 54.4746 588.365 52.9707 588.365C50.2754 588.365 48.6738 590.309 48.6738 593.59C48.6738 596.783 50.3145 598.775 52.9219 598.775C54.4355 598.775 55.6562 598.023 56.1445 596.9H56.2031V598.57C56.2031 599.879 55.2852 600.738 53.7227 600.729C52.7754 600.719 52.0332 600.318 51.2617 599.586C50.9395 599.293 50.6465 599.176 50.2754 599.176C49.5625 599.176 49.1133 599.625 49.1133 600.221C49.1133 600.484 49.1719 600.748 49.3281 601.012C50.002 602.115 51.5938 602.926 53.7324 602.936ZM53.8887 596.656C52.4727 596.656 51.5938 595.533 51.5938 593.619C51.5938 591.725 52.4824 590.533 53.8887 590.533C55.3145 590.533 56.2324 591.744 56.2324 593.629C56.2324 595.523 55.3145 596.656 53.8887 596.656ZM62.4043 587.232C63.2637 587.232 63.9277 586.578 63.9277 585.758C63.9277 584.928 63.2637 584.283 62.4043 584.283C61.5449 584.283 60.8809 584.928 60.8809 585.758C60.8809 586.578 61.5449 587.232 62.4043 587.232ZM62.4043 599.205C63.2832 599.205 63.8301 598.648 63.8301 597.721V589.811C63.8301 588.883 63.2832 588.316 62.4043 588.316C61.5156 588.316 60.9785 588.883 60.9785 589.811V597.721C60.9785 598.648 61.5156 599.205 62.4043 599.205Z" fill="white"/>
<path d="M335.022 591.103C335.53 591.103 335.813 590.873 335.935 590.355L336.726 587.299H336.755L337.551 590.346C337.673 590.878 337.952 591.103 338.474 591.103C338.967 591.103 339.241 590.868 339.387 590.351L340.442 586.698C340.496 586.513 340.52 586.396 340.52 586.264C340.52 585.907 340.242 585.658 339.846 585.658C339.495 585.658 339.265 585.873 339.187 586.254L338.406 589.647H338.376L337.561 586.312C337.468 585.888 337.19 585.658 336.765 585.658C336.331 585.658 336.052 585.888 335.959 586.312L335.149 589.647H335.12L334.343 586.264C334.26 585.873 334.031 585.658 333.674 585.658C333.274 585.658 332.986 585.912 332.986 586.269C332.986 586.405 333.01 586.522 333.064 586.708L334.119 590.355C334.27 590.873 334.529 591.103 335.022 591.103ZM343.409 591.112C344.991 591.112 346.002 590.102 346.002 588.378C346.002 586.679 344.976 585.653 343.409 585.653C341.841 585.653 340.816 586.684 340.816 588.378C340.816 590.097 341.827 591.112 343.409 591.112ZM343.409 590.023C342.706 590.023 342.261 589.433 342.261 588.383C342.261 587.343 342.715 586.742 343.409 586.742C344.102 586.742 344.551 587.343 344.551 588.383C344.551 589.433 344.107 590.023 343.409 590.023ZM347.372 591.103C347.806 591.103 348.085 590.834 348.085 590.36V588.036C348.085 587.416 348.314 587.05 348.964 587.04C349.242 587.035 349.447 586.972 349.584 586.854C349.72 586.737 349.789 586.566 349.789 586.342C349.789 586.098 349.72 585.922 349.584 585.814C349.481 585.727 349.33 585.683 349.139 585.683C348.617 585.683 348.187 586.068 348.05 586.718H348.021V586.376C348.021 585.922 347.748 585.658 347.347 585.658C346.937 585.658 346.659 585.922 346.659 586.376V590.36C346.659 590.834 346.942 591.103 347.372 591.103ZM350.969 591.103C351.388 591.103 351.681 590.849 351.681 590.36V589.301L352.136 588.881L353.478 590.658C353.703 590.995 353.874 591.103 354.177 591.103C354.577 591.103 354.855 590.839 354.855 590.458C354.855 590.272 354.811 590.146 354.655 589.936L353.195 588.075L354.528 586.815C354.733 586.625 354.797 586.493 354.797 586.278C354.797 585.927 354.528 585.658 354.162 585.658C353.947 585.658 353.786 585.741 353.595 585.941L351.701 587.841H351.681V584.594C351.681 584.105 351.388 583.847 350.969 583.847C350.553 583.847 350.256 584.105 350.256 584.594V590.36C350.256 590.849 350.553 591.103 350.969 591.103ZM356.26 585.116C356.689 585.116 357.021 584.789 357.021 584.379C357.021 583.964 356.689 583.642 356.26 583.642C355.83 583.642 355.498 583.964 355.498 584.379C355.498 584.789 355.83 585.116 356.26 585.116ZM356.26 591.103C356.699 591.103 356.972 590.824 356.972 590.36V586.405C356.972 585.941 356.699 585.658 356.26 585.658C355.815 585.658 355.547 585.941 355.547 586.405V590.36C355.547 590.824 355.815 591.103 356.26 591.103ZM358.558 591.103C358.977 591.103 359.27 590.849 359.27 590.36V587.997C359.27 587.318 359.676 586.85 360.315 586.85C360.955 586.85 361.277 587.24 361.277 587.924V590.36C361.277 590.849 361.57 591.103 361.99 591.103C362.405 591.103 362.703 590.849 362.703 590.36V587.626C362.703 586.4 362.049 585.668 360.887 585.668C360.081 585.668 359.554 586.024 359.275 586.674H359.246V586.381C359.246 585.932 358.963 585.658 358.533 585.658C358.103 585.658 357.845 585.932 357.845 586.376V590.36C357.845 590.849 358.142 591.103 358.558 591.103ZM365.865 592.968C367.55 592.978 368.536 592.157 368.536 590.795V586.381C368.536 585.897 368.238 585.658 367.828 585.658C367.418 585.658 367.11 585.897 367.11 586.381V586.669H367.081C366.808 586.078 366.236 585.683 365.484 585.683C364.137 585.683 363.336 586.654 363.336 588.295C363.336 589.892 364.156 590.888 365.46 590.888C366.217 590.888 366.827 590.512 367.071 589.95H367.101V590.785C367.101 591.439 366.642 591.869 365.86 591.864C365.387 591.859 365.016 591.659 364.63 591.293C364.469 591.146 364.322 591.088 364.137 591.088C363.78 591.088 363.556 591.312 363.556 591.61C363.556 591.742 363.585 591.874 363.663 592.006C364 592.558 364.796 592.963 365.865 592.968ZM365.943 589.828C365.235 589.828 364.796 589.267 364.796 588.31C364.796 587.362 365.24 586.767 365.943 586.767C366.656 586.767 367.115 587.372 367.115 588.314C367.115 589.262 366.656 589.828 365.943 589.828ZM344.388 601.103C344.808 601.103 345.101 600.849 345.101 600.36V598.012C345.101 597.323 345.497 596.85 346.171 596.85C346.82 596.85 347.152 597.26 347.152 597.934V600.36C347.152 600.849 347.45 601.103 347.865 601.103C348.285 601.103 348.578 600.849 348.578 600.36V597.631C348.578 596.42 347.914 595.668 346.752 595.668C345.956 595.668 345.384 596.039 345.106 596.698H345.077V594.579C345.077 594.12 344.818 593.847 344.379 593.847C343.939 593.847 343.675 594.12 343.675 594.579V600.36C343.675 600.849 343.973 601.103 344.388 601.103ZM351.813 601.112C353.395 601.112 354.406 600.102 354.406 598.378C354.406 596.679 353.381 595.653 351.813 595.653C350.246 595.653 349.22 596.684 349.22 598.378C349.22 600.097 350.231 601.112 351.813 601.112ZM351.813 600.023C351.11 600.023 350.666 599.433 350.666 598.383C350.666 597.343 351.12 596.742 351.813 596.742C352.507 596.742 352.956 597.343 352.956 598.383C352.956 599.433 352.511 600.023 351.813 600.023ZM356.924 601.098C357.715 601.098 358.232 600.717 358.491 600.058H358.52V600.38C358.52 600.854 358.799 601.103 359.209 601.103C359.619 601.103 359.897 600.854 359.897 600.38V596.405C359.897 595.917 359.604 595.658 359.184 595.658C358.769 595.658 358.472 595.917 358.472 596.405V598.764C358.472 599.457 358.076 599.911 357.441 599.911C356.811 599.911 356.465 599.54 356.465 598.842V596.405C356.465 595.917 356.172 595.658 355.752 595.658C355.337 595.658 355.039 595.917 355.039 596.405V599.14C355.039 600.36 355.791 601.098 356.924 601.098ZM361.458 601.103C361.892 601.103 362.171 600.834 362.171 600.36V598.036C362.171 597.416 362.4 597.05 363.05 597.04C363.328 597.035 363.533 596.972 363.67 596.854C363.807 596.737 363.875 596.566 363.875 596.342C363.875 596.098 363.807 595.922 363.67 595.814C363.567 595.727 363.416 595.683 363.226 595.683C362.703 595.683 362.273 596.068 362.137 596.718H362.107V596.376C362.107 595.922 361.834 595.658 361.434 595.658C361.023 595.658 360.745 595.922 360.745 596.376V600.36C360.745 600.834 361.028 601.103 361.458 601.103ZM366.441 601.112C367.823 601.112 368.756 600.438 368.756 599.398C368.756 598.617 368.297 598.207 367.184 597.973L366.319 597.787C365.797 597.675 365.592 597.494 365.592 597.221C365.592 596.884 365.929 596.654 366.412 596.654C366.925 596.654 367.208 596.898 367.457 597.216C367.584 597.367 367.789 597.436 367.975 597.436C368.341 597.436 368.521 597.235 368.521 596.947C368.521 596.879 368.507 596.811 368.487 596.737C368.316 596.146 367.521 595.653 366.437 595.653C365.079 595.653 364.215 596.298 364.215 597.299C364.215 598.075 364.732 598.598 365.758 598.817L366.637 599.003C367.149 599.115 367.33 599.267 367.33 599.55C367.33 599.896 366.993 600.111 366.476 600.111C365.934 600.111 365.611 599.945 365.333 599.579C365.138 599.359 364.942 599.257 364.713 599.257C364.381 599.257 364.137 599.477 364.137 599.804C364.137 599.882 364.156 599.975 364.19 600.067C364.439 600.683 365.24 601.112 366.441 601.112Z" fill="white"/>
<path d="M359.273 575.41C360.895 575.41 362.086 574.414 362.086 572.539V569.824H363.688C365.23 569.824 366.109 568.867 366.109 567.48C366.109 566.094 365.25 565.117 363.688 565.117H362.086V550.645C362.086 548.008 360.211 546.387 357.223 546.387C354.84 546.387 353.414 547.363 351.461 550.352C348.395 554.902 345.582 559.199 343.648 562.676C342.77 564.219 342.418 565.312 342.418 566.523C342.418 568.496 343.844 569.824 345.973 569.824H356.48V572.539C356.48 574.414 357.652 575.41 359.273 575.41ZM356.598 565.273H347.574V565.117C349.859 560.859 352.457 556.895 356.48 551.094H356.598V565.273Z" fill="white"/>
<g filter="url(#filter0_b_366_20155)">
<rect y="1" width="390" height="843" fill="white" fill-opacity="0.5"/>
</g>
<path d="M63.9375 447.166C64.7285 447.166 65.1973 446.688 65.1973 445.857V435.037H68.4199C69.1035 435.037 69.5723 434.627 69.5723 433.973C69.5723 433.318 69.1133 432.908 68.4199 432.908H59.4648C58.7715 432.908 58.3125 433.318 58.3125 433.973C58.3125 434.627 58.7812 435.037 59.4648 435.037H62.6875V445.857C62.6875 446.688 63.1562 447.166 63.9375 447.166ZM71.6914 435.193C72.4531 435.193 73.0488 434.607 73.0488 433.875C73.0488 433.133 72.4531 432.557 71.6914 432.557C70.9395 432.557 70.3438 433.133 70.3438 433.875C70.3438 434.607 70.9395 435.193 71.6914 435.193ZM71.6914 447.195C72.4336 447.195 72.9121 446.707 72.9121 445.916V437.732C72.9121 436.941 72.4336 436.443 71.6914 436.443C70.9492 436.443 70.4805 436.941 70.4805 437.723V445.916C70.4805 446.707 70.9492 447.195 71.6914 447.195ZM76.1641 447.195C76.8867 447.195 77.3848 446.727 77.3848 445.916V440.662C77.3848 439.412 78.2051 438.504 79.377 438.504C80.5098 438.504 81.2129 439.217 81.2129 440.369V445.916C81.2129 446.727 81.6621 447.195 82.3945 447.195C83.1172 447.195 83.5762 446.727 83.5762 445.916V440.604C83.5762 439.363 84.377 438.504 85.5488 438.504C86.7402 438.504 87.4043 439.227 87.4043 440.496V445.916C87.4043 446.727 87.8926 447.195 88.625 447.195C89.3477 447.195 89.8359 446.727 89.8359 445.916V439.9C89.8359 437.83 88.498 436.453 86.457 436.453C84.9629 436.453 83.7324 437.254 83.2344 438.533H83.1758C82.7949 437.205 81.75 436.453 80.2852 436.453C78.8789 436.453 77.7852 437.244 77.3359 438.445H77.2871V437.684C77.2871 436.893 76.7988 436.443 76.1152 436.443C75.4316 436.443 74.9531 436.893 74.9531 437.684V445.916C74.9531 446.727 75.4316 447.195 76.1641 447.195ZM96.3887 447.205C98.3613 447.205 99.9043 446.434 100.588 445.115C100.695 444.9 100.754 444.686 100.754 444.5C100.754 443.914 100.324 443.562 99.7773 443.562C99.4355 443.562 99.2109 443.67 98.957 443.953C98.1758 444.949 97.4629 445.33 96.3691 445.33C94.7871 445.33 93.7812 444.217 93.7812 442.488V442.41H99.8848C100.607 442.41 101.018 441.98 101.018 441.258C101.018 438.445 99.084 436.434 96.252 436.434C93.2637 436.434 91.3594 438.562 91.3594 441.863C91.3594 445.223 93.2246 447.205 96.3887 447.205ZM93.8008 440.809C93.8984 439.324 94.8945 438.318 96.2617 438.318C97.6289 438.318 98.5859 439.305 98.6348 440.809H93.8008ZM108.098 447H111.984C116.203 447 118.684 444.383 118.684 439.92C118.684 435.457 116.193 432.908 111.984 432.908H108.098C107.316 432.908 106.838 433.396 106.838 434.217V445.691C106.838 446.512 107.316 447 108.098 447ZM109.357 444.871V435.037H111.721C114.533 435.037 116.115 436.775 116.115 439.93C116.115 443.143 114.553 444.871 111.721 444.871H109.357ZM121.652 447.195C122.385 447.195 122.873 446.717 122.873 445.916V440.936C122.873 439.676 123.4 438.807 124.787 438.797C125.266 438.787 125.627 438.68 125.861 438.475C126.105 438.279 126.223 437.996 126.223 437.615C126.223 437.215 126.105 436.922 125.881 436.736C125.695 436.57 125.402 436.473 125.021 436.473C123.986 436.473 123.088 437.254 122.805 438.465H122.756V437.674C122.756 436.912 122.277 436.443 121.604 436.443C120.91 436.443 120.441 436.912 120.441 437.674V445.916C120.441 446.717 120.92 447.195 121.652 447.195ZM131.506 447.205C134.543 447.205 136.516 445.184 136.516 441.824C136.516 438.475 134.523 436.434 131.506 436.434C128.488 436.434 126.496 438.484 126.496 441.824C126.496 445.184 128.469 447.205 131.506 447.205ZM131.506 445.281C129.963 445.281 128.967 444.031 128.967 441.824C128.967 439.627 129.973 438.367 131.506 438.367C133.049 438.367 134.045 439.627 134.045 441.824C134.045 444.031 133.049 445.281 131.506 445.281ZM139.289 450.682C140.002 450.682 140.51 450.223 140.51 449.402V445.281H140.559C141.125 446.443 142.297 447.166 143.801 447.166C146.398 447.166 148.059 445.125 148.059 441.824C148.059 438.514 146.389 436.473 143.762 436.473C142.258 436.473 141.086 437.234 140.5 438.436H140.451V437.693C140.451 436.893 139.953 436.443 139.26 436.443C138.566 436.443 138.078 436.893 138.078 437.693V449.402C138.078 450.223 138.576 450.682 139.289 450.682ZM143.02 445.174C141.506 445.174 140.5 443.855 140.49 441.824C140.5 439.812 141.506 438.475 143.02 438.475C144.592 438.475 145.568 439.783 145.568 441.824C145.568 443.875 144.592 445.174 143.02 445.174ZM153.615 447.205C156.252 447.205 158.029 445.906 158.029 443.924C158.029 442.391 157.16 441.6 154.973 441.102L153.322 440.74C152.248 440.496 151.799 440.086 151.799 439.48C151.799 438.738 152.531 438.221 153.596 438.221C154.621 438.221 155.217 438.67 155.695 439.383C155.92 439.705 156.271 439.832 156.623 439.832C157.238 439.832 157.561 439.471 157.561 438.963C157.561 438.846 157.541 438.729 157.512 438.602C157.189 437.41 155.646 436.434 153.654 436.434C151.096 436.434 149.436 437.693 149.436 439.617C149.436 441.121 150.432 442.117 152.453 442.576L154.133 442.957C155.197 443.201 155.588 443.543 155.588 444.168C155.588 444.949 154.836 445.428 153.703 445.428C152.541 445.428 151.916 445.076 151.369 444.285C151.057 443.875 150.715 443.689 150.314 443.689C149.729 443.689 149.299 444.061 149.299 444.646C149.299 444.793 149.328 444.949 149.396 445.125C149.895 446.365 151.428 447.205 153.615 447.205ZM164.318 444.656C164.318 446.277 165.139 447.078 166.779 447.078H166.887C167.834 447.078 168.127 446.805 168.127 446.287C168.127 445.887 167.873 445.662 167.316 445.623L167.17 445.613C166.32 445.555 166.018 445.145 166.018 444.285V438.24H167.326C167.814 438.24 168.088 437.986 168.088 437.537C168.088 437.098 167.814 436.844 167.326 436.844H166.018V435.105C166.018 434.568 165.666 434.197 165.168 434.197C164.67 434.197 164.318 434.568 164.318 435.105V436.844H163.469C162.98 436.844 162.707 437.098 162.707 437.537C162.707 437.986 162.98 438.24 163.469 438.24H164.318V444.656ZM170.744 435.135C171.33 435.135 171.809 434.656 171.809 434.08C171.809 433.494 171.33 433.025 170.744 433.025C170.168 433.025 169.689 433.494 169.689 434.08C169.689 434.656 170.168 435.135 170.744 435.135ZM170.744 447.176C171.242 447.176 171.594 446.805 171.594 446.268V437.576C171.594 437.039 171.242 436.668 170.744 436.668C170.246 436.668 169.895 437.039 169.895 437.576V446.268C169.895 446.805 170.246 447.176 170.744 447.176ZM180.949 447.176C182.316 447.176 183.615 446.414 184.221 445.252H184.26V446.316C184.26 446.824 184.592 447.176 185.07 447.176C185.539 447.176 185.871 446.824 185.871 446.316V439.979C185.871 437.957 184.367 436.668 181.984 436.668C180.334 436.668 178.85 437.4 178.273 438.514C178.137 438.758 178.068 439.002 178.068 439.217C178.068 439.676 178.381 439.979 178.82 439.979C179.143 439.979 179.367 439.852 179.523 439.568C180.09 438.562 180.842 438.162 181.945 438.162C183.352 438.162 184.172 438.904 184.172 440.145V440.994L181.252 441.16C178.908 441.297 177.57 442.391 177.57 444.129C177.57 445.955 178.928 447.176 180.949 447.176ZM181.33 445.73C180.109 445.73 179.299 445.096 179.299 444.129C179.299 443.172 180.08 442.566 181.447 442.479L184.172 442.312V443.143C184.172 444.607 182.932 445.73 181.33 445.73ZM188.967 435.135C189.553 435.135 190.031 434.656 190.031 434.08C190.031 433.494 189.553 433.025 188.967 433.025C188.391 433.025 187.912 433.494 187.912 434.08C187.912 434.656 188.391 435.135 188.967 435.135ZM188.967 447.176C189.465 447.176 189.816 446.805 189.816 446.268V437.576C189.816 437.039 189.465 436.668 188.967 436.668C188.469 436.668 188.117 437.039 188.117 437.576V446.268C188.117 446.805 188.469 447.176 188.967 447.176ZM195.578 447.176C197.141 447.176 198.195 446.521 198.801 445.35H198.84V446.316C198.84 446.805 199.162 447.176 199.65 447.176C200.139 447.176 200.451 446.805 200.451 446.316V437.576C200.451 437.039 200.1 436.668 199.602 436.668C199.104 436.668 198.752 437.039 198.752 437.576V442.811C198.752 444.539 197.756 445.672 196.105 445.672C194.533 445.672 193.762 444.783 193.762 443.133V437.576C193.762 437.039 193.41 436.668 192.912 436.668C192.414 436.668 192.062 437.039 192.062 437.576V443.436C192.062 445.74 193.361 447.176 195.578 447.176ZM203.205 444.656C203.205 446.277 204.025 447.078 205.666 447.078H205.773C206.721 447.078 207.014 446.805 207.014 446.287C207.014 445.887 206.76 445.662 206.203 445.623L206.057 445.613C205.207 445.555 204.904 445.145 204.904 444.285V438.24H206.213C206.701 438.24 206.975 437.986 206.975 437.537C206.975 437.098 206.701 436.844 206.213 436.844H204.904V435.105C204.904 434.568 204.553 434.197 204.055 434.197C203.557 434.197 203.205 434.568 203.205 435.105V436.844H202.355C201.867 436.844 201.594 437.098 201.594 437.537C201.594 437.986 201.867 438.24 202.355 438.24H203.205V444.656ZM212.658 447.176C214.514 447.176 215.939 446.395 216.594 445.018C216.672 444.832 216.721 444.656 216.721 444.52C216.721 444.07 216.418 443.777 215.969 443.777C215.705 443.777 215.51 443.875 215.334 444.119C214.543 445.271 213.801 445.701 212.59 445.701C210.773 445.701 209.65 444.432 209.65 442.381H215.998C216.584 442.381 216.936 442.01 216.936 441.395C216.936 438.611 215.109 436.668 212.512 436.668C209.709 436.668 207.902 438.758 207.902 441.961C207.902 445.242 209.66 447.176 212.658 447.176ZM209.66 441.053C209.768 439.305 210.9 438.143 212.482 438.143C214.055 438.143 215.139 439.295 215.178 441.053H209.66ZM219.504 447.176C220.002 447.176 220.354 446.805 220.354 446.268V440.691C220.354 439.393 221.008 438.289 222.541 438.289C222.912 438.289 223.176 438.221 223.352 438.074C223.527 437.938 223.615 437.742 223.615 437.479C223.615 437.244 223.547 437.049 223.4 436.912C223.234 436.756 222.971 436.668 222.6 436.668C221.584 436.668 220.588 437.449 220.295 438.504H220.256V437.527C220.256 437.02 219.924 436.668 219.455 436.668C218.986 436.668 218.654 437.02 218.654 437.527V446.268C218.654 446.805 219.006 447.176 219.504 447.176ZM228.195 435.643C228.537 435.643 228.781 435.418 228.781 435.115C228.781 434.949 228.742 434.832 228.635 434.676L227.18 432.596C226.906 432.205 226.74 432.098 226.428 432.098C226.018 432.098 225.725 432.361 225.725 432.742C225.725 432.947 225.783 433.104 225.92 433.27L227.6 435.32C227.795 435.564 227.941 435.643 228.195 435.643ZM227.59 447.176C228.957 447.176 230.256 446.414 230.861 445.252H230.9V446.316C230.9 446.824 231.232 447.176 231.711 447.176C232.18 447.176 232.512 446.824 232.512 446.316V439.979C232.512 437.957 231.008 436.668 228.625 436.668C226.975 436.668 225.49 437.4 224.914 438.514C224.777 438.758 224.709 439.002 224.709 439.217C224.709 439.676 225.021 439.979 225.461 439.979C225.783 439.979 226.008 439.852 226.164 439.568C226.73 438.562 227.482 438.162 228.586 438.162C229.992 438.162 230.812 438.904 230.812 440.145V440.994L227.893 441.16C225.549 441.297 224.211 442.391 224.211 444.129C224.211 445.955 225.568 447.176 227.59 447.176ZM227.971 445.73C226.75 445.73 225.939 445.096 225.939 444.129C225.939 443.172 226.721 442.566 228.088 442.479L230.812 442.312V443.143C230.812 444.607 229.572 445.73 227.971 445.73ZM241.73 447.176C243.098 447.176 244.396 446.414 245.002 445.252H245.041V446.316C245.041 446.824 245.373 447.176 245.852 447.176C246.32 447.176 246.652 446.824 246.652 446.316V439.979C246.652 437.957 245.148 436.668 242.766 436.668C241.115 436.668 239.631 437.4 239.055 438.514C238.918 438.758 238.85 439.002 238.85 439.217C238.85 439.676 239.162 439.979 239.602 439.979C239.924 439.979 240.148 439.852 240.305 439.568C240.871 438.562 241.623 438.162 242.727 438.162C244.133 438.162 244.953 438.904 244.953 440.145V440.994L242.033 441.16C239.689 441.297 238.352 442.391 238.352 444.129C238.352 445.955 239.709 447.176 241.73 447.176ZM242.111 445.73C240.891 445.73 240.08 445.096 240.08 444.129C240.08 443.172 240.861 442.566 242.229 442.479L244.953 442.312V443.143C244.953 444.607 243.713 445.73 242.111 445.73ZM256.633 447.176C257.18 447.176 257.541 446.902 257.766 446.316L260.988 437.889C261.047 437.742 261.076 437.596 261.076 437.449C261.076 436.98 260.744 436.668 260.236 436.668C259.865 436.668 259.611 436.873 259.455 437.312L256.662 445.193H256.623L253.84 437.312C253.684 436.873 253.43 436.668 253.049 436.668C252.541 436.668 252.199 436.98 252.199 437.449C252.199 437.596 252.229 437.742 252.287 437.889L255.52 446.316C255.764 446.932 256.076 447.176 256.633 447.176ZM263.518 435.135C264.104 435.135 264.582 434.656 264.582 434.08C264.582 433.494 264.104 433.025 263.518 433.025C262.941 433.025 262.463 433.494 262.463 434.08C262.463 434.656 262.941 435.135 263.518 435.135ZM263.518 447.176C264.016 447.176 264.367 446.805 264.367 446.268V437.576C264.367 437.039 264.016 436.668 263.518 436.668C263.02 436.668 262.668 437.039 262.668 437.576V446.268C262.668 446.805 263.02 447.176 263.518 447.176ZM270.188 447.176C272.6 447.176 274.23 445.955 274.23 444.139C274.23 442.645 273.449 441.902 271.33 441.385L269.816 441.014C268.703 440.74 268.156 440.252 268.156 439.549C268.156 438.68 269.006 438.064 270.227 438.064C271.262 438.064 271.916 438.436 272.355 439.285C272.541 439.637 272.775 439.744 273.107 439.744C273.518 439.744 273.771 439.48 273.771 439.08C273.771 439.002 273.762 438.924 273.742 438.826C273.479 437.605 271.994 436.668 270.324 436.668C268.029 436.668 266.477 437.869 266.477 439.637C266.477 441.062 267.424 441.99 269.387 442.479L270.939 442.869C272.082 443.152 272.502 443.543 272.502 444.275C272.502 445.223 271.623 445.789 270.324 445.789C269.025 445.789 268.42 445.389 267.912 444.5C267.717 444.148 267.473 443.992 267.17 443.992C266.73 443.992 266.398 444.246 266.398 444.695C266.398 444.822 266.418 444.949 266.477 445.096C266.965 446.365 268.381 447.176 270.188 447.176ZM279.445 447.176C281.008 447.176 282.062 446.521 282.668 445.35H282.707V446.316C282.707 446.805 283.029 447.176 283.518 447.176C284.006 447.176 284.318 446.805 284.318 446.316V437.576C284.318 437.039 283.967 436.668 283.469 436.668C282.971 436.668 282.619 437.039 282.619 437.576V442.811C282.619 444.539 281.623 445.672 279.973 445.672C278.4 445.672 277.629 444.783 277.629 443.133V437.576C277.629 437.039 277.277 436.668 276.779 436.668C276.281 436.668 275.93 437.039 275.93 437.576V443.436C275.93 445.74 277.229 447.176 279.445 447.176ZM289.484 447.176C290.852 447.176 292.15 446.414 292.756 445.252H292.795V446.316C292.795 446.824 293.127 447.176 293.605 447.176C294.074 447.176 294.406 446.824 294.406 446.316V439.979C294.406 437.957 292.902 436.668 290.52 436.668C288.869 436.668 287.385 437.4 286.809 438.514C286.672 438.758 286.604 439.002 286.604 439.217C286.604 439.676 286.916 439.979 287.355 439.979C287.678 439.979 287.902 439.852 288.059 439.568C288.625 438.562 289.377 438.162 290.48 438.162C291.887 438.162 292.707 438.904 292.707 440.145V440.994L289.787 441.16C287.443 441.297 286.105 442.391 286.105 444.129C286.105 445.955 287.463 447.176 289.484 447.176ZM289.865 445.73C288.645 445.73 287.834 445.096 287.834 444.129C287.834 443.172 288.615 442.566 289.982 442.479L292.707 442.312V443.143C292.707 444.607 291.467 445.73 289.865 445.73ZM297.502 447.176C298 447.176 298.352 446.805 298.352 446.268V433.641C298.352 433.104 298 432.732 297.502 432.732C297.004 432.732 296.652 433.104 296.652 433.641V446.268C296.652 446.805 297.004 447.176 297.502 447.176ZM301.584 435.135C302.17 435.135 302.648 434.656 302.648 434.08C302.648 433.494 302.17 433.025 301.584 433.025C301.008 433.025 300.529 433.494 300.529 434.08C300.529 434.656 301.008 435.135 301.584 435.135ZM301.584 447.176C302.082 447.176 302.434 446.805 302.434 446.268V437.576C302.434 437.039 302.082 436.668 301.584 436.668C301.086 436.668 300.734 437.039 300.734 437.576V446.268C300.734 446.805 301.086 447.176 301.584 447.176ZM305.412 447H311.438C311.926 447 312.199 446.746 312.199 446.297C312.199 445.857 311.926 445.604 311.438 445.604H306.477V445.574L311.682 438.621C311.975 438.23 312.082 438.006 312.082 437.713C312.082 437.166 311.711 436.844 311.066 436.844H305.188C304.699 436.844 304.426 437.098 304.426 437.537C304.426 437.986 304.699 438.24 305.188 438.24H310.139V438.27L304.787 445.408C304.572 445.691 304.504 445.867 304.504 446.16C304.504 446.668 304.865 447 305.412 447ZM314.768 447H320.793C321.281 447 321.555 446.746 321.555 446.297C321.555 445.857 321.281 445.604 320.793 445.604H315.832V445.574L321.037 438.621C321.33 438.23 321.438 438.006 321.438 437.713C321.438 437.166 321.066 436.844 320.422 436.844H314.543C314.055 436.844 313.781 437.098 313.781 437.537C313.781 437.986 314.055 438.24 314.543 438.24H319.494V438.27L314.143 445.408C313.928 445.691 313.859 445.867 313.859 446.16C313.859 446.668 314.221 447 314.768 447ZM326.398 447.176C327.766 447.176 329.064 446.414 329.67 445.252H329.709V446.316C329.709 446.824 330.041 447.176 330.52 447.176C330.988 447.176 331.32 446.824 331.32 446.316V439.979C331.32 437.957 329.816 436.668 327.434 436.668C325.783 436.668 324.299 437.4 323.723 438.514C323.586 438.758 323.518 439.002 323.518 439.217C323.518 439.676 323.83 439.979 324.27 439.979C324.592 439.979 324.816 439.852 324.973 439.568C325.539 438.562 326.291 438.162 327.395 438.162C328.801 438.162 329.621 438.904 329.621 440.145V440.994L326.701 441.16C324.357 441.297 323.02 442.391 323.02 444.129C323.02 445.955 324.377 447.176 326.398 447.176ZM326.779 445.73C325.559 445.73 324.748 445.096 324.748 444.129C324.748 443.172 325.529 442.566 326.896 442.479L329.621 442.312V443.143C329.621 444.607 328.381 445.73 326.779 445.73ZM334.328 447.176C334.826 447.176 335.178 446.805 335.178 446.268V440.691C335.178 439.393 335.832 438.289 337.365 438.289C337.736 438.289 338 438.221 338.176 438.074C338.352 437.938 338.439 437.742 338.439 437.479C338.439 437.244 338.371 437.049 338.225 436.912C338.059 436.756 337.795 436.668 337.424 436.668C336.408 436.668 335.412 437.449 335.119 438.504H335.08V437.527C335.08 437.02 334.748 436.668 334.279 436.668C333.811 436.668 333.479 437.02 333.479 437.527V446.268C333.479 446.805 333.83 447.176 334.328 447.176ZM343.42 447.176C345.275 447.176 346.701 446.395 347.355 445.018C347.434 444.832 347.482 444.656 347.482 444.52C347.482 444.07 347.18 443.777 346.73 443.777C346.467 443.777 346.271 443.875 346.096 444.119C345.305 445.271 344.562 445.701 343.352 445.701C341.535 445.701 340.412 444.432 340.412 442.381H346.76C347.346 442.381 347.697 442.01 347.697 441.395C347.697 438.611 345.871 436.668 343.273 436.668C340.471 436.668 338.664 438.758 338.664 441.961C338.664 445.242 340.422 447.176 343.42 447.176ZM340.422 441.053C340.529 439.305 341.662 438.143 343.244 438.143C344.816 438.143 345.9 439.295 345.939 441.053H340.422ZM63.3613 471.176C65.2168 471.176 66.6426 470.395 67.2969 469.018C67.375 468.832 67.4238 468.656 67.4238 468.52C67.4238 468.07 67.1211 467.777 66.6719 467.777C66.4082 467.777 66.2129 467.875 66.0371 468.119C65.2461 469.271 64.5039 469.701 63.293 469.701C61.4766 469.701 60.3535 468.432 60.3535 466.381H66.7012C67.2871 466.381 67.6387 466.01 67.6387 465.395C67.6387 462.611 65.8125 460.668 63.2148 460.668C60.4121 460.668 58.6055 462.758 58.6055 465.961C58.6055 469.242 60.3633 471.176 63.3613 471.176ZM60.3633 465.053C60.4707 463.305 61.6035 462.143 63.1855 462.143C64.7578 462.143 65.8418 463.295 65.8809 465.053H60.3633ZM77.5605 474.828C80.4512 474.857 82.248 473.217 82.248 470.795V461.547C82.248 461.02 81.8867 460.668 81.3984 460.668C80.9102 460.668 80.5488 461.02 80.5488 461.547V462.514H80.5195C79.8457 461.371 78.7227 460.668 77.2871 460.668C74.6602 460.668 72.9609 462.699 72.9609 465.883C72.9609 469.037 74.6602 471.078 77.248 471.078C78.6738 471.078 79.8848 470.355 80.5098 469.252H80.5488V470.854C80.5488 472.367 79.4453 473.412 77.6289 473.383C76.5938 473.363 75.8809 472.992 75.0117 472.035C74.748 471.742 74.582 471.645 74.2988 471.645C73.8496 471.645 73.5371 471.947 73.5371 472.377C73.5371 472.602 73.5957 472.797 73.7324 473.012C74.4453 474.135 75.8613 474.809 77.5605 474.828ZM77.5898 469.584C75.8418 469.584 74.6992 468.158 74.6992 465.883C74.6992 463.607 75.8418 462.162 77.5898 462.162C79.3574 462.162 80.5488 463.646 80.5488 465.883C80.5488 468.119 79.3574 469.584 77.5898 469.584ZM88.7129 471.176C90.5684 471.176 91.9941 470.395 92.6484 469.018C92.7266 468.832 92.7754 468.656 92.7754 468.52C92.7754 468.07 92.4727 467.777 92.0234 467.777C91.7598 467.777 91.5645 467.875 91.3887 468.119C90.5977 469.271 89.8555 469.701 88.6445 469.701C86.8281 469.701 85.7051 468.432 85.7051 466.381H92.0527C92.6387 466.381 92.9902 466.01 92.9902 465.395C92.9902 462.611 91.1641 460.668 88.5664 460.668C85.7637 460.668 83.957 462.758 83.957 465.961C83.957 469.242 85.7148 471.176 88.7129 471.176ZM85.7148 465.053C85.8223 463.305 86.9551 462.143 88.5371 462.143C90.1094 462.143 91.1934 463.295 91.2324 465.053H85.7148ZM98.2344 471.176C100.646 471.176 102.277 469.955 102.277 468.139C102.277 466.645 101.496 465.902 99.377 465.385L97.8633 465.014C96.75 464.74 96.2031 464.252 96.2031 463.549C96.2031 462.68 97.0527 462.064 98.2734 462.064C99.3086 462.064 99.9629 462.436 100.402 463.285C100.588 463.637 100.822 463.744 101.154 463.744C101.564 463.744 101.818 463.48 101.818 463.08C101.818 463.002 101.809 462.924 101.789 462.826C101.525 461.605 100.041 460.668 98.3711 460.668C96.0762 460.668 94.5234 461.869 94.5234 463.637C94.5234 465.062 95.4707 465.99 97.4336 466.479L98.9863 466.869C100.129 467.152 100.549 467.543 100.549 468.275C100.549 469.223 99.6699 469.789 98.3711 469.789C97.0723 469.789 96.4668 469.389 95.959 468.5C95.7637 468.148 95.5195 467.992 95.2168 467.992C94.7773 467.992 94.4453 468.246 94.4453 468.695C94.4453 468.822 94.4648 468.949 94.5234 469.096C95.0117 470.365 96.4277 471.176 98.2344 471.176ZM104.572 468.656C104.572 470.277 105.393 471.078 107.033 471.078H107.141C108.088 471.078 108.381 470.805 108.381 470.287C108.381 469.887 108.127 469.662 107.57 469.623L107.424 469.613C106.574 469.555 106.271 469.145 106.271 468.285V462.24H107.58C108.068 462.24 108.342 461.986 108.342 461.537C108.342 461.098 108.068 460.844 107.58 460.844H106.271V459.105C106.271 458.568 105.92 458.197 105.422 458.197C104.924 458.197 104.572 458.568 104.572 459.105V460.844H103.723C103.234 460.844 102.961 461.098 102.961 461.537C102.961 461.986 103.234 462.24 103.723 462.24H104.572V468.656ZM110.998 459.135C111.584 459.135 112.062 458.656 112.062 458.08C112.062 457.494 111.584 457.025 110.998 457.025C110.422 457.025 109.943 457.494 109.943 458.08C109.943 458.656 110.422 459.135 110.998 459.135ZM110.998 471.176C111.496 471.176 111.848 470.805 111.848 470.268V461.576C111.848 461.039 111.496 460.668 110.998 460.668C110.5 460.668 110.148 461.039 110.148 461.576V470.268C110.148 470.805 110.5 471.176 110.998 471.176ZM114.992 471.176C115.49 471.176 115.842 470.805 115.842 470.268V464.691C115.842 463.393 116.496 462.289 118.029 462.289C118.4 462.289 118.664 462.221 118.84 462.074C119.016 461.938 119.104 461.742 119.104 461.479C119.104 461.244 119.035 461.049 118.889 460.912C118.723 460.756 118.459 460.668 118.088 460.668C117.072 460.668 116.076 461.449 115.783 462.504H115.744V461.527C115.744 461.02 115.412 460.668 114.943 460.668C114.475 460.668 114.143 461.02 114.143 461.527V470.268C114.143 470.805 114.494 471.176 114.992 471.176ZM124.084 471.176C125.939 471.176 127.365 470.395 128.02 469.018C128.098 468.832 128.146 468.656 128.146 468.52C128.146 468.07 127.844 467.777 127.395 467.777C127.131 467.777 126.936 467.875 126.76 468.119C125.969 469.271 125.227 469.701 124.016 469.701C122.199 469.701 121.076 468.432 121.076 466.381H127.424C128.01 466.381 128.361 466.01 128.361 465.395C128.361 462.611 126.535 460.668 123.938 460.668C121.135 460.668 119.328 462.758 119.328 465.961C119.328 469.242 121.086 471.176 124.084 471.176ZM121.086 465.053C121.193 463.305 122.326 462.143 123.908 462.143C125.48 462.143 126.564 463.295 126.604 465.053H121.086ZM135.119 459.135C135.705 459.135 136.184 458.656 136.184 458.08C136.184 457.494 135.705 457.025 135.119 457.025C134.543 457.025 134.064 457.494 134.064 458.08C134.064 458.656 134.543 459.135 135.119 459.135ZM135.119 471.176C135.617 471.176 135.969 470.805 135.969 470.268V461.576C135.969 461.039 135.617 460.668 135.119 460.668C134.621 460.668 134.27 461.039 134.27 461.576V470.268C134.27 470.805 134.621 471.176 135.119 471.176ZM139.201 471.176C139.699 471.176 140.051 470.805 140.051 470.268V457.641C140.051 457.104 139.699 456.732 139.201 456.732C138.703 456.732 138.352 457.104 138.352 457.641V470.268C138.352 470.805 138.703 471.176 139.201 471.176ZM147.844 471.176C148.361 471.176 148.693 470.824 148.693 470.277V462.24H150.188C150.627 462.24 150.91 461.986 150.91 461.547C150.91 461.127 150.627 460.844 150.188 460.844H148.684V459.77C148.684 458.725 149.074 458.275 149.973 458.275C150.188 458.275 150.354 458.256 150.5 458.217C150.812 458.129 150.959 457.934 150.959 457.621C150.959 457.123 150.48 456.83 149.582 456.83C147.922 456.83 146.994 457.768 146.994 459.711V460.844H146.154C145.715 460.844 145.432 461.127 145.432 461.547C145.432 461.986 145.715 462.24 146.154 462.24H146.994V470.277C146.994 470.824 147.326 471.176 147.844 471.176ZM153.459 471.176C153.957 471.176 154.309 470.805 154.309 470.268V457.641C154.309 457.104 153.957 456.732 153.459 456.732C152.961 456.732 152.609 457.104 152.609 457.641V470.268C152.609 470.805 152.961 471.176 153.459 471.176ZM160.07 471.176C161.633 471.176 162.688 470.521 163.293 469.35H163.332V470.316C163.332 470.805 163.654 471.176 164.143 471.176C164.631 471.176 164.943 470.805 164.943 470.316V461.576C164.943 461.039 164.592 460.668 164.094 460.668C163.596 460.668 163.244 461.039 163.244 461.576V466.811C163.244 468.539 162.248 469.672 160.598 469.672C159.025 469.672 158.254 468.783 158.254 467.133V461.576C158.254 461.039 157.902 460.668 157.404 460.668C156.906 460.668 156.555 461.039 156.555 461.576V467.436C156.555 469.74 157.854 471.176 160.07 471.176ZM170.676 471.176C173.088 471.176 174.719 469.955 174.719 468.139C174.719 466.645 173.938 465.902 171.818 465.385L170.305 465.014C169.191 464.74 168.645 464.252 168.645 463.549C168.645 462.68 169.494 462.064 170.715 462.064C171.75 462.064 172.404 462.436 172.844 463.285C173.029 463.637 173.264 463.744 173.596 463.744C174.006 463.744 174.26 463.48 174.26 463.08C174.26 463.002 174.25 462.924 174.23 462.826C173.967 461.605 172.482 460.668 170.812 460.668C168.518 460.668 166.965 461.869 166.965 463.637C166.965 465.062 167.912 465.99 169.875 466.479L171.428 466.869C172.57 467.152 172.99 467.543 172.99 468.275C172.99 469.223 172.111 469.789 170.812 469.789C169.514 469.789 168.908 469.389 168.4 468.5C168.205 468.148 167.961 467.992 167.658 467.992C167.219 467.992 166.887 468.246 166.887 468.695C166.887 468.822 166.906 468.949 166.965 469.096C167.453 470.365 168.869 471.176 170.676 471.176ZM179.992 471.176C182.404 471.176 184.035 469.955 184.035 468.139C184.035 466.645 183.254 465.902 181.135 465.385L179.621 465.014C178.508 464.74 177.961 464.252 177.961 463.549C177.961 462.68 178.811 462.064 180.031 462.064C181.066 462.064 181.721 462.436 182.16 463.285C182.346 463.637 182.58 463.744 182.912 463.744C183.322 463.744 183.576 463.48 183.576 463.08C183.576 463.002 183.566 462.924 183.547 462.826C183.283 461.605 181.799 460.668 180.129 460.668C177.834 460.668 176.281 461.869 176.281 463.637C176.281 465.062 177.229 465.99 179.191 466.479L180.744 466.869C181.887 467.152 182.307 467.543 182.307 468.275C182.307 469.223 181.428 469.789 180.129 469.789C178.83 469.789 178.225 469.389 177.717 468.5C177.521 468.148 177.277 467.992 176.975 467.992C176.535 467.992 176.203 468.246 176.203 468.695C176.203 468.822 176.223 468.949 176.281 469.096C176.77 470.365 178.186 471.176 179.992 471.176ZM189.992 471.176C192.795 471.176 194.689 469.154 194.689 465.922C194.689 462.68 192.795 460.668 189.992 460.668C187.18 460.668 185.285 462.68 185.285 465.922C185.285 469.154 187.18 471.176 189.992 471.176ZM189.992 469.682C188.195 469.682 187.014 468.314 187.014 465.922C187.014 463.529 188.195 462.162 189.992 462.162C191.789 462.162 192.961 463.529 192.961 465.922C192.961 468.314 191.789 469.682 189.992 469.682ZM204.357 471.176C205.949 471.176 207.004 470.395 207.561 469.184H207.59V470.346C207.59 470.844 207.98 471.176 208.459 471.176C208.947 471.176 209.289 470.834 209.289 470.346V457.641C209.289 457.104 208.938 456.732 208.439 456.732C207.941 456.732 207.59 457.104 207.59 457.641V462.494H207.551C206.945 461.381 205.773 460.668 204.318 460.668C201.76 460.668 200.012 462.738 200.012 465.922C200.012 469.105 201.77 471.176 204.357 471.176ZM204.68 469.682C202.883 469.682 201.75 468.227 201.75 465.922C201.75 463.627 202.883 462.162 204.68 462.162C206.428 462.162 207.6 463.656 207.6 465.922C207.6 468.197 206.428 469.682 204.68 469.682ZM215.842 471.176C217.697 471.176 219.123 470.395 219.777 469.018C219.855 468.832 219.904 468.656 219.904 468.52C219.904 468.07 219.602 467.777 219.152 467.777C218.889 467.777 218.693 467.875 218.518 468.119C217.727 469.271 216.984 469.701 215.773 469.701C213.957 469.701 212.834 468.432 212.834 466.381H219.182C219.768 466.381 220.119 466.01 220.119 465.395C220.119 462.611 218.293 460.668 215.695 460.668C212.893 460.668 211.086 462.758 211.086 465.961C211.086 469.242 212.844 471.176 215.842 471.176ZM212.844 465.053C212.951 463.305 214.084 462.143 215.666 462.143C217.238 462.143 218.322 463.295 218.361 465.053H212.844ZM222.775 459.135C223.361 459.135 223.84 458.656 223.84 458.08C223.84 457.494 223.361 457.025 222.775 457.025C222.199 457.025 221.721 457.494 221.721 458.08C221.721 458.656 222.199 459.135 222.775 459.135ZM222.775 471.176C223.273 471.176 223.625 470.805 223.625 470.268V461.576C223.625 461.039 223.273 460.668 222.775 460.668C222.277 460.668 221.926 461.039 221.926 461.576V470.268C221.926 470.805 222.277 471.176 222.775 471.176ZM230.568 468.656C230.568 470.277 231.389 471.078 233.029 471.078H233.137C234.084 471.078 234.377 470.805 234.377 470.287C234.377 469.887 234.123 469.662 233.566 469.623L233.42 469.613C232.57 469.555 232.268 469.145 232.268 468.285V462.24H233.576C234.064 462.24 234.338 461.986 234.338 461.537C234.338 461.098 234.064 460.844 233.576 460.844H232.268V459.105C232.268 458.568 231.916 458.197 231.418 458.197C230.92 458.197 230.568 458.568 230.568 459.105V460.844H229.719C229.23 460.844 228.957 461.098 228.957 461.537C228.957 461.986 229.23 462.24 229.719 462.24H230.568V468.656ZM239.523 471.176C241.086 471.176 242.141 470.521 242.746 469.35H242.785V470.316C242.785 470.805 243.107 471.176 243.596 471.176C244.084 471.176 244.396 470.805 244.396 470.316V461.576C244.396 461.039 244.045 460.668 243.547 460.668C243.049 460.668 242.697 461.039 242.697 461.576V466.811C242.697 468.539 241.701 469.672 240.051 469.672C238.479 469.672 237.707 468.783 237.707 467.133V461.576C237.707 461.039 237.355 460.668 236.857 460.668C236.359 460.668 236.008 461.039 236.008 461.576V467.436C236.008 469.74 237.307 471.176 239.523 471.176ZM250.812 471.176C253.615 471.176 255.51 469.154 255.51 465.922C255.51 462.68 253.615 460.668 250.812 460.668C248 460.668 246.105 462.68 246.105 465.922C246.105 469.154 248 471.176 250.812 471.176ZM250.812 469.682C249.016 469.682 247.834 468.314 247.834 465.922C247.834 463.529 249.016 462.162 250.812 462.162C252.609 462.162 253.781 463.529 253.781 465.922C253.781 468.314 252.609 469.682 250.812 469.682ZM258.166 459.135C258.752 459.135 259.23 458.656 259.23 458.08C259.23 457.494 258.752 457.025 258.166 457.025C257.59 457.025 257.111 457.494 257.111 458.08C257.111 458.656 257.59 459.135 258.166 459.135ZM258.166 471.176C258.664 471.176 259.016 470.805 259.016 470.268V461.576C259.016 461.039 258.664 460.668 258.166 460.668C257.668 460.668 257.316 461.039 257.316 461.576V470.268C257.316 470.805 257.668 471.176 258.166 471.176ZM266.35 459.135C266.936 459.135 267.414 458.656 267.414 458.08C267.414 457.494 266.936 457.025 266.35 457.025C265.773 457.025 265.295 457.494 265.295 458.08C265.295 458.656 265.773 459.135 266.35 459.135ZM266.35 471.176C266.848 471.176 267.199 470.805 267.199 470.268V461.576C267.199 461.039 266.848 460.668 266.35 460.668C265.852 460.668 265.5 461.039 265.5 461.576V470.268C265.5 470.805 265.852 471.176 266.35 471.176ZM270.344 471.176C270.861 471.176 271.193 470.785 271.193 470.268V464.633C271.193 463.227 272.17 462.172 273.518 462.172C274.777 462.172 275.598 462.973 275.598 464.193V470.268C275.598 470.785 275.93 471.176 276.447 471.176C276.965 471.176 277.297 470.785 277.297 470.268V464.545C277.297 463.168 278.244 462.172 279.592 462.172C280.93 462.172 281.701 462.992 281.701 464.379V470.268C281.701 470.785 282.033 471.176 282.551 471.176C283.068 471.176 283.4 470.785 283.4 470.268V463.988C283.4 461.977 282.102 460.668 280.09 460.668C278.664 460.668 277.473 461.391 276.906 462.602H276.867C276.428 461.371 275.402 460.668 274.016 460.668C272.648 460.668 271.613 461.391 271.135 462.465H271.096V461.527C271.096 461.02 270.764 460.668 270.295 460.668C269.826 460.668 269.494 461.02 269.494 461.527V470.268C269.494 470.785 269.826 471.176 270.344 471.176ZM286.418 474.584C286.916 474.584 287.268 474.213 287.268 473.676V469.35H287.307C287.912 470.463 289.084 471.176 290.539 471.176C293.098 471.176 294.846 469.105 294.846 465.922C294.846 462.738 293.088 460.668 290.5 460.668C289.025 460.668 287.844 461.42 287.219 462.562H287.18V461.527C287.18 461.02 286.848 460.668 286.379 460.668C285.9 460.668 285.568 461.02 285.568 461.527V473.676C285.568 474.213 285.92 474.584 286.418 474.584ZM290.168 469.682C288.43 469.682 287.258 468.188 287.258 465.922C287.258 463.666 288.43 462.162 290.168 462.162C291.975 462.162 293.107 463.627 293.107 465.922C293.107 468.227 291.975 469.682 290.168 469.682ZM300.822 471.176C302.678 471.176 304.104 470.395 304.758 469.018C304.836 468.832 304.885 468.656 304.885 468.52C304.885 468.07 304.582 467.777 304.133 467.777C303.869 467.777 303.674 467.875 303.498 468.119C302.707 469.271 301.965 469.701 300.754 469.701C298.938 469.701 297.814 468.432 297.814 466.381H304.162C304.748 466.381 305.1 466.01 305.1 465.395C305.1 462.611 303.273 460.668 300.676 460.668C297.873 460.668 296.066 462.758 296.066 465.961C296.066 469.242 297.824 471.176 300.822 471.176ZM297.824 465.053C297.932 463.305 299.064 462.143 300.646 462.143C302.219 462.143 303.303 463.295 303.342 465.053H297.824ZM310.92 474.828C313.811 474.857 315.607 473.217 315.607 470.795V461.547C315.607 461.02 315.246 460.668 314.758 460.668C314.27 460.668 313.908 461.02 313.908 461.547V462.514H313.879C313.205 461.371 312.082 460.668 310.646 460.668C308.02 460.668 306.32 462.699 306.32 465.883C306.32 469.037 308.02 471.078 310.607 471.078C312.033 471.078 313.244 470.355 313.869 469.252H313.908V470.854C313.908 472.367 312.805 473.412 310.988 473.383C309.953 473.363 309.24 472.992 308.371 472.035C308.107 471.742 307.941 471.645 307.658 471.645C307.209 471.645 306.896 471.947 306.896 472.377C306.896 472.602 306.955 472.797 307.092 473.012C307.805 474.135 309.221 474.809 310.92 474.828ZM310.949 469.584C309.201 469.584 308.059 468.158 308.059 465.883C308.059 463.607 309.201 462.162 310.949 462.162C312.717 462.162 313.908 463.646 313.908 465.883C313.908 468.119 312.717 469.584 310.949 469.584ZM318.664 471.176C319.162 471.176 319.514 470.805 319.514 470.268V465.023C319.514 463.305 320.559 462.172 322.16 462.172C323.723 462.172 324.494 463.07 324.494 464.711V470.268C324.494 470.805 324.846 471.176 325.344 471.176C325.842 471.176 326.193 470.805 326.193 470.268V464.408C326.193 462.104 324.904 460.668 322.678 460.668C321.105 460.668 320.021 461.371 319.455 462.465H319.416V461.527C319.416 461.02 319.084 460.668 318.615 460.668C318.146 460.668 317.814 461.02 317.814 461.527V470.268C317.814 470.805 318.166 471.176 318.664 471.176ZM329.299 459.135C329.885 459.135 330.363 458.656 330.363 458.08C330.363 457.494 329.885 457.025 329.299 457.025C328.723 457.025 328.244 457.494 328.244 458.08C328.244 458.656 328.723 459.135 329.299 459.135ZM329.299 471.176C329.797 471.176 330.148 470.805 330.148 470.268V461.576C330.148 461.039 329.797 460.668 329.299 460.668C328.801 460.668 328.449 461.039 328.449 461.576V470.268C328.449 470.805 328.801 471.176 329.299 471.176ZM333.879 471.098C334.504 471.098 334.992 470.609 334.992 469.984C334.992 469.359 334.504 468.871 333.879 468.871C333.254 468.871 332.766 469.359 332.766 469.984C332.766 470.609 333.254 471.098 333.879 471.098Z" fill="black"/>
<path d="M71.9023 394.469C77.2344 394.469 81.4336 392.066 83.1914 388.16C83.4844 387.477 83.6406 386.852 83.6406 386.188C83.6406 384.625 82.5469 383.57 80.8867 383.57C79.6367 383.57 78.8945 384.098 78.2891 385.426C77.0195 388.258 74.793 389.605 71.8242 389.605C67.3125 389.605 64.4805 385.895 64.4805 379.879C64.4805 373.941 67.3516 370.211 71.8047 370.211C74.6172 370.211 76.9219 371.656 78.2109 374.527C78.8555 375.895 79.6953 376.48 81.0234 376.48C82.5859 376.48 83.6211 375.484 83.6211 373.941C83.6211 373.238 83.4258 372.477 83.0352 371.734C81.1016 367.672 77.0195 365.328 71.7461 365.328C63.6406 365.328 58.4648 370.816 58.4648 379.898C58.4648 389 63.543 394.469 71.9023 394.469ZM90.2403 370.465C91.9591 370.465 93.2872 369.156 93.2872 367.516C93.2872 365.855 91.9591 364.566 90.2403 364.566C88.5216 364.566 87.1934 365.855 87.1934 367.516C87.1934 369.156 88.5216 370.465 90.2403 370.465ZM90.2403 394.41C91.9981 394.41 93.0919 393.297 93.0919 391.441V375.621C93.0919 373.766 91.9981 372.633 90.2403 372.633C88.463 372.633 87.3888 373.766 87.3888 375.621V391.441C87.3888 393.297 88.463 394.41 90.2403 394.41ZM103.012 394.332C105.629 394.332 108.246 393.023 109.418 390.797H109.535V391.871C109.653 393.551 110.727 394.41 112.27 394.41C113.891 394.41 115.043 393.434 115.043 391.539V379.605C115.043 375.387 111.547 372.613 106.176 372.613C101.84 372.613 98.4806 374.156 97.5041 376.656C97.3088 377.086 97.2111 377.496 97.2111 377.945C97.2111 379.234 98.2072 380.133 99.5939 380.133C100.512 380.133 101.235 379.781 101.86 379.078C103.129 377.438 104.184 376.871 105.922 376.871C108.07 376.871 109.438 378.004 109.438 379.957V381.344L104.164 381.656C98.9298 381.969 96.0002 384.176 96.0002 387.984C96.0002 391.754 99.0275 394.332 103.012 394.332ZM104.887 390.211C102.973 390.211 101.684 389.234 101.684 387.672C101.684 386.188 102.895 385.23 105.024 385.074L109.438 384.801V386.324C109.438 388.59 107.387 390.211 104.887 390.211ZM128.264 394.449C134.592 394.449 138.635 390.406 138.635 383.512C138.635 376.715 134.533 372.613 128.264 372.613C121.994 372.613 117.893 376.734 117.893 383.512C117.893 390.387 121.936 394.449 128.264 394.449ZM128.264 390.094C125.451 390.094 123.674 387.73 123.674 383.531C123.674 379.371 125.49 376.969 128.264 376.969C131.037 376.969 132.834 379.371 132.834 383.531C132.834 387.73 131.057 390.094 128.264 390.094ZM145.977 384.996C147.598 384.996 148.457 384.02 148.516 382.359L148.809 368.844C148.828 368.648 148.828 368.414 148.828 368.258C148.828 366.461 147.735 365.387 145.996 365.387C144.239 365.387 143.125 366.461 143.125 368.258C143.125 368.414 143.145 368.648 143.145 368.844L143.457 382.359C143.496 384.02 144.356 384.996 145.977 384.996ZM145.977 394.488C147.754 394.488 149.16 393.141 149.16 391.422C149.16 389.703 147.754 388.355 145.977 388.355C144.2 388.355 142.793 389.703 142.793 391.422C142.793 393.141 144.2 394.488 145.977 394.488Z" fill="black"/>
</g>
<defs>
<filter id="filter0_b_366_20155" x="-6" y="-5" width="402" height="855" filterUnits="userSpaceOnUse" color-interpolation-filters="sRGB">
<feFlood flood-opacity="0" result="BackgroundImageFix"/>
<feGaussianBlur in="BackgroundImageFix" stdDeviation="3"/>
<feComposite in2="SourceAlpha" operator="in" result="effect1_backgroundBlur_366_20155"/>
<feBlend mode="normal" in="SourceGraphic" in2="effect1_backgroundBlur_366_20155" result="shape"/>
</filter>
<clipPath id="clip0_366_20155">
<rect width="390" height="844" fill="white"/>
</clipPath>
</defs>
</svg>
