<svg width="390" height="844" viewBox="0 0 390 844" fill="none" xmlns="http://www.w3.org/2000/svg">
<g clip-path="url(#clip0_366_19401)">
<rect width="390" height="844" fill="white"/>
<path d="M277.742 561.567C335.548 547.53 367.244 500.86 389 535.579L389 885C347.464 920.456 298.953 876.896 245.107 874.006C177.798 870.393 169.287 914.939 115.341 907.198C61.3959 899.457 61.1519 867.977 33.644 867.977C10.715 867.977 -1 885 -1 885L-1 535.091C22.7559 572.248 110.092 553.678 134.838 553.678C166.049 553.678 205.485 579.114 277.742 561.567Z" fill="black"/>
<path d="M241.722 116.384H257.038C258.533 116.384 259.434 115.441 259.434 114.075C259.434 112.67 258.533 111.766 257.038 111.766H246.61V111.65L252.59 105.877C257.114 101.586 258.763 99.4691 258.763 96.0823C258.763 91.3099 254.814 88 248.948 88C243.715 88 240.246 90.8673 239.307 93.9463C239.173 94.3504 239.096 94.7545 239.096 95.1971C239.096 96.6403 240.016 97.564 241.569 97.564C242.815 97.564 243.485 97.0252 244.137 95.8706C245.134 93.6384 246.667 92.5222 248.891 92.5222C251.364 92.5222 253.127 94.1579 253.127 96.4479C253.127 98.4492 252.245 99.7963 248.833 103.087L240.591 110.996C239.422 112.074 239 112.805 239 113.902C239 115.364 239.901 116.384 241.722 116.384Z" fill="black"/>
<path d="M273.516 117C280.11 117 284.729 113.69 284.729 108.879C284.729 105.223 282.065 102.529 278.289 101.778V101.663C281.528 100.835 283.713 98.4685 283.713 95.4857C283.713 91.1367 279.516 88 273.516 88C267.516 88 263.299 91.1559 263.299 95.4665C263.299 98.4877 265.503 100.855 268.762 101.663V101.778C264.986 102.51 262.302 105.204 262.302 108.86C262.302 113.671 266.903 117 273.516 117ZM273.516 99.9117C270.89 99.9117 269.03 98.3338 269.03 96.063C269.03 93.7731 270.89 92.1951 273.516 92.1951C276.123 92.1951 278.001 93.7731 278.001 96.063C278.001 98.3338 276.123 99.9117 273.516 99.9117ZM273.516 112.766C270.468 112.766 268.34 110.958 268.34 108.437C268.34 105.935 270.468 104.145 273.516 104.145C276.564 104.145 278.672 105.935 278.672 108.437C278.672 110.958 276.564 112.766 273.516 112.766Z" fill="black"/>
<path d="M299.169 116.75C300.99 116.75 302.064 115.634 302.064 113.729V105.454H311.169C312.683 105.454 313.641 104.588 313.641 103.145C313.641 101.721 312.664 100.855 311.169 100.855H302.064V93.4267H312.108C313.68 93.4267 314.734 92.5222 314.734 91.0212C314.734 89.5202 313.699 88.6158 312.108 88.6158H299.169C297.348 88.6158 296.275 89.7319 296.275 91.637V113.729C296.275 115.634 297.348 116.75 299.169 116.75Z" fill="black"/>
<path d="M326.152 116.827C330.12 116.827 333.302 115.326 334.663 112.786C334.912 112.324 335.046 111.862 335.046 111.419C335.046 110.13 334.068 109.36 332.861 109.36C332.132 109.36 331.634 109.572 331.04 110.188C329.525 111.977 328.184 112.67 326.133 112.67C323.296 112.67 321.456 110.669 321.456 107.609V107.359H333.187C334.739 107.359 335.621 106.474 335.621 104.915C335.621 99.3152 331.711 95.3125 325.883 95.3125C319.807 95.3125 315.954 99.5269 315.954 106.166C315.954 112.843 319.73 116.827 326.152 116.827ZM321.513 103.914C321.705 101.278 323.487 99.4691 325.941 99.4691C328.395 99.4691 330.12 101.22 330.235 103.914H321.513Z" fill="black"/>
<path d="M341.327 116.788C342.956 116.788 344.106 115.807 344.106 113.94V112.843H344.221C345.371 115.249 347.652 116.711 350.662 116.711C355.856 116.711 359 112.709 359 106.07C359 99.4114 355.837 95.428 350.643 95.428C347.729 95.428 345.429 96.8905 344.298 99.3344H344.183V91.1367C344.183 89.2123 343.033 88.1924 341.384 88.1924C339.755 88.1924 338.586 89.2123 338.586 91.1367V113.94C338.586 115.826 339.717 116.788 341.327 116.788ZM348.745 112.189C346.023 112.189 344.164 109.803 344.164 106.07C344.164 102.375 346.023 99.931 348.745 99.931C351.524 99.931 353.269 102.317 353.269 106.07C353.269 109.841 351.524 112.189 348.745 112.189Z" fill="black"/>
<path d="M326.875 134.788H331.798C332.278 134.788 332.568 134.463 332.568 133.992C332.568 133.508 332.278 133.196 331.798 133.196H328.446V133.156L330.368 131.167C331.822 129.688 332.352 128.959 332.352 127.792C332.352 126.147 331.083 125.007 329.198 125.007C327.516 125.007 326.4 125.995 326.099 127.056C326.055 127.195 326.031 127.334 326.031 127.487C326.031 127.984 326.327 128.302 326.826 128.302C327.226 128.302 327.442 128.117 327.651 127.719C327.972 126.95 328.464 126.565 329.179 126.565C329.974 126.565 330.541 127.129 330.541 127.918C330.541 128.607 330.257 129.072 329.161 130.206L326.511 132.931C326.136 133.302 326 133.554 326 133.932C326 134.436 326.29 134.788 326.875 134.788Z" fill="black"/>
<path d="M337.039 135C339.294 135 340.662 133.07 340.662 129.98C340.662 126.89 339.282 125 337.039 125C334.797 125 333.41 126.897 333.41 129.987C333.41 133.084 334.784 135 337.039 135ZM337.039 133.395C335.942 133.395 335.302 132.182 335.302 129.987C335.302 127.812 335.955 126.605 337.039 126.605C338.13 126.605 338.77 127.805 338.77 129.987C338.77 132.182 338.136 133.395 337.039 133.395Z" fill="black"/>
<path d="M342.546 134.788H347.468C347.949 134.788 348.239 134.463 348.239 133.992C348.239 133.508 347.949 133.196 347.468 133.196H344.117V133.156L346.039 131.167C347.493 129.688 348.023 128.959 348.023 127.792C348.023 126.147 346.754 125.007 344.868 125.007C343.186 125.007 342.071 125.995 341.769 127.056C341.726 127.195 341.702 127.334 341.702 127.487C341.702 127.984 341.997 128.302 342.496 128.302C342.897 128.302 343.113 128.117 343.322 127.719C343.642 126.95 344.135 126.565 344.85 126.565C345.645 126.565 346.212 127.129 346.212 127.918C346.212 128.607 345.928 129.072 344.831 130.206L342.182 132.931C341.806 133.302 341.671 133.554 341.671 133.932C341.671 134.436 341.96 134.788 342.546 134.788Z" fill="black"/>
<path d="M352.537 135C354.601 135 356 133.846 356 132.109C356 130.789 355.144 129.954 353.819 129.821V129.781C354.866 129.549 355.673 128.753 355.673 127.54C355.673 126.008 354.404 125.007 352.525 125.007C350.954 125.007 349.944 125.789 349.549 126.724C349.457 126.95 349.414 127.142 349.414 127.367C349.414 127.851 349.679 128.176 350.196 128.176C350.615 128.176 350.831 128.011 351.034 127.56C351.324 126.883 351.78 126.545 352.531 126.545C353.431 126.545 353.911 127.056 353.911 127.825C353.911 128.607 353.308 129.151 352.377 129.151H352.014C351.564 129.151 351.305 129.443 351.305 129.861C351.305 130.292 351.564 130.577 352.014 130.577H352.402C353.48 130.577 354.115 131.094 354.109 132.023C354.109 132.818 353.48 133.389 352.568 133.389C351.644 133.389 351.164 132.991 350.849 132.321C350.665 131.956 350.43 131.797 350.061 131.797C349.549 131.797 349.241 132.122 349.241 132.639C349.241 132.838 349.284 133.05 349.383 133.269C349.802 134.211 350.843 135 352.537 135Z" fill="black"/>
<path d="M244.516 135.346C245.411 135.346 245.938 134.785 245.938 133.828V123.629H248.752C249.515 123.629 250.033 123.175 250.033 122.421C250.033 121.667 249.524 121.213 248.752 121.213H240.29C239.508 121.213 239 121.667 239 122.421C239 123.175 239.518 123.629 240.29 123.629H243.095V133.828C243.095 134.785 243.622 135.346 244.516 135.346Z" fill="black"/>
<path d="M253.553 135.356C255.078 135.356 256.076 134.602 256.575 133.296H256.632V133.934C256.632 134.872 257.168 135.365 257.959 135.365C258.75 135.365 259.286 134.872 259.286 133.934V126.066C259.286 125.099 258.721 124.586 257.912 124.586C257.112 124.586 256.537 125.099 256.537 126.066V130.735C256.537 132.107 255.775 133.006 254.551 133.006C253.337 133.006 252.668 132.272 252.668 130.889V126.066C252.668 125.099 252.104 124.586 251.294 124.586C250.494 124.586 249.92 125.099 249.92 126.066V131.479C249.92 133.896 251.369 135.356 253.553 135.356Z" fill="black"/>
<path d="M265.716 135.385C267.664 135.385 269.227 134.631 269.895 133.354C270.018 133.122 270.084 132.89 270.084 132.668C270.084 132.02 269.603 131.634 269.01 131.634C268.653 131.634 268.408 131.74 268.116 132.049C267.372 132.948 266.714 133.296 265.706 133.296C264.313 133.296 263.409 132.291 263.409 130.754V130.628H269.17C269.933 130.628 270.366 130.184 270.366 129.401C270.366 126.588 268.446 124.577 265.584 124.577C262.6 124.577 260.708 126.694 260.708 130.029C260.708 133.383 262.562 135.385 265.716 135.385ZM263.438 128.898C263.532 127.574 264.407 126.665 265.612 126.665C266.817 126.665 267.664 127.545 267.721 128.898H263.438Z" fill="black"/>
<path d="M275.901 135.385C278.565 135.385 280.363 134.05 280.363 131.991C280.363 130.445 279.478 129.633 277.332 129.169L275.666 128.801C274.659 128.579 274.263 128.221 274.263 127.68C274.263 127.013 274.913 126.559 275.845 126.559C276.833 126.559 277.379 127.042 277.859 127.67C278.104 127.97 278.499 128.105 278.857 128.105C279.563 128.105 279.911 127.709 279.911 127.139C279.911 127.003 279.883 126.868 279.845 126.723C279.516 125.553 277.982 124.577 275.892 124.577C273.275 124.577 271.609 125.853 271.609 127.835C271.609 129.372 272.606 130.406 274.583 130.841L276.278 131.208C277.266 131.431 277.614 131.73 277.614 132.291C277.614 132.977 276.965 133.403 275.967 133.403C274.922 133.403 274.301 133.074 273.764 132.349C273.388 131.914 273.011 131.711 272.569 131.711C271.929 131.711 271.458 132.146 271.458 132.794C271.458 132.948 271.496 133.132 271.562 133.316C272.042 134.534 273.585 135.385 275.901 135.385Z" fill="black"/>
<path d="M285.475 135.327C287.028 135.327 288.139 134.495 288.581 133.335H288.628V133.934C288.628 134.882 289.221 135.365 290.012 135.365C290.812 135.365 291.377 134.872 291.377 133.934V122.479C291.377 121.512 290.812 121 290.003 121C289.203 121 288.628 121.512 288.628 122.479V126.578H288.572C288.082 125.427 286.953 124.635 285.494 124.635C282.961 124.635 281.361 126.675 281.361 129.961C281.361 133.277 282.952 135.327 285.475 135.327ZM286.407 133.055C285.023 133.055 284.176 131.885 284.176 129.981C284.176 128.086 285.023 126.897 286.407 126.897C287.772 126.897 288.647 128.096 288.647 129.981C288.647 131.875 287.772 133.055 286.407 133.055Z" fill="black"/>
<path d="M296.197 135.327C297.458 135.327 298.72 134.679 299.284 133.577H299.341V134.108C299.397 134.94 299.915 135.365 300.659 135.365C301.44 135.365 301.996 134.882 301.996 133.944V128.038C301.996 125.95 300.311 124.577 297.722 124.577C295.632 124.577 294.013 125.34 293.542 126.578C293.448 126.791 293.401 126.994 293.401 127.216C293.401 127.854 293.881 128.299 294.549 128.299C294.992 128.299 295.34 128.125 295.641 127.777C296.253 126.965 296.762 126.684 297.599 126.684C298.635 126.684 299.294 127.245 299.294 128.212V128.898L296.752 129.053C294.229 129.207 292.817 130.3 292.817 132.185C292.817 134.05 294.276 135.327 296.197 135.327ZM297.1 133.287C296.178 133.287 295.557 132.803 295.557 132.03C295.557 131.295 296.14 130.822 297.166 130.744L299.294 130.609V131.363C299.294 132.484 298.305 133.287 297.1 133.287Z" fill="black"/>
<path d="M305.431 139C307.644 139 308.811 138.014 309.752 135.336L312.849 126.694C312.944 126.423 313 126.095 313 125.863C313 125.118 312.454 124.586 311.663 124.586C310.957 124.586 310.562 124.925 310.336 125.708L308.143 132.9H308.096L305.902 125.727C305.676 124.905 305.3 124.586 304.575 124.586C303.765 124.586 303.153 125.137 303.153 125.901C303.153 126.133 303.21 126.443 303.313 126.733L306.533 135.452L306.392 135.82C306.062 136.545 305.544 136.757 305.064 136.757C304.876 136.757 304.773 136.748 304.584 136.748C303.963 136.748 303.577 137.105 303.577 137.676C303.577 138.526 304.227 139 305.431 139Z" fill="black"/>
<path d="M22.084 599.186C23.0117 599.186 23.5586 598.619 23.5586 597.652V587.35H26.4785C27.2695 587.35 27.8066 586.891 27.8066 586.129C27.8066 585.367 27.2793 584.908 26.4785 584.908H17.6992C16.8887 584.908 16.3613 585.367 16.3613 586.129C16.3613 586.891 16.8984 587.35 17.6992 587.35H20.6094V597.652C20.6094 598.619 21.1562 599.186 22.084 599.186ZM31.5273 599.225C34.6914 599.225 36.7129 597.203 36.7129 593.756C36.7129 590.357 34.6621 588.307 31.5273 588.307C28.3926 588.307 26.3418 590.367 26.3418 593.756C26.3418 597.193 28.3633 599.225 31.5273 599.225ZM31.5273 597.047C30.1211 597.047 29.2324 595.865 29.2324 593.766C29.2324 591.686 30.1406 590.484 31.5273 590.484C32.9141 590.484 33.8125 591.686 33.8125 593.766C33.8125 595.865 32.9238 597.047 31.5273 597.047ZM42.0742 599.166C43.6855 599.166 44.8379 598.326 45.2969 597.154H45.3457V597.76C45.3457 598.717 45.9609 599.205 46.7812 599.205C47.6113 599.205 48.1973 598.707 48.1973 597.76V586.188C48.1973 585.211 47.6113 584.693 46.7715 584.693C45.9414 584.693 45.3457 585.211 45.3457 586.188V590.328H45.2871C44.7793 589.166 43.6074 588.365 42.0938 588.365C39.4668 588.365 37.8066 590.426 37.8066 593.746C37.8066 597.096 39.457 599.166 42.0742 599.166ZM43.041 596.871C41.6055 596.871 40.7266 595.689 40.7266 593.766C40.7266 591.852 41.6055 590.65 43.041 590.65C44.457 590.65 45.3652 591.861 45.3652 593.766C45.3652 595.68 44.457 596.871 43.041 596.871ZM53.1973 599.166C54.5059 599.166 55.8145 598.512 56.4004 597.398H56.459V597.936C56.5176 598.775 57.0547 599.205 57.8262 599.205C58.6367 599.205 59.2129 598.717 59.2129 597.77V591.803C59.2129 589.693 57.4648 588.307 54.7793 588.307C52.6113 588.307 50.9316 589.078 50.4434 590.328C50.3457 590.543 50.2969 590.748 50.2969 590.973C50.2969 591.617 50.7949 592.066 51.4883 592.066C51.9473 592.066 52.3086 591.891 52.6211 591.539C53.2559 590.719 53.7832 590.436 54.6523 590.436C55.7266 590.436 56.4102 591.002 56.4102 591.979V592.672L53.7734 592.828C51.1562 592.984 49.6914 594.088 49.6914 595.992C49.6914 597.877 51.2051 599.166 53.1973 599.166ZM54.1348 597.105C53.1777 597.105 52.5332 596.617 52.5332 595.836C52.5332 595.094 53.1387 594.615 54.2031 594.537L56.4102 594.4V595.162C56.4102 596.295 55.3848 597.105 54.1348 597.105ZM62.7773 602.877C65.0723 602.877 66.2832 601.881 67.2598 599.176L70.4727 590.445C70.5703 590.172 70.6289 589.84 70.6289 589.605C70.6289 588.854 70.0625 588.316 69.2422 588.316C68.5098 588.316 68.0996 588.658 67.8652 589.449L65.5898 596.715H65.541L63.2656 589.469C63.0312 588.639 62.6406 588.316 61.8887 588.316C61.0488 588.316 60.4141 588.873 60.4141 589.645C60.4141 589.879 60.4727 590.191 60.5801 590.484L63.9199 599.293L63.7734 599.664C63.4316 600.396 62.8945 600.611 62.3965 600.611C62.2012 600.611 62.0938 600.602 61.8984 600.602C61.2539 600.602 60.8535 600.963 60.8535 601.539C60.8535 602.398 61.5273 602.877 62.7773 602.877Z" fill="white"/>
<path d="M335.022 591.103C335.53 591.103 335.813 590.873 335.935 590.355L336.726 587.299H336.755L337.551 590.346C337.673 590.878 337.952 591.103 338.474 591.103C338.967 591.103 339.241 590.868 339.387 590.351L340.442 586.698C340.496 586.513 340.52 586.396 340.52 586.264C340.52 585.907 340.242 585.658 339.846 585.658C339.495 585.658 339.265 585.873 339.187 586.254L338.406 589.647H338.376L337.561 586.312C337.468 585.888 337.19 585.658 336.765 585.658C336.331 585.658 336.052 585.888 335.959 586.312L335.149 589.647H335.12L334.343 586.264C334.26 585.873 334.031 585.658 333.674 585.658C333.274 585.658 332.986 585.912 332.986 586.269C332.986 586.405 333.01 586.522 333.064 586.708L334.119 590.355C334.27 590.873 334.529 591.103 335.022 591.103ZM343.409 591.112C344.991 591.112 346.002 590.102 346.002 588.378C346.002 586.679 344.976 585.653 343.409 585.653C341.841 585.653 340.816 586.684 340.816 588.378C340.816 590.097 341.827 591.112 343.409 591.112ZM343.409 590.023C342.706 590.023 342.261 589.433 342.261 588.383C342.261 587.343 342.715 586.742 343.409 586.742C344.102 586.742 344.551 587.343 344.551 588.383C344.551 589.433 344.107 590.023 343.409 590.023ZM347.372 591.103C347.806 591.103 348.085 590.834 348.085 590.36V588.036C348.085 587.416 348.314 587.05 348.964 587.04C349.242 587.035 349.447 586.972 349.584 586.854C349.72 586.737 349.789 586.566 349.789 586.342C349.789 586.098 349.72 585.922 349.584 585.814C349.481 585.727 349.33 585.683 349.139 585.683C348.617 585.683 348.187 586.068 348.05 586.718H348.021V586.376C348.021 585.922 347.748 585.658 347.347 585.658C346.937 585.658 346.659 585.922 346.659 586.376V590.36C346.659 590.834 346.942 591.103 347.372 591.103ZM350.969 591.103C351.388 591.103 351.681 590.849 351.681 590.36V589.301L352.136 588.881L353.478 590.658C353.703 590.995 353.874 591.103 354.177 591.103C354.577 591.103 354.855 590.839 354.855 590.458C354.855 590.272 354.811 590.146 354.655 589.936L353.195 588.075L354.528 586.815C354.733 586.625 354.797 586.493 354.797 586.278C354.797 585.927 354.528 585.658 354.162 585.658C353.947 585.658 353.786 585.741 353.595 585.941L351.701 587.841H351.681V584.594C351.681 584.105 351.388 583.847 350.969 583.847C350.553 583.847 350.256 584.105 350.256 584.594V590.36C350.256 590.849 350.553 591.103 350.969 591.103ZM356.26 585.116C356.689 585.116 357.021 584.789 357.021 584.379C357.021 583.964 356.689 583.642 356.26 583.642C355.83 583.642 355.498 583.964 355.498 584.379C355.498 584.789 355.83 585.116 356.26 585.116ZM356.26 591.103C356.699 591.103 356.972 590.824 356.972 590.36V586.405C356.972 585.941 356.699 585.658 356.26 585.658C355.815 585.658 355.547 585.941 355.547 586.405V590.36C355.547 590.824 355.815 591.103 356.26 591.103ZM358.558 591.103C358.977 591.103 359.27 590.849 359.27 590.36V587.997C359.27 587.318 359.676 586.85 360.315 586.85C360.955 586.85 361.277 587.24 361.277 587.924V590.36C361.277 590.849 361.57 591.103 361.99 591.103C362.405 591.103 362.703 590.849 362.703 590.36V587.626C362.703 586.4 362.049 585.668 360.887 585.668C360.081 585.668 359.554 586.024 359.275 586.674H359.246V586.381C359.246 585.932 358.963 585.658 358.533 585.658C358.103 585.658 357.845 585.932 357.845 586.376V590.36C357.845 590.849 358.142 591.103 358.558 591.103ZM365.865 592.968C367.55 592.978 368.536 592.157 368.536 590.795V586.381C368.536 585.897 368.238 585.658 367.828 585.658C367.418 585.658 367.11 585.897 367.11 586.381V586.669H367.081C366.808 586.078 366.236 585.683 365.484 585.683C364.137 585.683 363.336 586.654 363.336 588.295C363.336 589.892 364.156 590.888 365.46 590.888C366.217 590.888 366.827 590.512 367.071 589.95H367.101V590.785C367.101 591.439 366.642 591.869 365.86 591.864C365.387 591.859 365.016 591.659 364.63 591.293C364.469 591.146 364.322 591.088 364.137 591.088C363.78 591.088 363.556 591.312 363.556 591.61C363.556 591.742 363.585 591.874 363.663 592.006C364 592.558 364.796 592.963 365.865 592.968ZM365.943 589.828C365.235 589.828 364.796 589.267 364.796 588.31C364.796 587.362 365.24 586.767 365.943 586.767C366.656 586.767 367.115 587.372 367.115 588.314C367.115 589.262 366.656 589.828 365.943 589.828ZM344.388 601.103C344.808 601.103 345.101 600.849 345.101 600.36V598.012C345.101 597.323 345.497 596.85 346.171 596.85C346.82 596.85 347.152 597.26 347.152 597.934V600.36C347.152 600.849 347.45 601.103 347.865 601.103C348.285 601.103 348.578 600.849 348.578 600.36V597.631C348.578 596.42 347.914 595.668 346.752 595.668C345.956 595.668 345.384 596.039 345.106 596.698H345.077V594.579C345.077 594.12 344.818 593.847 344.379 593.847C343.939 593.847 343.675 594.12 343.675 594.579V600.36C343.675 600.849 343.973 601.103 344.388 601.103ZM351.813 601.112C353.395 601.112 354.406 600.102 354.406 598.378C354.406 596.679 353.381 595.653 351.813 595.653C350.246 595.653 349.22 596.684 349.22 598.378C349.22 600.097 350.231 601.112 351.813 601.112ZM351.813 600.023C351.11 600.023 350.666 599.433 350.666 598.383C350.666 597.343 351.12 596.742 351.813 596.742C352.507 596.742 352.956 597.343 352.956 598.383C352.956 599.433 352.511 600.023 351.813 600.023ZM356.924 601.098C357.715 601.098 358.232 600.717 358.491 600.058H358.52V600.38C358.52 600.854 358.799 601.103 359.209 601.103C359.619 601.103 359.897 600.854 359.897 600.38V596.405C359.897 595.917 359.604 595.658 359.184 595.658C358.769 595.658 358.472 595.917 358.472 596.405V598.764C358.472 599.457 358.076 599.911 357.441 599.911C356.811 599.911 356.465 599.54 356.465 598.842V596.405C356.465 595.917 356.172 595.658 355.752 595.658C355.337 595.658 355.039 595.917 355.039 596.405V599.14C355.039 600.36 355.791 601.098 356.924 601.098ZM361.458 601.103C361.892 601.103 362.171 600.834 362.171 600.36V598.036C362.171 597.416 362.4 597.05 363.05 597.04C363.328 597.035 363.533 596.972 363.67 596.854C363.807 596.737 363.875 596.566 363.875 596.342C363.875 596.098 363.807 595.922 363.67 595.814C363.567 595.727 363.416 595.683 363.226 595.683C362.703 595.683 362.273 596.068 362.137 596.718H362.107V596.376C362.107 595.922 361.834 595.658 361.434 595.658C361.023 595.658 360.745 595.922 360.745 596.376V600.36C360.745 600.834 361.028 601.103 361.458 601.103ZM366.441 601.112C367.823 601.112 368.756 600.438 368.756 599.398C368.756 598.617 368.297 598.207 367.184 597.973L366.319 597.787C365.797 597.675 365.592 597.494 365.592 597.221C365.592 596.884 365.929 596.654 366.412 596.654C366.925 596.654 367.208 596.898 367.457 597.216C367.584 597.367 367.789 597.436 367.975 597.436C368.341 597.436 368.521 597.235 368.521 596.947C368.521 596.879 368.507 596.811 368.487 596.737C368.316 596.146 367.521 595.653 366.437 595.653C365.079 595.653 364.215 596.298 364.215 597.299C364.215 598.075 364.732 598.598 365.758 598.817L366.637 599.003C367.149 599.115 367.33 599.267 367.33 599.55C367.33 599.896 366.993 600.111 366.476 600.111C365.934 600.111 365.611 599.945 365.333 599.579C365.138 599.359 364.942 599.257 364.713 599.257C364.381 599.257 364.137 599.477 364.137 599.804C364.137 599.882 364.156 599.975 364.19 600.067C364.439 600.683 365.24 601.112 366.441 601.112Z" fill="white"/>
<path d="M359.273 575.41C360.895 575.41 362.086 574.414 362.086 572.539V569.824H363.688C365.23 569.824 366.109 568.867 366.109 567.48C366.109 566.094 365.25 565.117 363.688 565.117H362.086V550.645C362.086 548.008 360.211 546.387 357.223 546.387C354.84 546.387 353.414 547.363 351.461 550.352C348.395 554.902 345.582 559.199 343.648 562.676C342.77 564.219 342.418 565.312 342.418 566.523C342.418 568.496 343.844 569.824 345.973 569.824H356.48V572.539C356.48 574.414 357.652 575.41 359.273 575.41ZM356.598 565.273H347.574V565.117C349.859 560.859 352.457 556.895 356.48 551.094H356.598V565.273Z" fill="white"/>
<path d="M112.5 193.709C53.0874 190.759 39.5001 176.629 0.000104703 175.209L1.72589e-06 365.209C77.5 397.209 100.607 360.903 134.5 354.209C182.107 344.806 227 371.309 255 379.709C275 385.709 330 364.209 350 359.209C370 354.209 390 365.209 390 365.209L390 175.3C312 171.709 317.5 214.209 231.5 179.709C170.463 155.223 183 197.209 112.5 193.709Z" fill="#E4E4E4"/>
<circle cx="179.833" cy="282.667" r="45.8333" fill="black"/>
<circle cx="243.083" cy="235.917" r="22.9167" fill="black"/>
<circle cx="198.625" cy="218.958" r="11.4583" fill="black"/>
<path d="M180.5 294.805C181.648 294.805 182.398 293.938 182.398 292.789V284.562H190.156C191.305 284.562 192.172 283.812 192.172 282.664C192.172 281.516 191.305 280.766 190.156 280.766H182.398V272.516C182.398 271.367 181.648 270.5 180.5 270.5C179.352 270.5 178.602 271.367 178.602 272.516V280.766H170.82C169.672 280.766 168.805 281.516 168.805 282.664C168.805 283.812 169.672 284.562 170.82 284.562H178.602V292.789C178.602 293.938 179.352 294.805 180.5 294.805Z" fill="white"/>
<circle cx="395.831" cy="276.228" r="25" transform="rotate(-106.749 395.831 276.228)" fill="#636363"/>
<circle cx="361.47" cy="250.54" r="12.5" transform="rotate(-106.749 361.47 250.54)" fill="#636363"/>
<circle cx="359.601" cy="276.427" r="6.25" transform="rotate(-106.749 359.601 276.427)" fill="#636363"/>
<circle cx="8.23274" cy="256.201" r="25" transform="rotate(96.1909 8.23274 256.201)" fill="#636363"/>
<circle cx="29.8636" cy="293.25" r="12.5" transform="rotate(96.1909 29.8636 293.25)" fill="#636363"/>
<circle cx="41.6747" cy="270.139" r="6.25" transform="rotate(96.1909 41.6747 270.139)" fill="#636363"/>
<path d="M334.482 337.73C335.322 337.73 335.908 337.223 335.908 336.246V332.242H335.967C336.523 333.424 337.695 334.166 339.219 334.166C341.836 334.166 343.457 332.135 343.457 328.766C343.457 325.387 341.826 323.365 339.17 323.365C337.656 323.365 336.494 324.127 335.928 325.357H335.869V324.791C335.869 323.824 335.283 323.316 334.463 323.316C333.643 323.316 333.057 323.824 333.057 324.781V336.246C333.057 337.223 333.652 337.73 334.482 337.73ZM338.213 331.871C336.816 331.871 335.898 330.66 335.898 328.766C335.898 326.891 336.816 325.65 338.213 325.65C339.639 325.65 340.537 326.871 340.537 328.766C340.537 330.67 339.639 331.871 338.213 331.871ZM346.357 334.205C347.227 334.205 347.783 333.668 347.783 332.721V328.072C347.783 326.832 348.242 326.1 349.541 326.08C350.098 326.07 350.508 325.943 350.781 325.709C351.055 325.475 351.191 325.133 351.191 324.684C351.191 324.195 351.055 323.844 350.781 323.629C350.576 323.453 350.273 323.365 349.893 323.365C348.848 323.365 347.988 324.137 347.715 325.436H347.656V324.752C347.656 323.844 347.109 323.316 346.309 323.316C345.488 323.316 344.932 323.844 344.932 324.752V332.721C344.932 333.668 345.498 334.205 346.357 334.205ZM356.68 334.225C358.701 334.225 360.322 333.463 361.016 332.174C361.143 331.939 361.211 331.705 361.211 331.48C361.211 330.826 360.713 330.436 360.098 330.436C359.727 330.436 359.473 330.543 359.17 330.855C358.398 331.764 357.715 332.115 356.67 332.115C355.225 332.115 354.287 331.1 354.287 329.547V329.42H360.264C361.055 329.42 361.504 328.971 361.504 328.18C361.504 325.338 359.512 323.307 356.543 323.307C353.447 323.307 351.484 325.445 351.484 328.814C351.484 332.203 353.408 334.225 356.68 334.225ZM354.316 327.672C354.414 326.334 355.322 325.416 356.572 325.416C357.822 325.416 358.701 326.305 358.76 327.672H354.316ZM367.246 334.225C370.01 334.225 371.875 332.877 371.875 330.797C371.875 329.234 370.957 328.414 368.73 327.945L367.002 327.574C365.957 327.35 365.547 326.988 365.547 326.441C365.547 325.768 366.221 325.309 367.188 325.309C368.213 325.309 368.779 325.797 369.277 326.432C369.531 326.734 369.941 326.871 370.312 326.871C371.045 326.871 371.406 326.471 371.406 325.895C371.406 325.758 371.377 325.621 371.338 325.475C370.996 324.293 369.404 323.307 367.236 323.307C364.521 323.307 362.793 324.596 362.793 326.598C362.793 328.15 363.828 329.195 365.879 329.635L367.637 330.006C368.662 330.23 369.023 330.533 369.023 331.1C369.023 331.793 368.35 332.223 367.314 332.223C366.23 332.223 365.586 331.891 365.029 331.158C364.639 330.719 364.248 330.514 363.789 330.514C363.125 330.514 362.637 330.953 362.637 331.607C362.637 331.764 362.676 331.949 362.744 332.135C363.242 333.365 364.844 334.225 367.246 334.225ZM378.105 334.225C380.127 334.225 381.748 333.463 382.441 332.174C382.568 331.939 382.637 331.705 382.637 331.48C382.637 330.826 382.139 330.436 381.523 330.436C381.152 330.436 380.898 330.543 380.596 330.855C379.824 331.764 379.141 332.115 378.096 332.115C376.65 332.115 375.713 331.1 375.713 329.547V329.42H381.689C382.48 329.42 382.93 328.971 382.93 328.18C382.93 325.338 380.938 323.307 377.969 323.307C374.873 323.307 372.91 325.445 372.91 328.814C372.91 332.203 374.834 334.225 378.105 334.225ZM375.742 327.672C375.84 326.334 376.748 325.416 377.998 325.416C379.248 325.416 380.127 326.305 380.186 327.672H375.742ZM385.83 334.205C386.67 334.205 387.256 333.697 387.256 332.721V327.994C387.256 326.637 388.066 325.699 389.346 325.699C390.625 325.699 391.27 326.48 391.27 327.848V332.721C391.27 333.697 391.855 334.205 392.695 334.205C393.525 334.205 394.121 333.697 394.121 332.721V327.252C394.121 324.801 392.812 323.336 390.488 323.336C388.877 323.336 387.822 324.049 387.266 325.348H387.207V324.762C387.207 323.863 386.641 323.316 385.781 323.316C384.922 323.316 384.404 323.863 384.404 324.752V332.721C384.404 333.697 385 334.205 385.83 334.205ZM396.689 331.324C396.689 333.17 397.656 334.117 399.561 334.117H399.658C400.859 334.117 401.68 333.688 401.68 332.848C401.68 332.184 401.299 331.891 400.596 331.812L400.41 331.793C399.795 331.744 399.541 331.432 399.541 330.689V325.68H400.547C401.221 325.68 401.641 325.26 401.641 324.605C401.641 323.951 401.221 323.531 400.547 323.531H399.541V322.369C399.541 321.451 399.004 320.885 398.115 320.885C397.227 320.885 396.689 321.451 396.689 322.369V323.531H396.143C395.469 323.531 395.039 323.941 395.039 324.605C395.039 325.27 395.469 325.68 396.143 325.68H396.689V331.324ZM406.035 334.166C407.344 334.166 408.652 333.512 409.238 332.398H409.297V332.936C409.355 333.775 409.893 334.205 410.664 334.205C411.475 334.205 412.051 333.717 412.051 332.77V326.803C412.051 324.693 410.303 323.307 407.617 323.307C405.449 323.307 403.77 324.078 403.281 325.328C403.184 325.543 403.135 325.748 403.135 325.973C403.135 326.617 403.633 327.066 404.326 327.066C404.785 327.066 405.146 326.891 405.459 326.539C406.094 325.719 406.621 325.436 407.49 325.436C408.564 325.436 409.248 326.002 409.248 326.979V327.672L406.611 327.828C403.994 327.984 402.529 329.088 402.529 330.992C402.529 332.877 404.043 334.166 406.035 334.166ZM406.973 332.105C406.016 332.105 405.371 331.617 405.371 330.836C405.371 330.094 405.977 329.615 407.041 329.537L409.248 329.4V330.162C409.248 331.295 408.223 332.105 406.973 332.105ZM414.658 331.324C414.658 333.17 415.625 334.117 417.529 334.117H417.627C418.828 334.117 419.648 333.688 419.648 332.848C419.648 332.184 419.268 331.891 418.564 331.812L418.379 331.793C417.764 331.744 417.51 331.432 417.51 330.689V325.68H418.516C419.189 325.68 419.609 325.26 419.609 324.605C419.609 323.951 419.189 323.531 418.516 323.531H417.51V322.369C417.51 321.451 416.973 320.885 416.084 320.885C415.195 320.885 414.658 321.451 414.658 322.369V323.531H414.111C413.438 323.531 413.008 323.941 413.008 324.605C413.008 325.27 413.438 325.68 414.111 325.68H414.658V331.324ZM422.48 322.232C423.34 322.232 424.004 321.578 424.004 320.758C424.004 319.928 423.34 319.283 422.48 319.283C421.621 319.283 420.957 319.928 420.957 320.758C420.957 321.578 421.621 322.232 422.48 322.232ZM422.48 334.205C423.359 334.205 423.906 333.648 423.906 332.721V324.811C423.906 323.883 423.359 323.316 422.48 323.316C421.592 323.316 421.055 323.883 421.055 324.811V332.721C421.055 333.648 421.592 334.205 422.48 334.205ZM430.615 334.225C433.779 334.225 435.801 332.203 435.801 328.756C435.801 325.357 433.75 323.307 430.615 323.307C427.48 323.307 425.43 325.367 425.43 328.756C425.43 332.193 427.451 334.225 430.615 334.225ZM430.615 332.047C429.209 332.047 428.32 330.865 428.32 328.766C428.32 326.686 429.229 325.484 430.615 325.484C432.002 325.484 432.9 326.686 432.9 328.766C432.9 330.865 432.012 332.047 430.615 332.047ZM438.701 334.205C439.541 334.205 440.127 333.697 440.127 332.721V327.994C440.127 326.637 440.938 325.699 442.217 325.699C443.496 325.699 444.141 326.48 444.141 327.848V332.721C444.141 333.697 444.727 334.205 445.566 334.205C446.396 334.205 446.992 333.697 446.992 332.721V327.252C446.992 324.801 445.684 323.336 443.359 323.336C441.748 323.336 440.693 324.049 440.137 325.348H440.078V324.762C440.078 323.863 439.512 323.316 438.652 323.316C437.793 323.316 437.275 323.863 437.275 324.752V332.721C437.275 333.697 437.871 334.205 438.701 334.205Z" fill="black"/>
<path d="M-55.5176 337.73C-54.6777 337.73 -54.0918 337.223 -54.0918 336.246V332.242H-54.0332C-53.4766 333.424 -52.3047 334.166 -50.7812 334.166C-48.1641 334.166 -46.543 332.135 -46.543 328.766C-46.543 325.387 -48.1738 323.365 -50.8301 323.365C-52.3438 323.365 -53.5059 324.127 -54.0723 325.357H-54.1309V324.791C-54.1309 323.824 -54.7168 323.316 -55.5371 323.316C-56.3574 323.316 -56.9434 323.824 -56.9434 324.781V336.246C-56.9434 337.223 -56.3477 337.73 -55.5176 337.73ZM-51.7871 331.871C-53.1836 331.871 -54.1016 330.66 -54.1016 328.766C-54.1016 326.891 -53.1836 325.65 -51.7871 325.65C-50.3613 325.65 -49.4629 326.871 -49.4629 328.766C-49.4629 330.67 -50.3613 331.871 -51.7871 331.871ZM-43.6426 334.205C-42.7734 334.205 -42.2168 333.668 -42.2168 332.721V328.072C-42.2168 326.832 -41.7578 326.1 -40.459 326.08C-39.9023 326.07 -39.4922 325.943 -39.2188 325.709C-38.9453 325.475 -38.8086 325.133 -38.8086 324.684C-38.8086 324.195 -38.9453 323.844 -39.2188 323.629C-39.4238 323.453 -39.7266 323.365 -40.1074 323.365C-41.1523 323.365 -42.0117 324.137 -42.2852 325.436H-42.3438V324.752C-42.3438 323.844 -42.8906 323.316 -43.6914 323.316C-44.5117 323.316 -45.0684 323.844 -45.0684 324.752V332.721C-45.0684 333.668 -44.502 334.205 -43.6426 334.205ZM-33.3203 334.225C-31.2988 334.225 -29.6777 333.463 -28.9844 332.174C-28.8574 331.939 -28.7891 331.705 -28.7891 331.48C-28.7891 330.826 -29.2871 330.436 -29.9023 330.436C-30.2734 330.436 -30.5273 330.543 -30.8301 330.855C-31.6016 331.764 -32.2852 332.115 -33.3301 332.115C-34.7754 332.115 -35.7129 331.1 -35.7129 329.547V329.42H-29.7363C-28.9453 329.42 -28.4961 328.971 -28.4961 328.18C-28.4961 325.338 -30.4883 323.307 -33.457 323.307C-36.5527 323.307 -38.5156 325.445 -38.5156 328.814C-38.5156 332.203 -36.5918 334.225 -33.3203 334.225ZM-35.6836 327.672C-35.5859 326.334 -34.6777 325.416 -33.4277 325.416C-32.1777 325.416 -31.2988 326.305 -31.2402 327.672H-35.6836ZM-22.7539 334.225C-19.9902 334.225 -18.125 332.877 -18.125 330.797C-18.125 329.234 -19.043 328.414 -21.2695 327.945L-22.998 327.574C-24.043 327.35 -24.4531 326.988 -24.4531 326.441C-24.4531 325.768 -23.7793 325.309 -22.8125 325.309C-21.7871 325.309 -21.2207 325.797 -20.7227 326.432C-20.4688 326.734 -20.0586 326.871 -19.6875 326.871C-18.9551 326.871 -18.5938 326.471 -18.5938 325.895C-18.5938 325.758 -18.623 325.621 -18.6621 325.475C-19.0039 324.293 -20.5957 323.307 -22.7637 323.307C-25.4785 323.307 -27.207 324.596 -27.207 326.598C-27.207 328.15 -26.1719 329.195 -24.1211 329.635L-22.3633 330.006C-21.3379 330.23 -20.9766 330.533 -20.9766 331.1C-20.9766 331.793 -21.6504 332.223 -22.6855 332.223C-23.7695 332.223 -24.4141 331.891 -24.9707 331.158C-25.3613 330.719 -25.752 330.514 -26.2109 330.514C-26.875 330.514 -27.3633 330.953 -27.3633 331.607C-27.3633 331.764 -27.3242 331.949 -27.2559 332.135C-26.7578 333.365 -25.1562 334.225 -22.7539 334.225ZM-11.8945 334.225C-9.87305 334.225 -8.25195 333.463 -7.55859 332.174C-7.43164 331.939 -7.36328 331.705 -7.36328 331.48C-7.36328 330.826 -7.86133 330.436 -8.47656 330.436C-8.84766 330.436 -9.10156 330.543 -9.4043 330.855C-10.1758 331.764 -10.8594 332.115 -11.9043 332.115C-13.3496 332.115 -14.2871 331.1 -14.2871 329.547V329.42H-8.31055C-7.51953 329.42 -7.07031 328.971 -7.07031 328.18C-7.07031 325.338 -9.0625 323.307 -12.0312 323.307C-15.127 323.307 -17.0898 325.445 -17.0898 328.814C-17.0898 332.203 -15.166 334.225 -11.8945 334.225ZM-14.2578 327.672C-14.1602 326.334 -13.252 325.416 -12.002 325.416C-10.752 325.416 -9.87305 326.305 -9.81445 327.672H-14.2578ZM-4.16992 334.205C-3.33008 334.205 -2.74414 333.697 -2.74414 332.721V327.994C-2.74414 326.637 -1.93359 325.699 -0.654297 325.699C0.625 325.699 1.26953 326.48 1.26953 327.848V332.721C1.26953 333.697 1.85547 334.205 2.69531 334.205C3.52539 334.205 4.12109 333.697 4.12109 332.721V327.252C4.12109 324.801 2.8125 323.336 0.488281 323.336C-1.12305 323.336 -2.17773 324.049 -2.73438 325.348H-2.79297V324.762C-2.79297 323.863 -3.35938 323.316 -4.21875 323.316C-5.07812 323.316 -5.5957 323.863 -5.5957 324.752V332.721C-5.5957 333.697 -5 334.205 -4.16992 334.205ZM6.68945 331.324C6.68945 333.17 7.65625 334.117 9.56055 334.117H9.6582C10.8594 334.117 11.6797 333.688 11.6797 332.848C11.6797 332.184 11.2988 331.891 10.5957 331.812L10.4102 331.793C9.79492 331.744 9.54102 331.432 9.54102 330.689V325.68H10.5469C11.2207 325.68 11.6406 325.26 11.6406 324.605C11.6406 323.951 11.2207 323.531 10.5469 323.531H9.54102V322.369C9.54102 321.451 9.00391 320.885 8.11523 320.885C7.22656 320.885 6.68945 321.451 6.68945 322.369V323.531H6.14258C5.46875 323.531 5.03906 323.941 5.03906 324.605C5.03906 325.27 5.46875 325.68 6.14258 325.68H6.68945V331.324ZM16.0352 334.166C17.3438 334.166 18.6523 333.512 19.2383 332.398H19.2969V332.936C19.3555 333.775 19.8926 334.205 20.6641 334.205C21.4746 334.205 22.0508 333.717 22.0508 332.77V326.803C22.0508 324.693 20.3027 323.307 17.6172 323.307C15.4492 323.307 13.7695 324.078 13.2812 325.328C13.1836 325.543 13.1348 325.748 13.1348 325.973C13.1348 326.617 13.6328 327.066 14.3262 327.066C14.7852 327.066 15.1465 326.891 15.459 326.539C16.0938 325.719 16.6211 325.436 17.4902 325.436C18.5645 325.436 19.248 326.002 19.248 326.979V327.672L16.6113 327.828C13.9941 327.984 12.5293 329.088 12.5293 330.992C12.5293 332.877 14.043 334.166 16.0352 334.166ZM16.9727 332.105C16.0156 332.105 15.3711 331.617 15.3711 330.836C15.3711 330.094 15.9766 329.615 17.041 329.537L19.248 329.4V330.162C19.248 331.295 18.2227 332.105 16.9727 332.105ZM24.6582 331.324C24.6582 333.17 25.625 334.117 27.5293 334.117H27.627C28.8281 334.117 29.6484 333.688 29.6484 332.848C29.6484 332.184 29.2676 331.891 28.5645 331.812L28.3789 331.793C27.7637 331.744 27.5098 331.432 27.5098 330.689V325.68H28.5156C29.1895 325.68 29.6094 325.26 29.6094 324.605C29.6094 323.951 29.1895 323.531 28.5156 323.531H27.5098V322.369C27.5098 321.451 26.9727 320.885 26.084 320.885C25.1953 320.885 24.6582 321.451 24.6582 322.369V323.531H24.1113C23.4375 323.531 23.0078 323.941 23.0078 324.605C23.0078 325.27 23.4375 325.68 24.1113 325.68H24.6582V331.324ZM32.4805 322.232C33.3398 322.232 34.0039 321.578 34.0039 320.758C34.0039 319.928 33.3398 319.283 32.4805 319.283C31.6211 319.283 30.957 319.928 30.957 320.758C30.957 321.578 31.6211 322.232 32.4805 322.232ZM32.4805 334.205C33.3594 334.205 33.9062 333.648 33.9062 332.721V324.811C33.9062 323.883 33.3594 323.316 32.4805 323.316C31.5918 323.316 31.0547 323.883 31.0547 324.811V332.721C31.0547 333.648 31.5918 334.205 32.4805 334.205ZM40.6152 334.225C43.7793 334.225 45.8008 332.203 45.8008 328.756C45.8008 325.357 43.75 323.307 40.6152 323.307C37.4805 323.307 35.4297 325.367 35.4297 328.756C35.4297 332.193 37.4512 334.225 40.6152 334.225ZM40.6152 332.047C39.209 332.047 38.3203 330.865 38.3203 328.766C38.3203 326.686 39.2285 325.484 40.6152 325.484C42.002 325.484 42.9004 326.686 42.9004 328.766C42.9004 330.865 42.0117 332.047 40.6152 332.047ZM48.7012 334.205C49.541 334.205 50.127 333.697 50.127 332.721V327.994C50.127 326.637 50.9375 325.699 52.2168 325.699C53.4961 325.699 54.1406 326.48 54.1406 327.848V332.721C54.1406 333.697 54.7266 334.205 55.5664 334.205C56.3965 334.205 56.9922 333.697 56.9922 332.721V327.252C56.9922 324.801 55.6836 323.336 53.3594 323.336C51.748 323.336 50.6934 324.049 50.1367 325.348H50.0781V324.762C50.0781 323.863 49.5117 323.316 48.6523 323.316C47.793 323.316 47.2754 323.863 47.2754 324.752V332.721C47.2754 333.697 47.8711 334.205 48.7012 334.205Z" fill="black"/>
<path d="M230.066 350.176C231.404 350.176 232.713 349.453 233.308 348.311H233.357V349.18C233.377 349.805 233.777 350.186 234.363 350.186C234.959 350.186 235.379 349.785 235.379 349.121V342.92C235.379 340.859 233.787 339.541 231.297 339.541C229.451 339.541 227.898 340.283 227.361 341.445C227.234 341.68 227.175 341.914 227.175 342.129C227.175 342.656 227.556 343.008 228.084 343.008C228.455 343.008 228.728 342.871 228.943 342.559C229.529 341.621 230.203 341.26 231.218 341.26C232.507 341.26 233.279 341.943 233.279 343.086V343.877L230.457 344.043C228.025 344.18 226.638 345.283 226.638 347.08C226.638 348.926 228.054 350.176 230.066 350.176ZM230.642 348.506C229.519 348.506 228.767 347.92 228.767 347.021C228.767 346.143 229.48 345.586 230.74 345.498L233.279 345.342V346.152C233.279 347.49 232.117 348.506 230.642 348.506ZM241.207 350.176C242.808 350.176 243.892 349.375 244.42 348.174H244.449V349.131C244.449 349.795 244.927 350.186 245.523 350.186C246.138 350.186 246.568 349.795 246.568 349.131V336.836C246.568 336.143 246.129 335.723 245.513 335.723C244.888 335.723 244.449 336.143 244.449 336.836V341.436H244.41C243.834 340.303 242.662 339.561 241.187 339.561C238.609 339.561 236.89 341.621 236.89 344.863C236.89 348.105 238.609 350.176 241.207 350.176ZM241.763 348.389C240.094 348.389 239.049 347.031 239.049 344.863C239.049 342.705 240.094 341.338 241.763 341.338C243.385 341.338 244.469 342.734 244.469 344.863C244.469 347.012 243.385 348.389 241.763 348.389ZM252.514 350.176C254.115 350.176 255.199 349.375 255.726 348.174H255.756V349.131C255.756 349.795 256.234 350.186 256.83 350.186C257.445 350.186 257.875 349.795 257.875 349.131V336.836C257.875 336.143 257.435 335.723 256.82 335.723C256.195 335.723 255.756 336.143 255.756 336.836V341.436H255.717C255.14 340.303 253.969 339.561 252.494 339.561C249.916 339.561 248.197 341.621 248.197 344.863C248.197 348.105 249.916 350.176 252.514 350.176ZM253.07 348.389C251.4 348.389 250.355 347.031 250.355 344.863C250.355 342.705 251.4 341.338 253.07 341.338C254.691 341.338 255.775 342.734 255.775 344.863C255.775 347.012 254.691 348.389 253.07 348.389ZM264.561 347.539C264.561 349.238 265.439 350.088 267.168 350.088H267.275C268.311 350.088 268.799 349.766 268.799 349.131C268.799 348.633 268.496 348.389 267.891 348.33L267.725 348.32C266.963 348.262 266.68 347.891 266.68 347.07V341.396H267.881C268.428 341.396 268.76 341.084 268.76 340.566C268.76 340.049 268.428 339.727 267.881 339.727H266.68V338.203C266.68 337.529 266.26 337.08 265.625 337.08C264.98 337.08 264.561 337.529 264.561 338.203V339.727H263.818C263.271 339.727 262.939 340.039 262.939 340.566C262.939 341.084 263.271 341.396 263.818 341.396H264.561V347.539ZM273.143 350.176C274.481 350.176 275.789 349.453 276.385 348.311H276.434V349.18C276.453 349.805 276.854 350.186 277.44 350.186C278.035 350.186 278.455 349.785 278.455 349.121V342.92C278.455 340.859 276.863 339.541 274.373 339.541C272.527 339.541 270.975 340.283 270.438 341.445C270.311 341.68 270.252 341.914 270.252 342.129C270.252 342.656 270.633 343.008 271.16 343.008C271.531 343.008 271.805 342.871 272.02 342.559C272.606 341.621 273.279 341.26 274.295 341.26C275.584 341.26 276.356 341.943 276.356 343.086V343.877L273.533 344.043C271.102 344.18 269.715 345.283 269.715 347.08C269.715 348.926 271.131 350.176 273.143 350.176ZM273.719 348.506C272.596 348.506 271.844 347.92 271.844 347.021C271.844 346.143 272.557 345.586 273.816 345.498L276.356 345.342V346.152C276.356 347.49 275.193 348.506 273.719 348.506ZM284.215 350.195C286.754 350.195 288.463 348.926 288.463 347.021C288.463 345.498 287.633 344.727 285.475 344.229L283.883 343.857C282.799 343.604 282.301 343.154 282.301 342.51C282.301 341.709 283.082 341.152 284.215 341.152C285.25 341.152 285.875 341.562 286.334 342.344C286.539 342.676 286.842 342.793 287.184 342.793C287.711 342.793 288.004 342.48 288.004 342.012C288.004 341.914 287.985 341.816 287.965 341.699C287.672 340.488 286.149 339.541 284.293 339.541C281.852 339.541 280.24 340.771 280.24 342.627C280.24 344.092 281.217 345.068 283.209 345.537L284.83 345.918C285.934 346.182 286.334 346.543 286.334 347.217C286.334 348.066 285.524 348.584 284.322 348.584C283.102 348.584 282.486 348.213 281.959 347.383C281.695 346.992 281.393 346.826 281.041 346.826C280.514 346.826 280.133 347.139 280.133 347.666C280.133 347.803 280.153 347.949 280.221 348.105C280.709 349.365 282.194 350.195 284.215 350.195ZM291.147 350.186C291.762 350.186 292.201 349.766 292.201 349.072V346.328L293.139 345.449L296.547 349.668C296.83 350.059 297.065 350.186 297.455 350.186C298.022 350.186 298.442 349.795 298.442 349.258C298.442 348.994 298.383 348.799 298.158 348.516L294.672 344.199L297.846 341.191C298.119 340.938 298.207 340.742 298.207 340.439C298.207 339.941 297.807 339.541 297.289 339.541C296.977 339.541 296.752 339.648 296.489 339.932L292.221 344.111H292.201V336.836C292.201 336.143 291.762 335.723 291.147 335.723C290.531 335.723 290.092 336.143 290.092 336.836V349.072C290.092 349.766 290.531 350.186 291.147 350.186ZM245.618 374.186C246.233 374.186 246.673 373.766 246.673 373.072V368.062C246.673 366.441 247.63 365.367 249.192 365.367C250.677 365.367 251.438 366.275 251.438 367.789V373.072C251.438 373.766 251.878 374.186 252.493 374.186C253.118 374.186 253.558 373.766 253.558 373.072V367.379C253.558 365.055 252.21 363.551 249.954 363.551C248.391 363.551 247.268 364.244 246.702 365.445H246.653V360.816C246.653 360.152 246.263 359.723 245.608 359.723C244.964 359.723 244.563 360.152 244.563 360.816V373.072C244.563 373.766 245.003 374.186 245.618 374.186ZM259.972 374.195C261.886 374.195 263.38 373.424 264.054 372.076C264.142 371.871 264.2 371.676 264.2 371.51C264.2 370.982 263.829 370.65 263.321 370.65C263.019 370.65 262.804 370.758 262.579 371.021C261.798 372.086 261.075 372.486 259.923 372.486C258.243 372.486 257.188 371.314 257.188 369.439V369.391H263.399C264.054 369.391 264.444 369 264.444 368.316C264.444 365.514 262.56 363.541 259.825 363.541C256.915 363.541 255.06 365.65 255.06 368.912C255.06 372.232 256.876 374.195 259.972 374.195ZM257.198 367.916C257.306 366.314 258.36 365.24 259.815 365.24C261.28 365.24 262.286 366.305 262.335 367.916H257.198ZM267.06 374.186C267.685 374.186 268.114 373.756 268.114 373.072V367.828C268.114 366.549 268.7 365.582 270.146 365.572C270.585 365.572 270.897 365.484 271.112 365.299C271.317 365.133 271.425 364.889 271.425 364.557C271.425 364.225 271.337 363.971 271.142 363.814C270.966 363.648 270.683 363.561 270.312 363.561C269.286 363.561 268.339 364.332 268.056 365.484H268.007V364.605C268.007 363.961 267.597 363.541 267.011 363.541C266.415 363.541 266.005 363.961 266.005 364.605V373.072C266.005 373.756 266.425 374.186 267.06 374.186ZM276.491 374.195C278.405 374.195 279.9 373.424 280.573 372.076C280.661 371.871 280.72 371.676 280.72 371.51C280.72 370.982 280.349 370.65 279.841 370.65C279.538 370.65 279.323 370.758 279.099 371.021C278.318 372.086 277.595 372.486 276.443 372.486C274.763 372.486 273.708 371.314 273.708 369.439V369.391H279.919C280.573 369.391 280.964 369 280.964 368.316C280.964 365.514 279.079 363.541 276.345 363.541C273.435 363.541 271.579 365.65 271.579 368.912C271.579 372.232 273.396 374.195 276.491 374.195ZM273.718 367.916C273.825 366.314 274.88 365.24 276.335 365.24C277.8 365.24 278.806 366.305 278.855 367.916H273.718Z" fill="black"/>
<path d="M41.9375 190.297C43.4219 190.297 44.2969 189.391 44.2969 187.844V181.578L51.1719 170.938C51.5156 170.391 51.6719 169.875 51.6719 169.328C51.6719 168.078 50.6719 167.141 49.3438 167.141C48.4062 167.141 47.7969 167.562 47.2031 168.594L42.0312 177.078H41.9219L36.7656 168.594C36.1406 167.516 35.5938 167.141 34.5781 167.141C33.2188 167.141 32.2188 168.078 32.2188 169.359C32.2188 169.891 32.3594 170.422 32.7031 170.953L39.5781 181.578V187.844C39.5781 189.391 40.4531 190.297 41.9375 190.297ZM58.3125 190.359C63.375 190.359 66.6094 187.125 66.6094 181.609C66.6094 176.172 63.3281 172.891 58.3125 172.891C53.2969 172.891 50.0156 176.188 50.0156 181.609C50.0156 187.109 53.25 190.359 58.3125 190.359ZM58.3125 186.875C56.0625 186.875 54.6406 184.984 54.6406 181.625C54.6406 178.297 56.0938 176.375 58.3125 176.375C60.5312 176.375 61.9688 178.297 61.9688 181.625C61.9688 184.984 60.5469 186.875 58.3125 186.875ZM74.9219 190.312C77.4531 190.312 79.1094 189.094 79.9375 186.984H80.0312V188.016C80.0312 189.531 80.9219 190.328 82.2344 190.328C83.5469 190.328 84.4375 189.531 84.4375 188.016V175.297C84.4375 173.734 83.5 172.906 82.1562 172.906C80.8281 172.906 79.875 173.734 79.875 175.297V182.844C79.875 185.062 78.6094 186.516 76.5781 186.516C74.5625 186.516 73.4531 185.328 73.4531 183.094V175.297C73.4531 173.734 72.5156 172.906 71.1719 172.906C69.8438 172.906 68.8906 173.734 68.8906 175.297V184.047C68.8906 187.953 71.2969 190.312 74.9219 190.312ZM89.6875 190.328C91.0781 190.328 91.9688 189.469 91.9688 187.953V180.516C91.9688 178.531 92.7031 177.359 94.7812 177.328C95.6719 177.312 96.3281 177.109 96.7656 176.734C97.2031 176.359 97.4219 175.812 97.4219 175.094C97.4219 174.312 97.2031 173.75 96.7656 173.406C96.4375 173.125 95.9531 172.984 95.3438 172.984C93.6719 172.984 92.2969 174.219 91.8594 176.297H91.7656V175.203C91.7656 173.75 90.8906 172.906 89.6094 172.906C88.2969 172.906 87.4062 173.75 87.4062 175.203V187.953C87.4062 189.469 88.3125 190.328 89.6875 190.328ZM108.156 190.297C109.641 190.297 110.516 189.391 110.516 187.844V181.125H117.938C119.172 181.125 119.953 180.422 119.953 179.25C119.953 178.094 119.156 177.391 117.938 177.391H110.516V171.359H118.703C119.984 171.359 120.844 170.625 120.844 169.406C120.844 168.188 120 167.453 118.703 167.453H108.156C106.672 167.453 105.797 168.359 105.797 169.906V187.844C105.797 189.391 106.672 190.297 108.156 190.297ZM125.359 190.328C126.703 190.328 127.641 189.516 127.641 187.953V169.5C127.641 167.938 126.703 167.109 125.359 167.109C124.031 167.109 123.078 167.938 123.078 169.5V187.953C123.078 189.516 124.031 190.328 125.359 190.328ZM138.406 190.359C143.469 190.359 146.703 187.125 146.703 181.609C146.703 176.172 143.422 172.891 138.406 172.891C133.391 172.891 130.109 176.188 130.109 181.609C130.109 187.109 133.344 190.359 138.406 190.359ZM138.406 186.875C136.156 186.875 134.734 184.984 134.734 181.625C134.734 178.297 136.188 176.375 138.406 176.375C140.625 176.375 142.062 178.297 142.062 181.625C142.062 184.984 140.641 186.875 138.406 186.875ZM154.531 190.328C156.156 190.328 157.062 189.594 157.453 187.938L159.984 178.156H160.078L162.625 187.906C163.016 189.609 163.906 190.328 165.578 190.328C167.156 190.328 168.031 189.578 168.5 187.922L171.875 176.234C172.047 175.641 172.125 175.266 172.125 174.844C172.125 173.703 171.234 172.906 169.969 172.906C168.844 172.906 168.109 173.594 167.859 174.812L165.359 185.672H165.266L162.656 175C162.359 173.641 161.469 172.906 160.109 172.906C158.719 172.906 157.828 173.641 157.531 175L154.938 185.672H154.844L152.359 174.844C152.094 173.594 151.359 172.906 150.219 172.906C148.938 172.906 148.016 173.719 148.016 174.859C148.016 175.297 148.094 175.672 148.266 176.266L151.641 187.938C152.125 189.594 152.953 190.328 154.531 190.328Z" fill="black"/>
<path d="M166.336 402.176C168.621 402.176 170.159 401.033 170.159 399.319C170.159 397.948 169.412 397.254 167.469 396.806L166.037 396.472C165.061 396.243 164.613 395.839 164.613 395.259C164.613 394.538 165.316 394.037 166.336 394.037C167.267 394.037 167.83 394.406 168.243 395.109C168.427 395.408 168.7 395.514 169.007 395.514C169.482 395.514 169.746 395.232 169.746 394.811C169.746 394.723 169.728 394.635 169.711 394.529C169.447 393.439 168.076 392.587 166.406 392.587C164.209 392.587 162.758 393.694 162.758 395.364C162.758 396.683 163.637 397.562 165.43 397.983L166.889 398.326C167.882 398.563 168.243 398.889 168.243 399.495C168.243 400.26 167.513 400.726 166.432 400.726C165.334 400.726 164.78 400.392 164.305 399.645C164.068 399.293 163.796 399.144 163.479 399.144C163.005 399.144 162.662 399.425 162.662 399.899C162.662 400.022 162.679 400.154 162.741 400.295C163.18 401.429 164.516 402.176 166.336 402.176ZM174.306 402.167C174.948 402.167 175.344 401.859 175.519 401.209L177.233 395.074H177.277L179.009 401.209C179.184 401.886 179.553 402.167 180.213 402.167C180.837 402.167 181.223 401.859 181.408 401.209L183.517 393.94C183.579 393.721 183.605 393.562 183.605 393.404C183.605 392.912 183.245 392.587 182.691 392.587C182.217 392.587 181.944 392.842 181.821 393.378L180.16 400.031H180.116L178.349 393.448C178.218 392.886 177.848 392.587 177.277 392.587C176.697 392.587 176.319 392.886 176.187 393.448L174.429 400.031H174.394L172.733 393.378C172.61 392.842 172.329 392.587 171.854 392.587C171.301 392.587 170.931 392.912 170.931 393.404C170.931 393.562 170.958 393.729 171.028 393.94L173.137 401.209C173.331 401.877 173.682 402.167 174.306 402.167ZM185.819 391.356C186.434 391.356 186.927 390.864 186.927 390.267C186.927 389.66 186.434 389.186 185.819 389.186C185.213 389.186 184.721 389.66 184.721 390.267C184.721 390.864 185.213 391.356 185.819 391.356ZM185.819 402.167C186.39 402.167 186.768 401.771 186.768 401.165V393.598C186.768 392.982 186.39 392.587 185.819 392.587C185.248 392.587 184.87 392.982 184.87 393.598V401.165C184.87 401.771 185.248 402.167 185.819 402.167ZM189.58 405.278C190.134 405.278 190.529 404.892 190.529 404.268V400.479H190.573C191.101 401.508 192.155 402.158 193.482 402.158C195.803 402.158 197.341 400.304 197.341 397.377C197.341 394.45 195.794 392.604 193.447 392.604C192.111 392.604 191.048 393.281 190.503 394.345H190.468V393.562C190.468 392.956 190.081 392.587 189.545 392.587C189.009 392.587 188.631 392.956 188.631 393.562V404.268C188.631 404.892 189.018 405.278 189.58 405.278ZM192.946 400.55C191.487 400.55 190.52 399.302 190.52 397.377C190.52 395.47 191.496 394.204 192.946 394.204C194.449 394.204 195.39 395.443 195.39 397.377C195.39 399.319 194.449 400.55 192.946 400.55ZM202.736 402.176C204.459 402.176 205.804 401.481 206.41 400.269C206.489 400.084 206.542 399.908 206.542 399.759C206.542 399.284 206.208 398.985 205.751 398.985C205.479 398.985 205.285 399.082 205.083 399.319C204.38 400.277 203.729 400.638 202.692 400.638C201.181 400.638 200.231 399.583 200.231 397.896V397.852H205.821C206.41 397.852 206.762 397.5 206.762 396.885C206.762 394.362 205.065 392.587 202.604 392.587C199.985 392.587 198.315 394.485 198.315 397.421C198.315 400.409 199.95 402.176 202.736 402.176ZM200.24 396.524C200.337 395.083 201.286 394.116 202.596 394.116C203.914 394.116 204.819 395.074 204.863 396.524H200.24ZM212.288 399.785C212.288 401.314 213.079 402.079 214.635 402.079H214.732C215.663 402.079 216.103 401.789 216.103 401.218C216.103 400.77 215.83 400.55 215.285 400.497L215.136 400.488C214.45 400.436 214.195 400.102 214.195 399.363V394.257H215.277C215.769 394.257 216.068 393.976 216.068 393.51C216.068 393.044 215.769 392.754 215.277 392.754H214.195V391.383C214.195 390.776 213.818 390.372 213.246 390.372C212.666 390.372 212.288 390.776 212.288 391.383V392.754H211.62C211.128 392.754 210.829 393.035 210.829 393.51C210.829 393.976 211.128 394.257 211.62 394.257H212.288V399.785ZM221.182 402.176C223.827 402.176 225.568 400.356 225.568 397.377C225.568 394.406 223.819 392.587 221.182 392.587C218.545 392.587 216.796 394.406 216.796 397.377C216.796 400.356 218.536 402.176 221.182 402.176ZM221.182 400.611C219.697 400.611 218.73 399.434 218.73 397.377C218.73 395.329 219.697 394.151 221.182 394.151C222.667 394.151 223.634 395.329 223.634 397.377C223.634 399.434 222.676 400.611 221.182 400.611ZM144.088 423.167C144.642 423.167 145.038 422.789 145.038 422.165V417.612C145.038 416.18 145.899 415.23 147.235 415.23C148.553 415.23 149.204 415.995 149.204 417.384V422.165C149.204 422.789 149.599 423.167 150.153 423.167C150.715 423.167 151.111 422.789 151.111 422.165V417.015C151.111 414.896 149.942 413.596 147.903 413.596C146.479 413.596 145.512 414.229 145.011 415.283H144.967V414.554C144.967 413.965 144.589 413.587 144.044 413.587C143.491 413.587 143.139 413.965 143.139 414.545V422.165C143.139 422.789 143.526 423.167 144.088 423.167ZM155.575 423.158C156.779 423.158 157.957 422.508 158.493 421.479H158.537V422.262C158.554 422.824 158.915 423.167 159.442 423.167C159.978 423.167 160.356 422.807 160.356 422.209V416.628C160.356 414.773 158.923 413.587 156.682 413.587C155.021 413.587 153.624 414.255 153.14 415.301C153.026 415.512 152.973 415.723 152.973 415.916C152.973 416.391 153.316 416.707 153.791 416.707C154.125 416.707 154.371 416.584 154.564 416.303C155.091 415.459 155.698 415.134 156.612 415.134C157.772 415.134 158.466 415.749 158.466 416.777V417.489L155.926 417.639C153.738 417.762 152.49 418.755 152.49 420.372C152.49 422.033 153.764 423.158 155.575 423.158ZM156.093 421.655C155.083 421.655 154.406 421.128 154.406 420.319C154.406 419.528 155.047 419.027 156.181 418.948L158.466 418.808V419.537C158.466 420.741 157.42 421.655 156.093 421.655ZM165.664 423.167C166.314 423.167 166.718 422.868 166.964 422.2L169.707 414.958C169.768 414.8 169.803 414.615 169.803 414.448C169.803 413.947 169.417 413.587 168.872 413.587C168.441 413.587 168.142 413.824 167.984 414.316L165.69 421.146H165.655L163.361 414.334C163.203 413.824 162.904 413.587 162.464 413.587C161.911 413.587 161.506 413.93 161.506 414.457C161.506 414.633 161.55 414.817 161.612 414.984L164.354 422.2C164.618 422.886 164.987 423.167 165.664 423.167ZM172.017 412.356C172.633 412.356 173.125 411.864 173.125 411.267C173.125 410.66 172.633 410.186 172.017 410.186C171.411 410.186 170.919 410.66 170.919 411.267C170.919 411.864 171.411 412.356 172.017 412.356ZM172.017 423.167C172.589 423.167 172.967 422.771 172.967 422.165V414.598C172.967 413.982 172.589 413.587 172.017 413.587C171.446 413.587 171.068 413.982 171.068 414.598V422.165C171.068 422.771 171.446 423.167 172.017 423.167ZM178.705 426.48C181.456 426.507 183.135 425.03 183.135 422.745V414.562C183.135 413.947 182.73 413.587 182.185 413.587C181.64 413.587 181.227 413.947 181.227 414.562V415.31H181.192C180.63 414.264 179.61 413.604 178.301 413.604C175.91 413.604 174.416 415.406 174.416 418.298C174.416 421.154 175.928 422.974 178.257 422.974C179.575 422.974 180.665 422.314 181.183 421.312H181.227V422.78C181.227 424.072 180.287 424.951 178.74 424.934C177.835 424.916 177.184 424.573 176.429 423.782C176.174 423.527 175.989 423.431 175.699 423.431C175.216 423.431 174.89 423.747 174.89 424.187C174.89 424.406 174.943 424.6 175.066 424.811C175.699 425.812 177.026 426.463 178.705 426.48ZM178.766 421.427C177.307 421.427 176.358 420.24 176.358 418.307C176.358 416.382 177.307 415.169 178.766 415.169C180.252 415.169 181.236 416.417 181.236 418.315C181.236 420.214 180.252 421.427 178.766 421.427ZM187.634 423.158C188.838 423.158 190.016 422.508 190.552 421.479H190.596V422.262C190.613 422.824 190.974 423.167 191.501 423.167C192.037 423.167 192.415 422.807 192.415 422.209V416.628C192.415 414.773 190.982 413.587 188.741 413.587C187.08 413.587 185.682 414.255 185.199 415.301C185.085 415.512 185.032 415.723 185.032 415.916C185.032 416.391 185.375 416.707 185.849 416.707C186.183 416.707 186.43 416.584 186.623 416.303C187.15 415.459 187.757 415.134 188.671 415.134C189.831 415.134 190.525 415.749 190.525 416.777V417.489L187.985 417.639C185.797 417.762 184.549 418.755 184.549 420.372C184.549 422.033 185.823 423.158 187.634 423.158ZM188.152 421.655C187.141 421.655 186.465 421.128 186.465 420.319C186.465 419.528 187.106 419.027 188.24 418.948L190.525 418.808V419.537C190.525 420.741 189.479 421.655 188.152 421.655ZM194.734 420.785C194.734 422.314 195.525 423.079 197.081 423.079H197.178C198.109 423.079 198.549 422.789 198.549 422.218C198.549 421.77 198.276 421.55 197.731 421.497L197.582 421.488C196.896 421.436 196.642 421.102 196.642 420.363V415.257H197.723C198.215 415.257 198.514 414.976 198.514 414.51C198.514 414.044 198.215 413.754 197.723 413.754H196.642V412.383C196.642 411.776 196.264 411.372 195.692 411.372C195.112 411.372 194.734 411.776 194.734 412.383V413.754H194.066C193.574 413.754 193.275 414.035 193.275 414.51C193.275 414.976 193.574 415.257 194.066 415.257H194.734V420.785ZM203.663 423.176C205.386 423.176 206.731 422.481 207.337 421.269C207.416 421.084 207.469 420.908 207.469 420.759C207.469 420.284 207.135 419.985 206.678 419.985C206.405 419.985 206.212 420.082 206.01 420.319C205.307 421.277 204.656 421.638 203.619 421.638C202.107 421.638 201.158 420.583 201.158 418.896V418.852H206.748C207.337 418.852 207.689 418.5 207.689 417.885C207.689 415.362 205.992 413.587 203.531 413.587C200.912 413.587 199.242 415.485 199.242 418.421C199.242 421.409 200.877 423.176 203.663 423.176ZM201.167 417.524C201.264 416.083 202.213 415.116 203.522 415.116C204.841 415.116 205.746 416.074 205.79 417.524H201.167ZM213.804 426.445C215.518 426.445 216.388 425.689 217.205 423.466L220.413 414.984C220.475 414.8 220.51 414.606 220.51 414.457C220.51 413.947 220.132 413.587 219.587 413.587C219.104 413.587 218.84 413.798 218.682 414.316L216.318 421.277H216.291L213.936 414.316C213.769 413.789 213.496 413.587 213.022 413.587C212.468 413.587 212.055 413.947 212.055 414.466C212.055 414.615 212.09 414.809 212.16 415.002L215.254 423.097L215.078 423.633C214.736 424.582 214.199 424.872 213.672 424.872C213.452 424.872 213.382 424.863 213.18 424.863C212.723 424.863 212.442 425.127 212.442 425.531C212.442 426.12 212.925 426.445 213.804 426.445ZM225.413 423.176C228.059 423.176 229.799 421.356 229.799 418.377C229.799 415.406 228.05 413.587 225.413 413.587C222.777 413.587 221.028 415.406 221.028 418.377C221.028 421.356 222.768 423.176 225.413 423.176ZM225.413 421.611C223.928 421.611 222.961 420.434 222.961 418.377C222.961 416.329 223.928 415.151 225.413 415.151C226.899 415.151 227.866 416.329 227.866 418.377C227.866 420.434 226.908 421.611 225.413 421.611ZM234.386 423.167C235.801 423.167 236.742 422.543 237.251 421.436H237.295V422.209C237.295 422.789 237.664 423.167 238.209 423.167C238.754 423.167 239.115 422.789 239.115 422.2V414.598C239.115 413.965 238.728 413.587 238.165 413.587C237.612 413.587 237.216 413.965 237.216 414.598V419.142C237.216 420.583 236.39 421.532 235.019 421.532C233.709 421.532 233.041 420.776 233.041 419.37V414.598C233.041 413.965 232.646 413.587 232.092 413.587C231.53 413.587 231.143 413.965 231.143 414.598V419.739C231.143 421.857 232.373 423.167 234.386 423.167ZM241.865 423.167C242.427 423.167 242.814 422.78 242.814 422.165V417.445C242.814 416.294 243.341 415.424 244.642 415.415C245.038 415.415 245.319 415.336 245.512 415.169C245.697 415.02 245.793 414.8 245.793 414.501C245.793 414.202 245.714 413.974 245.539 413.833C245.38 413.684 245.125 413.604 244.791 413.604C243.869 413.604 243.016 414.299 242.761 415.336H242.717V414.545C242.717 413.965 242.348 413.587 241.821 413.587C241.285 413.587 240.915 413.965 240.915 414.545V422.165C240.915 422.78 241.293 423.167 241.865 423.167ZM180.137 444.167C180.708 444.167 181.086 443.807 181.086 443.174V436.257H182.308C182.756 436.257 183.063 435.993 183.063 435.519C183.063 435.062 182.756 434.771 182.308 434.771H181.059V433.937C181.059 433.093 181.393 432.715 182.193 432.706C182.387 432.706 182.545 432.68 182.677 432.645C182.984 432.557 183.134 432.372 183.134 432.064C183.134 431.555 182.65 431.229 181.64 431.229C180.049 431.238 179.179 432.073 179.179 433.866V434.771H178.519C178.071 434.771 177.764 435.062 177.764 435.519C177.764 435.993 178.071 436.257 178.519 436.257H179.179V443.174C179.179 443.807 179.557 444.167 180.137 444.167ZM185.365 444.167C185.919 444.167 186.314 443.789 186.314 443.165V432.152C186.314 431.528 185.919 431.15 185.365 431.15C184.811 431.15 184.416 431.528 184.416 432.152V443.165C184.416 443.789 184.811 444.167 185.365 444.167ZM192.158 444.176C194.804 444.176 196.544 442.356 196.544 439.377C196.544 436.406 194.795 434.587 192.158 434.587C189.522 434.587 187.773 436.406 187.773 439.377C187.773 442.356 189.513 444.176 192.158 444.176ZM192.158 442.611C190.673 442.611 189.706 441.434 189.706 439.377C189.706 437.329 190.673 436.151 192.158 436.151C193.644 436.151 194.61 437.329 194.61 439.377C194.61 441.434 193.652 442.611 192.158 442.611ZM200.674 444.167C201.316 444.167 201.711 443.859 201.887 443.209L203.601 437.074H203.645L205.376 443.209C205.552 443.886 205.921 444.167 206.58 444.167C207.204 444.167 207.591 443.859 207.776 443.209L209.885 435.94C209.946 435.721 209.973 435.562 209.973 435.404C209.973 434.912 209.612 434.587 209.059 434.587C208.584 434.587 208.312 434.842 208.189 435.378L206.527 442.031H206.484L204.717 435.448C204.585 434.886 204.216 434.587 203.645 434.587C203.065 434.587 202.687 434.886 202.555 435.448L200.797 442.031H200.762L199.101 435.378C198.978 434.842 198.696 434.587 198.222 434.587C197.668 434.587 197.299 434.912 197.299 435.404C197.299 435.562 197.325 435.729 197.396 435.94L199.505 443.209C199.698 443.877 200.05 444.167 200.674 444.167Z" fill="black"/>
<path d="M83.2042 759.785C83.2042 761.314 83.9952 762.079 85.5509 762.079H85.6476C86.5792 762.079 87.0187 761.789 87.0187 761.218C87.0187 760.77 86.7462 760.55 86.2013 760.497L86.0519 760.488C85.3663 760.436 85.1114 760.102 85.1114 759.363V754.257H86.1925C86.6847 754.257 86.9835 753.976 86.9835 753.51C86.9835 753.044 86.6847 752.754 86.1925 752.754H85.1114V751.383C85.1114 750.776 84.7335 750.372 84.1622 750.372C83.5821 750.372 83.2042 750.776 83.2042 751.383V752.754H82.5362C82.0441 752.754 81.7452 753.035 81.7452 753.51C81.7452 753.976 82.0441 754.257 82.5362 754.257H83.2042V759.785ZM90.9201 762.158C92.1242 762.158 93.302 761.508 93.8381 760.479H93.882V761.262C93.8996 761.824 94.26 762.167 94.7873 762.167C95.3234 762.167 95.7014 761.807 95.7014 761.209V755.628C95.7014 753.773 94.2687 752.587 92.0275 752.587C90.3664 752.587 88.9689 753.255 88.4855 754.301C88.3713 754.512 88.3186 754.723 88.3186 754.916C88.3186 755.391 88.6613 755.707 89.1359 755.707C89.4699 755.707 89.716 755.584 89.9094 755.303C90.4367 754.459 91.0432 754.134 91.9572 754.134C93.1174 754.134 93.8117 754.749 93.8117 755.777V756.489L91.2717 756.639C89.0832 756.762 87.8352 757.755 87.8352 759.372C87.8352 761.033 89.1096 762.158 90.9201 762.158ZM91.4387 760.655C90.4279 760.655 89.7512 760.128 89.7512 759.319C89.7512 758.528 90.3928 758.027 91.5266 757.948L93.8117 757.808V758.537C93.8117 759.741 92.7658 760.655 91.4387 760.655ZM98.4163 765.278C98.97 765.278 99.3655 764.892 99.3655 764.268V760.479H99.4095C99.9368 761.508 100.991 762.158 102.319 762.158C104.639 762.158 106.177 760.304 106.177 757.377C106.177 754.45 104.63 752.604 102.283 752.604C100.948 752.604 99.8841 753.281 99.3391 754.345H99.304V753.562C99.304 752.956 98.9173 752.587 98.3811 752.587C97.845 752.587 97.4671 752.956 97.4671 753.562V764.268C97.4671 764.892 97.8538 765.278 98.4163 765.278ZM101.782 760.55C100.324 760.55 99.3567 759.302 99.3567 757.377C99.3567 755.47 100.332 754.204 101.782 754.204C103.285 754.204 104.226 755.443 104.226 757.377C104.226 759.319 103.285 760.55 101.782 760.55ZM111.695 759.785C111.695 761.314 112.486 762.079 114.041 762.079H114.138C115.07 762.079 115.509 761.789 115.509 761.218C115.509 760.77 115.237 760.55 114.692 760.497L114.542 760.488C113.857 760.436 113.602 760.102 113.602 759.363V754.257H114.683C115.175 754.257 115.474 753.976 115.474 753.51C115.474 753.044 115.175 752.754 114.683 752.754H113.602V751.383C113.602 750.776 113.224 750.372 112.653 750.372C112.073 750.372 111.695 750.776 111.695 751.383V752.754H111.027C110.535 752.754 110.236 753.035 110.236 753.51C110.236 753.976 110.535 754.257 111.027 754.257H111.695V759.785ZM120.588 762.176C123.234 762.176 124.974 760.356 124.974 757.377C124.974 754.406 123.225 752.587 120.588 752.587C117.952 752.587 116.203 754.406 116.203 757.377C116.203 760.356 117.943 762.176 120.588 762.176ZM120.588 760.611C119.103 760.611 118.136 759.434 118.136 757.377C118.136 755.329 119.103 754.151 120.588 754.151C122.074 754.151 123.041 755.329 123.041 757.377C123.041 759.434 122.083 760.611 120.588 760.611ZM133.911 762.176C136.556 762.176 138.297 760.356 138.297 757.377C138.297 754.406 136.548 752.587 133.911 752.587C131.274 752.587 129.525 754.406 129.525 757.377C129.525 760.356 131.265 762.176 133.911 762.176ZM133.911 760.611C132.425 760.611 131.459 759.434 131.459 757.377C131.459 755.329 132.425 754.151 133.911 754.151C135.396 754.151 136.363 755.329 136.363 757.377C136.363 759.434 135.405 760.611 133.911 760.611ZM140.634 765.278C141.187 765.278 141.583 764.892 141.583 764.268V760.479H141.627C142.154 761.508 143.209 762.158 144.536 762.158C146.856 762.158 148.394 760.304 148.394 757.377C148.394 754.45 146.847 752.604 144.501 752.604C143.165 752.604 142.101 753.281 141.556 754.345H141.521V753.562C141.521 752.956 141.135 752.587 140.598 752.587C140.062 752.587 139.684 752.956 139.684 753.562V764.268C139.684 764.892 140.071 765.278 140.634 765.278ZM144 760.55C142.541 760.55 141.574 759.302 141.574 757.377C141.574 755.47 142.55 754.204 144 754.204C145.503 754.204 146.443 755.443 146.443 757.377C146.443 759.319 145.503 760.55 144 760.55ZM153.79 762.176C155.513 762.176 156.857 761.481 157.464 760.269C157.543 760.084 157.596 759.908 157.596 759.759C157.596 759.284 157.262 758.985 156.805 758.985C156.532 758.985 156.339 759.082 156.137 759.319C155.433 760.277 154.783 760.638 153.746 760.638C152.234 760.638 151.285 759.583 151.285 757.896V757.852H156.875C157.464 757.852 157.815 757.5 157.815 756.885C157.815 754.362 156.119 752.587 153.658 752.587C151.039 752.587 149.369 754.485 149.369 757.421C149.369 760.409 151.004 762.176 153.79 762.176ZM151.294 756.524C151.39 755.083 152.34 754.116 153.649 754.116C154.968 754.116 155.873 755.074 155.917 756.524H151.294ZM160.161 762.167C160.715 762.167 161.11 761.789 161.11 761.165V756.612C161.11 755.18 161.972 754.23 163.308 754.23C164.626 754.23 165.276 754.995 165.276 756.384V761.165C165.276 761.789 165.672 762.167 166.226 762.167C166.788 762.167 167.184 761.789 167.184 761.165V756.015C167.184 753.896 166.015 752.596 163.976 752.596C162.552 752.596 161.585 753.229 161.084 754.283H161.04V753.554C161.04 752.965 160.662 752.587 160.117 752.587C159.563 752.587 159.212 752.965 159.212 753.545V761.165C159.212 761.789 159.599 762.167 160.161 762.167ZM93.8372 780.785C93.8372 782.314 94.6282 783.079 96.1839 783.079H96.2805C97.2122 783.079 97.6516 782.789 97.6516 782.218C97.6516 781.77 97.3792 781.55 96.8343 781.497L96.6848 781.488C95.9993 781.436 95.7444 781.102 95.7444 780.363V775.257H96.8255C97.3177 775.257 97.6165 774.976 97.6165 774.51C97.6165 774.044 97.3177 773.754 96.8255 773.754H95.7444V772.383C95.7444 771.776 95.3665 771.372 94.7952 771.372C94.2151 771.372 93.8372 771.776 93.8372 772.383V773.754H93.1692C92.677 773.754 92.3782 774.035 92.3782 774.51C92.3782 774.976 92.677 775.257 93.1692 775.257H93.8372V780.785ZM101.553 783.158C102.757 783.158 103.935 782.508 104.471 781.479H104.515V782.262C104.533 782.824 104.893 783.167 105.42 783.167C105.956 783.167 106.334 782.807 106.334 782.209V776.628C106.334 774.773 104.902 773.587 102.661 773.587C100.999 773.587 99.6019 774.255 99.1185 775.301C99.0043 775.512 98.9515 775.723 98.9515 775.916C98.9515 776.391 99.2943 776.707 99.7689 776.707C100.103 776.707 100.349 776.584 100.542 776.303C101.07 775.459 101.676 775.134 102.59 775.134C103.75 775.134 104.445 775.749 104.445 776.777V777.489L101.905 777.639C99.7162 777.762 98.4681 778.755 98.4681 780.372C98.4681 782.033 99.7425 783.158 101.553 783.158ZM102.072 781.655C101.061 781.655 100.384 781.128 100.384 780.319C100.384 779.528 101.026 779.027 102.16 778.948L104.445 778.808V779.537C104.445 780.741 103.399 781.655 102.072 781.655ZM111.51 783.176C113.795 783.176 115.333 782.033 115.333 780.319C115.333 778.948 114.586 778.254 112.644 777.806L111.211 777.472C110.236 777.243 109.788 776.839 109.788 776.259C109.788 775.538 110.491 775.037 111.51 775.037C112.442 775.037 113.004 775.406 113.417 776.109C113.602 776.408 113.874 776.514 114.182 776.514C114.657 776.514 114.92 776.232 114.92 775.811C114.92 775.723 114.903 775.635 114.885 775.529C114.622 774.439 113.25 773.587 111.581 773.587C109.383 773.587 107.933 774.694 107.933 776.364C107.933 777.683 108.812 778.562 110.605 778.983L112.064 779.326C113.057 779.563 113.417 779.889 113.417 780.495C113.417 781.26 112.688 781.726 111.607 781.726C110.508 781.726 109.955 781.392 109.48 780.645C109.243 780.293 108.97 780.144 108.654 780.144C108.179 780.144 107.836 780.425 107.836 780.899C107.836 781.022 107.854 781.154 107.915 781.295C108.355 782.429 109.691 783.176 111.51 783.176ZM117.741 783.167C118.294 783.167 118.69 782.789 118.69 782.165V779.695L119.534 778.904L122.601 782.701C122.856 783.053 123.067 783.167 123.418 783.167C123.928 783.167 124.306 782.815 124.306 782.332C124.306 782.095 124.253 781.919 124.051 781.664L120.914 777.779L123.77 775.072C124.016 774.844 124.095 774.668 124.095 774.396C124.095 773.947 123.735 773.587 123.269 773.587C122.988 773.587 122.786 773.684 122.548 773.938L118.708 777.7H118.69V771.152C118.69 770.528 118.294 770.15 117.741 770.15C117.187 770.15 116.792 770.528 116.792 771.152V782.165C116.792 782.789 117.187 783.167 117.741 783.167ZM129.859 780.785C129.859 782.314 130.65 783.079 132.206 783.079H132.302C133.234 783.079 133.674 782.789 133.674 782.218C133.674 781.77 133.401 781.55 132.856 781.497L132.707 781.488C132.021 781.436 131.766 781.102 131.766 780.363V775.257H132.847C133.34 775.257 133.638 774.976 133.638 774.51C133.638 774.044 133.34 773.754 132.847 773.754H131.766V772.383C131.766 771.776 131.388 771.372 130.817 771.372C130.237 771.372 129.859 771.776 129.859 772.383V773.754H129.191C128.699 773.754 128.4 774.035 128.4 774.51C128.4 774.976 128.699 775.257 129.191 775.257H129.859V780.785ZM136.019 772.356C136.635 772.356 137.127 771.864 137.127 771.267C137.127 770.66 136.635 770.186 136.019 770.186C135.413 770.186 134.921 770.66 134.921 771.267C134.921 771.864 135.413 772.356 136.019 772.356ZM136.019 783.167C136.591 783.167 136.969 782.771 136.969 782.165V774.598C136.969 773.982 136.591 773.587 136.019 773.587C135.448 773.587 135.07 773.982 135.07 774.598V782.165C135.07 782.771 135.448 783.167 136.019 783.167ZM139.78 783.167C140.351 783.167 140.729 782.771 140.729 782.165V777.287C140.729 776.101 141.529 775.222 142.654 775.222C143.726 775.222 144.403 775.898 144.403 776.962V782.165C144.403 782.771 144.764 783.167 145.335 783.167C145.906 783.167 146.266 782.771 146.266 782.165V777.226C146.266 776.057 147.049 775.222 148.174 775.222C149.299 775.222 149.94 775.907 149.94 777.103V782.165C149.94 782.771 150.318 783.167 150.889 783.167C151.461 783.167 151.848 782.771 151.848 782.165V776.646C151.848 774.809 150.652 773.596 148.824 773.596C147.506 773.596 146.416 774.281 145.941 775.406H145.897C145.528 774.255 144.597 773.596 143.313 773.596C142.065 773.596 141.098 774.281 140.685 775.31H140.641V774.554C140.641 773.947 140.264 773.587 139.736 773.587C139.2 773.587 138.831 773.956 138.831 774.554V782.165C138.831 782.771 139.209 783.167 139.78 783.167ZM157.612 783.176C159.335 783.176 160.68 782.481 161.286 781.269C161.365 781.084 161.418 780.908 161.418 780.759C161.418 780.284 161.084 779.985 160.627 779.985C160.354 779.985 160.161 780.082 159.959 780.319C159.256 781.277 158.605 781.638 157.568 781.638C156.057 781.638 155.107 780.583 155.107 778.896V778.852H160.697C161.286 778.852 161.638 778.5 161.638 777.885C161.638 775.362 159.941 773.587 157.48 773.587C154.861 773.587 153.191 775.485 153.191 778.421C153.191 781.409 154.826 783.176 157.612 783.176ZM155.116 777.524C155.213 776.083 156.162 775.116 157.472 775.116C158.79 775.116 159.695 776.074 159.739 777.524H155.116ZM163.983 783.167C164.546 783.167 164.933 782.78 164.933 782.165V777.445C164.933 776.294 165.46 775.424 166.761 775.415C167.156 775.415 167.438 775.336 167.631 775.169C167.815 775.02 167.912 774.8 167.912 774.501C167.912 774.202 167.833 773.974 167.657 773.833C167.499 773.684 167.244 773.604 166.91 773.604C165.987 773.604 165.135 774.299 164.88 775.336H164.836V774.545C164.836 773.965 164.467 773.587 163.939 773.587C163.403 773.587 163.034 773.965 163.034 774.545V782.165C163.034 782.78 163.412 783.167 163.983 783.167Z" fill="white"/>
<path d="M301 412.5C300.172 412.5 299.5 413.172 299.5 414C299.5 414.828 300.172 415.5 301 415.5V412.5ZM347.061 415.061C347.646 414.475 347.646 413.525 347.061 412.939L337.515 403.393C336.929 402.808 335.979 402.808 335.393 403.393C334.808 403.979 334.808 404.929 335.393 405.515L343.879 414L335.393 422.485C334.808 423.071 334.808 424.021 335.393 424.607C335.979 425.192 336.929 425.192 337.515 424.607L347.061 415.061ZM301 415.5H346V412.5H301V415.5Z" fill="black"/>
<path d="M255.885 328.003C256.439 328.619 257.388 328.669 258.003 328.115C258.619 327.561 258.669 326.612 258.115 325.997L255.885 328.003ZM239.079 305.502C238.252 305.459 237.546 306.094 237.502 306.921L236.793 320.403C236.749 321.23 237.384 321.936 238.212 321.979C239.039 322.023 239.745 321.387 239.788 320.56L240.419 308.577L252.403 309.207C253.23 309.251 253.936 308.616 253.979 307.788C254.023 306.961 253.387 306.255 252.56 306.212L239.079 305.502ZM258.115 325.997L240.115 305.997L237.885 308.003L255.885 328.003L258.115 325.997Z" fill="black"/>
<path d="M189.185 760.741C188.49 761.191 188.291 762.119 188.741 762.815C189.191 763.51 190.119 763.709 190.815 763.259L189.185 760.741ZM225.467 740.314C225.64 739.504 225.124 738.707 224.314 738.533L211.114 735.705C210.304 735.531 209.507 736.047 209.333 736.857C209.159 737.667 209.675 738.464 210.485 738.638L222.219 741.152L219.705 752.886C219.531 753.696 220.047 754.493 220.857 754.667C221.667 754.841 222.464 754.325 222.638 753.515L225.467 740.314ZM190.815 763.259L224.815 741.259L223.185 738.741L189.185 760.741L190.815 763.259Z" fill="white"/>
<path d="M88 415.5C88.8284 415.5 89.5 414.828 89.5 414C89.5 413.172 88.8284 412.5 88 412.5L88 415.5ZM41.9393 412.939C41.3536 413.525 41.3536 414.475 41.9393 415.061L51.4853 424.607C52.0711 425.192 53.0208 425.192 53.6066 424.607C54.1924 424.021 54.1924 423.071 53.6066 422.485L45.1213 414L53.6066 405.515C54.1924 404.929 54.1924 403.979 53.6066 403.393C53.0208 402.808 52.0711 402.808 51.4853 403.393L41.9393 412.939ZM88 412.5L43 412.5L43 415.5L88 415.5L88 412.5Z" fill="black"/>
<path d="M326.687 681.133C326.687 700.31 374.763 760.133 302.263 775.133C245.764 786.823 263.187 728.633 231.187 723.633C171.082 714.242 170.264 614.054 241.264 645.554C267.687 645.554 270.187 615.633 302.263 624.717C319.263 635.217 326.687 661.957 326.687 681.133Z" fill="white"/>
<path d="M215.398 678.139C216.094 678.139 216.504 677.714 216.504 676.989V674.667H218.482C220.708 674.667 222.254 673.217 222.254 671.049C222.254 668.874 220.76 667.431 218.592 667.431H215.398C214.703 667.431 214.292 667.856 214.292 668.581V676.989C214.292 677.714 214.703 678.139 215.398 678.139ZM216.504 672.939V669.182H218.006C219.273 669.182 220.005 669.855 220.005 671.057C220.005 672.265 219.266 672.939 217.999 672.939H216.504ZM224.451 678.154C225.103 678.154 225.521 677.751 225.521 677.041V673.554C225.521 672.624 225.865 672.075 226.839 672.06C227.256 672.053 227.564 671.958 227.769 671.782C227.974 671.606 228.077 671.35 228.077 671.013C228.077 670.646 227.974 670.383 227.769 670.222C227.615 670.09 227.388 670.024 227.103 670.024C226.319 670.024 225.674 670.603 225.469 671.577H225.425V671.064C225.425 670.383 225.015 669.987 224.415 669.987C223.799 669.987 223.382 670.383 223.382 671.064V677.041C223.382 677.751 223.807 678.154 224.451 678.154ZM232.193 678.168C233.709 678.168 234.925 677.597 235.445 676.63C235.54 676.455 235.591 676.279 235.591 676.11C235.591 675.62 235.218 675.327 234.756 675.327C234.478 675.327 234.288 675.407 234.061 675.642C233.482 676.323 232.969 676.586 232.186 676.586C231.102 676.586 230.398 675.825 230.398 674.66V674.565H234.881C235.474 674.565 235.811 674.228 235.811 673.635C235.811 671.503 234.317 669.98 232.09 669.98C229.769 669.98 228.296 671.584 228.296 674.111C228.296 676.652 229.739 678.168 232.193 678.168ZM230.42 673.254C230.494 672.25 231.175 671.562 232.112 671.562C233.05 671.562 233.709 672.229 233.753 673.254H230.42ZM240.118 678.168C242.19 678.168 243.589 677.158 243.589 675.598C243.589 674.426 242.901 673.811 241.231 673.459L239.935 673.181C239.151 673.012 238.843 672.741 238.843 672.331C238.843 671.826 239.349 671.481 240.074 671.481C240.843 671.481 241.268 671.848 241.641 672.324C241.832 672.551 242.139 672.653 242.417 672.653C242.967 672.653 243.238 672.353 243.238 671.921C243.238 671.818 243.216 671.716 243.187 671.606C242.93 670.72 241.736 669.98 240.11 669.98C238.074 669.98 236.778 670.947 236.778 672.448C236.778 673.613 237.554 674.396 239.092 674.726L240.411 675.004C241.18 675.173 241.451 675.4 241.451 675.825C241.451 676.345 240.945 676.667 240.169 676.667C239.356 676.667 238.873 676.418 238.455 675.869C238.162 675.539 237.869 675.385 237.525 675.385C237.027 675.385 236.661 675.715 236.661 676.206C236.661 676.323 236.69 676.462 236.741 676.601C237.115 677.524 238.316 678.168 240.118 678.168ZM248.262 678.168C249.778 678.168 250.994 677.597 251.514 676.63C251.609 676.455 251.661 676.279 251.661 676.11C251.661 675.62 251.287 675.327 250.826 675.327C250.547 675.327 250.357 675.407 250.13 675.642C249.551 676.323 249.039 676.586 248.255 676.586C247.171 676.586 246.468 675.825 246.468 674.66V674.565H250.95C251.543 674.565 251.88 674.228 251.88 673.635C251.88 671.503 250.386 669.98 248.16 669.98C245.838 669.98 244.366 671.584 244.366 674.111C244.366 676.652 245.809 678.168 248.262 678.168ZM246.49 673.254C246.563 672.25 247.244 671.562 248.182 671.562C249.119 671.562 249.778 672.229 249.822 673.254H246.49ZM254.056 678.154C254.686 678.154 255.125 677.773 255.125 677.041V673.496C255.125 672.478 255.733 671.774 256.692 671.774C257.652 671.774 258.135 672.36 258.135 673.386V677.041C258.135 677.773 258.575 678.154 259.205 678.154C259.827 678.154 260.274 677.773 260.274 677.041V672.939C260.274 671.101 259.292 670.002 257.549 670.002C256.341 670.002 255.55 670.537 255.132 671.511H255.088V671.071C255.088 670.397 254.664 669.987 254.019 669.987C253.375 669.987 252.986 670.397 252.986 671.064V677.041C252.986 677.773 253.433 678.154 254.056 678.154ZM262.2 675.993C262.2 677.377 262.925 678.088 264.354 678.088H264.427C265.328 678.088 265.943 677.766 265.943 677.136C265.943 676.638 265.657 676.418 265.13 676.359L264.991 676.345C264.529 676.308 264.339 676.074 264.339 675.517V671.76H265.093C265.599 671.76 265.914 671.445 265.914 670.954C265.914 670.463 265.599 670.148 265.093 670.148H264.339V669.277C264.339 668.588 263.936 668.164 263.27 668.164C262.603 668.164 262.2 668.588 262.2 669.277V670.148H261.79C261.285 670.148 260.962 670.456 260.962 670.954C260.962 671.452 261.285 671.76 261.79 671.76H262.2V675.993ZM269.209 678.125C270.191 678.125 271.172 677.634 271.612 676.799H271.656V677.202C271.7 677.832 272.103 678.154 272.681 678.154C273.289 678.154 273.721 677.788 273.721 677.077V672.602C273.721 671.02 272.41 669.98 270.396 669.98C268.77 669.98 267.51 670.559 267.144 671.496C267.071 671.657 267.034 671.811 267.034 671.979C267.034 672.463 267.408 672.8 267.928 672.8C268.272 672.8 268.543 672.668 268.777 672.404C269.253 671.789 269.649 671.577 270.301 671.577C271.106 671.577 271.619 672.001 271.619 672.734V673.254L269.642 673.371C267.679 673.488 266.58 674.316 266.58 675.744C266.58 677.158 267.715 678.125 269.209 678.125ZM269.913 676.579C269.195 676.579 268.711 676.213 268.711 675.627C268.711 675.07 269.166 674.711 269.964 674.653L271.619 674.55V675.122C271.619 675.971 270.85 676.579 269.913 676.579ZM275.677 675.993C275.677 677.377 276.402 678.088 277.83 678.088H277.903C278.804 678.088 279.419 677.766 279.419 677.136C279.419 676.638 279.134 676.418 278.606 676.359L278.467 676.345C278.006 676.308 277.815 676.074 277.815 675.517V671.76H278.57C279.075 671.76 279.39 671.445 279.39 670.954C279.39 670.463 279.075 670.148 278.57 670.148H277.815V669.277C277.815 668.588 277.413 668.164 276.746 668.164C276.08 668.164 275.677 668.588 275.677 669.277V670.148H275.267C274.761 670.148 274.439 670.456 274.439 670.954C274.439 671.452 274.761 671.76 275.267 671.76H275.677V675.993ZM281.543 669.174C282.188 669.174 282.686 668.684 282.686 668.068C282.686 667.446 282.188 666.962 281.543 666.962C280.899 666.962 280.401 667.446 280.401 668.068C280.401 668.684 280.899 669.174 281.543 669.174ZM281.543 678.154C282.203 678.154 282.613 677.736 282.613 677.041V671.108C282.613 670.412 282.203 669.987 281.543 669.987C280.877 669.987 280.474 670.412 280.474 671.108V677.041C280.474 677.736 280.877 678.154 281.543 678.154ZM287.645 678.168C290.018 678.168 291.534 676.652 291.534 674.067C291.534 671.518 289.996 669.98 287.645 669.98C285.293 669.98 283.755 671.525 283.755 674.067C283.755 676.645 285.271 678.168 287.645 678.168ZM287.645 676.535C286.59 676.535 285.923 675.649 285.923 674.074C285.923 672.514 286.604 671.613 287.645 671.613C288.685 671.613 289.358 672.514 289.358 674.074C289.358 675.649 288.692 676.535 287.645 676.535ZM293.709 678.154C294.339 678.154 294.778 677.773 294.778 677.041V673.496C294.778 672.478 295.386 671.774 296.346 671.774C297.305 671.774 297.789 672.36 297.789 673.386V677.041C297.789 677.773 298.228 678.154 298.858 678.154C299.48 678.154 299.927 677.773 299.927 677.041V672.939C299.927 671.101 298.946 670.002 297.203 670.002C295.994 670.002 295.203 670.537 294.786 671.511H294.742V671.071C294.742 670.397 294.317 669.987 293.672 669.987C293.028 669.987 292.64 670.397 292.64 671.064V677.041C292.64 677.773 293.086 678.154 293.709 678.154Z" fill="black"/>
<path d="M264.707 706.508C268.632 706.508 271.292 704.469 271.292 701.398C271.292 699.066 269.664 697.59 267.144 697.355V697.285C269.136 696.875 270.671 695.469 270.671 693.324C270.671 690.617 268.257 688.848 264.683 688.848C261.695 688.848 259.773 690.23 259.023 691.883C258.847 692.281 258.765 692.621 258.765 693.02C258.765 693.875 259.269 694.449 260.253 694.449C261.05 694.449 261.46 694.156 261.847 693.359C262.398 692.164 263.265 691.566 264.695 691.566C266.406 691.566 267.32 692.469 267.32 693.828C267.32 695.211 266.171 696.172 264.402 696.172H263.71C262.855 696.172 262.363 696.688 262.363 697.426C262.363 698.188 262.855 698.691 263.71 698.691H264.449C266.5 698.691 267.707 699.605 267.695 701.246C267.695 702.652 266.5 703.66 264.765 703.66C263.007 703.66 262.093 702.957 261.496 701.773C261.144 701.129 260.699 700.848 259.996 700.848C259.023 700.848 258.437 701.422 258.437 702.336C258.437 702.688 258.519 703.062 258.707 703.449C259.503 705.113 261.484 706.508 264.707 706.508ZM280.011 706.379C281.019 706.379 281.722 705.77 281.722 704.598V698.961C281.722 697.309 282.671 696.172 284.289 696.172C285.847 696.172 286.644 697.156 286.644 698.773V704.598C286.644 705.77 287.359 706.379 288.355 706.379C289.363 706.379 290.066 705.77 290.066 704.598V698.047C290.066 695.141 288.472 693.336 285.683 693.336C283.773 693.336 282.402 694.227 281.734 695.809H281.664V690.723C281.664 689.621 281.042 688.965 279.988 688.965C278.933 688.965 278.3 689.621 278.3 690.723V704.598C278.3 705.77 279.015 706.379 280.011 706.379Z" fill="black"/>
</g>
<defs>
<clipPath id="clip0_366_19401">
<rect width="390" height="844" fill="white"/>
</clipPath>
</defs>
</svg>
