<svg width="390" height="844" viewBox="0 0 390 844" fill="none" xmlns="http://www.w3.org/2000/svg">
<g clip-path="url(#clip0_367_19273)">
<rect width="390" height="844" fill="white"/>
<path d="M278.742 -135.703C336.548 -153.645 368.244 -213.299 390 -168.921L390 532.469C348.464 577.789 299.953 522.11 246.107 518.416C178.798 513.799 170.287 570.737 116.341 560.843C62.3959 550.948 62.1518 510.71 34.644 510.71C11.715 510.71 -8.09698e-06 532.469 -8.09698e-06 532.469L5.9546e-05 -169.545C23.7559 -122.051 111.092 -145.787 135.838 -145.787C167.049 -145.787 206.485 -113.275 278.742 -135.703Z" fill="black"/>
<circle cx="269" cy="377" r="29.5" stroke="white" stroke-linecap="round" stroke-dasharray="5 5"/>
<path d="M264.492 382.154C265.144 382.154 265.583 381.714 265.583 381.048V372.508C265.583 371.746 265.114 371.27 264.331 371.27C263.876 371.27 263.525 371.336 263.012 371.688L260.917 373.138C260.573 373.379 260.441 373.628 260.441 373.965C260.441 374.434 260.771 374.756 261.218 374.756C261.445 374.756 261.599 374.705 261.804 374.559L263.349 373.482H263.393V381.048C263.393 381.714 263.84 382.154 264.492 382.154ZM269.033 382.154C269.663 382.154 270.102 381.773 270.102 381.041V377.518C270.102 376.485 270.695 375.774 271.706 375.774C272.68 375.774 273.178 376.39 273.178 377.4V381.041C273.178 381.773 273.625 382.154 274.248 382.154C274.877 382.154 275.317 381.773 275.317 381.041V376.946C275.317 375.13 274.321 374.002 272.578 374.002C271.384 374.002 270.527 374.559 270.109 375.547H270.065V372.369C270.065 371.68 269.677 371.27 269.018 371.27C268.359 371.27 267.963 371.68 267.963 372.369V381.041C267.963 381.773 268.41 382.154 269.033 382.154Z" fill="white"/>
<circle cx="92.8333" cy="760.166" r="45.8333" fill="black"/>
<circle cx="156.083" cy="713.417" r="22.9167" fill="black"/>
<circle cx="111.625" cy="696.458" r="11.4583" fill="black"/>
<path d="M93.5 772.305C94.6484 772.305 95.3984 771.438 95.3984 770.289V762.062H103.156C104.305 762.062 105.172 761.312 105.172 760.164C105.172 759.016 104.305 758.266 103.156 758.266H95.3984V750.016C95.3984 748.867 94.6484 748 93.5 748C92.3516 748 91.6016 748.867 91.6016 750.016V758.266H83.8203C82.6719 758.266 81.8047 759.016 81.8047 760.164C81.8047 761.312 82.6719 762.062 83.8203 762.062H91.6016V770.289C91.6016 771.438 92.3516 772.305 93.5 772.305Z" fill="white"/>
<circle cx="194.5" cy="230.5" r="10.5" fill="white"/>
<path d="M179.75 760.223C180.688 760.223 181.215 759.754 181.543 758.629L182.434 755.992H188.539L189.43 758.664C189.746 759.766 190.273 760.223 191.27 760.223C192.301 760.223 193.039 759.531 193.039 758.559C193.039 758.207 192.98 757.891 192.816 757.434L188.176 744.848C187.672 743.465 186.852 742.855 185.469 742.855C184.133 742.855 183.301 743.488 182.809 744.859L178.191 757.434C178.039 757.867 177.957 758.266 177.957 758.559C177.957 759.578 178.648 760.223 179.75 760.223ZM183.207 753.25L185.398 746.324H185.48L187.719 753.25H183.207ZM196.613 764.477C197.621 764.477 198.324 763.867 198.324 762.695V757.891H198.395C199.062 759.309 200.469 760.199 202.297 760.199C205.438 760.199 207.383 757.762 207.383 753.719C207.383 749.664 205.426 747.238 202.238 747.238C200.422 747.238 199.027 748.152 198.348 749.629H198.277V748.949C198.277 747.789 197.574 747.18 196.59 747.18C195.605 747.18 194.902 747.789 194.902 748.938V762.695C194.902 763.867 195.617 764.477 196.613 764.477ZM201.09 757.445C199.414 757.445 198.312 755.992 198.312 753.719C198.312 751.469 199.414 749.98 201.09 749.98C202.801 749.98 203.879 751.445 203.879 753.719C203.879 756.004 202.801 757.445 201.09 757.445ZM210.863 760.246C211.906 760.246 212.574 759.602 212.574 758.465V752.887C212.574 751.398 213.125 750.52 214.684 750.496C215.352 750.484 215.844 750.332 216.172 750.051C216.5 749.77 216.664 749.359 216.664 748.82C216.664 748.234 216.5 747.812 216.172 747.555C215.926 747.344 215.562 747.238 215.105 747.238C213.852 747.238 212.82 748.164 212.492 749.723H212.422V748.902C212.422 747.812 211.766 747.18 210.805 747.18C209.82 747.18 209.152 747.812 209.152 748.902V758.465C209.152 759.602 209.832 760.246 210.863 760.246ZM223.25 760.27C225.676 760.27 227.621 759.355 228.453 757.809C228.605 757.527 228.688 757.246 228.688 756.977C228.688 756.191 228.09 755.723 227.352 755.723C226.906 755.723 226.602 755.852 226.238 756.227C225.312 757.316 224.492 757.738 223.238 757.738C221.504 757.738 220.379 756.52 220.379 754.656V754.504H227.551C228.5 754.504 229.039 753.965 229.039 753.016C229.039 749.605 226.648 747.168 223.086 747.168C219.371 747.168 217.016 749.734 217.016 753.777C217.016 757.844 219.324 760.27 223.25 760.27ZM220.414 752.406C220.531 750.801 221.621 749.699 223.121 749.699C224.621 749.699 225.676 750.766 225.746 752.406H220.414ZM235.93 760.27C239.246 760.27 241.484 758.652 241.484 756.156C241.484 754.281 240.383 753.297 237.711 752.734L235.637 752.289C234.383 752.02 233.891 751.586 233.891 750.93C233.891 750.121 234.699 749.57 235.859 749.57C237.09 749.57 237.77 750.156 238.367 750.918C238.672 751.281 239.164 751.445 239.609 751.445C240.488 751.445 240.922 750.965 240.922 750.273C240.922 750.109 240.887 749.945 240.84 749.77C240.43 748.352 238.52 747.168 235.918 747.168C232.66 747.168 230.586 748.715 230.586 751.117C230.586 752.98 231.828 754.234 234.289 754.762L236.398 755.207C237.629 755.477 238.062 755.84 238.062 756.52C238.062 757.352 237.254 757.867 236.012 757.867C234.711 757.867 233.938 757.469 233.27 756.59C232.801 756.062 232.332 755.816 231.781 755.816C230.984 755.816 230.398 756.344 230.398 757.129C230.398 757.316 230.445 757.539 230.527 757.762C231.125 759.238 233.047 760.27 235.93 760.27ZM248.961 760.27C251.387 760.27 253.332 759.355 254.164 757.809C254.316 757.527 254.398 757.246 254.398 756.977C254.398 756.191 253.801 755.723 253.062 755.723C252.617 755.723 252.312 755.852 251.949 756.227C251.023 757.316 250.203 757.738 248.949 757.738C247.215 757.738 246.09 756.52 246.09 754.656V754.504H253.262C254.211 754.504 254.75 753.965 254.75 753.016C254.75 749.605 252.359 747.168 248.797 747.168C245.082 747.168 242.727 749.734 242.727 753.777C242.727 757.844 245.035 760.27 248.961 760.27ZM246.125 752.406C246.242 750.801 247.332 749.699 248.832 749.699C250.332 749.699 251.387 750.766 251.457 752.406H246.125ZM258.23 760.246C259.238 760.246 259.941 759.637 259.941 758.465V752.793C259.941 751.164 260.914 750.039 262.449 750.039C263.984 750.039 264.758 750.977 264.758 752.617V758.465C264.758 759.637 265.461 760.246 266.469 760.246C267.465 760.246 268.18 759.637 268.18 758.465V751.902C268.18 748.961 266.609 747.203 263.82 747.203C261.887 747.203 260.621 748.059 259.953 749.617H259.883V748.914C259.883 747.836 259.203 747.18 258.172 747.18C257.141 747.18 256.52 747.836 256.52 748.902V758.465C256.52 759.637 257.234 760.246 258.23 760.246ZM271.262 756.789C271.262 759.004 272.422 760.141 274.707 760.141H274.824C276.266 760.141 277.25 759.625 277.25 758.617C277.25 757.82 276.793 757.469 275.949 757.375L275.727 757.352C274.988 757.293 274.684 756.918 274.684 756.027V750.016H275.891C276.699 750.016 277.203 749.512 277.203 748.727C277.203 747.941 276.699 747.438 275.891 747.438H274.684V746.043C274.684 744.941 274.039 744.262 272.973 744.262C271.906 744.262 271.262 744.941 271.262 746.043V747.438H270.605C269.797 747.438 269.281 747.93 269.281 748.727C269.281 749.523 269.797 750.016 270.605 750.016H271.262V756.789ZM282.477 760.199C284.047 760.199 285.617 759.414 286.32 758.078H286.391V758.723C286.461 759.73 287.105 760.246 288.031 760.246C289.004 760.246 289.695 759.66 289.695 758.523V751.363C289.695 748.832 287.598 747.168 284.375 747.168C281.773 747.168 279.758 748.094 279.172 749.594C279.055 749.852 278.996 750.098 278.996 750.367C278.996 751.141 279.594 751.68 280.426 751.68C280.977 751.68 281.41 751.469 281.785 751.047C282.547 750.062 283.18 749.723 284.223 749.723C285.512 749.723 286.332 750.402 286.332 751.574V752.406L283.168 752.594C280.027 752.781 278.27 754.105 278.27 756.391C278.27 758.652 280.086 760.199 282.477 760.199ZM283.602 757.727C282.453 757.727 281.68 757.141 281.68 756.203C281.68 755.312 282.406 754.738 283.684 754.645L286.332 754.48V755.395C286.332 756.754 285.102 757.727 283.602 757.727ZM297.359 765.391C299.094 765.391 300.207 764.617 300.207 763.199C300.207 762.004 299.328 761.289 298.004 761.277L298.496 760.223C300.535 759.977 302.27 758.863 302.926 757.375C303.09 757.023 303.16 756.742 303.16 756.473C303.16 755.629 302.516 755.102 301.719 755.102C300.992 755.102 300.617 755.395 300.16 756.109C299.633 757 298.895 757.586 297.699 757.586C295.988 757.586 294.922 756.18 294.922 753.707C294.922 751.281 295.988 749.852 297.723 749.852C298.812 749.852 299.574 750.355 300.195 751.457C300.547 752.078 300.957 752.348 301.637 752.348C302.445 752.348 303.102 751.855 303.102 751.012C303.102 750.766 303.031 750.461 302.914 750.168C302.234 748.387 300.137 747.168 297.617 747.168C293.844 747.168 291.453 749.699 291.453 753.719C291.453 757.422 293.434 759.812 296.656 760.211L296.199 761.207C296.07 761.465 296 761.699 296 761.922C296 762.367 296.34 762.648 296.879 762.648H297.125C297.875 762.648 298.238 762.848 298.238 763.27C298.238 763.715 297.84 763.938 297.066 763.938C296.727 763.938 296.457 763.879 296.211 763.879C295.777 763.879 295.508 764.113 295.508 764.488C295.508 764.875 295.742 765.133 296.246 765.262C296.539 765.344 296.902 765.391 297.359 765.391ZM307.391 745.855C307.93 745.855 308.199 745.551 308.316 745.035C308.445 744.367 308.691 744.133 309.09 744.133C309.969 744.133 310.566 745.727 312.195 745.727C313.578 745.727 314.691 744.637 314.691 743.148C314.691 742.598 314.316 742.223 313.777 742.223C313.238 742.223 312.98 742.516 312.852 743.066C312.723 743.699 312.488 743.934 312.113 743.934C311.246 743.934 310.672 742.352 309.008 742.352C307.59 742.352 306.488 743.406 306.488 744.918C306.488 745.48 306.852 745.855 307.391 745.855ZM308.703 760.199C310.273 760.199 311.844 759.414 312.547 758.078H312.617V758.723C312.688 759.73 313.332 760.246 314.258 760.246C315.23 760.246 315.922 759.66 315.922 758.523V751.363C315.922 748.832 313.824 747.168 310.602 747.168C308 747.168 305.984 748.094 305.398 749.594C305.281 749.852 305.223 750.098 305.223 750.367C305.223 751.141 305.82 751.68 306.652 751.68C307.203 751.68 307.637 751.469 308.012 751.047C308.773 750.062 309.406 749.723 310.449 749.723C311.738 749.723 312.559 750.402 312.559 751.574V752.406L309.395 752.594C306.254 752.781 304.496 754.105 304.496 756.391C304.496 758.652 306.312 760.199 308.703 760.199ZM309.828 757.727C308.68 757.727 307.906 757.141 307.906 756.203C307.906 755.312 308.633 754.738 309.91 754.645L312.559 754.48V755.395C312.559 756.754 311.328 757.727 309.828 757.727ZM323.902 760.27C327.699 760.27 330.125 757.844 330.125 753.707C330.125 749.629 327.664 747.168 323.902 747.168C320.141 747.168 317.68 749.641 317.68 753.707C317.68 757.832 320.105 760.27 323.902 760.27ZM323.902 757.656C322.215 757.656 321.148 756.238 321.148 753.719C321.148 751.223 322.238 749.781 323.902 749.781C325.566 749.781 326.645 751.223 326.645 753.719C326.645 756.238 325.578 757.656 323.902 757.656Z" fill="black"/>
<path d="M196.461 796.625C203.004 796.625 207.438 793.227 207.438 788.109C207.438 784.223 204.723 781.762 200.523 781.371V781.254C203.844 780.57 206.402 778.227 206.402 774.652C206.402 770.141 202.379 767.191 196.422 767.191C191.441 767.191 188.238 769.496 186.988 772.25C186.695 772.914 186.559 773.48 186.559 774.145C186.559 775.57 187.398 776.527 189.039 776.527C190.367 776.527 191.051 776.039 191.695 774.711C192.613 772.719 194.059 771.723 196.441 771.723C199.293 771.723 200.816 773.227 200.816 775.492C200.816 777.797 198.902 779.398 195.953 779.398H194.801C193.375 779.398 192.555 780.258 192.555 781.488C192.555 782.758 193.375 783.598 194.801 783.598H196.031C199.449 783.598 201.461 785.121 201.441 787.855C201.441 790.199 199.449 791.879 196.559 791.879C193.629 791.879 192.105 790.707 191.109 788.734C190.523 787.66 189.781 787.191 188.609 787.191C186.988 787.191 186.012 788.148 186.012 789.672C186.012 790.258 186.148 790.883 186.461 791.527C187.789 794.301 191.09 796.625 196.461 796.625ZM221.969 796.41C223.648 796.41 224.82 795.395 224.82 793.441V784.047C224.82 781.293 226.402 779.398 229.098 779.398C231.695 779.398 233.023 781.039 233.023 783.734V793.441C233.023 795.395 234.215 796.41 235.875 796.41C237.555 796.41 238.727 795.395 238.727 793.441V782.523C238.727 777.68 236.07 774.672 231.422 774.672C228.238 774.672 225.953 776.156 224.84 778.793H224.723V770.316C224.723 768.48 223.688 767.387 221.93 767.387C220.172 767.387 219.117 768.48 219.117 770.316V793.441C219.117 795.395 220.309 796.41 221.969 796.41Z" fill="black"/>
<path d="M34.5125 99.5708C35.3245 100.383 36.4681 100.3 37.2801 99.4879L43.0972 93.6709L48.5828 99.1565C49.3948 99.9685 50.5384 100.051 51.3504 99.2393C52.1625 98.4273 52.0796 97.2837 51.2676 96.4717L45.782 90.9861L51.6156 85.1524C52.4277 84.3404 52.5105 83.1968 51.6985 82.3848C50.8864 81.5727 49.7429 81.6556 48.9308 82.4676L43.0972 88.3013L37.595 82.7991C36.7829 81.987 35.6394 81.9042 34.8273 82.7162C34.0153 83.5283 34.0981 84.6718 34.9102 85.4839L40.4124 90.9861L34.5953 96.8031C33.7833 97.6152 33.7004 98.7587 34.5125 99.5708Z" fill="white"/>
<path d="M51.4941 284.141C52.0039 284.141 52.2939 283.895 52.4785 283.323L53.4365 280.599H58.2881L59.2549 283.332C59.4307 283.895 59.7207 284.141 60.248 284.141C60.8193 284.141 61.2324 283.763 61.2324 283.244C61.2324 283.077 61.1973 282.91 61.1094 282.664L57.2422 272.196C56.9785 271.493 56.5566 271.177 55.8711 271.177C55.1768 271.177 54.7461 271.502 54.4912 272.205L50.6328 282.664C50.5449 282.901 50.5098 283.095 50.5098 283.244C50.5098 283.78 50.9053 284.141 51.4941 284.141ZM53.9375 278.99L55.8271 273.427H55.8799L57.7871 278.99H53.9375ZM65.9776 284.176C68.2628 284.176 69.8009 283.033 69.8009 281.319C69.8009 279.948 69.0538 279.254 67.1114 278.806L65.6788 278.472C64.7032 278.243 64.255 277.839 64.255 277.259C64.255 276.538 64.9581 276.037 65.9776 276.037C66.9093 276.037 67.4718 276.406 67.8848 277.109C68.0694 277.408 68.3419 277.514 68.6495 277.514C69.1241 277.514 69.3878 277.232 69.3878 276.811C69.3878 276.723 69.3702 276.635 69.3526 276.529C69.0889 275.439 67.7179 274.587 66.0479 274.587C63.8507 274.587 62.4005 275.694 62.4005 277.364C62.4005 278.683 63.2794 279.562 65.0723 279.983L66.5313 280.326C67.5245 280.563 67.8848 280.889 67.8848 281.495C67.8848 282.26 67.1554 282.726 66.0743 282.726C64.9757 282.726 64.422 282.392 63.9473 281.645C63.71 281.293 63.4376 281.144 63.1212 281.144C62.6466 281.144 62.3038 281.425 62.3038 281.899C62.3038 282.022 62.3214 282.154 62.3829 282.295C62.8223 283.429 64.1583 284.176 65.9776 284.176ZM78.6409 287.48C81.3918 287.507 83.0705 286.03 83.0705 283.745V275.562C83.0705 274.947 82.6663 274.587 82.1213 274.587C81.5764 274.587 81.1633 274.947 81.1633 275.562V276.31H81.1282C80.5657 275.264 79.5461 274.604 78.2366 274.604C75.8459 274.604 74.3518 276.406 74.3518 279.298C74.3518 282.154 75.8635 283.974 78.1926 283.974C79.511 283.974 80.6008 283.314 81.1194 282.312H81.1633V283.78C81.1633 285.072 80.2229 285.951 78.676 285.934C77.7707 285.916 77.1204 285.573 76.3645 284.782C76.1096 284.527 75.925 284.431 75.635 284.431C75.1516 284.431 74.8264 284.747 74.8264 285.187C74.8264 285.406 74.8791 285.6 75.0022 285.811C75.635 286.812 76.9621 287.463 78.6409 287.48ZM78.7024 282.427C77.2434 282.427 76.2942 281.24 76.2942 279.307C76.2942 277.382 77.2434 276.169 78.7024 276.169C80.1877 276.169 81.1721 277.417 81.1721 279.315C81.1721 281.214 80.1877 282.427 78.7024 282.427ZM88.8353 284.176C91.4808 284.176 93.221 282.356 93.221 279.377C93.221 276.406 91.472 274.587 88.8353 274.587C86.1986 274.587 84.4495 276.406 84.4495 279.377C84.4495 282.356 86.1898 284.176 88.8353 284.176ZM88.8353 282.611C87.3499 282.611 86.3831 281.434 86.3831 279.377C86.3831 277.329 87.3499 276.151 88.8353 276.151C90.3206 276.151 91.2874 277.329 91.2874 279.377C91.2874 281.434 90.3294 282.611 88.8353 282.611ZM95.1625 281.785C95.1625 283.314 95.9535 284.079 97.5092 284.079H97.6059C98.5375 284.079 98.977 283.789 98.977 283.218C98.977 282.77 98.7045 282.55 98.1596 282.497L98.0102 282.488C97.3246 282.436 97.0697 282.102 97.0697 281.363V276.257H98.1508C98.643 276.257 98.9418 275.976 98.9418 275.51C98.9418 275.044 98.643 274.754 98.1508 274.754H97.0697V273.383C97.0697 272.776 96.6918 272.372 96.1205 272.372C95.5404 272.372 95.1625 272.776 95.1625 273.383V274.754H94.4945C94.0023 274.754 93.7035 275.035 93.7035 275.51C93.7035 275.976 94.0023 276.257 94.4945 276.257H95.1625V281.785ZM102.878 284.158C104.083 284.158 105.26 283.508 105.796 282.479H105.84V283.262C105.858 283.824 106.218 284.167 106.746 284.167C107.282 284.167 107.66 283.807 107.66 283.209V277.628C107.66 275.773 106.227 274.587 103.986 274.587C102.325 274.587 100.927 275.255 100.444 276.301C100.33 276.512 100.277 276.723 100.277 276.916C100.277 277.391 100.62 277.707 101.094 277.707C101.428 277.707 101.674 277.584 101.868 277.303C102.395 276.459 103.001 276.134 103.916 276.134C105.076 276.134 105.77 276.749 105.77 277.777V278.489L103.23 278.639C101.041 278.762 99.7934 279.755 99.7934 281.372C99.7934 283.033 101.068 284.158 102.878 284.158ZM103.397 282.655C102.386 282.655 101.709 282.128 101.709 281.319C101.709 280.528 102.351 280.027 103.485 279.948L105.77 279.808V280.537C105.77 281.741 104.724 282.655 103.397 282.655ZM112.836 284.176C115.121 284.176 116.659 283.033 116.659 281.319C116.659 279.948 115.912 279.254 113.969 278.806L112.537 278.472C111.561 278.243 111.113 277.839 111.113 277.259C111.113 276.538 111.816 276.037 112.836 276.037C113.767 276.037 114.33 276.406 114.743 277.109C114.927 277.408 115.2 277.514 115.507 277.514C115.982 277.514 116.246 277.232 116.246 276.811C116.246 276.723 116.228 276.635 116.211 276.529C115.947 275.439 114.576 274.587 112.906 274.587C110.709 274.587 109.258 275.694 109.258 277.364C109.258 278.683 110.137 279.562 111.93 279.983L113.389 280.326C114.382 280.563 114.743 280.889 114.743 281.495C114.743 282.26 114.013 282.726 112.932 282.726C111.834 282.726 111.28 282.392 110.805 281.645C110.568 281.293 110.295 281.144 109.979 281.144C109.504 281.144 109.162 281.425 109.162 281.899C109.162 282.022 109.179 282.154 109.241 282.295C109.68 283.429 111.016 284.176 112.836 284.176ZM54.9482 305.176C56.6709 305.176 58.0156 304.481 58.6221 303.269C58.7012 303.084 58.7539 302.908 58.7539 302.759C58.7539 302.284 58.4199 301.985 57.9629 301.985C57.6904 301.985 57.4971 302.082 57.2949 302.319C56.5918 303.277 55.9414 303.638 54.9043 303.638C53.3926 303.638 52.4434 302.583 52.4434 300.896V300.852H58.0332C58.6221 300.852 58.9736 300.5 58.9736 299.885C58.9736 297.362 57.2773 295.587 54.8164 295.587C52.1973 295.587 50.5273 297.485 50.5273 300.421C50.5273 303.409 52.1621 305.176 54.9482 305.176ZM52.4521 299.524C52.5488 298.083 53.498 297.116 54.8076 297.116C56.126 297.116 57.0312 298.074 57.0752 299.524H52.4521ZM61.3194 305.167C61.8731 305.167 62.2686 304.789 62.2686 304.165V299.612C62.2686 298.18 63.13 297.23 64.4659 297.23C65.7843 297.23 66.4346 297.995 66.4346 299.384V304.165C66.4346 304.789 66.8302 305.167 67.3839 305.167C67.9464 305.167 68.3419 304.789 68.3419 304.165V299.015C68.3419 296.896 67.1729 295.596 65.1339 295.596C63.71 295.596 62.7432 296.229 62.2423 297.283H62.1983V296.554C62.1983 295.965 61.8204 295.587 61.2755 295.587C60.7218 295.587 60.3702 295.965 60.3702 296.545V304.165C60.3702 304.789 60.7569 305.167 61.3194 305.167ZM74.0539 305.176C75.7677 305.176 77.2707 304.271 77.7541 302.996C77.8244 302.812 77.8595 302.653 77.8595 302.504C77.8595 302.029 77.5168 301.713 77.0509 301.713C76.6379 301.713 76.4357 301.871 76.172 302.328C75.7238 303.128 75.0998 303.585 74.0714 303.585C72.6037 303.585 71.6193 302.39 71.6193 300.377C71.6193 298.408 72.5861 297.169 74.0714 297.169C75.047 297.169 75.6974 297.591 76.172 298.47C76.4005 298.892 76.6291 299.05 77.0334 299.05C77.4992 299.05 77.842 298.751 77.842 298.268C77.842 298.136 77.8068 297.978 77.7541 297.828C77.3498 296.536 75.8205 295.587 74.0363 295.587C71.3996 295.587 69.6857 297.468 69.6857 300.395C69.6857 303.339 71.4084 305.176 74.0539 305.176ZM80.3371 305.167C80.8909 305.167 81.2864 304.789 81.2864 304.165V299.656C81.2864 298.197 82.1477 297.23 83.5539 297.23C84.8899 297.23 85.5754 298.048 85.5754 299.41V304.165C85.5754 304.789 85.9709 305.167 86.5246 305.167C87.0871 305.167 87.4827 304.789 87.4827 304.165V299.041C87.4827 296.949 86.2698 295.596 84.2395 295.596C82.8332 295.596 81.8225 296.22 81.3127 297.301H81.2688V293.135C81.2688 292.537 80.9172 292.15 80.3284 292.15C79.7483 292.15 79.3879 292.537 79.3879 293.135V304.165C79.3879 304.789 79.7834 305.167 80.3371 305.167ZM93.2474 305.176C94.97 305.176 96.3148 304.481 96.9212 303.269C97.0003 303.084 97.053 302.908 97.053 302.759C97.053 302.284 96.7191 301.985 96.262 301.985C95.9896 301.985 95.7962 302.082 95.5941 302.319C94.8909 303.277 94.2405 303.638 93.2034 303.638C91.6917 303.638 90.7425 302.583 90.7425 300.896V300.852H96.3323C96.9212 300.852 97.2728 300.5 97.2728 299.885C97.2728 297.362 95.5765 295.587 93.1155 295.587C90.4964 295.587 88.8265 297.485 88.8265 300.421C88.8265 303.409 90.4613 305.176 93.2474 305.176ZM90.7513 299.524C90.848 298.083 91.7972 297.116 93.1068 297.116C94.4251 297.116 95.3304 298.074 95.3743 299.524H90.7513ZM99.6186 305.167C100.181 305.167 100.568 304.78 100.568 304.165V299.445C100.568 298.294 101.095 297.424 102.396 297.415C102.791 297.415 103.073 297.336 103.266 297.169C103.451 297.02 103.547 296.8 103.547 296.501C103.547 296.202 103.468 295.974 103.292 295.833C103.134 295.684 102.879 295.604 102.545 295.604C101.622 295.604 100.77 296.299 100.515 297.336H100.471V296.545C100.471 295.965 100.102 295.587 99.5746 295.587C99.0385 295.587 98.6693 295.965 98.6693 296.545V304.165C98.6693 304.78 99.0473 305.167 99.6186 305.167ZM105.744 294.523C106.086 294.523 106.271 294.33 106.324 293.961C106.403 293.354 106.579 293.126 106.948 293.126C107.607 293.126 108.055 294.409 109.233 294.409C110.191 294.409 110.956 293.627 110.956 292.493C110.956 292.124 110.727 291.887 110.384 291.887C110.033 291.887 109.874 292.08 109.804 292.493C109.708 293.056 109.532 293.293 109.215 293.293C108.565 293.293 108.152 292.01 106.93 292.01C105.928 292.01 105.172 292.748 105.172 293.917C105.172 294.295 105.392 294.523 105.744 294.523ZM107.009 305.158C108.213 305.158 109.391 304.508 109.927 303.479H109.971V304.262C109.989 304.824 110.349 305.167 110.876 305.167C111.413 305.167 111.791 304.807 111.791 304.209V298.628C111.791 296.773 110.358 295.587 108.117 295.587C106.456 295.587 105.058 296.255 104.575 297.301C104.46 297.512 104.408 297.723 104.408 297.916C104.408 298.391 104.75 298.707 105.225 298.707C105.559 298.707 105.805 298.584 105.999 298.303C106.526 297.459 107.132 297.134 108.046 297.134C109.207 297.134 109.901 297.749 109.901 298.777V299.489L107.361 299.639C105.172 299.762 103.924 300.755 103.924 302.372C103.924 304.033 105.199 305.158 107.009 305.158ZM107.528 303.655C106.517 303.655 105.84 303.128 105.84 302.319C105.84 301.528 106.482 301.027 107.616 300.948L109.901 300.808V301.537C109.901 302.741 108.855 303.655 107.528 303.655ZM117.529 305.176C120.174 305.176 121.915 303.356 121.915 300.377C121.915 297.406 120.166 295.587 117.529 295.587C114.892 295.587 113.143 297.406 113.143 300.377C113.143 303.356 114.883 305.176 117.529 305.176ZM117.529 303.611C116.044 303.611 115.077 302.434 115.077 300.377C115.077 298.329 116.044 297.151 117.529 297.151C119.014 297.151 119.981 298.329 119.981 300.377C119.981 302.434 119.023 303.611 117.529 303.611ZM129.586 305.158C130.79 305.158 131.967 304.508 132.504 303.479H132.548V304.262C132.565 304.824 132.926 305.167 133.453 305.167C133.989 305.167 134.367 304.807 134.367 304.209V298.628C134.367 296.773 132.934 295.587 130.693 295.587C129.032 295.587 127.634 296.255 127.151 297.301C127.037 297.512 126.984 297.723 126.984 297.916C126.984 298.391 127.327 298.707 127.801 298.707C128.135 298.707 128.382 298.584 128.575 298.303C129.102 297.459 129.709 297.134 130.623 297.134C131.783 297.134 132.477 297.749 132.477 298.777V299.489L129.937 299.639C127.749 299.762 126.501 300.755 126.501 302.372C126.501 304.033 127.775 305.158 129.586 305.158ZM130.104 303.655C129.093 303.655 128.417 303.128 128.417 302.319C128.417 301.528 129.058 301.027 130.192 300.948L132.477 300.808V301.537C132.477 302.741 131.431 303.655 130.104 303.655ZM51.4941 323.785C51.4941 325.314 52.2852 326.079 53.8408 326.079H53.9375C54.8691 326.079 55.3086 325.789 55.3086 325.218C55.3086 324.77 55.0361 324.55 54.4912 324.497L54.3418 324.488C53.6562 324.436 53.4014 324.102 53.4014 323.363V318.257H54.4824C54.9746 318.257 55.2734 317.976 55.2734 317.51C55.2734 317.044 54.9746 316.754 54.4824 316.754H53.4014V315.383C53.4014 314.776 53.0234 314.372 52.4521 314.372C51.8721 314.372 51.4941 314.776 51.4941 315.383V316.754H50.8262C50.334 316.754 50.0352 317.035 50.0352 317.51C50.0352 317.976 50.334 318.257 50.8262 318.257H51.4941V323.785ZM60.4229 326.176C62.1456 326.176 63.4903 325.481 64.0968 324.269C64.1759 324.084 64.2286 323.908 64.2286 323.759C64.2286 323.284 63.8946 322.985 63.4376 322.985C63.1651 322.985 62.9718 323.082 62.7696 323.319C62.0665 324.277 61.4161 324.638 60.379 324.638C58.8673 324.638 57.918 323.583 57.918 321.896V321.852H63.5079C64.0968 321.852 64.4483 321.5 64.4483 320.885C64.4483 318.362 62.752 316.587 60.2911 316.587C57.672 316.587 56.002 318.485 56.002 321.421C56.002 324.409 57.6368 326.176 60.4229 326.176ZM57.9268 320.524C58.0235 319.083 58.9727 318.116 60.2823 318.116C61.6007 318.116 62.5059 319.074 62.5499 320.524H57.9268ZM66.8644 326.167C67.4181 326.167 67.8136 325.789 67.8136 325.165V314.152C67.8136 313.528 67.4181 313.15 66.8644 313.15C66.3107 313.15 65.9152 313.528 65.9152 314.152V325.165C65.9152 325.789 66.3107 326.167 66.8644 326.167ZM72.3918 326.158C73.5959 326.158 74.7737 325.508 75.3098 324.479H75.3538V325.262C75.3713 325.824 75.7317 326.167 76.259 326.167C76.7952 326.167 77.1731 325.807 77.1731 325.209V319.628C77.1731 317.773 75.7405 316.587 73.4993 316.587C71.8381 316.587 70.4407 317.255 69.9573 318.301C69.843 318.512 69.7903 318.723 69.7903 318.916C69.7903 319.391 70.133 319.707 70.6077 319.707C70.9416 319.707 71.1877 319.584 71.3811 319.303C71.9084 318.459 72.5149 318.134 73.4289 318.134C74.5891 318.134 75.2834 318.749 75.2834 319.777V320.489L72.7434 320.639C70.5549 320.762 69.3069 321.755 69.3069 323.372C69.3069 325.033 70.5813 326.158 72.3918 326.158ZM72.9104 324.655C71.8996 324.655 71.2229 324.128 71.2229 323.319C71.2229 322.528 71.8645 322.027 72.9983 321.948L75.2834 321.808V322.537C75.2834 323.741 74.2375 324.655 72.9104 324.655ZM83.4643 326.167C84.018 326.167 84.4135 325.789 84.4135 325.165V320.612C84.4135 319.18 85.2748 318.23 86.6107 318.23C87.9291 318.23 88.5795 318.995 88.5795 320.384V325.165C88.5795 325.789 88.975 326.167 89.5287 326.167C90.0912 326.167 90.4867 325.789 90.4867 325.165V320.015C90.4867 317.896 89.3178 316.596 87.2787 316.596C85.8549 316.596 84.8881 317.229 84.3871 318.283H84.3432V317.554C84.3432 316.965 83.9652 316.587 83.4203 316.587C82.8666 316.587 82.515 316.965 82.515 317.545V325.165C82.515 325.789 82.9018 326.167 83.4643 326.167ZM96.2163 326.176C98.8618 326.176 100.602 324.356 100.602 321.377C100.602 318.406 98.853 316.587 96.2163 316.587C93.5796 316.587 91.8305 318.406 91.8305 321.377C91.8305 324.356 93.5708 326.176 96.2163 326.176ZM96.2163 324.611C94.7309 324.611 93.7641 323.434 93.7641 321.377C93.7641 319.329 94.7309 318.151 96.2163 318.151C97.7016 318.151 98.6684 319.329 98.6684 321.377C98.6684 323.434 97.7104 324.611 96.2163 324.611ZM51.4941 344.785C51.4941 346.314 52.2852 347.079 53.8408 347.079H53.9375C54.8691 347.079 55.3086 346.789 55.3086 346.218C55.3086 345.77 55.0361 345.55 54.4912 345.497L54.3418 345.488C53.6562 345.436 53.4014 345.102 53.4014 344.363V339.257H54.4824C54.9746 339.257 55.2734 338.976 55.2734 338.51C55.2734 338.044 54.9746 337.754 54.4824 337.754H53.4014V336.383C53.4014 335.776 53.0234 335.372 52.4521 335.372C51.8721 335.372 51.4941 335.776 51.4941 336.383V337.754H50.8262C50.334 337.754 50.0352 338.035 50.0352 338.51C50.0352 338.976 50.334 339.257 50.8262 339.257H51.4941V344.785ZM60.4229 347.176C62.1456 347.176 63.4903 346.481 64.0968 345.269C64.1759 345.084 64.2286 344.908 64.2286 344.759C64.2286 344.284 63.8946 343.985 63.4376 343.985C63.1651 343.985 62.9718 344.082 62.7696 344.319C62.0665 345.277 61.4161 345.638 60.379 345.638C58.8673 345.638 57.918 344.583 57.918 342.896V342.852H63.5079C64.0968 342.852 64.4483 342.5 64.4483 341.885C64.4483 339.362 62.752 337.587 60.2911 337.587C57.672 337.587 56.002 339.485 56.002 342.421C56.002 345.409 57.6368 347.176 60.4229 347.176ZM57.9268 341.524C58.0235 340.083 58.9727 339.116 60.2823 339.116C61.6007 339.116 62.5059 340.074 62.5499 341.524H57.9268ZM66.7941 347.167C67.3654 347.167 67.7433 346.771 67.7433 346.165V341.287C67.7433 340.101 68.5431 339.222 69.6681 339.222C70.7404 339.222 71.4171 339.898 71.4171 340.962V346.165C71.4171 346.771 71.7775 347.167 72.3488 347.167C72.9201 347.167 73.2804 346.771 73.2804 346.165V341.226C73.2804 340.057 74.0627 339.222 75.1877 339.222C76.3127 339.222 76.9543 339.907 76.9543 341.103V346.165C76.9543 346.771 77.3322 347.167 77.9035 347.167C78.4748 347.167 78.8615 346.771 78.8615 346.165V340.646C78.8615 338.809 77.6662 337.596 75.838 337.596C74.5197 337.596 73.4298 338.281 72.9552 339.406H72.9113C72.5421 338.255 71.6105 337.596 70.3273 337.596C69.0793 337.596 68.1125 338.281 67.6994 339.31H67.6554V338.554C67.6554 337.947 67.2775 337.587 66.7502 337.587C66.214 337.587 65.8449 337.956 65.8449 338.554V346.165C65.8449 346.771 66.2228 347.167 66.7941 347.167ZM81.5676 350.278C82.1213 350.278 82.5168 349.892 82.5168 349.268V345.479H82.5608C83.0881 346.508 84.1428 347.158 85.47 347.158C87.7903 347.158 89.3284 345.304 89.3284 342.377C89.3284 339.45 87.7815 337.604 85.4348 337.604C84.0989 337.604 83.0354 338.281 82.4905 339.345H82.4553V338.562C82.4553 337.956 82.0686 337.587 81.5325 337.587C80.9963 337.587 80.6184 337.956 80.6184 338.562V349.268C80.6184 349.892 81.0051 350.278 81.5676 350.278ZM84.9338 345.55C83.4748 345.55 82.508 344.302 82.508 342.377C82.508 340.47 83.4836 339.204 84.9338 339.204C86.4368 339.204 87.3772 340.443 87.3772 342.377C87.3772 344.319 86.4368 345.55 84.9338 345.55ZM94.6888 347.176C97.3343 347.176 99.0745 345.356 99.0745 342.377C99.0745 339.406 97.3255 337.587 94.6888 337.587C92.0521 337.587 90.303 339.406 90.303 342.377C90.303 345.356 92.0433 347.176 94.6888 347.176ZM94.6888 345.611C93.2034 345.611 92.2366 344.434 92.2366 342.377C92.2366 340.329 93.2034 339.151 94.6888 339.151C96.1741 339.151 97.1409 340.329 97.1409 342.377C97.1409 344.434 96.1829 345.611 94.6888 345.611ZM54.9482 368.176C56.6709 368.176 58.0156 367.481 58.6221 366.269C58.7012 366.084 58.7539 365.908 58.7539 365.759C58.7539 365.284 58.4199 364.985 57.9629 364.985C57.6904 364.985 57.4971 365.082 57.2949 365.319C56.5918 366.277 55.9414 366.638 54.9043 366.638C53.3926 366.638 52.4434 365.583 52.4434 363.896V363.852H58.0332C58.6221 363.852 58.9736 363.5 58.9736 362.885C58.9736 360.362 57.2773 358.587 54.8164 358.587C52.1973 358.587 50.5273 360.485 50.5273 363.421C50.5273 366.409 52.1621 368.176 54.9482 368.176ZM52.4521 362.524C52.5488 361.083 53.498 360.116 54.8076 360.116C56.126 360.116 57.0312 361.074 57.0752 362.524H52.4521ZM63.7804 368.176C66.0655 368.176 67.6036 367.033 67.6036 365.319C67.6036 363.948 66.8565 363.254 64.9141 362.806L63.4815 362.472C62.5059 362.243 62.0577 361.839 62.0577 361.259C62.0577 360.538 62.7608 360.037 63.7804 360.037C64.712 360.037 65.2745 360.406 65.6876 361.109C65.8721 361.408 66.1446 361.514 66.4522 361.514C66.9268 361.514 67.1905 361.232 67.1905 360.811C67.1905 360.723 67.1729 360.635 67.1554 360.529C66.8917 359.439 65.5206 358.587 63.8507 358.587C61.6534 358.587 60.2032 359.694 60.2032 361.364C60.2032 362.683 61.0821 363.562 62.8751 363.983L64.3341 364.326C65.3272 364.563 65.6876 364.889 65.6876 365.495C65.6876 366.26 64.9581 366.726 63.877 366.726C62.7784 366.726 62.2247 366.392 61.7501 365.645C61.5128 365.293 61.2403 365.144 60.9239 365.144C60.4493 365.144 60.1065 365.425 60.1065 365.899C60.1065 366.022 60.1241 366.154 60.1856 366.295C60.6251 367.429 61.961 368.176 63.7804 368.176ZM69.5451 365.785C69.5451 367.314 70.3361 368.079 71.8918 368.079H71.9884C72.9201 368.079 73.3595 367.789 73.3595 367.218C73.3595 366.77 73.0871 366.55 72.5421 366.497L72.3927 366.488C71.7072 366.436 71.4523 366.102 71.4523 365.363V360.257H72.5334C73.0255 360.257 73.3244 359.976 73.3244 359.51C73.3244 359.044 73.0255 358.754 72.5334 358.754H71.4523V357.383C71.4523 356.776 71.0744 356.372 70.5031 356.372C69.923 356.372 69.5451 356.776 69.5451 357.383V358.754H68.8771C68.3849 358.754 68.0861 359.035 68.0861 359.51C68.0861 359.976 68.3849 360.257 68.8771 360.257H69.5451V365.785ZM77.261 368.158C78.4651 368.158 79.6428 367.508 80.1789 366.479H80.2229V367.262C80.2405 367.824 80.6008 368.167 81.1282 368.167C81.6643 368.167 82.0422 367.807 82.0422 367.209V361.628C82.0422 359.773 80.6096 358.587 78.3684 358.587C76.7073 358.587 75.3098 359.255 74.8264 360.301C74.7121 360.512 74.6594 360.723 74.6594 360.916C74.6594 361.391 75.0022 361.707 75.4768 361.707C75.8108 361.707 76.0569 361.584 76.2502 361.303C76.7776 360.459 77.384 360.134 78.2981 360.134C79.4582 360.134 80.1526 360.749 80.1526 361.777V362.489L77.6125 362.639C75.4241 362.762 74.176 363.755 74.176 365.372C74.176 367.033 75.4504 368.158 77.261 368.158ZM77.7795 366.655C76.7688 366.655 76.092 366.128 76.092 365.319C76.092 364.528 76.7336 364.027 77.8674 363.948L80.1526 363.808V364.537C80.1526 365.741 79.1067 366.655 77.7795 366.655ZM84.7835 368.167C85.3372 368.167 85.7239 367.815 85.7239 367.218V366.427H85.7591C86.3304 367.499 87.3851 368.158 88.7298 368.158C91.0853 368.158 92.597 366.312 92.597 363.377C92.597 360.45 91.0765 358.604 88.7474 358.604C87.4378 358.604 86.3743 359.255 85.8206 360.327H85.7767V356.152C85.7767 355.528 85.3812 355.15 84.8275 355.15C84.2738 355.15 83.8782 355.528 83.8782 356.152V367.218C83.8782 367.815 84.2386 368.167 84.7835 368.167ZM88.22 366.55C86.7874 366.55 85.7679 365.302 85.7679 363.377C85.7679 361.47 86.7874 360.204 88.22 360.204C89.7142 360.204 90.6458 361.435 90.6458 363.377C90.6458 365.337 89.723 366.55 88.22 366.55ZM98.0014 368.176C99.724 368.176 101.069 367.481 101.675 366.269C101.754 366.084 101.807 365.908 101.807 365.759C101.807 365.284 101.473 364.985 101.016 364.985C100.744 364.985 100.55 365.082 100.348 365.319C99.6449 366.277 98.9945 366.638 97.9574 366.638C96.4457 366.638 95.4965 365.583 95.4965 363.896V363.852H101.086C101.675 363.852 102.027 363.5 102.027 362.885C102.027 360.362 100.33 358.587 97.8695 358.587C95.2504 358.587 93.5805 360.485 93.5805 363.421C93.5805 366.409 95.2152 368.176 98.0014 368.176ZM95.5053 362.524C95.602 361.083 96.5512 360.116 97.8607 360.116C99.1791 360.116 100.084 361.074 100.128 362.524H95.5053ZM104.443 368.167C104.997 368.167 105.392 367.789 105.392 367.165V356.152C105.392 355.528 104.997 355.15 104.443 355.15C103.889 355.15 103.494 355.528 103.494 356.152V367.165C103.494 367.789 103.889 368.167 104.443 368.167ZM111.271 368.176C112.994 368.176 114.338 367.481 114.945 366.269C115.024 366.084 115.077 365.908 115.077 365.759C115.077 365.284 114.743 364.985 114.286 364.985C114.013 364.985 113.82 365.082 113.618 365.319C112.915 366.277 112.264 366.638 111.227 366.638C109.715 366.638 108.766 365.583 108.766 363.896V363.852H114.356C114.945 363.852 115.296 363.5 115.296 362.885C115.296 360.362 113.6 358.587 111.139 358.587C108.52 358.587 106.85 360.485 106.85 363.421C106.85 366.409 108.485 368.176 111.271 368.176ZM108.775 362.524C108.872 361.083 109.821 360.116 111.13 360.116C112.449 360.116 113.354 361.074 113.398 362.524H108.775ZM120.648 368.176C122.362 368.176 123.865 367.271 124.348 365.996C124.419 365.812 124.454 365.653 124.454 365.504C124.454 365.029 124.111 364.713 123.645 364.713C123.232 364.713 123.03 364.871 122.766 365.328C122.318 366.128 121.694 366.585 120.666 366.585C119.198 366.585 118.214 365.39 118.214 363.377C118.214 361.408 119.18 360.169 120.666 360.169C121.641 360.169 122.292 360.591 122.766 361.47C122.995 361.892 123.223 362.05 123.628 362.05C124.093 362.05 124.436 361.751 124.436 361.268C124.436 361.136 124.401 360.978 124.348 360.828C123.944 359.536 122.415 358.587 120.631 358.587C117.994 358.587 116.28 360.468 116.28 363.395C116.28 366.339 118.003 368.176 120.648 368.176ZM126.923 357.356C127.538 357.356 128.03 356.864 128.03 356.267C128.03 355.66 127.538 355.186 126.923 355.186C126.316 355.186 125.824 355.66 125.824 356.267C125.824 356.864 126.316 357.356 126.923 357.356ZM126.923 368.167C127.494 368.167 127.872 367.771 127.872 367.165V359.598C127.872 358.982 127.494 358.587 126.923 358.587C126.351 358.587 125.973 358.982 125.973 359.598V367.165C125.973 367.771 126.351 368.167 126.923 368.167ZM133.206 368.158C134.647 368.158 135.623 367.438 136.097 366.356H136.124V367.218C136.124 367.815 136.554 368.167 137.091 368.167C137.644 368.167 138.031 367.815 138.031 367.218V356.152C138.031 355.528 137.636 355.15 137.082 355.15C136.519 355.15 136.124 355.528 136.124 356.152V360.292H136.089C135.57 359.272 134.515 358.604 133.188 358.604C130.868 358.604 129.321 360.459 129.321 363.377C129.321 366.295 130.868 368.158 133.206 368.158ZM133.707 366.55C132.204 366.55 131.263 365.328 131.263 363.377C131.263 361.435 132.204 360.204 133.707 360.204C135.166 360.204 136.141 361.461 136.141 363.377C136.141 365.311 135.166 366.55 133.707 366.55ZM143.875 368.176C146.52 368.176 148.261 366.356 148.261 363.377C148.261 360.406 146.512 358.587 143.875 358.587C141.238 358.587 139.489 360.406 139.489 363.377C139.489 366.356 141.229 368.176 143.875 368.176ZM143.875 366.611C142.39 366.611 141.423 365.434 141.423 363.377C141.423 361.329 142.39 360.151 143.875 360.151C145.36 360.151 146.327 361.329 146.327 363.377C146.327 365.434 145.369 366.611 143.875 366.611Z" fill="white"/>
<path d="M132.185 264.741C131.49 265.191 131.291 266.119 131.741 266.815C132.191 267.51 133.119 267.709 133.815 267.259L132.185 264.741ZM168.467 244.314C168.64 243.504 168.124 242.707 167.314 242.533L154.114 239.705C153.304 239.531 152.507 240.047 152.333 240.857C152.159 241.667 152.675 242.464 153.485 242.638L165.219 245.152L162.705 256.886C162.531 257.696 163.047 258.493 163.857 258.667C164.667 258.841 165.464 258.325 165.638 257.515L168.467 244.314ZM133.815 267.259L167.815 245.259L166.185 242.741L132.185 264.741L133.815 267.259Z" fill="white"/>
<path d="M35.2998 595.141C35.9062 595.141 36.2842 594.754 36.2842 594.121V584.022H39.3867C39.9316 584.022 40.3008 583.688 40.3008 583.17C40.3008 582.651 39.9316 582.317 39.3867 582.317H31.2041C30.6592 582.317 30.29 582.651 30.29 583.17C30.29 583.688 30.6592 584.022 31.2041 584.022H34.3154V594.121C34.3154 594.754 34.6846 595.141 35.2998 595.141ZM43.1651 595.176C45.8106 595.176 47.5509 593.356 47.5509 590.377C47.5509 587.406 45.8018 585.587 43.1651 585.587C40.5284 585.587 38.7794 587.406 38.7794 590.377C38.7794 593.356 40.5196 595.176 43.1651 595.176ZM43.1651 593.611C41.6798 593.611 40.713 592.434 40.713 590.377C40.713 588.329 41.6798 587.151 43.1651 587.151C44.6505 587.151 45.6173 588.329 45.6173 590.377C45.6173 592.434 44.6593 593.611 43.1651 593.611ZM52.3664 595.158C53.6847 595.158 54.7658 594.481 55.2931 593.444H55.3283V597.268C55.3283 597.892 55.7238 598.278 56.2863 598.278C56.84 598.278 57.2355 597.892 57.2355 597.268V586.562C57.2355 585.982 56.8839 585.587 56.3127 585.587C55.7414 585.587 55.3898 585.974 55.3898 586.562V587.345H55.3459C54.8009 586.281 53.7463 585.604 52.4103 585.604C50.0461 585.604 48.5255 587.459 48.5255 590.377C48.5255 593.295 50.0461 595.158 52.3664 595.158ZM52.8761 593.55C51.3908 593.55 50.4679 592.337 50.4679 590.377C50.4679 588.417 51.3908 587.204 52.8761 587.204C54.3351 587.204 55.3371 588.461 55.3371 590.377C55.3371 592.302 54.3351 593.55 52.8761 593.55ZM62.2356 595.167C63.6506 595.167 64.5911 594.543 65.1008 593.436H65.1448V594.209C65.1448 594.789 65.5139 595.167 66.0588 595.167C66.6038 595.167 66.9641 594.789 66.9641 594.2V586.598C66.9641 585.965 66.5774 585.587 66.0149 585.587C65.4612 585.587 65.0657 585.965 65.0657 586.598V591.142C65.0657 592.583 64.2395 593.532 62.8684 593.532C61.5588 593.532 60.8909 592.776 60.8909 591.37V586.598C60.8909 585.965 60.4954 585.587 59.9416 585.587C59.3791 585.587 58.9924 585.965 58.9924 586.598V591.739C58.9924 593.857 60.2229 595.167 62.2356 595.167ZM72.7728 595.176C74.4954 595.176 75.8402 594.481 76.4466 593.269C76.5257 593.084 76.5784 592.908 76.5784 592.759C76.5784 592.284 76.2445 591.985 75.7874 591.985C75.515 591.985 75.3216 592.082 75.1195 592.319C74.4163 593.277 73.7659 593.638 72.7288 593.638C71.2171 593.638 70.2679 592.583 70.2679 590.896V590.852H75.8577C76.4466 590.852 76.7982 590.5 76.7982 589.885C76.7982 587.362 75.1019 585.587 72.6409 585.587C70.0218 585.587 68.3519 587.485 68.3519 590.421C68.3519 593.409 69.9866 595.176 72.7728 595.176ZM70.2767 589.524C70.3734 588.083 71.3226 587.116 72.6321 587.116C73.9505 587.116 74.8558 588.074 74.8997 589.524H70.2767ZM86.4116 594.631C86.9389 594.631 87.2729 594.253 87.2729 593.708V590.825H89.9975C90.5337 590.825 90.9116 590.5 90.9116 589.973C90.9116 589.445 90.5337 589.111 89.9975 589.111H87.2729V586.22C87.2729 585.675 86.9389 585.297 86.4116 585.297C85.8755 585.297 85.5415 585.675 85.5415 586.22V589.111H82.8081C82.272 589.111 81.9028 589.445 81.9028 589.973C81.9028 590.5 82.272 590.825 82.8081 590.825H85.5415V593.708C85.5415 594.253 85.8755 594.631 86.4116 594.631ZM97.3786 598.278C97.9323 598.278 98.3278 597.892 98.3278 597.268V593.479H98.3717C98.8991 594.508 99.9538 595.158 101.281 595.158C103.601 595.158 105.139 593.304 105.139 590.377C105.139 587.45 103.592 585.604 101.246 585.604C99.9098 585.604 98.8463 586.281 98.3014 587.345H98.2663V586.562C98.2663 585.956 97.8795 585.587 97.3434 585.587C96.8073 585.587 96.4293 585.956 96.4293 586.562V597.268C96.4293 597.892 96.8161 598.278 97.3786 598.278ZM100.745 593.55C99.2858 593.55 98.319 592.302 98.319 590.377C98.319 588.47 99.2946 587.204 100.745 587.204C102.248 587.204 103.188 588.443 103.188 590.377C103.188 592.319 102.248 593.55 100.745 593.55ZM109.234 595.158C110.438 595.158 111.616 594.508 112.152 593.479H112.196V594.262C112.214 594.824 112.574 595.167 113.101 595.167C113.637 595.167 114.015 594.807 114.015 594.209V588.628C114.015 586.773 112.583 585.587 110.342 585.587C108.68 585.587 107.283 586.255 106.8 587.301C106.685 587.512 106.633 587.723 106.633 587.916C106.633 588.391 106.975 588.707 107.45 588.707C107.784 588.707 108.03 588.584 108.223 588.303C108.751 587.459 109.357 587.134 110.271 587.134C111.431 587.134 112.126 587.749 112.126 588.777V589.489L109.586 589.639C107.397 589.762 106.149 590.755 106.149 592.372C106.149 594.033 107.424 595.158 109.234 595.158ZM109.753 593.655C108.742 593.655 108.065 593.128 108.065 592.319C108.065 591.528 108.707 591.027 109.841 590.948L112.126 590.808V591.537C112.126 592.741 111.08 593.655 109.753 593.655ZM116.73 595.167C117.293 595.167 117.679 594.78 117.679 594.165V589.445C117.679 588.294 118.207 587.424 119.508 587.415C119.903 587.415 120.184 587.336 120.378 587.169C120.562 587.02 120.659 586.8 120.659 586.501C120.659 586.202 120.58 585.974 120.404 585.833C120.246 585.684 119.991 585.604 119.657 585.604C118.734 585.604 117.882 586.299 117.627 587.336H117.583V586.545C117.583 585.965 117.214 585.587 116.686 585.587C116.15 585.587 115.781 585.965 115.781 586.545V594.165C115.781 594.78 116.159 595.167 116.73 595.167ZM124.121 595.158C125.325 595.158 126.503 594.508 127.039 593.479H127.083V594.262C127.1 594.824 127.461 595.167 127.988 595.167C128.524 595.167 128.902 594.807 128.902 594.209V588.628C128.902 586.773 127.47 585.587 125.228 585.587C123.567 585.587 122.17 586.255 121.686 587.301C121.572 587.512 121.519 587.723 121.519 587.916C121.519 588.391 121.862 588.707 122.337 588.707C122.671 588.707 122.917 588.584 123.11 588.303C123.638 587.459 124.244 587.134 125.158 587.134C126.318 587.134 127.013 587.749 127.013 588.777V589.489L124.473 589.639C122.284 589.762 121.036 590.755 121.036 592.372C121.036 594.033 122.31 595.158 124.121 595.158ZM124.64 593.655C123.629 593.655 122.952 593.128 122.952 592.319C122.952 591.528 123.594 591.027 124.727 590.948L127.013 590.808V591.537C127.013 592.741 125.967 593.655 124.64 593.655ZM33.6475 616.158C34.8516 616.158 36.0293 615.508 36.5654 614.479H36.6094V615.262C36.627 615.824 36.9873 616.167 37.5146 616.167C38.0508 616.167 38.4287 615.807 38.4287 615.209V609.628C38.4287 607.773 36.9961 606.587 34.7549 606.587C33.0938 606.587 31.6963 607.255 31.2129 608.301C31.0986 608.512 31.0459 608.723 31.0459 608.916C31.0459 609.391 31.3887 609.707 31.8633 609.707C32.1973 609.707 32.4434 609.584 32.6367 609.303C33.1641 608.459 33.7705 608.134 34.6846 608.134C35.8447 608.134 36.5391 608.749 36.5391 609.777V610.489L33.999 610.639C31.8105 610.762 30.5625 611.755 30.5625 613.372C30.5625 615.033 31.8369 616.158 33.6475 616.158ZM34.166 614.655C33.1553 614.655 32.4785 614.128 32.4785 613.319C32.4785 612.528 33.1201 612.027 34.2539 611.948L36.5391 611.808V612.537C36.5391 613.741 35.4932 614.655 34.166 614.655ZM44.1495 616.176C45.8634 616.176 47.3663 615.271 47.8497 613.996C47.92 613.812 47.9552 613.653 47.9552 613.504C47.9552 613.029 47.6124 612.713 47.1466 612.713C46.7335 612.713 46.5313 612.871 46.2677 613.328C45.8194 614.128 45.1954 614.585 44.1671 614.585C42.6993 614.585 41.7149 613.39 41.7149 611.377C41.7149 609.408 42.6817 608.169 44.1671 608.169C45.1427 608.169 45.793 608.591 46.2677 609.47C46.4962 609.892 46.7247 610.05 47.129 610.05C47.5948 610.05 47.9376 609.751 47.9376 609.268C47.9376 609.136 47.9024 608.978 47.8497 608.828C47.4454 607.536 45.9161 606.587 44.1319 606.587C41.4952 606.587 39.7813 608.468 39.7813 611.395C39.7813 614.339 41.504 616.176 44.1495 616.176ZM50.3625 616.167C50.925 616.167 51.3117 615.78 51.3117 615.165V610.445C51.3117 609.294 51.839 608.424 53.1398 608.415C53.5353 608.415 53.8166 608.336 54.0099 608.169C54.1945 608.02 54.2912 607.8 54.2912 607.501C54.2912 607.202 54.2121 606.974 54.0363 606.833C53.8781 606.684 53.6232 606.604 53.2892 606.604C52.3664 606.604 51.5138 607.299 51.2589 608.336H51.215V607.545C51.215 606.965 50.8459 606.587 50.3185 606.587C49.7824 606.587 49.4132 606.965 49.4132 607.545V615.165C49.4132 615.78 49.7912 616.167 50.3625 616.167ZM58.843 616.176C60.5657 616.176 61.9104 615.481 62.5168 614.269C62.5959 614.084 62.6487 613.908 62.6487 613.759C62.6487 613.284 62.3147 612.985 61.8577 612.985C61.5852 612.985 61.3918 613.082 61.1897 613.319C60.4866 614.277 59.8362 614.638 58.7991 614.638C57.2873 614.638 56.3381 613.583 56.3381 611.896V611.852H61.928C62.5168 611.852 62.8684 611.5 62.8684 610.885C62.8684 608.362 61.1721 606.587 58.7112 606.587C56.092 606.587 54.4221 608.485 54.4221 611.421C54.4221 614.409 56.0569 616.176 58.843 616.176ZM56.3469 610.524C56.4436 609.083 57.3928 608.116 58.7024 608.116C60.0207 608.116 60.926 609.074 60.97 610.524H56.3469ZM67.6751 616.176C69.9603 616.176 71.4984 615.033 71.4984 613.319C71.4984 611.948 70.7513 611.254 68.8089 610.806L67.3763 610.472C66.4007 610.243 65.9525 609.839 65.9525 609.259C65.9525 608.538 66.6556 608.037 67.6751 608.037C68.6068 608.037 69.1693 608.406 69.5823 609.109C69.7669 609.408 70.0394 609.514 70.347 609.514C70.8216 609.514 71.0853 609.232 71.0853 608.811C71.0853 608.723 71.0677 608.635 71.0501 608.529C70.7864 607.439 69.4154 606.587 67.7454 606.587C65.5482 606.587 64.098 607.694 64.098 609.364C64.098 610.683 64.9769 611.562 66.7698 611.983L68.2288 612.326C69.222 612.563 69.5823 612.889 69.5823 613.495C69.5823 614.26 68.8529 614.726 67.7718 614.726C66.6732 614.726 66.1195 614.392 65.6448 613.645C65.4075 613.293 65.1351 613.144 64.8187 613.144C64.3441 613.144 64.0013 613.425 64.0013 613.899C64.0013 614.022 64.0189 614.154 64.0804 614.295C64.5198 615.429 65.8558 616.176 67.6751 616.176ZM76.8412 616.176C78.5551 616.176 80.058 615.271 80.5414 613.996C80.6117 613.812 80.6469 613.653 80.6469 613.504C80.6469 613.029 80.3041 612.713 79.8383 612.713C79.4252 612.713 79.223 612.871 78.9594 613.328C78.5111 614.128 77.8871 614.585 76.8588 614.585C75.391 614.585 74.4066 613.39 74.4066 611.377C74.4066 609.408 75.3734 608.169 76.8588 608.169C77.8344 608.169 78.4848 608.591 78.9594 609.47C79.1879 609.892 79.4164 610.05 79.8207 610.05C80.2865 610.05 80.6293 609.751 80.6293 609.268C80.6293 609.136 80.5941 608.978 80.5414 608.828C80.1371 607.536 78.6078 606.587 76.8236 606.587C74.1869 606.587 72.473 608.468 72.473 611.395C72.473 614.339 74.1957 616.176 76.8412 616.176ZM86.1128 616.176C87.8354 616.176 89.1802 615.481 89.7866 614.269C89.8657 614.084 89.9184 613.908 89.9184 613.759C89.9184 613.284 89.5845 612.985 89.1274 612.985C88.855 612.985 88.6616 613.082 88.4595 613.319C87.7563 614.277 87.1059 614.638 86.0688 614.638C84.5571 614.638 83.6079 613.583 83.6079 611.896V611.852H89.1977C89.7866 611.852 90.1382 611.5 90.1382 610.885C90.1382 608.362 88.4419 606.587 85.9809 606.587C83.3618 606.587 81.6919 608.485 81.6919 611.421C81.6919 614.409 83.3266 616.176 86.1128 616.176ZM83.6167 610.524C83.7134 609.083 84.6626 608.116 85.9721 608.116C87.2905 608.116 88.1958 609.074 88.2397 610.524H83.6167ZM92.4839 616.167C93.0377 616.167 93.4332 615.789 93.4332 615.165V610.612C93.4332 609.18 94.2945 608.23 95.6304 608.23C96.9488 608.23 97.5992 608.995 97.5992 610.384V615.165C97.5992 615.789 97.9947 616.167 98.5484 616.167C99.1109 616.167 99.5064 615.789 99.5064 615.165V610.015C99.5064 607.896 98.3375 606.596 96.2984 606.596C94.8746 606.596 93.9078 607.229 93.4068 608.283H93.3629V607.554C93.3629 606.965 92.9849 606.587 92.44 606.587C91.8863 606.587 91.5347 606.965 91.5347 607.545V615.165C91.5347 615.789 91.9214 616.167 92.4839 616.167ZM101.817 613.785C101.817 615.314 102.608 616.079 104.164 616.079H104.26C105.192 616.079 105.631 615.789 105.631 615.218C105.631 614.77 105.359 614.55 104.814 614.497L104.665 614.488C103.979 614.436 103.724 614.102 103.724 613.363V608.257H104.805C105.298 608.257 105.596 607.976 105.596 607.51C105.596 607.044 105.298 606.754 104.805 606.754H103.724V605.383C103.724 604.776 103.346 604.372 102.775 604.372C102.195 604.372 101.817 604.776 101.817 605.383V606.754H101.149C100.657 606.754 100.358 607.035 100.358 607.51C100.358 607.976 100.657 608.257 101.149 608.257H101.817V613.785ZM109.533 616.158C110.737 616.158 111.915 615.508 112.451 614.479H112.495V615.262C112.512 615.824 112.873 616.167 113.4 616.167C113.936 616.167 114.314 615.807 114.314 615.209V609.628C114.314 607.773 112.882 606.587 110.64 606.587C108.979 606.587 107.582 607.255 107.098 608.301C106.984 608.512 106.931 608.723 106.931 608.916C106.931 609.391 107.274 609.707 107.749 609.707C108.083 609.707 108.329 609.584 108.522 609.303C109.05 608.459 109.656 608.134 110.57 608.134C111.73 608.134 112.425 608.749 112.425 609.777V610.489L109.884 610.639C107.696 610.762 106.448 611.755 106.448 613.372C106.448 615.033 107.722 616.158 109.533 616.158ZM110.051 614.655C109.041 614.655 108.364 614.128 108.364 613.319C108.364 612.528 109.006 612.027 110.139 611.948L112.425 611.808V612.537C112.425 613.741 111.379 614.655 110.051 614.655ZM117.029 616.167C117.592 616.167 117.978 615.78 117.978 615.165V610.445C117.978 609.294 118.506 608.424 119.806 608.415C120.202 608.415 120.483 608.336 120.677 608.169C120.861 608.02 120.958 607.8 120.958 607.501C120.958 607.202 120.879 606.974 120.703 606.833C120.545 606.684 120.29 606.604 119.956 606.604C119.033 606.604 118.18 607.299 117.926 608.336H117.882V607.545C117.882 606.965 117.512 606.587 116.985 606.587C116.449 606.587 116.08 606.965 116.08 607.545V615.165C116.08 615.78 116.458 616.167 117.029 616.167ZM31.8896 637.167C32.4609 637.167 32.8389 636.771 32.8389 636.165V631.287C32.8389 630.101 33.6387 629.222 34.7637 629.222C35.8359 629.222 36.5127 629.898 36.5127 630.962V636.165C36.5127 636.771 36.873 637.167 37.4443 637.167C38.0156 637.167 38.376 636.771 38.376 636.165V631.226C38.376 630.057 39.1582 629.222 40.2832 629.222C41.4082 629.222 42.0498 629.907 42.0498 631.103V636.165C42.0498 636.771 42.4277 637.167 42.999 637.167C43.5703 637.167 43.957 636.771 43.957 636.165V630.646C43.957 628.809 42.7617 627.596 40.9336 627.596C39.6152 627.596 38.5254 628.281 38.0508 629.406H38.0068C37.6377 628.255 36.7061 627.596 35.4229 627.596C34.1748 627.596 33.208 628.281 32.7949 629.31H32.751V628.554C32.751 627.947 32.373 627.587 31.8457 627.587C31.3096 627.587 30.9404 627.956 30.9404 628.554V636.165C30.9404 636.771 31.3184 637.167 31.8896 637.167ZM48.421 637.158C49.6251 637.158 50.8028 636.508 51.3389 635.479H51.3829V636.262C51.4005 636.824 51.7608 637.167 52.2882 637.167C52.8243 637.167 53.2022 636.807 53.2022 636.209V630.628C53.2022 628.773 51.7696 627.587 49.5284 627.587C47.8673 627.587 46.4698 628.255 45.9864 629.301C45.8721 629.512 45.8194 629.723 45.8194 629.916C45.8194 630.391 46.1622 630.707 46.6368 630.707C46.9708 630.707 47.2169 630.584 47.4102 630.303C47.9376 629.459 48.544 629.134 49.4581 629.134C50.6182 629.134 51.3126 629.749 51.3126 630.777V631.489L48.7725 631.639C46.5841 631.762 45.336 632.755 45.336 634.372C45.336 636.033 46.6104 637.158 48.421 637.158ZM48.9395 635.655C47.9288 635.655 47.252 635.128 47.252 634.319C47.252 633.528 47.8936 633.027 49.0274 632.948L51.3126 632.808V633.537C51.3126 634.741 50.2667 635.655 48.9395 635.655ZM55.9787 626.356C56.5939 626.356 57.0861 625.864 57.0861 625.267C57.0861 624.66 56.5939 624.186 55.9787 624.186C55.3722 624.186 54.88 624.66 54.88 625.267C54.88 625.864 55.3722 626.356 55.9787 626.356ZM55.9787 637.167C56.55 637.167 56.9279 636.771 56.9279 636.165V628.598C56.9279 627.982 56.55 627.587 55.9787 627.587C55.4074 627.587 55.0295 627.982 55.0295 628.598V636.165C55.0295 636.771 55.4074 637.167 55.9787 637.167ZM62.2004 637.176C64.4856 637.176 66.0237 636.033 66.0237 634.319C66.0237 632.948 65.2766 632.254 63.3342 631.806L61.9016 631.472C60.926 631.243 60.4778 630.839 60.4778 630.259C60.4778 629.538 61.1809 629.037 62.2004 629.037C63.1321 629.037 63.6946 629.406 64.1077 630.109C64.2922 630.408 64.5647 630.514 64.8723 630.514C65.3469 630.514 65.6106 630.232 65.6106 629.811C65.6106 629.723 65.593 629.635 65.5754 629.529C65.3118 628.439 63.9407 627.587 62.2707 627.587C60.0735 627.587 58.6233 628.694 58.6233 630.364C58.6233 631.683 59.5022 632.562 61.2952 632.983L62.7541 633.326C63.7473 633.563 64.1077 633.889 64.1077 634.495C64.1077 635.26 63.3782 635.726 62.2971 635.726C61.1985 635.726 60.6448 635.392 60.1702 634.645C59.9329 634.293 59.6604 634.144 59.344 634.144C58.8694 634.144 58.5266 634.425 58.5266 634.899C58.5266 635.022 58.5442 635.154 58.6057 635.295C59.0452 636.429 60.3811 637.176 62.2004 637.176ZM71.5414 634.785C71.5414 636.314 72.3324 637.079 73.8881 637.079H73.9848C74.9164 637.079 75.3559 636.789 75.3559 636.218C75.3559 635.77 75.0834 635.55 74.5385 635.497L74.3891 635.488C73.7035 635.436 73.4486 635.102 73.4486 634.363V629.257H74.5297C75.0219 629.257 75.3207 628.976 75.3207 628.51C75.3207 628.044 75.0219 627.754 74.5297 627.754H73.4486V626.383C73.4486 625.776 73.0707 625.372 72.4994 625.372C71.9193 625.372 71.5414 625.776 71.5414 626.383V627.754H70.8734C70.3812 627.754 70.0824 628.035 70.0824 628.51C70.0824 628.976 70.3812 629.257 70.8734 629.257H71.5414V634.785ZM80.4702 637.176C82.1929 637.176 83.5376 636.481 84.144 635.269C84.2231 635.084 84.2759 634.908 84.2759 634.759C84.2759 634.284 83.9419 633.985 83.4848 633.985C83.2124 633.985 83.019 634.082 82.8169 634.319C82.1138 635.277 81.4634 635.638 80.4263 635.638C78.9145 635.638 77.9653 634.583 77.9653 632.896V632.852H83.5552C84.144 632.852 84.4956 632.5 84.4956 631.885C84.4956 629.362 82.7993 627.587 80.3384 627.587C77.7192 627.587 76.0493 629.485 76.0493 632.421C76.0493 635.409 77.6841 637.176 80.4702 637.176ZM77.9741 631.524C78.0708 630.083 79.02 629.116 80.3296 629.116C81.6479 629.116 82.5532 630.074 82.5971 631.524H77.9741ZM86.8414 637.167C87.4127 637.167 87.7906 636.771 87.7906 636.165V631.287C87.7906 630.101 88.5904 629.222 89.7154 629.222C90.7877 629.222 91.4644 629.898 91.4644 630.962V636.165C91.4644 636.771 91.8248 637.167 92.3961 637.167C92.9673 637.167 93.3277 636.771 93.3277 636.165V631.226C93.3277 630.057 94.1099 629.222 95.2349 629.222C96.3599 629.222 97.0015 629.907 97.0015 631.103V636.165C97.0015 636.771 97.3795 637.167 97.9507 637.167C98.522 637.167 98.9087 636.771 98.9087 636.165V630.646C98.9087 628.809 97.7134 627.596 95.8853 627.596C94.567 627.596 93.4771 628.281 93.0025 629.406H92.9586C92.5894 628.255 91.6578 627.596 90.3746 627.596C89.1265 627.596 88.1597 628.281 87.7466 629.31H87.7027V628.554C87.7027 627.947 87.3248 627.587 86.7974 627.587C86.2613 627.587 85.8921 627.956 85.8921 628.554V636.165C85.8921 636.771 86.2701 637.167 86.8414 637.167ZM101.615 640.278C102.169 640.278 102.564 639.892 102.564 639.268V635.479H102.608C103.135 636.508 104.19 637.158 105.517 637.158C107.838 637.158 109.376 635.304 109.376 632.377C109.376 629.45 107.829 627.604 105.482 627.604C104.146 627.604 103.083 628.281 102.538 629.345H102.503V628.562C102.503 627.956 102.116 627.587 101.58 627.587C101.044 627.587 100.666 627.956 100.666 628.562V639.268C100.666 639.892 101.052 640.278 101.615 640.278ZM104.981 635.55C103.522 635.55 102.555 634.302 102.555 632.377C102.555 630.47 103.531 629.204 104.981 629.204C106.484 629.204 107.424 630.443 107.424 632.377C107.424 634.319 106.484 635.55 104.981 635.55ZM114.736 637.176C117.382 637.176 119.122 635.356 119.122 632.377C119.122 629.406 117.373 627.587 114.736 627.587C112.099 627.587 110.35 629.406 110.35 632.377C110.35 635.356 112.091 637.176 114.736 637.176ZM114.736 635.611C113.251 635.611 112.284 634.434 112.284 632.377C112.284 630.329 113.251 629.151 114.736 629.151C116.221 629.151 117.188 630.329 117.188 632.377C117.188 634.434 116.23 635.611 114.736 635.611Z" fill="black"/>
<path d="M71.496 643.891C71.4355 643.064 70.7168 642.444 69.8905 642.504C69.0643 642.564 68.4435 643.283 68.504 644.109L71.496 643.891ZM72.0196 686.135C72.6466 686.677 73.5938 686.607 74.1353 685.98L82.9591 675.763C83.5006 675.136 83.4313 674.189 82.8043 673.648C82.1773 673.106 81.2301 673.175 80.6886 673.802L72.8452 682.884L63.7633 675.041C63.1364 674.499 62.1891 674.569 61.6477 675.196C61.1062 675.823 61.1755 676.77 61.8025 677.311L72.0196 686.135ZM68.504 644.109L71.504 685.109L74.496 684.891L71.496 643.891L68.504 644.109Z" fill="black"/>
<path d="M347.563 586.013C345.223 600.506 329.212 609.976 311.801 607.164C294.39 604.353 282.173 590.325 284.513 575.832C286.853 561.339 310.064 507.279 327.475 510.09C344.886 512.901 349.903 571.52 347.563 586.013Z" fill="black"/>
<path d="M186.065 664.141C186.628 664.141 186.962 663.789 186.962 663.2V654.666H187.023L190.565 663.2C190.768 663.692 191.093 663.921 191.585 663.921C192.077 663.921 192.394 663.692 192.604 663.183L196.138 654.666H196.199V663.2C196.199 663.789 196.542 664.141 197.104 664.141C197.658 664.141 198.001 663.789 198.001 663.2V652.425C198.001 651.651 197.518 651.177 196.753 651.177C196.067 651.177 195.663 651.484 195.364 652.214L191.62 661.328H191.55L187.797 652.214C187.498 651.476 187.103 651.177 186.435 651.177C185.652 651.177 185.169 651.66 185.169 652.425V663.2C185.169 663.789 185.503 664.141 186.065 664.141ZM204.003 664.176C206.649 664.176 208.389 662.356 208.389 659.377C208.389 656.406 206.64 654.587 204.003 654.587C201.366 654.587 199.617 656.406 199.617 659.377C199.617 662.356 201.358 664.176 204.003 664.176ZM204.003 662.611C202.518 662.611 201.551 661.434 201.551 659.377C201.551 657.329 202.518 656.151 204.003 656.151C205.488 656.151 206.455 657.329 206.455 659.377C206.455 661.434 205.497 662.611 204.003 662.611ZM213.09 664.167C213.74 664.167 214.145 663.868 214.391 663.2L217.133 655.958C217.194 655.8 217.23 655.615 217.23 655.448C217.23 654.947 216.843 654.587 216.298 654.587C215.867 654.587 215.569 654.824 215.41 655.316L213.116 662.146H213.081L210.787 655.334C210.629 654.824 210.33 654.587 209.891 654.587C209.337 654.587 208.933 654.93 208.933 655.457C208.933 655.633 208.977 655.817 209.038 655.984L211.78 663.2C212.044 663.886 212.413 664.167 213.09 664.167ZM220.947 664.158C222.151 664.158 223.328 663.508 223.864 662.479H223.908V663.262C223.926 663.824 224.286 664.167 224.814 664.167C225.35 664.167 225.728 663.807 225.728 663.209V657.628C225.728 655.773 224.295 654.587 222.054 654.587C220.393 654.587 218.995 655.255 218.512 656.301C218.398 656.512 218.345 656.723 218.345 656.916C218.345 657.391 218.688 657.707 219.162 657.707C219.496 657.707 219.742 657.584 219.936 657.303C220.463 656.459 221.07 656.134 221.984 656.134C223.144 656.134 223.838 656.749 223.838 657.777V658.489L221.298 658.639C219.11 658.762 217.862 659.755 217.862 661.372C217.862 663.033 219.136 664.158 220.947 664.158ZM221.465 662.655C220.454 662.655 219.778 662.128 219.778 661.319C219.778 660.528 220.419 660.027 221.553 659.948L223.838 659.808V660.537C223.838 661.741 222.792 662.655 221.465 662.655ZM233.777 664.158C234.981 664.158 236.159 663.508 236.695 662.479H236.739V663.262C236.756 663.824 237.117 664.167 237.644 664.167C238.18 664.167 238.558 663.807 238.558 663.209V657.628C238.558 655.773 237.125 654.587 234.884 654.587C233.223 654.587 231.826 655.255 231.342 656.301C231.228 656.512 231.175 656.723 231.175 656.916C231.175 657.391 231.518 657.707 231.993 657.707C232.327 657.707 232.573 657.584 232.766 657.303C233.293 656.459 233.9 656.134 234.814 656.134C235.974 656.134 236.668 656.749 236.668 657.777V658.489L234.128 658.639C231.94 658.762 230.692 659.755 230.692 661.372C230.692 663.033 231.966 664.158 233.777 664.158ZM234.295 662.655C233.285 662.655 232.608 662.128 232.608 661.319C232.608 660.528 233.249 660.027 234.383 659.948L236.668 659.808V660.537C236.668 661.741 235.622 662.655 234.295 662.655ZM243.734 664.176C246.019 664.176 247.557 663.033 247.557 661.319C247.557 659.948 246.81 659.254 244.868 658.806L243.435 658.472C242.459 658.243 242.011 657.839 242.011 657.259C242.011 656.538 242.714 656.037 243.734 656.037C244.666 656.037 245.228 656.406 245.641 657.109C245.826 657.408 246.098 657.514 246.406 657.514C246.88 657.514 247.144 657.232 247.144 656.811C247.144 656.723 247.126 656.635 247.109 656.529C246.845 655.439 245.474 654.587 243.804 654.587C241.607 654.587 240.157 655.694 240.157 657.364C240.157 658.683 241.036 659.562 242.829 659.983L244.288 660.326C245.281 660.563 245.641 660.889 245.641 661.495C245.641 662.26 244.912 662.726 243.831 662.726C242.732 662.726 242.178 662.392 241.704 661.645C241.466 661.293 241.194 661.144 240.877 661.144C240.403 661.144 240.06 661.425 240.06 661.899C240.06 662.022 240.078 662.154 240.139 662.295C240.579 663.429 241.915 664.176 243.734 664.176ZM256.397 667.48C259.148 667.507 260.827 666.03 260.827 663.745V655.562C260.827 654.947 260.423 654.587 259.878 654.587C259.333 654.587 258.92 654.947 258.92 655.562V656.31H258.884C258.322 655.264 257.302 654.604 255.993 654.604C253.602 654.604 252.108 656.406 252.108 659.298C252.108 662.154 253.62 663.974 255.949 663.974C257.267 663.974 258.357 663.314 258.876 662.312H258.92V663.78C258.92 665.072 257.979 665.951 256.432 665.934C255.527 665.916 254.877 665.573 254.121 664.782C253.866 664.527 253.681 664.431 253.391 664.431C252.908 664.431 252.583 664.747 252.583 665.187C252.583 665.406 252.635 665.6 252.758 665.811C253.391 666.812 254.718 667.463 256.397 667.48ZM256.459 662.427C255 662.427 254.05 661.24 254.05 659.307C254.05 657.382 255 656.169 256.459 656.169C257.944 656.169 258.928 657.417 258.928 659.315C258.928 661.214 257.944 662.427 256.459 662.427ZM266.592 664.176C269.237 664.176 270.977 662.356 270.977 659.377C270.977 656.406 269.228 654.587 266.592 654.587C263.955 654.587 262.206 656.406 262.206 659.377C262.206 662.356 263.946 664.176 266.592 664.176ZM266.592 662.611C265.106 662.611 264.139 661.434 264.139 659.377C264.139 657.329 265.106 656.151 266.592 656.151C268.077 656.151 269.044 657.329 269.044 659.377C269.044 661.434 268.086 662.611 266.592 662.611ZM272.919 661.785C272.919 663.314 273.71 664.079 275.265 664.079H275.362C276.294 664.079 276.733 663.789 276.733 663.218C276.733 662.77 276.461 662.55 275.916 662.497L275.766 662.488C275.081 662.436 274.826 662.102 274.826 661.363V656.257H275.907C276.399 656.257 276.698 655.976 276.698 655.51C276.698 655.044 276.399 654.754 275.907 654.754H274.826V653.383C274.826 652.776 274.448 652.372 273.877 652.372C273.297 652.372 272.919 652.776 272.919 653.383V654.754H272.251C271.759 654.754 271.46 655.035 271.46 655.51C271.46 655.976 271.759 656.257 272.251 656.257H272.919V661.785ZM280.635 664.158C281.839 664.158 283.016 663.508 283.553 662.479H283.597V663.262C283.614 663.824 283.974 664.167 284.502 664.167C285.038 664.167 285.416 663.807 285.416 663.209V657.628C285.416 655.773 283.983 654.587 281.742 654.587C280.081 654.587 278.683 655.255 278.2 656.301C278.086 656.512 278.033 656.723 278.033 656.916C278.033 657.391 278.376 657.707 278.85 657.707C279.184 657.707 279.431 657.584 279.624 657.303C280.151 656.459 280.758 656.134 281.672 656.134C282.832 656.134 283.526 656.749 283.526 657.777V658.489L280.986 658.639C278.798 658.762 277.55 659.755 277.55 661.372C277.55 663.033 278.824 664.158 280.635 664.158ZM281.153 662.655C280.142 662.655 279.466 662.128 279.466 661.319C279.466 660.528 280.107 660.027 281.241 659.948L283.526 659.808V660.537C283.526 661.741 282.48 662.655 281.153 662.655ZM290.592 664.176C292.877 664.176 294.415 663.033 294.415 661.319C294.415 659.948 293.668 659.254 291.726 658.806L290.293 658.472C289.317 658.243 288.869 657.839 288.869 657.259C288.869 656.538 289.572 656.037 290.592 656.037C291.523 656.037 292.086 656.406 292.499 657.109C292.684 657.408 292.956 657.514 293.264 657.514C293.738 657.514 294.002 657.232 294.002 656.811C294.002 656.723 293.984 656.635 293.967 656.529C293.703 655.439 292.332 654.587 290.662 654.587C288.465 654.587 287.015 655.694 287.015 657.364C287.015 658.683 287.894 659.562 289.686 659.983L291.145 660.326C292.139 660.563 292.499 660.889 292.499 661.495C292.499 662.26 291.769 662.726 290.688 662.726C289.59 662.726 289.036 662.392 288.561 661.645C288.324 661.293 288.052 661.144 287.735 661.144C287.261 661.144 286.918 661.425 286.918 661.899C286.918 662.022 286.936 662.154 286.997 662.295C287.436 663.429 288.772 664.176 290.592 664.176ZM185.89 688.278C186.443 688.278 186.839 687.892 186.839 687.268V683.479H186.883C187.41 684.508 188.465 685.158 189.792 685.158C192.112 685.158 193.65 683.304 193.65 680.377C193.65 677.45 192.104 675.604 189.757 675.604C188.421 675.604 187.357 676.281 186.812 677.345H186.777V676.562C186.777 675.956 186.391 675.587 185.854 675.587C185.318 675.587 184.94 675.956 184.94 676.562V687.268C184.94 687.892 185.327 688.278 185.89 688.278ZM189.256 683.55C187.797 683.55 186.83 682.302 186.83 680.377C186.83 678.47 187.806 677.204 189.256 677.204C190.759 677.204 191.699 678.443 191.699 680.377C191.699 682.319 190.759 683.55 189.256 683.55ZM197.745 685.158C198.949 685.158 200.127 684.508 200.663 683.479H200.707V684.262C200.725 684.824 201.085 685.167 201.612 685.167C202.149 685.167 202.526 684.807 202.526 684.209V678.628C202.526 676.773 201.094 675.587 198.853 675.587C197.191 675.587 195.794 676.255 195.311 677.301C195.196 677.512 195.144 677.723 195.144 677.916C195.144 678.391 195.486 678.707 195.961 678.707C196.295 678.707 196.541 678.584 196.734 678.303C197.262 677.459 197.868 677.134 198.782 677.134C199.942 677.134 200.637 677.749 200.637 678.777V679.489L198.097 679.639C195.908 679.762 194.66 680.755 194.66 682.372C194.66 684.033 195.935 685.158 197.745 685.158ZM198.264 683.655C197.253 683.655 196.576 683.128 196.576 682.319C196.576 681.528 197.218 681.027 198.352 680.948L200.637 680.808V681.537C200.637 682.741 199.591 683.655 198.264 683.655ZM205.241 685.167C205.804 685.167 206.191 684.78 206.191 684.165V679.445C206.191 678.294 206.718 677.424 208.019 677.415C208.414 677.415 208.695 677.336 208.889 677.169C209.073 677.02 209.17 676.8 209.17 676.501C209.17 676.202 209.091 675.974 208.915 675.833C208.757 675.684 208.502 675.604 208.168 675.604C207.245 675.604 206.393 676.299 206.138 677.336H206.094V676.545C206.094 675.965 205.725 675.587 205.197 675.587C204.661 675.587 204.292 675.965 204.292 676.545V684.165C204.292 684.78 204.67 685.167 205.241 685.167ZM212.632 685.158C213.836 685.158 215.014 684.508 215.55 683.479H215.594V684.262C215.612 684.824 215.972 685.167 216.499 685.167C217.035 685.167 217.413 684.807 217.413 684.209V678.628C217.413 676.773 215.981 675.587 213.739 675.587C212.078 675.587 210.681 676.255 210.198 677.301C210.083 677.512 210.031 677.723 210.031 677.916C210.031 678.391 210.373 678.707 210.848 678.707C211.182 678.707 211.428 678.584 211.621 678.303C212.149 677.459 212.755 677.134 213.669 677.134C214.829 677.134 215.524 677.749 215.524 678.777V679.489L212.984 679.639C210.795 679.762 209.547 680.755 209.547 682.372C209.547 684.033 210.822 685.158 212.632 685.158ZM213.151 683.655C212.14 683.655 211.463 683.128 211.463 682.319C211.463 681.528 212.105 681.027 213.239 680.948L215.524 680.808V681.537C215.524 682.741 214.478 683.655 213.151 683.655ZM225.462 685.158C226.666 685.158 227.844 684.508 228.38 683.479H228.424V684.262C228.442 684.824 228.802 685.167 229.329 685.167C229.866 685.167 230.244 684.807 230.244 684.209V678.628C230.244 676.773 228.811 675.587 226.57 675.587C224.909 675.587 223.511 676.255 223.028 677.301C222.913 677.512 222.861 677.723 222.861 677.916C222.861 678.391 223.204 678.707 223.678 678.707C224.012 678.707 224.258 678.584 224.452 678.303C224.979 677.459 225.585 677.134 226.499 677.134C227.66 677.134 228.354 677.749 228.354 678.777V679.489L225.814 679.639C223.625 679.762 222.377 680.755 222.377 682.372C222.377 684.033 223.652 685.158 225.462 685.158ZM225.981 683.655C224.97 683.655 224.293 683.128 224.293 682.319C224.293 681.528 224.935 681.027 226.069 680.948L228.354 680.808V681.537C228.354 682.741 227.308 683.655 225.981 683.655ZM232.563 682.785C232.563 684.314 233.354 685.079 234.91 685.079H235.006C235.938 685.079 236.377 684.789 236.377 684.218C236.377 683.77 236.105 683.55 235.56 683.497L235.411 683.488C234.725 683.436 234.47 683.102 234.47 682.363V677.257H235.551C236.043 677.257 236.342 676.976 236.342 676.51C236.342 676.044 236.043 675.754 235.551 675.754H234.47V674.383C234.47 673.776 234.092 673.372 233.521 673.372C232.941 673.372 232.563 673.776 232.563 674.383V675.754H231.895C231.403 675.754 231.104 676.035 231.104 676.51C231.104 676.976 231.403 677.257 231.895 677.257H232.563V682.785ZM240.912 685.167C242.327 685.167 243.267 684.543 243.777 683.436H243.821V684.209C243.821 684.789 244.19 685.167 244.735 685.167C245.28 685.167 245.64 684.789 245.64 684.2V676.598C245.64 675.965 245.253 675.587 244.691 675.587C244.137 675.587 243.742 675.965 243.742 676.598V681.142C243.742 682.583 242.916 683.532 241.544 683.532C240.235 683.532 239.567 682.776 239.567 681.37V676.598C239.567 675.965 239.171 675.587 238.618 675.587C238.055 675.587 237.669 675.965 237.669 676.598V681.739C237.669 683.857 238.899 685.167 240.912 685.167ZM250.148 685.158C251.352 685.158 252.53 684.508 253.066 683.479H253.11V684.262C253.128 684.824 253.488 685.167 254.015 685.167C254.551 685.167 254.929 684.807 254.929 684.209V678.628C254.929 676.773 253.497 675.587 251.256 675.587C249.594 675.587 248.197 676.255 247.714 677.301C247.599 677.512 247.547 677.723 247.547 677.916C247.547 678.391 247.889 678.707 248.364 678.707C248.698 678.707 248.944 678.584 249.137 678.303C249.665 677.459 250.271 677.134 251.185 677.134C252.345 677.134 253.04 677.749 253.04 678.777V679.489L250.5 679.639C248.311 679.762 247.063 680.755 247.063 682.372C247.063 684.033 248.338 685.158 250.148 685.158ZM250.667 683.655C249.656 683.655 248.979 683.128 248.979 682.319C248.979 681.528 249.621 681.027 250.755 680.948L253.04 680.808V681.537C253.04 682.741 251.994 683.655 250.667 683.655ZM257.715 685.167C258.268 685.167 258.664 684.789 258.664 684.165V673.152C258.664 672.528 258.268 672.15 257.715 672.15C257.161 672.15 256.765 672.528 256.765 673.152V684.165C256.765 684.789 257.161 685.167 257.715 685.167ZM261.546 674.356C262.161 674.356 262.653 673.864 262.653 673.267C262.653 672.66 262.161 672.186 261.546 672.186C260.939 672.186 260.447 672.66 260.447 673.267C260.447 673.864 260.939 674.356 261.546 674.356ZM261.546 685.167C262.117 685.167 262.495 684.771 262.495 684.165V676.598C262.495 675.982 262.117 675.587 261.546 675.587C260.974 675.587 260.596 675.982 260.596 676.598V684.165C260.596 684.771 260.974 685.167 261.546 685.167ZM265.078 685H270.633C271.142 685 271.441 684.728 271.441 684.244C271.441 683.761 271.151 683.488 270.633 683.488H266.467V683.453L270.914 677.564C271.186 677.195 271.292 676.967 271.292 676.668C271.292 676.097 270.905 675.754 270.264 675.754H264.902C264.384 675.754 264.094 676.035 264.094 676.51C264.094 676.993 264.392 677.266 264.902 677.266H269.095V677.301L264.454 683.4C264.234 683.673 264.155 683.857 264.155 684.147C264.155 684.666 264.524 685 265.078 685ZM275.65 685.158C276.854 685.158 278.032 684.508 278.568 683.479H278.612V684.262C278.63 684.824 278.99 685.167 279.518 685.167C280.054 685.167 280.432 684.807 280.432 684.209V678.628C280.432 676.773 278.999 675.587 276.758 675.587C275.097 675.587 273.699 676.255 273.216 677.301C273.102 677.512 273.049 677.723 273.049 677.916C273.049 678.391 273.392 678.707 273.866 678.707C274.2 678.707 274.446 678.584 274.64 678.303C275.167 677.459 275.773 677.134 276.687 677.134C277.848 677.134 278.542 677.749 278.542 678.777V679.489L276.002 679.639C273.813 679.762 272.565 680.755 272.565 682.372C272.565 684.033 273.84 685.158 275.65 685.158ZM276.169 683.655C275.158 683.655 274.481 683.128 274.481 682.319C274.481 681.528 275.123 681.027 276.257 680.948L278.542 680.808V681.537C278.542 682.741 277.496 683.655 276.169 683.655ZM283.147 685.167C283.709 685.167 284.096 684.78 284.096 684.165V679.445C284.096 678.294 284.623 677.424 285.924 677.415C286.319 677.415 286.601 677.336 286.794 677.169C286.979 677.02 287.075 676.8 287.075 676.501C287.075 676.202 286.996 675.974 286.82 675.833C286.662 675.684 286.407 675.604 286.073 675.604C285.15 675.604 284.298 676.299 284.043 677.336H283.999V676.545C283.999 675.965 283.63 675.587 283.103 675.587C282.566 675.587 282.197 675.965 282.197 676.545V684.165C282.197 684.78 282.575 685.167 283.147 685.167ZM295.572 685.176C298.218 685.176 299.958 683.356 299.958 680.377C299.958 677.406 298.209 675.587 295.572 675.587C292.936 675.587 291.187 677.406 291.187 680.377C291.187 683.356 292.927 685.176 295.572 685.176ZM295.572 683.611C294.087 683.611 293.12 682.434 293.12 680.377C293.12 678.329 294.087 677.151 295.572 677.151C297.058 677.151 298.025 678.329 298.025 680.377C298.025 682.434 297.067 683.611 295.572 683.611ZM188.896 706.176C190.609 706.176 192.112 705.271 192.596 703.996C192.666 703.812 192.701 703.653 192.701 703.504C192.701 703.029 192.358 702.713 191.893 702.713C191.479 702.713 191.277 702.871 191.014 703.328C190.565 704.128 189.941 704.585 188.913 704.585C187.445 704.585 186.461 703.39 186.461 701.377C186.461 699.408 187.428 698.169 188.913 698.169C189.889 698.169 190.539 698.591 191.014 699.47C191.242 699.892 191.471 700.05 191.875 700.05C192.341 700.05 192.684 699.751 192.684 699.268C192.684 699.136 192.648 698.978 192.596 698.828C192.191 697.536 190.662 696.587 188.878 696.587C186.241 696.587 184.527 698.468 184.527 701.395C184.527 704.339 186.25 706.176 188.896 706.176ZM195.108 706.167C195.671 706.167 196.058 705.78 196.058 705.165V700.445C196.058 699.294 196.585 698.424 197.886 698.415C198.281 698.415 198.563 698.336 198.756 698.169C198.941 698.02 199.037 697.8 199.037 697.501C199.037 697.202 198.958 696.974 198.782 696.833C198.624 696.684 198.369 696.604 198.035 696.604C197.112 696.604 196.26 697.299 196.005 698.336H195.961V697.545C195.961 696.965 195.592 696.587 195.065 696.587C194.528 696.587 194.159 696.965 194.159 697.545V705.165C194.159 705.78 194.537 706.167 195.108 706.167ZM203.554 706.176C206.199 706.176 207.94 704.356 207.94 701.377C207.94 698.406 206.191 696.587 203.554 696.587C200.917 696.587 199.168 698.406 199.168 701.377C199.168 704.356 200.908 706.176 203.554 706.176ZM203.554 704.611C202.069 704.611 201.102 703.434 201.102 701.377C201.102 699.329 202.069 698.151 203.554 698.151C205.039 698.151 206.006 699.329 206.006 701.377C206.006 703.434 205.048 704.611 203.554 704.611ZM210.277 706.167C210.83 706.167 211.226 705.789 211.226 705.165V700.612C211.226 699.18 212.087 698.23 213.423 698.23C214.741 698.23 215.392 698.995 215.392 700.384V705.165C215.392 705.789 215.787 706.167 216.341 706.167C216.904 706.167 217.299 705.789 217.299 705.165V700.015C217.299 697.896 216.13 696.596 214.091 696.596C212.667 696.596 211.7 697.229 211.199 698.283H211.156V697.554C211.156 696.965 210.778 696.587 210.233 696.587C209.679 696.587 209.327 696.965 209.327 697.545V705.165C209.327 705.789 209.714 706.167 210.277 706.167ZM221.069 695.673C221.315 695.673 221.464 695.585 221.684 695.33L223.002 693.801H223.055L224.382 695.33C224.593 695.585 224.743 695.673 224.997 695.673C225.349 695.673 225.613 695.409 225.613 695.102C225.613 694.917 225.542 694.794 225.41 694.636L223.969 693.019C223.688 692.685 223.424 692.562 223.046 692.562C222.633 692.562 222.378 692.685 222.097 693.019L220.656 694.636C220.515 694.794 220.453 694.917 220.453 695.102C220.453 695.409 220.717 695.673 221.069 695.673ZM223.029 706.176C225.674 706.176 227.414 704.356 227.414 701.377C227.414 698.406 225.665 696.587 223.029 696.587C220.392 696.587 218.643 698.406 218.643 701.377C218.643 704.356 220.383 706.176 223.029 706.176ZM223.029 704.611C221.543 704.611 220.576 703.434 220.576 701.377C220.576 699.329 221.543 698.151 223.029 698.151C224.514 698.151 225.481 699.329 225.481 701.377C225.481 703.434 224.523 704.611 223.029 704.611ZM229.751 706.167C230.323 706.167 230.701 705.771 230.701 705.165V700.287C230.701 699.101 231.5 698.222 232.625 698.222C233.698 698.222 234.374 698.898 234.374 699.962V705.165C234.374 705.771 234.735 706.167 235.306 706.167C235.877 706.167 236.238 705.771 236.238 705.165V700.226C236.238 699.057 237.02 698.222 238.145 698.222C239.27 698.222 239.912 698.907 239.912 700.103V705.165C239.912 705.771 240.289 706.167 240.861 706.167C241.432 706.167 241.819 705.771 241.819 705.165V699.646C241.819 697.809 240.623 696.596 238.795 696.596C237.477 696.596 236.387 697.281 235.912 698.406H235.869C235.499 697.255 234.568 696.596 233.285 696.596C232.037 696.596 231.07 697.281 230.657 698.31H230.613V697.554C230.613 696.947 230.235 696.587 229.707 696.587C229.171 696.587 228.802 696.956 228.802 697.554V705.165C228.802 705.771 229.18 706.167 229.751 706.167ZM247.583 706.176C249.306 706.176 250.651 705.481 251.257 704.269C251.336 704.084 251.389 703.908 251.389 703.759C251.389 703.284 251.055 702.985 250.598 702.985C250.326 702.985 250.132 703.082 249.93 703.319C249.227 704.277 248.577 704.638 247.54 704.638C246.028 704.638 245.079 703.583 245.079 701.896V701.852H250.668C251.257 701.852 251.609 701.5 251.609 700.885C251.609 698.362 249.913 696.587 247.452 696.587C244.833 696.587 243.163 698.485 243.163 701.421C243.163 704.409 244.797 706.176 247.583 706.176ZM245.087 700.524C245.184 699.083 246.133 698.116 247.443 698.116C248.761 698.116 249.666 699.074 249.71 700.524H245.087ZM253.559 703.785C253.559 705.314 254.35 706.079 255.906 706.079H256.003C256.934 706.079 257.374 705.789 257.374 705.218C257.374 704.77 257.101 704.55 256.556 704.497L256.407 704.488C255.721 704.436 255.466 704.102 255.466 703.363V698.257H256.547C257.04 698.257 257.338 697.976 257.338 697.51C257.338 697.044 257.04 696.754 256.547 696.754H255.466V695.383C255.466 694.776 255.088 694.372 254.517 694.372C253.937 694.372 253.559 694.776 253.559 695.383V696.754H252.891C252.399 696.754 252.1 697.035 252.1 697.51C252.1 697.976 252.399 698.257 252.891 698.257H253.559V703.785ZM259.658 706.167C260.22 706.167 260.607 705.78 260.607 705.165V700.445C260.607 699.294 261.134 698.424 262.435 698.415C262.831 698.415 263.112 698.336 263.305 698.169C263.49 698.02 263.587 697.8 263.587 697.501C263.587 697.202 263.507 696.974 263.332 696.833C263.173 696.684 262.919 696.604 262.585 696.604C261.662 696.604 260.809 697.299 260.554 698.336H260.51V697.545C260.51 696.965 260.141 696.587 259.614 696.587C259.078 696.587 258.709 696.965 258.709 697.545V705.165C258.709 705.78 259.087 706.167 259.658 706.167ZM268.103 706.176C270.749 706.176 272.489 704.356 272.489 701.377C272.489 698.406 270.74 696.587 268.103 696.587C265.467 696.587 263.717 698.406 263.717 701.377C263.717 704.356 265.458 706.176 268.103 706.176ZM268.103 704.611C266.618 704.611 265.651 703.434 265.651 701.377C265.651 699.329 266.618 698.151 268.103 698.151C269.589 698.151 270.555 699.329 270.555 701.377C270.555 703.434 269.597 704.611 268.103 704.611Z" fill="black"/>
<path d="M244.405 648.475C243.839 649.08 243.87 650.029 244.475 650.595C245.08 651.161 246.029 651.13 246.595 650.525L244.405 648.475ZM290.999 602.451C290.972 601.623 290.279 600.974 289.451 601.001L275.958 601.446C275.13 601.473 274.481 602.166 274.508 602.994C274.535 603.822 275.229 604.471 276.057 604.444L288.05 604.049L288.446 616.042C288.473 616.87 289.166 617.519 289.994 617.492C290.822 617.465 291.471 616.771 291.444 615.943L290.999 602.451ZM246.595 650.525L290.595 603.525L288.405 601.475L244.405 648.475L246.595 650.525Z" fill="black"/>
<path d="M133.827 130.141C134.521 130.141 134.908 129.851 135.181 129.13L139.188 118.592C139.259 118.398 139.294 118.223 139.294 118.056C139.294 117.546 138.881 117.177 138.292 117.177C137.791 117.177 137.519 117.388 137.343 117.906L133.871 127.785H133.818L130.347 117.915C130.18 117.405 129.872 117.177 129.371 117.177C128.773 117.177 128.369 117.537 128.369 118.064C128.369 118.24 128.404 118.416 128.475 118.618L132.474 129.121C132.737 129.842 133.133 130.141 133.827 130.141ZM143.274 130.176C145.92 130.176 147.66 128.356 147.66 125.377C147.66 122.406 145.911 120.587 143.274 120.587C140.638 120.587 138.889 122.406 138.889 125.377C138.889 128.356 140.629 130.176 143.274 130.176ZM143.274 128.611C141.789 128.611 140.822 127.434 140.822 125.377C140.822 123.329 141.789 122.151 143.274 122.151C144.76 122.151 145.727 123.329 145.727 125.377C145.727 127.434 144.769 128.611 143.274 128.611ZM150.068 130.167C150.621 130.167 151.017 129.789 151.017 129.165V118.152C151.017 117.528 150.621 117.15 150.068 117.15C149.514 117.15 149.118 117.528 149.118 118.152V129.165C149.118 129.789 149.514 130.167 150.068 130.167ZM153.442 127.785C153.442 129.314 154.233 130.079 155.788 130.079H155.885C156.817 130.079 157.256 129.789 157.256 129.218C157.256 128.77 156.984 128.55 156.439 128.497L156.289 128.488C155.604 128.436 155.349 128.102 155.349 127.363V122.257H156.43C156.922 122.257 157.221 121.976 157.221 121.51C157.221 121.044 156.922 120.754 156.43 120.754H155.349V119.383C155.349 118.776 154.971 118.372 154.4 118.372C153.82 118.372 153.442 118.776 153.442 119.383V120.754H152.774C152.281 120.754 151.983 121.035 151.983 121.51C151.983 121.976 152.281 122.257 152.774 122.257H153.442V127.785ZM162.37 130.176C164.093 130.176 165.438 129.481 166.044 128.269C166.123 128.084 166.176 127.908 166.176 127.759C166.176 127.284 165.842 126.985 165.385 126.985C165.113 126.985 164.919 127.082 164.717 127.319C164.014 128.277 163.364 128.638 162.326 128.638C160.815 128.638 159.866 127.583 159.866 125.896V125.852H165.455C166.044 125.852 166.396 125.5 166.396 124.885C166.396 122.362 164.7 120.587 162.239 120.587C159.619 120.587 157.95 122.485 157.95 125.421C157.95 128.409 159.584 130.176 162.37 130.176ZM159.874 124.524C159.971 123.083 160.92 122.116 162.23 122.116C163.548 122.116 164.453 123.074 164.497 124.524H159.874ZM174.076 130.158C175.28 130.158 176.458 129.508 176.994 128.479H177.038V129.262C177.055 129.824 177.416 130.167 177.943 130.167C178.479 130.167 178.857 129.807 178.857 129.209V123.628C178.857 121.773 177.424 120.587 175.183 120.587C173.522 120.587 172.124 121.255 171.641 122.301C171.527 122.512 171.474 122.723 171.474 122.916C171.474 123.391 171.817 123.707 172.291 123.707C172.625 123.707 172.872 123.584 173.065 123.303C173.592 122.459 174.199 122.134 175.113 122.134C176.273 122.134 176.967 122.749 176.967 123.777V124.489L174.427 124.639C172.239 124.762 170.991 125.755 170.991 127.372C170.991 129.033 172.265 130.158 174.076 130.158ZM174.594 128.655C173.583 128.655 172.907 128.128 172.907 127.319C172.907 126.528 173.548 126.027 174.682 125.948L176.967 125.808V126.537C176.967 127.741 175.921 128.655 174.594 128.655ZM184.595 130.176C187.241 130.176 188.981 128.356 188.981 125.377C188.981 122.406 187.232 120.587 184.595 120.587C181.959 120.587 180.21 122.406 180.21 125.377C180.21 128.356 181.95 130.176 184.595 130.176ZM184.595 128.611C183.11 128.611 182.143 127.434 182.143 125.377C182.143 123.329 183.11 122.151 184.595 122.151C186.081 122.151 187.047 123.329 187.047 125.377C187.047 127.434 186.089 128.611 184.595 128.611ZM197.355 130.176C199.64 130.176 201.178 129.033 201.178 127.319C201.178 125.948 200.431 125.254 198.489 124.806L197.056 124.472C196.081 124.243 195.633 123.839 195.633 123.259C195.633 122.538 196.336 122.037 197.355 122.037C198.287 122.037 198.849 122.406 199.262 123.109C199.447 123.408 199.719 123.514 200.027 123.514C200.502 123.514 200.765 123.232 200.765 122.811C200.765 122.723 200.748 122.635 200.73 122.529C200.467 121.439 199.095 120.587 197.426 120.587C195.228 120.587 193.778 121.694 193.778 123.364C193.778 124.683 194.657 125.562 196.45 125.983L197.909 126.326C198.902 126.563 199.262 126.889 199.262 127.495C199.262 128.26 198.533 128.726 197.452 128.726C196.353 128.726 195.8 128.392 195.325 127.645C195.088 127.293 194.815 127.144 194.499 127.144C194.024 127.144 193.681 127.425 193.681 127.899C193.681 128.022 193.699 128.154 193.76 128.295C194.2 129.429 195.536 130.176 197.355 130.176ZM206.574 130.176C208.297 130.176 209.641 129.481 210.248 128.269C210.327 128.084 210.38 127.908 210.38 127.759C210.38 127.284 210.046 126.985 209.589 126.985C209.316 126.985 209.123 127.082 208.921 127.319C208.218 128.277 207.567 128.638 206.53 128.638C205.018 128.638 204.069 127.583 204.069 125.896V125.852H209.659C210.248 125.852 210.599 125.5 210.599 124.885C210.599 122.362 208.903 120.587 206.442 120.587C203.823 120.587 202.153 122.485 202.153 125.421C202.153 128.409 203.788 130.176 206.574 130.176ZM204.078 124.524C204.175 123.083 205.124 122.116 206.433 122.116C207.752 122.116 208.657 123.074 208.701 124.524H204.078ZM215.195 130.167C216.61 130.167 217.551 129.543 218.06 128.436H218.104V129.209C218.104 129.789 218.474 130.167 219.018 130.167C219.563 130.167 219.924 129.789 219.924 129.2V121.598C219.924 120.965 219.537 120.587 218.974 120.587C218.421 120.587 218.025 120.965 218.025 121.598V126.142C218.025 127.583 217.199 128.532 215.828 128.532C214.518 128.532 213.85 127.776 213.85 126.37V121.598C213.85 120.965 213.455 120.587 212.901 120.587C212.339 120.587 211.952 120.965 211.952 121.598V126.739C211.952 128.857 213.183 130.167 215.195 130.167ZM130.452 151.167C131.023 151.167 131.401 150.807 131.401 150.174V143.257H132.623C133.071 143.257 133.379 142.993 133.379 142.519C133.379 142.062 133.071 141.771 132.623 141.771H131.375V140.937C131.375 140.093 131.709 139.715 132.509 139.706C132.702 139.706 132.86 139.68 132.992 139.645C133.3 139.557 133.449 139.372 133.449 139.064C133.449 138.555 132.966 138.229 131.955 138.229C130.364 138.238 129.494 139.073 129.494 140.866V141.771H128.835C128.387 141.771 128.079 142.062 128.079 142.519C128.079 142.993 128.387 143.257 128.835 143.257H129.494V150.174C129.494 150.807 129.872 151.167 130.452 151.167ZM135.681 151.167C136.234 151.167 136.63 150.789 136.63 150.165V139.152C136.63 138.528 136.234 138.15 135.681 138.15C135.127 138.15 134.732 138.528 134.732 139.152V150.165C134.732 150.789 135.127 151.167 135.681 151.167ZM142.474 151.176C145.119 151.176 146.86 149.356 146.86 146.377C146.86 143.406 145.111 141.587 142.474 141.587C139.837 141.587 138.088 143.406 138.088 146.377C138.088 149.356 139.828 151.176 142.474 151.176ZM142.474 149.611C140.988 149.611 140.022 148.434 140.022 146.377C140.022 144.329 140.988 143.151 142.474 143.151C143.959 143.151 144.926 144.329 144.926 146.377C144.926 148.434 143.968 149.611 142.474 149.611ZM150.989 151.167C151.631 151.167 152.027 150.859 152.202 150.209L153.916 144.074H153.96L155.692 150.209C155.867 150.886 156.237 151.167 156.896 151.167C157.52 151.167 157.906 150.859 158.091 150.209L160.2 142.94C160.262 142.721 160.288 142.562 160.288 142.404C160.288 141.912 159.928 141.587 159.374 141.587C158.9 141.587 158.627 141.842 158.504 142.378L156.843 149.031H156.799L155.032 142.448C154.901 141.886 154.531 141.587 153.96 141.587C153.38 141.587 153.002 141.886 152.87 142.448L151.113 149.031H151.077L149.416 142.378C149.293 141.842 149.012 141.587 148.537 141.587C147.984 141.587 147.614 141.912 147.614 142.404C147.614 142.562 147.641 142.729 147.711 142.94L149.821 150.209C150.014 150.877 150.365 151.167 150.989 151.167ZM163.109 146.931C163.654 146.931 163.952 146.588 163.97 146.034L164.076 139.214C164.076 139.179 164.076 139.144 164.076 139.117C164.076 138.528 163.68 138.15 163.118 138.15C162.546 138.15 162.151 138.528 162.151 139.117C162.151 139.144 162.151 139.179 162.151 139.214L162.256 146.034C162.274 146.588 162.573 146.931 163.109 146.931ZM163.109 151.132C163.768 151.132 164.269 150.64 164.269 149.998C164.269 149.356 163.768 148.864 163.109 148.864C162.467 148.864 161.957 149.356 161.957 149.998C161.957 150.64 162.467 151.132 163.109 151.132Z" fill="white"/>
<path d="M110.955 131.076C111.55 131.653 112.499 131.639 113.076 131.045C113.653 130.45 113.639 129.501 113.045 128.924L110.955 131.076ZM77.9776 95.5002C77.1493 95.5125 76.4878 96.1941 76.5002 97.0224L76.7016 110.521C76.714 111.349 77.3955 112.011 78.2239 111.998C79.0522 111.986 79.7137 111.304 79.7013 110.476L79.5222 98.4774L91.5209 98.2984C92.3492 98.286 93.0107 97.6045 92.9983 96.7761C92.986 95.9478 92.3044 95.2863 91.4761 95.2987L77.9776 95.5002ZM113.045 128.924L79.0447 95.9236L76.9553 98.0764L110.955 131.076L113.045 128.924Z" fill="white"/>
</g>
<defs>
<clipPath id="clip0_367_19273">
<rect width="390" height="844" fill="white"/>
</clipPath>
</defs>
</svg>
