<svg width="390" height="844" viewBox="0 0 390 844" fill="none" xmlns="http://www.w3.org/2000/svg">
<g clip-path="url(#clip0_366_19304)">
<rect width="390" height="844" fill="white"/>
<path d="M278.742 -135.703C336.548 -153.645 368.244 -213.299 390 -168.921L390 532.469C348.464 577.789 299.953 522.11 246.107 518.416C178.798 513.799 170.287 570.737 116.341 560.843C62.3959 550.948 62.1518 510.71 34.644 510.71C11.715 510.71 -8.09698e-06 532.469 -8.09698e-06 532.469L5.9546e-05 -169.545C23.7559 -122.051 111.092 -145.787 135.838 -145.787C167.049 -145.787 206.485 -113.275 278.742 -135.703Z" fill="black"/>
<circle cx="269" cy="377" r="29.5" stroke="white" stroke-linecap="round" stroke-dasharray="5 5"/>
<path d="M264.492 382.154C265.144 382.154 265.583 381.714 265.583 381.048V372.508C265.583 371.746 265.114 371.27 264.331 371.27C263.876 371.27 263.525 371.336 263.012 371.688L260.917 373.138C260.573 373.379 260.441 373.628 260.441 373.965C260.441 374.434 260.771 374.756 261.218 374.756C261.445 374.756 261.599 374.705 261.804 374.559L263.349 373.482H263.393V381.048C263.393 381.714 263.84 382.154 264.492 382.154ZM269.033 382.154C269.663 382.154 270.102 381.773 270.102 381.041V377.518C270.102 376.485 270.695 375.774 271.706 375.774C272.68 375.774 273.178 376.39 273.178 377.4V381.041C273.178 381.773 273.625 382.154 274.248 382.154C274.877 382.154 275.317 381.773 275.317 381.041V376.946C275.317 375.13 274.321 374.002 272.578 374.002C271.384 374.002 270.527 374.559 270.109 375.547H270.065V372.369C270.065 371.68 269.677 371.27 269.018 371.27C268.359 371.27 267.963 371.68 267.963 372.369V381.041C267.963 381.773 268.41 382.154 269.033 382.154Z" fill="white"/>
<circle cx="92.8333" cy="760.166" r="45.8333" fill="black"/>
<circle cx="156.083" cy="713.417" r="22.9167" fill="black"/>
<circle cx="111.625" cy="696.458" r="11.4583" fill="black"/>
<path d="M93.5 772.305C94.6484 772.305 95.3984 771.438 95.3984 770.289V762.062H103.156C104.305 762.062 105.172 761.312 105.172 760.164C105.172 759.016 104.305 758.266 103.156 758.266H95.3984V750.016C95.3984 748.867 94.6484 748 93.5 748C92.3516 748 91.6016 748.867 91.6016 750.016V758.266H83.8203C82.6719 758.266 81.8047 759.016 81.8047 760.164C81.8047 761.312 82.6719 762.062 83.8203 762.062H91.6016V770.289C91.6016 771.438 92.3516 772.305 93.5 772.305Z" fill="white"/>
<circle cx="194.5" cy="230.5" r="10.5" fill="white"/>
<path d="M187.438 760.223C188.551 760.223 189.207 759.543 189.207 758.383V754.668H192.371C195.934 754.668 198.406 752.348 198.406 748.879C198.406 745.398 196.016 743.09 192.547 743.09H187.438C186.324 743.09 185.668 743.77 185.668 744.93V758.383C185.668 759.543 186.324 760.223 187.438 760.223ZM189.207 751.902V745.891H191.609C193.637 745.891 194.809 746.969 194.809 748.891C194.809 750.824 193.625 751.902 191.598 751.902H189.207ZM201.922 760.246C202.965 760.246 203.633 759.602 203.633 758.465V752.887C203.633 751.398 204.184 750.52 205.742 750.496C206.41 750.484 206.902 750.332 207.23 750.051C207.559 749.77 207.723 749.359 207.723 748.82C207.723 748.234 207.559 747.812 207.23 747.555C206.984 747.344 206.621 747.238 206.164 747.238C204.91 747.238 203.879 748.164 203.551 749.723H203.48V748.902C203.48 747.812 202.824 747.18 201.863 747.18C200.879 747.18 200.211 747.812 200.211 748.902V758.465C200.211 759.602 200.891 760.246 201.922 760.246ZM214.309 760.27C216.734 760.27 218.68 759.355 219.512 757.809C219.664 757.527 219.746 757.246 219.746 756.977C219.746 756.191 219.148 755.723 218.41 755.723C217.965 755.723 217.66 755.852 217.297 756.227C216.371 757.316 215.551 757.738 214.297 757.738C212.562 757.738 211.438 756.52 211.438 754.656V754.504H218.609C219.559 754.504 220.098 753.965 220.098 753.016C220.098 749.605 217.707 747.168 214.145 747.168C210.43 747.168 208.074 749.734 208.074 753.777C208.074 757.844 210.383 760.27 214.309 760.27ZM211.473 752.406C211.59 750.801 212.68 749.699 214.18 749.699C215.68 749.699 216.734 750.766 216.805 752.406H211.473ZM226.988 760.27C230.305 760.27 232.543 758.652 232.543 756.156C232.543 754.281 231.441 753.297 228.77 752.734L226.695 752.289C225.441 752.02 224.949 751.586 224.949 750.93C224.949 750.121 225.758 749.57 226.918 749.57C228.148 749.57 228.828 750.156 229.426 750.918C229.73 751.281 230.223 751.445 230.668 751.445C231.547 751.445 231.98 750.965 231.98 750.273C231.98 750.109 231.945 749.945 231.898 749.77C231.488 748.352 229.578 747.168 226.977 747.168C223.719 747.168 221.645 748.715 221.645 751.117C221.645 752.98 222.887 754.234 225.348 754.762L227.457 755.207C228.688 755.477 229.121 755.84 229.121 756.52C229.121 757.352 228.312 757.867 227.07 757.867C225.77 757.867 224.996 757.469 224.328 756.59C223.859 756.062 223.391 755.816 222.84 755.816C222.043 755.816 221.457 756.344 221.457 757.129C221.457 757.316 221.504 757.539 221.586 757.762C222.184 759.238 224.105 760.27 226.988 760.27ZM240.02 760.27C242.445 760.27 244.391 759.355 245.223 757.809C245.375 757.527 245.457 757.246 245.457 756.977C245.457 756.191 244.859 755.723 244.121 755.723C243.676 755.723 243.371 755.852 243.008 756.227C242.082 757.316 241.262 757.738 240.008 757.738C238.273 757.738 237.148 756.52 237.148 754.656V754.504H244.32C245.27 754.504 245.809 753.965 245.809 753.016C245.809 749.605 243.418 747.168 239.855 747.168C236.141 747.168 233.785 749.734 233.785 753.777C233.785 757.844 236.094 760.27 240.02 760.27ZM237.184 752.406C237.301 750.801 238.391 749.699 239.891 749.699C241.391 749.699 242.445 750.766 242.516 752.406H237.184ZM249.289 760.246C250.297 760.246 251 759.637 251 758.465V752.793C251 751.164 251.973 750.039 253.508 750.039C255.043 750.039 255.816 750.977 255.816 752.617V758.465C255.816 759.637 256.52 760.246 257.527 760.246C258.523 760.246 259.238 759.637 259.238 758.465V751.902C259.238 748.961 257.668 747.203 254.879 747.203C252.945 747.203 251.68 748.059 251.012 749.617H250.941V748.914C250.941 747.836 250.262 747.18 249.23 747.18C248.199 747.18 247.578 747.836 247.578 748.902V758.465C247.578 759.637 248.293 760.246 249.289 760.246ZM262.32 756.789C262.32 759.004 263.48 760.141 265.766 760.141H265.883C267.324 760.141 268.309 759.625 268.309 758.617C268.309 757.82 267.852 757.469 267.008 757.375L266.785 757.352C266.047 757.293 265.742 756.918 265.742 756.027V750.016H266.949C267.758 750.016 268.262 749.512 268.262 748.727C268.262 747.941 267.758 747.438 266.949 747.438H265.742V746.043C265.742 744.941 265.098 744.262 264.031 744.262C262.965 744.262 262.32 744.941 262.32 746.043V747.438H261.664C260.855 747.438 260.34 747.93 260.34 748.727C260.34 749.523 260.855 750.016 261.664 750.016H262.32V756.789ZM273.535 760.199C275.105 760.199 276.676 759.414 277.379 758.078H277.449V758.723C277.52 759.73 278.164 760.246 279.09 760.246C280.062 760.246 280.754 759.66 280.754 758.523V751.363C280.754 748.832 278.656 747.168 275.434 747.168C272.832 747.168 270.816 748.094 270.23 749.594C270.113 749.852 270.055 750.098 270.055 750.367C270.055 751.141 270.652 751.68 271.484 751.68C272.035 751.68 272.469 751.469 272.844 751.047C273.605 750.062 274.238 749.723 275.281 749.723C276.57 749.723 277.391 750.402 277.391 751.574V752.406L274.227 752.594C271.086 752.781 269.328 754.105 269.328 756.391C269.328 758.652 271.145 760.199 273.535 760.199ZM274.66 757.727C273.512 757.727 272.738 757.141 272.738 756.203C272.738 755.312 273.465 754.738 274.742 754.645L277.391 754.48V755.395C277.391 756.754 276.16 757.727 274.66 757.727ZM283.883 756.789C283.883 759.004 285.043 760.141 287.328 760.141H287.445C288.887 760.141 289.871 759.625 289.871 758.617C289.871 757.82 289.414 757.469 288.57 757.375L288.348 757.352C287.609 757.293 287.305 756.918 287.305 756.027V750.016H288.512C289.32 750.016 289.824 749.512 289.824 748.727C289.824 747.941 289.32 747.438 288.512 747.438H287.305V746.043C287.305 744.941 286.66 744.262 285.594 744.262C284.527 744.262 283.883 744.941 283.883 746.043V747.438H283.227C282.418 747.438 281.902 747.93 281.902 748.727C281.902 749.523 282.418 750.016 283.227 750.016H283.883V756.789ZM293.27 745.879C294.301 745.879 295.098 745.094 295.098 744.109C295.098 743.113 294.301 742.34 293.27 742.34C292.238 742.34 291.441 743.113 291.441 744.109C291.441 745.094 292.238 745.879 293.27 745.879ZM293.27 760.246C294.324 760.246 294.98 759.578 294.98 758.465V748.973C294.98 747.859 294.324 747.18 293.27 747.18C292.203 747.18 291.559 747.859 291.559 748.973V758.465C291.559 759.578 292.203 760.246 293.27 760.246ZM303.031 760.27C306.828 760.27 309.254 757.844 309.254 753.707C309.254 749.629 306.793 747.168 303.031 747.168C299.27 747.168 296.809 749.641 296.809 753.707C296.809 757.832 299.234 760.27 303.031 760.27ZM303.031 757.656C301.344 757.656 300.277 756.238 300.277 753.719C300.277 751.223 301.367 749.781 303.031 749.781C304.695 749.781 305.773 751.223 305.773 753.719C305.773 756.238 304.707 757.656 303.031 757.656ZM312.734 760.246C313.742 760.246 314.445 759.637 314.445 758.465V752.793C314.445 751.164 315.418 750.039 316.953 750.039C318.488 750.039 319.262 750.977 319.262 752.617V758.465C319.262 759.637 319.965 760.246 320.973 760.246C321.969 760.246 322.684 759.637 322.684 758.465V751.902C322.684 748.961 321.113 747.203 318.324 747.203C316.391 747.203 315.125 748.059 314.457 749.617H314.387V748.914C314.387 747.836 313.707 747.18 312.676 747.18C311.645 747.18 311.023 747.836 311.023 748.902V758.465C311.023 759.637 311.738 760.246 312.734 760.246Z" fill="black"/>
<path d="M196.461 796.625C203.004 796.625 207.438 793.227 207.438 788.109C207.438 784.223 204.723 781.762 200.523 781.371V781.254C203.844 780.57 206.402 778.227 206.402 774.652C206.402 770.141 202.379 767.191 196.422 767.191C191.441 767.191 188.238 769.496 186.988 772.25C186.695 772.914 186.559 773.48 186.559 774.145C186.559 775.57 187.398 776.527 189.039 776.527C190.367 776.527 191.051 776.039 191.695 774.711C192.613 772.719 194.059 771.723 196.441 771.723C199.293 771.723 200.816 773.227 200.816 775.492C200.816 777.797 198.902 779.398 195.953 779.398H194.801C193.375 779.398 192.555 780.258 192.555 781.488C192.555 782.758 193.375 783.598 194.801 783.598H196.031C199.449 783.598 201.461 785.121 201.441 787.855C201.441 790.199 199.449 791.879 196.559 791.879C193.629 791.879 192.105 790.707 191.109 788.734C190.523 787.66 189.781 787.191 188.609 787.191C186.988 787.191 186.012 788.148 186.012 789.672C186.012 790.258 186.148 790.883 186.461 791.527C187.789 794.301 191.09 796.625 196.461 796.625ZM221.969 796.41C223.648 796.41 224.82 795.395 224.82 793.441V784.047C224.82 781.293 226.402 779.398 229.098 779.398C231.695 779.398 233.023 781.039 233.023 783.734V793.441C233.023 795.395 234.215 796.41 235.875 796.41C237.555 796.41 238.727 795.395 238.727 793.441V782.523C238.727 777.68 236.07 774.672 231.422 774.672C228.238 774.672 225.953 776.156 224.84 778.793H224.723V770.316C224.723 768.48 223.688 767.387 221.93 767.387C220.172 767.387 219.117 768.48 219.117 770.316V793.441C219.117 795.395 220.309 796.41 221.969 796.41Z" fill="black"/>
<path d="M34.5125 99.5708C35.3245 100.383 36.4681 100.3 37.2801 99.4879L43.0972 93.6709L48.5828 99.1565C49.3948 99.9685 50.5384 100.051 51.3504 99.2393C52.1625 98.4273 52.0796 97.2837 51.2676 96.4717L45.782 90.9861L51.6156 85.1524C52.4277 84.3404 52.5105 83.1968 51.6985 82.3848C50.8864 81.5727 49.7429 81.6556 48.9308 82.4676L43.0972 88.3013L37.595 82.7991C36.7829 81.987 35.6394 81.9042 34.8273 82.7162C34.0153 83.5283 34.0981 84.6718 34.9102 85.4839L40.4124 90.9861L34.5953 96.8031C33.7833 97.6152 33.7004 98.7587 34.5125 99.5708Z" fill="white"/>
<path d="M71.134 281.785C71.134 283.314 71.925 284.079 73.4807 284.079H73.5773C74.509 284.079 74.9484 283.789 74.9484 283.218C74.9484 282.77 74.676 282.55 74.1311 282.497L73.9816 282.488C73.2961 282.436 73.0412 282.102 73.0412 281.363V276.257H74.1223C74.6145 276.257 74.9133 275.976 74.9133 275.51C74.9133 275.044 74.6145 274.754 74.1223 274.754H73.0412V273.383C73.0412 272.776 72.6633 272.372 72.092 272.372C71.5119 272.372 71.134 272.776 71.134 273.383V274.754H70.466C69.9738 274.754 69.675 275.035 69.675 275.51C69.675 275.976 69.9738 276.257 70.466 276.257H71.134V281.785ZM77.2942 273.356C77.9095 273.356 78.4016 272.864 78.4016 272.267C78.4016 271.66 77.9095 271.186 77.2942 271.186C76.6878 271.186 76.1956 271.66 76.1956 272.267C76.1956 272.864 76.6878 273.356 77.2942 273.356ZM77.2942 284.167C77.8655 284.167 78.2434 283.771 78.2434 283.165V275.598C78.2434 274.982 77.8655 274.587 77.2942 274.587C76.7229 274.587 76.345 274.982 76.345 275.598V283.165C76.345 283.771 76.7229 284.167 77.2942 284.167ZM81.055 284.167C81.6263 284.167 82.0043 283.771 82.0043 283.165V278.287C82.0043 277.101 82.8041 276.222 83.9291 276.222C85.0013 276.222 85.6781 276.898 85.6781 277.962V283.165C85.6781 283.771 86.0384 284.167 86.6097 284.167C87.181 284.167 87.5414 283.771 87.5414 283.165V278.226C87.5414 277.057 88.3236 276.222 89.4486 276.222C90.5736 276.222 91.2152 276.907 91.2152 278.103V283.165C91.2152 283.771 91.5931 284.167 92.1644 284.167C92.7357 284.167 93.1224 283.771 93.1224 283.165V277.646C93.1224 275.809 91.9271 274.596 90.099 274.596C88.7806 274.596 87.6908 275.281 87.2162 276.406H87.1722C86.8031 275.255 85.8714 274.596 84.5882 274.596C83.3402 274.596 82.3734 275.281 81.9603 276.31H81.9164V275.554C81.9164 274.947 81.5384 274.587 81.0111 274.587C80.475 274.587 80.1058 274.956 80.1058 275.554V283.165C80.1058 283.771 80.4838 284.167 81.055 284.167ZM98.8872 284.176C100.61 284.176 101.955 283.481 102.561 282.269C102.64 282.084 102.693 281.908 102.693 281.759C102.693 281.284 102.359 280.985 101.902 280.985C101.629 280.985 101.436 281.082 101.234 281.319C100.531 282.277 99.8803 282.638 98.8432 282.638C97.3315 282.638 96.3823 281.583 96.3823 279.896V279.852H101.972C102.561 279.852 102.913 279.5 102.913 278.885C102.913 276.362 101.216 274.587 98.7553 274.587C96.1362 274.587 94.4663 276.485 94.4663 279.421C94.4663 282.409 96.101 284.176 98.8872 284.176ZM96.3911 278.524C96.4877 277.083 97.437 276.116 98.7465 276.116C100.065 276.116 100.97 277.074 101.014 278.524H96.3911ZM111.357 284.158C112.798 284.158 113.774 283.438 114.249 282.356H114.275V283.218C114.275 283.815 114.706 284.167 115.242 284.167C115.796 284.167 116.182 283.815 116.182 283.218V272.152C116.182 271.528 115.787 271.15 115.233 271.15C114.671 271.15 114.275 271.528 114.275 272.152V276.292H114.24C113.721 275.272 112.667 274.604 111.339 274.604C109.019 274.604 107.472 276.459 107.472 279.377C107.472 282.295 109.019 284.158 111.357 284.158ZM111.858 282.55C110.355 282.55 109.415 281.328 109.415 279.377C109.415 277.435 110.355 276.204 111.858 276.204C113.317 276.204 114.293 277.461 114.293 279.377C114.293 281.311 113.317 282.55 111.858 282.55ZM119.003 284.167C119.565 284.167 119.952 283.78 119.952 283.165V278.445C119.952 277.294 120.479 276.424 121.78 276.415C122.175 276.415 122.457 276.336 122.65 276.169C122.835 276.02 122.931 275.8 122.931 275.501C122.931 275.202 122.852 274.974 122.676 274.833C122.518 274.684 122.263 274.604 121.929 274.604C121.007 274.604 120.154 275.299 119.899 276.336H119.855V275.545C119.855 274.965 119.486 274.587 118.959 274.587C118.423 274.587 118.053 274.965 118.053 275.545V283.165C118.053 283.78 118.431 284.167 119.003 284.167ZM127.448 284.176C130.094 284.176 131.834 282.356 131.834 279.377C131.834 276.406 130.085 274.587 127.448 274.587C124.811 274.587 123.062 276.406 123.062 279.377C123.062 282.356 124.803 284.176 127.448 284.176ZM127.448 282.611C125.963 282.611 124.996 281.434 124.996 279.377C124.996 277.329 125.963 276.151 127.448 276.151C128.933 276.151 129.9 277.329 129.9 279.377C129.9 281.434 128.942 282.611 127.448 282.611ZM134.171 287.278C134.724 287.278 135.12 286.892 135.12 286.268V282.479H135.164C135.691 283.508 136.746 284.158 138.073 284.158C140.393 284.158 141.931 282.304 141.931 279.377C141.931 276.45 140.385 274.604 138.038 274.604C136.702 274.604 135.639 275.281 135.094 276.345H135.058V275.562C135.058 274.956 134.672 274.587 134.136 274.587C133.599 274.587 133.222 274.956 133.222 275.562V286.268C133.222 286.892 133.608 287.278 134.171 287.278ZM137.537 282.55C136.078 282.55 135.111 281.302 135.111 279.377C135.111 277.47 136.087 276.204 137.537 276.204C139.04 276.204 139.98 277.443 139.98 279.377C139.98 281.319 139.04 282.55 137.537 282.55ZM146.729 284.176C149.015 284.176 150.553 283.033 150.553 281.319C150.553 279.948 149.806 279.254 147.863 278.806L146.431 278.472C145.455 278.243 145.007 277.839 145.007 277.259C145.007 276.538 145.71 276.037 146.729 276.037C147.661 276.037 148.224 276.406 148.637 277.109C148.821 277.408 149.094 277.514 149.401 277.514C149.876 277.514 150.14 277.232 150.14 276.811C150.14 276.723 150.122 276.635 150.104 276.529C149.841 275.439 148.47 274.587 146.8 274.587C144.602 274.587 143.152 275.694 143.152 277.364C143.152 278.683 144.031 279.562 145.824 279.983L147.283 280.326C148.276 280.563 148.637 280.889 148.637 281.495C148.637 282.26 147.907 282.726 146.826 282.726C145.727 282.726 145.174 282.392 144.699 281.645C144.462 281.293 144.189 281.144 143.873 281.144C143.398 281.144 143.056 281.425 143.056 281.899C143.056 282.022 143.073 282.154 143.135 282.295C143.574 283.429 144.91 284.176 146.729 284.176ZM71.4804 305.167C72.122 305.167 72.5175 304.859 72.6932 304.209L74.4071 298.074H74.4511L76.1825 304.209C76.3583 304.886 76.7274 305.167 77.3866 305.167C78.0106 305.167 78.3973 304.859 78.5819 304.209L80.6913 296.94C80.7528 296.721 80.7792 296.562 80.7792 296.404C80.7792 295.912 80.4188 295.587 79.8651 295.587C79.3905 295.587 79.118 295.842 78.995 296.378L77.3339 303.031H77.2899L75.5233 296.448C75.3915 295.886 75.0223 295.587 74.4511 295.587C73.871 295.587 73.493 295.886 73.3612 296.448L71.6034 303.031H71.5682L69.9071 296.378C69.7841 295.842 69.5028 295.587 69.0282 295.587C68.4745 295.587 68.1054 295.912 68.1054 296.404C68.1054 296.562 68.1317 296.729 68.202 296.94L70.3114 304.209C70.5048 304.877 70.8563 305.167 71.4804 305.167ZM82.9931 294.356C83.6084 294.356 84.1005 293.864 84.1005 293.267C84.1005 292.66 83.6084 292.186 82.9931 292.186C82.3867 292.186 81.8945 292.66 81.8945 293.267C81.8945 293.864 82.3867 294.356 82.9931 294.356ZM82.9931 305.167C83.5644 305.167 83.9423 304.771 83.9423 304.165V296.598C83.9423 295.982 83.5644 295.587 82.9931 295.587C82.4218 295.587 82.0439 295.982 82.0439 296.598V304.165C82.0439 304.771 82.4218 305.167 82.9931 305.167ZM86.8243 305.167C87.378 305.167 87.7735 304.789 87.7735 304.165V293.152C87.7735 292.528 87.378 292.15 86.8243 292.15C86.2705 292.15 85.875 292.528 85.875 293.152V304.165C85.875 304.789 86.2705 305.167 86.8243 305.167ZM90.6642 305.167C91.2179 305.167 91.6134 304.789 91.6134 304.165V293.152C91.6134 292.528 91.2179 292.15 90.6642 292.15C90.1105 292.15 89.715 292.528 89.715 293.152V304.165C89.715 304.789 90.1105 305.167 90.6642 305.167ZM98.5725 305.167C99.1438 305.167 99.5218 304.807 99.5218 304.174V297.257H100.743C101.192 297.257 101.499 296.993 101.499 296.519C101.499 296.062 101.192 295.771 100.743 295.771H99.4954V294.937C99.4954 294.093 99.8294 293.715 100.629 293.706C100.823 293.706 100.981 293.68 101.113 293.645C101.42 293.557 101.57 293.372 101.57 293.064C101.57 292.555 101.086 292.229 100.075 292.229C98.4846 292.238 97.6145 293.073 97.6145 294.866V295.771H96.9554C96.5071 295.771 96.1995 296.062 96.1995 296.519C96.1995 296.993 96.5071 297.257 96.9554 297.257H97.6145V304.174C97.6145 304.807 97.9925 305.167 98.5725 305.167ZM103.792 294.356C104.408 294.356 104.9 293.864 104.9 293.267C104.9 292.66 104.408 292.186 103.792 292.186C103.186 292.186 102.694 292.66 102.694 293.267C102.694 293.864 103.186 294.356 103.792 294.356ZM103.792 305.167C104.364 305.167 104.742 304.771 104.742 304.165V296.598C104.742 295.982 104.364 295.587 103.792 295.587C103.221 295.587 102.843 295.982 102.843 296.598V304.165C102.843 304.771 103.221 305.167 103.792 305.167ZM107.623 305.167C108.177 305.167 108.573 304.789 108.573 304.165V293.152C108.573 292.528 108.177 292.15 107.623 292.15C107.07 292.15 106.674 292.528 106.674 293.152V304.165C106.674 304.789 107.07 305.167 107.623 305.167ZM111.463 305.167C112.017 305.167 112.413 304.789 112.413 304.165V293.152C112.413 292.528 112.017 292.15 111.463 292.15C110.91 292.15 110.514 292.528 110.514 293.152V304.165C110.514 304.789 110.91 305.167 111.463 305.167ZM119.003 308.445C120.716 308.445 121.587 307.689 122.404 305.466L125.612 296.984C125.674 296.8 125.709 296.606 125.709 296.457C125.709 295.947 125.331 295.587 124.786 295.587C124.302 295.587 124.039 295.798 123.881 296.316L121.516 303.277H121.49L119.134 296.316C118.967 295.789 118.695 295.587 118.22 295.587C117.667 295.587 117.254 295.947 117.254 296.466C117.254 296.615 117.289 296.809 117.359 297.002L120.453 305.097L120.277 305.633C119.934 306.582 119.398 306.872 118.871 306.872C118.651 306.872 118.581 306.863 118.379 306.863C117.922 306.863 117.64 307.127 117.64 307.531C117.64 308.12 118.124 308.445 119.003 308.445ZM130.612 305.176C133.258 305.176 134.998 303.356 134.998 300.377C134.998 297.406 133.249 295.587 130.612 295.587C127.975 295.587 126.226 297.406 126.226 300.377C126.226 303.356 127.967 305.176 130.612 305.176ZM130.612 303.611C129.127 303.611 128.16 302.434 128.16 300.377C128.16 298.329 129.127 297.151 130.612 297.151C132.097 297.151 133.064 298.329 133.064 300.377C133.064 302.434 132.106 303.611 130.612 303.611ZM139.585 305.167C141 305.167 141.94 304.543 142.45 303.436H142.494V304.209C142.494 304.789 142.863 305.167 143.408 305.167C143.953 305.167 144.313 304.789 144.313 304.2V296.598C144.313 295.965 143.927 295.587 143.364 295.587C142.81 295.587 142.415 295.965 142.415 296.598V301.142C142.415 302.583 141.589 303.532 140.218 303.532C138.908 303.532 138.24 302.776 138.24 301.37V296.598C138.24 295.965 137.845 295.587 137.291 295.587C136.728 295.587 136.342 295.965 136.342 296.598V301.739C136.342 303.857 137.572 305.167 139.585 305.167ZM147.063 305.167C147.626 305.167 148.013 304.78 148.013 304.165V299.445C148.013 298.294 148.54 297.424 149.841 297.415C150.236 297.415 150.518 297.336 150.711 297.169C150.895 297.02 150.992 296.8 150.992 296.501C150.992 296.202 150.913 295.974 150.737 295.833C150.579 295.684 150.324 295.604 149.99 295.604C149.067 295.604 148.215 296.299 147.96 297.336H147.916V296.545C147.916 295.965 147.547 295.587 147.019 295.587C146.483 295.587 146.114 295.965 146.114 296.545V304.165C146.114 304.78 146.492 305.167 147.063 305.167ZM57.7421 326.176C60.0273 326.176 61.5654 325.033 61.5654 323.319C61.5654 321.948 60.8183 321.254 58.8759 320.806L57.4433 320.472C56.4677 320.243 56.0195 319.839 56.0195 319.259C56.0195 318.538 56.7226 318.037 57.7421 318.037C58.6738 318.037 59.2363 318.406 59.6494 319.109C59.8339 319.408 60.1064 319.514 60.414 319.514C60.8886 319.514 61.1523 319.232 61.1523 318.811C61.1523 318.723 61.1347 318.635 61.1171 318.529C60.8535 317.439 59.4824 316.587 57.8125 316.587C55.6152 316.587 54.165 317.694 54.165 319.364C54.165 320.683 55.0439 321.562 56.8369 321.983L58.2959 322.326C59.289 322.563 59.6494 322.889 59.6494 323.495C59.6494 324.26 58.9199 324.726 57.8388 324.726C56.7402 324.726 56.1865 324.392 55.7119 323.645C55.4746 323.293 55.2021 323.144 54.8857 323.144C54.4111 323.144 54.0683 323.425 54.0683 323.899C54.0683 324.022 54.0859 324.154 54.1474 324.295C54.5869 325.429 55.9228 326.176 57.7421 326.176ZM66.9082 326.176C68.6221 326.176 70.125 325.271 70.6084 323.996C70.6788 323.812 70.7139 323.653 70.7139 323.504C70.7139 323.029 70.3711 322.713 69.9053 322.713C69.4922 322.713 69.2901 322.871 69.0264 323.328C68.5782 324.128 67.9541 324.585 66.9258 324.585C65.458 324.585 64.4737 323.39 64.4737 321.377C64.4737 319.408 65.4405 318.169 66.9258 318.169C67.9014 318.169 68.5518 318.591 69.0264 319.47C69.2549 319.892 69.4834 320.05 69.8877 320.05C70.3536 320.05 70.6963 319.751 70.6963 319.268C70.6963 319.136 70.6612 318.978 70.6084 318.828C70.2041 317.536 68.6748 316.587 66.8907 316.587C64.2539 316.587 62.5401 318.468 62.5401 321.395C62.5401 324.339 64.2627 326.176 66.9082 326.176ZM73.1212 326.167C73.6837 326.167 74.0704 325.78 74.0704 325.165V320.445C74.0704 319.294 74.5978 318.424 75.8986 318.415C76.2941 318.415 76.5753 318.336 76.7687 318.169C76.9532 318.02 77.0499 317.8 77.0499 317.501C77.0499 317.202 76.9708 316.974 76.795 316.833C76.6368 316.684 76.382 316.604 76.048 316.604C75.1251 316.604 74.2726 317.299 74.0177 318.336H73.9738V317.545C73.9738 316.965 73.6046 316.587 73.0773 316.587C72.5411 316.587 72.172 316.965 72.172 317.545V325.165C72.172 325.78 72.5499 326.167 73.1212 326.167ZM81.6018 326.176C83.3244 326.176 84.6691 325.481 85.2756 324.269C85.3547 324.084 85.4074 323.908 85.4074 323.759C85.4074 323.284 85.0734 322.985 84.6164 322.985C84.3439 322.985 84.1506 323.082 83.9484 323.319C83.2453 324.277 82.5949 324.638 81.5578 324.638C80.0461 324.638 79.0969 323.583 79.0969 321.896V321.852H84.6867C85.2756 321.852 85.6271 321.5 85.6271 320.885C85.6271 318.362 83.9309 316.587 81.4699 316.587C78.8508 316.587 77.1809 318.485 77.1809 321.421C77.1809 324.409 78.8156 326.176 81.6018 326.176ZM79.1057 320.524C79.2023 319.083 80.1516 318.116 81.4611 318.116C82.7795 318.116 83.6848 319.074 83.7287 320.524H79.1057ZM91.0315 326.176C92.7542 326.176 94.0989 325.481 94.7054 324.269C94.7845 324.084 94.8372 323.908 94.8372 323.759C94.8372 323.284 94.5032 322.985 94.0462 322.985C93.7737 322.985 93.5804 323.082 93.3782 323.319C92.6751 324.277 92.0247 324.638 90.9876 324.638C89.4759 324.638 88.5266 323.583 88.5266 321.896V321.852H94.1165C94.7054 321.852 95.0569 321.5 95.0569 320.885C95.0569 318.362 93.3606 316.587 90.8997 316.587C88.2805 316.587 86.6106 318.485 86.6106 321.421C86.6106 324.409 88.2454 326.176 91.0315 326.176ZM88.5354 320.524C88.6321 319.083 89.5813 318.116 90.8909 318.116C92.2093 318.116 93.1145 319.074 93.1585 320.524H88.5354ZM97.4027 326.167C97.9564 326.167 98.3519 325.789 98.3519 325.165V320.612C98.3519 319.18 99.2132 318.23 100.549 318.23C101.868 318.23 102.518 318.995 102.518 320.384V325.165C102.518 325.789 102.913 326.167 103.467 326.167C104.03 326.167 104.425 325.789 104.425 325.165V320.015C104.425 317.896 103.256 316.596 101.217 316.596C99.7933 316.596 98.8265 317.229 98.3255 318.283H98.2816V317.554C98.2816 316.965 97.9037 316.587 97.3587 316.587C96.805 316.587 96.4535 316.965 96.4535 317.545V325.165C96.4535 325.789 96.8402 326.167 97.4027 326.167ZM110.769 315.356C111.384 315.356 111.876 314.864 111.876 314.267C111.876 313.66 111.384 313.186 110.769 313.186C110.163 313.186 109.67 313.66 109.67 314.267C109.67 314.864 110.163 315.356 110.769 315.356ZM110.769 326.167C111.34 326.167 111.718 325.771 111.718 325.165V317.598C111.718 316.982 111.34 316.587 110.769 316.587C110.198 316.587 109.82 316.982 109.82 317.598V325.165C109.82 325.771 110.198 326.167 110.769 326.167ZM114.53 326.167C115.084 326.167 115.479 325.789 115.479 325.165V320.612C115.479 319.18 116.34 318.23 117.676 318.23C118.995 318.23 119.645 318.995 119.645 320.384V325.165C119.645 325.789 120.041 326.167 120.594 326.167C121.157 326.167 121.552 325.789 121.552 325.165V320.015C121.552 317.896 120.383 316.596 118.344 316.596C116.921 316.596 115.954 317.229 115.453 318.283H115.409V317.554C115.409 316.965 115.031 316.587 114.486 316.587C113.932 316.587 113.581 316.965 113.581 317.545V325.165C113.581 325.789 113.967 326.167 114.53 326.167ZM127.439 323.785C127.439 325.314 128.23 326.079 129.786 326.079H129.883C130.814 326.079 131.254 325.789 131.254 325.218C131.254 324.77 130.981 324.55 130.436 324.497L130.287 324.488C129.601 324.436 129.346 324.102 129.346 323.363V318.257H130.427C130.92 318.257 131.219 317.976 131.219 317.51C131.219 317.044 130.92 316.754 130.427 316.754H129.346V315.383C129.346 314.776 128.969 314.372 128.397 314.372C127.817 314.372 127.439 314.776 127.439 315.383V316.754H126.771C126.279 316.754 125.98 317.035 125.98 317.51C125.98 317.976 126.279 318.257 126.771 318.257H127.439V323.785ZM133.608 326.167C134.162 326.167 134.557 325.789 134.557 325.165V320.656C134.557 319.197 135.419 318.23 136.825 318.23C138.161 318.23 138.847 319.048 138.847 320.41V325.165C138.847 325.789 139.242 326.167 139.796 326.167C140.358 326.167 140.754 325.789 140.754 325.165V320.041C140.754 317.949 139.541 316.596 137.511 316.596C136.104 316.596 135.094 317.22 134.584 318.301H134.54V314.135C134.54 313.537 134.188 313.15 133.599 313.15C133.019 313.15 132.659 313.537 132.659 314.135V325.165C132.659 325.789 133.055 326.167 133.608 326.167ZM146.518 326.176C148.241 326.176 149.586 325.481 150.192 324.269C150.271 324.084 150.324 323.908 150.324 323.759C150.324 323.284 149.99 322.985 149.533 322.985C149.261 322.985 149.067 323.082 148.865 323.319C148.162 324.277 147.512 324.638 146.475 324.638C144.963 324.638 144.014 323.583 144.014 321.896V321.852H149.603C150.192 321.852 150.544 321.5 150.544 320.885C150.544 318.362 148.848 316.587 146.387 316.587C143.768 316.587 142.098 318.485 142.098 321.421C142.098 324.409 143.732 326.176 146.518 326.176ZM144.022 320.524C144.119 319.083 145.068 318.116 146.378 318.116C147.696 318.116 148.601 319.074 148.645 320.524H144.022ZM89.7386 347.176C92.0238 347.176 93.5619 346.033 93.5619 344.319C93.5619 342.948 92.8148 342.254 90.8724 341.806L89.4398 341.472C88.4642 341.243 88.016 340.839 88.016 340.259C88.016 339.538 88.7191 339.037 89.7386 339.037C90.6703 339.037 91.2328 339.406 91.6459 340.109C91.8304 340.408 92.1029 340.514 92.4105 340.514C92.8851 340.514 93.1488 340.232 93.1488 339.811C93.1488 339.723 93.1312 339.635 93.1136 339.529C92.85 338.439 91.4789 337.587 89.8089 337.587C87.6117 337.587 86.1615 338.694 86.1615 340.364C86.1615 341.683 87.0404 342.562 88.8334 342.983L90.2923 343.326C91.2855 343.563 91.6459 343.889 91.6459 344.495C91.6459 345.26 90.9164 345.726 89.8353 345.726C88.7367 345.726 88.183 345.392 87.7084 344.645C87.4711 344.293 87.1986 344.144 86.8822 344.144C86.4076 344.144 86.0648 344.425 86.0648 344.899C86.0648 345.022 86.0824 345.154 86.1439 345.295C86.5834 346.429 87.9193 347.176 89.7386 347.176ZM98.9575 347.176C100.68 347.176 102.025 346.481 102.631 345.269C102.71 345.084 102.763 344.908 102.763 344.759C102.763 344.284 102.429 343.985 101.972 343.985C101.7 343.985 101.506 344.082 101.304 344.319C100.601 345.277 99.9506 345.638 98.9135 345.638C97.4018 345.638 96.4526 344.583 96.4526 342.896V342.852H102.042C102.631 342.852 102.983 342.5 102.983 341.885C102.983 339.362 101.287 337.587 98.8256 337.587C96.2065 337.587 94.5366 339.485 94.5366 342.421C94.5366 345.409 96.1713 347.176 98.9575 347.176ZM96.4614 341.524C96.558 340.083 97.5073 339.116 98.8168 339.116C100.135 339.116 101.04 340.074 101.084 341.524H96.4614ZM105.399 347.167C105.953 347.167 106.348 346.789 106.348 346.165V335.152C106.348 334.528 105.953 334.15 105.399 334.15C104.845 334.15 104.45 334.528 104.45 335.152V346.165C104.45 346.789 104.845 347.167 105.399 347.167ZM112.227 347.176C113.95 347.176 115.295 346.481 115.901 345.269C115.98 345.084 116.033 344.908 116.033 344.759C116.033 344.284 115.699 343.985 115.242 343.985C114.969 343.985 114.776 344.082 114.574 344.319C113.871 345.277 113.22 345.638 112.183 345.638C110.671 345.638 109.722 344.583 109.722 342.896V342.852H115.312C115.901 342.852 116.253 342.5 116.253 341.885C116.253 339.362 114.556 337.587 112.095 337.587C109.476 337.587 107.806 339.485 107.806 342.421C107.806 345.409 109.441 347.176 112.227 347.176ZM109.731 341.524C109.828 340.083 110.777 339.116 112.087 339.116C113.405 339.116 114.31 340.074 114.354 341.524H109.731ZM121.604 347.176C123.318 347.176 124.821 346.271 125.304 344.996C125.375 344.812 125.41 344.653 125.41 344.504C125.41 344.029 125.067 343.713 124.601 343.713C124.188 343.713 123.986 343.871 123.722 344.328C123.274 345.128 122.65 345.585 121.622 345.585C120.154 345.585 119.17 344.39 119.17 342.377C119.17 340.408 120.136 339.169 121.622 339.169C122.597 339.169 123.248 339.591 123.722 340.47C123.951 340.892 124.179 341.05 124.584 341.05C125.049 341.05 125.392 340.751 125.392 340.268C125.392 340.136 125.357 339.978 125.304 339.828C124.9 338.536 123.371 337.587 121.587 337.587C118.95 337.587 117.236 339.468 117.236 342.395C117.236 345.339 118.959 347.176 121.604 347.176ZM127.422 344.785C127.422 346.314 128.213 347.079 129.768 347.079H129.865C130.797 347.079 131.236 346.789 131.236 346.218C131.236 345.77 130.964 345.55 130.419 345.497L130.269 345.488C129.584 345.436 129.329 345.102 129.329 344.363V339.257H130.41C130.902 339.257 131.201 338.976 131.201 338.51C131.201 338.044 130.902 337.754 130.41 337.754H129.329V336.383C129.329 335.776 128.951 335.372 128.38 335.372C127.8 335.372 127.422 335.776 127.422 336.383V337.754H126.754C126.261 337.754 125.963 338.035 125.963 338.51C125.963 338.976 126.261 339.257 126.754 339.257H127.422V344.785ZM136.35 347.176C138.073 347.176 139.418 346.481 140.024 345.269C140.103 345.084 140.156 344.908 140.156 344.759C140.156 344.284 139.822 343.985 139.365 343.985C139.093 343.985 138.899 344.082 138.697 344.319C137.994 345.277 137.344 345.638 136.306 345.638C134.795 345.638 133.846 344.583 133.846 342.896V342.852H139.435C140.024 342.852 140.376 342.5 140.376 341.885C140.376 339.362 138.68 337.587 136.219 337.587C133.599 337.587 131.93 339.485 131.93 342.421C131.93 345.409 133.564 347.176 136.35 347.176ZM133.854 341.524C133.951 340.083 134.9 339.116 136.21 339.116C137.528 339.116 138.433 340.074 138.477 341.524H133.854ZM145.244 347.158C146.685 347.158 147.661 346.438 148.136 345.356H148.162V346.218C148.162 346.815 148.593 347.167 149.129 347.167C149.683 347.167 150.069 346.815 150.069 346.218V335.152C150.069 334.528 149.674 334.15 149.12 334.15C148.558 334.15 148.162 334.528 148.162 335.152V339.292H148.127C147.608 338.272 146.554 337.604 145.226 337.604C142.906 337.604 141.359 339.459 141.359 342.377C141.359 345.295 142.906 347.158 145.244 347.158ZM145.745 345.55C144.242 345.55 143.302 344.328 143.302 342.377C143.302 340.435 144.242 339.204 145.745 339.204C147.204 339.204 148.18 340.461 148.18 342.377C148.18 344.311 147.204 345.55 145.745 345.55ZM118.685 365.785C118.685 367.314 119.476 368.079 121.032 368.079H121.129C122.06 368.079 122.5 367.789 122.5 367.218C122.5 366.77 122.227 366.55 121.682 366.497L121.533 366.488C120.847 366.436 120.593 366.102 120.593 365.363V360.257H121.674C122.166 360.257 122.465 359.976 122.465 359.51C122.465 359.044 122.166 358.754 121.674 358.754H120.593V357.383C120.593 356.776 120.215 356.372 119.643 356.372C119.063 356.372 118.685 356.776 118.685 357.383V358.754H118.017C117.525 358.754 117.226 359.035 117.226 359.51C117.226 359.976 117.525 360.257 118.017 360.257H118.685V365.785ZM124.846 357.356C125.461 357.356 125.953 356.864 125.953 356.267C125.953 355.66 125.461 355.186 124.846 355.186C124.239 355.186 123.747 355.66 123.747 356.267C123.747 356.864 124.239 357.356 124.846 357.356ZM124.846 368.167C125.417 368.167 125.795 367.771 125.795 367.165V359.598C125.795 358.982 125.417 358.587 124.846 358.587C124.274 358.587 123.896 358.982 123.896 359.598V367.165C123.896 367.771 124.274 368.167 124.846 368.167ZM128.606 368.167C129.178 368.167 129.556 367.771 129.556 367.165V362.287C129.556 361.101 130.355 360.222 131.48 360.222C132.553 360.222 133.229 360.898 133.229 361.962V367.165C133.229 367.771 133.59 368.167 134.161 368.167C134.732 368.167 135.093 367.771 135.093 367.165V362.226C135.093 361.057 135.875 360.222 137 360.222C138.125 360.222 138.767 360.907 138.767 362.103V367.165C138.767 367.771 139.144 368.167 139.716 368.167C140.287 368.167 140.674 367.771 140.674 367.165V361.646C140.674 359.809 139.478 358.596 137.65 358.596C136.332 358.596 135.242 359.281 134.768 360.406H134.724C134.354 359.255 133.423 358.596 132.14 358.596C130.892 358.596 129.925 359.281 129.512 360.31H129.468V359.554C129.468 358.947 129.09 358.587 128.562 358.587C128.026 358.587 127.657 358.956 127.657 359.554V367.165C127.657 367.771 128.035 368.167 128.606 368.167ZM146.438 368.176C148.161 368.176 149.506 367.481 150.112 366.269C150.191 366.084 150.244 365.908 150.244 365.759C150.244 365.284 149.91 364.985 149.453 364.985C149.181 364.985 148.987 365.082 148.785 365.319C148.082 366.277 147.432 366.638 146.395 366.638C144.883 366.638 143.934 365.583 143.934 363.896V363.852H149.523C150.112 363.852 150.464 363.5 150.464 362.885C150.464 360.362 148.768 358.587 146.307 358.587C143.688 358.587 142.018 360.485 142.018 363.421C142.018 366.409 143.652 368.176 146.438 368.176ZM143.942 362.524C144.039 361.083 144.988 360.116 146.298 360.116C147.616 360.116 148.521 361.074 148.565 362.524H143.942Z" fill="white"/>
<path d="M132.185 264.741C131.49 265.191 131.291 266.119 131.741 266.815C132.191 267.51 133.119 267.709 133.815 267.259L132.185 264.741ZM168.467 244.314C168.64 243.504 168.124 242.707 167.314 242.533L154.114 239.705C153.304 239.531 152.507 240.047 152.333 240.857C152.159 241.667 152.675 242.464 153.485 242.638L165.219 245.152L162.705 256.886C162.531 257.696 163.047 258.493 163.857 258.667C164.667 258.841 165.464 258.325 165.638 257.515L168.467 244.314ZM133.815 267.259L167.815 245.259L166.185 242.741L132.185 264.741L133.815 267.259Z" fill="white"/>
<path d="M44.4941 606.785C44.4941 608.314 45.2852 609.079 46.8408 609.079H46.9375C47.8691 609.079 48.3086 608.789 48.3086 608.218C48.3086 607.77 48.0361 607.55 47.4912 607.497L47.3418 607.488C46.6562 607.436 46.4014 607.102 46.4014 606.363V601.257H47.4824C47.9746 601.257 48.2734 600.976 48.2734 600.51C48.2734 600.044 47.9746 599.754 47.4824 599.754H46.4014V598.383C46.4014 597.776 46.0234 597.372 45.4521 597.372C44.8721 597.372 44.4941 597.776 44.4941 598.383V599.754H43.8262C43.334 599.754 43.0352 600.035 43.0352 600.51C43.0352 600.976 43.334 601.257 43.8262 601.257H44.4941V606.785ZM52.21 609.158C53.4141 609.158 54.5919 608.508 55.128 607.479H55.172V608.262C55.1895 608.824 55.5499 609.167 56.0772 609.167C56.6134 609.167 56.9913 608.807 56.9913 608.209V602.628C56.9913 600.773 55.5587 599.587 53.3175 599.587C51.6563 599.587 50.2589 600.255 49.7755 601.301C49.6612 601.512 49.6085 601.723 49.6085 601.916C49.6085 602.391 49.9513 602.707 50.4259 602.707C50.7598 602.707 51.0059 602.584 51.1993 602.303C51.7266 601.459 52.3331 601.134 53.2471 601.134C54.4073 601.134 55.1016 601.749 55.1016 602.777V603.489L52.5616 603.639C50.3731 603.762 49.1251 604.755 49.1251 606.372C49.1251 608.033 50.3995 609.158 52.21 609.158ZM52.7286 607.655C51.7179 607.655 51.0411 607.128 51.0411 606.319C51.0411 605.528 51.6827 605.027 52.8165 604.948L55.1016 604.808V605.537C55.1016 606.741 54.0557 607.655 52.7286 607.655ZM59.7062 612.278C60.2599 612.278 60.6554 611.892 60.6554 611.268V607.479H60.6994C61.2267 608.508 62.2814 609.158 63.6086 609.158C65.9289 609.158 67.467 607.304 67.467 604.377C67.467 601.45 65.9201 599.604 63.5734 599.604C62.2375 599.604 61.174 600.281 60.6291 601.345H60.5939V600.562C60.5939 599.956 60.2072 599.587 59.6711 599.587C59.1349 599.587 58.757 599.956 58.757 600.562V611.268C58.757 611.892 59.1437 612.278 59.7062 612.278ZM63.0724 607.55C61.6134 607.55 60.6466 606.302 60.6466 604.377C60.6466 602.47 61.6222 601.204 63.0724 601.204C64.5754 601.204 65.5158 602.443 65.5158 604.377C65.5158 606.319 64.5754 607.55 63.0724 607.55ZM77.0716 608.631C77.5989 608.631 77.9329 608.253 77.9329 607.708V604.825H80.6575C81.1937 604.825 81.5716 604.5 81.5716 603.973C81.5716 603.445 81.1937 603.111 80.6575 603.111H77.9329V600.22C77.9329 599.675 77.5989 599.297 77.0716 599.297C76.5355 599.297 76.2015 599.675 76.2015 600.22V603.111H73.4681C72.932 603.111 72.5628 603.445 72.5628 603.973C72.5628 604.5 72.932 604.825 73.4681 604.825H76.2015V607.708C76.2015 608.253 76.5355 608.631 77.0716 608.631ZM87.643 606.785C87.643 608.314 88.4341 609.079 89.9897 609.079H90.0864C91.018 609.079 91.4575 608.789 91.4575 608.218C91.4575 607.77 91.185 607.55 90.6401 607.497L90.4907 607.488C89.8052 607.436 89.5503 607.102 89.5503 606.363V601.257H90.6313C91.1235 601.257 91.4223 600.976 91.4223 600.51C91.4223 600.044 91.1235 599.754 90.6313 599.754H89.5503V598.383C89.5503 597.776 89.1723 597.372 88.6011 597.372C88.021 597.372 87.643 597.776 87.643 598.383V599.754H86.9751C86.4829 599.754 86.1841 600.035 86.1841 600.51C86.1841 600.976 86.4829 601.257 86.9751 601.257H87.643V606.785ZM96.5367 609.176C99.1822 609.176 100.922 607.356 100.922 604.377C100.922 601.406 99.1734 599.587 96.5367 599.587C93.9 599.587 92.1509 601.406 92.1509 604.377C92.1509 607.356 93.8912 609.176 96.5367 609.176ZM96.5367 607.611C95.0513 607.611 94.0845 606.434 94.0845 604.377C94.0845 602.329 95.0513 601.151 96.5367 601.151C98.022 601.151 98.9888 602.329 98.9888 604.377C98.9888 606.434 98.0308 607.611 96.5367 607.611ZM46.6475 630.158C47.8516 630.158 49.0293 629.508 49.5654 628.479H49.6094V629.262C49.627 629.824 49.9873 630.167 50.5146 630.167C51.0508 630.167 51.4287 629.807 51.4287 629.209V623.628C51.4287 621.773 49.9961 620.587 47.7549 620.587C46.0938 620.587 44.6963 621.255 44.2129 622.301C44.0986 622.512 44.0459 622.723 44.0459 622.916C44.0459 623.391 44.3887 623.707 44.8633 623.707C45.1973 623.707 45.4434 623.584 45.6367 623.303C46.1641 622.459 46.7705 622.134 47.6846 622.134C48.8447 622.134 49.5391 622.749 49.5391 623.777V624.489L46.999 624.639C44.8105 624.762 43.5625 625.755 43.5625 627.372C43.5625 629.033 44.8369 630.158 46.6475 630.158ZM47.166 628.655C46.1553 628.655 45.4785 628.128 45.4785 627.319C45.4785 626.528 46.1201 626.027 47.2539 625.948L49.5391 625.808V626.537C49.5391 627.741 48.4932 628.655 47.166 628.655ZM56.6661 630.158C58.1075 630.158 59.0831 629.438 59.5577 628.356H59.5841V629.218C59.5841 629.815 60.0147 630.167 60.5509 630.167C61.1046 630.167 61.4913 629.815 61.4913 629.218V618.152C61.4913 617.528 61.0958 617.15 60.5421 617.15C59.9796 617.15 59.5841 617.528 59.5841 618.152V622.292H59.5489C59.0304 621.272 57.9757 620.604 56.6485 620.604C54.3282 620.604 52.7813 622.459 52.7813 625.377C52.7813 628.295 54.3282 630.158 56.6661 630.158ZM57.1671 628.55C55.6641 628.55 54.7237 627.328 54.7237 625.377C54.7237 623.435 55.6641 622.204 57.1671 622.204C58.6261 622.204 59.6016 623.461 59.6016 625.377C59.6016 627.311 58.6261 628.55 57.1671 628.55ZM66.8341 630.158C68.2755 630.158 69.2511 629.438 69.7257 628.356H69.7521V629.218C69.7521 629.815 70.1828 630.167 70.7189 630.167C71.2726 630.167 71.6593 629.815 71.6593 629.218V618.152C71.6593 617.528 71.2638 617.15 70.7101 617.15C70.1476 617.15 69.7521 617.528 69.7521 618.152V622.292H69.717C69.1984 621.272 68.1437 620.604 66.8166 620.604C64.4963 620.604 62.9494 622.459 62.9494 625.377C62.9494 628.295 64.4963 630.158 66.8341 630.158ZM67.3351 628.55C65.8322 628.55 64.8918 627.328 64.8918 625.377C64.8918 623.435 65.8322 622.204 67.3351 622.204C68.7941 622.204 69.7697 623.461 69.7697 625.377C69.7697 627.311 68.7941 628.55 67.3351 628.55ZM80.5784 630.158C82.0198 630.158 82.9954 629.438 83.47 628.356H83.4964V629.218C83.4964 629.815 83.9271 630.167 84.4632 630.167C85.0169 630.167 85.4036 629.815 85.4036 629.218V618.152C85.4036 617.528 85.0081 617.15 84.4544 617.15C83.8919 617.15 83.4964 617.528 83.4964 618.152V622.292H83.4613C82.9427 621.272 81.888 620.604 80.5609 620.604C78.2405 620.604 76.6937 622.459 76.6937 625.377C76.6937 628.295 78.2405 630.158 80.5784 630.158ZM81.0794 628.55C79.5765 628.55 78.6361 627.328 78.6361 625.377C78.6361 623.435 79.5765 622.204 81.0794 622.204C82.5384 622.204 83.514 623.461 83.514 625.377C83.514 627.311 82.5384 628.55 81.0794 628.55ZM88.224 630.167C88.7865 630.167 89.1732 629.78 89.1732 629.165V624.445C89.1732 623.294 89.7006 622.424 91.0014 622.415C91.3969 622.415 91.6781 622.336 91.8715 622.169C92.0561 622.02 92.1527 621.8 92.1527 621.501C92.1527 621.202 92.0736 620.974 91.8979 620.833C91.7396 620.684 91.4848 620.604 91.1508 620.604C90.2279 620.604 89.3754 621.299 89.1205 622.336H89.0766V621.545C89.0766 620.965 88.7074 620.587 88.1801 620.587C87.6439 620.587 87.2748 620.965 87.2748 621.545V629.165C87.2748 629.78 87.6527 630.167 88.224 630.167ZM96.6694 630.176C99.3149 630.176 101.055 628.356 101.055 625.377C101.055 622.406 99.3061 620.587 96.6694 620.587C94.0327 620.587 92.2837 622.406 92.2837 625.377C92.2837 628.356 94.0239 630.176 96.6694 630.176ZM96.6694 628.611C95.1841 628.611 94.2173 627.434 94.2173 625.377C94.2173 623.329 95.1841 622.151 96.6694 622.151C98.1548 622.151 99.1216 623.329 99.1216 625.377C99.1216 627.434 98.1636 628.611 96.6694 628.611ZM103.392 633.278C103.946 633.278 104.341 632.892 104.341 632.268V628.479H104.385C104.913 629.508 105.967 630.158 107.294 630.158C109.615 630.158 111.153 628.304 111.153 625.377C111.153 622.45 109.606 620.604 107.259 620.604C105.923 620.604 104.86 621.281 104.315 622.345H104.28V621.562C104.28 620.956 103.893 620.587 103.357 620.587C102.821 620.587 102.443 620.956 102.443 621.562V632.268C102.443 632.892 102.83 633.278 103.392 633.278ZM106.758 628.55C105.299 628.55 104.333 627.302 104.333 625.377C104.333 623.47 105.308 622.204 106.758 622.204C108.261 622.204 109.202 623.443 109.202 625.377C109.202 627.319 108.261 628.55 106.758 628.55ZM115.951 630.176C118.236 630.176 119.774 629.033 119.774 627.319C119.774 625.948 119.027 625.254 117.085 624.806L115.652 624.472C114.676 624.243 114.228 623.839 114.228 623.259C114.228 622.538 114.931 622.037 115.951 622.037C116.882 622.037 117.445 622.406 117.858 623.109C118.043 623.408 118.315 623.514 118.623 623.514C119.097 623.514 119.361 623.232 119.361 622.811C119.361 622.723 119.343 622.635 119.326 622.529C119.062 621.439 117.691 620.587 116.021 620.587C113.824 620.587 112.374 621.694 112.374 623.364C112.374 624.683 113.253 625.562 115.046 625.983L116.505 626.326C117.498 626.563 117.858 626.889 117.858 627.495C117.858 628.26 117.129 628.726 116.048 628.726C114.949 628.726 114.395 628.392 113.921 627.645C113.683 627.293 113.411 627.144 113.094 627.144C112.62 627.144 112.277 627.425 112.277 627.899C112.277 628.022 112.295 628.154 112.356 628.295C112.796 629.429 114.131 630.176 115.951 630.176Z" fill="black"/>
<path d="M71.496 643.891C71.4355 643.064 70.7168 642.444 69.8905 642.504C69.0643 642.564 68.4435 643.283 68.504 644.109L71.496 643.891ZM72.0196 686.135C72.6466 686.677 73.5938 686.607 74.1353 685.98L82.9591 675.763C83.5006 675.136 83.4313 674.189 82.8043 673.648C82.1773 673.106 81.2301 673.175 80.6886 673.802L72.8452 682.884L63.7633 675.041C63.1364 674.499 62.1891 674.569 61.6477 675.196C61.1062 675.823 61.1755 676.77 61.8025 677.311L72.0196 686.135ZM68.504 644.109L71.504 685.109L74.496 684.891L71.496 643.891L68.504 644.109Z" fill="black"/>
<path d="M347.563 586.013C345.223 600.506 329.212 609.976 311.801 607.164C294.39 604.353 282.173 590.325 284.513 575.832C286.853 561.339 310.064 507.279 327.475 510.09C344.886 512.901 349.903 571.52 347.563 586.013Z" fill="black"/>
<path d="M188.412 595.158C189.854 595.158 190.829 594.438 191.304 593.356H191.33V594.218C191.33 594.815 191.761 595.167 192.297 595.167C192.851 595.167 193.237 594.815 193.237 594.218V583.152C193.237 582.528 192.842 582.15 192.288 582.15C191.726 582.15 191.33 582.528 191.33 583.152V587.292H191.295C190.776 586.272 189.722 585.604 188.395 585.604C186.074 585.604 184.527 587.459 184.527 590.377C184.527 593.295 186.074 595.158 188.412 595.158ZM188.913 593.55C187.41 593.55 186.47 592.328 186.47 590.377C186.47 588.435 187.41 587.204 188.913 587.204C190.372 587.204 191.348 588.461 191.348 590.377C191.348 592.311 190.372 593.55 188.913 593.55ZM196.058 595.167C196.62 595.167 197.007 594.78 197.007 594.165V589.445C197.007 588.294 197.534 587.424 198.835 587.415C199.231 587.415 199.512 587.336 199.705 587.169C199.89 587.02 199.986 586.8 199.986 586.501C199.986 586.202 199.907 585.974 199.732 585.833C199.573 585.684 199.318 585.604 198.984 585.604C198.062 585.604 197.209 586.299 196.954 587.336H196.91V586.545C196.91 585.965 196.541 585.587 196.014 585.587C195.478 585.587 195.108 585.965 195.108 586.545V594.165C195.108 594.78 195.486 595.167 196.058 595.167ZM203.448 595.158C204.653 595.158 205.83 594.508 206.366 593.479H206.41V594.262C206.428 594.824 206.788 595.167 207.316 595.167C207.852 595.167 208.23 594.807 208.23 594.209V588.628C208.23 586.773 206.797 585.587 204.556 585.587C202.895 585.587 201.497 586.255 201.014 587.301C200.9 587.512 200.847 587.723 200.847 587.916C200.847 588.391 201.19 588.707 201.664 588.707C201.998 588.707 202.244 588.584 202.438 588.303C202.965 587.459 203.571 587.134 204.486 587.134C205.646 587.134 206.34 587.749 206.34 588.777V589.489L203.8 589.639C201.611 589.762 200.363 590.755 200.363 592.372C200.363 594.033 201.638 595.158 203.448 595.158ZM203.967 593.655C202.956 593.655 202.279 593.128 202.279 592.319C202.279 591.528 202.921 591.027 204.055 590.948L206.34 590.808V591.537C206.34 592.741 205.294 593.655 203.967 593.655ZM213.871 598.48C216.622 598.507 218.301 597.03 218.301 594.745V586.562C218.301 585.947 217.897 585.587 217.352 585.587C216.807 585.587 216.394 585.947 216.394 586.562V587.31H216.359C215.796 586.264 214.777 585.604 213.467 585.604C211.076 585.604 209.582 587.406 209.582 590.298C209.582 593.154 211.094 594.974 213.423 594.974C214.741 594.974 215.831 594.314 216.35 593.312H216.394V594.78C216.394 596.072 215.453 596.951 213.906 596.934C213.001 596.916 212.351 596.573 211.595 595.782C211.34 595.527 211.156 595.431 210.865 595.431C210.382 595.431 210.057 595.747 210.057 596.187C210.057 596.406 210.11 596.6 210.233 596.811C210.865 597.812 212.193 598.463 213.871 598.48ZM213.933 593.427C212.474 593.427 211.525 592.24 211.525 590.307C211.525 588.382 212.474 587.169 213.933 587.169C215.418 587.169 216.403 588.417 216.403 590.315C216.403 592.214 215.418 593.427 213.933 593.427ZM224.223 592.785C224.223 594.314 225.014 595.079 226.57 595.079H226.666C227.598 595.079 228.037 594.789 228.037 594.218C228.037 593.77 227.765 593.55 227.22 593.497L227.071 593.488C226.385 593.436 226.13 593.102 226.13 592.363V587.257H227.211C227.704 587.257 228.002 586.976 228.002 586.51C228.002 586.044 227.704 585.754 227.211 585.754H226.13V584.383C226.13 583.776 225.752 583.372 225.181 583.372C224.601 583.372 224.223 583.776 224.223 584.383V585.754H223.555C223.063 585.754 222.764 586.035 222.764 586.51C222.764 586.976 223.063 587.257 223.555 587.257H224.223V592.785ZM230.383 584.356C230.999 584.356 231.491 583.864 231.491 583.267C231.491 582.66 230.999 582.186 230.383 582.186C229.777 582.186 229.285 582.66 229.285 583.267C229.285 583.864 229.777 584.356 230.383 584.356ZM230.383 595.167C230.955 595.167 231.333 594.771 231.333 594.165V586.598C231.333 585.982 230.955 585.587 230.383 585.587C229.812 585.587 229.434 585.982 229.434 586.598V594.165C229.434 594.771 229.812 595.167 230.383 595.167ZM234.144 595.167C234.715 595.167 235.093 594.771 235.093 594.165V589.287C235.093 588.101 235.893 587.222 237.018 587.222C238.09 587.222 238.767 587.898 238.767 588.962V594.165C238.767 594.771 239.127 595.167 239.699 595.167C240.27 595.167 240.63 594.771 240.63 594.165V589.226C240.63 588.057 241.413 587.222 242.538 587.222C243.663 587.222 244.304 587.907 244.304 589.103V594.165C244.304 594.771 244.682 595.167 245.253 595.167C245.825 595.167 246.211 594.771 246.211 594.165V588.646C246.211 586.809 245.016 585.596 243.188 585.596C241.87 585.596 240.78 586.281 240.305 587.406H240.261C239.892 586.255 238.961 585.596 237.677 585.596C236.429 585.596 235.462 586.281 235.049 587.31H235.005V586.554C235.005 585.947 234.627 585.587 234.1 585.587C233.564 585.587 233.195 585.956 233.195 586.554V594.165C233.195 594.771 233.573 595.167 234.144 595.167ZM251.976 595.176C253.699 595.176 255.044 594.481 255.65 593.269C255.729 593.084 255.782 592.908 255.782 592.759C255.782 592.284 255.448 591.985 254.991 591.985C254.718 591.985 254.525 592.082 254.323 592.319C253.62 593.277 252.969 593.638 251.932 593.638C250.421 593.638 249.471 592.583 249.471 590.896V590.852H255.061C255.65 590.852 256.002 590.5 256.002 589.885C256.002 587.362 254.305 585.587 251.844 585.587C249.225 585.587 247.555 587.485 247.555 590.421C247.555 593.409 249.19 595.176 251.976 595.176ZM249.48 589.524C249.577 588.083 250.526 587.116 251.836 587.116C253.154 587.116 254.059 588.074 254.103 589.524H249.48ZM188.412 616.158C189.854 616.158 190.829 615.438 191.304 614.356H191.33V615.218C191.33 615.815 191.761 616.167 192.297 616.167C192.851 616.167 193.237 615.815 193.237 615.218V604.152C193.237 603.528 192.842 603.15 192.288 603.15C191.726 603.15 191.33 603.528 191.33 604.152V608.292H191.295C190.776 607.272 189.722 606.604 188.395 606.604C186.074 606.604 184.527 608.459 184.527 611.377C184.527 614.295 186.074 616.158 188.412 616.158ZM188.913 614.55C187.41 614.55 186.47 613.328 186.47 611.377C186.47 609.435 187.41 608.204 188.913 608.204C190.372 608.204 191.348 609.461 191.348 611.377C191.348 613.311 190.372 614.55 188.913 614.55ZM196.058 616.167C196.62 616.167 197.007 615.78 197.007 615.165V610.445C197.007 609.294 197.534 608.424 198.835 608.415C199.231 608.415 199.512 608.336 199.705 608.169C199.89 608.02 199.986 607.8 199.986 607.501C199.986 607.202 199.907 606.974 199.732 606.833C199.573 606.684 199.318 606.604 198.984 606.604C198.062 606.604 197.209 607.299 196.954 608.336H196.91V607.545C196.91 606.965 196.541 606.587 196.014 606.587C195.478 606.587 195.108 606.965 195.108 607.545V615.165C195.108 615.78 195.486 616.167 196.058 616.167ZM204.503 616.176C207.149 616.176 208.889 614.356 208.889 611.377C208.889 608.406 207.14 606.587 204.503 606.587C201.866 606.587 200.117 608.406 200.117 611.377C200.117 614.356 201.858 616.176 204.503 616.176ZM204.503 614.611C203.018 614.611 202.051 613.434 202.051 611.377C202.051 609.329 203.018 608.151 204.503 608.151C205.988 608.151 206.955 609.329 206.955 611.377C206.955 613.434 205.997 614.611 204.503 614.611ZM211.226 619.278C211.78 619.278 212.175 618.892 212.175 618.268V614.479H212.219C212.746 615.508 213.801 616.158 215.128 616.158C217.448 616.158 218.987 614.304 218.987 611.377C218.987 608.45 217.44 606.604 215.093 606.604C213.757 606.604 212.694 607.281 212.149 608.345H212.114V607.562C212.114 606.956 211.727 606.587 211.191 606.587C210.655 606.587 210.277 606.956 210.277 607.562V618.268C210.277 618.892 210.663 619.278 211.226 619.278ZM214.592 614.55C213.133 614.55 212.166 613.302 212.166 611.377C212.166 609.47 213.142 608.204 214.592 608.204C216.095 608.204 217.035 609.443 217.035 611.377C217.035 613.319 216.095 614.55 214.592 614.55ZM223.784 616.176C226.07 616.176 227.608 615.033 227.608 613.319C227.608 611.948 226.861 611.254 224.918 610.806L223.486 610.472C222.51 610.243 222.062 609.839 222.062 609.259C222.062 608.538 222.765 608.037 223.784 608.037C224.716 608.037 225.279 608.406 225.692 609.109C225.876 609.408 226.149 609.514 226.456 609.514C226.931 609.514 227.195 609.232 227.195 608.811C227.195 608.723 227.177 608.635 227.159 608.529C226.896 607.439 225.525 606.587 223.855 606.587C221.658 606.587 220.207 607.694 220.207 609.364C220.207 610.683 221.086 611.562 222.879 611.983L224.338 612.326C225.331 612.563 225.692 612.889 225.692 613.495C225.692 614.26 224.962 614.726 223.881 614.726C222.783 614.726 222.229 614.392 221.754 613.645C221.517 613.293 221.244 613.144 220.928 613.144C220.453 613.144 220.111 613.425 220.111 613.899C220.111 614.022 220.128 614.154 220.19 614.295C220.629 615.429 221.965 616.176 223.784 616.176ZM233.125 613.785C233.125 615.314 233.916 616.079 235.472 616.079H235.569C236.5 616.079 236.94 615.789 236.94 615.218C236.94 614.77 236.667 614.55 236.123 614.497L235.973 614.488C235.288 614.436 235.033 614.102 235.033 613.363V608.257H236.114C236.606 608.257 236.905 607.976 236.905 607.51C236.905 607.044 236.606 606.754 236.114 606.754H235.033V605.383C235.033 604.776 234.655 604.372 234.083 604.372C233.503 604.372 233.125 604.776 233.125 605.383V606.754H232.458C231.965 606.754 231.666 607.035 231.666 607.51C231.666 607.976 231.965 608.257 232.458 608.257H233.125V613.785ZM242.019 616.176C244.665 616.176 246.405 614.356 246.405 611.377C246.405 608.406 244.656 606.587 242.019 606.587C239.382 606.587 237.633 608.406 237.633 611.377C237.633 614.356 239.374 616.176 242.019 616.176ZM242.019 614.611C240.534 614.611 239.567 613.434 239.567 611.377C239.567 609.329 240.534 608.151 242.019 608.151C243.504 608.151 244.471 609.329 244.471 611.377C244.471 613.434 243.513 614.611 242.019 614.611ZM188.14 637.167C189.555 637.167 190.495 636.543 191.005 635.436H191.049V636.209C191.049 636.789 191.418 637.167 191.963 637.167C192.508 637.167 192.868 636.789 192.868 636.2V628.598C192.868 627.965 192.481 627.587 191.919 627.587C191.365 627.587 190.97 627.965 190.97 628.598V633.142C190.97 634.583 190.144 635.532 188.772 635.532C187.463 635.532 186.795 634.776 186.795 633.37V628.598C186.795 627.965 186.399 627.587 185.846 627.587C185.283 627.587 184.896 627.965 184.896 628.598V633.739C184.896 635.857 186.127 637.167 188.14 637.167ZM195.618 640.278C196.172 640.278 196.567 639.892 196.567 639.268V635.479H196.611C197.139 636.508 198.193 637.158 199.521 637.158C201.841 637.158 203.379 635.304 203.379 632.377C203.379 629.45 201.832 627.604 199.485 627.604C198.149 627.604 197.086 628.281 196.541 629.345H196.506V628.562C196.506 627.956 196.119 627.587 195.583 627.587C195.047 627.587 194.669 627.956 194.669 628.562V639.268C194.669 639.892 195.056 640.278 195.618 640.278ZM198.984 635.55C197.525 635.55 196.559 634.302 196.559 632.377C196.559 630.47 197.534 629.204 198.984 629.204C200.487 629.204 201.428 630.443 201.428 632.377C201.428 634.319 200.487 635.55 198.984 635.55ZM208.238 637.158C209.68 637.158 210.655 636.438 211.13 635.356H211.156V636.218C211.156 636.815 211.587 637.167 212.123 637.167C212.677 637.167 213.064 636.815 213.064 636.218V625.152C213.064 624.528 212.668 624.15 212.114 624.15C211.552 624.15 211.156 624.528 211.156 625.152V629.292H211.121C210.603 628.272 209.548 627.604 208.221 627.604C205.901 627.604 204.354 629.459 204.354 632.377C204.354 635.295 205.901 637.158 208.238 637.158ZM208.739 635.55C207.236 635.55 206.296 634.328 206.296 632.377C206.296 630.435 207.236 629.204 208.739 629.204C210.198 629.204 211.174 630.461 211.174 632.377C211.174 634.311 210.198 635.55 208.739 635.55ZM217.642 637.158C218.846 637.158 220.024 636.508 220.56 635.479H220.604V636.262C220.621 636.824 220.982 637.167 221.509 637.167C222.045 637.167 222.423 636.807 222.423 636.209V630.628C222.423 628.773 220.99 627.587 218.749 627.587C217.088 627.587 215.691 628.255 215.207 629.301C215.093 629.512 215.04 629.723 215.04 629.916C215.04 630.391 215.383 630.707 215.858 630.707C216.192 630.707 216.438 630.584 216.631 630.303C217.158 629.459 217.765 629.134 218.679 629.134C219.839 629.134 220.533 629.749 220.533 630.777V631.489L217.993 631.639C215.805 631.762 214.557 632.755 214.557 634.372C214.557 636.033 215.831 637.158 217.642 637.158ZM218.16 635.655C217.15 635.655 216.473 635.128 216.473 634.319C216.473 633.528 217.114 633.027 218.248 632.948L220.533 632.808V633.537C220.533 634.741 219.488 635.655 218.16 635.655ZM224.743 634.785C224.743 636.314 225.534 637.079 227.089 637.079H227.186C228.118 637.079 228.557 636.789 228.557 636.218C228.557 635.77 228.284 635.55 227.74 635.497L227.59 635.488C226.905 635.436 226.65 635.102 226.65 634.363V629.257H227.731C228.223 629.257 228.522 628.976 228.522 628.51C228.522 628.044 228.223 627.754 227.731 627.754H226.65V626.383C226.65 625.776 226.272 625.372 225.701 625.372C225.12 625.372 224.743 625.776 224.743 626.383V627.754H224.075C223.582 627.754 223.284 628.035 223.284 628.51C223.284 628.976 223.582 629.257 224.075 629.257H224.743V634.785ZM233.671 637.176C235.394 637.176 236.739 636.481 237.345 635.269C237.424 635.084 237.477 634.908 237.477 634.759C237.477 634.284 237.143 633.985 236.686 633.985C236.413 633.985 236.22 634.082 236.018 634.319C235.315 635.277 234.664 635.638 233.627 635.638C232.116 635.638 231.166 634.583 231.166 632.896V632.852H236.756C237.345 632.852 237.697 632.5 237.697 631.885C237.697 629.362 236 627.587 233.539 627.587C230.92 627.587 229.25 629.485 229.25 632.421C229.25 635.409 230.885 637.176 233.671 637.176ZM231.175 631.524C231.272 630.083 232.221 629.116 233.531 629.116C234.849 629.116 235.754 630.074 235.798 631.524H231.175Z" fill="black"/>
<path d="M234.905 658.156C234.339 658.76 234.37 659.71 234.975 660.276C235.58 660.842 236.529 660.811 237.095 660.206L234.905 658.156ZM281.499 612.131C281.472 611.303 280.779 610.654 279.951 610.681L266.458 611.126C265.63 611.154 264.981 611.847 265.008 612.675C265.035 613.503 265.729 614.152 266.557 614.125L278.55 613.729L278.946 625.723C278.973 626.551 279.666 627.2 280.494 627.173C281.322 627.145 281.971 626.452 281.944 625.624L281.499 612.131ZM237.095 660.206L281.095 613.206L278.905 611.156L234.905 658.156L237.095 660.206Z" fill="black"/>
<path d="M129.916 130.167C130.47 130.167 130.856 129.815 130.856 129.218V128.427H130.892C131.463 129.499 132.518 130.158 133.862 130.158C136.218 130.158 137.729 128.312 137.729 125.377C137.729 122.45 136.209 120.604 133.88 120.604C132.57 120.604 131.507 121.255 130.953 122.327H130.909V118.152C130.909 117.528 130.514 117.15 129.96 117.15C129.406 117.15 129.011 117.528 129.011 118.152V129.218C129.011 129.815 129.371 130.167 129.916 130.167ZM133.353 128.55C131.92 128.55 130.9 127.302 130.9 125.377C130.9 123.47 131.92 122.204 133.353 122.204C134.847 122.204 135.778 123.435 135.778 125.377C135.778 127.337 134.855 128.55 133.353 128.55ZM141.833 130.158C143.037 130.158 144.215 129.508 144.751 128.479H144.795V129.262C144.813 129.824 145.173 130.167 145.7 130.167C146.236 130.167 146.614 129.807 146.614 129.209V123.628C146.614 121.773 145.182 120.587 142.941 120.587C141.279 120.587 139.882 121.255 139.399 122.301C139.284 122.512 139.232 122.723 139.232 122.916C139.232 123.391 139.574 123.707 140.049 123.707C140.383 123.707 140.629 123.584 140.822 123.303C141.35 122.459 141.956 122.134 142.87 122.134C144.03 122.134 144.725 122.749 144.725 123.777V124.489L142.185 124.639C139.996 124.762 138.748 125.755 138.748 127.372C138.748 129.033 140.023 130.158 141.833 130.158ZM142.352 128.655C141.341 128.655 140.664 128.128 140.664 127.319C140.664 126.528 141.306 126.027 142.44 125.948L144.725 125.808V126.537C144.725 127.741 143.679 128.655 142.352 128.655ZM152.335 130.176C154.049 130.176 155.552 129.271 156.035 127.996C156.106 127.812 156.141 127.653 156.141 127.504C156.141 127.029 155.798 126.713 155.332 126.713C154.919 126.713 154.717 126.871 154.453 127.328C154.005 128.128 153.381 128.585 152.353 128.585C150.885 128.585 149.901 127.39 149.901 125.377C149.901 123.408 150.867 122.169 152.353 122.169C153.328 122.169 153.979 122.591 154.453 123.47C154.682 123.892 154.91 124.05 155.315 124.05C155.78 124.05 156.123 123.751 156.123 123.268C156.123 123.136 156.088 122.978 156.035 122.828C155.631 121.536 154.102 120.587 152.318 120.587C149.681 120.587 147.967 122.468 147.967 125.395C147.967 128.339 149.69 130.176 152.335 130.176ZM158.618 130.167C159.172 130.167 159.568 129.789 159.568 129.165V126.695L160.411 125.904L163.479 129.701C163.734 130.053 163.945 130.167 164.296 130.167C164.806 130.167 165.184 129.815 165.184 129.332C165.184 129.095 165.131 128.919 164.929 128.664L161.791 124.779L164.648 122.072C164.894 121.844 164.973 121.668 164.973 121.396C164.973 120.947 164.613 120.587 164.147 120.587C163.865 120.587 163.663 120.684 163.426 120.938L159.585 124.7H159.568V118.152C159.568 117.528 159.172 117.15 158.618 117.15C158.065 117.15 157.669 117.528 157.669 118.152V129.165C157.669 129.789 158.065 130.167 158.618 130.167ZM170.737 127.785C170.737 129.314 171.528 130.079 173.083 130.079H173.18C174.112 130.079 174.551 129.789 174.551 129.218C174.551 128.77 174.279 128.55 173.734 128.497L173.584 128.488C172.899 128.436 172.644 128.102 172.644 127.363V122.257H173.725C174.217 122.257 174.516 121.976 174.516 121.51C174.516 121.044 174.217 120.754 173.725 120.754H172.644V119.383C172.644 118.776 172.266 118.372 171.695 118.372C171.115 118.372 170.737 118.776 170.737 119.383V120.754H170.069C169.577 120.754 169.278 121.035 169.278 121.51C169.278 121.976 169.577 122.257 170.069 122.257H170.737V127.785ZM179.63 130.176C182.276 130.176 184.016 128.356 184.016 125.377C184.016 122.406 182.267 120.587 179.63 120.587C176.994 120.587 175.245 122.406 175.245 125.377C175.245 128.356 176.985 130.176 179.63 130.176ZM179.63 128.611C178.145 128.611 177.178 127.434 177.178 125.377C177.178 123.329 178.145 122.151 179.63 122.151C181.116 122.151 182.083 123.329 182.083 125.377C182.083 127.434 181.124 128.611 179.63 128.611ZM189.534 127.785C189.534 129.314 190.325 130.079 191.881 130.079H191.977C192.909 130.079 193.348 129.789 193.348 129.218C193.348 128.77 193.076 128.55 192.531 128.497L192.381 128.488C191.696 128.436 191.441 128.102 191.441 127.363V122.257H192.522C193.014 122.257 193.313 121.976 193.313 121.51C193.313 121.044 193.014 120.754 192.522 120.754H191.441V119.383C191.441 118.776 191.063 118.372 190.492 118.372C189.912 118.372 189.534 118.776 189.534 119.383V120.754H188.866C188.374 120.754 188.075 121.035 188.075 121.51C188.075 121.976 188.374 122.257 188.866 122.257H189.534V127.785ZM195.703 130.167C196.257 130.167 196.652 129.789 196.652 129.165V124.656C196.652 123.197 197.513 122.23 198.92 122.23C200.256 122.23 200.941 123.048 200.941 124.41V129.165C200.941 129.789 201.337 130.167 201.89 130.167C202.453 130.167 202.848 129.789 202.848 129.165V124.041C202.848 121.949 201.635 120.596 199.605 120.596C198.199 120.596 197.188 121.22 196.678 122.301H196.634V118.135C196.634 117.537 196.283 117.15 195.694 117.15C195.114 117.15 194.754 117.537 194.754 118.135V129.165C194.754 129.789 195.149 130.167 195.703 130.167ZM208.613 130.176C210.336 130.176 211.68 129.481 212.287 128.269C212.366 128.084 212.419 127.908 212.419 127.759C212.419 127.284 212.085 126.985 211.628 126.985C211.355 126.985 211.162 127.082 210.96 127.319C210.257 128.277 209.606 128.638 208.569 128.638C207.057 128.638 206.108 127.583 206.108 125.896V125.852H211.698C212.287 125.852 212.638 125.5 212.638 124.885C212.638 122.362 210.942 120.587 208.481 120.587C205.862 120.587 204.192 122.485 204.192 125.421C204.192 128.409 205.827 130.176 208.613 130.176ZM206.117 124.524C206.214 123.083 207.163 122.116 208.472 122.116C209.791 122.116 210.696 123.074 210.74 124.524H206.117ZM130.452 151.167C131.023 151.167 131.401 150.807 131.401 150.174V143.257H132.623C133.071 143.257 133.379 142.993 133.379 142.519C133.379 142.062 133.071 141.771 132.623 141.771H131.375V140.937C131.375 140.093 131.709 139.715 132.509 139.706C132.702 139.706 132.86 139.68 132.992 139.645C133.3 139.557 133.449 139.372 133.449 139.064C133.449 138.555 132.966 138.229 131.955 138.229C130.364 138.238 129.494 139.073 129.494 140.866V141.771H128.835C128.387 141.771 128.079 142.062 128.079 142.519C128.079 142.993 128.387 143.257 128.835 143.257H129.494V150.174C129.494 150.807 129.872 151.167 130.452 151.167ZM135.681 151.167C136.234 151.167 136.63 150.789 136.63 150.165V139.152C136.63 138.528 136.234 138.15 135.681 138.15C135.127 138.15 134.732 138.528 134.732 139.152V150.165C134.732 150.789 135.127 151.167 135.681 151.167ZM142.474 151.176C145.119 151.176 146.86 149.356 146.86 146.377C146.86 143.406 145.111 141.587 142.474 141.587C139.837 141.587 138.088 143.406 138.088 146.377C138.088 149.356 139.828 151.176 142.474 151.176ZM142.474 149.611C140.988 149.611 140.022 148.434 140.022 146.377C140.022 144.329 140.988 143.151 142.474 143.151C143.959 143.151 144.926 144.329 144.926 146.377C144.926 148.434 143.968 149.611 142.474 149.611ZM150.989 151.167C151.631 151.167 152.027 150.859 152.202 150.209L153.916 144.074H153.96L155.692 150.209C155.867 150.886 156.237 151.167 156.896 151.167C157.52 151.167 157.906 150.859 158.091 150.209L160.2 142.94C160.262 142.721 160.288 142.562 160.288 142.404C160.288 141.912 159.928 141.587 159.374 141.587C158.9 141.587 158.627 141.842 158.504 142.378L156.843 149.031H156.799L155.032 142.448C154.901 141.886 154.531 141.587 153.96 141.587C153.38 141.587 153.002 141.886 152.87 142.448L151.113 149.031H151.077L149.416 142.378C149.293 141.842 149.012 141.587 148.537 141.587C147.984 141.587 147.614 141.912 147.614 142.404C147.614 142.562 147.641 142.729 147.711 142.94L149.821 150.209C150.014 150.877 150.365 151.167 150.989 151.167ZM163.109 146.931C163.654 146.931 163.952 146.588 163.97 146.034L164.076 139.214C164.076 139.179 164.076 139.144 164.076 139.117C164.076 138.528 163.68 138.15 163.118 138.15C162.546 138.15 162.151 138.528 162.151 139.117C162.151 139.144 162.151 139.179 162.151 139.214L162.256 146.034C162.274 146.588 162.573 146.931 163.109 146.931ZM163.109 151.132C163.768 151.132 164.269 150.64 164.269 149.998C164.269 149.356 163.768 148.864 163.109 148.864C162.467 148.864 161.957 149.356 161.957 149.998C161.957 150.64 162.467 151.132 163.109 151.132Z" fill="white"/>
<path d="M110.955 131.076C111.55 131.653 112.499 131.639 113.076 131.045C113.653 130.45 113.639 129.501 113.045 128.924L110.955 131.076ZM77.9776 95.5002C77.1493 95.5125 76.4878 96.1941 76.5002 97.0224L76.7016 110.521C76.714 111.349 77.3955 112.011 78.2239 111.998C79.0522 111.986 79.7137 111.304 79.7013 110.476L79.5222 98.4774L91.5209 98.2984C92.3492 98.286 93.0107 97.6045 92.9983 96.7761C92.986 95.9478 92.3044 95.2863 91.4761 95.2987L77.9776 95.5002ZM113.045 128.924L79.0447 95.9236L76.9553 98.0764L110.955 131.076L113.045 128.924Z" fill="white"/>
</g>
<defs>
<clipPath id="clip0_366_19304">
<rect width="390" height="844" fill="white"/>
</clipPath>
</defs>
</svg>
