<svg width="390" height="844" viewBox="0 0 390 844" fill="none" xmlns="http://www.w3.org/2000/svg">
<g clip-path="url(#clip0_367_19540)">
<rect width="390" height="844" fill="white"/>
<path d="M278.742 -135.703C336.548 -153.645 368.244 -213.299 390 -168.921L390 532.469C348.464 577.789 299.953 522.11 246.107 518.416C178.798 513.799 170.287 570.737 116.341 560.843C62.3959 550.948 62.1518 510.71 34.644 510.71C11.715 510.71 -8.09698e-06 532.469 -8.09698e-06 532.469L5.9546e-05 -169.545C23.7559 -122.051 111.092 -145.787 135.838 -145.787C167.049 -145.787 206.485 -113.275 278.742 -135.703Z" fill="black"/>
<circle cx="269" cy="377" r="29.5" stroke="white" stroke-linecap="round" stroke-dasharray="5 5"/>
<path d="M264.492 382.154C265.144 382.154 265.583 381.714 265.583 381.048V372.508C265.583 371.746 265.114 371.27 264.331 371.27C263.876 371.27 263.525 371.336 263.012 371.688L260.917 373.138C260.573 373.379 260.441 373.628 260.441 373.965C260.441 374.434 260.771 374.756 261.218 374.756C261.445 374.756 261.599 374.705 261.804 374.559L263.349 373.482H263.393V381.048C263.393 381.714 263.84 382.154 264.492 382.154ZM269.033 382.154C269.663 382.154 270.102 381.773 270.102 381.041V377.518C270.102 376.485 270.695 375.774 271.706 375.774C272.68 375.774 273.178 376.39 273.178 377.4V381.041C273.178 381.773 273.625 382.154 274.248 382.154C274.877 382.154 275.317 381.773 275.317 381.041V376.946C275.317 375.13 274.321 374.002 272.578 374.002C271.384 374.002 270.527 374.559 270.109 375.547H270.065V372.369C270.065 371.68 269.677 371.27 269.018 371.27C268.359 371.27 267.963 371.68 267.963 372.369V381.041C267.963 381.773 268.41 382.154 269.033 382.154Z" fill="white"/>
<circle cx="92.8333" cy="760.167" r="45.8333" fill="black"/>
<circle cx="156.083" cy="713.417" r="22.9167" fill="black"/>
<circle cx="111.625" cy="696.458" r="11.4583" fill="black"/>
<path d="M93.5 772.305C94.6484 772.305 95.3984 771.438 95.3984 770.289V762.062H103.156C104.305 762.062 105.172 761.312 105.172 760.164C105.172 759.016 104.305 758.266 103.156 758.266H95.3984V750.016C95.3984 748.867 94.6484 748 93.5 748C92.3516 748 91.6016 748.867 91.6016 750.016V758.266H83.8203C82.6719 758.266 81.8047 759.016 81.8047 760.164C81.8047 761.312 82.6719 762.062 83.8203 762.062H91.6016V770.289C91.6016 771.438 92.3516 772.305 93.5 772.305Z" fill="white"/>
<circle cx="194.5" cy="230.5" r="10.5" fill="white"/>
<path d="M187 760.223C188.113 760.223 188.77 759.543 188.77 758.383V754.668H191.934C195.496 754.668 197.969 752.348 197.969 748.879C197.969 745.398 195.578 743.09 192.109 743.09H187C185.887 743.09 185.23 743.77 185.23 744.93V758.383C185.23 759.543 185.887 760.223 187 760.223ZM188.77 751.902V745.891H191.172C193.199 745.891 194.371 746.969 194.371 748.891C194.371 750.824 193.188 751.902 191.16 751.902H188.77ZM201.484 760.246C202.527 760.246 203.195 759.602 203.195 758.465V752.887C203.195 751.398 203.746 750.52 205.305 750.496C205.973 750.484 206.465 750.332 206.793 750.051C207.121 749.77 207.285 749.359 207.285 748.82C207.285 748.234 207.121 747.812 206.793 747.555C206.547 747.344 206.184 747.238 205.727 747.238C204.473 747.238 203.441 748.164 203.113 749.723H203.043V748.902C203.043 747.812 202.387 747.18 201.426 747.18C200.441 747.18 199.773 747.812 199.773 748.902V758.465C199.773 759.602 200.453 760.246 201.484 760.246ZM213.871 760.27C216.297 760.27 218.242 759.355 219.074 757.809C219.227 757.527 219.309 757.246 219.309 756.977C219.309 756.191 218.711 755.723 217.973 755.723C217.527 755.723 217.223 755.852 216.859 756.227C215.934 757.316 215.113 757.738 213.859 757.738C212.125 757.738 211 756.52 211 754.656V754.504H218.172C219.121 754.504 219.66 753.965 219.66 753.016C219.66 749.605 217.27 747.168 213.707 747.168C209.992 747.168 207.637 749.734 207.637 753.777C207.637 757.844 209.945 760.27 213.871 760.27ZM211.035 752.406C211.152 750.801 212.242 749.699 213.742 749.699C215.242 749.699 216.297 750.766 216.367 752.406H211.035ZM226.551 760.27C229.867 760.27 232.105 758.652 232.105 756.156C232.105 754.281 231.004 753.297 228.332 752.734L226.258 752.289C225.004 752.02 224.512 751.586 224.512 750.93C224.512 750.121 225.32 749.57 226.48 749.57C227.711 749.57 228.391 750.156 228.988 750.918C229.293 751.281 229.785 751.445 230.23 751.445C231.109 751.445 231.543 750.965 231.543 750.273C231.543 750.109 231.508 749.945 231.461 749.77C231.051 748.352 229.141 747.168 226.539 747.168C223.281 747.168 221.207 748.715 221.207 751.117C221.207 752.98 222.449 754.234 224.91 754.762L227.02 755.207C228.25 755.477 228.684 755.84 228.684 756.52C228.684 757.352 227.875 757.867 226.633 757.867C225.332 757.867 224.559 757.469 223.891 756.59C223.422 756.062 222.953 755.816 222.402 755.816C221.605 755.816 221.02 756.344 221.02 757.129C221.02 757.316 221.066 757.539 221.148 757.762C221.746 759.238 223.668 760.27 226.551 760.27ZM239.582 760.27C242.008 760.27 243.953 759.355 244.785 757.809C244.938 757.527 245.02 757.246 245.02 756.977C245.02 756.191 244.422 755.723 243.684 755.723C243.238 755.723 242.934 755.852 242.57 756.227C241.645 757.316 240.824 757.738 239.57 757.738C237.836 757.738 236.711 756.52 236.711 754.656V754.504H243.883C244.832 754.504 245.371 753.965 245.371 753.016C245.371 749.605 242.98 747.168 239.418 747.168C235.703 747.168 233.348 749.734 233.348 753.777C233.348 757.844 235.656 760.27 239.582 760.27ZM236.746 752.406C236.863 750.801 237.953 749.699 239.453 749.699C240.953 749.699 242.008 750.766 242.078 752.406H236.746ZM248.852 760.246C249.859 760.246 250.562 759.637 250.562 758.465V752.793C250.562 751.164 251.535 750.039 253.07 750.039C254.605 750.039 255.379 750.977 255.379 752.617V758.465C255.379 759.637 256.082 760.246 257.09 760.246C258.086 760.246 258.801 759.637 258.801 758.465V751.902C258.801 748.961 257.23 747.203 254.441 747.203C252.508 747.203 251.242 748.059 250.574 749.617H250.504V748.914C250.504 747.836 249.824 747.18 248.793 747.18C247.762 747.18 247.141 747.836 247.141 748.902V758.465C247.141 759.637 247.855 760.246 248.852 760.246ZM261.883 756.789C261.883 759.004 263.043 760.141 265.328 760.141H265.445C266.887 760.141 267.871 759.625 267.871 758.617C267.871 757.82 267.414 757.469 266.57 757.375L266.348 757.352C265.609 757.293 265.305 756.918 265.305 756.027V750.016H266.512C267.32 750.016 267.824 749.512 267.824 748.727C267.824 747.941 267.32 747.438 266.512 747.438H265.305V746.043C265.305 744.941 264.66 744.262 263.594 744.262C262.527 744.262 261.883 744.941 261.883 746.043V747.438H261.227C260.418 747.438 259.902 747.93 259.902 748.727C259.902 749.523 260.418 750.016 261.227 750.016H261.883V756.789ZM273.098 760.199C274.668 760.199 276.238 759.414 276.941 758.078H277.012V758.723C277.082 759.73 277.727 760.246 278.652 760.246C279.625 760.246 280.316 759.66 280.316 758.523V751.363C280.316 748.832 278.219 747.168 274.996 747.168C272.395 747.168 270.379 748.094 269.793 749.594C269.676 749.852 269.617 750.098 269.617 750.367C269.617 751.141 270.215 751.68 271.047 751.68C271.598 751.68 272.031 751.469 272.406 751.047C273.168 750.062 273.801 749.723 274.844 749.723C276.133 749.723 276.953 750.402 276.953 751.574V752.406L273.789 752.594C270.648 752.781 268.891 754.105 268.891 756.391C268.891 758.652 270.707 760.199 273.098 760.199ZM274.223 757.727C273.074 757.727 272.301 757.141 272.301 756.203C272.301 755.312 273.027 754.738 274.305 754.645L276.953 754.48V755.395C276.953 756.754 275.723 757.727 274.223 757.727ZM283.691 760H291.402C292.27 760 292.785 759.52 292.785 758.688C292.785 757.855 292.27 757.375 291.402 757.375H286.574V757.316L291.918 750.32C292.316 749.816 292.469 749.43 292.469 748.938C292.469 748.012 291.848 747.438 290.84 747.438H283.527C282.648 747.438 282.145 747.918 282.145 748.738C282.145 749.57 282.66 750.051 283.527 750.051H288.484V750.121L282.695 757.457C282.344 757.879 282.215 758.195 282.215 758.641C282.215 759.461 282.789 760 283.691 760ZM296.371 745.879C297.402 745.879 298.199 745.094 298.199 744.109C298.199 743.113 297.402 742.34 296.371 742.34C295.34 742.34 294.543 743.113 294.543 744.109C294.543 745.094 295.34 745.879 296.371 745.879ZM296.371 760.246C297.426 760.246 298.082 759.578 298.082 758.465V748.973C298.082 747.859 297.426 747.18 296.371 747.18C295.305 747.18 294.66 747.859 294.66 748.973V758.465C294.66 759.578 295.305 760.246 296.371 760.246ZM306.133 760.27C309.93 760.27 312.355 757.844 312.355 753.707C312.355 749.629 309.895 747.168 306.133 747.168C302.371 747.168 299.91 749.641 299.91 753.707C299.91 757.832 302.336 760.27 306.133 760.27ZM306.133 757.656C304.445 757.656 303.379 756.238 303.379 753.719C303.379 751.223 304.469 749.781 306.133 749.781C307.797 749.781 308.875 751.223 308.875 753.719C308.875 756.238 307.809 757.656 306.133 757.656ZM315.836 760.246C316.844 760.246 317.547 759.637 317.547 758.465V752.793C317.547 751.164 318.52 750.039 320.055 750.039C321.59 750.039 322.363 750.977 322.363 752.617V758.465C322.363 759.637 323.066 760.246 324.074 760.246C325.07 760.246 325.785 759.637 325.785 758.465V751.902C325.785 748.961 324.215 747.203 321.426 747.203C319.492 747.203 318.227 748.059 317.559 749.617H317.488V748.914C317.488 747.836 316.809 747.18 315.777 747.18C314.746 747.18 314.125 747.836 314.125 748.902V758.465C314.125 759.637 314.84 760.246 315.836 760.246ZM333.73 760.27C336.156 760.27 338.102 759.355 338.934 757.809C339.086 757.527 339.168 757.246 339.168 756.977C339.168 756.191 338.57 755.723 337.832 755.723C337.387 755.723 337.082 755.852 336.719 756.227C335.793 757.316 334.973 757.738 333.719 757.738C331.984 757.738 330.859 756.52 330.859 754.656V754.504H338.031C338.98 754.504 339.52 753.965 339.52 753.016C339.52 749.605 337.129 747.168 333.566 747.168C329.852 747.168 327.496 749.734 327.496 753.777C327.496 757.844 329.805 760.27 333.73 760.27ZM330.895 752.406C331.012 750.801 332.102 749.699 333.602 749.699C335.102 749.699 336.156 750.766 336.227 752.406H330.895Z" fill="black"/>
<path d="M196.461 796.625C203.004 796.625 207.438 793.227 207.438 788.109C207.438 784.223 204.723 781.762 200.523 781.371V781.254C203.844 780.57 206.402 778.227 206.402 774.652C206.402 770.141 202.379 767.191 196.422 767.191C191.441 767.191 188.238 769.496 186.988 772.25C186.695 772.914 186.559 773.48 186.559 774.145C186.559 775.57 187.398 776.527 189.039 776.527C190.367 776.527 191.051 776.039 191.695 774.711C192.613 772.719 194.059 771.723 196.441 771.723C199.293 771.723 200.816 773.227 200.816 775.492C200.816 777.797 198.902 779.398 195.953 779.398H194.801C193.375 779.398 192.555 780.258 192.555 781.488C192.555 782.758 193.375 783.598 194.801 783.598H196.031C199.449 783.598 201.461 785.121 201.441 787.855C201.441 790.199 199.449 791.879 196.559 791.879C193.629 791.879 192.105 790.707 191.109 788.734C190.523 787.66 189.781 787.191 188.609 787.191C186.988 787.191 186.012 788.148 186.012 789.672C186.012 790.258 186.148 790.883 186.461 791.527C187.789 794.301 191.09 796.625 196.461 796.625ZM221.969 796.41C223.648 796.41 224.82 795.395 224.82 793.441V784.047C224.82 781.293 226.402 779.398 229.098 779.398C231.695 779.398 233.023 781.039 233.023 783.734V793.441C233.023 795.395 234.215 796.41 235.875 796.41C237.555 796.41 238.727 795.395 238.727 793.441V782.523C238.727 777.68 236.07 774.672 231.422 774.672C228.238 774.672 225.953 776.156 224.84 778.793H224.723V770.316C224.723 768.48 223.688 767.387 221.93 767.387C220.172 767.387 219.117 768.48 219.117 770.316V793.441C219.117 795.395 220.309 796.41 221.969 796.41Z" fill="black"/>
<path d="M34.5125 99.5708C35.3245 100.383 36.4681 100.3 37.2801 99.4879L43.0972 93.6709L48.5828 99.1565C49.3948 99.9685 50.5384 100.051 51.3504 99.2393C52.1625 98.4273 52.0796 97.2837 51.2676 96.4717L45.782 90.9861L51.6156 85.1524C52.4277 84.3404 52.5105 83.1968 51.6985 82.3848C50.8864 81.5727 49.7429 81.6556 48.9308 82.4676L43.0972 88.3013L37.595 82.7991C36.7829 81.987 35.6394 81.9042 34.8273 82.7162C34.0153 83.5283 34.0981 84.6718 34.9102 85.4839L40.4124 90.9861L34.5953 96.8031C33.7833 97.6152 33.7004 98.7587 34.5125 99.5708Z" fill="white"/>
<path d="M82.182 293H88.2992C88.8441 293 89.2132 292.666 89.2132 292.147C89.2132 291.629 88.8441 291.295 88.2992 291.295H83.1664V281.196C83.1664 280.563 82.7884 280.177 82.182 280.177C81.5668 280.177 81.1976 280.563 81.1976 281.196V291.98C81.1976 292.613 81.5668 293 82.182 293ZM94.2309 293.176C95.9536 293.176 97.2983 292.481 97.9047 291.269C97.9838 291.084 98.0366 290.908 98.0366 290.759C98.0366 290.284 97.7026 289.985 97.2455 289.985C96.9731 289.985 96.7797 290.082 96.5776 290.319C95.8745 291.277 95.2241 291.638 94.187 291.638C92.6752 291.638 91.726 290.583 91.726 288.896V288.852H97.3159C97.9047 288.852 98.2563 288.5 98.2563 287.885C98.2563 285.362 96.56 283.587 94.0991 283.587C91.4799 283.587 89.81 285.485 89.81 288.421C89.81 291.409 91.4448 293.176 94.2309 293.176ZM91.7348 287.524C91.8315 286.083 92.7807 285.116 94.0903 285.116C95.4086 285.116 96.3139 286.074 96.3578 287.524H91.7348ZM107.105 296.48C109.856 296.507 111.535 295.03 111.535 292.745V284.562C111.535 283.947 111.13 283.587 110.586 283.587C110.041 283.587 109.628 283.947 109.628 284.562V285.31H109.592C109.03 284.264 108.01 283.604 106.701 283.604C104.31 283.604 102.816 285.406 102.816 288.298C102.816 291.154 104.328 292.974 106.657 292.974C107.975 292.974 109.065 292.314 109.584 291.312H109.628V292.78C109.628 294.072 108.687 294.951 107.14 294.934C106.235 294.916 105.585 294.573 104.829 293.782C104.574 293.527 104.389 293.431 104.099 293.431C103.616 293.431 103.291 293.747 103.291 294.187C103.291 294.406 103.343 294.6 103.466 294.811C104.099 295.812 105.426 296.463 107.105 296.48ZM107.167 291.427C105.708 291.427 104.758 290.24 104.758 288.307C104.758 286.382 105.708 285.169 107.167 285.169C108.652 285.169 109.636 286.417 109.636 288.315C109.636 290.214 108.652 291.427 107.167 291.427ZM117.299 293.176C119.945 293.176 121.685 291.356 121.685 288.377C121.685 285.406 119.936 283.587 117.299 283.587C114.663 283.587 112.914 285.406 112.914 288.377C112.914 291.356 114.654 293.176 117.299 293.176ZM117.299 291.611C115.814 291.611 114.847 290.434 114.847 288.377C114.847 286.329 115.814 285.151 117.299 285.151C118.785 285.151 119.752 286.329 119.752 288.377C119.752 290.434 118.794 291.611 117.299 291.611ZM127.028 293.176C128.742 293.176 130.245 292.271 130.728 290.996C130.799 290.812 130.834 290.653 130.834 290.504C130.834 290.029 130.491 289.713 130.025 289.713C129.612 289.713 129.41 289.871 129.146 290.328C128.698 291.128 128.074 291.585 127.046 291.585C125.578 291.585 124.594 290.39 124.594 288.377C124.594 286.408 125.56 285.169 127.046 285.169C128.021 285.169 128.672 285.591 129.146 286.47C129.375 286.892 129.603 287.05 130.008 287.05C130.473 287.05 130.816 286.751 130.816 286.268C130.816 286.136 130.781 285.978 130.728 285.828C130.324 284.536 128.795 283.587 127.011 283.587C124.374 283.587 122.66 285.468 122.66 288.395C122.66 291.339 124.383 293.176 127.028 293.176ZM136.247 293.176C137.961 293.176 139.464 292.271 139.947 290.996C140.017 290.812 140.053 290.653 140.053 290.504C140.053 290.029 139.71 289.713 139.244 289.713C138.831 289.713 138.629 289.871 138.365 290.328C137.917 291.128 137.293 291.585 136.264 291.585C134.797 291.585 133.812 290.39 133.812 288.377C133.812 286.408 134.779 285.169 136.264 285.169C137.24 285.169 137.89 285.591 138.365 286.47C138.594 286.892 138.822 287.05 139.226 287.05C139.692 287.05 140.035 286.751 140.035 286.268C140.035 286.136 140 285.978 139.947 285.828C139.543 284.536 138.014 283.587 136.229 283.587C133.593 283.587 131.879 285.468 131.879 288.395C131.879 291.339 133.601 293.176 136.247 293.176ZM145.518 293.176C147.241 293.176 148.586 292.481 149.192 291.269C149.271 291.084 149.324 290.908 149.324 290.759C149.324 290.284 148.99 289.985 148.533 289.985C148.261 289.985 148.067 290.082 147.865 290.319C147.162 291.277 146.512 291.638 145.475 291.638C143.963 291.638 143.014 290.583 143.014 288.896V288.852H148.603C149.192 288.852 149.544 288.5 149.544 287.885C149.544 285.362 147.848 283.587 145.387 283.587C142.768 283.587 141.098 285.485 141.098 288.421C141.098 291.409 142.732 293.176 145.518 293.176ZM143.022 287.524C143.119 286.083 144.068 285.116 145.378 285.116C146.696 285.116 147.601 286.074 147.645 287.524H143.022ZM60.0275 314.167C60.59 314.167 60.9767 313.78 60.9767 313.165V308.445C60.9767 307.294 61.504 306.424 62.8048 306.415C63.2003 306.415 63.4816 306.336 63.6749 306.169C63.8595 306.02 63.9562 305.8 63.9562 305.501C63.9562 305.202 63.8771 304.974 63.7013 304.833C63.5431 304.684 63.2882 304.604 62.9542 304.604C62.0314 304.604 61.1788 305.299 60.9239 306.336H60.88V305.545C60.88 304.965 60.5109 304.587 59.9835 304.587C59.4474 304.587 59.0782 304.965 59.0782 305.545V313.165C59.0782 313.78 59.4562 314.167 60.0275 314.167ZM65.9152 303.356C66.5305 303.356 67.0227 302.864 67.0227 302.267C67.0227 301.66 66.5305 301.186 65.9152 301.186C65.3088 301.186 64.8166 301.66 64.8166 302.267C64.8166 302.864 65.3088 303.356 65.9152 303.356ZM65.9152 314.167C66.4865 314.167 66.8645 313.771 66.8645 313.165V305.598C66.8645 304.982 66.4865 304.587 65.9152 304.587C65.3439 304.587 64.966 304.982 64.966 305.598V313.165C64.966 313.771 65.3439 314.167 65.9152 314.167ZM72.7346 314.176C74.4573 314.176 75.802 313.481 76.4085 312.269C76.4876 312.084 76.5403 311.908 76.5403 311.759C76.5403 311.284 76.2063 310.985 75.7493 310.985C75.4768 310.985 75.2835 311.082 75.0813 311.319C74.3782 312.277 73.7278 312.638 72.6907 312.638C71.179 312.638 70.2298 311.583 70.2298 309.896V309.852H75.8196C76.4085 309.852 76.76 309.5 76.76 308.885C76.76 306.362 75.0637 304.587 72.6028 304.587C69.9837 304.587 68.3137 306.485 68.3137 309.421C68.3137 312.409 69.9485 314.176 72.7346 314.176ZM70.2386 308.524C70.3352 307.083 71.2845 306.116 72.594 306.116C73.9124 306.116 74.8177 307.074 74.8616 308.524H70.2386ZM79.1058 314.167C79.6771 314.167 80.055 313.771 80.055 313.165V308.287C80.055 307.101 80.8548 306.222 81.9798 306.222C83.0521 306.222 83.7289 306.898 83.7289 307.962V313.165C83.7289 313.771 84.0892 314.167 84.6605 314.167C85.2318 314.167 85.5921 313.771 85.5921 313.165V308.226C85.5921 307.057 86.3744 306.222 87.4994 306.222C88.6244 306.222 89.266 306.907 89.266 308.103V313.165C89.266 313.771 89.6439 314.167 90.2152 314.167C90.7865 314.167 91.1732 313.771 91.1732 313.165V307.646C91.1732 305.809 89.9779 304.596 88.1498 304.596C86.8314 304.596 85.7416 305.281 85.267 306.406H85.223C84.8539 305.255 83.9222 304.596 82.639 304.596C81.391 304.596 80.4242 305.281 80.0111 306.31H79.9671V305.554C79.9671 304.947 79.5892 304.587 79.0619 304.587C78.5257 304.587 78.1566 304.956 78.1566 305.554V313.165C78.1566 313.771 78.5345 314.167 79.1058 314.167ZM93.8793 317.278C94.433 317.278 94.8286 316.892 94.8286 316.268V312.479H94.8725C95.3998 313.508 96.4545 314.158 97.7817 314.158C100.102 314.158 101.64 312.304 101.64 309.377C101.64 306.45 100.093 304.604 97.7465 304.604C96.4106 304.604 95.3471 305.281 94.8022 306.345H94.767V305.562C94.767 304.956 94.3803 304.587 93.8442 304.587C93.308 304.587 92.9301 304.956 92.9301 305.562V316.268C92.9301 316.892 93.3168 317.278 93.8793 317.278ZM97.2455 312.55C95.7866 312.55 94.8198 311.302 94.8198 309.377C94.8198 307.47 95.7953 306.204 97.2455 306.204C98.7485 306.204 99.6889 307.443 99.6889 309.377C99.6889 311.319 98.7485 312.55 97.2455 312.55ZM104.039 303.356C104.654 303.356 105.146 302.864 105.146 302.267C105.146 301.66 104.654 301.186 104.039 301.186C103.432 301.186 102.94 301.66 102.94 302.267C102.94 302.864 103.432 303.356 104.039 303.356ZM104.039 314.167C104.61 314.167 104.988 313.771 104.988 313.165V305.598C104.988 304.982 104.61 304.587 104.039 304.587C103.467 304.587 103.089 304.982 103.089 305.598V313.165C103.089 313.771 103.467 314.167 104.039 314.167ZM107.799 314.167C108.362 314.167 108.749 313.78 108.749 313.165V308.445C108.749 307.294 109.276 306.424 110.577 306.415C110.972 306.415 111.254 306.336 111.447 306.169C111.631 306.02 111.728 305.8 111.728 305.501C111.728 305.202 111.649 304.974 111.473 304.833C111.315 304.684 111.06 304.604 110.726 304.604C109.803 304.604 108.951 305.299 108.696 306.336H108.652V305.545C108.652 304.965 108.283 304.587 107.755 304.587C107.219 304.587 106.85 304.965 106.85 305.545V313.165C106.85 313.78 107.228 314.167 107.799 314.167ZM115.19 314.158C116.394 314.158 117.572 313.508 118.108 312.479H118.152V313.262C118.17 313.824 118.53 314.167 119.057 314.167C119.593 314.167 119.971 313.807 119.971 313.209V307.628C119.971 305.773 118.539 304.587 116.298 304.587C114.636 304.587 113.239 305.255 112.756 306.301C112.641 306.512 112.589 306.723 112.589 306.916C112.589 307.391 112.931 307.707 113.406 307.707C113.74 307.707 113.986 307.584 114.179 307.303C114.707 306.459 115.313 306.134 116.227 306.134C117.387 306.134 118.082 306.749 118.082 307.777V308.489L115.542 308.639C113.353 308.762 112.105 309.755 112.105 311.372C112.105 313.033 113.38 314.158 115.19 314.158ZM115.709 312.655C114.698 312.655 114.021 312.128 114.021 311.319C114.021 310.528 114.663 310.027 115.797 309.948L118.082 309.808V310.537C118.082 311.741 117.036 312.655 115.709 312.655ZM122.686 314.167C123.24 314.167 123.636 313.789 123.636 313.165V308.612C123.636 307.18 124.497 306.23 125.833 306.23C127.151 306.23 127.802 306.995 127.802 308.384V313.165C127.802 313.789 128.197 314.167 128.751 314.167C129.313 314.167 129.709 313.789 129.709 313.165V308.015C129.709 305.896 128.54 304.596 126.501 304.596C125.077 304.596 124.11 305.229 123.609 306.283H123.565V305.554C123.565 304.965 123.187 304.587 122.642 304.587C122.089 304.587 121.737 304.965 121.737 305.545V313.165C121.737 313.789 122.124 314.167 122.686 314.167ZM132.415 314.167C132.969 314.167 133.364 313.789 133.364 313.165V308.612C133.364 307.18 134.225 306.23 135.561 306.23C136.88 306.23 137.53 306.995 137.53 308.384V313.165C137.53 313.789 137.926 314.167 138.479 314.167C139.042 314.167 139.437 313.789 139.437 313.165V308.015C139.437 305.896 138.268 304.596 136.229 304.596C134.806 304.596 133.839 305.229 133.338 306.283H133.294V305.554C133.294 304.965 132.916 304.587 132.371 304.587C131.817 304.587 131.466 304.965 131.466 305.545V313.165C131.466 313.789 131.852 314.167 132.415 314.167ZM145.167 314.176C147.812 314.176 149.553 312.356 149.553 309.377C149.553 306.406 147.804 304.587 145.167 304.587C142.53 304.587 140.781 306.406 140.781 309.377C140.781 312.356 142.521 314.176 145.167 314.176ZM145.167 312.611C143.682 312.611 142.715 311.434 142.715 309.377C142.715 307.329 143.682 306.151 145.167 306.151C146.652 306.151 147.619 307.329 147.619 309.377C147.619 311.434 146.661 312.611 145.167 312.611ZM67.26 335.167C67.8137 335.167 68.2092 334.789 68.2092 334.165V323.152C68.2092 322.528 67.8137 322.15 67.26 322.15C66.7063 322.15 66.3107 322.528 66.3107 323.152V334.165C66.3107 334.789 66.7063 335.167 67.26 335.167ZM74.053 335.176C76.6985 335.176 78.4388 333.356 78.4388 330.377C78.4388 327.406 76.6897 325.587 74.053 325.587C71.4163 325.587 69.6673 327.406 69.6673 330.377C69.6673 333.356 71.4075 335.176 74.053 335.176ZM74.053 333.611C72.5677 333.611 71.6009 332.434 71.6009 330.377C71.6009 328.329 72.5677 327.151 74.053 327.151C75.5384 327.151 76.5052 328.329 76.5052 330.377C76.5052 332.434 75.5472 333.611 74.053 333.611ZM86.8129 335.176C89.0981 335.176 90.6362 334.033 90.6362 332.319C90.6362 330.948 89.8891 330.254 87.9467 329.806L86.5141 329.472C85.5385 329.243 85.0903 328.839 85.0903 328.259C85.0903 327.538 85.7934 327.037 86.8129 327.037C87.7446 327.037 88.3071 327.406 88.7202 328.109C88.9047 328.408 89.1772 328.514 89.4848 328.514C89.9594 328.514 90.2231 328.232 90.2231 327.811C90.2231 327.723 90.2055 327.635 90.1879 327.529C89.9243 326.439 88.5532 325.587 86.8832 325.587C84.686 325.587 83.2358 326.694 83.2358 328.364C83.2358 329.683 84.1147 330.562 85.9077 330.983L87.3666 331.326C88.3598 331.563 88.7202 331.889 88.7202 332.495C88.7202 333.26 87.9907 333.726 86.9096 333.726C85.811 333.726 85.2573 333.392 84.7827 332.645C84.5454 332.293 84.2729 332.144 83.9565 332.144C83.4819 332.144 83.1391 332.425 83.1391 332.899C83.1391 333.022 83.1567 333.154 83.2182 333.295C83.6577 334.429 84.9936 335.176 86.8129 335.176ZM95.979 335.176C97.6929 335.176 99.1958 334.271 99.6792 332.996C99.7495 332.812 99.7847 332.653 99.7847 332.504C99.7847 332.029 99.4419 331.713 98.9761 331.713C98.563 331.713 98.3609 331.871 98.0972 332.328C97.6489 333.128 97.0249 333.585 95.9966 333.585C94.5288 333.585 93.5445 332.39 93.5445 330.377C93.5445 328.408 94.5113 327.169 95.9966 327.169C96.9722 327.169 97.6226 327.591 98.0972 328.47C98.3257 328.892 98.5542 329.05 98.9585 329.05C99.4243 329.05 99.7671 328.751 99.7671 328.268C99.7671 328.136 99.732 327.978 99.6792 327.828C99.2749 326.536 97.7456 325.587 95.9614 325.587C93.3247 325.587 91.6109 327.468 91.6109 330.395C91.6109 333.339 93.3335 335.176 95.979 335.176ZM102.262 335.167C102.816 335.167 103.212 334.789 103.212 334.165V329.656C103.212 328.197 104.073 327.23 105.479 327.23C106.815 327.23 107.501 328.048 107.501 329.41V334.165C107.501 334.789 107.896 335.167 108.45 335.167C109.012 335.167 109.408 334.789 109.408 334.165V329.041C109.408 326.949 108.195 325.596 106.165 325.596C104.758 325.596 103.748 326.22 103.238 327.301H103.194V323.135C103.194 322.537 102.842 322.15 102.254 322.15C101.673 322.15 101.313 322.537 101.313 323.135V334.165C101.313 334.789 101.709 335.167 102.262 335.167ZM115.173 335.176C116.895 335.176 118.24 334.481 118.846 333.269C118.925 333.084 118.978 332.908 118.978 332.759C118.978 332.284 118.644 331.985 118.187 331.985C117.915 331.985 117.721 332.082 117.519 332.319C116.816 333.277 116.166 333.638 115.129 333.638C113.617 333.638 112.668 332.583 112.668 330.896V330.852H118.258C118.846 330.852 119.198 330.5 119.198 329.885C119.198 327.362 117.502 325.587 115.041 325.587C112.422 325.587 110.752 327.485 110.752 330.421C110.752 333.409 112.386 335.176 115.173 335.176ZM112.676 329.524C112.773 328.083 113.722 327.116 115.032 327.116C116.35 327.116 117.256 328.074 117.299 329.524H112.676ZM121.544 335.167C122.106 335.167 122.493 334.78 122.493 334.165V329.445C122.493 328.294 123.02 327.424 124.321 327.415C124.717 327.415 124.998 327.336 125.191 327.169C125.376 327.02 125.472 326.8 125.472 326.501C125.472 326.202 125.393 325.974 125.218 325.833C125.059 325.684 124.804 325.604 124.47 325.604C123.548 325.604 122.695 326.299 122.44 327.336H122.396V326.545C122.396 325.965 122.027 325.587 121.5 325.587C120.964 325.587 120.594 325.965 120.594 326.545V334.165C120.594 334.78 120.972 335.167 121.544 335.167ZM127.37 335.167C127.941 335.167 128.319 334.771 128.319 334.165V329.287C128.319 328.101 129.119 327.222 130.244 327.222C131.316 327.222 131.993 327.898 131.993 328.962V334.165C131.993 334.771 132.353 335.167 132.925 335.167C133.496 335.167 133.856 334.771 133.856 334.165V329.226C133.856 328.057 134.639 327.222 135.764 327.222C136.889 327.222 137.53 327.907 137.53 329.103V334.165C137.53 334.771 137.908 335.167 138.479 335.167C139.051 335.167 139.437 334.771 139.437 334.165V328.646C139.437 326.809 138.242 325.596 136.414 325.596C135.096 325.596 134.006 326.281 133.531 327.406H133.487C133.118 326.255 132.186 325.596 130.903 325.596C129.655 325.596 128.688 326.281 128.275 327.31H128.231V326.554C128.231 325.947 127.853 325.587 127.326 325.587C126.79 325.587 126.421 325.956 126.421 326.554V334.165C126.421 334.771 126.799 335.167 127.37 335.167ZM145.167 335.176C147.812 335.176 149.553 333.356 149.553 330.377C149.553 327.406 147.804 325.587 145.167 325.587C142.53 325.587 140.781 327.406 140.781 330.377C140.781 333.356 142.521 335.176 145.167 335.176ZM145.167 333.611C143.682 333.611 142.715 332.434 142.715 330.377C142.715 328.329 143.682 327.151 145.167 327.151C146.652 327.151 147.619 328.329 147.619 330.377C147.619 332.434 146.661 333.611 145.167 333.611ZM75.7932 356.167C76.347 356.167 76.7425 355.789 76.7425 355.165V350.612C76.7425 349.18 77.6038 348.23 78.9397 348.23C80.2581 348.23 80.9085 348.995 80.9085 350.384V355.165C80.9085 355.789 81.304 356.167 81.8577 356.167C82.4202 356.167 82.8157 355.789 82.8157 355.165V350.015C82.8157 347.896 81.6468 346.596 79.6077 346.596C78.1839 346.596 77.2171 347.229 76.7161 348.283H76.6721V347.554C76.6721 346.965 76.2942 346.587 75.7493 346.587C75.1956 346.587 74.844 346.965 74.844 347.545V355.165C74.844 355.789 75.2307 356.167 75.7932 356.167ZM88.5804 356.176C90.3031 356.176 91.6478 355.481 92.2543 354.269C92.3334 354.084 92.3861 353.908 92.3861 353.759C92.3861 353.284 92.0521 352.985 91.5951 352.985C91.3226 352.985 91.1293 353.082 90.9271 353.319C90.224 354.277 89.5736 354.638 88.5365 354.638C87.0248 354.638 86.0755 353.583 86.0755 351.896V351.852H91.6654C92.2543 351.852 92.6058 351.5 92.6058 350.885C92.6058 348.362 90.9095 346.587 88.4486 346.587C85.8295 346.587 84.1595 348.485 84.1595 351.421C84.1595 354.409 85.7943 356.176 88.5804 356.176ZM86.0843 350.524C86.181 349.083 87.1302 348.116 88.4398 348.116C89.7582 348.116 90.6634 349.074 90.7074 350.524H86.0843ZM95.0219 356.167C95.5756 356.167 95.9711 355.789 95.9711 355.165V344.152C95.9711 343.528 95.5756 343.15 95.0219 343.15C94.4682 343.15 94.0727 343.528 94.0727 344.152V355.165C94.0727 355.789 94.4682 356.167 95.0219 356.167ZM101.972 353.785C101.972 355.314 102.763 356.079 104.319 356.079H104.416C105.347 356.079 105.787 355.789 105.787 355.218C105.787 354.77 105.514 354.55 104.969 354.497L104.82 354.488C104.134 354.436 103.879 354.102 103.879 353.363V348.257H104.961C105.453 348.257 105.752 347.976 105.752 347.51C105.752 347.044 105.453 346.754 104.961 346.754H103.879V345.383C103.879 344.776 103.502 344.372 102.93 344.372C102.35 344.372 101.972 344.776 101.972 345.383V346.754H101.304C100.812 346.754 100.513 347.035 100.513 347.51C100.513 347.976 100.812 348.257 101.304 348.257H101.972V353.785ZM110.901 356.176C112.624 356.176 113.968 355.481 114.575 354.269C114.654 354.084 114.707 353.908 114.707 353.759C114.707 353.284 114.373 352.985 113.916 352.985C113.643 352.985 113.45 353.082 113.248 353.319C112.545 354.277 111.894 354.638 110.857 354.638C109.345 354.638 108.396 353.583 108.396 351.896V351.852H113.986C114.575 351.852 114.926 351.5 114.926 350.885C114.926 348.362 113.23 346.587 110.769 346.587C108.15 346.587 106.48 348.485 106.48 351.421C106.48 354.409 108.115 356.176 110.901 356.176ZM108.405 350.524C108.502 349.083 109.451 348.116 110.76 348.116C112.079 348.116 112.984 349.074 113.028 350.524H108.405ZM117.272 356.167C117.844 356.167 118.221 355.771 118.221 355.165V350.287C118.221 349.101 119.021 348.222 120.146 348.222C121.219 348.222 121.895 348.898 121.895 349.962V355.165C121.895 355.771 122.256 356.167 122.827 356.167C123.398 356.167 123.759 355.771 123.759 355.165V350.226C123.759 349.057 124.541 348.222 125.666 348.222C126.791 348.222 127.432 348.907 127.432 350.103V355.165C127.432 355.771 127.81 356.167 128.382 356.167C128.953 356.167 129.34 355.771 129.34 355.165V349.646C129.34 347.809 128.144 346.596 126.316 346.596C124.998 346.596 123.908 347.281 123.433 348.406H123.389C123.02 347.255 122.089 346.596 120.805 346.596C119.557 346.596 118.591 347.281 118.178 348.31H118.134V347.554C118.134 346.947 117.756 346.587 117.228 346.587C116.692 346.587 116.323 346.956 116.323 347.554V355.165C116.323 355.771 116.701 356.167 117.272 356.167ZM132.046 359.278C132.599 359.278 132.995 358.892 132.995 358.268V354.479H133.039C133.566 355.508 134.621 356.158 135.948 356.158C138.268 356.158 139.806 354.304 139.806 351.377C139.806 348.45 138.26 346.604 135.913 346.604C134.577 346.604 133.514 347.281 132.969 348.345H132.933V347.562C132.933 346.956 132.547 346.587 132.011 346.587C131.474 346.587 131.097 346.956 131.097 347.562V358.268C131.097 358.892 131.483 359.278 132.046 359.278ZM135.412 354.55C133.953 354.55 132.986 353.302 132.986 351.377C132.986 349.47 133.962 348.204 135.412 348.204C136.915 348.204 137.855 349.443 137.855 351.377C137.855 353.319 136.915 354.55 135.412 354.55ZM145.167 356.176C147.812 356.176 149.553 354.356 149.553 351.377C149.553 348.406 147.804 346.587 145.167 346.587C142.53 346.587 140.781 348.406 140.781 351.377C140.781 354.356 142.521 356.176 145.167 356.176ZM145.167 354.611C143.682 354.611 142.715 353.434 142.715 351.377C142.715 349.329 143.682 348.151 145.167 348.151C146.652 348.151 147.619 349.329 147.619 351.377C147.619 353.434 146.661 354.611 145.167 354.611ZM93.9418 377.176C96.2269 377.176 97.765 376.033 97.765 374.319C97.765 372.948 97.0179 372.254 95.0755 371.806L93.6429 371.472C92.6673 371.243 92.2191 370.839 92.2191 370.259C92.2191 369.538 92.9222 369.037 93.9418 369.037C94.8734 369.037 95.4359 369.406 95.849 370.109C96.0336 370.408 96.306 370.514 96.6136 370.514C97.0882 370.514 97.3519 370.232 97.3519 369.811C97.3519 369.723 97.3343 369.635 97.3168 369.529C97.0531 368.439 95.682 367.587 94.0121 367.587C91.8148 367.587 90.3646 368.694 90.3646 370.364C90.3646 371.683 91.2435 372.562 93.0365 372.983L94.4955 373.326C95.4886 373.563 95.849 373.889 95.849 374.495C95.849 375.26 95.1195 375.726 94.0384 375.726C92.9398 375.726 92.3861 375.392 91.9115 374.645C91.6742 374.293 91.4017 374.144 91.0853 374.144C90.6107 374.144 90.2679 374.425 90.2679 374.899C90.2679 375.022 90.2855 375.154 90.347 375.295C90.7865 376.429 92.1224 377.176 93.9418 377.176ZM99.7065 374.785C99.7065 376.314 100.497 377.079 102.053 377.079H102.15C103.081 377.079 103.521 376.789 103.521 376.218C103.521 375.77 103.248 375.55 102.704 375.497L102.554 375.488C101.869 375.436 101.614 375.102 101.614 374.363V369.257H102.695C103.187 369.257 103.486 368.976 103.486 368.51C103.486 368.044 103.187 367.754 102.695 367.754H101.614V366.383C101.614 365.776 101.236 365.372 100.664 365.372C100.084 365.372 99.7065 365.776 99.7065 366.383V367.754H99.0385C98.5463 367.754 98.2475 368.035 98.2475 368.51C98.2475 368.976 98.5463 369.257 99.0385 369.257H99.7065V374.785ZM107.422 377.158C108.626 377.158 109.804 376.508 110.34 375.479H110.384V376.262C110.402 376.824 110.762 377.167 111.29 377.167C111.826 377.167 112.204 376.807 112.204 376.209V370.628C112.204 368.773 110.771 367.587 108.53 367.587C106.869 367.587 105.471 368.255 104.988 369.301C104.874 369.512 104.821 369.723 104.821 369.916C104.821 370.391 105.164 370.707 105.638 370.707C105.972 370.707 106.218 370.584 106.412 370.303C106.939 369.459 107.545 369.134 108.459 369.134C109.62 369.134 110.314 369.749 110.314 370.777V371.489L107.774 371.639C105.585 371.762 104.337 372.755 104.337 374.372C104.337 376.033 105.612 377.158 107.422 377.158ZM107.941 375.655C106.93 375.655 106.253 375.128 106.253 374.319C106.253 373.528 106.895 373.027 108.029 372.948L110.314 372.808V373.537C110.314 374.741 109.268 375.655 107.941 375.655ZM114.945 377.167C115.499 377.167 115.885 376.815 115.885 376.218V375.427H115.921C116.492 376.499 117.546 377.158 118.891 377.158C121.247 377.158 122.758 375.312 122.758 372.377C122.758 369.45 121.238 367.604 118.909 367.604C117.599 367.604 116.536 368.255 115.982 369.327H115.938V365.152C115.938 364.528 115.543 364.15 114.989 364.15C114.435 364.15 114.04 364.528 114.04 365.152V376.218C114.04 376.815 114.4 377.167 114.945 377.167ZM118.381 375.55C116.949 375.55 115.929 374.302 115.929 372.377C115.929 370.47 116.949 369.204 118.381 369.204C119.876 369.204 120.807 370.435 120.807 372.377C120.807 374.337 119.884 375.55 118.381 375.55ZM125.166 366.356C125.781 366.356 126.273 365.864 126.273 365.267C126.273 364.66 125.781 364.186 125.166 364.186C124.559 364.186 124.067 364.66 124.067 365.267C124.067 365.864 124.559 366.356 125.166 366.356ZM125.166 377.167C125.737 377.167 126.115 376.771 126.115 376.165V368.598C126.115 367.982 125.737 367.587 125.166 367.587C124.594 367.587 124.216 367.982 124.216 368.598V376.165C124.216 376.771 124.594 377.167 125.166 377.167ZM128.997 377.167C129.551 377.167 129.946 376.789 129.946 376.165V365.152C129.946 364.528 129.551 364.15 128.997 364.15C128.443 364.15 128.048 364.528 128.048 365.152V376.165C128.048 376.789 128.443 377.167 128.997 377.167ZM132.828 366.356C133.443 366.356 133.935 365.864 133.935 365.267C133.935 364.66 133.443 364.186 132.828 364.186C132.222 364.186 131.729 364.66 131.729 365.267C131.729 365.864 132.222 366.356 132.828 366.356ZM132.828 377.167C133.399 377.167 133.777 376.771 133.777 376.165V368.598C133.777 367.982 133.399 367.587 132.828 367.587C132.257 367.587 131.879 367.982 131.879 368.598V376.165C131.879 376.771 132.257 377.167 132.828 377.167ZM136.193 374.785C136.193 376.314 136.984 377.079 138.54 377.079H138.637C139.568 377.079 140.008 376.789 140.008 376.218C140.008 375.77 139.735 375.55 139.19 375.497L139.041 375.488C138.355 375.436 138.101 375.102 138.101 374.363V369.257H139.182C139.674 369.257 139.973 368.976 139.973 368.51C139.973 368.044 139.674 367.754 139.182 367.754H138.101V366.383C138.101 365.776 137.723 365.372 137.151 365.372C136.571 365.372 136.193 365.776 136.193 366.383V367.754H135.525C135.033 367.754 134.734 368.035 134.734 368.51C134.734 368.976 135.033 369.257 135.525 369.257H136.193V374.785ZM145.087 377.176C147.732 377.176 149.473 375.356 149.473 372.377C149.473 369.406 147.724 367.587 145.087 367.587C142.45 367.587 140.701 369.406 140.701 372.377C140.701 375.356 142.441 377.176 145.087 377.176ZM145.087 375.611C143.602 375.611 142.635 374.434 142.635 372.377C142.635 370.329 143.602 369.151 145.087 369.151C146.572 369.151 147.539 370.329 147.539 372.377C147.539 374.434 146.581 375.611 145.087 375.611Z" fill="white"/>
<path d="M132.185 264.741C131.49 265.191 131.291 266.119 131.741 266.815C132.191 267.51 133.119 267.709 133.815 267.259L132.185 264.741ZM168.467 244.314C168.64 243.504 168.124 242.707 167.314 242.533L154.114 239.705C153.304 239.531 152.507 240.047 152.333 240.857C152.159 241.667 152.675 242.464 153.485 242.638L165.219 245.152L162.705 256.886C162.531 257.696 163.047 258.493 163.857 258.667C164.667 258.841 165.464 258.325 165.638 257.515L168.467 244.314ZM133.815 267.259L167.815 245.259L166.185 242.741L132.185 264.741L133.815 267.259Z" fill="white"/>
<path d="M48.2998 599.141C48.9062 599.141 49.2842 598.754 49.2842 598.121V588.022H52.3867C52.9316 588.022 53.3008 587.688 53.3008 587.17C53.3008 586.651 52.9316 586.317 52.3867 586.317H44.2041C43.6592 586.317 43.29 586.651 43.29 587.17C43.29 587.688 43.6592 588.022 44.2041 588.022H47.3154V598.121C47.3154 598.754 47.6846 599.141 48.2998 599.141ZM54.8643 599.158C56.0684 599.158 57.2462 598.508 57.7823 597.479H57.8263V598.262C57.8438 598.824 58.2042 599.167 58.7315 599.167C59.2677 599.167 59.6456 598.807 59.6456 598.209V592.628C59.6456 590.773 58.213 589.587 55.9718 589.587C54.3106 589.587 52.9132 590.255 52.4298 591.301C52.3155 591.512 52.2628 591.723 52.2628 591.916C52.2628 592.391 52.6055 592.707 53.0802 592.707C53.4141 592.707 53.6602 592.584 53.8536 592.303C54.3809 591.459 54.9874 591.134 55.9014 591.134C57.0616 591.134 57.7559 591.749 57.7559 592.777V593.489L55.2159 593.639C53.0274 593.762 51.7794 594.755 51.7794 596.372C51.7794 598.033 53.0538 599.158 54.8643 599.158ZM55.3829 597.655C54.3721 597.655 53.6954 597.128 53.6954 596.319C53.6954 595.528 54.337 595.027 55.4708 594.948L57.7559 594.808V595.537C57.7559 596.741 56.71 597.655 55.3829 597.655ZM62.3605 602.278C62.9142 602.278 63.3097 601.892 63.3097 601.268V597.479H63.3537C63.881 598.508 64.9357 599.158 66.2629 599.158C68.5832 599.158 70.1213 597.304 70.1213 594.377C70.1213 591.45 68.5744 589.604 66.2277 589.604C64.8918 589.604 63.8283 590.281 63.2834 591.345H63.2482V590.562C63.2482 589.956 62.8615 589.587 62.3254 589.587C61.7892 589.587 61.4113 589.956 61.4113 590.562V601.268C61.4113 601.892 61.798 602.278 62.3605 602.278ZM65.7267 597.55C64.2677 597.55 63.3009 596.302 63.3009 594.377C63.3009 592.47 64.2765 591.204 65.7267 591.204C67.2296 591.204 68.1701 592.443 68.1701 594.377C68.1701 596.319 67.2296 597.55 65.7267 597.55ZM79.7259 598.631C80.2532 598.631 80.5872 598.253 80.5872 597.708V594.825H83.3118C83.848 594.825 84.2259 594.5 84.2259 593.973C84.2259 593.445 83.848 593.111 83.3118 593.111H80.5872V590.22C80.5872 589.675 80.2532 589.297 79.7259 589.297C79.1898 589.297 78.8558 589.675 78.8558 590.22V593.111H76.1224C75.5863 593.111 75.2171 593.445 75.2171 593.973C75.2171 594.5 75.5863 594.825 76.1224 594.825H78.8558V597.708C78.8558 598.253 79.1898 598.631 79.7259 598.631ZM90.6929 602.278C91.2466 602.278 91.6421 601.892 91.6421 601.268V597.479H91.686C92.2134 598.508 93.268 599.158 94.5952 599.158C96.9155 599.158 98.4536 597.304 98.4536 594.377C98.4536 591.45 96.9067 589.604 94.56 589.604C93.2241 589.604 92.1606 590.281 91.6157 591.345H91.5805V590.562C91.5805 589.956 91.1938 589.587 90.6577 589.587C90.1216 589.587 89.7436 589.956 89.7436 590.562V601.268C89.7436 601.892 90.1304 602.278 90.6929 602.278ZM94.0591 597.55C92.6001 597.55 91.6333 596.302 91.6333 594.377C91.6333 592.47 92.6089 591.204 94.0591 591.204C95.562 591.204 96.5024 592.443 96.5024 594.377C96.5024 596.319 95.562 597.55 94.0591 597.55ZM103.849 599.176C105.572 599.176 106.917 598.481 107.523 597.269C107.602 597.084 107.655 596.908 107.655 596.759C107.655 596.284 107.321 595.985 106.864 595.985C106.591 595.985 106.398 596.082 106.196 596.319C105.493 597.277 104.842 597.638 103.805 597.638C102.294 597.638 101.344 596.583 101.344 594.896V594.852H106.934C107.523 594.852 107.875 594.5 107.875 593.885C107.875 591.362 106.178 589.587 103.717 589.587C101.098 589.587 99.4283 591.485 99.4283 594.421C99.4283 597.409 101.063 599.176 103.849 599.176ZM101.353 593.524C101.45 592.083 102.399 591.116 103.709 591.116C105.027 591.116 105.932 592.074 105.976 593.524H101.353ZM110.22 599.167C110.783 599.167 111.17 598.78 111.17 598.165V593.445C111.17 592.294 111.697 591.424 112.998 591.415C113.393 591.415 113.674 591.336 113.868 591.169C114.052 591.02 114.149 590.8 114.149 590.501C114.149 590.202 114.07 589.974 113.894 589.833C113.736 589.684 113.481 589.604 113.147 589.604C112.224 589.604 111.372 590.299 111.117 591.336H111.073V590.545C111.073 589.965 110.704 589.587 110.176 589.587C109.64 589.587 109.271 589.965 109.271 590.545V598.165C109.271 598.78 109.649 599.167 110.22 599.167ZM46.6475 620.158C47.8516 620.158 49.0293 619.508 49.5654 618.479H49.6094V619.262C49.627 619.824 49.9873 620.167 50.5146 620.167C51.0508 620.167 51.4287 619.807 51.4287 619.209V613.628C51.4287 611.773 49.9961 610.587 47.7549 610.587C46.0938 610.587 44.6963 611.255 44.2129 612.301C44.0986 612.512 44.0459 612.723 44.0459 612.916C44.0459 613.391 44.3887 613.707 44.8633 613.707C45.1973 613.707 45.4434 613.584 45.6367 613.303C46.1641 612.459 46.7705 612.134 47.6846 612.134C48.8447 612.134 49.5391 612.749 49.5391 613.777V614.489L46.999 614.639C44.8105 614.762 43.5625 615.755 43.5625 617.372C43.5625 619.033 44.8369 620.158 46.6475 620.158ZM47.166 618.655C46.1553 618.655 45.4785 618.128 45.4785 617.319C45.4785 616.528 46.1201 616.027 47.2539 615.948L49.5391 615.808V616.537C49.5391 617.741 48.4932 618.655 47.166 618.655ZM57.0704 623.48C59.8214 623.507 61.5001 622.03 61.5001 619.745V611.562C61.5001 610.947 61.0958 610.587 60.5509 610.587C60.0059 610.587 59.5929 610.947 59.5929 611.562V612.31H59.5577C58.9952 611.264 57.9757 610.604 56.6661 610.604C54.2755 610.604 52.7813 612.406 52.7813 615.298C52.7813 618.154 54.293 619.974 56.6221 619.974C57.9405 619.974 59.0304 619.314 59.5489 618.312H59.5929V619.78C59.5929 621.072 58.6524 621.951 57.1055 621.934C56.2003 621.916 55.5499 621.573 54.794 620.782C54.5391 620.527 54.3546 620.431 54.0645 620.431C53.5811 620.431 53.2559 620.747 53.2559 621.187C53.2559 621.406 53.3087 621.6 53.4317 621.811C54.0645 622.812 55.3917 623.463 57.0704 623.48ZM57.1319 618.427C55.6729 618.427 54.7237 617.24 54.7237 615.307C54.7237 613.382 55.6729 612.169 57.1319 612.169C58.6173 612.169 59.6016 613.417 59.6016 615.315C59.6016 617.214 58.6173 618.427 57.1319 618.427ZM67.1681 623.48C69.9191 623.507 71.5978 622.03 71.5978 619.745V611.562C71.5978 610.947 71.1935 610.587 70.6486 610.587C70.1037 610.587 69.6906 610.947 69.6906 611.562V612.31H69.6554C69.0929 611.264 68.0734 610.604 66.7638 610.604C64.3732 610.604 62.8791 612.406 62.8791 615.298C62.8791 618.154 64.3908 619.974 66.7199 619.974C68.0382 619.974 69.1281 619.314 69.6466 618.312H69.6906V619.78C69.6906 621.072 68.7502 621.951 67.2033 621.934C66.298 621.916 65.6476 621.573 64.8918 620.782C64.6369 620.527 64.4523 620.431 64.1623 620.431C63.6789 620.431 63.3537 620.747 63.3537 621.187C63.3537 621.406 63.4064 621.6 63.5295 621.811C64.1623 622.812 65.4894 623.463 67.1681 623.48ZM67.2296 618.427C65.7707 618.427 64.8214 617.24 64.8214 615.307C64.8214 613.382 65.7707 612.169 67.2296 612.169C68.715 612.169 69.6994 613.417 69.6994 615.315C69.6994 617.214 68.715 618.427 67.2296 618.427ZM74.4006 609.356C75.0159 609.356 75.508 608.864 75.508 608.267C75.508 607.66 75.0159 607.186 74.4006 607.186C73.7942 607.186 73.302 607.66 73.302 608.267C73.302 608.864 73.7942 609.356 74.4006 609.356ZM74.4006 620.167C74.9719 620.167 75.3498 619.771 75.3498 619.165V611.598C75.3498 610.982 74.9719 610.587 74.4006 610.587C73.8293 610.587 73.4514 610.982 73.4514 611.598V619.165C73.4514 619.771 73.8293 620.167 74.4006 620.167ZM80.4114 620.167C81.8265 620.167 82.7669 619.543 83.2767 618.436H83.3206V619.209C83.3206 619.789 83.6898 620.167 84.2347 620.167C84.7796 620.167 85.14 619.789 85.14 619.2V611.598C85.14 610.965 84.7532 610.587 84.1907 610.587C83.637 610.587 83.2415 610.965 83.2415 611.598V616.142C83.2415 617.583 82.4154 618.532 81.0443 618.532C79.7347 618.532 79.0667 617.776 79.0667 616.37V611.598C79.0667 610.965 78.6712 610.587 78.1175 610.587C77.555 610.587 77.1683 610.965 77.1683 611.598V616.739C77.1683 618.857 78.3988 620.167 80.4114 620.167ZM87.89 620.167C88.4437 620.167 88.8393 619.789 88.8393 619.165V614.612C88.8393 613.18 89.7006 612.23 91.0365 612.23C92.3549 612.23 93.0053 612.995 93.0053 614.384V619.165C93.0053 619.789 93.4008 620.167 93.9545 620.167C94.517 620.167 94.9125 619.789 94.9125 619.165V614.015C94.9125 611.896 93.7436 610.596 91.7045 610.596C90.2807 610.596 89.3139 611.229 88.8129 612.283H88.7689V611.554C88.7689 610.965 88.391 610.587 87.8461 610.587C87.2924 610.587 86.9408 610.965 86.9408 611.545V619.165C86.9408 619.789 87.3275 620.167 87.89 620.167ZM100.545 623.48C103.296 623.507 104.975 622.03 104.975 619.745V611.562C104.975 610.947 104.571 610.587 104.026 610.587C103.481 610.587 103.068 610.947 103.068 611.562V612.31H103.033C102.47 611.264 101.451 610.604 100.141 610.604C97.7505 610.604 96.2563 612.406 96.2563 615.298C96.2563 618.154 97.768 619.974 100.097 619.974C101.416 619.974 102.505 619.314 103.024 618.312H103.068V619.78C103.068 621.072 102.127 621.951 100.581 621.934C99.6753 621.916 99.0249 621.573 98.269 620.782C98.0141 620.527 97.8296 620.431 97.5395 620.431C97.0561 620.431 96.7309 620.747 96.7309 621.187C96.7309 621.406 96.7837 621.6 96.9067 621.811C97.5395 622.812 98.8667 623.463 100.545 623.48ZM100.607 618.427C99.1479 618.427 98.1987 617.24 98.1987 615.307C98.1987 613.382 99.1479 612.169 100.607 612.169C102.092 612.169 103.077 613.417 103.077 615.315C103.077 617.214 102.092 618.427 100.607 618.427ZM110.775 620.176C112.498 620.176 113.842 619.481 114.449 618.269C114.528 618.084 114.581 617.908 114.581 617.759C114.581 617.284 114.247 616.985 113.79 616.985C113.517 616.985 113.324 617.082 113.122 617.319C112.419 618.277 111.768 618.638 110.731 618.638C109.219 618.638 108.27 617.583 108.27 615.896V615.852H113.86C114.449 615.852 114.8 615.5 114.8 614.885C114.8 612.362 113.104 610.587 110.643 610.587C108.024 610.587 106.354 612.485 106.354 615.421C106.354 618.409 107.989 620.176 110.775 620.176ZM108.279 614.524C108.376 613.083 109.325 612.116 110.634 612.116C111.953 612.116 112.858 613.074 112.902 614.524H108.279ZM117.146 620.167C117.709 620.167 118.095 619.78 118.095 619.165V614.445C118.095 613.294 118.623 612.424 119.923 612.415C120.319 612.415 120.6 612.336 120.794 612.169C120.978 612.02 121.075 611.8 121.075 611.501C121.075 611.202 120.996 610.974 120.82 610.833C120.662 610.684 120.407 610.604 120.073 610.604C119.15 610.604 118.298 611.299 118.043 612.336H117.999V611.545C117.999 610.965 117.63 610.587 117.102 610.587C116.566 610.587 116.197 610.965 116.197 611.545V619.165C116.197 619.78 116.575 620.167 117.146 620.167ZM125.627 620.176C127.349 620.176 128.694 619.481 129.301 618.269C129.38 618.084 129.432 617.908 129.432 617.759C129.432 617.284 129.098 616.985 128.641 616.985C128.369 616.985 128.176 617.082 127.973 617.319C127.27 618.277 126.62 618.638 125.583 618.638C124.071 618.638 123.122 617.583 123.122 615.896V615.852H128.712C129.301 615.852 129.652 615.5 129.652 614.885C129.652 612.362 127.956 610.587 125.495 610.587C122.876 610.587 121.206 612.485 121.206 615.421C121.206 618.409 122.841 620.176 125.627 620.176ZM123.131 614.524C123.227 613.083 124.176 612.116 125.486 612.116C126.804 612.116 127.71 613.074 127.754 614.524H123.131ZM44.4941 638.785C44.4941 640.314 45.2852 641.079 46.8408 641.079H46.9375C47.8691 641.079 48.3086 640.789 48.3086 640.218C48.3086 639.77 48.0361 639.55 47.4912 639.497L47.3418 639.488C46.6562 639.436 46.4014 639.102 46.4014 638.363V633.257H47.4824C47.9746 633.257 48.2734 632.976 48.2734 632.51C48.2734 632.044 47.9746 631.754 47.4824 631.754H46.4014V630.383C46.4014 629.776 46.0234 629.372 45.4521 629.372C44.8721 629.372 44.4941 629.776 44.4941 630.383V631.754H43.8262C43.334 631.754 43.0352 632.035 43.0352 632.51C43.0352 632.976 43.334 633.257 43.8262 633.257H44.4941V638.785ZM53.4229 641.176C55.1456 641.176 56.4903 640.481 57.0968 639.269C57.1759 639.084 57.2286 638.908 57.2286 638.759C57.2286 638.284 56.8946 637.985 56.4376 637.985C56.1651 637.985 55.9718 638.082 55.7696 638.319C55.0665 639.277 54.4161 639.638 53.379 639.638C51.8673 639.638 50.918 638.583 50.918 636.896V636.852H56.5079C57.0968 636.852 57.4483 636.5 57.4483 635.885C57.4483 633.362 55.752 631.587 53.2911 631.587C50.672 631.587 49.002 633.485 49.002 636.421C49.002 639.409 50.6368 641.176 53.4229 641.176ZM50.9268 635.524C51.0235 634.083 51.9727 633.116 53.2823 633.116C54.6007 633.116 55.5059 634.074 55.5499 635.524H50.9268ZM59.7941 641.167C60.3654 641.167 60.7433 640.771 60.7433 640.165V635.287C60.7433 634.101 61.5431 633.222 62.6681 633.222C63.7404 633.222 64.4171 633.898 64.4171 634.962V640.165C64.4171 640.771 64.7775 641.167 65.3488 641.167C65.9201 641.167 66.2804 640.771 66.2804 640.165V635.226C66.2804 634.057 67.0627 633.222 68.1877 633.222C69.3127 633.222 69.9543 633.907 69.9543 635.103V640.165C69.9543 640.771 70.3322 641.167 70.9035 641.167C71.4748 641.167 71.8615 640.771 71.8615 640.165V634.646C71.8615 632.809 70.6662 631.596 68.838 631.596C67.5197 631.596 66.4298 632.281 65.9552 633.406H65.9113C65.5421 632.255 64.6105 631.596 63.3273 631.596C62.0793 631.596 61.1125 632.281 60.6994 633.31H60.6554V632.554C60.6554 631.947 60.2775 631.587 59.7502 631.587C59.214 631.587 58.8449 631.956 58.8449 632.554V640.165C58.8449 640.771 59.2228 641.167 59.7941 641.167ZM74.5676 644.278C75.1213 644.278 75.5168 643.892 75.5168 643.268V639.479H75.5608C76.0881 640.508 77.1428 641.158 78.47 641.158C80.7903 641.158 82.3284 639.304 82.3284 636.377C82.3284 633.45 80.7815 631.604 78.4348 631.604C77.0989 631.604 76.0354 632.281 75.4905 633.345H75.4553V632.562C75.4553 631.956 75.0686 631.587 74.5325 631.587C73.9963 631.587 73.6184 631.956 73.6184 632.562V643.268C73.6184 643.892 74.0051 644.278 74.5676 644.278ZM77.9338 639.55C76.4748 639.55 75.508 638.302 75.508 636.377C75.508 634.47 76.4836 633.204 77.9338 633.204C79.4368 633.204 80.3772 634.443 80.3772 636.377C80.3772 638.319 79.4368 639.55 77.9338 639.55ZM87.6888 641.176C90.3343 641.176 92.0745 639.356 92.0745 636.377C92.0745 633.406 90.3255 631.587 87.6888 631.587C85.0521 631.587 83.303 633.406 83.303 636.377C83.303 639.356 85.0433 641.176 87.6888 641.176ZM87.6888 639.611C86.2034 639.611 85.2366 638.434 85.2366 636.377C85.2366 634.329 86.2034 633.151 87.6888 633.151C89.1741 633.151 90.1409 634.329 90.1409 636.377C90.1409 638.434 89.1829 639.611 87.6888 639.611Z" fill="black"/>
<path d="M71.496 643.891C71.4355 643.064 70.7168 642.444 69.8905 642.504C69.0643 642.564 68.4435 643.283 68.504 644.109L71.496 643.891ZM72.0196 686.135C72.6466 686.677 73.5938 686.607 74.1353 685.98L82.9591 675.763C83.5006 675.136 83.4313 674.189 82.8043 673.648C82.1773 673.106 81.2301 673.175 80.6886 673.802L72.8452 682.884L63.7633 675.041C63.1364 674.499 62.1891 674.569 61.6477 675.196C61.1062 675.823 61.1755 676.77 61.8025 677.311L72.0196 686.135ZM68.504 644.109L71.504 685.109L74.496 684.891L71.496 643.891L68.504 644.109Z" fill="black"/>
<path d="M347.563 586.013C345.223 600.506 329.212 609.976 311.801 607.164C294.39 604.353 282.173 590.325 284.513 575.832C286.853 561.339 310.064 507.279 327.475 510.09C344.886 512.901 349.903 571.52 347.563 586.013Z" fill="black"/>
<path d="M189.3 584.141C189.906 584.141 190.284 583.754 190.284 583.121V573.022H193.387C193.932 573.022 194.301 572.688 194.301 572.17C194.301 571.651 193.932 571.317 193.387 571.317H185.204C184.659 571.317 184.29 571.651 184.29 572.17C184.29 572.688 184.659 573.022 185.204 573.022H188.315V583.121C188.315 583.754 188.685 584.141 189.3 584.141ZM194.687 584.167C195.249 584.167 195.636 583.78 195.636 583.165V578.445C195.636 577.294 196.163 576.424 197.464 576.415C197.859 576.415 198.141 576.336 198.334 576.169C198.519 576.02 198.615 575.8 198.615 575.501C198.615 575.202 198.536 574.974 198.36 574.833C198.202 574.684 197.947 574.604 197.613 574.604C196.691 574.604 195.838 575.299 195.583 576.336H195.539V575.545C195.539 574.965 195.17 574.587 194.643 574.587C194.107 574.587 193.737 574.965 193.737 575.545V583.165C193.737 583.78 194.115 584.167 194.687 584.167ZM202.077 584.158C203.281 584.158 204.459 583.508 204.995 582.479H205.039V583.262C205.057 583.824 205.417 584.167 205.944 584.167C206.481 584.167 206.859 583.807 206.859 583.209V577.628C206.859 575.773 205.426 574.587 203.185 574.587C201.524 574.587 200.126 575.255 199.643 576.301C199.528 576.512 199.476 576.723 199.476 576.916C199.476 577.391 199.819 577.707 200.293 577.707C200.627 577.707 200.873 577.584 201.067 577.303C201.594 576.459 202.2 576.134 203.114 576.134C204.275 576.134 204.969 576.749 204.969 577.777V578.489L202.429 578.639C200.24 578.762 198.992 579.755 198.992 581.372C198.992 583.033 200.267 584.158 202.077 584.158ZM202.596 582.655C201.585 582.655 200.908 582.128 200.908 581.319C200.908 580.528 201.55 580.027 202.684 579.948L204.969 579.808V580.537C204.969 581.741 203.923 582.655 202.596 582.655ZM212.034 584.176C214.32 584.176 215.858 583.033 215.858 581.319C215.858 579.948 215.111 579.254 213.168 578.806L211.736 578.472C210.76 578.243 210.312 577.839 210.312 577.259C210.312 576.538 211.015 576.037 212.034 576.037C212.966 576.037 213.529 576.406 213.942 577.109C214.126 577.408 214.399 577.514 214.706 577.514C215.181 577.514 215.445 577.232 215.445 576.811C215.445 576.723 215.427 576.635 215.409 576.529C215.146 575.439 213.775 574.587 212.105 574.587C209.907 574.587 208.457 575.694 208.457 577.364C208.457 578.683 209.336 579.562 211.129 579.983L212.588 580.326C213.581 580.563 213.942 580.889 213.942 581.495C213.942 582.26 213.212 582.726 212.131 582.726C211.032 582.726 210.479 582.392 210.004 581.645C209.767 581.293 209.494 581.144 209.178 581.144C208.703 581.144 208.361 581.425 208.361 581.899C208.361 582.022 208.378 582.154 208.44 582.295C208.879 583.429 210.215 584.176 212.034 584.176ZM221.201 584.176C222.914 584.176 224.417 583.271 224.901 581.996C224.971 581.812 225.006 581.653 225.006 581.504C225.006 581.029 224.663 580.713 224.198 580.713C223.784 580.713 223.582 580.871 223.319 581.328C222.87 582.128 222.246 582.585 221.218 582.585C219.75 582.585 218.766 581.39 218.766 579.377C218.766 577.408 219.733 576.169 221.218 576.169C222.194 576.169 222.844 576.591 223.319 577.47C223.547 577.892 223.776 578.05 224.18 578.05C224.646 578.05 224.989 577.751 224.989 577.268C224.989 577.136 224.953 576.978 224.901 576.828C224.496 575.536 222.967 574.587 221.183 574.587C218.546 574.587 216.832 576.468 216.832 579.395C216.832 582.339 218.555 584.176 221.201 584.176ZM227.475 573.356C228.09 573.356 228.582 572.864 228.582 572.267C228.582 571.66 228.09 571.186 227.475 571.186C226.869 571.186 226.376 571.66 226.376 572.267C226.376 572.864 226.869 573.356 227.475 573.356ZM227.475 584.167C228.046 584.167 228.424 583.771 228.424 583.165V575.598C228.424 574.982 228.046 574.587 227.475 574.587C226.904 574.587 226.526 574.982 226.526 575.598V583.165C226.526 583.771 226.904 584.167 227.475 584.167ZM231.236 584.167C231.79 584.167 232.185 583.789 232.185 583.165V578.612C232.185 577.18 233.046 576.23 234.382 576.23C235.701 576.23 236.351 576.995 236.351 578.384V583.165C236.351 583.789 236.747 584.167 237.3 584.167C237.863 584.167 238.258 583.789 238.258 583.165V578.015C238.258 575.896 237.089 574.596 235.05 574.596C233.626 574.596 232.66 575.229 232.159 576.283H232.115V575.554C232.115 574.965 231.737 574.587 231.192 574.587C230.638 574.587 230.287 574.965 230.287 575.545V583.165C230.287 583.789 230.673 584.167 231.236 584.167ZM242.722 584.158C243.926 584.158 245.104 583.508 245.64 582.479H245.684V583.262C245.702 583.824 246.062 584.167 246.589 584.167C247.126 584.167 247.503 583.807 247.503 583.209V577.628C247.503 575.773 246.071 574.587 243.83 574.587C242.169 574.587 240.771 575.255 240.288 576.301C240.173 576.512 240.121 576.723 240.121 576.916C240.121 577.391 240.463 577.707 240.938 577.707C241.272 577.707 241.518 577.584 241.711 577.303C242.239 576.459 242.845 576.134 243.759 576.134C244.919 576.134 245.614 576.749 245.614 577.777V578.489L243.074 578.639C240.885 578.762 239.637 579.755 239.637 581.372C239.637 583.033 240.912 584.158 242.722 584.158ZM243.241 582.655C242.23 582.655 241.553 582.128 241.553 581.319C241.553 580.528 242.195 580.027 243.329 579.948L245.614 579.808V580.537C245.614 581.741 244.568 582.655 243.241 582.655ZM253.865 584.167C254.419 584.167 254.814 583.789 254.814 583.165V572.152C254.814 571.528 254.419 571.15 253.865 571.15C253.311 571.15 252.916 571.528 252.916 572.152V583.165C252.916 583.789 253.311 584.167 253.865 584.167ZM260.693 584.176C262.416 584.176 263.761 583.481 264.367 582.269C264.446 582.084 264.499 581.908 264.499 581.759C264.499 581.284 264.165 580.985 263.708 580.985C263.435 580.985 263.242 581.082 263.04 581.319C262.337 582.277 261.686 582.638 260.649 582.638C259.137 582.638 258.188 581.583 258.188 579.896V579.852H263.778C264.367 579.852 264.719 579.5 264.719 578.885C264.719 576.362 263.022 574.587 260.561 574.587C257.942 574.587 256.272 576.485 256.272 579.421C256.272 582.409 257.907 584.176 260.693 584.176ZM258.197 578.524C258.294 577.083 259.243 576.116 260.553 576.116C261.871 576.116 262.776 577.074 262.82 578.524H258.197ZM188.816 608.48C191.567 608.507 193.246 607.03 193.246 604.745V596.562C193.246 595.947 192.842 595.587 192.297 595.587C191.752 595.587 191.339 595.947 191.339 596.562V597.31H191.304C190.741 596.264 189.722 595.604 188.412 595.604C186.021 595.604 184.527 597.406 184.527 600.298C184.527 603.154 186.039 604.974 188.368 604.974C189.687 604.974 190.776 604.314 191.295 603.312H191.339V604.78C191.339 606.072 190.398 606.951 188.852 606.934C187.946 606.916 187.296 606.573 186.54 605.782C186.285 605.527 186.101 605.431 185.811 605.431C185.327 605.431 185.002 605.747 185.002 606.187C185.002 606.406 185.055 606.6 185.178 606.811C185.811 607.812 187.138 608.463 188.816 608.48ZM188.878 603.427C187.419 603.427 186.47 602.24 186.47 600.307C186.47 598.382 187.419 597.169 188.878 597.169C190.363 597.169 191.348 598.417 191.348 600.315C191.348 602.214 190.363 603.427 188.878 603.427ZM199.011 605.176C201.656 605.176 203.397 603.356 203.397 600.377C203.397 597.406 201.648 595.587 199.011 595.587C196.374 595.587 194.625 597.406 194.625 600.377C194.625 603.356 196.365 605.176 199.011 605.176ZM199.011 603.611C197.525 603.611 196.559 602.434 196.559 600.377C196.559 598.329 197.525 597.151 199.011 597.151C200.496 597.151 201.463 598.329 201.463 600.377C201.463 602.434 200.505 603.611 199.011 603.611ZM208.739 605.176C210.453 605.176 211.956 604.271 212.44 602.996C212.51 602.812 212.545 602.653 212.545 602.504C212.545 602.029 212.202 601.713 211.736 601.713C211.323 601.713 211.121 601.871 210.858 602.328C210.409 603.128 209.785 603.585 208.757 603.585C207.289 603.585 206.305 602.39 206.305 600.377C206.305 598.408 207.272 597.169 208.757 597.169C209.733 597.169 210.383 597.591 210.858 598.47C211.086 598.892 211.315 599.05 211.719 599.05C212.185 599.05 212.528 598.751 212.528 598.268C212.528 598.136 212.492 597.978 212.44 597.828C212.035 596.536 210.506 595.587 208.722 595.587C206.085 595.587 204.371 597.468 204.371 600.395C204.371 603.339 206.094 605.176 208.739 605.176ZM217.958 605.176C219.672 605.176 221.175 604.271 221.658 602.996C221.729 602.812 221.764 602.653 221.764 602.504C221.764 602.029 221.421 601.713 220.955 601.713C220.542 601.713 220.34 601.871 220.076 602.328C219.628 603.128 219.004 603.585 217.976 603.585C216.508 603.585 215.524 602.39 215.524 600.377C215.524 598.408 216.49 597.169 217.976 597.169C218.951 597.169 219.602 597.591 220.076 598.47C220.305 598.892 220.533 599.05 220.938 599.05C221.404 599.05 221.746 598.751 221.746 598.268C221.746 598.136 221.711 597.978 221.658 597.828C221.254 596.536 219.725 595.587 217.941 595.587C215.304 595.587 213.59 597.468 213.59 600.395C213.59 603.339 215.313 605.176 217.958 605.176ZM227.23 605.176C228.952 605.176 230.297 604.481 230.904 603.269C230.983 603.084 231.035 602.908 231.035 602.759C231.035 602.284 230.701 601.985 230.244 601.985C229.972 601.985 229.779 602.082 229.576 602.319C228.873 603.277 228.223 603.638 227.186 603.638C225.674 603.638 224.725 602.583 224.725 600.896V600.852H230.315C230.904 600.852 231.255 600.5 231.255 599.885C231.255 597.362 229.559 595.587 227.098 595.587C224.479 595.587 222.809 597.485 222.809 600.421C222.809 603.409 224.444 605.176 227.23 605.176ZM224.734 599.524C224.83 598.083 225.78 597.116 227.089 597.116C228.408 597.116 229.313 598.074 229.357 599.524H224.734ZM237.177 608.278C237.731 608.278 238.126 607.892 238.126 607.268V603.479H238.17C238.698 604.508 239.752 605.158 241.08 605.158C243.4 605.158 244.938 603.304 244.938 600.377C244.938 597.45 243.391 595.604 241.044 595.604C239.708 595.604 238.645 596.281 238.1 597.345H238.065V596.562C238.065 595.956 237.678 595.587 237.142 595.587C236.606 595.587 236.228 595.956 236.228 596.562V607.268C236.228 607.892 236.615 608.278 237.177 608.278ZM240.543 603.55C239.084 603.55 238.118 602.302 238.118 600.377C238.118 598.47 239.093 597.204 240.543 597.204C242.046 597.204 242.987 598.443 242.987 600.377C242.987 602.319 242.046 603.55 240.543 603.55ZM250.334 605.176C252.056 605.176 253.401 604.481 254.007 603.269C254.086 603.084 254.139 602.908 254.139 602.759C254.139 602.284 253.805 601.985 253.348 601.985C253.076 601.985 252.882 602.082 252.68 602.319C251.977 603.277 251.327 603.638 250.29 603.638C248.778 603.638 247.829 602.583 247.829 600.896V600.852H253.419C254.007 600.852 254.359 600.5 254.359 599.885C254.359 597.362 252.663 595.587 250.202 595.587C247.583 595.587 245.913 597.485 245.913 600.421C245.913 603.409 247.547 605.176 250.334 605.176ZM247.837 599.524C247.934 598.083 248.883 597.116 250.193 597.116C251.511 597.116 252.417 598.074 252.461 599.524H247.837ZM256.705 605.167C257.267 605.167 257.654 604.78 257.654 604.165V599.445C257.654 598.294 258.181 597.424 259.482 597.415C259.878 597.415 260.159 597.336 260.352 597.169C260.537 597.02 260.633 596.8 260.633 596.501C260.633 596.202 260.554 595.974 260.379 595.833C260.22 595.684 259.965 595.604 259.631 595.604C258.709 595.604 257.856 596.299 257.601 597.336H257.557V596.545C257.557 595.965 257.188 595.587 256.661 595.587C256.125 595.587 255.756 595.965 255.756 596.545V604.165C255.756 604.78 256.133 605.167 256.705 605.167ZM187.647 626.158C188.852 626.158 190.029 625.508 190.565 624.479H190.609V625.262C190.627 625.824 190.987 626.167 191.515 626.167C192.051 626.167 192.429 625.807 192.429 625.209V619.628C192.429 617.773 190.996 616.587 188.755 616.587C187.094 616.587 185.696 617.255 185.213 618.301C185.099 618.512 185.046 618.723 185.046 618.916C185.046 619.391 185.389 619.707 185.863 619.707C186.197 619.707 186.443 619.584 186.637 619.303C187.164 618.459 187.771 618.134 188.685 618.134C189.845 618.134 190.539 618.749 190.539 619.777V620.489L187.999 620.639C185.811 620.762 184.562 621.755 184.562 623.372C184.562 625.033 185.837 626.158 187.647 626.158ZM188.166 624.655C187.155 624.655 186.479 624.128 186.479 623.319C186.479 622.528 187.12 622.027 188.254 621.948L190.539 621.808V622.537C190.539 623.741 189.493 624.655 188.166 624.655ZM198.07 629.48C200.821 629.507 202.5 628.03 202.5 625.745V617.562C202.5 616.947 202.096 616.587 201.551 616.587C201.006 616.587 200.593 616.947 200.593 617.562V618.31H200.558C199.995 617.264 198.976 616.604 197.666 616.604C195.275 616.604 193.781 618.406 193.781 621.298C193.781 624.154 195.293 625.974 197.622 625.974C198.941 625.974 200.03 625.314 200.549 624.312H200.593V625.78C200.593 627.072 199.652 627.951 198.106 627.934C197.2 627.916 196.55 627.573 195.794 626.782C195.539 626.527 195.355 626.431 195.065 626.431C194.581 626.431 194.256 626.747 194.256 627.187C194.256 627.406 194.309 627.6 194.432 627.811C195.065 628.812 196.392 629.463 198.07 629.48ZM198.132 624.427C196.673 624.427 195.724 623.24 195.724 621.307C195.724 619.382 196.673 618.169 198.132 618.169C199.617 618.169 200.602 619.417 200.602 621.315C200.602 623.214 199.617 624.427 198.132 624.427ZM208.168 629.48C210.919 629.507 212.598 628.03 212.598 625.745V617.562C212.598 616.947 212.194 616.587 211.649 616.587C211.104 616.587 210.691 616.947 210.691 617.562V618.31H210.655C210.093 617.264 209.073 616.604 207.764 616.604C205.373 616.604 203.879 618.406 203.879 621.298C203.879 624.154 205.391 625.974 207.72 625.974C209.038 625.974 210.128 625.314 210.647 624.312H210.691V625.78C210.691 627.072 209.75 627.951 208.203 627.934C207.298 627.916 206.648 627.573 205.892 626.782C205.637 626.527 205.452 626.431 205.162 626.431C204.679 626.431 204.354 626.747 204.354 627.187C204.354 627.406 204.406 627.6 204.529 627.811C205.162 628.812 206.489 629.463 208.168 629.48ZM208.23 624.427C206.771 624.427 205.821 623.24 205.821 621.307C205.821 619.382 206.771 618.169 208.23 618.169C209.715 618.169 210.699 619.417 210.699 621.315C210.699 623.214 209.715 624.427 208.23 624.427ZM215.401 615.356C216.016 615.356 216.508 614.864 216.508 614.267C216.508 613.66 216.016 613.186 215.401 613.186C214.794 613.186 214.302 613.66 214.302 614.267C214.302 614.864 214.794 615.356 215.401 615.356ZM215.401 626.167C215.972 626.167 216.35 625.771 216.35 625.165V617.598C216.35 616.982 215.972 616.587 215.401 616.587C214.829 616.587 214.451 616.982 214.451 617.598V625.165C214.451 625.771 214.829 626.167 215.401 626.167ZM222.185 626.176C224.83 626.176 226.571 624.356 226.571 621.377C226.571 618.406 224.822 616.587 222.185 616.587C219.548 616.587 217.799 618.406 217.799 621.377C217.799 624.356 219.539 626.176 222.185 626.176ZM222.185 624.611C220.7 624.611 219.733 623.434 219.733 621.377C219.733 619.329 220.7 618.151 222.185 618.151C223.67 618.151 224.637 619.329 224.637 621.377C224.637 623.434 223.679 624.611 222.185 624.611ZM228.908 626.167C229.47 626.167 229.857 625.78 229.857 625.165V620.445C229.857 619.294 230.384 618.424 231.685 618.415C232.08 618.415 232.362 618.336 232.555 618.169C232.74 618.02 232.836 617.8 232.836 617.501C232.836 617.202 232.757 616.974 232.581 616.833C232.423 616.684 232.168 616.604 231.834 616.604C230.912 616.604 230.059 617.299 229.804 618.336H229.76V617.545C229.76 616.965 229.391 616.587 228.864 616.587C228.328 616.587 227.958 616.965 227.958 617.545V625.165C227.958 625.78 228.336 626.167 228.908 626.167ZM234.734 626.167C235.288 626.167 235.683 625.789 235.683 625.165V620.612C235.683 619.18 236.544 618.23 237.88 618.23C239.199 618.23 239.849 618.995 239.849 620.384V625.165C239.849 625.789 240.245 626.167 240.798 626.167C241.361 626.167 241.756 625.789 241.756 625.165V620.015C241.756 617.896 240.587 616.596 238.548 616.596C237.124 616.596 236.158 617.229 235.657 618.283H235.613V617.554C235.613 616.965 235.235 616.587 234.69 616.587C234.136 616.587 233.785 616.965 233.785 617.545V625.165C233.785 625.789 234.171 626.167 234.734 626.167ZM246.22 626.158C247.424 626.158 248.602 625.508 249.138 624.479H249.182V625.262C249.2 625.824 249.56 626.167 250.087 626.167C250.624 626.167 251.002 625.807 251.002 625.209V619.628C251.002 617.773 249.569 616.587 247.328 616.587C245.667 616.587 244.269 617.255 243.786 618.301C243.671 618.512 243.619 618.723 243.619 618.916C243.619 619.391 243.961 619.707 244.436 619.707C244.77 619.707 245.016 619.584 245.21 619.303C245.737 618.459 246.343 618.134 247.257 618.134C248.418 618.134 249.112 618.749 249.112 619.777V620.489L246.572 620.639C244.383 620.762 243.135 621.755 243.135 623.372C243.135 625.033 244.41 626.158 246.22 626.158ZM246.739 624.655C245.728 624.655 245.051 624.128 245.051 623.319C245.051 622.528 245.693 622.027 246.827 621.948L249.112 621.808V622.537C249.112 623.741 248.066 624.655 246.739 624.655ZM253.716 626.167C254.279 626.167 254.666 625.78 254.666 625.165V620.445C254.666 619.294 255.193 618.424 256.494 618.415C256.889 618.415 257.171 618.336 257.364 618.169C257.548 618.02 257.645 617.8 257.645 617.501C257.645 617.202 257.566 616.974 257.39 616.833C257.232 616.684 256.977 616.604 256.643 616.604C255.72 616.604 254.868 617.299 254.613 618.336H254.569V617.545C254.569 616.965 254.2 616.587 253.673 616.587C253.136 616.587 252.767 616.965 252.767 617.545V625.165C252.767 625.78 253.145 626.167 253.716 626.167ZM262.197 626.176C263.92 626.176 265.264 625.481 265.871 624.269C265.95 624.084 266.003 623.908 266.003 623.759C266.003 623.284 265.669 622.985 265.212 622.985C264.939 622.985 264.746 623.082 264.544 623.319C263.841 624.277 263.19 624.638 262.153 624.638C260.641 624.638 259.692 623.583 259.692 621.896V621.852H265.282C265.871 621.852 266.222 621.5 266.222 620.885C266.222 618.362 264.526 616.587 262.065 616.587C259.446 616.587 257.776 618.485 257.776 621.421C257.776 624.409 259.411 626.176 262.197 626.176ZM259.701 620.524C259.798 619.083 260.747 618.116 262.056 618.116C263.375 618.116 264.28 619.074 264.324 620.524H259.701ZM185.951 636.356C186.566 636.356 187.059 635.864 187.059 635.267C187.059 634.66 186.566 634.186 185.951 634.186C185.345 634.186 184.853 634.66 184.853 635.267C184.853 635.864 185.345 636.356 185.951 636.356ZM185.951 647.167C186.522 647.167 186.9 646.771 186.9 646.165V638.598C186.9 637.982 186.522 637.587 185.951 637.587C185.38 637.587 185.002 637.982 185.002 638.598V646.165C185.002 646.771 185.38 647.167 185.951 647.167ZM189.782 647.167C190.336 647.167 190.732 646.789 190.732 646.165V635.152C190.732 634.528 190.336 634.15 189.782 634.15C189.229 634.15 188.833 634.528 188.833 635.152V646.165C188.833 646.789 189.229 647.167 189.782 647.167ZM196.733 644.785C196.733 646.314 197.524 647.079 199.079 647.079H199.176C200.108 647.079 200.547 646.789 200.547 646.218C200.547 645.77 200.275 645.55 199.73 645.497L199.58 645.488C198.895 645.436 198.64 645.102 198.64 644.363V639.257H199.721C200.213 639.257 200.512 638.976 200.512 638.51C200.512 638.044 200.213 637.754 199.721 637.754H198.64V636.383C198.64 635.776 198.262 635.372 197.691 635.372C197.111 635.372 196.733 635.776 196.733 636.383V637.754H196.065C195.573 637.754 195.274 638.035 195.274 638.51C195.274 638.976 195.573 639.257 196.065 639.257H196.733V644.785ZM202.893 636.356C203.508 636.356 204 635.864 204 635.267C204 634.66 203.508 634.186 202.893 634.186C202.286 634.186 201.794 634.66 201.794 635.267C201.794 635.864 202.286 636.356 202.893 636.356ZM202.893 647.167C203.464 647.167 203.842 646.771 203.842 646.165V638.598C203.842 637.982 203.464 637.587 202.893 637.587C202.322 637.587 201.944 637.982 201.944 638.598V646.165C201.944 646.771 202.322 647.167 202.893 647.167ZM206.654 647.167C207.225 647.167 207.603 646.771 207.603 646.165V641.287C207.603 640.101 208.403 639.222 209.528 639.222C210.6 639.222 211.277 639.898 211.277 640.962V646.165C211.277 646.771 211.637 647.167 212.208 647.167C212.78 647.167 213.14 646.771 213.14 646.165V641.226C213.14 640.057 213.922 639.222 215.047 639.222C216.172 639.222 216.814 639.907 216.814 641.103V646.165C216.814 646.771 217.192 647.167 217.763 647.167C218.334 647.167 218.721 646.771 218.721 646.165V640.646C218.721 638.809 217.526 637.596 215.698 637.596C214.379 637.596 213.289 638.281 212.815 639.406H212.771C212.402 638.255 211.47 637.596 210.187 637.596C208.939 637.596 207.972 638.281 207.559 639.31H207.515V638.554C207.515 637.947 207.137 637.587 206.61 637.587C206.074 637.587 205.704 637.956 205.704 638.554V646.165C205.704 646.771 206.082 647.167 206.654 647.167ZM224.486 647.176C226.208 647.176 227.553 646.481 228.16 645.269C228.239 645.084 228.291 644.908 228.291 644.759C228.291 644.284 227.958 643.985 227.5 643.985C227.228 643.985 227.035 644.082 226.833 644.319C226.129 645.277 225.479 645.638 224.442 645.638C222.93 645.638 221.981 644.583 221.981 642.896V642.852H227.571C228.16 642.852 228.511 642.5 228.511 641.885C228.511 639.362 226.815 637.587 224.354 637.587C221.735 637.587 220.065 639.485 220.065 642.421C220.065 645.409 221.7 647.176 224.486 647.176ZM221.99 641.524C222.086 640.083 223.036 639.116 224.345 639.116C225.664 639.116 226.569 640.074 226.613 641.524H221.99ZM230.857 647.167C231.419 647.167 231.806 646.78 231.806 646.165V641.445C231.806 640.294 232.334 639.424 233.634 639.415C234.03 639.415 234.311 639.336 234.504 639.169C234.689 639.02 234.786 638.8 234.786 638.501C234.786 638.202 234.707 637.974 234.531 637.833C234.373 637.684 234.118 637.604 233.784 637.604C232.861 637.604 232.008 638.299 231.753 639.336H231.71V638.545C231.71 637.965 231.34 637.587 230.813 637.587C230.277 637.587 229.908 637.965 229.908 638.545V646.165C229.908 646.78 230.286 647.167 230.857 647.167Z" fill="black"/>
<path d="M234.905 658.156C234.339 658.76 234.37 659.71 234.975 660.276C235.58 660.842 236.529 660.811 237.095 660.206L234.905 658.156ZM281.499 612.131C281.472 611.303 280.779 610.654 279.951 610.681L266.458 611.126C265.63 611.154 264.981 611.847 265.008 612.675C265.035 613.503 265.729 614.152 266.557 614.125L278.55 613.729L278.946 625.723C278.973 626.551 279.666 627.2 280.494 627.173C281.322 627.145 281.971 626.452 281.944 625.624L281.499 612.131ZM237.095 660.206L281.095 613.206L278.905 611.156L234.905 658.156L237.095 660.206Z" fill="black"/>
<path d="M133.3 130.141C133.906 130.141 134.284 129.754 134.284 129.121V119.022H137.387C137.932 119.022 138.301 118.688 138.301 118.17C138.301 117.651 137.932 117.317 137.387 117.317H129.204C128.659 117.317 128.29 117.651 128.29 118.17C128.29 118.688 128.659 119.022 129.204 119.022H132.315V129.121C132.315 129.754 132.685 130.141 133.3 130.141ZM141.165 130.176C143.811 130.176 145.551 128.356 145.551 125.377C145.551 122.406 143.802 120.587 141.165 120.587C138.528 120.587 136.779 122.406 136.779 125.377C136.779 128.356 138.52 130.176 141.165 130.176ZM141.165 128.611C139.68 128.611 138.713 127.434 138.713 125.377C138.713 123.329 139.68 122.151 141.165 122.151C142.65 122.151 143.617 123.329 143.617 125.377C143.617 127.434 142.659 128.611 141.165 128.611ZM147.888 130.167C148.45 130.167 148.837 129.78 148.837 129.165V124.445C148.837 123.294 149.364 122.424 150.665 122.415C151.061 122.415 151.342 122.336 151.535 122.169C151.72 122.02 151.817 121.8 151.817 121.501C151.817 121.202 151.737 120.974 151.562 120.833C151.403 120.684 151.149 120.604 150.815 120.604C149.892 120.604 149.039 121.299 148.784 122.336H148.74V121.545C148.74 120.965 148.371 120.587 147.844 120.587C147.308 120.587 146.939 120.965 146.939 121.545V129.165C146.939 129.78 147.317 130.167 147.888 130.167ZM153.714 130.167C154.268 130.167 154.663 129.789 154.663 129.165V124.612C154.663 123.18 155.525 122.23 156.861 122.23C158.179 122.23 158.829 122.995 158.829 124.384V129.165C158.829 129.789 159.225 130.167 159.779 130.167C160.341 130.167 160.737 129.789 160.737 129.165V124.015C160.737 121.896 159.568 120.596 157.529 120.596C156.105 120.596 155.138 121.229 154.637 122.283H154.593V121.554C154.593 120.965 154.215 120.587 153.67 120.587C153.116 120.587 152.765 120.965 152.765 121.545V129.165C152.765 129.789 153.152 130.167 153.714 130.167ZM165.201 130.158C166.405 130.158 167.582 129.508 168.118 128.479H168.162V129.262C168.18 129.824 168.54 130.167 169.068 130.167C169.604 130.167 169.982 129.807 169.982 129.209V123.628C169.982 121.773 168.549 120.587 166.308 120.587C164.647 120.587 163.249 121.255 162.766 122.301C162.652 122.512 162.599 122.723 162.599 122.916C162.599 123.391 162.942 123.707 163.416 123.707C163.75 123.707 163.996 123.584 164.19 123.303C164.717 122.459 165.324 122.134 166.238 122.134C167.398 122.134 168.092 122.749 168.092 123.777V124.489L165.552 124.639C163.364 124.762 162.116 125.755 162.116 127.372C162.116 129.033 163.39 130.158 165.201 130.158ZM165.719 128.655C164.708 128.655 164.032 128.128 164.032 127.319C164.032 126.528 164.673 126.027 165.807 125.948L168.092 125.808V126.537C168.092 127.741 167.046 128.655 165.719 128.655ZM178.031 130.158C179.235 130.158 180.413 129.508 180.949 128.479H180.993V129.262C181.01 129.824 181.371 130.167 181.898 130.167C182.434 130.167 182.812 129.807 182.812 129.209V123.628C182.812 121.773 181.379 120.587 179.138 120.587C177.477 120.587 176.08 121.255 175.596 122.301C175.482 122.512 175.429 122.723 175.429 122.916C175.429 123.391 175.772 123.707 176.247 123.707C176.581 123.707 176.827 123.584 177.02 123.303C177.547 122.459 178.154 122.134 179.068 122.134C180.228 122.134 180.922 122.749 180.922 123.777V124.489L178.382 124.639C176.194 124.762 174.946 125.755 174.946 127.372C174.946 129.033 176.22 130.158 178.031 130.158ZM178.549 128.655C177.539 128.655 176.862 128.128 176.862 127.319C176.862 126.528 177.503 126.027 178.637 125.948L180.922 125.808V126.537C180.922 127.741 179.876 128.655 178.549 128.655ZM185.597 130.167C186.151 130.167 186.546 129.789 186.546 129.165V118.152C186.546 117.528 186.151 117.15 185.597 117.15C185.044 117.15 184.648 117.528 184.648 118.152V129.165C184.648 129.789 185.044 130.167 185.597 130.167ZM192.548 127.785C192.548 129.314 193.339 130.079 194.894 130.079H194.991C195.923 130.079 196.362 129.789 196.362 129.218C196.362 128.77 196.09 128.55 195.545 128.497L195.395 128.488C194.71 128.436 194.455 128.102 194.455 127.363V122.257H195.536C196.028 122.257 196.327 121.976 196.327 121.51C196.327 121.044 196.028 120.754 195.536 120.754H194.455V119.383C194.455 118.776 194.077 118.372 193.506 118.372C192.926 118.372 192.548 118.776 192.548 119.383V120.754H191.88C191.387 120.754 191.089 121.035 191.089 121.51C191.089 121.976 191.387 122.257 191.88 122.257H192.548V127.785ZM200.896 130.167C202.311 130.167 203.252 129.543 203.762 128.436H203.805V129.209C203.805 129.789 204.175 130.167 204.72 130.167C205.264 130.167 205.625 129.789 205.625 129.2V121.598C205.625 120.965 205.238 120.587 204.676 120.587C204.122 120.587 203.726 120.965 203.726 121.598V126.142C203.726 127.583 202.9 128.532 201.529 128.532C200.22 128.532 199.552 127.776 199.552 126.37V121.598C199.552 120.965 199.156 120.587 198.602 120.587C198.04 120.587 197.653 120.965 197.653 121.598V126.739C197.653 128.857 198.884 130.167 200.896 130.167ZM211.398 130.176C214.044 130.176 215.784 128.356 215.784 125.377C215.784 122.406 214.035 120.587 211.398 120.587C208.762 120.587 207.013 122.406 207.013 125.377C207.013 128.356 208.753 130.176 211.398 130.176ZM211.398 128.611C209.913 128.611 208.946 127.434 208.946 125.377C208.946 123.329 209.913 122.151 211.398 122.151C212.884 122.151 213.85 123.329 213.85 125.377C213.85 127.434 212.892 128.611 211.398 128.611ZM130.452 151.167C131.023 151.167 131.401 150.807 131.401 150.174V143.257H132.623C133.071 143.257 133.379 142.993 133.379 142.519C133.379 142.062 133.071 141.771 132.623 141.771H131.375V140.937C131.375 140.093 131.709 139.715 132.509 139.706C132.702 139.706 132.86 139.68 132.992 139.645C133.3 139.557 133.449 139.372 133.449 139.064C133.449 138.555 132.966 138.229 131.955 138.229C130.364 138.238 129.494 139.073 129.494 140.866V141.771H128.835C128.387 141.771 128.079 142.062 128.079 142.519C128.079 142.993 128.387 143.257 128.835 143.257H129.494V150.174C129.494 150.807 129.872 151.167 130.452 151.167ZM135.681 151.167C136.234 151.167 136.63 150.789 136.63 150.165V139.152C136.63 138.528 136.234 138.15 135.681 138.15C135.127 138.15 134.732 138.528 134.732 139.152V150.165C134.732 150.789 135.127 151.167 135.681 151.167ZM142.474 151.176C145.119 151.176 146.86 149.356 146.86 146.377C146.86 143.406 145.111 141.587 142.474 141.587C139.837 141.587 138.088 143.406 138.088 146.377C138.088 149.356 139.828 151.176 142.474 151.176ZM142.474 149.611C140.988 149.611 140.022 148.434 140.022 146.377C140.022 144.329 140.988 143.151 142.474 143.151C143.959 143.151 144.926 144.329 144.926 146.377C144.926 148.434 143.968 149.611 142.474 149.611ZM150.989 151.167C151.631 151.167 152.027 150.859 152.202 150.209L153.916 144.074H153.96L155.692 150.209C155.867 150.886 156.237 151.167 156.896 151.167C157.52 151.167 157.906 150.859 158.091 150.209L160.2 142.94C160.262 142.721 160.288 142.562 160.288 142.404C160.288 141.912 159.928 141.587 159.374 141.587C158.9 141.587 158.627 141.842 158.504 142.378L156.843 149.031H156.799L155.032 142.448C154.901 141.886 154.531 141.587 153.96 141.587C153.38 141.587 153.002 141.886 152.87 142.448L151.113 149.031H151.077L149.416 142.378C149.293 141.842 149.012 141.587 148.537 141.587C147.984 141.587 147.614 141.912 147.614 142.404C147.614 142.562 147.641 142.729 147.711 142.94L149.821 150.209C150.014 150.877 150.365 151.167 150.989 151.167Z" fill="white"/>
<path d="M110.955 131.076C111.55 131.653 112.499 131.639 113.076 131.045C113.653 130.45 113.639 129.501 113.045 128.924L110.955 131.076ZM77.9776 95.5002C77.1493 95.5125 76.4878 96.1941 76.5002 97.0224L76.7016 110.521C76.714 111.349 77.3955 112.011 78.2239 111.998C79.0522 111.986 79.7137 111.304 79.7013 110.476L79.5222 98.4774L91.5209 98.2984C92.3492 98.286 93.0107 97.6045 92.9983 96.7761C92.986 95.9478 92.3044 95.2863 91.4761 95.2987L77.9776 95.5002ZM113.045 128.924L79.0447 95.9236L76.9553 98.0764L110.955 131.076L113.045 128.924Z" fill="white"/>
</g>
<defs>
<clipPath id="clip0_367_19540">
<rect width="390" height="844" fill="white"/>
</clipPath>
</defs>
</svg>
